M48
;Layer_Color=9474304
;FILE_FORMAT=4:3
METRIC,LZ
;TYPE=PLATED
T1F00S00C0.500
T2F00S00C0.900
T3F00S00C2.000
%
T01
X00407Y00455
X0042Y004677
X0042Y00442
T02
X0028565Y001938
Y002192
X0036565
Y001938
X0036565Y003138
Y003392
X0028565
Y003138
T03
X0013578Y002
Y0024218
Y0028435
X0019
Y0024218
Y002
Y0037115
Y0041315
X0013577
Y0037115
M30
