G04*
G04 #@! TF.GenerationSoftware,Altium Limited,Altium Designer,18.0.9 (584)*
G04*
G04 Layer_Color=65535*
%FSLAX43Y43*%
%MOMM*%
G71*
G01*
G75*
%ADD10C,0.254*%
%ADD11C,0.200*%
%ADD12C,0.300*%
%ADD13C,0.100*%
D10*
X43270Y45500D02*
G03*
X43270Y45500I-1270J0D01*
G01*
X45500D02*
G03*
X45500Y45500I-3500J0D01*
G01*
X20920Y43423D02*
G03*
X20920Y43423I-92J0D01*
G01*
X98000Y27500D02*
G03*
X98000Y27500I-3000J0D01*
G01*
X93750Y38000D02*
G03*
X93750Y38000I-3000J0D01*
G01*
X83000Y42500D02*
G03*
X83000Y42500I-3000J0D01*
G01*
X72250Y38000D02*
G03*
X72250Y38000I-3000J0D01*
G01*
X68000Y27500D02*
G03*
X68000Y27500I-3000J0D01*
G01*
X93750Y17000D02*
G03*
X93750Y17000I-3000J0D01*
G01*
X83000Y12500D02*
G03*
X83000Y12500I-3000J0D01*
G01*
X72250Y17000D02*
G03*
X72250Y17000I-3000J0D01*
G01*
X95000Y27500D02*
G03*
X95000Y27500I-15000J0D01*
G01*
X54000Y45500D02*
X80000Y45500D01*
X36565Y26145D02*
Y29080D01*
X28565Y26145D02*
Y29080D01*
X39065D02*
Y38080D01*
X39000Y17080D02*
Y26080D01*
X26000Y26080D02*
X39000Y26080D01*
X26000Y17080D02*
Y26080D01*
Y17080D02*
X39000D01*
X26000Y38080D02*
X39000D01*
X26000Y29080D02*
Y38080D01*
Y29080D02*
X39000D01*
X42000Y45000D02*
Y46000D01*
X41500Y45500D02*
X42500D01*
X9500Y11000D02*
X76750D01*
X9500Y8000D02*
X80000D01*
X73271Y28516D02*
X72256D01*
Y27754D01*
X72763D01*
X72256D01*
Y26992D01*
X73779D02*
X74287D01*
X74033D01*
Y28008D01*
X73779D01*
X75049Y28516D02*
Y26992D01*
X75810D01*
X76064Y27246D01*
Y27500D01*
Y27754D01*
X75810Y28008D01*
X75049D01*
X77334Y26992D02*
X76826D01*
X76572Y27246D01*
Y27754D01*
X76826Y28008D01*
X77334D01*
X77588Y27754D01*
Y27500D01*
X76572D01*
X78096Y28008D02*
Y26992D01*
Y27500D01*
X78350Y27754D01*
X78603Y28008D01*
X78857D01*
X82158Y28262D02*
X81904Y28516D01*
X81397D01*
X81143Y28262D01*
Y28008D01*
X81397Y27754D01*
X81904D01*
X82158Y27500D01*
Y27246D01*
X81904Y26992D01*
X81397D01*
X81143Y27246D01*
X82666Y26484D02*
Y28008D01*
X83428D01*
X83682Y27754D01*
Y27246D01*
X83428Y26992D01*
X82666D01*
X84444D02*
X84951D01*
X85205Y27246D01*
Y27754D01*
X84951Y28008D01*
X84444D01*
X84190Y27754D01*
Y27246D01*
X84444Y26992D01*
X85967D02*
X86475D01*
X86729Y27246D01*
Y27754D01*
X86475Y28008D01*
X85967D01*
X85713Y27754D01*
Y27246D01*
X85967Y26992D01*
X87237D02*
X87744D01*
X87491D01*
Y28516D01*
X87237D01*
X41115Y18025D02*
X40100D01*
X39592Y18533D01*
X40100Y19041D01*
X41115D01*
X40353D01*
Y18025D01*
X41115Y19549D02*
X40100D01*
Y20310D01*
X40353Y20564D01*
X41115D01*
Y21326D02*
Y21834D01*
X40861Y22088D01*
X40353D01*
X40100Y21834D01*
Y21326D01*
X40353Y21072D01*
X40861D01*
X41115Y21326D01*
X39592Y23611D02*
X41115D01*
Y22850D01*
X40861Y22596D01*
X40353D01*
X40100Y22850D01*
Y23611D01*
X41115Y24881D02*
Y24373D01*
X40861Y24119D01*
X40353D01*
X40100Y24373D01*
Y24881D01*
X40353Y25135D01*
X40607D01*
Y24119D01*
X39846Y29644D02*
X39592Y29390D01*
Y28882D01*
X39846Y28628D01*
X40861D01*
X41115Y28882D01*
Y29390D01*
X40861Y29644D01*
X40100Y30406D02*
Y30914D01*
X40353Y31168D01*
X41115D01*
Y30406D01*
X40861Y30152D01*
X40607Y30406D01*
Y31168D01*
X39846Y31929D02*
X40100D01*
Y31676D01*
Y32183D01*
Y31929D01*
X40861D01*
X41115Y32183D01*
X39592Y32945D02*
X41115D01*
X40353D01*
X40100Y33199D01*
Y33707D01*
X40353Y33961D01*
X41115D01*
Y34723D02*
Y35230D01*
X40861Y35484D01*
X40353D01*
X40100Y35230D01*
Y34723D01*
X40353Y34469D01*
X40861D01*
X41115Y34723D01*
X39592Y37008D02*
X41115D01*
Y36246D01*
X40861Y35992D01*
X40353D01*
X40100Y36246D01*
Y37008D01*
X41115Y38277D02*
Y37770D01*
X40861Y37516D01*
X40353D01*
X40100Y37770D01*
Y38277D01*
X40353Y38531D01*
X40607D01*
Y37516D01*
X35549Y37250D02*
X35295Y37504D01*
X34787D01*
X34534Y37250D01*
Y36234D01*
X34787Y35980D01*
X35295D01*
X35549Y36234D01*
Y36742D01*
X35041D01*
X36057Y35980D02*
Y37504D01*
X37073Y35980D01*
Y37504D01*
X37581D02*
Y35980D01*
X38342D01*
X38596Y36234D01*
Y37250D01*
X38342Y37504D01*
X37581D01*
X35295Y24742D02*
X36311D01*
X37834Y25504D02*
X36819D01*
Y24742D01*
X37327Y24996D01*
X37581D01*
X37834Y24742D01*
Y24234D01*
X37581Y23980D01*
X37073D01*
X36819Y24234D01*
X27549Y25249D02*
X27295Y25503D01*
X26787D01*
X26534Y25249D01*
Y24234D01*
X26787Y23980D01*
X27295D01*
X27549Y24234D01*
Y24742D01*
X27041D01*
X28057Y23980D02*
Y25503D01*
X29073Y23980D01*
Y25503D01*
X29581D02*
Y23980D01*
X30342D01*
X30596Y24234D01*
Y25249D01*
X30342Y25503D01*
X29581D01*
X27295Y36742D02*
X28311D01*
X27803Y37249D02*
Y36234D01*
X29834Y37503D02*
X28819D01*
Y36742D01*
X29327Y36996D01*
X29581D01*
X29834Y36742D01*
Y36234D01*
X29581Y35980D01*
X29073D01*
X28819Y36234D01*
X68250Y50023D02*
X69266D01*
X68758D01*
Y48500D01*
X70789Y50023D02*
X69774D01*
Y49262D01*
X70281D01*
X69774D01*
Y48500D01*
X71297Y50023D02*
Y48500D01*
X72059D01*
X72313Y48754D01*
Y49770D01*
X72059Y50023D01*
X71297D01*
X72821Y49262D02*
X73836D01*
X75360Y50023D02*
X74344D01*
Y49262D01*
X74852Y49516D01*
X75106D01*
X75360Y49262D01*
Y48754D01*
X75106Y48500D01*
X74598D01*
X74344Y48754D01*
X75868Y49770D02*
X76121Y50023D01*
X76629D01*
X76883Y49770D01*
Y48754D01*
X76629Y48500D01*
X76121D01*
X75868Y48754D01*
Y49770D01*
X77391Y48500D02*
Y50023D01*
X78153D01*
X78407Y49770D01*
Y49262D01*
X78153Y49008D01*
X77391D01*
X77899D02*
X78407Y48500D01*
X78915D02*
Y49516D01*
X79422Y50023D01*
X79930Y49516D01*
Y48500D01*
Y49262D01*
X78915D01*
X83000Y48500D02*
Y50023D01*
X84016Y48500D01*
Y50023D01*
X84524D02*
X85539D01*
X85031D01*
Y48500D01*
X86047Y50023D02*
Y48500D01*
Y49008D01*
X87063Y50023D01*
X86301Y49262D01*
X87063Y48500D01*
X87571Y49262D02*
X88586D01*
X89856Y48500D02*
Y50023D01*
X89094Y49262D01*
X90110D01*
X84500Y46000D02*
Y47016D01*
X85008Y47524D01*
X85516Y47016D01*
Y46000D01*
Y46762D01*
X84500D01*
X86024Y46000D02*
Y47016D01*
X86531Y47524D01*
X87039Y47016D01*
Y46000D01*
Y46762D01*
X86024D01*
X87547Y47524D02*
Y46000D01*
X88309D01*
X88563Y46254D01*
Y46508D01*
X88309Y46762D01*
X87547D01*
X88309D01*
X88563Y47016D01*
Y47270D01*
X88309Y47524D01*
X87547D01*
D11*
X27295Y18110D02*
X29835D01*
X27295D02*
Y23190D01*
X29835D01*
Y18110D02*
Y23190D01*
X35295Y30110D02*
X37835D01*
X35295D02*
Y35190D01*
X37835D01*
Y30110D02*
Y35190D01*
X27295Y30110D02*
X29835D01*
X27295D02*
Y35190D01*
X29835D01*
Y30110D02*
Y35190D01*
X35295Y18110D02*
X37835D01*
X35295D02*
Y23190D01*
X37835D01*
Y18110D02*
Y23190D01*
D12*
X-173Y43977D02*
X21417D01*
X-173Y34377D02*
X21417D01*
Y43977D01*
X-173Y34377D02*
Y43977D01*
D13*
X10248Y38619D02*
X9623Y38381D01*
X10248Y38143D02*
X9623Y38381D01*
X10040Y37914D02*
X10010Y37973D01*
X9950Y38033D01*
X9861Y38062D01*
X9802D01*
X9712Y38033D01*
X9653Y37973D01*
X9623Y37914D01*
Y37824D01*
X9653Y37765D01*
X9712Y37705D01*
X9802Y37676D01*
X9861D01*
X9950Y37705D01*
X10010Y37765D01*
X10040Y37824D01*
Y37914D01*
X10248Y37539D02*
X9623D01*
X10248Y37319D02*
X9742D01*
X9653Y37289D01*
X9623Y37229D01*
Y37170D01*
X10040Y37408D02*
Y37200D01*
Y36723D02*
X9623D01*
X9950D02*
X10010Y36783D01*
X10040Y36842D01*
Y36932D01*
X10010Y36991D01*
X9950Y37051D01*
X9861Y37081D01*
X9802D01*
X9712Y37051D01*
X9653Y36991D01*
X9623Y36932D01*
Y36842D01*
X9653Y36783D01*
X9712Y36723D01*
X10040Y36200D02*
X9563D01*
X9474Y36230D01*
X9444Y36259D01*
X9415Y36319D01*
Y36408D01*
X9444Y36468D01*
X9950Y36200D02*
X10010Y36259D01*
X10040Y36319D01*
Y36408D01*
X10010Y36468D01*
X9950Y36527D01*
X9861Y36557D01*
X9802D01*
X9712Y36527D01*
X9653Y36468D01*
X9623Y36408D01*
Y36319D01*
X9653Y36259D01*
X9712Y36200D01*
X9861Y36033D02*
Y35676D01*
X9921D01*
X9980Y35706D01*
X10010Y35736D01*
X10040Y35795D01*
Y35884D01*
X10010Y35944D01*
X9950Y36003D01*
X9861Y36033D01*
X9802D01*
X9712Y36003D01*
X9653Y35944D01*
X9623Y35884D01*
Y35795D01*
X9653Y35736D01*
X9712Y35676D01*
X9623Y42343D02*
X10248Y42581D01*
X9623Y42819D01*
X9831Y42730D02*
Y42432D01*
X10040Y42197D02*
X9623D01*
X9921D02*
X10010Y42108D01*
X10040Y42048D01*
Y41959D01*
X10010Y41899D01*
X9921Y41870D01*
X9623D01*
X9921D02*
X10010Y41780D01*
X10040Y41721D01*
Y41632D01*
X10010Y41572D01*
X9921Y41542D01*
X9623D01*
X10040Y41346D02*
X9415D01*
X9950D02*
X10010Y41286D01*
X10040Y41227D01*
Y41138D01*
X10010Y41078D01*
X9950Y41019D01*
X9861Y40989D01*
X9802D01*
X9712Y41019D01*
X9653Y41078D01*
X9623Y41138D01*
Y41227D01*
X9653Y41286D01*
X9712Y41346D01*
X9861Y40855D02*
Y40498D01*
X9921D01*
X9980Y40528D01*
X10010Y40557D01*
X10040Y40617D01*
Y40706D01*
X10010Y40766D01*
X9950Y40825D01*
X9861Y40855D01*
X9802D01*
X9712Y40825D01*
X9653Y40766D01*
X9623Y40706D01*
Y40617D01*
X9653Y40557D01*
X9712Y40498D01*
X10040Y40364D02*
X9623D01*
X9861D02*
X9950Y40334D01*
X10010Y40275D01*
X10040Y40215D01*
Y40126D01*
M02*
