G04*
G04 #@! TF.GenerationSoftware,Altium Limited,Altium Designer,18.0.9 (584)*
G04*
G04 Layer_Physical_Order=2*
G04 Layer_Color=16711680*
%FSLAX43Y43*%
%MOMM*%
G71*
G01*
G75*
%ADD10C,0.254*%
%ADD11C,0.200*%
%ADD18C,0.800*%
%ADD19R,1.500X1.500*%
%ADD20C,1.500*%
%ADD21C,3.000*%
D10*
X36565Y31380D02*
X37569D01*
X36565Y30376D02*
Y31380D01*
Y32384D01*
X35561Y31380D02*
X36565D01*
X28565Y19380D02*
Y20384D01*
Y19380D02*
X29569D01*
X28565Y18376D02*
Y19380D01*
X27561D02*
X28565D01*
X19000Y28435D02*
X20754D01*
X17246D02*
X19000D01*
Y26681D02*
Y28435D01*
Y30189D01*
Y24218D02*
Y25972D01*
Y24218D02*
X20754D01*
X19000Y22463D02*
Y24218D01*
X17246D02*
X19000D01*
Y20000D02*
X20754D01*
X19000Y18246D02*
Y20000D01*
Y21754D01*
X17246Y20000D02*
X19000D01*
D11*
X42754Y46770D02*
G03*
X42754Y46770I-754J0D01*
G01*
X42754Y44200D02*
G03*
X42754Y44200I-754J0D01*
G01*
X41454Y45500D02*
G03*
X41454Y45500I-754J0D01*
G01*
X37669Y31380D02*
G03*
X37669Y31380I-1104J0D01*
G01*
X29669D02*
G03*
X29669Y31380I-1104J0D01*
G01*
X37669Y19380D02*
G03*
X37669Y19380I-1104J0D01*
G01*
X29669D02*
G03*
X29669Y19380I-1104J0D01*
G01*
X20854Y41315D02*
G03*
X20854Y41315I-1854J0D01*
G01*
Y37115D02*
G03*
X20854Y37115I-1854J0D01*
G01*
Y28435D02*
G03*
X20854Y28435I-1854J0D01*
G01*
X15431Y41315D02*
G03*
X15431Y41315I-1854J0D01*
G01*
Y37115D02*
G03*
X15431Y37115I-1854J0D01*
G01*
X15432Y28435D02*
G03*
X15432Y28435I-1854J0D01*
G01*
X20854Y24218D02*
G03*
X20854Y24218I-1854J0D01*
G01*
X15432D02*
G03*
X15432Y24218I-1854J0D01*
G01*
X20854Y20000D02*
G03*
X20854Y20000I-1854J0D01*
G01*
X15432D02*
G03*
X15432Y20000I-1854J0D01*
G01*
X42724Y46980D02*
X48000D01*
X42645Y46380D02*
X48000D01*
X41400Y45780D02*
X48000D01*
X41383Y45180D02*
X48000D01*
X42435Y47386D02*
Y51000D01*
X41835Y47506D02*
Y51000D01*
X42651Y44580D02*
X48000D01*
X42721Y43980D02*
X48000D01*
X42435Y44816D02*
Y46154D01*
X41835Y44936D02*
Y46034D01*
X20000Y48780D02*
X48000D01*
X20000Y49380D02*
X48000D01*
X20000Y48180D02*
X48000D01*
X20000Y50580D02*
X48000D01*
X20000Y51000D02*
X48000D01*
X20000Y49980D02*
X48000D01*
X20136Y42780D02*
X48000D01*
X20000Y47580D02*
X48000D01*
X20640Y42180D02*
X48000D01*
X20835Y41580D02*
X48000D01*
X20000Y46380D02*
X41355D01*
X20823Y40980D02*
X48000D01*
X37669Y33780D02*
X48000D01*
X37669Y34380D02*
X48000D01*
X37669Y33180D02*
X48000D01*
X20835Y37380D02*
X48000D01*
X20823Y36780D02*
X48000D01*
X37669Y34980D02*
X48000D01*
X20853Y28380D02*
X48000D01*
X20772Y28980D02*
X48000D01*
X20854Y24180D02*
X48000D01*
X37669Y31380D02*
X48000D01*
X37492Y31980D02*
X48000D01*
X37492Y30780D02*
X48000D01*
X20640Y37980D02*
X48000D01*
X20601Y36180D02*
X48000D01*
X20040Y35580D02*
X48000D01*
X20601Y40380D02*
X48000D01*
X20040Y39780D02*
X48000D01*
X20136Y38580D02*
X48000D01*
X20767Y24780D02*
X48000D01*
X20444Y25380D02*
X48000D01*
X20741Y23580D02*
X48000D01*
X20734Y27780D02*
X48000D01*
X20458Y29580D02*
X48000D01*
X20365Y27180D02*
X48000D01*
X40035Y45855D02*
Y51000D01*
X37635Y35024D02*
Y51000D01*
X41235Y46032D02*
Y51000D01*
X40635Y46251D02*
Y51000D01*
X36435Y35024D02*
Y51000D01*
X29235Y35024D02*
Y51000D01*
X37035Y35024D02*
Y51000D01*
X37669Y32816D02*
Y35024D01*
X35835D02*
Y51000D01*
X35461Y35024D02*
X37669D01*
X35461Y32816D02*
Y35024D01*
X29669Y32816D02*
Y35024D01*
Y34980D02*
X35461D01*
X20835Y41581D02*
Y51000D01*
X20000Y46980D02*
X41276D01*
X20835Y37381D02*
Y41049D01*
X20235Y42698D02*
Y51000D01*
X20000Y46000D02*
Y51000D01*
X20235Y38498D02*
Y39932D01*
X28635Y35024D02*
Y51000D01*
X28035Y35024D02*
Y51000D01*
X27461Y35024D02*
X29669D01*
X20835Y28701D02*
Y36849D01*
X20235Y29818D02*
Y35732D01*
X27461Y32816D02*
Y35024D01*
X37635Y31652D02*
Y32816D01*
X37035Y32379D02*
Y32816D01*
X35461D02*
X37669D01*
X35835Y32208D02*
Y32816D01*
X29669Y34380D02*
X35461D01*
X36435Y32476D02*
Y32816D01*
X37035Y23024D02*
Y30381D01*
X29669Y33180D02*
X35461D01*
X29669Y33780D02*
X35461D01*
X27461Y32816D02*
X29669D01*
X28635Y32482D02*
Y32816D01*
X28035Y32348D02*
Y32816D01*
X29235Y32257D02*
Y32816D01*
X29669Y31380D02*
X35461D01*
X29492Y31980D02*
X35638D01*
X29492Y30780D02*
X35638D01*
X20835Y24483D02*
Y28169D01*
X20235Y25600D02*
Y27052D01*
X43635Y17000D02*
Y51000D01*
X43035Y17000D02*
Y51000D01*
X44835Y17000D02*
Y51000D01*
X44235Y17000D02*
Y51000D01*
X42435Y17000D02*
Y43584D01*
X41235Y17000D02*
Y44968D01*
X41835Y17000D02*
Y43464D01*
X47835Y17000D02*
Y51000D01*
X47235Y17000D02*
Y51000D01*
X48000Y17000D02*
Y51000D01*
X46035Y17000D02*
Y51000D01*
X45435Y17000D02*
Y51000D01*
X46635Y17000D02*
Y51000D01*
X37669Y20816D02*
Y23024D01*
X37635D02*
Y31108D01*
X35461Y23024D02*
X37669D01*
X36435D02*
Y30284D01*
X35835Y23024D02*
Y30552D01*
X29669Y22980D02*
X35461D01*
X40035Y17000D02*
Y45145D01*
X39435Y17000D02*
Y51000D01*
X40635Y17000D02*
Y44749D01*
X38835Y17000D02*
Y51000D01*
X38235Y17000D02*
Y51000D01*
X35461Y20816D02*
Y23024D01*
X37669Y22380D02*
X48000D01*
X37669Y22980D02*
X48000D01*
X37669Y21780D02*
X48000D01*
X37669Y21180D02*
X48000D01*
X37035Y20379D02*
Y20816D01*
X36435Y20476D02*
Y20816D01*
X37669Y19380D02*
X48000D01*
X37492Y19980D02*
X48000D01*
X37492Y18780D02*
X48000D01*
X37635Y17000D02*
Y19108D01*
Y19652D02*
Y20816D01*
X37035Y17000D02*
Y18381D01*
X35835Y20208D02*
Y20816D01*
X35461D02*
X37669D01*
X20761Y20580D02*
X48000D01*
X29669Y21780D02*
X35461D01*
X29669Y22380D02*
X35461D01*
X29669Y21180D02*
X35461D01*
X35835Y17000D02*
Y18552D01*
X36435Y17000D02*
Y18284D01*
X29669Y19380D02*
X35461D01*
X29492Y19980D02*
X35638D01*
X29492Y18780D02*
X35638D01*
X31035Y17000D02*
Y51000D01*
X30435Y17000D02*
Y51000D01*
X31635Y17000D02*
Y51000D01*
X29835Y17000D02*
Y51000D01*
X29235Y23024D02*
Y30502D01*
X28635Y23024D02*
Y30278D01*
X34635Y17000D02*
Y51000D01*
X34035Y17000D02*
Y51000D01*
X35235Y17000D02*
Y51000D01*
X32835Y17000D02*
Y51000D01*
X32235Y17000D02*
Y51000D01*
X33435Y17000D02*
Y51000D01*
X27435Y17000D02*
Y51000D01*
X26835Y17000D02*
Y51000D01*
X28035Y23024D02*
Y30412D01*
X25635Y17000D02*
Y51000D01*
X25035Y17000D02*
Y51000D01*
X26235Y17000D02*
Y51000D01*
X23835Y17000D02*
Y51000D01*
X23235Y17000D02*
Y51000D01*
X24435Y17000D02*
Y51000D01*
X22035Y17000D02*
Y51000D01*
X21435Y17000D02*
Y51000D01*
X22635Y17000D02*
Y51000D01*
X29669Y20816D02*
Y23024D01*
X27461D02*
X29669D01*
X29235Y20257D02*
Y20816D01*
X28635Y20482D02*
Y20816D01*
X28035Y20348D02*
Y20816D01*
X29235Y17000D02*
Y18502D01*
X28635Y17000D02*
Y18278D01*
X28035Y17000D02*
Y18412D01*
X20430Y21180D02*
X27461D01*
X20380Y22980D02*
X27461D01*
Y20816D02*
X29669D01*
X27461D02*
Y23024D01*
X20835Y20266D02*
Y23952D01*
X20235Y21383D02*
Y22835D01*
X20854Y19980D02*
X27638D01*
X20396Y18780D02*
X27638D01*
X20835Y17000D02*
Y19734D01*
X20747Y19380D02*
X27461D01*
X20235Y17000D02*
Y18617D01*
X19635Y43057D02*
Y46000D01*
X19035Y43169D02*
Y46000D01*
Y38969D02*
Y39461D01*
X18435Y43081D02*
Y46000D01*
X17835Y42757D02*
Y46000D01*
X15217Y42180D02*
X17360D01*
X19635Y38857D02*
Y39573D01*
X18435Y38881D02*
Y39549D01*
X17835Y38557D02*
Y39873D01*
X15217Y37980D02*
X17360D01*
X17835Y29877D02*
Y35673D01*
X2000Y43980D02*
X41279D01*
X2000Y44580D02*
X41349D01*
X2000Y43380D02*
X48000D01*
X2000Y45780D02*
X40000D01*
X2000Y46000D02*
X20000D01*
X2000Y45180D02*
X40017D01*
X14617Y39780D02*
X17960D01*
X2000Y39180D02*
X48000D01*
X14713Y38580D02*
X17864D01*
X15178Y40380D02*
X17399D01*
X14713Y42780D02*
X17864D01*
X15178Y36180D02*
X17399D01*
X19635Y30177D02*
Y35373D01*
X19627Y30180D02*
X48000D01*
X19035Y30289D02*
Y35261D01*
X18435Y30201D02*
Y35349D01*
X15036Y29580D02*
X17542D01*
X19035Y26071D02*
Y26581D01*
X15312Y27780D02*
X17266D01*
X2000Y33180D02*
X27461D01*
X2000Y33780D02*
X27461D01*
X2000Y32580D02*
X48000D01*
X14617Y35580D02*
X17960D01*
X2000Y34980D02*
X27461D01*
X2000Y34380D02*
X27461D01*
X2000Y30780D02*
X27638D01*
X2000Y31980D02*
X27638D01*
X2000Y26580D02*
X48000D01*
X14204Y30180D02*
X18373D01*
X2000Y31380D02*
X27461D01*
X14942Y27180D02*
X17635D01*
X17235Y41882D02*
Y46000D01*
X14835Y42677D02*
Y46000D01*
X15412Y41580D02*
X17165D01*
X15400Y40980D02*
X17177D01*
X13635Y43168D02*
Y46000D01*
X13035Y43088D02*
Y46000D01*
X14235Y43048D02*
Y46000D01*
X17235Y37682D02*
Y40748D01*
X14835Y38477D02*
Y39953D01*
X14235Y38848D02*
Y39582D01*
X13035Y38888D02*
Y39542D01*
X12435Y38575D02*
Y39854D01*
X13635Y38968D02*
Y39462D01*
X12435Y42775D02*
Y46000D01*
X2000Y42780D02*
X12441D01*
X2000Y42180D02*
X11937D01*
X11835Y41949D02*
Y46000D01*
X2000Y41580D02*
X11742D01*
X2000Y40980D02*
X11754D01*
X2000Y39780D02*
X12537D01*
X11835Y37749D02*
Y40681D01*
X2000Y40380D02*
X11976D01*
X2000Y38580D02*
X12441D01*
X15412Y37380D02*
X17165D01*
X15400Y36780D02*
X17177D01*
X14235Y30169D02*
Y35382D01*
X13035Y30208D02*
Y35342D01*
X12435Y29895D02*
Y35654D01*
X13635Y30288D02*
Y35262D01*
X17235Y29002D02*
Y36548D01*
X15350Y28980D02*
X17228D01*
X15431Y28380D02*
X17147D01*
X14835Y29797D02*
Y35753D01*
X11835Y29068D02*
Y36481D01*
X13635Y26071D02*
Y26582D01*
X2000Y35580D02*
X12537D01*
X2000Y36180D02*
X11976D01*
X2000Y30180D02*
X12951D01*
X2000Y37380D02*
X11742D01*
X2000Y37980D02*
X11937D01*
X2000Y36780D02*
X11754D01*
X2000Y29580D02*
X12119D01*
X2000Y27180D02*
X12213D01*
X2000Y28380D02*
X11724D01*
X2000Y28980D02*
X11805D01*
X2000Y27780D02*
X11843D01*
X19635Y25959D02*
Y26693D01*
X19576Y25980D02*
X48000D01*
X17835Y25660D02*
Y26993D01*
X17235Y24785D02*
Y27868D01*
X18435Y25983D02*
Y26669D01*
X19635Y21742D02*
Y22476D01*
X19246Y22380D02*
X27461D01*
X17835Y21442D02*
Y22775D01*
X17235Y20567D02*
Y23650D01*
X18435Y21766D02*
Y22452D01*
X15022Y25380D02*
X17556D01*
X14153Y25980D02*
X18424D01*
X15431Y24180D02*
X17146D01*
X15344Y24780D02*
X17233D01*
X15318Y23580D02*
X17259D01*
X16635Y17000D02*
Y46000D01*
X14958Y22980D02*
X17620D01*
X16035Y17000D02*
Y46000D01*
X15435Y17000D02*
Y46000D01*
X19519Y21780D02*
X27461D01*
X19035Y21854D02*
Y22364D01*
X19635Y17000D02*
Y18258D01*
X19353Y18180D02*
X48000D01*
X19035Y17000D02*
Y18146D01*
X17835Y17000D02*
Y18558D01*
X17235Y17000D02*
Y19433D01*
X18435Y17000D02*
Y18234D01*
X14096Y21780D02*
X18481D01*
X13824Y22380D02*
X18754D01*
X15008Y21180D02*
X17570D01*
X15431Y19980D02*
X17146D01*
X15338Y20580D02*
X17239D01*
X15325Y19380D02*
X17253D01*
X2000Y17580D02*
X48000D01*
X2000Y17000D02*
X48000D01*
X14973Y18780D02*
X17604D01*
X13931Y18180D02*
X18647D01*
X14835Y25580D02*
Y27073D01*
X14235Y25951D02*
Y26701D01*
X13035Y25990D02*
Y26662D01*
X11835Y24850D02*
Y27802D01*
X11235Y17000D02*
Y46000D01*
X12435Y25678D02*
Y26975D01*
X10035Y17000D02*
Y46000D01*
X9435Y17000D02*
Y46000D01*
X10635Y17000D02*
Y46000D01*
X8235Y17000D02*
Y46000D01*
X7635Y17000D02*
Y46000D01*
X8835Y17000D02*
Y46000D01*
X7035Y17000D02*
Y46000D01*
X2000Y25980D02*
X13002D01*
X2000Y25380D02*
X12133D01*
X5235Y17000D02*
Y46000D01*
X4635Y17000D02*
Y46000D01*
X5835Y17000D02*
Y46000D01*
X4035Y17000D02*
Y46000D01*
X3435Y17000D02*
Y46000D01*
X6435Y17000D02*
Y46000D01*
X2235Y17000D02*
Y46000D01*
X2000Y17000D02*
Y46000D01*
X2835Y17000D02*
Y46000D01*
X14835Y21362D02*
Y22855D01*
X14235Y21734D02*
Y22484D01*
X13635Y21853D02*
Y22364D01*
X12435Y21460D02*
Y22757D01*
X11835Y20633D02*
Y23585D01*
X13035Y21773D02*
Y22445D01*
X14835Y17000D02*
Y18638D01*
X14235Y17000D02*
Y18266D01*
X13635Y17000D02*
Y18147D01*
X12435Y17000D02*
Y18540D01*
X11835Y17000D02*
Y19367D01*
X13035Y17000D02*
Y18227D01*
X2000Y22380D02*
X13331D01*
X2000Y22980D02*
X12197D01*
X2000Y21780D02*
X13059D01*
X2000Y24180D02*
X11724D01*
X2000Y24780D02*
X11811D01*
X2000Y23580D02*
X11837D01*
X2000Y18780D02*
X12182D01*
X2000Y21180D02*
X12147D01*
X2000Y18180D02*
X13224D01*
X2000Y19980D02*
X11724D01*
X2000Y20580D02*
X11817D01*
X2000Y19380D02*
X11830D01*
D18*
X40700Y45500D02*
D03*
X42000Y46770D02*
D03*
X42000Y44200D02*
D03*
D19*
X28565Y21920D02*
D03*
X36565Y33920D02*
D03*
X28565D02*
D03*
X36565Y21920D02*
D03*
D20*
X28565Y19380D02*
D03*
X36565Y31380D02*
D03*
X28565D02*
D03*
X36565Y19380D02*
D03*
D21*
X19000Y24218D02*
D03*
X13578D02*
D03*
X19000Y20000D02*
D03*
X13578Y28435D02*
D03*
X19000D02*
D03*
X13578Y20000D02*
D03*
X13577Y37115D02*
D03*
Y41315D02*
D03*
X19000Y37115D02*
D03*
Y41315D02*
D03*
M02*
