M48
INCH,TZ
T1C0.0157
T2C0.0315
T3C0.0394
T4C0.0591
T5C0.0669
%
G90
G05
T1
X82593Y-45150
T2
X54480Y-31496
X54480Y-32496
X54480Y-33496
X54480Y-34496
X54480Y-35496
X54480Y-36496
X54480Y-37496
X54480Y-38496
X54480Y-39496
X54480Y-40496
X54480Y-41496
X54480Y-42496
X54480Y-43496
X54480Y-44496
X54480Y-45496
X60480Y-31496
X60480Y-32496
X60480Y-33496
X60480Y-34496
X60480Y-35496
X60480Y-36496
X60480Y-37496
X60480Y-38496
X60480Y-39496
X60480Y-40496
X60480Y-41496
X60480Y-42496
X60480Y-43496
X60480Y-44496
X60480Y-45496
X83093Y-42750
X84093Y-43750
X85093Y-42750
T3
X33539Y-44598
X34539Y-44598
X85236Y-33661
X85236Y-34661
X85236Y-35661
X86236Y-33661
X86236Y-34661
X86236Y-35661
X36024Y-10220
X36024Y-11220
X37024Y-10220
X37024Y-11220
X38024Y-10220
X38024Y-11220
X12402Y-10220
X12402Y-11220
X13402Y-10220
X13402Y-11220
X14402Y-10220
X14402Y-11220
X59646Y-10220
X59646Y-11220
X60646Y-10220
X60646Y-11220
X61646Y-10220
X61646Y-11220
X27756Y-38567
X27756Y-39567
X28756Y-38567
X28756Y-39567
X29756Y-38567
X29756Y-39567
X27756Y-29118
X27756Y-30118
X28756Y-29118
X28756Y-30118
X29756Y-29118
X29756Y-30118
X40661Y-44598
X41661Y-44598
X63583Y-33661
X63583Y-34661
X63583Y-35661
X64583Y-33661
X64583Y-34661
X64583Y-35661
X18110Y-45850
X18110Y-46850
X19110Y-45850
X19110Y-46850
X20110Y-45850
X20110Y-46850
X21110Y-45850
X21110Y-46850
X22110Y-45850
X22110Y-46850
X23110Y-45850
X23110Y-46850
X24110Y-45850
X24110Y-46850
X25110Y-45850
X25110Y-46850
X26110Y-45850
X26110Y-46850
X27110Y-45850
X27110Y-46850
X53346Y-10220
X53346Y-11220
X54346Y-10220
X54346Y-11220
X55346Y-10220
X55346Y-11220
X49409Y-38567
X49409Y-39567
X50409Y-38567
X50409Y-39567
X51409Y-38567
X51409Y-39567
X69291Y-23606
X69291Y-24606
X70291Y-23606
X70291Y-24606
X71291Y-23606
X71291Y-24606
X88189Y-45850
X88189Y-46850
X89189Y-45850
X89189Y-46850
X90189Y-45850
X90189Y-46850
X91189Y-45850
X91189Y-46850
X92189Y-45850
X92189Y-46850
X93189Y-45850
X93189Y-46850
X94189Y-45850
X94189Y-46850
X95189Y-45850
X95189Y-46850
X96189Y-45850
X96189Y-46850
X97189Y-45850
X97189Y-46850
X88189Y-43850
X89189Y-43850
X78937Y-38567
X78937Y-39567
X79937Y-38567
X79937Y-39567
X80937Y-38567
X80937Y-39567
X78937Y-29118
X78937Y-30118
X79937Y-29118
X79937Y-30118
X80937Y-29118
X80937Y-30118
X100591Y-10220
X100591Y-11220
X101591Y-10220
X101591Y-11220
X102591Y-10220
X102591Y-11220
X83268Y-10220
X83268Y-11220
X84268Y-10220
X84268Y-11220
X85268Y-10220
X85268Y-11220
X29724Y-10220
X29724Y-11220
X30724Y-10220
X30724Y-11220
X31724Y-10220
X31724Y-11220
X30161Y-44598
X31161Y-44598
X99213Y-45850
X99213Y-46850
X92913Y-23606
X92913Y-24606
X93913Y-23606
X93913Y-24606
X94913Y-23606
X94913Y-24606
X100591Y-38567
X100591Y-39567
X101591Y-38567
X101591Y-39567
X102591Y-38567
X102591Y-39567
X76969Y-10220
X76969Y-11220
X77969Y-10220
X77969Y-11220
X78969Y-10220
X78969Y-11220
X49409Y-29118
X49409Y-30118
X50409Y-29118
X50409Y-30118
X51409Y-29118
X51409Y-30118
X45669Y-23606
X45669Y-24606
X46669Y-23606
X46669Y-24606
X47669Y-23606
X47669Y-24606
X22047Y-23606
X22047Y-24606
X23047Y-23606
X23047Y-24606
X24047Y-23606
X24047Y-24606
X100591Y-29118
X100591Y-30118
X101591Y-29118
X101591Y-30118
X102591Y-29118
X102591Y-30118
X37161Y-44598
X38161Y-44598
X34055Y-33661
X34055Y-34661
X34055Y-35661
X35055Y-33661
X35055Y-34661
X35055Y-35661
X12402Y-33661
X12402Y-34661
X12402Y-35661
X13402Y-33661
X13402Y-34661
X13402Y-35661
X15748Y-45850
X15748Y-46850
T4
X46063Y-43701
T5
X45063Y-42701
X45063Y-44701
X47063Y-42701
X47063Y-44701
T3
G00X68504Y-41732
M15
G01X69291Y-41732
M16
G05
G00X68504Y-44094
M15
G01X69291Y-44094
M16
G05
G00X70748Y-43307
M15
G01X70748Y-42520
M16
G05
T0
M30
