G04 #@! TF.GenerationSoftware,KiCad,Pcbnew,5.1.5+dfsg1-2build2*
G04 #@! TF.CreationDate,2021-11-26T12:37:46+03:00*
G04 #@! TF.ProjectId,Motherboard,4d6f7468-6572-4626-9f61-72642e6b6963,rev?*
G04 #@! TF.SameCoordinates,Original*
G04 #@! TF.FileFunction,Copper,L1,Top*
G04 #@! TF.FilePolarity,Positive*
%FSLAX46Y46*%
G04 Gerber Fmt 4.6, Leading zero omitted, Abs format (unit mm)*
G04 Created by KiCad (PCBNEW 5.1.5+dfsg1-2build2) date 2021-11-26 12:37:46*
%MOMM*%
%LPD*%
G04 APERTURE LIST*
%ADD10C,0.100000*%
%ADD11C,1.440000*%
%ADD12R,3.500000X3.500000*%
%ADD13O,1.700000X1.700000*%
%ADD14R,1.700000X1.700000*%
%ADD15C,2.250000*%
%ADD16R,4.600000X1.100000*%
%ADD17R,9.400000X10.800000*%
%ADD18O,1.600000X1.600000*%
%ADD19R,1.600000X1.600000*%
%ADD20C,0.800000*%
%ADD21C,0.600000*%
%ADD22C,0.250000*%
G04 APERTURE END LIST*
G04 #@! TA.AperFunction,SMDPad,CuDef*
D10*
G36*
X206814505Y-106373704D02*
G01*
X206838773Y-106377304D01*
X206862572Y-106383265D01*
X206885671Y-106391530D01*
X206907850Y-106402020D01*
X206928893Y-106414632D01*
X206948599Y-106429247D01*
X206966777Y-106445723D01*
X206983253Y-106463901D01*
X206997868Y-106483607D01*
X207010480Y-106504650D01*
X207020970Y-106526829D01*
X207029235Y-106549928D01*
X207035196Y-106573727D01*
X207038796Y-106597995D01*
X207040000Y-106622499D01*
X207040000Y-107247501D01*
X207038796Y-107272005D01*
X207035196Y-107296273D01*
X207029235Y-107320072D01*
X207020970Y-107343171D01*
X207010480Y-107365350D01*
X206997868Y-107386393D01*
X206983253Y-107406099D01*
X206966777Y-107424277D01*
X206948599Y-107440753D01*
X206928893Y-107455368D01*
X206907850Y-107467980D01*
X206885671Y-107478470D01*
X206862572Y-107486735D01*
X206838773Y-107492696D01*
X206814505Y-107496296D01*
X206790001Y-107497500D01*
X203889999Y-107497500D01*
X203865495Y-107496296D01*
X203841227Y-107492696D01*
X203817428Y-107486735D01*
X203794329Y-107478470D01*
X203772150Y-107467980D01*
X203751107Y-107455368D01*
X203731401Y-107440753D01*
X203713223Y-107424277D01*
X203696747Y-107406099D01*
X203682132Y-107386393D01*
X203669520Y-107365350D01*
X203659030Y-107343171D01*
X203650765Y-107320072D01*
X203644804Y-107296273D01*
X203641204Y-107272005D01*
X203640000Y-107247501D01*
X203640000Y-106622499D01*
X203641204Y-106597995D01*
X203644804Y-106573727D01*
X203650765Y-106549928D01*
X203659030Y-106526829D01*
X203669520Y-106504650D01*
X203682132Y-106483607D01*
X203696747Y-106463901D01*
X203713223Y-106445723D01*
X203731401Y-106429247D01*
X203751107Y-106414632D01*
X203772150Y-106402020D01*
X203794329Y-106391530D01*
X203817428Y-106383265D01*
X203841227Y-106377304D01*
X203865495Y-106373704D01*
X203889999Y-106372500D01*
X206790001Y-106372500D01*
X206814505Y-106373704D01*
G37*
G04 #@! TD.AperFunction*
G04 #@! TA.AperFunction,SMDPad,CuDef*
G36*
X206814505Y-110648704D02*
G01*
X206838773Y-110652304D01*
X206862572Y-110658265D01*
X206885671Y-110666530D01*
X206907850Y-110677020D01*
X206928893Y-110689632D01*
X206948599Y-110704247D01*
X206966777Y-110720723D01*
X206983253Y-110738901D01*
X206997868Y-110758607D01*
X207010480Y-110779650D01*
X207020970Y-110801829D01*
X207029235Y-110824928D01*
X207035196Y-110848727D01*
X207038796Y-110872995D01*
X207040000Y-110897499D01*
X207040000Y-111522501D01*
X207038796Y-111547005D01*
X207035196Y-111571273D01*
X207029235Y-111595072D01*
X207020970Y-111618171D01*
X207010480Y-111640350D01*
X206997868Y-111661393D01*
X206983253Y-111681099D01*
X206966777Y-111699277D01*
X206948599Y-111715753D01*
X206928893Y-111730368D01*
X206907850Y-111742980D01*
X206885671Y-111753470D01*
X206862572Y-111761735D01*
X206838773Y-111767696D01*
X206814505Y-111771296D01*
X206790001Y-111772500D01*
X203889999Y-111772500D01*
X203865495Y-111771296D01*
X203841227Y-111767696D01*
X203817428Y-111761735D01*
X203794329Y-111753470D01*
X203772150Y-111742980D01*
X203751107Y-111730368D01*
X203731401Y-111715753D01*
X203713223Y-111699277D01*
X203696747Y-111681099D01*
X203682132Y-111661393D01*
X203669520Y-111640350D01*
X203659030Y-111618171D01*
X203650765Y-111595072D01*
X203644804Y-111571273D01*
X203641204Y-111547005D01*
X203640000Y-111522501D01*
X203640000Y-110897499D01*
X203641204Y-110872995D01*
X203644804Y-110848727D01*
X203650765Y-110824928D01*
X203659030Y-110801829D01*
X203669520Y-110779650D01*
X203682132Y-110758607D01*
X203696747Y-110738901D01*
X203713223Y-110720723D01*
X203731401Y-110704247D01*
X203751107Y-110689632D01*
X203772150Y-110677020D01*
X203794329Y-110666530D01*
X203817428Y-110658265D01*
X203841227Y-110652304D01*
X203865495Y-110648704D01*
X203889999Y-110647500D01*
X206790001Y-110647500D01*
X206814505Y-110648704D01*
G37*
G04 #@! TD.AperFunction*
G04 #@! TA.AperFunction,SMDPad,CuDef*
G36*
X214028004Y-114062204D02*
G01*
X214052273Y-114065804D01*
X214076071Y-114071765D01*
X214099171Y-114080030D01*
X214121349Y-114090520D01*
X214142393Y-114103133D01*
X214162098Y-114117747D01*
X214180277Y-114134223D01*
X214196753Y-114152402D01*
X214211367Y-114172107D01*
X214223980Y-114193151D01*
X214234470Y-114215329D01*
X214242735Y-114238429D01*
X214248696Y-114262227D01*
X214252296Y-114286496D01*
X214253500Y-114311000D01*
X214253500Y-115561000D01*
X214252296Y-115585504D01*
X214248696Y-115609773D01*
X214242735Y-115633571D01*
X214234470Y-115656671D01*
X214223980Y-115678849D01*
X214211367Y-115699893D01*
X214196753Y-115719598D01*
X214180277Y-115737777D01*
X214162098Y-115754253D01*
X214142393Y-115768867D01*
X214121349Y-115781480D01*
X214099171Y-115791970D01*
X214076071Y-115800235D01*
X214052273Y-115806196D01*
X214028004Y-115809796D01*
X214003500Y-115811000D01*
X213078500Y-115811000D01*
X213053996Y-115809796D01*
X213029727Y-115806196D01*
X213005929Y-115800235D01*
X212982829Y-115791970D01*
X212960651Y-115781480D01*
X212939607Y-115768867D01*
X212919902Y-115754253D01*
X212901723Y-115737777D01*
X212885247Y-115719598D01*
X212870633Y-115699893D01*
X212858020Y-115678849D01*
X212847530Y-115656671D01*
X212839265Y-115633571D01*
X212833304Y-115609773D01*
X212829704Y-115585504D01*
X212828500Y-115561000D01*
X212828500Y-114311000D01*
X212829704Y-114286496D01*
X212833304Y-114262227D01*
X212839265Y-114238429D01*
X212847530Y-114215329D01*
X212858020Y-114193151D01*
X212870633Y-114172107D01*
X212885247Y-114152402D01*
X212901723Y-114134223D01*
X212919902Y-114117747D01*
X212939607Y-114103133D01*
X212960651Y-114090520D01*
X212982829Y-114080030D01*
X213005929Y-114071765D01*
X213029727Y-114065804D01*
X213053996Y-114062204D01*
X213078500Y-114061000D01*
X214003500Y-114061000D01*
X214028004Y-114062204D01*
G37*
G04 #@! TD.AperFunction*
G04 #@! TA.AperFunction,SMDPad,CuDef*
G36*
X217003004Y-114062204D02*
G01*
X217027273Y-114065804D01*
X217051071Y-114071765D01*
X217074171Y-114080030D01*
X217096349Y-114090520D01*
X217117393Y-114103133D01*
X217137098Y-114117747D01*
X217155277Y-114134223D01*
X217171753Y-114152402D01*
X217186367Y-114172107D01*
X217198980Y-114193151D01*
X217209470Y-114215329D01*
X217217735Y-114238429D01*
X217223696Y-114262227D01*
X217227296Y-114286496D01*
X217228500Y-114311000D01*
X217228500Y-115561000D01*
X217227296Y-115585504D01*
X217223696Y-115609773D01*
X217217735Y-115633571D01*
X217209470Y-115656671D01*
X217198980Y-115678849D01*
X217186367Y-115699893D01*
X217171753Y-115719598D01*
X217155277Y-115737777D01*
X217137098Y-115754253D01*
X217117393Y-115768867D01*
X217096349Y-115781480D01*
X217074171Y-115791970D01*
X217051071Y-115800235D01*
X217027273Y-115806196D01*
X217003004Y-115809796D01*
X216978500Y-115811000D01*
X216053500Y-115811000D01*
X216028996Y-115809796D01*
X216004727Y-115806196D01*
X215980929Y-115800235D01*
X215957829Y-115791970D01*
X215935651Y-115781480D01*
X215914607Y-115768867D01*
X215894902Y-115754253D01*
X215876723Y-115737777D01*
X215860247Y-115719598D01*
X215845633Y-115699893D01*
X215833020Y-115678849D01*
X215822530Y-115656671D01*
X215814265Y-115633571D01*
X215808304Y-115609773D01*
X215804704Y-115585504D01*
X215803500Y-115561000D01*
X215803500Y-114311000D01*
X215804704Y-114286496D01*
X215808304Y-114262227D01*
X215814265Y-114238429D01*
X215822530Y-114215329D01*
X215833020Y-114193151D01*
X215845633Y-114172107D01*
X215860247Y-114152402D01*
X215876723Y-114134223D01*
X215894902Y-114117747D01*
X215914607Y-114103133D01*
X215935651Y-114090520D01*
X215957829Y-114080030D01*
X215980929Y-114071765D01*
X216004727Y-114065804D01*
X216028996Y-114062204D01*
X216053500Y-114061000D01*
X216978500Y-114061000D01*
X217003004Y-114062204D01*
G37*
G04 #@! TD.AperFunction*
G04 #@! TA.AperFunction,SMDPad,CuDef*
G36*
X206814505Y-114163704D02*
G01*
X206838773Y-114167304D01*
X206862572Y-114173265D01*
X206885671Y-114181530D01*
X206907850Y-114192020D01*
X206928893Y-114204632D01*
X206948599Y-114219247D01*
X206966777Y-114235723D01*
X206983253Y-114253901D01*
X206997868Y-114273607D01*
X207010480Y-114294650D01*
X207020970Y-114316829D01*
X207029235Y-114339928D01*
X207035196Y-114363727D01*
X207038796Y-114387995D01*
X207040000Y-114412499D01*
X207040000Y-115037501D01*
X207038796Y-115062005D01*
X207035196Y-115086273D01*
X207029235Y-115110072D01*
X207020970Y-115133171D01*
X207010480Y-115155350D01*
X206997868Y-115176393D01*
X206983253Y-115196099D01*
X206966777Y-115214277D01*
X206948599Y-115230753D01*
X206928893Y-115245368D01*
X206907850Y-115257980D01*
X206885671Y-115268470D01*
X206862572Y-115276735D01*
X206838773Y-115282696D01*
X206814505Y-115286296D01*
X206790001Y-115287500D01*
X203889999Y-115287500D01*
X203865495Y-115286296D01*
X203841227Y-115282696D01*
X203817428Y-115276735D01*
X203794329Y-115268470D01*
X203772150Y-115257980D01*
X203751107Y-115245368D01*
X203731401Y-115230753D01*
X203713223Y-115214277D01*
X203696747Y-115196099D01*
X203682132Y-115176393D01*
X203669520Y-115155350D01*
X203659030Y-115133171D01*
X203650765Y-115110072D01*
X203644804Y-115086273D01*
X203641204Y-115062005D01*
X203640000Y-115037501D01*
X203640000Y-114412499D01*
X203641204Y-114387995D01*
X203644804Y-114363727D01*
X203650765Y-114339928D01*
X203659030Y-114316829D01*
X203669520Y-114294650D01*
X203682132Y-114273607D01*
X203696747Y-114253901D01*
X203713223Y-114235723D01*
X203731401Y-114219247D01*
X203751107Y-114204632D01*
X203772150Y-114192020D01*
X203794329Y-114181530D01*
X203817428Y-114173265D01*
X203841227Y-114167304D01*
X203865495Y-114163704D01*
X203889999Y-114162500D01*
X206790001Y-114162500D01*
X206814505Y-114163704D01*
G37*
G04 #@! TD.AperFunction*
G04 #@! TA.AperFunction,SMDPad,CuDef*
G36*
X206814505Y-118438704D02*
G01*
X206838773Y-118442304D01*
X206862572Y-118448265D01*
X206885671Y-118456530D01*
X206907850Y-118467020D01*
X206928893Y-118479632D01*
X206948599Y-118494247D01*
X206966777Y-118510723D01*
X206983253Y-118528901D01*
X206997868Y-118548607D01*
X207010480Y-118569650D01*
X207020970Y-118591829D01*
X207029235Y-118614928D01*
X207035196Y-118638727D01*
X207038796Y-118662995D01*
X207040000Y-118687499D01*
X207040000Y-119312501D01*
X207038796Y-119337005D01*
X207035196Y-119361273D01*
X207029235Y-119385072D01*
X207020970Y-119408171D01*
X207010480Y-119430350D01*
X206997868Y-119451393D01*
X206983253Y-119471099D01*
X206966777Y-119489277D01*
X206948599Y-119505753D01*
X206928893Y-119520368D01*
X206907850Y-119532980D01*
X206885671Y-119543470D01*
X206862572Y-119551735D01*
X206838773Y-119557696D01*
X206814505Y-119561296D01*
X206790001Y-119562500D01*
X203889999Y-119562500D01*
X203865495Y-119561296D01*
X203841227Y-119557696D01*
X203817428Y-119551735D01*
X203794329Y-119543470D01*
X203772150Y-119532980D01*
X203751107Y-119520368D01*
X203731401Y-119505753D01*
X203713223Y-119489277D01*
X203696747Y-119471099D01*
X203682132Y-119451393D01*
X203669520Y-119430350D01*
X203659030Y-119408171D01*
X203650765Y-119385072D01*
X203644804Y-119361273D01*
X203641204Y-119337005D01*
X203640000Y-119312501D01*
X203640000Y-118687499D01*
X203641204Y-118662995D01*
X203644804Y-118638727D01*
X203650765Y-118614928D01*
X203659030Y-118591829D01*
X203669520Y-118569650D01*
X203682132Y-118548607D01*
X203696747Y-118528901D01*
X203713223Y-118510723D01*
X203731401Y-118494247D01*
X203751107Y-118479632D01*
X203772150Y-118467020D01*
X203794329Y-118456530D01*
X203817428Y-118448265D01*
X203841227Y-118442304D01*
X203865495Y-118438704D01*
X203889999Y-118437500D01*
X206790001Y-118437500D01*
X206814505Y-118438704D01*
G37*
G04 #@! TD.AperFunction*
D11*
X211055000Y-108586000D03*
X213595000Y-111126000D03*
X216135000Y-108586000D03*
G04 #@! TA.AperFunction,ComponentPad*
D10*
G36*
X180660765Y-107254213D02*
G01*
X180745704Y-107266813D01*
X180828999Y-107287677D01*
X180909848Y-107316605D01*
X180987472Y-107353319D01*
X181061124Y-107397464D01*
X181130094Y-107448616D01*
X181193718Y-107506282D01*
X181251384Y-107569906D01*
X181302536Y-107638876D01*
X181346681Y-107712528D01*
X181383395Y-107790152D01*
X181412323Y-107871001D01*
X181433187Y-107954296D01*
X181445787Y-108039235D01*
X181450000Y-108125000D01*
X181450000Y-109875000D01*
X181445787Y-109960765D01*
X181433187Y-110045704D01*
X181412323Y-110128999D01*
X181383395Y-110209848D01*
X181346681Y-110287472D01*
X181302536Y-110361124D01*
X181251384Y-110430094D01*
X181193718Y-110493718D01*
X181130094Y-110551384D01*
X181061124Y-110602536D01*
X180987472Y-110646681D01*
X180909848Y-110683395D01*
X180828999Y-110712323D01*
X180745704Y-110733187D01*
X180660765Y-110745787D01*
X180575000Y-110750000D01*
X178825000Y-110750000D01*
X178739235Y-110745787D01*
X178654296Y-110733187D01*
X178571001Y-110712323D01*
X178490152Y-110683395D01*
X178412528Y-110646681D01*
X178338876Y-110602536D01*
X178269906Y-110551384D01*
X178206282Y-110493718D01*
X178148616Y-110430094D01*
X178097464Y-110361124D01*
X178053319Y-110287472D01*
X178016605Y-110209848D01*
X177987677Y-110128999D01*
X177966813Y-110045704D01*
X177954213Y-109960765D01*
X177950000Y-109875000D01*
X177950000Y-108125000D01*
X177954213Y-108039235D01*
X177966813Y-107954296D01*
X177987677Y-107871001D01*
X178016605Y-107790152D01*
X178053319Y-107712528D01*
X178097464Y-107638876D01*
X178148616Y-107569906D01*
X178206282Y-107506282D01*
X178269906Y-107448616D01*
X178338876Y-107397464D01*
X178412528Y-107353319D01*
X178490152Y-107316605D01*
X178571001Y-107287677D01*
X178654296Y-107266813D01*
X178739235Y-107254213D01*
X178825000Y-107250000D01*
X180575000Y-107250000D01*
X180660765Y-107254213D01*
G37*
G04 #@! TD.AperFunction*
G04 #@! TA.AperFunction,ComponentPad*
G36*
X176073513Y-110503611D02*
G01*
X176146318Y-110514411D01*
X176217714Y-110532295D01*
X176287013Y-110557090D01*
X176353548Y-110588559D01*
X176416678Y-110626398D01*
X176475795Y-110670242D01*
X176530330Y-110719670D01*
X176579758Y-110774205D01*
X176623602Y-110833322D01*
X176661441Y-110896452D01*
X176692910Y-110962987D01*
X176717705Y-111032286D01*
X176735589Y-111103682D01*
X176746389Y-111176487D01*
X176750000Y-111250000D01*
X176750000Y-112750000D01*
X176746389Y-112823513D01*
X176735589Y-112896318D01*
X176717705Y-112967714D01*
X176692910Y-113037013D01*
X176661441Y-113103548D01*
X176623602Y-113166678D01*
X176579758Y-113225795D01*
X176530330Y-113280330D01*
X176475795Y-113329758D01*
X176416678Y-113373602D01*
X176353548Y-113411441D01*
X176287013Y-113442910D01*
X176217714Y-113467705D01*
X176146318Y-113485589D01*
X176073513Y-113496389D01*
X176000000Y-113500000D01*
X174000000Y-113500000D01*
X173926487Y-113496389D01*
X173853682Y-113485589D01*
X173782286Y-113467705D01*
X173712987Y-113442910D01*
X173646452Y-113411441D01*
X173583322Y-113373602D01*
X173524205Y-113329758D01*
X173469670Y-113280330D01*
X173420242Y-113225795D01*
X173376398Y-113166678D01*
X173338559Y-113103548D01*
X173307090Y-113037013D01*
X173282295Y-112967714D01*
X173264411Y-112896318D01*
X173253611Y-112823513D01*
X173250000Y-112750000D01*
X173250000Y-111250000D01*
X173253611Y-111176487D01*
X173264411Y-111103682D01*
X173282295Y-111032286D01*
X173307090Y-110962987D01*
X173338559Y-110896452D01*
X173376398Y-110833322D01*
X173420242Y-110774205D01*
X173469670Y-110719670D01*
X173524205Y-110670242D01*
X173583322Y-110626398D01*
X173646452Y-110588559D01*
X173712987Y-110557090D01*
X173782286Y-110532295D01*
X173853682Y-110514411D01*
X173926487Y-110503611D01*
X174000000Y-110500000D01*
X176000000Y-110500000D01*
X176073513Y-110503611D01*
G37*
G04 #@! TD.AperFunction*
D12*
X175000000Y-106000000D03*
D13*
X79150000Y-113279000D03*
D14*
X76610000Y-113279000D03*
D13*
X96930000Y-113279000D03*
D14*
X94390000Y-113279000D03*
D13*
X34040000Y-90580000D03*
X31500000Y-90580000D03*
X34040000Y-88040000D03*
X31500000Y-88040000D03*
X34040000Y-85500000D03*
D14*
X31500000Y-85500000D03*
D13*
X181080000Y-59960000D03*
X181080000Y-62500000D03*
X178540000Y-59960000D03*
X178540000Y-62500000D03*
X176000000Y-59960000D03*
D14*
X176000000Y-62500000D03*
D13*
X75580000Y-97960000D03*
X75580000Y-100500000D03*
X73040000Y-97960000D03*
X73040000Y-100500000D03*
X70500000Y-97960000D03*
D14*
X70500000Y-100500000D03*
D13*
X246860000Y-116460000D03*
X246860000Y-119000000D03*
X244320000Y-116460000D03*
X244320000Y-119000000D03*
X241780000Y-116460000D03*
X241780000Y-119000000D03*
X239240000Y-116460000D03*
X239240000Y-119000000D03*
X236700000Y-116460000D03*
X236700000Y-119000000D03*
X234160000Y-116460000D03*
X234160000Y-119000000D03*
X231620000Y-116460000D03*
X231620000Y-119000000D03*
X229080000Y-116460000D03*
X229080000Y-119000000D03*
X226540000Y-116460000D03*
X226540000Y-119000000D03*
X224000000Y-116460000D03*
D14*
X224000000Y-119000000D03*
D13*
X68860000Y-116460000D03*
X68860000Y-119000000D03*
X66320000Y-116460000D03*
X66320000Y-119000000D03*
X63780000Y-116460000D03*
X63780000Y-119000000D03*
X61240000Y-116460000D03*
X61240000Y-119000000D03*
X58700000Y-116460000D03*
X58700000Y-119000000D03*
X56160000Y-116460000D03*
X56160000Y-119000000D03*
X53620000Y-116460000D03*
X53620000Y-119000000D03*
X51080000Y-116460000D03*
X51080000Y-119000000D03*
X48540000Y-116460000D03*
X48540000Y-119000000D03*
X46000000Y-116460000D03*
D14*
X46000000Y-119000000D03*
D13*
X80580000Y-25960000D03*
X80580000Y-28500000D03*
X78040000Y-25960000D03*
X78040000Y-28500000D03*
X75500000Y-25960000D03*
D14*
X75500000Y-28500000D03*
D13*
X260580000Y-25960000D03*
X260580000Y-28500000D03*
X258040000Y-25960000D03*
X258040000Y-28500000D03*
X255500000Y-25960000D03*
D14*
X255500000Y-28500000D03*
D13*
X216580000Y-25960000D03*
X216580000Y-28500000D03*
X214040000Y-25960000D03*
X214040000Y-28500000D03*
X211500000Y-25960000D03*
D14*
X211500000Y-28500000D03*
D13*
X200580000Y-25960000D03*
X200580000Y-28500000D03*
X198040000Y-25960000D03*
X198040000Y-28500000D03*
X195500000Y-25960000D03*
D14*
X195500000Y-28500000D03*
D13*
X156580000Y-25960000D03*
X156580000Y-28500000D03*
X154040000Y-25960000D03*
X154040000Y-28500000D03*
X151500000Y-25960000D03*
D14*
X151500000Y-28500000D03*
D13*
X140580000Y-25960000D03*
X140580000Y-28500000D03*
X138040000Y-25960000D03*
X138040000Y-28500000D03*
X135500000Y-25960000D03*
D14*
X135500000Y-28500000D03*
D13*
X96580000Y-25960000D03*
X96580000Y-28500000D03*
X94040000Y-25960000D03*
X94040000Y-28500000D03*
X91500000Y-25960000D03*
D14*
X91500000Y-28500000D03*
D13*
X36580000Y-25960000D03*
X36580000Y-28500000D03*
X34040000Y-25960000D03*
X34040000Y-28500000D03*
X31500000Y-25960000D03*
D14*
X31500000Y-28500000D03*
D13*
X260580000Y-97960000D03*
X260580000Y-100500000D03*
X258040000Y-97960000D03*
X258040000Y-100500000D03*
X255500000Y-97960000D03*
D14*
X255500000Y-100500000D03*
D13*
X205580000Y-97960000D03*
X205580000Y-100500000D03*
X203040000Y-97960000D03*
X203040000Y-100500000D03*
X200500000Y-97960000D03*
D14*
X200500000Y-100500000D03*
D13*
X130580000Y-97960000D03*
X130580000Y-100500000D03*
X128040000Y-97960000D03*
X128040000Y-100500000D03*
X125500000Y-97960000D03*
D14*
X125500000Y-100500000D03*
D13*
X252000000Y-116460000D03*
D14*
X252000000Y-119000000D03*
D13*
X40000000Y-116460000D03*
D14*
X40000000Y-119000000D03*
X224000000Y-111380000D03*
D13*
X226540000Y-111380000D03*
X260580000Y-73960000D03*
X260580000Y-76500000D03*
X258040000Y-73960000D03*
X258040000Y-76500000D03*
X255500000Y-73960000D03*
D14*
X255500000Y-76500000D03*
D13*
X205580000Y-73960000D03*
X205580000Y-76500000D03*
X203040000Y-73960000D03*
X203040000Y-76500000D03*
X200500000Y-73960000D03*
D14*
X200500000Y-76500000D03*
D13*
X130580000Y-73960000D03*
X130580000Y-76500000D03*
X128040000Y-73960000D03*
X128040000Y-76500000D03*
X125500000Y-73960000D03*
D14*
X125500000Y-76500000D03*
D13*
X75580000Y-73960000D03*
X75580000Y-76500000D03*
X73040000Y-73960000D03*
X73040000Y-76500000D03*
X70500000Y-73960000D03*
D14*
X70500000Y-76500000D03*
D13*
X241080000Y-59960000D03*
X241080000Y-62500000D03*
X238540000Y-59960000D03*
X238540000Y-62500000D03*
X236000000Y-59960000D03*
D14*
X236000000Y-62500000D03*
D13*
X121080000Y-59960000D03*
X121080000Y-62500000D03*
X118540000Y-59960000D03*
X118540000Y-62500000D03*
X116000000Y-59960000D03*
D14*
X116000000Y-62500000D03*
D13*
X61080000Y-59960000D03*
X61080000Y-62500000D03*
X58540000Y-59960000D03*
X58540000Y-62500000D03*
X56000000Y-59960000D03*
D14*
X56000000Y-62500000D03*
D13*
X219040000Y-90580000D03*
X216500000Y-90580000D03*
X219040000Y-88040000D03*
X216500000Y-88040000D03*
X219040000Y-85500000D03*
D14*
X216500000Y-85500000D03*
D13*
X164040000Y-90580000D03*
X161500000Y-90580000D03*
X164040000Y-88040000D03*
X161500000Y-88040000D03*
X164040000Y-85500000D03*
D14*
X161500000Y-85500000D03*
D13*
X89040000Y-90580000D03*
X86500000Y-90580000D03*
X89040000Y-88040000D03*
X86500000Y-88040000D03*
X89040000Y-85500000D03*
D14*
X86500000Y-85500000D03*
D15*
X117000000Y-111000000D03*
X114460000Y-108460000D03*
X114460000Y-113540000D03*
X119540000Y-113540000D03*
X119540000Y-108460000D03*
D16*
X198150000Y-114540000D03*
X198150000Y-109460000D03*
D17*
X189000000Y-112000000D03*
D13*
X105820000Y-113279000D03*
D14*
X103280000Y-113279000D03*
D13*
X87730000Y-113279000D03*
D14*
X85190000Y-113279000D03*
D18*
X153620000Y-115560000D03*
X138380000Y-115560000D03*
X153620000Y-80000000D03*
X138380000Y-113020000D03*
X153620000Y-82540000D03*
X138380000Y-110480000D03*
X153620000Y-85080000D03*
X138380000Y-107940000D03*
X153620000Y-87620000D03*
X138380000Y-105400000D03*
X153620000Y-90160000D03*
X138380000Y-102860000D03*
X153620000Y-92700000D03*
X138380000Y-100320000D03*
X153620000Y-95240000D03*
X138380000Y-97780000D03*
X153620000Y-97780000D03*
X138380000Y-95240000D03*
X153620000Y-100320000D03*
X138380000Y-92700000D03*
X153620000Y-102860000D03*
X138380000Y-90160000D03*
X153620000Y-105400000D03*
X138380000Y-87620000D03*
X153620000Y-107940000D03*
X138380000Y-85080000D03*
X153620000Y-110480000D03*
X138380000Y-82540000D03*
X153620000Y-113020000D03*
D19*
X138380000Y-80000000D03*
D20*
X209785000Y-114682000D03*
D21*
X205383000Y-114682000D02*
X205340000Y-114725000D01*
X209785000Y-114682000D02*
X205383000Y-114682000D01*
X205340000Y-100740000D02*
X205580000Y-100500000D01*
X205340000Y-106935000D02*
X205340000Y-100740000D01*
D22*
X137248630Y-90160000D02*
X138380000Y-90160000D01*
X127736919Y-90160000D02*
X137248630Y-90160000D01*
X105820000Y-112076919D02*
X127736919Y-90160000D01*
X105820000Y-113279000D02*
X105820000Y-112076919D01*
X231995000Y-62500000D02*
X236000000Y-62500000D01*
X223120000Y-71375000D02*
X231995000Y-62500000D01*
X168510000Y-71375000D02*
X223120000Y-71375000D01*
X156000000Y-83885000D02*
X168510000Y-71375000D01*
X156000000Y-87780000D02*
X156000000Y-83885000D01*
X153620000Y-90160000D02*
X156000000Y-87780000D01*
X134855000Y-98765000D02*
X138380000Y-95240000D01*
X134855000Y-103760000D02*
X134855000Y-98765000D01*
X122155000Y-116460000D02*
X134855000Y-103760000D01*
X100111000Y-116460000D02*
X122155000Y-116460000D01*
X96930000Y-113279000D02*
X100111000Y-116460000D01*
D21*
X227550000Y-59960000D02*
X236000000Y-59960000D01*
X218675000Y-68835000D02*
X227550000Y-59960000D01*
X156445000Y-68835000D02*
X218675000Y-68835000D01*
X151365000Y-73915000D02*
X156445000Y-68835000D01*
X151365000Y-90445000D02*
X151365000Y-73915000D01*
X153620000Y-92700000D02*
X151365000Y-90445000D01*
D22*
X153620000Y-95240000D02*
X150075000Y-91695000D01*
X150075000Y-91695000D02*
X150075000Y-70125000D01*
X157700000Y-62500000D02*
X176000000Y-62500000D01*
X150075000Y-70125000D02*
X157700000Y-62500000D01*
D21*
X155795000Y-59960000D02*
X176000000Y-59960000D01*
X153620000Y-97780000D02*
X148825000Y-92985000D01*
X148825000Y-92985000D02*
X148825000Y-66930000D01*
X148825000Y-66930000D02*
X155795000Y-59960000D01*
D22*
X89040000Y-111969000D02*
X89040000Y-90580000D01*
X87730000Y-113279000D02*
X89040000Y-111969000D01*
X148170000Y-94870000D02*
X153620000Y-100320000D01*
X137395000Y-65660000D02*
X146920000Y-75185000D01*
X118060000Y-65660000D02*
X137395000Y-65660000D01*
X116000000Y-63600000D02*
X118060000Y-65660000D01*
X116000000Y-62500000D02*
X116000000Y-63600000D01*
X148170000Y-94870000D02*
X148170000Y-94850000D01*
X146920000Y-93600000D02*
X146920000Y-75185000D01*
X148170000Y-94850000D02*
X146920000Y-93600000D01*
D21*
X145015000Y-94255000D02*
X153620000Y-102860000D01*
X136760000Y-67565000D02*
X145015000Y-75820000D01*
X115805000Y-67565000D02*
X136760000Y-67565000D01*
X113265000Y-65025000D02*
X115805000Y-67565000D01*
X113265000Y-61215000D02*
X113265000Y-65025000D01*
X114520000Y-59960000D02*
X113265000Y-61215000D01*
X116000000Y-59960000D02*
X114520000Y-59960000D01*
X145015000Y-75820000D02*
X145015000Y-94255000D01*
D22*
X79150000Y-113279000D02*
X84236000Y-118365000D01*
X125415000Y-118365000D02*
X138380000Y-105400000D01*
X84236000Y-118365000D02*
X125415000Y-118365000D01*
X56000000Y-63600000D02*
X56000000Y-62500000D01*
X61870000Y-69470000D02*
X56000000Y-63600000D01*
X136125000Y-69470000D02*
X61870000Y-69470000D01*
X142475000Y-75820000D02*
X136125000Y-69470000D01*
X153620000Y-105400000D02*
X142475000Y-94255000D01*
X142475000Y-94255000D02*
X142475000Y-75820000D01*
D21*
X52940000Y-61880000D02*
X54860000Y-59960000D01*
X52940000Y-66295000D02*
X52940000Y-61880000D01*
X135490000Y-71375000D02*
X58020000Y-71375000D01*
X58020000Y-71375000D02*
X52940000Y-66295000D01*
X140570000Y-76455000D02*
X135490000Y-71375000D01*
X54860000Y-59960000D02*
X56000000Y-59960000D01*
X153620000Y-107940000D02*
X140570000Y-94890000D01*
X140570000Y-94890000D02*
X140570000Y-76455000D01*
X238540000Y-58757919D02*
X235917081Y-56135000D01*
X238540000Y-59960000D02*
X238540000Y-58757919D01*
X182365000Y-56135000D02*
X178540000Y-59960000D01*
X235917081Y-56135000D02*
X182365000Y-56135000D01*
X178540000Y-59960000D02*
X174715000Y-56135000D01*
X122365000Y-56135000D02*
X118540000Y-59960000D01*
X174715000Y-56135000D02*
X122365000Y-56135000D01*
X118540000Y-59960000D02*
X114715000Y-56135000D01*
X62365000Y-56135000D02*
X58540000Y-59960000D01*
X114715000Y-56135000D02*
X62365000Y-56135000D01*
X47860000Y-56135000D02*
X27540000Y-76455000D01*
X27540000Y-86620000D02*
X31500000Y-90580000D01*
X27540000Y-76455000D02*
X27540000Y-86620000D01*
X31500000Y-90580000D02*
X35790000Y-94870000D01*
X82210000Y-94870000D02*
X86500000Y-90580000D01*
X35790000Y-94870000D02*
X82210000Y-94870000D01*
X54715000Y-56135000D02*
X47860000Y-56135000D01*
X58540000Y-59960000D02*
X54715000Y-56135000D01*
X164520000Y-93600000D02*
X161500000Y-90580000D01*
X167240000Y-93600000D02*
X164520000Y-93600000D01*
X170260000Y-90580000D02*
X167240000Y-93600000D01*
X216500000Y-90580000D02*
X170260000Y-90580000D01*
X226540000Y-100620000D02*
X216500000Y-90580000D01*
X226540000Y-111380000D02*
X226540000Y-100620000D01*
X161500000Y-84050000D02*
X162550000Y-83000000D01*
X161500000Y-85500000D02*
X161500000Y-84050000D01*
X212550000Y-83000000D02*
X162550000Y-83000000D01*
X215050000Y-85500000D02*
X212550000Y-83000000D01*
X216500000Y-85500000D02*
X215050000Y-85500000D01*
X85050000Y-85500000D02*
X82050000Y-82500000D01*
X86500000Y-85500000D02*
X85050000Y-85500000D01*
X31500000Y-84050000D02*
X31500000Y-85500000D01*
X33050000Y-82500000D02*
X31500000Y-84050000D01*
X82050000Y-82500000D02*
X33050000Y-82500000D01*
X198150000Y-108310000D02*
X198150000Y-109460000D01*
X194108000Y-104268000D02*
X198150000Y-108310000D01*
X179082000Y-104268000D02*
X194108000Y-104268000D01*
X158350000Y-87200000D02*
X160050000Y-85500000D01*
X158350000Y-91700000D02*
X158350000Y-87200000D01*
X160050000Y-85500000D02*
X161500000Y-85500000D01*
X175000000Y-106000000D02*
X177350000Y-106000000D01*
X177350000Y-106000000D02*
X179082000Y-104268000D01*
X158350000Y-91700000D02*
X172650000Y-106000000D01*
X172650000Y-106000000D02*
X175000000Y-106000000D01*
X189000000Y-118000000D02*
X190000000Y-119000000D01*
X189000000Y-112000000D02*
X189000000Y-118000000D01*
X200662500Y-119000000D02*
X190000000Y-119000000D01*
X200662500Y-119000000D02*
X205340000Y-119000000D01*
X216516000Y-115811000D02*
X216516000Y-114936000D01*
X213327000Y-119000000D02*
X216516000Y-115811000D01*
X205340000Y-119000000D02*
X213327000Y-119000000D01*
X222550000Y-111380000D02*
X224000000Y-111380000D01*
X219197000Y-111380000D02*
X222550000Y-111380000D01*
X216516000Y-114061000D02*
X219197000Y-111380000D01*
X216516000Y-114936000D02*
X216516000Y-114061000D01*
X198150000Y-113390000D02*
X198150000Y-114540000D01*
X200330000Y-111210000D02*
X198150000Y-113390000D01*
X205340000Y-111210000D02*
X200330000Y-111210000D01*
X213595000Y-114882000D02*
X213541000Y-114936000D01*
X213595000Y-111126000D02*
X213595000Y-114882000D01*
X213511000Y-111210000D02*
X213595000Y-111126000D01*
X205340000Y-111210000D02*
X213511000Y-111210000D01*
D22*
X249120000Y-62500000D02*
X260580000Y-73960000D01*
X241080000Y-62500000D02*
X249120000Y-62500000D01*
M02*
