%FSTAX23Y23*%
%MOMM*%
%SFA1B1*%

%IPPOS*%
%ADD10C,0.010000*%
%LNcase-1*%
%LPD*%
G54D10*
X45269Y73509D02*
D01*
X45266Y73621*
X45254Y73732*
X45235Y73842*
X45208Y73951*
X45173Y74057*
X45131Y7416*
X45082Y74261*
X45026Y74357*
X44964Y7445*
X44895Y74538*
X4482Y74621*
X4474Y74699*
X44655Y7477*
X44564Y74836*
X44469Y74895*
X44371Y74948*
X44269Y74993*
X44164Y75031*
X44057Y75062*
X43947Y75085*
X43837Y75101*
X43725Y75109*
X43614*
X43502Y75101*
X43392Y75085*
X43282Y75062*
X43175Y75031*
X4307Y74993*
X42968Y74948*
X42869Y74895*
X42775Y74836*
X42684Y7477*
X42599Y74699*
X42519Y74621*
X42444Y74538*
X42375Y7445*
X42313Y74357*
X42257Y74261*
X42208Y7416*
X42166Y74057*
X42131Y73951*
X42104Y73842*
X42085Y73732*
X42073Y73621*
X42069Y73509*
X42073Y73398*
X42085Y73287*
X42104Y73177*
X42131Y73068*
X42166Y72962*
X42208Y72859*
X42257Y72758*
X42313Y72662*
X42375Y72569*
X42444Y72481*
X42519Y72398*
X42599Y7232*
X42684Y72249*
X42775Y72183*
X42869Y72124*
X42968Y72071*
X4307Y72026*
X43175Y71988*
X43282Y71957*
X43392Y71934*
X43502Y71918*
X43614Y7191*
X43725*
X43837Y71918*
X43947Y71934*
X44057Y71957*
X44164Y71988*
X44269Y72026*
X44371Y72071*
X44469Y72124*
X44564Y72183*
X44655Y72249*
X4474Y7232*
X4482Y72398*
X44895Y72481*
X44964Y72569*
X45026Y72662*
X45082Y72758*
X45131Y72859*
X45173Y72962*
X45208Y73068*
X45235Y73177*
X45254Y73287*
X45266Y73398*
X45269Y73509*
Y45509D02*
D01*
X45266Y45621*
X45254Y45732*
X45235Y45842*
X45208Y45951*
X45173Y46057*
X45131Y4616*
X45082Y46261*
X45026Y46357*
X44964Y4645*
X44895Y46538*
X4482Y46621*
X4474Y46699*
X44655Y4677*
X44564Y46836*
X44469Y46895*
X44371Y46948*
X44269Y46993*
X44164Y47031*
X44057Y47062*
X43947Y47085*
X43837Y47101*
X43725Y47109*
X43614*
X43502Y47101*
X43392Y47085*
X43282Y47062*
X43175Y47031*
X4307Y46993*
X42968Y46948*
X42869Y46895*
X42775Y46836*
X42684Y4677*
X42599Y46699*
X42519Y46621*
X42444Y46538*
X42375Y4645*
X42313Y46357*
X42257Y46261*
X42208Y4616*
X42166Y46057*
X42131Y45951*
X42104Y45842*
X42085Y45732*
X42073Y45621*
X42069Y45509*
X42073Y45398*
X42085Y45287*
X42104Y45177*
X42131Y45068*
X42166Y44962*
X42208Y44859*
X42257Y44758*
X42313Y44662*
X42375Y44569*
X42444Y44481*
X42519Y44398*
X42599Y4432*
X42684Y44249*
X42775Y44183*
X42869Y44124*
X42968Y44071*
X4307Y44026*
X43175Y43988*
X43282Y43957*
X43392Y43934*
X43502Y43918*
X43614Y4391*
X43725*
X43837Y43918*
X43947Y43934*
X44057Y43957*
X44164Y43988*
X44269Y44026*
X44371Y44071*
X44469Y44124*
X44564Y44183*
X44655Y44249*
X4474Y4432*
X4482Y44398*
X44895Y44481*
X44964Y44569*
X45026Y44662*
X45082Y44758*
X45131Y44859*
X45173Y44962*
X45208Y45068*
X45235Y45177*
X45254Y45287*
X45266Y45398*
X45269Y45509*
X72169Y59509D02*
D01*
X72133Y60556*
X72024Y61597*
X71842Y62628*
X71588Y63644*
X71265Y6464*
X70873Y65611*
X70414Y66552*
X6989Y67458*
X69305Y68326*
X6866Y69151*
X6796Y69929*
X67206Y70657*
X66404Y7133*
X65557Y71945*
X64669Y725*
X63745Y72991*
X62789Y73417*
X61805Y73775*
X60798Y74064*
X59774Y74282*
X58737Y74427*
X57693Y745*
X56646*
X55602Y74427*
X54565Y74282*
X53541Y74064*
X52534Y73775*
X5155Y73417*
X50594Y72991*
X49669Y725*
X48782Y71945*
X47935Y7133*
X47133Y70657*
X46379Y69929*
X45679Y69151*
X45034Y68326*
X44449Y67458*
X43925Y66552*
X43466Y65611*
X43074Y6464*
X42751Y63644*
X42497Y62628*
X42315Y61597*
X42206Y60556*
X42169Y59509*
X42206Y58463*
X42315Y57422*
X42497Y56391*
X42751Y55375*
X43074Y54379*
X43466Y53408*
X43925Y52467*
X44449Y51561*
X45034Y50693*
X45679Y49868*
X46379Y4909*
X47133Y48362*
X47935Y47689*
X48782Y47074*
X49669Y46519*
X50594Y46028*
X5155Y45602*
X52534Y45244*
X53541Y44955*
X54565Y44737*
X55602Y44592*
X56646Y44519*
X57693*
X58737Y44592*
X59774Y44737*
X60798Y44955*
X61805Y45244*
X62789Y45602*
X63745Y46028*
X64669Y46519*
X65557Y47074*
X66404Y47689*
X67206Y48362*
X6796Y4909*
X6866Y49868*
X69305Y50693*
X6989Y51561*
X70414Y52467*
X70873Y53408*
X71265Y54379*
X71588Y55375*
X71842Y56391*
X72024Y57422*
X72133Y58463*
X72169Y59509*
X72269Y45509D02*
D01*
X72266Y45621*
X72254Y45732*
X72235Y45842*
X72208Y45951*
X72173Y46057*
X72131Y4616*
X72082Y46261*
X72026Y46357*
X71964Y4645*
X71895Y46538*
X7182Y46621*
X7174Y46699*
X71655Y4677*
X71564Y46836*
X71469Y46895*
X71371Y46948*
X71269Y46993*
X71164Y47031*
X71057Y47062*
X70947Y47085*
X70837Y47101*
X70725Y47109*
X70614*
X70502Y47101*
X70392Y47085*
X70282Y47062*
X70175Y47031*
X7007Y46993*
X69968Y46948*
X69869Y46895*
X69775Y46836*
X69684Y4677*
X69599Y46699*
X69519Y46621*
X69444Y46538*
X69375Y4645*
X69313Y46357*
X69257Y46261*
X69208Y4616*
X69166Y46057*
X69131Y45951*
X69104Y45842*
X69085Y45732*
X69073Y45621*
X69069Y45509*
X69073Y45398*
X69085Y45287*
X69104Y45177*
X69131Y45068*
X69166Y44962*
X69208Y44859*
X69257Y44758*
X69313Y44662*
X69375Y44569*
X69444Y44481*
X69519Y44398*
X69599Y4432*
X69684Y44249*
X69775Y44183*
X69869Y44124*
X69968Y44071*
X7007Y44026*
X70175Y43988*
X70282Y43957*
X70392Y43934*
X70502Y43918*
X70614Y4391*
X70725*
X70837Y43918*
X70947Y43934*
X71057Y43957*
X71164Y43988*
X71269Y44026*
X71371Y44071*
X71469Y44124*
X71564Y44183*
X71655Y44249*
X7174Y4432*
X7182Y44398*
X71895Y44481*
X71964Y44569*
X72026Y44662*
X72082Y44758*
X72131Y44859*
X72173Y44962*
X72208Y45068*
X72235Y45177*
X72254Y45287*
X72266Y45398*
X72269Y45509*
Y73509D02*
D01*
X72266Y73621*
X72254Y73732*
X72235Y73842*
X72208Y73951*
X72173Y74057*
X72131Y7416*
X72082Y74261*
X72026Y74357*
X71964Y7445*
X71895Y74538*
X7182Y74621*
X7174Y74699*
X71655Y7477*
X71564Y74836*
X71469Y74895*
X71371Y74948*
X71269Y74993*
X71164Y75031*
X71057Y75062*
X70947Y75085*
X70837Y75101*
X70725Y75109*
X70614*
X70502Y75101*
X70392Y75085*
X70282Y75062*
X70175Y75031*
X7007Y74993*
X69968Y74948*
X69869Y74895*
X69775Y74836*
X69684Y7477*
X69599Y74699*
X69519Y74621*
X69444Y74538*
X69375Y7445*
X69313Y74357*
X69257Y74261*
X69208Y7416*
X69166Y74057*
X69131Y73951*
X69104Y73842*
X69085Y73732*
X69073Y73621*
X69069Y73509*
X69073Y73398*
X69085Y73287*
X69104Y73177*
X69131Y73068*
X69166Y72962*
X69208Y72859*
X69257Y72758*
X69313Y72662*
X69375Y72569*
X69444Y72481*
X69519Y72398*
X69599Y7232*
X69684Y72249*
X69775Y72183*
X69869Y72124*
X69968Y72071*
X7007Y72026*
X70175Y71988*
X70282Y71957*
X70392Y71934*
X70502Y71918*
X70614Y7191*
X70725*
X70837Y71918*
X70947Y71934*
X71057Y71957*
X71164Y71988*
X71269Y72026*
X71371Y72071*
X71469Y72124*
X71564Y72183*
X71655Y72249*
X7174Y7232*
X7182Y72398*
X71895Y72481*
X71964Y72569*
X72026Y72662*
X72082Y72758*
X72131Y72859*
X72173Y72962*
X72208Y73068*
X72235Y73177*
X72254Y73287*
X72266Y73398*
X72269Y73509*
X45549Y33009D02*
D01*
X45546Y33121*
X45534Y33232*
X45515Y33342*
X45487Y33451*
X45453Y33557*
X45411Y3366*
X45362Y33761*
X45306Y33857*
X45244Y3395*
X45175Y34038*
X451Y34121*
X4502Y34199*
X44935Y3427*
X44844Y34336*
X44749Y34395*
X44651Y34448*
X44549Y34493*
X44444Y34531*
X44337Y34562*
X44227Y34585*
X44117Y34601*
X44005Y34609*
X43894*
X43782Y34601*
X43672Y34585*
X43562Y34562*
X43455Y34531*
X4335Y34493*
X43248Y34448*
X43149Y34395*
X43055Y34336*
X42964Y3427*
X42879Y34199*
X42799Y34121*
X42724Y34038*
X42655Y3395*
X42593Y33857*
X42537Y33761*
X42488Y3366*
X42446Y33557*
X42411Y33451*
X42384Y33342*
X42365Y33232*
X42353Y33121*
X42349Y33009*
X42353Y32898*
X42365Y32787*
X42384Y32677*
X42411Y32568*
X42446Y32462*
X42488Y32359*
X42537Y32258*
X42593Y32162*
X42655Y32069*
X42724Y31981*
X42799Y31898*
X42879Y3182*
X42964Y31749*
X43055Y31683*
X43149Y31624*
X43248Y31571*
X4335Y31526*
X43455Y31488*
X43562Y31457*
X43672Y31434*
X43782Y31418*
X43894Y3141*
X44005*
X44117Y31418*
X44227Y31434*
X44337Y31457*
X44444Y31488*
X44549Y31526*
X44651Y31571*
X44749Y31624*
X44844Y31683*
X44935Y31749*
X4502Y3182*
X451Y31898*
X45175Y31981*
X45244Y32069*
X45306Y32162*
X45362Y32258*
X45411Y32359*
X45453Y32462*
X45487Y32568*
X45515Y32677*
X45534Y32787*
X45546Y32898*
X45549Y33009*
Y05009D02*
D01*
X45546Y05121*
X45534Y05232*
X45515Y05342*
X45487Y05451*
X45453Y05557*
X45411Y0566*
X45362Y05761*
X45306Y05857*
X45244Y0595*
X45175Y06038*
X451Y06121*
X4502Y06199*
X44935Y0627*
X44844Y06336*
X44749Y06395*
X44651Y06448*
X44549Y06493*
X44444Y06531*
X44337Y06562*
X44227Y06585*
X44117Y06601*
X44005Y06609*
X43894*
X43782Y06601*
X43672Y06585*
X43562Y06562*
X43455Y06531*
X4335Y06493*
X43248Y06448*
X43149Y06395*
X43055Y06336*
X42964Y0627*
X42879Y06199*
X42799Y06121*
X42724Y06038*
X42655Y0595*
X42593Y05857*
X42537Y05761*
X42488Y0566*
X42446Y05557*
X42411Y05451*
X42384Y05342*
X42365Y05232*
X42353Y05121*
X42349Y05009*
X42353Y04898*
X42365Y04787*
X42384Y04677*
X42411Y04568*
X42446Y04462*
X42488Y04359*
X42537Y04258*
X42593Y04162*
X42655Y04069*
X42724Y03981*
X42799Y03898*
X42879Y0382*
X42964Y03749*
X43055Y03683*
X43149Y03624*
X43248Y03571*
X4335Y03526*
X43455Y03488*
X43562Y03457*
X43672Y03434*
X43782Y03418*
X43894Y0341*
X44005*
X44117Y03418*
X44227Y03434*
X44337Y03457*
X44444Y03488*
X44549Y03526*
X44651Y03571*
X44749Y03624*
X44844Y03683*
X44935Y03749*
X4502Y0382*
X451Y03898*
X45175Y03981*
X45244Y04069*
X45306Y04162*
X45362Y04258*
X45411Y04359*
X45453Y04462*
X45487Y04568*
X45515Y04677*
X45534Y04787*
X45546Y04898*
X45549Y05009*
X72549Y33009D02*
D01*
X72546Y33121*
X72534Y33232*
X72515Y33342*
X72488Y33451*
X72453Y33557*
X72411Y3366*
X72362Y33761*
X72306Y33857*
X72244Y3395*
X72175Y34038*
X721Y34121*
X7202Y34199*
X71935Y3427*
X71844Y34336*
X71749Y34395*
X71651Y34448*
X71549Y34493*
X71444Y34531*
X71337Y34562*
X71227Y34585*
X71117Y34601*
X71005Y34609*
X70894*
X70782Y34601*
X70672Y34585*
X70562Y34562*
X70455Y34531*
X7035Y34493*
X70248Y34448*
X70149Y34395*
X70055Y34336*
X69964Y3427*
X69879Y34199*
X69799Y34121*
X69724Y34038*
X69655Y3395*
X69593Y33857*
X69537Y33761*
X69488Y3366*
X69446Y33557*
X69411Y33451*
X69384Y33342*
X69365Y33232*
X69353Y33121*
X69349Y33009*
X69353Y32898*
X69365Y32787*
X69384Y32677*
X69411Y32568*
X69446Y32462*
X69488Y32359*
X69537Y32258*
X69593Y32162*
X69655Y32069*
X69724Y31981*
X69799Y31898*
X69879Y3182*
X69964Y31749*
X70055Y31683*
X70149Y31624*
X70248Y31571*
X7035Y31526*
X70455Y31488*
X70562Y31457*
X70672Y31434*
X70782Y31418*
X70894Y3141*
X71005*
X71117Y31418*
X71227Y31434*
X71337Y31457*
X71444Y31488*
X71549Y31526*
X71651Y31571*
X71749Y31624*
X71844Y31683*
X71935Y31749*
X7202Y3182*
X721Y31898*
X72175Y31981*
X72244Y32069*
X72306Y32162*
X72362Y32258*
X72411Y32359*
X72453Y32462*
X72488Y32568*
X72515Y32677*
X72534Y32787*
X72546Y32898*
X72549Y33009*
Y05009D02*
D01*
X72546Y05121*
X72534Y05232*
X72515Y05342*
X72488Y05451*
X72453Y05557*
X72411Y0566*
X72362Y05761*
X72306Y05857*
X72244Y0595*
X72175Y06038*
X721Y06121*
X7202Y06199*
X71935Y0627*
X71844Y06336*
X71749Y06395*
X71651Y06448*
X71549Y06493*
X71444Y06531*
X71337Y06562*
X71227Y06585*
X71117Y06601*
X71005Y06609*
X70894*
X70782Y06601*
X70672Y06585*
X70562Y06562*
X70455Y06531*
X7035Y06493*
X70248Y06448*
X70149Y06395*
X70055Y06336*
X69964Y0627*
X69879Y06199*
X69799Y06121*
X69724Y06038*
X69655Y0595*
X69593Y05857*
X69537Y05761*
X69488Y0566*
X69446Y05557*
X69411Y05451*
X69384Y05342*
X69365Y05232*
X69353Y05121*
X69349Y05009*
X69353Y04898*
X69365Y04787*
X69384Y04677*
X69411Y04568*
X69446Y04462*
X69488Y04359*
X69537Y04258*
X69593Y04162*
X69655Y04069*
X69724Y03981*
X69799Y03898*
X69879Y0382*
X69964Y03749*
X70055Y03683*
X70149Y03624*
X70248Y03571*
X7035Y03526*
X70455Y03488*
X70562Y03457*
X70672Y03434*
X70782Y03418*
X70894Y0341*
X71005*
X71117Y03418*
X71227Y03434*
X71337Y03457*
X71444Y03488*
X71549Y03526*
X71651Y03571*
X71749Y03624*
X71844Y03683*
X71935Y03749*
X7202Y0382*
X721Y03898*
X72175Y03981*
X72244Y04069*
X72306Y04162*
X72362Y04258*
X72411Y04359*
X72453Y04462*
X72488Y04568*
X72515Y04677*
X72534Y04787*
X72546Y04898*
X72549Y05009*
X14009Y64269D02*
D01*
X14001Y64514*
X13975Y64757*
X13933Y64997*
X13874Y65234*
X13798Y65467*
X13707Y65693*
X136Y65913*
X13478Y66124*
X13341Y66327*
X13191Y66519*
X13027Y66701*
X12851Y6687*
X12664Y67028*
X12467Y67171*
X12259Y67301*
X12044Y67415*
X11821Y67515*
X11591Y67598*
X11356Y67666*
X11117Y67716*
X10875Y6775*
X10632Y67767*
X10387*
X10144Y6775*
X09902Y67716*
X09663Y67666*
X09428Y67598*
X09198Y67515*
X08975Y67415*
X08759Y67301*
X08552Y67171*
X08355Y67028*
X08168Y6687*
X07992Y66701*
X07828Y66519*
X07678Y66327*
X07541Y66124*
X07419Y65913*
X07312Y65693*
X07221Y65467*
X07145Y65234*
X07086Y64997*
X07044Y64757*
X07018Y64514*
X07009Y64269*
X07018Y64025*
X07044Y63782*
X07086Y63542*
X07145Y63305*
X07221Y63072*
X07312Y62846*
X07419Y62626*
X07541Y62415*
X07678Y62212*
X07828Y6202*
X07992Y61838*
X08168Y61668*
X08355Y61511*
X08552Y61368*
X08759Y61238*
X08975Y61124*
X09198Y61024*
X09428Y60941*
X09663Y60873*
X09902Y60823*
X10144Y60789*
X10387Y60772*
X10632*
X10875Y60789*
X11117Y60823*
X11356Y60873*
X11591Y60941*
X11821Y61024*
X12044Y61124*
X12259Y61238*
X12467Y61368*
X12664Y61511*
X12851Y61668*
X13027Y61838*
X13191Y6202*
X13341Y62212*
X13478Y62415*
X136Y62626*
X13707Y62846*
X13798Y63072*
X13874Y63305*
X13933Y63542*
X13975Y63782*
X14001Y64025*
X14009Y64269*
X38669Y78509D02*
X95669D01*
X38669Y40509D02*
Y78509D01*
Y40509D02*
X95669D01*
Y78509*
X38949Y00009D02*
Y38009D01*
X95949Y00009D02*
Y38009D01*
X38949Y00009D02*
X95949D01*
X38949Y38009D02*
X95949D01*
X19009Y95219D02*
X35509D01*
X19009Y57219D02*
Y95219D01*
Y57219D02*
X35509D01*
Y95219*
X00009Y57269D02*
Y95269D01*
X16009Y82499D02*
Y91999D01*
X04509Y82499D02*
X16009D01*
X00009Y57269D02*
X1651D01*
Y95269*
X04509Y91999D02*
X16009D01*
X04509Y82499D02*
Y91999D01*
X00009Y95269D02*
X1651D01*
X00009Y00479D02*
Y54479D01*
X1651Y00479D02*
Y54479D01*
X00009D02*
X1651D01*
X00009Y00479D02*
X1651D01*
X19009D02*
Y54479D01*
X35509Y00479D02*
Y54479D01*
X19009D02*
X35509D01*
X19009Y00479D02*
X35509D01*
M02*