G04*
G04 #@! TF.GenerationSoftware,Altium Limited,Altium Designer,18.0.9 (584)*
G04*
G04 Layer_Physical_Order=1*
G04 Layer_Color=255*
%FSLAX44Y44*%
%MOMM*%
G71*
G01*
G75*
%ADD11C,0.2540*%
%ADD21C,1.5000*%
%ADD22R,1.5000X1.5000*%
%ADD23C,1.5240*%
%ADD24R,1.5000X1.5000*%
%ADD25C,3.0000*%
%ADD26C,1.6000*%
G04:AMPARAMS|DCode=27|XSize=1.524mm|YSize=1.524mm|CornerRadius=0.381mm|HoleSize=0mm|Usage=FLASHONLY|Rotation=270.000|XOffset=0mm|YOffset=0mm|HoleType=Round|Shape=RoundedRectangle|*
%AMROUNDEDRECTD27*
21,1,1.5240,0.7620,0,0,270.0*
21,1,0.7620,1.5240,0,0,270.0*
1,1,0.7620,-0.3810,-0.3810*
1,1,0.7620,-0.3810,0.3810*
1,1,0.7620,0.3810,0.3810*
1,1,0.7620,0.3810,-0.3810*
%
%ADD27ROUNDEDRECTD27*%
%ADD28C,3.5000*%
D11*
X417842Y910430D02*
X484450D01*
X280472Y773060D02*
X417842Y910430D01*
X206190Y773060D02*
X280472D01*
X490474Y879102D02*
Y904406D01*
X484450Y910430D02*
X490474Y904406D01*
X119876Y325974D02*
X206190Y239660D01*
X79190Y325974D02*
X119876D01*
X204620Y492090D02*
X206190Y493660D01*
X79190Y492090D02*
X204620D01*
X79190Y464404D02*
X184646D01*
X79190Y492090D02*
X80760Y493660D01*
X490474Y879102D02*
X503016Y866560D01*
X674720Y184824D02*
Y220230D01*
Y184824D02*
X687674Y171870D01*
X604490Y290460D02*
X674720Y220230D01*
X426690Y239660D02*
X446120Y220230D01*
X206190Y239660D02*
X426690D01*
Y265060D02*
X459074Y232676D01*
X206190Y265060D02*
X426690D01*
X206190Y290460D02*
X604490D01*
X459074Y197270D02*
Y232676D01*
X617190Y315860D02*
X687674Y245376D01*
X206190Y315860D02*
X617190D01*
X636394Y341260D02*
X713074Y264580D01*
X206190Y341260D02*
X636394D01*
X206190Y392060D02*
X506390D01*
X206190Y417460D02*
X493690D01*
X206190Y442860D02*
X480990D01*
X206190Y468260D02*
X468290D01*
X206190Y493660D02*
X461940D01*
X455590Y519060D02*
X706216Y769686D01*
X206190Y519060D02*
X455590D01*
X206190Y544460D02*
X442890D01*
X206190Y569860D02*
X436540D01*
X206190Y595260D02*
X423840D01*
X206190Y620660D02*
X411140D01*
X206190Y646060D02*
X404790D01*
X206190Y671460D02*
X392090D01*
X206190Y696860D02*
X282516D01*
X206190Y722260D02*
X280076D01*
X206190Y747660D02*
X282870D01*
X138880Y408570D02*
X206190Y341260D01*
X79652Y408570D02*
X138880D01*
X79190Y409032D02*
X79652Y408570D01*
X79190Y353660D02*
X142990D01*
X154674Y367376D02*
X206190Y315860D01*
X107638Y367376D02*
X154674D01*
X142990Y353660D02*
X206190Y290460D01*
X131560Y339690D02*
X206190Y265060D01*
X107638Y339690D02*
X131560D01*
X150102Y422748D02*
X206190Y366660D01*
X107638Y422748D02*
X150102D01*
X161532Y436718D02*
X206190Y392060D01*
X79190Y436718D02*
X161532D01*
X173216Y450434D02*
X206190Y417460D01*
X107638Y450434D02*
X173216D01*
X184646Y464404D02*
X206190Y442860D01*
X196330Y478120D02*
X206190Y468260D01*
X107638Y478120D02*
X196330D01*
X192936Y505806D02*
X206190Y519060D01*
X107638Y505806D02*
X192936D01*
X189472Y561178D02*
X206190Y544460D01*
X107638Y561178D02*
X189472D01*
X146708Y713578D02*
X206190Y773060D01*
X79190Y713578D02*
X146708D01*
X158138Y699608D02*
X206190Y747660D01*
X107638Y699608D02*
X158138D01*
X169822Y685892D02*
X206190Y722260D01*
X79190Y685892D02*
X169822D01*
X153566Y644236D02*
X206190Y696860D01*
X107638Y644236D02*
X153566D01*
X165250Y630520D02*
X206190Y671460D01*
X79190Y630520D02*
X165250D01*
X176680Y616550D02*
X206190Y646060D01*
X107638Y616550D02*
X176680D01*
X188364Y602834D02*
X206190Y620660D01*
X79190Y602834D02*
X188364D01*
X79190Y575148D02*
X200902D01*
X199794Y588864D02*
X206190Y595260D01*
X107638Y588864D02*
X199794D01*
X200902Y575148D02*
X206190Y569860D01*
X282516Y696860D02*
X452216Y866560D01*
X782416Y668086D02*
Y866560D01*
X506390Y392060D02*
X782416Y668086D01*
X769462Y693232D02*
Y879006D01*
X493690Y417460D02*
X769462Y693232D01*
X757016Y718886D02*
Y866560D01*
X480990Y442860D02*
X757016Y718886D01*
X744570Y744540D02*
Y879514D01*
X468290Y468260D02*
X744570Y744540D01*
X719170Y750890D02*
Y879514D01*
X461940Y493660D02*
X719170Y750890D01*
X706216Y769686D02*
Y866560D01*
X655416Y756986D02*
Y866560D01*
X442890Y544460D02*
X655416Y756986D01*
X630016Y763336D02*
Y866560D01*
X436540Y569860D02*
X630016Y763336D01*
X604616Y776036D02*
Y866560D01*
X423840Y595260D02*
X604616Y776036D01*
X579216Y788736D02*
Y866560D01*
X411140Y620660D02*
X579216Y788736D01*
X553816Y795086D02*
Y866560D01*
X404790Y646060D02*
X553816Y795086D01*
X528416Y807786D02*
Y866560D01*
X392090Y671460D02*
X528416Y807786D01*
X687674Y197270D02*
Y245376D01*
X446120Y184824D02*
Y220230D01*
X427170Y891960D02*
X452216D01*
X282870Y747660D02*
X427170Y891960D01*
X437330Y879514D02*
X463900D01*
X280076Y722260D02*
X437330Y879514D01*
X713074Y197270D02*
Y264580D01*
X463900Y879514D02*
X476854Y866560D01*
X477616D01*
X446120Y184824D02*
X459074Y171870D01*
X448406Y866560D02*
X452216D01*
X719170Y879514D02*
X731616Y891960D01*
X744570Y879514D02*
X757016Y891960D01*
X769462Y879006D02*
X782416Y891960D01*
D21*
X207460Y844180D02*
D03*
X204920Y169810D02*
D03*
X757016Y891960D02*
D03*
X731616D02*
D03*
X706216D02*
D03*
X680816D02*
D03*
X655416D02*
D03*
X630016D02*
D03*
X604616D02*
D03*
X579216D02*
D03*
X553816D02*
D03*
X528416D02*
D03*
X503016D02*
D03*
X477616D02*
D03*
X452216D02*
D03*
X782416Y866560D02*
D03*
X757016D02*
D03*
X731616D02*
D03*
X706216D02*
D03*
X680816D02*
D03*
X655416D02*
D03*
X630016D02*
D03*
X604616D02*
D03*
X579216D02*
D03*
X553816D02*
D03*
X528416D02*
D03*
X503016D02*
D03*
X477616D02*
D03*
X452216D02*
D03*
X713074Y171870D02*
D03*
X687674Y197270D02*
D03*
Y171870D02*
D03*
X662274Y197270D02*
D03*
Y171870D02*
D03*
X636874Y197270D02*
D03*
Y171870D02*
D03*
X611474Y197270D02*
D03*
Y171870D02*
D03*
X586074Y197270D02*
D03*
Y171870D02*
D03*
X560674Y197270D02*
D03*
Y171870D02*
D03*
X535274Y197270D02*
D03*
Y171870D02*
D03*
X509874Y197270D02*
D03*
Y171870D02*
D03*
X484474Y197270D02*
D03*
Y171870D02*
D03*
X459074Y197270D02*
D03*
Y171870D02*
D03*
X433674Y197270D02*
D03*
Y171870D02*
D03*
X206190Y239660D02*
D03*
Y265060D02*
D03*
Y290460D02*
D03*
Y315860D02*
D03*
Y341260D02*
D03*
Y366660D02*
D03*
Y392060D02*
D03*
Y417460D02*
D03*
Y442860D02*
D03*
Y468260D02*
D03*
Y493660D02*
D03*
Y519060D02*
D03*
Y544460D02*
D03*
Y569860D02*
D03*
Y595260D02*
D03*
Y620660D02*
D03*
Y646060D02*
D03*
Y671460D02*
D03*
Y696860D02*
D03*
Y722260D02*
D03*
Y747660D02*
D03*
D22*
X232860Y844180D02*
D03*
X230320Y169810D02*
D03*
X782416Y891960D02*
D03*
X713074Y197270D02*
D03*
D23*
X840000Y470000D02*
D03*
X40000Y900000D02*
D03*
Y40000D02*
D03*
X107638Y754980D02*
D03*
D24*
X206190Y773060D02*
D03*
D25*
X707840Y98210D02*
D03*
Y43985D02*
D03*
X750015Y98210D02*
D03*
X665665Y43985D02*
D03*
Y98210D02*
D03*
X750015Y43985D02*
D03*
X472890Y95285D02*
D03*
Y41060D02*
D03*
X515065Y95285D02*
D03*
X430715Y41060D02*
D03*
Y95285D02*
D03*
X515065Y41060D02*
D03*
D26*
X107638Y256632D02*
D03*
X79190Y270602D02*
D03*
Y298288D02*
D03*
Y325974D02*
D03*
X107638Y312004D02*
D03*
Y395062D02*
D03*
X79190Y381346D02*
D03*
Y409032D02*
D03*
X107638Y422748D02*
D03*
Y367376D02*
D03*
Y450434D02*
D03*
X79190Y464404D02*
D03*
X107638Y533492D02*
D03*
X79190Y547462D02*
D03*
Y519776D02*
D03*
X107638Y561178D02*
D03*
X79190Y575148D02*
D03*
Y602834D02*
D03*
X107638Y644236D02*
D03*
Y699608D02*
D03*
Y671922D02*
D03*
X79190Y685892D02*
D03*
Y713578D02*
D03*
X107638Y727294D02*
D03*
Y284318D02*
D03*
Y588864D02*
D03*
X79190Y436718D02*
D03*
X107638Y505806D02*
D03*
X79190Y741264D02*
D03*
Y658206D02*
D03*
D27*
X107638Y339690D02*
D03*
Y478120D02*
D03*
X79190Y492090D02*
D03*
Y630520D02*
D03*
X107638Y616550D02*
D03*
X79190Y353660D02*
D03*
D28*
X93414Y188306D02*
D03*
Y823306D02*
D03*
M02*
