G04*
G04 #@! TF.GenerationSoftware,Altium Limited,Altium Designer,18.0.9 (584)*
G04*
G04 Layer_Color=32896*
%FSLAX44Y44*%
%MOMM*%
G71*
G01*
G75*
%ADD11C,0.2540*%
D11*
X768330Y797930D02*
Y823430D01*
X718470Y797930D02*
Y823430D01*
X718830D02*
X768330D01*
X718830Y797930D02*
X768330D01*
X451770Y796660D02*
Y822160D01*
X501630Y796660D02*
Y822160D01*
X451770Y796660D02*
X501270D01*
X451770Y822160D02*
X501270D01*
X573990Y272870D02*
X599490D01*
X573990Y223010D02*
X599490D01*
X573990Y223370D02*
Y272870D01*
X599490Y223370D02*
Y272870D01*
X632930Y125970D02*
Y151470D01*
X682790Y125970D02*
Y151470D01*
X632930Y125970D02*
X682430D01*
X632930Y151470D02*
X682430D01*
X675590Y223010D02*
X701090D01*
X675590Y272870D02*
X701090D01*
Y223010D02*
Y272510D01*
X675590Y223010D02*
Y272510D01*
X522370Y223140D02*
X547870D01*
X522370Y273000D02*
X547870D01*
Y223140D02*
Y272640D01*
X522370Y223140D02*
Y272640D01*
X623970Y222812D02*
X649470D01*
X623970Y272672D02*
X649470D01*
Y222812D02*
Y272312D01*
X623970Y222812D02*
Y272312D01*
X359863Y152816D02*
X362402Y155355D01*
X367481D01*
X370020Y152816D01*
Y142659D01*
X367481Y140120D01*
X362402D01*
X359863Y142659D01*
X354785Y155355D02*
X344628D01*
Y152816D01*
X354785Y142659D01*
Y140120D01*
X746351Y842934D02*
X748891Y845473D01*
X753969D01*
X756508Y842934D01*
Y832777D01*
X753969Y830238D01*
X748891D01*
X746351Y832777D01*
X741273D02*
X738734Y830238D01*
X733655D01*
X731116Y832777D01*
Y842934D01*
X733655Y845473D01*
X738734D01*
X741273Y842934D01*
Y840395D01*
X738734Y837856D01*
X731116D01*
X486354Y841327D02*
X488893Y843866D01*
X493971D01*
X496511Y841327D01*
Y831170D01*
X493971Y828631D01*
X488893D01*
X486354Y831170D01*
X481276Y828631D02*
X476197D01*
X478736D01*
Y843866D01*
X481276Y841327D01*
X468580D02*
X466040Y843866D01*
X460962D01*
X458423Y841327D01*
Y831170D01*
X460962Y828631D01*
X466040D01*
X468580Y831170D01*
Y841327D01*
X593543Y152816D02*
X596082Y155355D01*
X601161D01*
X603700Y152816D01*
Y142659D01*
X601161Y140120D01*
X596082D01*
X593543Y142659D01*
X588465Y152816D02*
X585926Y155355D01*
X580847D01*
X578308Y152816D01*
Y150277D01*
X580847Y147738D01*
X583387D01*
X580847D01*
X578308Y145198D01*
Y142659D01*
X580847Y140120D01*
X585926D01*
X588465Y142659D01*
X537663Y291246D02*
X540202Y293785D01*
X545281D01*
X547820Y291246D01*
Y281089D01*
X545281Y278550D01*
X540202D01*
X537663Y281089D01*
X532585Y291246D02*
X530046Y293785D01*
X524967D01*
X522428Y291246D01*
Y288707D01*
X524967Y286168D01*
X522428Y283628D01*
Y281089D01*
X524967Y278550D01*
X530046D01*
X532585Y281089D01*
Y283628D01*
X530046Y286168D01*
X532585Y288707D01*
Y291246D01*
X530046Y286168D02*
X524967D01*
X701036Y136177D02*
X703575Y133638D01*
Y128559D01*
X701036Y126020D01*
X690879D01*
X688340Y128559D01*
Y133638D01*
X690879Y136177D01*
X703575Y151412D02*
X701036Y146333D01*
X695957Y141255D01*
X690879D01*
X688340Y143794D01*
Y148873D01*
X690879Y151412D01*
X693418D01*
X695957Y148873D01*
Y141255D01*
X589283Y291116D02*
X591823Y293655D01*
X596901D01*
X599440Y291116D01*
Y280959D01*
X596901Y278420D01*
X591823D01*
X589283Y280959D01*
X574048Y293655D02*
X584205D01*
Y286038D01*
X579127Y288577D01*
X576587D01*
X574048Y286038D01*
Y280959D01*
X576587Y278420D01*
X581666D01*
X584205Y280959D01*
X639263Y290918D02*
X641803Y293457D01*
X646881D01*
X649420Y290918D01*
Y280761D01*
X646881Y278222D01*
X641803D01*
X639263Y280761D01*
X626567Y278222D02*
Y293457D01*
X634185Y285840D01*
X624028D01*
X690883Y291116D02*
X693422Y293655D01*
X698501D01*
X701040Y291116D01*
Y280959D01*
X698501Y278420D01*
X693422D01*
X690883Y280959D01*
X675648Y278420D02*
X685805D01*
X675648Y288577D01*
Y291116D01*
X678187Y293655D01*
X683266D01*
X685805Y291116D01*
X824683Y152816D02*
X827223Y155355D01*
X832301D01*
X834840Y152816D01*
Y142659D01*
X832301Y140120D01*
X827223D01*
X824683Y142659D01*
X819605Y140120D02*
X814527D01*
X817066D01*
Y155355D01*
X819605Y152816D01*
M02*
