G04*
G04 #@! TF.GenerationSoftware,Altium Limited,Altium Designer,18.0.9 (584)*
G04*
G04 Layer_Color=65535*
%FSLAX44Y44*%
%MOMM*%
G71*
G01*
G75*
%ADD10C,0.2000*%
%ADD11C,0.2540*%
%ADD12C,0.2500*%
D10*
X194760Y831480D02*
X245560D01*
Y856880D01*
X194760D02*
X245560D01*
X194760Y831480D02*
Y856880D01*
X192220Y157110D02*
X243020D01*
Y182510D01*
X192220D02*
X243020D01*
X192220Y157110D02*
Y182510D01*
X795116Y853860D02*
Y904660D01*
X439516Y853860D02*
X795116D01*
X439516D02*
Y904660D01*
X795116D01*
X420974Y159170D02*
Y209970D01*
X725774Y159170D02*
Y209970D01*
X420974Y159170D02*
X725774D01*
X420974Y209970D02*
X725774D01*
X218890Y226960D02*
Y766710D01*
Y785760D01*
X193490D02*
X218890D01*
X193490Y226960D02*
Y785760D01*
Y226960D02*
X218890D01*
D11*
X315920Y151988D02*
X875920D01*
X315920Y911988D02*
X875920D01*
Y151988D02*
Y911988D01*
X315920Y151988D02*
Y911988D01*
X208627Y875700D02*
X206088Y878239D01*
X201009D01*
X198470Y875700D01*
Y865543D01*
X201009Y863004D01*
X206088D01*
X208627Y865543D01*
Y870621D01*
X203548D01*
X213705Y863004D02*
Y878239D01*
X223862Y863004D01*
Y878239D01*
X228940D02*
Y863004D01*
X236558D01*
X239097Y865543D01*
Y875700D01*
X236558Y878239D01*
X228940D01*
X206187Y202826D02*
X203647Y205365D01*
X198569D01*
X196030Y202826D01*
Y192669D01*
X198569Y190130D01*
X203647D01*
X206187Y192669D01*
Y197747D01*
X201108D01*
X211265Y190130D02*
Y205365D01*
X221422Y190130D01*
Y205365D01*
X226500D02*
Y190130D01*
X234118D01*
X236657Y192669D01*
Y202826D01*
X234118Y205365D01*
X226500D01*
X228288Y232548D02*
Y247783D01*
X235905D01*
X238445Y245244D01*
Y240166D01*
X235905Y237626D01*
X228288D01*
X233366D02*
X238445Y232548D01*
X253680Y247783D02*
X243523D01*
Y232548D01*
X253680D01*
X243523Y240166D02*
X248601D01*
X268915Y245244D02*
X266376Y247783D01*
X261297D01*
X258758Y245244D01*
Y242705D01*
X261297Y240166D01*
X266376D01*
X268915Y237626D01*
Y235087D01*
X266376Y232548D01*
X261297D01*
X258758Y235087D01*
X284150Y247783D02*
X273993D01*
Y232548D01*
X284150D01*
X273993Y240166D02*
X279072D01*
X289228Y247783D02*
X299385D01*
X294307D01*
Y232548D01*
X228288Y273195D02*
X238445D01*
X233366D01*
Y257960D01*
X243523D02*
Y273195D01*
X251141D01*
X253680Y270656D01*
Y265578D01*
X251141Y263038D01*
X243523D01*
X248601D02*
X253680Y257960D01*
X258758Y273195D02*
X263836D01*
X261297D01*
Y257960D01*
X258758D01*
X263836D01*
X281611Y270656D02*
X279072Y273195D01*
X273993D01*
X271454Y270656D01*
Y260499D01*
X273993Y257960D01*
X279072D01*
X281611Y260499D01*
Y265578D01*
X276532D01*
X238445Y296068D02*
X235905Y298607D01*
X230827D01*
X228288Y296068D01*
Y285911D01*
X230827Y283372D01*
X235905D01*
X238445Y285911D01*
X243523Y298607D02*
Y283372D01*
X253680D01*
X258758Y298607D02*
Y283372D01*
Y288451D01*
X268915Y298607D01*
X261297Y290990D01*
X268915Y283372D01*
X284150Y298607D02*
X273993D01*
Y290990D01*
X279072D01*
X273993D01*
Y283372D01*
X289228Y298607D02*
X299385Y283372D01*
Y298607D02*
X289228Y283372D01*
X238445Y321480D02*
X235905Y324019D01*
X230827D01*
X228288Y321480D01*
Y311323D01*
X230827Y308784D01*
X235905D01*
X238445Y311323D01*
X243523Y324019D02*
Y308784D01*
X253680D01*
X258758Y324019D02*
Y308784D01*
Y313862D01*
X268915Y324019D01*
X261297Y316402D01*
X268915Y308784D01*
X273993D02*
Y324019D01*
X281611D01*
X284150Y321480D01*
Y316402D01*
X281611Y313862D01*
X273993D01*
X279072D02*
X284150Y308784D01*
X299385Y324019D02*
X289228D01*
Y316402D01*
X294307D01*
X289228D01*
Y308784D01*
X228288Y349431D02*
Y334196D01*
X235905D01*
X238445Y336735D01*
Y346892D01*
X235905Y349431D01*
X228288D01*
X243523D02*
X253680D01*
X248601D01*
Y334196D01*
X268915Y346892D02*
X266376Y349431D01*
X261297D01*
X258758Y346892D01*
Y336735D01*
X261297Y334196D01*
X266376D01*
X268915Y336735D01*
X273993Y349431D02*
Y334196D01*
X284150D01*
X289228Y349431D02*
Y334196D01*
Y339275D01*
X299385Y349431D01*
X291768Y341814D01*
X299385Y334196D01*
X238445Y374843D02*
X228288D01*
Y367226D01*
X233366D01*
X228288D01*
Y359608D01*
X243523Y374843D02*
Y359608D01*
X253680D01*
X266376Y374843D02*
X261297D01*
X258758Y372304D01*
Y362147D01*
X261297Y359608D01*
X266376D01*
X268915Y362147D01*
Y372304D01*
X266376Y374843D01*
X228288Y400256D02*
Y385020D01*
X235905D01*
X238445Y387560D01*
Y397716D01*
X235905Y400256D01*
X228288D01*
X243523Y397716D02*
X246062Y400256D01*
X251141D01*
X253680Y397716D01*
Y387560D01*
X251141Y385020D01*
X246062D01*
X243523Y387560D01*
Y397716D01*
X228288Y425667D02*
Y410433D01*
X235905D01*
X238445Y412972D01*
Y423128D01*
X235905Y425667D01*
X228288D01*
X243523Y410433D02*
X248601D01*
X246062D01*
Y425667D01*
X243523Y423128D01*
X228288Y451080D02*
Y435844D01*
X235905D01*
X238445Y438384D01*
Y448540D01*
X235905Y451080D01*
X228288D01*
X253680Y435844D02*
X243523D01*
X253680Y446001D01*
Y448540D01*
X251141Y451080D01*
X246062D01*
X243523Y448540D01*
X228288Y476492D02*
Y461257D01*
X235905D01*
X238445Y463796D01*
Y473952D01*
X235905Y476492D01*
X228288D01*
X243523Y473952D02*
X246062Y476492D01*
X251141D01*
X253680Y473952D01*
Y471413D01*
X251141Y468874D01*
X248601D01*
X251141D01*
X253680Y466335D01*
Y463796D01*
X251141Y461257D01*
X246062D01*
X243523Y463796D01*
X228288Y501904D02*
Y486669D01*
X235905D01*
X238445Y489208D01*
Y499365D01*
X235905Y501904D01*
X228288D01*
X251141Y486669D02*
Y501904D01*
X243523Y494286D01*
X253680D01*
X228288Y527316D02*
Y512081D01*
X235905D01*
X238445Y514620D01*
Y524777D01*
X235905Y527316D01*
X228288D01*
X253680D02*
X243523D01*
Y519698D01*
X248601Y522237D01*
X251141D01*
X253680Y519698D01*
Y514620D01*
X251141Y512081D01*
X246062D01*
X243523Y514620D01*
X228288Y552728D02*
Y537493D01*
X235905D01*
X238445Y540032D01*
Y550189D01*
X235905Y552728D01*
X228288D01*
X253680D02*
X248601Y550189D01*
X243523Y545110D01*
Y540032D01*
X246062Y537493D01*
X251141D01*
X253680Y540032D01*
Y542571D01*
X251141Y545110D01*
X243523D01*
X228288Y578140D02*
Y562905D01*
X235905D01*
X238445Y565444D01*
Y575601D01*
X235905Y578140D01*
X228288D01*
X243523D02*
X253680D01*
Y575601D01*
X243523Y565444D01*
Y562905D01*
X228288Y603552D02*
Y588317D01*
X235905D01*
X238445Y590856D01*
Y601013D01*
X235905Y603552D01*
X228288D01*
X243523Y601013D02*
X246062Y603552D01*
X251141D01*
X253680Y601013D01*
Y598474D01*
X251141Y595934D01*
X253680Y593395D01*
Y590856D01*
X251141Y588317D01*
X246062D01*
X243523Y590856D01*
Y593395D01*
X246062Y595934D01*
X243523Y598474D01*
Y601013D01*
X246062Y595934D02*
X251141D01*
X228288Y628964D02*
Y613729D01*
X235905D01*
X238445Y616268D01*
Y626425D01*
X235905Y628964D01*
X228288D01*
X243523Y616268D02*
X246062Y613729D01*
X251141D01*
X253680Y616268D01*
Y626425D01*
X251141Y628964D01*
X246062D01*
X243523Y626425D01*
Y623886D01*
X246062Y621347D01*
X253680D01*
X228288Y654376D02*
Y639141D01*
X238445D01*
X253680Y654376D02*
X243523D01*
Y639141D01*
X253680D01*
X243523Y646759D02*
X248601D01*
X258758Y639141D02*
Y654376D01*
X268915Y639141D01*
Y654376D01*
X238445Y679788D02*
X228288D01*
Y672171D01*
X233366D01*
X228288D01*
Y664553D01*
X253680Y679788D02*
X243523D01*
Y664553D01*
X253680D01*
X243523Y672171D02*
X248601D01*
X258758Y664553D02*
Y679788D01*
X268915Y664553D01*
Y679788D01*
X228288Y689965D02*
Y705200D01*
X233366Y700122D01*
X238445Y705200D01*
Y689965D01*
X243523Y705200D02*
X248601D01*
X246062D01*
Y689965D01*
X243523D01*
X248601D01*
X266376Y702661D02*
X263836Y705200D01*
X258758D01*
X256219Y702661D01*
Y700122D01*
X258758Y697583D01*
X263836D01*
X266376Y695043D01*
Y692504D01*
X263836Y689965D01*
X258758D01*
X256219Y692504D01*
X279072Y705200D02*
X273993D01*
X271454Y702661D01*
Y692504D01*
X273993Y689965D01*
X279072D01*
X281611Y692504D01*
Y702661D01*
X279072Y705200D01*
X228288Y715377D02*
Y730612D01*
X233366Y725534D01*
X238445Y730612D01*
Y715377D01*
X251141Y730612D02*
X246062D01*
X243523Y728073D01*
Y717916D01*
X246062Y715377D01*
X251141D01*
X253680Y717916D01*
Y728073D01*
X251141Y730612D01*
X268915Y728073D02*
X266376Y730612D01*
X261297D01*
X258758Y728073D01*
Y725534D01*
X261297Y722995D01*
X266376D01*
X268915Y720456D01*
Y717916D01*
X266376Y715377D01*
X261297D01*
X258758Y717916D01*
X273993Y730612D02*
X279072D01*
X276532D01*
Y715377D01*
X273993D01*
X279072D01*
X238445Y753485D02*
X235905Y756024D01*
X230827D01*
X228288Y753485D01*
Y743328D01*
X230827Y740789D01*
X235905D01*
X238445Y743328D01*
X253680Y753485D02*
X251141Y756024D01*
X246062D01*
X243523Y753485D01*
Y750946D01*
X246062Y748407D01*
X251141D01*
X253680Y745868D01*
Y743328D01*
X251141Y740789D01*
X246062D01*
X243523Y743328D01*
X258758Y740789D02*
Y756024D01*
X268915Y740789D01*
Y756024D01*
X238445Y778897D02*
X235905Y781436D01*
X230827D01*
X228288Y778897D01*
Y776358D01*
X230827Y773819D01*
X235905D01*
X238445Y771280D01*
Y768741D01*
X235905Y766201D01*
X230827D01*
X228288Y768741D01*
X253680Y778897D02*
X251141Y781436D01*
X246062D01*
X243523Y778897D01*
Y768741D01*
X246062Y766201D01*
X251141D01*
X253680Y768741D01*
X258758Y781436D02*
Y766201D01*
Y771280D01*
X268915Y781436D01*
X261297Y773819D01*
X268915Y766201D01*
X689486Y123530D02*
X694565D01*
X692025D01*
Y138765D01*
X689486Y136226D01*
X702182D02*
X704721Y138765D01*
X709800D01*
X712339Y136226D01*
Y133687D01*
X709800Y131147D01*
X712339Y128608D01*
Y126069D01*
X709800Y123530D01*
X704721D01*
X702182Y126069D01*
Y128608D01*
X704721Y131147D01*
X702182Y133687D01*
Y136226D01*
X704721Y131147D02*
X709800D01*
X717417Y138765D02*
Y123530D01*
X725035D01*
X727574Y126069D01*
Y136226D01*
X725035Y138765D01*
X717417D01*
X423460Y136226D02*
X425999Y138765D01*
X431077D01*
X433617Y136226D01*
Y133687D01*
X431077Y131147D01*
X428538D01*
X431077D01*
X433617Y128608D01*
Y126069D01*
X431077Y123530D01*
X425999D01*
X423460Y126069D01*
X438695Y136226D02*
X441234Y138765D01*
X446313D01*
X448852Y136226D01*
Y133687D01*
X446313Y131147D01*
X443773D01*
X446313D01*
X448852Y128608D01*
Y126069D01*
X446313Y123530D01*
X441234D01*
X438695Y126069D01*
X453930Y123530D02*
Y133687D01*
X459008Y138765D01*
X464087Y133687D01*
Y123530D01*
Y131147D01*
X453930D01*
X469165Y120991D02*
X479322D01*
X484400Y123530D02*
X489479D01*
X486940D01*
Y138765D01*
X484400Y136226D01*
X497096D02*
X499635Y138765D01*
X504714D01*
X507253Y136226D01*
Y133687D01*
X504714Y131147D01*
X507253Y128608D01*
Y126069D01*
X504714Y123530D01*
X499635D01*
X497096Y126069D01*
Y128608D01*
X499635Y131147D01*
X497096Y133687D01*
Y136226D01*
X499635Y131147D02*
X504714D01*
X512331Y123530D02*
Y133687D01*
X517410Y138765D01*
X522488Y133687D01*
Y123530D01*
Y131147D01*
X512331D01*
D12*
X-25342Y855550D02*
X125944D01*
X127032Y854462D01*
Y793248D02*
Y854462D01*
X28706Y200682D02*
X31246Y198142D01*
X9402Y197888D02*
X28706D01*
Y176552D02*
X31246Y179092D01*
X9402Y179600D02*
X28706D01*
X31246Y179092D02*
Y198142D01*
X28706Y176552D02*
Y200682D01*
X29408Y241820D02*
X39028Y241814D01*
X29088Y770170D02*
X39028Y770134D01*
X29006Y835992D02*
X31546Y833452D01*
X9702Y833198D02*
X29006D01*
X-15582Y159880D02*
X-10918Y159788D01*
Y164868D02*
X9402D01*
X-15002Y217510D02*
X-10918Y217446D01*
Y212620D02*
X9402D01*
X-15698Y795098D02*
X-10618D01*
Y800178D02*
X9702D01*
X-15698Y852756D02*
X-10618D01*
Y847930D02*
X9702D01*
X-10918Y200682D02*
X28706D01*
X-10918Y176552D02*
X28706D01*
X-25832Y157170D02*
X126242Y157248D01*
X-15202Y220220D02*
X126242Y220240D01*
X-10618Y811862D02*
X29006D01*
X-15698Y792558D02*
X126542D01*
X-10618Y835992D02*
X29006D01*
X126242Y157248D02*
Y220240D01*
X9402Y164868D02*
Y212620D01*
X29006Y811862D02*
X31546Y814402D01*
X29006Y811862D02*
Y835992D01*
X31546Y814402D02*
Y833452D01*
X9702Y814910D02*
X29006D01*
X9702Y800178D02*
Y847930D01*
X-10918Y159788D02*
Y217446D01*
X-10618Y795098D02*
Y852756D01*
X29088Y792450D02*
X29478Y220030D01*
X39028Y241814D02*
Y770134D01*
X-15328Y212350D02*
Y799598D01*
X-15482Y855550D02*
X-15392Y157170D01*
X-25642D02*
X-25542Y855550D01*
M02*
