M48
;Layer_Color=9474304
;FILE_FORMAT=4:4
METRIC,LZ
;TYPE=PLATED
T1F00S00C0.9000
T2F00S00C0.9652
T3F00S00C1.0000
T4F00S00C2.0000
T5F00S00C2.5000
;TYPE=NON_PLATED
T6F00S00C3.5000
%
T01
X00433674Y0017187
X00459074
X00484474
X00509874
X00535274
X00560674
X00586074
X00611474
X00636874
X00662274
X00687674
X00713074
Y0019727
X00687674
X00662274
X00636874
X00611474
X00586074
X00560674
X00535274
X00509874
X00484474
X00459074
X00433674
X0023032Y0016981
X0020492
X0020619Y0023966
Y0026506
Y0029046
Y0031586
Y0034126
Y0036666
Y0039206
Y0041746
Y0044286
Y0046826
Y0049366
Y0051906
Y0054446
Y0056986
Y0059526
Y0062066
Y0064606
Y0067146
Y0069686
Y0072226
Y0074766
Y0077306
X0020746Y0084418
X0023286
X00452216Y0086656
Y0089196
X00477616
X00503016
X00528416
X00553816
X00579216
X00604616
X00630016
X00655416
X00680816
X00706216
X00731616
Y0086656
X00706216
X00680816
X00655416
X00630016
X00604616
X00579216
X00553816
X00528416
X00503016
X00477616
X00757016
Y0089196
X00782416
Y0086656
T02
X0007919Y0035366
X00107638Y0033969
Y0047812
X0007919Y0049209
Y0063052
X00107638Y0061655
Y0075498
T03
X0007919Y00270602
Y00298288
Y00325974
X00107638Y00312004
Y00284318
Y00256632
Y00367376
Y00395062
Y00422748
Y00450434
X0007919Y00436718
Y00409032
Y00381346
Y00464404
Y00519776
Y00547462
X00107638Y00533492
Y00505806
Y00561178
Y00588864
X0007919Y00575148
Y00602834
Y00658206
Y00685892
Y00713578
Y00741264
X00107638Y00727294
Y00699608
Y00671922
Y00644236
T04
X00430715Y0004106
X0047289
X00515065
Y00095285
X0047289
X00430715
X00665665Y0009821
X0070784
Y00043985
X00665665
X00750015
Y0009821
T05
X00093414Y00188306
Y00823306
T06
X0004Y0004
X0084Y0047
X0004Y009
M30
