G04 #@! TF.GenerationSoftware,KiCad,Pcbnew,5.1.5+dfsg1-2build2*
G04 #@! TF.CreationDate,2021-11-26T12:56:36+03:00*
G04 #@! TF.ProjectId,VoltReg,566f6c74-5265-4672-9e6b-696361645f70,rev?*
G04 #@! TF.SameCoordinates,Original*
G04 #@! TF.FileFunction,Copper,L1,Top*
G04 #@! TF.FilePolarity,Positive*
%FSLAX46Y46*%
G04 Gerber Fmt 4.6, Leading zero omitted, Abs format (unit mm)*
G04 Created by KiCad (PCBNEW 5.1.5+dfsg1-2build2) date 2021-11-26 12:56:36*
%MOMM*%
%LPD*%
G04 APERTURE LIST*
%ADD10C,0.100000*%
%ADD11O,1.700000X1.700000*%
%ADD12R,1.700000X1.700000*%
%ADD13C,1.440000*%
%ADD14R,0.700000X0.510000*%
%ADD15R,4.600000X1.100000*%
%ADD16R,9.400000X10.800000*%
%ADD17C,0.800000*%
%ADD18C,0.600000*%
%ADD19C,0.600000*%
%ADD20C,0.250000*%
G04 APERTURE END LIST*
G04 #@! TA.AperFunction,SMDPad,CuDef*
D10*
G36*
X119394504Y-74653704D02*
G01*
X119418773Y-74657304D01*
X119442571Y-74663265D01*
X119465671Y-74671530D01*
X119487849Y-74682020D01*
X119508893Y-74694633D01*
X119528598Y-74709247D01*
X119546777Y-74725723D01*
X119563253Y-74743902D01*
X119577867Y-74763607D01*
X119590480Y-74784651D01*
X119600970Y-74806829D01*
X119609235Y-74829929D01*
X119615196Y-74853727D01*
X119618796Y-74877996D01*
X119620000Y-74902500D01*
X119620000Y-75827500D01*
X119618796Y-75852004D01*
X119615196Y-75876273D01*
X119609235Y-75900071D01*
X119600970Y-75923171D01*
X119590480Y-75945349D01*
X119577867Y-75966393D01*
X119563253Y-75986098D01*
X119546777Y-76004277D01*
X119528598Y-76020753D01*
X119508893Y-76035367D01*
X119487849Y-76047980D01*
X119465671Y-76058470D01*
X119442571Y-76066735D01*
X119418773Y-76072696D01*
X119394504Y-76076296D01*
X119370000Y-76077500D01*
X118120000Y-76077500D01*
X118095496Y-76076296D01*
X118071227Y-76072696D01*
X118047429Y-76066735D01*
X118024329Y-76058470D01*
X118002151Y-76047980D01*
X117981107Y-76035367D01*
X117961402Y-76020753D01*
X117943223Y-76004277D01*
X117926747Y-75986098D01*
X117912133Y-75966393D01*
X117899520Y-75945349D01*
X117889030Y-75923171D01*
X117880765Y-75900071D01*
X117874804Y-75876273D01*
X117871204Y-75852004D01*
X117870000Y-75827500D01*
X117870000Y-74902500D01*
X117871204Y-74877996D01*
X117874804Y-74853727D01*
X117880765Y-74829929D01*
X117889030Y-74806829D01*
X117899520Y-74784651D01*
X117912133Y-74763607D01*
X117926747Y-74743902D01*
X117943223Y-74725723D01*
X117961402Y-74709247D01*
X117981107Y-74694633D01*
X118002151Y-74682020D01*
X118024329Y-74671530D01*
X118047429Y-74663265D01*
X118071227Y-74657304D01*
X118095496Y-74653704D01*
X118120000Y-74652500D01*
X119370000Y-74652500D01*
X119394504Y-74653704D01*
G37*
G04 #@! TD.AperFunction*
G04 #@! TA.AperFunction,SMDPad,CuDef*
G36*
X119394504Y-71678704D02*
G01*
X119418773Y-71682304D01*
X119442571Y-71688265D01*
X119465671Y-71696530D01*
X119487849Y-71707020D01*
X119508893Y-71719633D01*
X119528598Y-71734247D01*
X119546777Y-71750723D01*
X119563253Y-71768902D01*
X119577867Y-71788607D01*
X119590480Y-71809651D01*
X119600970Y-71831829D01*
X119609235Y-71854929D01*
X119615196Y-71878727D01*
X119618796Y-71902996D01*
X119620000Y-71927500D01*
X119620000Y-72852500D01*
X119618796Y-72877004D01*
X119615196Y-72901273D01*
X119609235Y-72925071D01*
X119600970Y-72948171D01*
X119590480Y-72970349D01*
X119577867Y-72991393D01*
X119563253Y-73011098D01*
X119546777Y-73029277D01*
X119528598Y-73045753D01*
X119508893Y-73060367D01*
X119487849Y-73072980D01*
X119465671Y-73083470D01*
X119442571Y-73091735D01*
X119418773Y-73097696D01*
X119394504Y-73101296D01*
X119370000Y-73102500D01*
X118120000Y-73102500D01*
X118095496Y-73101296D01*
X118071227Y-73097696D01*
X118047429Y-73091735D01*
X118024329Y-73083470D01*
X118002151Y-73072980D01*
X117981107Y-73060367D01*
X117961402Y-73045753D01*
X117943223Y-73029277D01*
X117926747Y-73011098D01*
X117912133Y-72991393D01*
X117899520Y-72970349D01*
X117889030Y-72948171D01*
X117880765Y-72925071D01*
X117874804Y-72901273D01*
X117871204Y-72877004D01*
X117870000Y-72852500D01*
X117870000Y-71927500D01*
X117871204Y-71902996D01*
X117874804Y-71878727D01*
X117880765Y-71854929D01*
X117889030Y-71831829D01*
X117899520Y-71809651D01*
X117912133Y-71788607D01*
X117926747Y-71768902D01*
X117943223Y-71750723D01*
X117961402Y-71734247D01*
X117981107Y-71719633D01*
X118002151Y-71707020D01*
X118024329Y-71696530D01*
X118047429Y-71688265D01*
X118071227Y-71682304D01*
X118095496Y-71678704D01*
X118120000Y-71677500D01*
X119370000Y-71677500D01*
X119394504Y-71678704D01*
G37*
G04 #@! TD.AperFunction*
D11*
X128080000Y-77460000D03*
X128080000Y-80000000D03*
X125540000Y-77460000D03*
X125540000Y-80000000D03*
X123000000Y-77460000D03*
D12*
X123000000Y-80000000D03*
D11*
X128000000Y-70485000D03*
D12*
X128000000Y-73025000D03*
D11*
X86540000Y-80000000D03*
D12*
X84000000Y-80000000D03*
D11*
X86540000Y-75000000D03*
D12*
X84000000Y-75000000D03*
D11*
X86540000Y-60000000D03*
D12*
X84000000Y-60000000D03*
G04 #@! TA.AperFunction,SMDPad,CuDef*
D10*
G36*
X94184505Y-52143704D02*
G01*
X94208773Y-52147304D01*
X94232572Y-52153265D01*
X94255671Y-52161530D01*
X94277850Y-52172020D01*
X94298893Y-52184632D01*
X94318599Y-52199247D01*
X94336777Y-52215723D01*
X94353253Y-52233901D01*
X94367868Y-52253607D01*
X94380480Y-52274650D01*
X94390970Y-52296829D01*
X94399235Y-52319928D01*
X94405196Y-52343727D01*
X94408796Y-52367995D01*
X94410000Y-52392499D01*
X94410000Y-53017501D01*
X94408796Y-53042005D01*
X94405196Y-53066273D01*
X94399235Y-53090072D01*
X94390970Y-53113171D01*
X94380480Y-53135350D01*
X94367868Y-53156393D01*
X94353253Y-53176099D01*
X94336777Y-53194277D01*
X94318599Y-53210753D01*
X94298893Y-53225368D01*
X94277850Y-53237980D01*
X94255671Y-53248470D01*
X94232572Y-53256735D01*
X94208773Y-53262696D01*
X94184505Y-53266296D01*
X94160001Y-53267500D01*
X91259999Y-53267500D01*
X91235495Y-53266296D01*
X91211227Y-53262696D01*
X91187428Y-53256735D01*
X91164329Y-53248470D01*
X91142150Y-53237980D01*
X91121107Y-53225368D01*
X91101401Y-53210753D01*
X91083223Y-53194277D01*
X91066747Y-53176099D01*
X91052132Y-53156393D01*
X91039520Y-53135350D01*
X91029030Y-53113171D01*
X91020765Y-53090072D01*
X91014804Y-53066273D01*
X91011204Y-53042005D01*
X91010000Y-53017501D01*
X91010000Y-52392499D01*
X91011204Y-52367995D01*
X91014804Y-52343727D01*
X91020765Y-52319928D01*
X91029030Y-52296829D01*
X91039520Y-52274650D01*
X91052132Y-52253607D01*
X91066747Y-52233901D01*
X91083223Y-52215723D01*
X91101401Y-52199247D01*
X91121107Y-52184632D01*
X91142150Y-52172020D01*
X91164329Y-52161530D01*
X91187428Y-52153265D01*
X91211227Y-52147304D01*
X91235495Y-52143704D01*
X91259999Y-52142500D01*
X94160001Y-52142500D01*
X94184505Y-52143704D01*
G37*
G04 #@! TD.AperFunction*
G04 #@! TA.AperFunction,SMDPad,CuDef*
G36*
X94184505Y-56418704D02*
G01*
X94208773Y-56422304D01*
X94232572Y-56428265D01*
X94255671Y-56436530D01*
X94277850Y-56447020D01*
X94298893Y-56459632D01*
X94318599Y-56474247D01*
X94336777Y-56490723D01*
X94353253Y-56508901D01*
X94367868Y-56528607D01*
X94380480Y-56549650D01*
X94390970Y-56571829D01*
X94399235Y-56594928D01*
X94405196Y-56618727D01*
X94408796Y-56642995D01*
X94410000Y-56667499D01*
X94410000Y-57292501D01*
X94408796Y-57317005D01*
X94405196Y-57341273D01*
X94399235Y-57365072D01*
X94390970Y-57388171D01*
X94380480Y-57410350D01*
X94367868Y-57431393D01*
X94353253Y-57451099D01*
X94336777Y-57469277D01*
X94318599Y-57485753D01*
X94298893Y-57500368D01*
X94277850Y-57512980D01*
X94255671Y-57523470D01*
X94232572Y-57531735D01*
X94208773Y-57537696D01*
X94184505Y-57541296D01*
X94160001Y-57542500D01*
X91259999Y-57542500D01*
X91235495Y-57541296D01*
X91211227Y-57537696D01*
X91187428Y-57531735D01*
X91164329Y-57523470D01*
X91142150Y-57512980D01*
X91121107Y-57500368D01*
X91101401Y-57485753D01*
X91083223Y-57469277D01*
X91066747Y-57451099D01*
X91052132Y-57431393D01*
X91039520Y-57410350D01*
X91029030Y-57388171D01*
X91020765Y-57365072D01*
X91014804Y-57341273D01*
X91011204Y-57317005D01*
X91010000Y-57292501D01*
X91010000Y-56667499D01*
X91011204Y-56642995D01*
X91014804Y-56618727D01*
X91020765Y-56594928D01*
X91029030Y-56571829D01*
X91039520Y-56549650D01*
X91052132Y-56528607D01*
X91066747Y-56508901D01*
X91083223Y-56490723D01*
X91101401Y-56474247D01*
X91121107Y-56459632D01*
X91142150Y-56447020D01*
X91164329Y-56436530D01*
X91187428Y-56428265D01*
X91211227Y-56422304D01*
X91235495Y-56418704D01*
X91259999Y-56417500D01*
X94160001Y-56417500D01*
X94184505Y-56418704D01*
G37*
G04 #@! TD.AperFunction*
D11*
X128080000Y-53460000D03*
X128080000Y-56000000D03*
X125540000Y-53460000D03*
X125540000Y-56000000D03*
X123000000Y-53460000D03*
D12*
X123000000Y-56000000D03*
D13*
X83248000Y-53155000D03*
X85788000Y-55695000D03*
X88328000Y-53155000D03*
X107315000Y-70485000D03*
X109855000Y-73025000D03*
X112395000Y-70485000D03*
G04 #@! TA.AperFunction,SMDPad,CuDef*
D10*
G36*
X104914703Y-70185722D02*
G01*
X104929264Y-70187882D01*
X104943543Y-70191459D01*
X104957403Y-70196418D01*
X104970710Y-70202712D01*
X104983336Y-70210280D01*
X104995159Y-70219048D01*
X105006066Y-70228934D01*
X105015952Y-70239841D01*
X105024720Y-70251664D01*
X105032288Y-70264290D01*
X105038582Y-70277597D01*
X105043541Y-70291457D01*
X105047118Y-70305736D01*
X105049278Y-70320297D01*
X105050000Y-70335000D01*
X105050000Y-70635000D01*
X105049278Y-70649703D01*
X105047118Y-70664264D01*
X105043541Y-70678543D01*
X105038582Y-70692403D01*
X105032288Y-70705710D01*
X105024720Y-70718336D01*
X105015952Y-70730159D01*
X105006066Y-70741066D01*
X104995159Y-70750952D01*
X104983336Y-70759720D01*
X104970710Y-70767288D01*
X104957403Y-70773582D01*
X104943543Y-70778541D01*
X104929264Y-70782118D01*
X104914703Y-70784278D01*
X104900000Y-70785000D01*
X103600000Y-70785000D01*
X103585297Y-70784278D01*
X103570736Y-70782118D01*
X103556457Y-70778541D01*
X103542597Y-70773582D01*
X103529290Y-70767288D01*
X103516664Y-70759720D01*
X103504841Y-70750952D01*
X103493934Y-70741066D01*
X103484048Y-70730159D01*
X103475280Y-70718336D01*
X103467712Y-70705710D01*
X103461418Y-70692403D01*
X103456459Y-70678543D01*
X103452882Y-70664264D01*
X103450722Y-70649703D01*
X103450000Y-70635000D01*
X103450000Y-70335000D01*
X103450722Y-70320297D01*
X103452882Y-70305736D01*
X103456459Y-70291457D01*
X103461418Y-70277597D01*
X103467712Y-70264290D01*
X103475280Y-70251664D01*
X103484048Y-70239841D01*
X103493934Y-70228934D01*
X103504841Y-70219048D01*
X103516664Y-70210280D01*
X103529290Y-70202712D01*
X103542597Y-70196418D01*
X103556457Y-70191459D01*
X103570736Y-70187882D01*
X103585297Y-70185722D01*
X103600000Y-70185000D01*
X104900000Y-70185000D01*
X104914703Y-70185722D01*
G37*
G04 #@! TD.AperFunction*
G04 #@! TA.AperFunction,SMDPad,CuDef*
G36*
X104914703Y-71455722D02*
G01*
X104929264Y-71457882D01*
X104943543Y-71461459D01*
X104957403Y-71466418D01*
X104970710Y-71472712D01*
X104983336Y-71480280D01*
X104995159Y-71489048D01*
X105006066Y-71498934D01*
X105015952Y-71509841D01*
X105024720Y-71521664D01*
X105032288Y-71534290D01*
X105038582Y-71547597D01*
X105043541Y-71561457D01*
X105047118Y-71575736D01*
X105049278Y-71590297D01*
X105050000Y-71605000D01*
X105050000Y-71905000D01*
X105049278Y-71919703D01*
X105047118Y-71934264D01*
X105043541Y-71948543D01*
X105038582Y-71962403D01*
X105032288Y-71975710D01*
X105024720Y-71988336D01*
X105015952Y-72000159D01*
X105006066Y-72011066D01*
X104995159Y-72020952D01*
X104983336Y-72029720D01*
X104970710Y-72037288D01*
X104957403Y-72043582D01*
X104943543Y-72048541D01*
X104929264Y-72052118D01*
X104914703Y-72054278D01*
X104900000Y-72055000D01*
X103600000Y-72055000D01*
X103585297Y-72054278D01*
X103570736Y-72052118D01*
X103556457Y-72048541D01*
X103542597Y-72043582D01*
X103529290Y-72037288D01*
X103516664Y-72029720D01*
X103504841Y-72020952D01*
X103493934Y-72011066D01*
X103484048Y-72000159D01*
X103475280Y-71988336D01*
X103467712Y-71975710D01*
X103461418Y-71962403D01*
X103456459Y-71948543D01*
X103452882Y-71934264D01*
X103450722Y-71919703D01*
X103450000Y-71905000D01*
X103450000Y-71605000D01*
X103450722Y-71590297D01*
X103452882Y-71575736D01*
X103456459Y-71561457D01*
X103461418Y-71547597D01*
X103467712Y-71534290D01*
X103475280Y-71521664D01*
X103484048Y-71509841D01*
X103493934Y-71498934D01*
X103504841Y-71489048D01*
X103516664Y-71480280D01*
X103529290Y-71472712D01*
X103542597Y-71466418D01*
X103556457Y-71461459D01*
X103570736Y-71457882D01*
X103585297Y-71455722D01*
X103600000Y-71455000D01*
X104900000Y-71455000D01*
X104914703Y-71455722D01*
G37*
G04 #@! TD.AperFunction*
G04 #@! TA.AperFunction,SMDPad,CuDef*
G36*
X104914703Y-72725722D02*
G01*
X104929264Y-72727882D01*
X104943543Y-72731459D01*
X104957403Y-72736418D01*
X104970710Y-72742712D01*
X104983336Y-72750280D01*
X104995159Y-72759048D01*
X105006066Y-72768934D01*
X105015952Y-72779841D01*
X105024720Y-72791664D01*
X105032288Y-72804290D01*
X105038582Y-72817597D01*
X105043541Y-72831457D01*
X105047118Y-72845736D01*
X105049278Y-72860297D01*
X105050000Y-72875000D01*
X105050000Y-73175000D01*
X105049278Y-73189703D01*
X105047118Y-73204264D01*
X105043541Y-73218543D01*
X105038582Y-73232403D01*
X105032288Y-73245710D01*
X105024720Y-73258336D01*
X105015952Y-73270159D01*
X105006066Y-73281066D01*
X104995159Y-73290952D01*
X104983336Y-73299720D01*
X104970710Y-73307288D01*
X104957403Y-73313582D01*
X104943543Y-73318541D01*
X104929264Y-73322118D01*
X104914703Y-73324278D01*
X104900000Y-73325000D01*
X103600000Y-73325000D01*
X103585297Y-73324278D01*
X103570736Y-73322118D01*
X103556457Y-73318541D01*
X103542597Y-73313582D01*
X103529290Y-73307288D01*
X103516664Y-73299720D01*
X103504841Y-73290952D01*
X103493934Y-73281066D01*
X103484048Y-73270159D01*
X103475280Y-73258336D01*
X103467712Y-73245710D01*
X103461418Y-73232403D01*
X103456459Y-73218543D01*
X103452882Y-73204264D01*
X103450722Y-73189703D01*
X103450000Y-73175000D01*
X103450000Y-72875000D01*
X103450722Y-72860297D01*
X103452882Y-72845736D01*
X103456459Y-72831457D01*
X103461418Y-72817597D01*
X103467712Y-72804290D01*
X103475280Y-72791664D01*
X103484048Y-72779841D01*
X103493934Y-72768934D01*
X103504841Y-72759048D01*
X103516664Y-72750280D01*
X103529290Y-72742712D01*
X103542597Y-72736418D01*
X103556457Y-72731459D01*
X103570736Y-72727882D01*
X103585297Y-72725722D01*
X103600000Y-72725000D01*
X104900000Y-72725000D01*
X104914703Y-72725722D01*
G37*
G04 #@! TD.AperFunction*
G04 #@! TA.AperFunction,SMDPad,CuDef*
G36*
X104914703Y-73995722D02*
G01*
X104929264Y-73997882D01*
X104943543Y-74001459D01*
X104957403Y-74006418D01*
X104970710Y-74012712D01*
X104983336Y-74020280D01*
X104995159Y-74029048D01*
X105006066Y-74038934D01*
X105015952Y-74049841D01*
X105024720Y-74061664D01*
X105032288Y-74074290D01*
X105038582Y-74087597D01*
X105043541Y-74101457D01*
X105047118Y-74115736D01*
X105049278Y-74130297D01*
X105050000Y-74145000D01*
X105050000Y-74445000D01*
X105049278Y-74459703D01*
X105047118Y-74474264D01*
X105043541Y-74488543D01*
X105038582Y-74502403D01*
X105032288Y-74515710D01*
X105024720Y-74528336D01*
X105015952Y-74540159D01*
X105006066Y-74551066D01*
X104995159Y-74560952D01*
X104983336Y-74569720D01*
X104970710Y-74577288D01*
X104957403Y-74583582D01*
X104943543Y-74588541D01*
X104929264Y-74592118D01*
X104914703Y-74594278D01*
X104900000Y-74595000D01*
X103600000Y-74595000D01*
X103585297Y-74594278D01*
X103570736Y-74592118D01*
X103556457Y-74588541D01*
X103542597Y-74583582D01*
X103529290Y-74577288D01*
X103516664Y-74569720D01*
X103504841Y-74560952D01*
X103493934Y-74551066D01*
X103484048Y-74540159D01*
X103475280Y-74528336D01*
X103467712Y-74515710D01*
X103461418Y-74502403D01*
X103456459Y-74488543D01*
X103452882Y-74474264D01*
X103450722Y-74459703D01*
X103450000Y-74445000D01*
X103450000Y-74145000D01*
X103450722Y-74130297D01*
X103452882Y-74115736D01*
X103456459Y-74101457D01*
X103461418Y-74087597D01*
X103467712Y-74074290D01*
X103475280Y-74061664D01*
X103484048Y-74049841D01*
X103493934Y-74038934D01*
X103504841Y-74029048D01*
X103516664Y-74020280D01*
X103529290Y-74012712D01*
X103542597Y-74006418D01*
X103556457Y-74001459D01*
X103570736Y-73997882D01*
X103585297Y-73995722D01*
X103600000Y-73995000D01*
X104900000Y-73995000D01*
X104914703Y-73995722D01*
G37*
G04 #@! TD.AperFunction*
G04 #@! TA.AperFunction,SMDPad,CuDef*
G36*
X99614703Y-73995722D02*
G01*
X99629264Y-73997882D01*
X99643543Y-74001459D01*
X99657403Y-74006418D01*
X99670710Y-74012712D01*
X99683336Y-74020280D01*
X99695159Y-74029048D01*
X99706066Y-74038934D01*
X99715952Y-74049841D01*
X99724720Y-74061664D01*
X99732288Y-74074290D01*
X99738582Y-74087597D01*
X99743541Y-74101457D01*
X99747118Y-74115736D01*
X99749278Y-74130297D01*
X99750000Y-74145000D01*
X99750000Y-74445000D01*
X99749278Y-74459703D01*
X99747118Y-74474264D01*
X99743541Y-74488543D01*
X99738582Y-74502403D01*
X99732288Y-74515710D01*
X99724720Y-74528336D01*
X99715952Y-74540159D01*
X99706066Y-74551066D01*
X99695159Y-74560952D01*
X99683336Y-74569720D01*
X99670710Y-74577288D01*
X99657403Y-74583582D01*
X99643543Y-74588541D01*
X99629264Y-74592118D01*
X99614703Y-74594278D01*
X99600000Y-74595000D01*
X98300000Y-74595000D01*
X98285297Y-74594278D01*
X98270736Y-74592118D01*
X98256457Y-74588541D01*
X98242597Y-74583582D01*
X98229290Y-74577288D01*
X98216664Y-74569720D01*
X98204841Y-74560952D01*
X98193934Y-74551066D01*
X98184048Y-74540159D01*
X98175280Y-74528336D01*
X98167712Y-74515710D01*
X98161418Y-74502403D01*
X98156459Y-74488543D01*
X98152882Y-74474264D01*
X98150722Y-74459703D01*
X98150000Y-74445000D01*
X98150000Y-74145000D01*
X98150722Y-74130297D01*
X98152882Y-74115736D01*
X98156459Y-74101457D01*
X98161418Y-74087597D01*
X98167712Y-74074290D01*
X98175280Y-74061664D01*
X98184048Y-74049841D01*
X98193934Y-74038934D01*
X98204841Y-74029048D01*
X98216664Y-74020280D01*
X98229290Y-74012712D01*
X98242597Y-74006418D01*
X98256457Y-74001459D01*
X98270736Y-73997882D01*
X98285297Y-73995722D01*
X98300000Y-73995000D01*
X99600000Y-73995000D01*
X99614703Y-73995722D01*
G37*
G04 #@! TD.AperFunction*
G04 #@! TA.AperFunction,SMDPad,CuDef*
G36*
X99614703Y-72725722D02*
G01*
X99629264Y-72727882D01*
X99643543Y-72731459D01*
X99657403Y-72736418D01*
X99670710Y-72742712D01*
X99683336Y-72750280D01*
X99695159Y-72759048D01*
X99706066Y-72768934D01*
X99715952Y-72779841D01*
X99724720Y-72791664D01*
X99732288Y-72804290D01*
X99738582Y-72817597D01*
X99743541Y-72831457D01*
X99747118Y-72845736D01*
X99749278Y-72860297D01*
X99750000Y-72875000D01*
X99750000Y-73175000D01*
X99749278Y-73189703D01*
X99747118Y-73204264D01*
X99743541Y-73218543D01*
X99738582Y-73232403D01*
X99732288Y-73245710D01*
X99724720Y-73258336D01*
X99715952Y-73270159D01*
X99706066Y-73281066D01*
X99695159Y-73290952D01*
X99683336Y-73299720D01*
X99670710Y-73307288D01*
X99657403Y-73313582D01*
X99643543Y-73318541D01*
X99629264Y-73322118D01*
X99614703Y-73324278D01*
X99600000Y-73325000D01*
X98300000Y-73325000D01*
X98285297Y-73324278D01*
X98270736Y-73322118D01*
X98256457Y-73318541D01*
X98242597Y-73313582D01*
X98229290Y-73307288D01*
X98216664Y-73299720D01*
X98204841Y-73290952D01*
X98193934Y-73281066D01*
X98184048Y-73270159D01*
X98175280Y-73258336D01*
X98167712Y-73245710D01*
X98161418Y-73232403D01*
X98156459Y-73218543D01*
X98152882Y-73204264D01*
X98150722Y-73189703D01*
X98150000Y-73175000D01*
X98150000Y-72875000D01*
X98150722Y-72860297D01*
X98152882Y-72845736D01*
X98156459Y-72831457D01*
X98161418Y-72817597D01*
X98167712Y-72804290D01*
X98175280Y-72791664D01*
X98184048Y-72779841D01*
X98193934Y-72768934D01*
X98204841Y-72759048D01*
X98216664Y-72750280D01*
X98229290Y-72742712D01*
X98242597Y-72736418D01*
X98256457Y-72731459D01*
X98270736Y-72727882D01*
X98285297Y-72725722D01*
X98300000Y-72725000D01*
X99600000Y-72725000D01*
X99614703Y-72725722D01*
G37*
G04 #@! TD.AperFunction*
G04 #@! TA.AperFunction,SMDPad,CuDef*
G36*
X99614703Y-71455722D02*
G01*
X99629264Y-71457882D01*
X99643543Y-71461459D01*
X99657403Y-71466418D01*
X99670710Y-71472712D01*
X99683336Y-71480280D01*
X99695159Y-71489048D01*
X99706066Y-71498934D01*
X99715952Y-71509841D01*
X99724720Y-71521664D01*
X99732288Y-71534290D01*
X99738582Y-71547597D01*
X99743541Y-71561457D01*
X99747118Y-71575736D01*
X99749278Y-71590297D01*
X99750000Y-71605000D01*
X99750000Y-71905000D01*
X99749278Y-71919703D01*
X99747118Y-71934264D01*
X99743541Y-71948543D01*
X99738582Y-71962403D01*
X99732288Y-71975710D01*
X99724720Y-71988336D01*
X99715952Y-72000159D01*
X99706066Y-72011066D01*
X99695159Y-72020952D01*
X99683336Y-72029720D01*
X99670710Y-72037288D01*
X99657403Y-72043582D01*
X99643543Y-72048541D01*
X99629264Y-72052118D01*
X99614703Y-72054278D01*
X99600000Y-72055000D01*
X98300000Y-72055000D01*
X98285297Y-72054278D01*
X98270736Y-72052118D01*
X98256457Y-72048541D01*
X98242597Y-72043582D01*
X98229290Y-72037288D01*
X98216664Y-72029720D01*
X98204841Y-72020952D01*
X98193934Y-72011066D01*
X98184048Y-72000159D01*
X98175280Y-71988336D01*
X98167712Y-71975710D01*
X98161418Y-71962403D01*
X98156459Y-71948543D01*
X98152882Y-71934264D01*
X98150722Y-71919703D01*
X98150000Y-71905000D01*
X98150000Y-71605000D01*
X98150722Y-71590297D01*
X98152882Y-71575736D01*
X98156459Y-71561457D01*
X98161418Y-71547597D01*
X98167712Y-71534290D01*
X98175280Y-71521664D01*
X98184048Y-71509841D01*
X98193934Y-71498934D01*
X98204841Y-71489048D01*
X98216664Y-71480280D01*
X98229290Y-71472712D01*
X98242597Y-71466418D01*
X98256457Y-71461459D01*
X98270736Y-71457882D01*
X98285297Y-71455722D01*
X98300000Y-71455000D01*
X99600000Y-71455000D01*
X99614703Y-71455722D01*
G37*
G04 #@! TD.AperFunction*
G04 #@! TA.AperFunction,SMDPad,CuDef*
G36*
X99614703Y-70185722D02*
G01*
X99629264Y-70187882D01*
X99643543Y-70191459D01*
X99657403Y-70196418D01*
X99670710Y-70202712D01*
X99683336Y-70210280D01*
X99695159Y-70219048D01*
X99706066Y-70228934D01*
X99715952Y-70239841D01*
X99724720Y-70251664D01*
X99732288Y-70264290D01*
X99738582Y-70277597D01*
X99743541Y-70291457D01*
X99747118Y-70305736D01*
X99749278Y-70320297D01*
X99750000Y-70335000D01*
X99750000Y-70635000D01*
X99749278Y-70649703D01*
X99747118Y-70664264D01*
X99743541Y-70678543D01*
X99738582Y-70692403D01*
X99732288Y-70705710D01*
X99724720Y-70718336D01*
X99715952Y-70730159D01*
X99706066Y-70741066D01*
X99695159Y-70750952D01*
X99683336Y-70759720D01*
X99670710Y-70767288D01*
X99657403Y-70773582D01*
X99643543Y-70778541D01*
X99629264Y-70782118D01*
X99614703Y-70784278D01*
X99600000Y-70785000D01*
X98300000Y-70785000D01*
X98285297Y-70784278D01*
X98270736Y-70782118D01*
X98256457Y-70778541D01*
X98242597Y-70773582D01*
X98229290Y-70767288D01*
X98216664Y-70759720D01*
X98204841Y-70750952D01*
X98193934Y-70741066D01*
X98184048Y-70730159D01*
X98175280Y-70718336D01*
X98167712Y-70705710D01*
X98161418Y-70692403D01*
X98156459Y-70678543D01*
X98152882Y-70664264D01*
X98150722Y-70649703D01*
X98150000Y-70635000D01*
X98150000Y-70335000D01*
X98150722Y-70320297D01*
X98152882Y-70305736D01*
X98156459Y-70291457D01*
X98161418Y-70277597D01*
X98167712Y-70264290D01*
X98175280Y-70251664D01*
X98184048Y-70239841D01*
X98193934Y-70228934D01*
X98204841Y-70219048D01*
X98216664Y-70210280D01*
X98229290Y-70202712D01*
X98242597Y-70196418D01*
X98256457Y-70191459D01*
X98270736Y-70187882D01*
X98285297Y-70185722D01*
X98300000Y-70185000D01*
X99600000Y-70185000D01*
X99614703Y-70185722D01*
G37*
G04 #@! TD.AperFunction*
G04 #@! TA.AperFunction,SMDPad,CuDef*
G36*
X102578927Y-70841207D02*
G01*
X102603257Y-70844816D01*
X102627117Y-70850792D01*
X102650276Y-70859079D01*
X102672511Y-70869595D01*
X102693608Y-70882240D01*
X102713364Y-70896893D01*
X102731589Y-70913411D01*
X102748107Y-70931636D01*
X102762760Y-70951392D01*
X102775405Y-70972489D01*
X102785921Y-70994724D01*
X102794208Y-71017883D01*
X102800184Y-71041743D01*
X102803793Y-71066073D01*
X102805000Y-71090640D01*
X102805000Y-73689360D01*
X102803793Y-73713927D01*
X102800184Y-73738257D01*
X102794208Y-73762117D01*
X102785921Y-73785276D01*
X102775405Y-73807511D01*
X102762760Y-73828608D01*
X102748107Y-73848364D01*
X102731589Y-73866589D01*
X102713364Y-73883107D01*
X102693608Y-73897760D01*
X102672511Y-73910405D01*
X102650276Y-73920921D01*
X102627117Y-73929208D01*
X102603257Y-73935184D01*
X102578927Y-73938793D01*
X102554360Y-73940000D01*
X100645640Y-73940000D01*
X100621073Y-73938793D01*
X100596743Y-73935184D01*
X100572883Y-73929208D01*
X100549724Y-73920921D01*
X100527489Y-73910405D01*
X100506392Y-73897760D01*
X100486636Y-73883107D01*
X100468411Y-73866589D01*
X100451893Y-73848364D01*
X100437240Y-73828608D01*
X100424595Y-73807511D01*
X100414079Y-73785276D01*
X100405792Y-73762117D01*
X100399816Y-73738257D01*
X100396207Y-73713927D01*
X100395000Y-73689360D01*
X100395000Y-71090640D01*
X100396207Y-71066073D01*
X100399816Y-71041743D01*
X100405792Y-71017883D01*
X100414079Y-70994724D01*
X100424595Y-70972489D01*
X100437240Y-70951392D01*
X100451893Y-70931636D01*
X100468411Y-70913411D01*
X100486636Y-70896893D01*
X100506392Y-70882240D01*
X100527489Y-70869595D01*
X100549724Y-70859079D01*
X100572883Y-70850792D01*
X100596743Y-70844816D01*
X100621073Y-70841207D01*
X100645640Y-70840000D01*
X102554360Y-70840000D01*
X102578927Y-70841207D01*
G37*
G04 #@! TD.AperFunction*
D14*
X126890000Y-65090000D03*
X126890000Y-66040000D03*
X126890000Y-66990000D03*
X124570000Y-66990000D03*
X124570000Y-66040000D03*
X124570000Y-65090000D03*
D15*
X98365000Y-56915000D03*
X98365000Y-61995000D03*
D16*
X107515000Y-59455000D03*
G04 #@! TA.AperFunction,SMDPad,CuDef*
D10*
G36*
X119667004Y-68341204D02*
G01*
X119691273Y-68344804D01*
X119715071Y-68350765D01*
X119738171Y-68359030D01*
X119760349Y-68369520D01*
X119781393Y-68382133D01*
X119801098Y-68396747D01*
X119819277Y-68413223D01*
X119835753Y-68431402D01*
X119850367Y-68451107D01*
X119862980Y-68472151D01*
X119873470Y-68494329D01*
X119881735Y-68517429D01*
X119887696Y-68541227D01*
X119891296Y-68565496D01*
X119892500Y-68590000D01*
X119892500Y-69840000D01*
X119891296Y-69864504D01*
X119887696Y-69888773D01*
X119881735Y-69912571D01*
X119873470Y-69935671D01*
X119862980Y-69957849D01*
X119850367Y-69978893D01*
X119835753Y-69998598D01*
X119819277Y-70016777D01*
X119801098Y-70033253D01*
X119781393Y-70047867D01*
X119760349Y-70060480D01*
X119738171Y-70070970D01*
X119715071Y-70079235D01*
X119691273Y-70085196D01*
X119667004Y-70088796D01*
X119642500Y-70090000D01*
X118717500Y-70090000D01*
X118692996Y-70088796D01*
X118668727Y-70085196D01*
X118644929Y-70079235D01*
X118621829Y-70070970D01*
X118599651Y-70060480D01*
X118578607Y-70047867D01*
X118558902Y-70033253D01*
X118540723Y-70016777D01*
X118524247Y-69998598D01*
X118509633Y-69978893D01*
X118497020Y-69957849D01*
X118486530Y-69935671D01*
X118478265Y-69912571D01*
X118472304Y-69888773D01*
X118468704Y-69864504D01*
X118467500Y-69840000D01*
X118467500Y-68590000D01*
X118468704Y-68565496D01*
X118472304Y-68541227D01*
X118478265Y-68517429D01*
X118486530Y-68494329D01*
X118497020Y-68472151D01*
X118509633Y-68451107D01*
X118524247Y-68431402D01*
X118540723Y-68413223D01*
X118558902Y-68396747D01*
X118578607Y-68382133D01*
X118599651Y-68369520D01*
X118621829Y-68359030D01*
X118644929Y-68350765D01*
X118668727Y-68344804D01*
X118692996Y-68341204D01*
X118717500Y-68340000D01*
X119642500Y-68340000D01*
X119667004Y-68341204D01*
G37*
G04 #@! TD.AperFunction*
G04 #@! TA.AperFunction,SMDPad,CuDef*
G36*
X116692004Y-68341204D02*
G01*
X116716273Y-68344804D01*
X116740071Y-68350765D01*
X116763171Y-68359030D01*
X116785349Y-68369520D01*
X116806393Y-68382133D01*
X116826098Y-68396747D01*
X116844277Y-68413223D01*
X116860753Y-68431402D01*
X116875367Y-68451107D01*
X116887980Y-68472151D01*
X116898470Y-68494329D01*
X116906735Y-68517429D01*
X116912696Y-68541227D01*
X116916296Y-68565496D01*
X116917500Y-68590000D01*
X116917500Y-69840000D01*
X116916296Y-69864504D01*
X116912696Y-69888773D01*
X116906735Y-69912571D01*
X116898470Y-69935671D01*
X116887980Y-69957849D01*
X116875367Y-69978893D01*
X116860753Y-69998598D01*
X116844277Y-70016777D01*
X116826098Y-70033253D01*
X116806393Y-70047867D01*
X116785349Y-70060480D01*
X116763171Y-70070970D01*
X116740071Y-70079235D01*
X116716273Y-70085196D01*
X116692004Y-70088796D01*
X116667500Y-70090000D01*
X115742500Y-70090000D01*
X115717996Y-70088796D01*
X115693727Y-70085196D01*
X115669929Y-70079235D01*
X115646829Y-70070970D01*
X115624651Y-70060480D01*
X115603607Y-70047867D01*
X115583902Y-70033253D01*
X115565723Y-70016777D01*
X115549247Y-69998598D01*
X115534633Y-69978893D01*
X115522020Y-69957849D01*
X115511530Y-69935671D01*
X115503265Y-69912571D01*
X115497304Y-69888773D01*
X115493704Y-69864504D01*
X115492500Y-69840000D01*
X115492500Y-68590000D01*
X115493704Y-68565496D01*
X115497304Y-68541227D01*
X115503265Y-68517429D01*
X115511530Y-68494329D01*
X115522020Y-68472151D01*
X115534633Y-68451107D01*
X115549247Y-68431402D01*
X115565723Y-68413223D01*
X115583902Y-68396747D01*
X115603607Y-68382133D01*
X115624651Y-68369520D01*
X115646829Y-68359030D01*
X115669929Y-68350765D01*
X115693727Y-68344804D01*
X115717996Y-68341204D01*
X115742500Y-68340000D01*
X116667500Y-68340000D01*
X116692004Y-68341204D01*
G37*
G04 #@! TD.AperFunction*
G04 #@! TA.AperFunction,SMDPad,CuDef*
G36*
X116692004Y-64531204D02*
G01*
X116716273Y-64534804D01*
X116740071Y-64540765D01*
X116763171Y-64549030D01*
X116785349Y-64559520D01*
X116806393Y-64572133D01*
X116826098Y-64586747D01*
X116844277Y-64603223D01*
X116860753Y-64621402D01*
X116875367Y-64641107D01*
X116887980Y-64662151D01*
X116898470Y-64684329D01*
X116906735Y-64707429D01*
X116912696Y-64731227D01*
X116916296Y-64755496D01*
X116917500Y-64780000D01*
X116917500Y-66030000D01*
X116916296Y-66054504D01*
X116912696Y-66078773D01*
X116906735Y-66102571D01*
X116898470Y-66125671D01*
X116887980Y-66147849D01*
X116875367Y-66168893D01*
X116860753Y-66188598D01*
X116844277Y-66206777D01*
X116826098Y-66223253D01*
X116806393Y-66237867D01*
X116785349Y-66250480D01*
X116763171Y-66260970D01*
X116740071Y-66269235D01*
X116716273Y-66275196D01*
X116692004Y-66278796D01*
X116667500Y-66280000D01*
X115742500Y-66280000D01*
X115717996Y-66278796D01*
X115693727Y-66275196D01*
X115669929Y-66269235D01*
X115646829Y-66260970D01*
X115624651Y-66250480D01*
X115603607Y-66237867D01*
X115583902Y-66223253D01*
X115565723Y-66206777D01*
X115549247Y-66188598D01*
X115534633Y-66168893D01*
X115522020Y-66147849D01*
X115511530Y-66125671D01*
X115503265Y-66102571D01*
X115497304Y-66078773D01*
X115493704Y-66054504D01*
X115492500Y-66030000D01*
X115492500Y-64780000D01*
X115493704Y-64755496D01*
X115497304Y-64731227D01*
X115503265Y-64707429D01*
X115511530Y-64684329D01*
X115522020Y-64662151D01*
X115534633Y-64641107D01*
X115549247Y-64621402D01*
X115565723Y-64603223D01*
X115583902Y-64586747D01*
X115603607Y-64572133D01*
X115624651Y-64559520D01*
X115646829Y-64549030D01*
X115669929Y-64540765D01*
X115693727Y-64534804D01*
X115717996Y-64531204D01*
X115742500Y-64530000D01*
X116667500Y-64530000D01*
X116692004Y-64531204D01*
G37*
G04 #@! TD.AperFunction*
G04 #@! TA.AperFunction,SMDPad,CuDef*
G36*
X119667004Y-64531204D02*
G01*
X119691273Y-64534804D01*
X119715071Y-64540765D01*
X119738171Y-64549030D01*
X119760349Y-64559520D01*
X119781393Y-64572133D01*
X119801098Y-64586747D01*
X119819277Y-64603223D01*
X119835753Y-64621402D01*
X119850367Y-64641107D01*
X119862980Y-64662151D01*
X119873470Y-64684329D01*
X119881735Y-64707429D01*
X119887696Y-64731227D01*
X119891296Y-64755496D01*
X119892500Y-64780000D01*
X119892500Y-66030000D01*
X119891296Y-66054504D01*
X119887696Y-66078773D01*
X119881735Y-66102571D01*
X119873470Y-66125671D01*
X119862980Y-66147849D01*
X119850367Y-66168893D01*
X119835753Y-66188598D01*
X119819277Y-66206777D01*
X119801098Y-66223253D01*
X119781393Y-66237867D01*
X119760349Y-66250480D01*
X119738171Y-66260970D01*
X119715071Y-66269235D01*
X119691273Y-66275196D01*
X119667004Y-66278796D01*
X119642500Y-66280000D01*
X118717500Y-66280000D01*
X118692996Y-66278796D01*
X118668727Y-66275196D01*
X118644929Y-66269235D01*
X118621829Y-66260970D01*
X118599651Y-66250480D01*
X118578607Y-66237867D01*
X118558902Y-66223253D01*
X118540723Y-66206777D01*
X118524247Y-66188598D01*
X118509633Y-66168893D01*
X118497020Y-66147849D01*
X118486530Y-66125671D01*
X118478265Y-66102571D01*
X118472304Y-66078773D01*
X118468704Y-66054504D01*
X118467500Y-66030000D01*
X118467500Y-64780000D01*
X118468704Y-64755496D01*
X118472304Y-64731227D01*
X118478265Y-64707429D01*
X118486530Y-64684329D01*
X118497020Y-64662151D01*
X118509633Y-64641107D01*
X118524247Y-64621402D01*
X118540723Y-64603223D01*
X118558902Y-64586747D01*
X118578607Y-64572133D01*
X118599651Y-64559520D01*
X118621829Y-64549030D01*
X118644929Y-64540765D01*
X118668727Y-64534804D01*
X118692996Y-64531204D01*
X118717500Y-64530000D01*
X119642500Y-64530000D01*
X119667004Y-64531204D01*
G37*
G04 #@! TD.AperFunction*
G04 #@! TA.AperFunction,SMDPad,CuDef*
G36*
X119232004Y-53101204D02*
G01*
X119256273Y-53104804D01*
X119280071Y-53110765D01*
X119303171Y-53119030D01*
X119325349Y-53129520D01*
X119346393Y-53142133D01*
X119366098Y-53156747D01*
X119384277Y-53173223D01*
X119400753Y-53191402D01*
X119415367Y-53211107D01*
X119427980Y-53232151D01*
X119438470Y-53254329D01*
X119446735Y-53277429D01*
X119452696Y-53301227D01*
X119456296Y-53325496D01*
X119457500Y-53350000D01*
X119457500Y-54600000D01*
X119456296Y-54624504D01*
X119452696Y-54648773D01*
X119446735Y-54672571D01*
X119438470Y-54695671D01*
X119427980Y-54717849D01*
X119415367Y-54738893D01*
X119400753Y-54758598D01*
X119384277Y-54776777D01*
X119366098Y-54793253D01*
X119346393Y-54807867D01*
X119325349Y-54820480D01*
X119303171Y-54830970D01*
X119280071Y-54839235D01*
X119256273Y-54845196D01*
X119232004Y-54848796D01*
X119207500Y-54850000D01*
X118282500Y-54850000D01*
X118257996Y-54848796D01*
X118233727Y-54845196D01*
X118209929Y-54839235D01*
X118186829Y-54830970D01*
X118164651Y-54820480D01*
X118143607Y-54807867D01*
X118123902Y-54793253D01*
X118105723Y-54776777D01*
X118089247Y-54758598D01*
X118074633Y-54738893D01*
X118062020Y-54717849D01*
X118051530Y-54695671D01*
X118043265Y-54672571D01*
X118037304Y-54648773D01*
X118033704Y-54624504D01*
X118032500Y-54600000D01*
X118032500Y-53350000D01*
X118033704Y-53325496D01*
X118037304Y-53301227D01*
X118043265Y-53277429D01*
X118051530Y-53254329D01*
X118062020Y-53232151D01*
X118074633Y-53211107D01*
X118089247Y-53191402D01*
X118105723Y-53173223D01*
X118123902Y-53156747D01*
X118143607Y-53142133D01*
X118164651Y-53129520D01*
X118186829Y-53119030D01*
X118209929Y-53110765D01*
X118233727Y-53104804D01*
X118257996Y-53101204D01*
X118282500Y-53100000D01*
X119207500Y-53100000D01*
X119232004Y-53101204D01*
G37*
G04 #@! TD.AperFunction*
G04 #@! TA.AperFunction,SMDPad,CuDef*
G36*
X116257004Y-53101204D02*
G01*
X116281273Y-53104804D01*
X116305071Y-53110765D01*
X116328171Y-53119030D01*
X116350349Y-53129520D01*
X116371393Y-53142133D01*
X116391098Y-53156747D01*
X116409277Y-53173223D01*
X116425753Y-53191402D01*
X116440367Y-53211107D01*
X116452980Y-53232151D01*
X116463470Y-53254329D01*
X116471735Y-53277429D01*
X116477696Y-53301227D01*
X116481296Y-53325496D01*
X116482500Y-53350000D01*
X116482500Y-54600000D01*
X116481296Y-54624504D01*
X116477696Y-54648773D01*
X116471735Y-54672571D01*
X116463470Y-54695671D01*
X116452980Y-54717849D01*
X116440367Y-54738893D01*
X116425753Y-54758598D01*
X116409277Y-54776777D01*
X116391098Y-54793253D01*
X116371393Y-54807867D01*
X116350349Y-54820480D01*
X116328171Y-54830970D01*
X116305071Y-54839235D01*
X116281273Y-54845196D01*
X116257004Y-54848796D01*
X116232500Y-54850000D01*
X115307500Y-54850000D01*
X115282996Y-54848796D01*
X115258727Y-54845196D01*
X115234929Y-54839235D01*
X115211829Y-54830970D01*
X115189651Y-54820480D01*
X115168607Y-54807867D01*
X115148902Y-54793253D01*
X115130723Y-54776777D01*
X115114247Y-54758598D01*
X115099633Y-54738893D01*
X115087020Y-54717849D01*
X115076530Y-54695671D01*
X115068265Y-54672571D01*
X115062304Y-54648773D01*
X115058704Y-54624504D01*
X115057500Y-54600000D01*
X115057500Y-53350000D01*
X115058704Y-53325496D01*
X115062304Y-53301227D01*
X115068265Y-53277429D01*
X115076530Y-53254329D01*
X115087020Y-53232151D01*
X115099633Y-53211107D01*
X115114247Y-53191402D01*
X115130723Y-53173223D01*
X115148902Y-53156747D01*
X115168607Y-53142133D01*
X115189651Y-53129520D01*
X115211829Y-53119030D01*
X115234929Y-53110765D01*
X115258727Y-53104804D01*
X115282996Y-53101204D01*
X115307500Y-53100000D01*
X116232500Y-53100000D01*
X116257004Y-53101204D01*
G37*
G04 #@! TD.AperFunction*
G04 #@! TA.AperFunction,SMDPad,CuDef*
G36*
X103609505Y-77676204D02*
G01*
X103633773Y-77679804D01*
X103657572Y-77685765D01*
X103680671Y-77694030D01*
X103702850Y-77704520D01*
X103723893Y-77717132D01*
X103743599Y-77731747D01*
X103761777Y-77748223D01*
X103778253Y-77766401D01*
X103792868Y-77786107D01*
X103805480Y-77807150D01*
X103815970Y-77829329D01*
X103824235Y-77852428D01*
X103830196Y-77876227D01*
X103833796Y-77900495D01*
X103835000Y-77924999D01*
X103835000Y-80825001D01*
X103833796Y-80849505D01*
X103830196Y-80873773D01*
X103824235Y-80897572D01*
X103815970Y-80920671D01*
X103805480Y-80942850D01*
X103792868Y-80963893D01*
X103778253Y-80983599D01*
X103761777Y-81001777D01*
X103743599Y-81018253D01*
X103723893Y-81032868D01*
X103702850Y-81045480D01*
X103680671Y-81055970D01*
X103657572Y-81064235D01*
X103633773Y-81070196D01*
X103609505Y-81073796D01*
X103585001Y-81075000D01*
X102959999Y-81075000D01*
X102935495Y-81073796D01*
X102911227Y-81070196D01*
X102887428Y-81064235D01*
X102864329Y-81055970D01*
X102842150Y-81045480D01*
X102821107Y-81032868D01*
X102801401Y-81018253D01*
X102783223Y-81001777D01*
X102766747Y-80983599D01*
X102752132Y-80963893D01*
X102739520Y-80942850D01*
X102729030Y-80920671D01*
X102720765Y-80897572D01*
X102714804Y-80873773D01*
X102711204Y-80849505D01*
X102710000Y-80825001D01*
X102710000Y-77924999D01*
X102711204Y-77900495D01*
X102714804Y-77876227D01*
X102720765Y-77852428D01*
X102729030Y-77829329D01*
X102739520Y-77807150D01*
X102752132Y-77786107D01*
X102766747Y-77766401D01*
X102783223Y-77748223D01*
X102801401Y-77731747D01*
X102821107Y-77717132D01*
X102842150Y-77704520D01*
X102864329Y-77694030D01*
X102887428Y-77685765D01*
X102911227Y-77679804D01*
X102935495Y-77676204D01*
X102959999Y-77675000D01*
X103585001Y-77675000D01*
X103609505Y-77676204D01*
G37*
G04 #@! TD.AperFunction*
G04 #@! TA.AperFunction,SMDPad,CuDef*
G36*
X107884505Y-77676204D02*
G01*
X107908773Y-77679804D01*
X107932572Y-77685765D01*
X107955671Y-77694030D01*
X107977850Y-77704520D01*
X107998893Y-77717132D01*
X108018599Y-77731747D01*
X108036777Y-77748223D01*
X108053253Y-77766401D01*
X108067868Y-77786107D01*
X108080480Y-77807150D01*
X108090970Y-77829329D01*
X108099235Y-77852428D01*
X108105196Y-77876227D01*
X108108796Y-77900495D01*
X108110000Y-77924999D01*
X108110000Y-80825001D01*
X108108796Y-80849505D01*
X108105196Y-80873773D01*
X108099235Y-80897572D01*
X108090970Y-80920671D01*
X108080480Y-80942850D01*
X108067868Y-80963893D01*
X108053253Y-80983599D01*
X108036777Y-81001777D01*
X108018599Y-81018253D01*
X107998893Y-81032868D01*
X107977850Y-81045480D01*
X107955671Y-81055970D01*
X107932572Y-81064235D01*
X107908773Y-81070196D01*
X107884505Y-81073796D01*
X107860001Y-81075000D01*
X107234999Y-81075000D01*
X107210495Y-81073796D01*
X107186227Y-81070196D01*
X107162428Y-81064235D01*
X107139329Y-81055970D01*
X107117150Y-81045480D01*
X107096107Y-81032868D01*
X107076401Y-81018253D01*
X107058223Y-81001777D01*
X107041747Y-80983599D01*
X107027132Y-80963893D01*
X107014520Y-80942850D01*
X107004030Y-80920671D01*
X106995765Y-80897572D01*
X106989804Y-80873773D01*
X106986204Y-80849505D01*
X106985000Y-80825001D01*
X106985000Y-77924999D01*
X106986204Y-77900495D01*
X106989804Y-77876227D01*
X106995765Y-77852428D01*
X107004030Y-77829329D01*
X107014520Y-77807150D01*
X107027132Y-77786107D01*
X107041747Y-77766401D01*
X107058223Y-77748223D01*
X107076401Y-77731747D01*
X107096107Y-77717132D01*
X107117150Y-77704520D01*
X107139329Y-77694030D01*
X107162428Y-77685765D01*
X107186227Y-77679804D01*
X107210495Y-77676204D01*
X107234999Y-77675000D01*
X107860001Y-77675000D01*
X107884505Y-77676204D01*
G37*
G04 #@! TD.AperFunction*
G04 #@! TA.AperFunction,SMDPad,CuDef*
G36*
X115774505Y-79681204D02*
G01*
X115798773Y-79684804D01*
X115822572Y-79690765D01*
X115845671Y-79699030D01*
X115867850Y-79709520D01*
X115888893Y-79722132D01*
X115908599Y-79736747D01*
X115926777Y-79753223D01*
X115943253Y-79771401D01*
X115957868Y-79791107D01*
X115970480Y-79812150D01*
X115980970Y-79834329D01*
X115989235Y-79857428D01*
X115995196Y-79881227D01*
X115998796Y-79905495D01*
X116000000Y-79929999D01*
X116000000Y-80555001D01*
X115998796Y-80579505D01*
X115995196Y-80603773D01*
X115989235Y-80627572D01*
X115980970Y-80650671D01*
X115970480Y-80672850D01*
X115957868Y-80693893D01*
X115943253Y-80713599D01*
X115926777Y-80731777D01*
X115908599Y-80748253D01*
X115888893Y-80762868D01*
X115867850Y-80775480D01*
X115845671Y-80785970D01*
X115822572Y-80794235D01*
X115798773Y-80800196D01*
X115774505Y-80803796D01*
X115750001Y-80805000D01*
X112849999Y-80805000D01*
X112825495Y-80803796D01*
X112801227Y-80800196D01*
X112777428Y-80794235D01*
X112754329Y-80785970D01*
X112732150Y-80775480D01*
X112711107Y-80762868D01*
X112691401Y-80748253D01*
X112673223Y-80731777D01*
X112656747Y-80713599D01*
X112642132Y-80693893D01*
X112629520Y-80672850D01*
X112619030Y-80650671D01*
X112610765Y-80627572D01*
X112604804Y-80603773D01*
X112601204Y-80579505D01*
X112600000Y-80555001D01*
X112600000Y-79929999D01*
X112601204Y-79905495D01*
X112604804Y-79881227D01*
X112610765Y-79857428D01*
X112619030Y-79834329D01*
X112629520Y-79812150D01*
X112642132Y-79791107D01*
X112656747Y-79771401D01*
X112673223Y-79753223D01*
X112691401Y-79736747D01*
X112711107Y-79722132D01*
X112732150Y-79709520D01*
X112754329Y-79699030D01*
X112777428Y-79690765D01*
X112801227Y-79684804D01*
X112825495Y-79681204D01*
X112849999Y-79680000D01*
X115750001Y-79680000D01*
X115774505Y-79681204D01*
G37*
G04 #@! TD.AperFunction*
G04 #@! TA.AperFunction,SMDPad,CuDef*
G36*
X115774505Y-75406204D02*
G01*
X115798773Y-75409804D01*
X115822572Y-75415765D01*
X115845671Y-75424030D01*
X115867850Y-75434520D01*
X115888893Y-75447132D01*
X115908599Y-75461747D01*
X115926777Y-75478223D01*
X115943253Y-75496401D01*
X115957868Y-75516107D01*
X115970480Y-75537150D01*
X115980970Y-75559329D01*
X115989235Y-75582428D01*
X115995196Y-75606227D01*
X115998796Y-75630495D01*
X116000000Y-75654999D01*
X116000000Y-76280001D01*
X115998796Y-76304505D01*
X115995196Y-76328773D01*
X115989235Y-76352572D01*
X115980970Y-76375671D01*
X115970480Y-76397850D01*
X115957868Y-76418893D01*
X115943253Y-76438599D01*
X115926777Y-76456777D01*
X115908599Y-76473253D01*
X115888893Y-76487868D01*
X115867850Y-76500480D01*
X115845671Y-76510970D01*
X115822572Y-76519235D01*
X115798773Y-76525196D01*
X115774505Y-76528796D01*
X115750001Y-76530000D01*
X112849999Y-76530000D01*
X112825495Y-76528796D01*
X112801227Y-76525196D01*
X112777428Y-76519235D01*
X112754329Y-76510970D01*
X112732150Y-76500480D01*
X112711107Y-76487868D01*
X112691401Y-76473253D01*
X112673223Y-76456777D01*
X112656747Y-76438599D01*
X112642132Y-76418893D01*
X112629520Y-76397850D01*
X112619030Y-76375671D01*
X112610765Y-76352572D01*
X112604804Y-76328773D01*
X112601204Y-76304505D01*
X112600000Y-76280001D01*
X112600000Y-75654999D01*
X112601204Y-75630495D01*
X112604804Y-75606227D01*
X112610765Y-75582428D01*
X112619030Y-75559329D01*
X112629520Y-75537150D01*
X112642132Y-75516107D01*
X112656747Y-75496401D01*
X112673223Y-75478223D01*
X112691401Y-75461747D01*
X112711107Y-75447132D01*
X112732150Y-75434520D01*
X112754329Y-75424030D01*
X112777428Y-75415765D01*
X112801227Y-75409804D01*
X112825495Y-75406204D01*
X112849999Y-75405000D01*
X115750001Y-75405000D01*
X115774505Y-75406204D01*
G37*
G04 #@! TD.AperFunction*
G04 #@! TA.AperFunction,SMDPad,CuDef*
G36*
X95354505Y-77676204D02*
G01*
X95378773Y-77679804D01*
X95402572Y-77685765D01*
X95425671Y-77694030D01*
X95447850Y-77704520D01*
X95468893Y-77717132D01*
X95488599Y-77731747D01*
X95506777Y-77748223D01*
X95523253Y-77766401D01*
X95537868Y-77786107D01*
X95550480Y-77807150D01*
X95560970Y-77829329D01*
X95569235Y-77852428D01*
X95575196Y-77876227D01*
X95578796Y-77900495D01*
X95580000Y-77924999D01*
X95580000Y-80825001D01*
X95578796Y-80849505D01*
X95575196Y-80873773D01*
X95569235Y-80897572D01*
X95560970Y-80920671D01*
X95550480Y-80942850D01*
X95537868Y-80963893D01*
X95523253Y-80983599D01*
X95506777Y-81001777D01*
X95488599Y-81018253D01*
X95468893Y-81032868D01*
X95447850Y-81045480D01*
X95425671Y-81055970D01*
X95402572Y-81064235D01*
X95378773Y-81070196D01*
X95354505Y-81073796D01*
X95330001Y-81075000D01*
X94704999Y-81075000D01*
X94680495Y-81073796D01*
X94656227Y-81070196D01*
X94632428Y-81064235D01*
X94609329Y-81055970D01*
X94587150Y-81045480D01*
X94566107Y-81032868D01*
X94546401Y-81018253D01*
X94528223Y-81001777D01*
X94511747Y-80983599D01*
X94497132Y-80963893D01*
X94484520Y-80942850D01*
X94474030Y-80920671D01*
X94465765Y-80897572D01*
X94459804Y-80873773D01*
X94456204Y-80849505D01*
X94455000Y-80825001D01*
X94455000Y-77924999D01*
X94456204Y-77900495D01*
X94459804Y-77876227D01*
X94465765Y-77852428D01*
X94474030Y-77829329D01*
X94484520Y-77807150D01*
X94497132Y-77786107D01*
X94511747Y-77766401D01*
X94528223Y-77748223D01*
X94546401Y-77731747D01*
X94566107Y-77717132D01*
X94587150Y-77704520D01*
X94609329Y-77694030D01*
X94632428Y-77685765D01*
X94656227Y-77679804D01*
X94680495Y-77676204D01*
X94704999Y-77675000D01*
X95330001Y-77675000D01*
X95354505Y-77676204D01*
G37*
G04 #@! TD.AperFunction*
G04 #@! TA.AperFunction,SMDPad,CuDef*
G36*
X99629505Y-77676204D02*
G01*
X99653773Y-77679804D01*
X99677572Y-77685765D01*
X99700671Y-77694030D01*
X99722850Y-77704520D01*
X99743893Y-77717132D01*
X99763599Y-77731747D01*
X99781777Y-77748223D01*
X99798253Y-77766401D01*
X99812868Y-77786107D01*
X99825480Y-77807150D01*
X99835970Y-77829329D01*
X99844235Y-77852428D01*
X99850196Y-77876227D01*
X99853796Y-77900495D01*
X99855000Y-77924999D01*
X99855000Y-80825001D01*
X99853796Y-80849505D01*
X99850196Y-80873773D01*
X99844235Y-80897572D01*
X99835970Y-80920671D01*
X99825480Y-80942850D01*
X99812868Y-80963893D01*
X99798253Y-80983599D01*
X99781777Y-81001777D01*
X99763599Y-81018253D01*
X99743893Y-81032868D01*
X99722850Y-81045480D01*
X99700671Y-81055970D01*
X99677572Y-81064235D01*
X99653773Y-81070196D01*
X99629505Y-81073796D01*
X99605001Y-81075000D01*
X98979999Y-81075000D01*
X98955495Y-81073796D01*
X98931227Y-81070196D01*
X98907428Y-81064235D01*
X98884329Y-81055970D01*
X98862150Y-81045480D01*
X98841107Y-81032868D01*
X98821401Y-81018253D01*
X98803223Y-81001777D01*
X98786747Y-80983599D01*
X98772132Y-80963893D01*
X98759520Y-80942850D01*
X98749030Y-80920671D01*
X98740765Y-80897572D01*
X98734804Y-80873773D01*
X98731204Y-80849505D01*
X98730000Y-80825001D01*
X98730000Y-77924999D01*
X98731204Y-77900495D01*
X98734804Y-77876227D01*
X98740765Y-77852428D01*
X98749030Y-77829329D01*
X98759520Y-77807150D01*
X98772132Y-77786107D01*
X98786747Y-77766401D01*
X98803223Y-77748223D01*
X98821401Y-77731747D01*
X98841107Y-77717132D01*
X98862150Y-77704520D01*
X98884329Y-77694030D01*
X98907428Y-77685765D01*
X98931227Y-77679804D01*
X98955495Y-77676204D01*
X98979999Y-77675000D01*
X99605001Y-77675000D01*
X99629505Y-77676204D01*
G37*
G04 #@! TD.AperFunction*
G04 #@! TA.AperFunction,SMDPad,CuDef*
G36*
X90507005Y-71326204D02*
G01*
X90531273Y-71329804D01*
X90555072Y-71335765D01*
X90578171Y-71344030D01*
X90600350Y-71354520D01*
X90621393Y-71367132D01*
X90641099Y-71381747D01*
X90659277Y-71398223D01*
X90675753Y-71416401D01*
X90690368Y-71436107D01*
X90702980Y-71457150D01*
X90713470Y-71479329D01*
X90721735Y-71502428D01*
X90727696Y-71526227D01*
X90731296Y-71550495D01*
X90732500Y-71574999D01*
X90732500Y-74475001D01*
X90731296Y-74499505D01*
X90727696Y-74523773D01*
X90721735Y-74547572D01*
X90713470Y-74570671D01*
X90702980Y-74592850D01*
X90690368Y-74613893D01*
X90675753Y-74633599D01*
X90659277Y-74651777D01*
X90641099Y-74668253D01*
X90621393Y-74682868D01*
X90600350Y-74695480D01*
X90578171Y-74705970D01*
X90555072Y-74714235D01*
X90531273Y-74720196D01*
X90507005Y-74723796D01*
X90482501Y-74725000D01*
X89857499Y-74725000D01*
X89832995Y-74723796D01*
X89808727Y-74720196D01*
X89784928Y-74714235D01*
X89761829Y-74705970D01*
X89739650Y-74695480D01*
X89718607Y-74682868D01*
X89698901Y-74668253D01*
X89680723Y-74651777D01*
X89664247Y-74633599D01*
X89649632Y-74613893D01*
X89637020Y-74592850D01*
X89626530Y-74570671D01*
X89618265Y-74547572D01*
X89612304Y-74523773D01*
X89608704Y-74499505D01*
X89607500Y-74475001D01*
X89607500Y-71574999D01*
X89608704Y-71550495D01*
X89612304Y-71526227D01*
X89618265Y-71502428D01*
X89626530Y-71479329D01*
X89637020Y-71457150D01*
X89649632Y-71436107D01*
X89664247Y-71416401D01*
X89680723Y-71398223D01*
X89698901Y-71381747D01*
X89718607Y-71367132D01*
X89739650Y-71354520D01*
X89761829Y-71344030D01*
X89784928Y-71335765D01*
X89808727Y-71329804D01*
X89832995Y-71326204D01*
X89857499Y-71325000D01*
X90482501Y-71325000D01*
X90507005Y-71326204D01*
G37*
G04 #@! TD.AperFunction*
G04 #@! TA.AperFunction,SMDPad,CuDef*
G36*
X94782005Y-71326204D02*
G01*
X94806273Y-71329804D01*
X94830072Y-71335765D01*
X94853171Y-71344030D01*
X94875350Y-71354520D01*
X94896393Y-71367132D01*
X94916099Y-71381747D01*
X94934277Y-71398223D01*
X94950753Y-71416401D01*
X94965368Y-71436107D01*
X94977980Y-71457150D01*
X94988470Y-71479329D01*
X94996735Y-71502428D01*
X95002696Y-71526227D01*
X95006296Y-71550495D01*
X95007500Y-71574999D01*
X95007500Y-74475001D01*
X95006296Y-74499505D01*
X95002696Y-74523773D01*
X94996735Y-74547572D01*
X94988470Y-74570671D01*
X94977980Y-74592850D01*
X94965368Y-74613893D01*
X94950753Y-74633599D01*
X94934277Y-74651777D01*
X94916099Y-74668253D01*
X94896393Y-74682868D01*
X94875350Y-74695480D01*
X94853171Y-74705970D01*
X94830072Y-74714235D01*
X94806273Y-74720196D01*
X94782005Y-74723796D01*
X94757501Y-74725000D01*
X94132499Y-74725000D01*
X94107995Y-74723796D01*
X94083727Y-74720196D01*
X94059928Y-74714235D01*
X94036829Y-74705970D01*
X94014650Y-74695480D01*
X93993607Y-74682868D01*
X93973901Y-74668253D01*
X93955723Y-74651777D01*
X93939247Y-74633599D01*
X93924632Y-74613893D01*
X93912020Y-74592850D01*
X93901530Y-74570671D01*
X93893265Y-74547572D01*
X93887304Y-74523773D01*
X93883704Y-74499505D01*
X93882500Y-74475001D01*
X93882500Y-71574999D01*
X93883704Y-71550495D01*
X93887304Y-71526227D01*
X93893265Y-71502428D01*
X93901530Y-71479329D01*
X93912020Y-71457150D01*
X93924632Y-71436107D01*
X93939247Y-71416401D01*
X93955723Y-71398223D01*
X93973901Y-71381747D01*
X93993607Y-71367132D01*
X94014650Y-71354520D01*
X94036829Y-71344030D01*
X94059928Y-71335765D01*
X94083727Y-71329804D01*
X94107995Y-71326204D01*
X94132499Y-71325000D01*
X94757501Y-71325000D01*
X94782005Y-71326204D01*
G37*
G04 #@! TD.AperFunction*
G04 #@! TA.AperFunction,SMDPad,CuDef*
G36*
X118949505Y-61033704D02*
G01*
X118973773Y-61037304D01*
X118997572Y-61043265D01*
X119020671Y-61051530D01*
X119042850Y-61062020D01*
X119063893Y-61074632D01*
X119083599Y-61089247D01*
X119101777Y-61105723D01*
X119118253Y-61123901D01*
X119132868Y-61143607D01*
X119145480Y-61164650D01*
X119155970Y-61186829D01*
X119164235Y-61209928D01*
X119170196Y-61233727D01*
X119173796Y-61257995D01*
X119175000Y-61282499D01*
X119175000Y-61907501D01*
X119173796Y-61932005D01*
X119170196Y-61956273D01*
X119164235Y-61980072D01*
X119155970Y-62003171D01*
X119145480Y-62025350D01*
X119132868Y-62046393D01*
X119118253Y-62066099D01*
X119101777Y-62084277D01*
X119083599Y-62100753D01*
X119063893Y-62115368D01*
X119042850Y-62127980D01*
X119020671Y-62138470D01*
X118997572Y-62146735D01*
X118973773Y-62152696D01*
X118949505Y-62156296D01*
X118925001Y-62157500D01*
X116024999Y-62157500D01*
X116000495Y-62156296D01*
X115976227Y-62152696D01*
X115952428Y-62146735D01*
X115929329Y-62138470D01*
X115907150Y-62127980D01*
X115886107Y-62115368D01*
X115866401Y-62100753D01*
X115848223Y-62084277D01*
X115831747Y-62066099D01*
X115817132Y-62046393D01*
X115804520Y-62025350D01*
X115794030Y-62003171D01*
X115785765Y-61980072D01*
X115779804Y-61956273D01*
X115776204Y-61932005D01*
X115775000Y-61907501D01*
X115775000Y-61282499D01*
X115776204Y-61257995D01*
X115779804Y-61233727D01*
X115785765Y-61209928D01*
X115794030Y-61186829D01*
X115804520Y-61164650D01*
X115817132Y-61143607D01*
X115831747Y-61123901D01*
X115848223Y-61105723D01*
X115866401Y-61089247D01*
X115886107Y-61074632D01*
X115907150Y-61062020D01*
X115929329Y-61051530D01*
X115952428Y-61043265D01*
X115976227Y-61037304D01*
X116000495Y-61033704D01*
X116024999Y-61032500D01*
X118925001Y-61032500D01*
X118949505Y-61033704D01*
G37*
G04 #@! TD.AperFunction*
G04 #@! TA.AperFunction,SMDPad,CuDef*
G36*
X118949505Y-56758704D02*
G01*
X118973773Y-56762304D01*
X118997572Y-56768265D01*
X119020671Y-56776530D01*
X119042850Y-56787020D01*
X119063893Y-56799632D01*
X119083599Y-56814247D01*
X119101777Y-56830723D01*
X119118253Y-56848901D01*
X119132868Y-56868607D01*
X119145480Y-56889650D01*
X119155970Y-56911829D01*
X119164235Y-56934928D01*
X119170196Y-56958727D01*
X119173796Y-56982995D01*
X119175000Y-57007499D01*
X119175000Y-57632501D01*
X119173796Y-57657005D01*
X119170196Y-57681273D01*
X119164235Y-57705072D01*
X119155970Y-57728171D01*
X119145480Y-57750350D01*
X119132868Y-57771393D01*
X119118253Y-57791099D01*
X119101777Y-57809277D01*
X119083599Y-57825753D01*
X119063893Y-57840368D01*
X119042850Y-57852980D01*
X119020671Y-57863470D01*
X118997572Y-57871735D01*
X118973773Y-57877696D01*
X118949505Y-57881296D01*
X118925001Y-57882500D01*
X116024999Y-57882500D01*
X116000495Y-57881296D01*
X115976227Y-57877696D01*
X115952428Y-57871735D01*
X115929329Y-57863470D01*
X115907150Y-57852980D01*
X115886107Y-57840368D01*
X115866401Y-57825753D01*
X115848223Y-57809277D01*
X115831747Y-57791099D01*
X115817132Y-57771393D01*
X115804520Y-57750350D01*
X115794030Y-57728171D01*
X115785765Y-57705072D01*
X115779804Y-57681273D01*
X115776204Y-57657005D01*
X115775000Y-57632501D01*
X115775000Y-57007499D01*
X115776204Y-56982995D01*
X115779804Y-56958727D01*
X115785765Y-56934928D01*
X115794030Y-56911829D01*
X115804520Y-56889650D01*
X115817132Y-56868607D01*
X115831747Y-56848901D01*
X115848223Y-56830723D01*
X115866401Y-56814247D01*
X115886107Y-56799632D01*
X115907150Y-56787020D01*
X115929329Y-56776530D01*
X115952428Y-56768265D01*
X115976227Y-56762304D01*
X116000495Y-56758704D01*
X116024999Y-56757500D01*
X118925001Y-56757500D01*
X118949505Y-56758704D01*
G37*
G04 #@! TD.AperFunction*
D11*
X86540000Y-70080000D03*
X84000000Y-70080000D03*
X86540000Y-67540000D03*
X84000000Y-67540000D03*
X86540000Y-65000000D03*
D12*
X84000000Y-65000000D03*
D17*
X114353000Y-61634500D03*
X96520000Y-73025000D03*
X90170000Y-76200000D03*
X101219000Y-79375000D03*
D18*
X123547800Y-66040000D03*
D19*
X84000000Y-70080000D02*
X84000000Y-75000000D01*
D20*
X114935000Y-69215000D02*
X116205000Y-69215000D01*
X113665000Y-67945000D02*
X114935000Y-69215000D01*
X88675000Y-67945000D02*
X113665000Y-67945000D01*
X86540000Y-70080000D02*
X88675000Y-67945000D01*
D19*
X90170000Y-76200000D02*
X90170000Y-73025000D01*
D20*
X128080000Y-73105000D02*
X128000000Y-73025000D01*
D19*
X114392500Y-61595000D02*
X114353000Y-61634500D01*
X117475000Y-61595000D02*
X114392500Y-61595000D01*
D20*
X96520000Y-73025000D02*
X98950000Y-73025000D01*
X100965000Y-73025000D02*
X101600000Y-72390000D01*
X98950000Y-73025000D02*
X100965000Y-73025000D01*
D19*
X101219000Y-79375000D02*
X103272500Y-79375000D01*
X101219000Y-79375000D02*
X99292500Y-79375000D01*
X88778000Y-52705000D02*
X88328000Y-53155000D01*
X92710000Y-52705000D02*
X88778000Y-52705000D01*
X84000000Y-65000000D02*
X84000000Y-60000000D01*
D20*
X92940000Y-65000000D02*
X86540000Y-65000000D01*
X93980000Y-66040000D02*
X92940000Y-65000000D01*
X113030000Y-66040000D02*
X93980000Y-66040000D01*
X113665000Y-65405000D02*
X113030000Y-66040000D01*
X116205000Y-65405000D02*
X113665000Y-65405000D01*
X124570000Y-66040000D02*
X123547800Y-66040000D01*
D19*
X123825000Y-60325000D02*
X120650000Y-57150000D01*
X127000000Y-60325000D02*
X123825000Y-60325000D01*
X128905000Y-62230000D02*
X127000000Y-60325000D01*
X128905000Y-64975000D02*
X128905000Y-62230000D01*
X127840000Y-66040000D02*
X128905000Y-64975000D01*
X126890000Y-66040000D02*
X127840000Y-66040000D01*
X120650000Y-54607919D02*
X120650000Y-57150000D01*
X121797919Y-53460000D02*
X120650000Y-54607919D01*
X123000000Y-53460000D02*
X121797919Y-53460000D01*
X98365000Y-54035000D02*
X98365000Y-56915000D01*
X99695000Y-52705000D02*
X98365000Y-54035000D01*
X113787500Y-52705000D02*
X99695000Y-52705000D01*
X115057500Y-53975000D02*
X113787500Y-52705000D01*
X115770000Y-53975000D02*
X115057500Y-53975000D01*
X92775000Y-56915000D02*
X92710000Y-56980000D01*
X98365000Y-56915000D02*
X92775000Y-56915000D01*
X87073000Y-56980000D02*
X85788000Y-55695000D01*
X92710000Y-56980000D02*
X87073000Y-56980000D01*
D20*
X96985000Y-70485000D02*
X98950000Y-70485000D01*
X94445000Y-73025000D02*
X96985000Y-70485000D01*
X104250000Y-74295000D02*
X104250000Y-75040000D01*
X104250000Y-75210000D02*
X104250000Y-75040000D01*
X104250000Y-76077500D02*
X107547500Y-79375000D01*
X104250000Y-75040000D02*
X104250000Y-76077500D01*
X111992500Y-80242500D02*
X114300000Y-80242500D01*
X107547500Y-79375000D02*
X111125000Y-79375000D01*
X114300000Y-80242500D02*
X118745000Y-75797500D01*
X118745000Y-75797500D02*
X118745000Y-75365000D01*
X126890000Y-67495000D02*
X126890000Y-66990000D01*
X126890000Y-68095000D02*
X126890000Y-67495000D01*
X119620000Y-75365000D02*
X126890000Y-68095000D01*
X118745000Y-75365000D02*
X119620000Y-75365000D01*
X111125000Y-79375000D02*
X111992500Y-80242500D01*
D19*
X117692500Y-57102500D02*
X117475000Y-57320000D01*
X125520000Y-62865000D02*
X123020000Y-62865000D01*
X123020000Y-62865000D02*
X117475000Y-57320000D01*
X126890000Y-64235000D02*
X125520000Y-62865000D01*
X126890000Y-65090000D02*
X126890000Y-64235000D01*
X109650000Y-57320000D02*
X107515000Y-59455000D01*
X117475000Y-57320000D02*
X109650000Y-57320000D01*
X118745000Y-56050000D02*
X117475000Y-57320000D01*
X118745000Y-53975000D02*
X118745000Y-56050000D01*
X97790000Y-76200000D02*
X98950000Y-75040000D01*
X98950000Y-75040000D02*
X98950000Y-74295000D01*
X95885000Y-76200000D02*
X97790000Y-76200000D01*
X95017500Y-77067500D02*
X95885000Y-76200000D01*
X95017500Y-77067500D02*
X95017500Y-79375000D01*
X102980000Y-69215000D02*
X104250000Y-70485000D01*
X90170000Y-69215000D02*
X102980000Y-69215000D01*
X87630000Y-71755000D02*
X90170000Y-69215000D01*
X87630000Y-71755000D02*
X87630000Y-71760000D01*
X86540000Y-72850000D02*
X86540000Y-75000000D01*
X87630000Y-71760000D02*
X86540000Y-72850000D01*
X90915000Y-79375000D02*
X95017500Y-79375000D01*
X86540000Y-75000000D02*
X90915000Y-79375000D01*
D20*
X104250000Y-73025000D02*
X109855000Y-73025000D01*
X111125000Y-73025000D02*
X109855000Y-73025000D01*
X111357500Y-73025000D02*
X111125000Y-73025000D01*
X114300000Y-75967500D02*
X111357500Y-73025000D01*
X117877500Y-72390000D02*
X118745000Y-72390000D01*
X114300000Y-75967500D02*
X117877500Y-72390000D01*
X119495000Y-65090000D02*
X119180000Y-65405000D01*
X124570000Y-65090000D02*
X119495000Y-65090000D01*
X122875000Y-66990000D02*
X124570000Y-66990000D01*
X122117500Y-66990000D02*
X122875000Y-66990000D01*
X119892500Y-69215000D02*
X122117500Y-66990000D01*
X119180000Y-69215000D02*
X119892500Y-69215000D01*
D19*
X86540000Y-60000000D02*
X91655000Y-60000000D01*
X93650000Y-61995000D02*
X98365000Y-61995000D01*
X91655000Y-60000000D02*
X93650000Y-61995000D01*
M02*
