M48
INCH,TZ
T1C0.0118
T2C0.0157
T3C0.0315
T4C0.0394
%
G90
G05
T1
X48641Y-26000
T2
X35500Y-30000
X38000Y-28750
X39850Y-31250
X45021Y-24266
T3
X42250Y-27750
X43250Y-28750
X44250Y-27750
X32775Y-20927
X33775Y-21927
X34775Y-20927
T4
X48425Y-30496
X48425Y-31496
X49425Y-30496
X49425Y-31496
X50425Y-30496
X50425Y-31496
X33071Y-25591
X33071Y-26591
X33071Y-27591
X34071Y-25591
X34071Y-26591
X34071Y-27591
X48425Y-21047
X48425Y-22047
X49425Y-21047
X49425Y-22047
X50425Y-21047
X50425Y-22047
X33071Y-31496
X34071Y-31496
X33071Y-29528
X34071Y-29528
X33071Y-23622
X34071Y-23622
X50394Y-27750
X50394Y-28750
T0
M30
