G04 #@! TF.GenerationSoftware,KiCad,Pcbnew,5.1.5+dfsg1-2build2*
G04 #@! TF.CreationDate,2021-11-26T12:56:36+03:00*
G04 #@! TF.ProjectId,VoltReg,566f6c74-5265-4672-9e6b-696361645f70,rev?*
G04 #@! TF.SameCoordinates,Original*
G04 #@! TF.FileFunction,Soldermask,Bot*
G04 #@! TF.FilePolarity,Negative*
%FSLAX46Y46*%
G04 Gerber Fmt 4.6, Leading zero omitted, Abs format (unit mm)*
G04 Created by KiCad (PCBNEW 5.1.5+dfsg1-2build2) date 2021-11-26 12:56:36*
%MOMM*%
%LPD*%
G04 APERTURE LIST*
%ADD10C,0.100000*%
G04 APERTURE END LIST*
D10*
G36*
X123901000Y-80901000D02*
G01*
X122099000Y-80901000D01*
X122099000Y-79099000D01*
X123901000Y-79099000D01*
X123901000Y-80901000D01*
G37*
G36*
X86653512Y-79103927D02*
G01*
X86802812Y-79133624D01*
X86966784Y-79201544D01*
X87114354Y-79300147D01*
X87239853Y-79425646D01*
X87338456Y-79573216D01*
X87406376Y-79737188D01*
X87441000Y-79911259D01*
X87441000Y-80088741D01*
X87406376Y-80262812D01*
X87338456Y-80426784D01*
X87239853Y-80574354D01*
X87114354Y-80699853D01*
X86966784Y-80798456D01*
X86802812Y-80866376D01*
X86653512Y-80896073D01*
X86628742Y-80901000D01*
X86451258Y-80901000D01*
X86426488Y-80896073D01*
X86277188Y-80866376D01*
X86113216Y-80798456D01*
X85965646Y-80699853D01*
X85840147Y-80574354D01*
X85741544Y-80426784D01*
X85673624Y-80262812D01*
X85639000Y-80088741D01*
X85639000Y-79911259D01*
X85673624Y-79737188D01*
X85741544Y-79573216D01*
X85840147Y-79425646D01*
X85965646Y-79300147D01*
X86113216Y-79201544D01*
X86277188Y-79133624D01*
X86426488Y-79103927D01*
X86451258Y-79099000D01*
X86628742Y-79099000D01*
X86653512Y-79103927D01*
G37*
G36*
X84901000Y-80901000D02*
G01*
X83099000Y-80901000D01*
X83099000Y-79099000D01*
X84901000Y-79099000D01*
X84901000Y-80901000D01*
G37*
G36*
X128193512Y-79103927D02*
G01*
X128342812Y-79133624D01*
X128506784Y-79201544D01*
X128654354Y-79300147D01*
X128779853Y-79425646D01*
X128878456Y-79573216D01*
X128946376Y-79737188D01*
X128981000Y-79911259D01*
X128981000Y-80088741D01*
X128946376Y-80262812D01*
X128878456Y-80426784D01*
X128779853Y-80574354D01*
X128654354Y-80699853D01*
X128506784Y-80798456D01*
X128342812Y-80866376D01*
X128193512Y-80896073D01*
X128168742Y-80901000D01*
X127991258Y-80901000D01*
X127966488Y-80896073D01*
X127817188Y-80866376D01*
X127653216Y-80798456D01*
X127505646Y-80699853D01*
X127380147Y-80574354D01*
X127281544Y-80426784D01*
X127213624Y-80262812D01*
X127179000Y-80088741D01*
X127179000Y-79911259D01*
X127213624Y-79737188D01*
X127281544Y-79573216D01*
X127380147Y-79425646D01*
X127505646Y-79300147D01*
X127653216Y-79201544D01*
X127817188Y-79133624D01*
X127966488Y-79103927D01*
X127991258Y-79099000D01*
X128168742Y-79099000D01*
X128193512Y-79103927D01*
G37*
G36*
X125653512Y-79103927D02*
G01*
X125802812Y-79133624D01*
X125966784Y-79201544D01*
X126114354Y-79300147D01*
X126239853Y-79425646D01*
X126338456Y-79573216D01*
X126406376Y-79737188D01*
X126441000Y-79911259D01*
X126441000Y-80088741D01*
X126406376Y-80262812D01*
X126338456Y-80426784D01*
X126239853Y-80574354D01*
X126114354Y-80699853D01*
X125966784Y-80798456D01*
X125802812Y-80866376D01*
X125653512Y-80896073D01*
X125628742Y-80901000D01*
X125451258Y-80901000D01*
X125426488Y-80896073D01*
X125277188Y-80866376D01*
X125113216Y-80798456D01*
X124965646Y-80699853D01*
X124840147Y-80574354D01*
X124741544Y-80426784D01*
X124673624Y-80262812D01*
X124639000Y-80088741D01*
X124639000Y-79911259D01*
X124673624Y-79737188D01*
X124741544Y-79573216D01*
X124840147Y-79425646D01*
X124965646Y-79300147D01*
X125113216Y-79201544D01*
X125277188Y-79133624D01*
X125426488Y-79103927D01*
X125451258Y-79099000D01*
X125628742Y-79099000D01*
X125653512Y-79103927D01*
G37*
G36*
X128193512Y-76563927D02*
G01*
X128342812Y-76593624D01*
X128506784Y-76661544D01*
X128654354Y-76760147D01*
X128779853Y-76885646D01*
X128878456Y-77033216D01*
X128946376Y-77197188D01*
X128981000Y-77371259D01*
X128981000Y-77548741D01*
X128946376Y-77722812D01*
X128878456Y-77886784D01*
X128779853Y-78034354D01*
X128654354Y-78159853D01*
X128506784Y-78258456D01*
X128342812Y-78326376D01*
X128193512Y-78356073D01*
X128168742Y-78361000D01*
X127991258Y-78361000D01*
X127966488Y-78356073D01*
X127817188Y-78326376D01*
X127653216Y-78258456D01*
X127505646Y-78159853D01*
X127380147Y-78034354D01*
X127281544Y-77886784D01*
X127213624Y-77722812D01*
X127179000Y-77548741D01*
X127179000Y-77371259D01*
X127213624Y-77197188D01*
X127281544Y-77033216D01*
X127380147Y-76885646D01*
X127505646Y-76760147D01*
X127653216Y-76661544D01*
X127817188Y-76593624D01*
X127966488Y-76563927D01*
X127991258Y-76559000D01*
X128168742Y-76559000D01*
X128193512Y-76563927D01*
G37*
G36*
X123113512Y-76563927D02*
G01*
X123262812Y-76593624D01*
X123426784Y-76661544D01*
X123574354Y-76760147D01*
X123699853Y-76885646D01*
X123798456Y-77033216D01*
X123866376Y-77197188D01*
X123901000Y-77371259D01*
X123901000Y-77548741D01*
X123866376Y-77722812D01*
X123798456Y-77886784D01*
X123699853Y-78034354D01*
X123574354Y-78159853D01*
X123426784Y-78258456D01*
X123262812Y-78326376D01*
X123113512Y-78356073D01*
X123088742Y-78361000D01*
X122911258Y-78361000D01*
X122886488Y-78356073D01*
X122737188Y-78326376D01*
X122573216Y-78258456D01*
X122425646Y-78159853D01*
X122300147Y-78034354D01*
X122201544Y-77886784D01*
X122133624Y-77722812D01*
X122099000Y-77548741D01*
X122099000Y-77371259D01*
X122133624Y-77197188D01*
X122201544Y-77033216D01*
X122300147Y-76885646D01*
X122425646Y-76760147D01*
X122573216Y-76661544D01*
X122737188Y-76593624D01*
X122886488Y-76563927D01*
X122911258Y-76559000D01*
X123088742Y-76559000D01*
X123113512Y-76563927D01*
G37*
G36*
X125653512Y-76563927D02*
G01*
X125802812Y-76593624D01*
X125966784Y-76661544D01*
X126114354Y-76760147D01*
X126239853Y-76885646D01*
X126338456Y-77033216D01*
X126406376Y-77197188D01*
X126441000Y-77371259D01*
X126441000Y-77548741D01*
X126406376Y-77722812D01*
X126338456Y-77886784D01*
X126239853Y-78034354D01*
X126114354Y-78159853D01*
X125966784Y-78258456D01*
X125802812Y-78326376D01*
X125653512Y-78356073D01*
X125628742Y-78361000D01*
X125451258Y-78361000D01*
X125426488Y-78356073D01*
X125277188Y-78326376D01*
X125113216Y-78258456D01*
X124965646Y-78159853D01*
X124840147Y-78034354D01*
X124741544Y-77886784D01*
X124673624Y-77722812D01*
X124639000Y-77548741D01*
X124639000Y-77371259D01*
X124673624Y-77197188D01*
X124741544Y-77033216D01*
X124840147Y-76885646D01*
X124965646Y-76760147D01*
X125113216Y-76661544D01*
X125277188Y-76593624D01*
X125426488Y-76563927D01*
X125451258Y-76559000D01*
X125628742Y-76559000D01*
X125653512Y-76563927D01*
G37*
G36*
X84901000Y-75901000D02*
G01*
X83099000Y-75901000D01*
X83099000Y-74099000D01*
X84901000Y-74099000D01*
X84901000Y-75901000D01*
G37*
G36*
X86653512Y-74103927D02*
G01*
X86802812Y-74133624D01*
X86966784Y-74201544D01*
X87114354Y-74300147D01*
X87239853Y-74425646D01*
X87338456Y-74573216D01*
X87406376Y-74737188D01*
X87441000Y-74911259D01*
X87441000Y-75088741D01*
X87406376Y-75262812D01*
X87338456Y-75426784D01*
X87239853Y-75574354D01*
X87114354Y-75699853D01*
X86966784Y-75798456D01*
X86802812Y-75866376D01*
X86653512Y-75896073D01*
X86628742Y-75901000D01*
X86451258Y-75901000D01*
X86426488Y-75896073D01*
X86277188Y-75866376D01*
X86113216Y-75798456D01*
X85965646Y-75699853D01*
X85840147Y-75574354D01*
X85741544Y-75426784D01*
X85673624Y-75262812D01*
X85639000Y-75088741D01*
X85639000Y-74911259D01*
X85673624Y-74737188D01*
X85741544Y-74573216D01*
X85840147Y-74425646D01*
X85965646Y-74300147D01*
X86113216Y-74201544D01*
X86277188Y-74133624D01*
X86426488Y-74103927D01*
X86451258Y-74099000D01*
X86628742Y-74099000D01*
X86653512Y-74103927D01*
G37*
G36*
X128901000Y-73926000D02*
G01*
X127099000Y-73926000D01*
X127099000Y-72124000D01*
X128901000Y-72124000D01*
X128901000Y-73926000D01*
G37*
G36*
X109980589Y-72263876D02*
G01*
X110079893Y-72283629D01*
X110220206Y-72341748D01*
X110346484Y-72426125D01*
X110453875Y-72533516D01*
X110538252Y-72659794D01*
X110596371Y-72800107D01*
X110626000Y-72949063D01*
X110626000Y-73100937D01*
X110596371Y-73249893D01*
X110538252Y-73390206D01*
X110453875Y-73516484D01*
X110346484Y-73623875D01*
X110220206Y-73708252D01*
X110079893Y-73766371D01*
X109980589Y-73786124D01*
X109930938Y-73796000D01*
X109779062Y-73796000D01*
X109729411Y-73786124D01*
X109630107Y-73766371D01*
X109489794Y-73708252D01*
X109363516Y-73623875D01*
X109256125Y-73516484D01*
X109171748Y-73390206D01*
X109113629Y-73249893D01*
X109084000Y-73100937D01*
X109084000Y-72949063D01*
X109113629Y-72800107D01*
X109171748Y-72659794D01*
X109256125Y-72533516D01*
X109363516Y-72426125D01*
X109489794Y-72341748D01*
X109630107Y-72283629D01*
X109729411Y-72263876D01*
X109779062Y-72254000D01*
X109930938Y-72254000D01*
X109980589Y-72263876D01*
G37*
G36*
X128113512Y-69588927D02*
G01*
X128262812Y-69618624D01*
X128426784Y-69686544D01*
X128574354Y-69785147D01*
X128699853Y-69910646D01*
X128798456Y-70058216D01*
X128866376Y-70222188D01*
X128901000Y-70396259D01*
X128901000Y-70573741D01*
X128866376Y-70747812D01*
X128798456Y-70911784D01*
X128699853Y-71059354D01*
X128574354Y-71184853D01*
X128426784Y-71283456D01*
X128262812Y-71351376D01*
X128113512Y-71381073D01*
X128088742Y-71386000D01*
X127911258Y-71386000D01*
X127886488Y-71381073D01*
X127737188Y-71351376D01*
X127573216Y-71283456D01*
X127425646Y-71184853D01*
X127300147Y-71059354D01*
X127201544Y-70911784D01*
X127133624Y-70747812D01*
X127099000Y-70573741D01*
X127099000Y-70396259D01*
X127133624Y-70222188D01*
X127201544Y-70058216D01*
X127300147Y-69910646D01*
X127425646Y-69785147D01*
X127573216Y-69686544D01*
X127737188Y-69618624D01*
X127886488Y-69588927D01*
X127911258Y-69584000D01*
X128088742Y-69584000D01*
X128113512Y-69588927D01*
G37*
G36*
X107440589Y-69723876D02*
G01*
X107539893Y-69743629D01*
X107680206Y-69801748D01*
X107806484Y-69886125D01*
X107913875Y-69993516D01*
X107998252Y-70119794D01*
X108056371Y-70260107D01*
X108086000Y-70409063D01*
X108086000Y-70560937D01*
X108056371Y-70709893D01*
X107998252Y-70850206D01*
X107913875Y-70976484D01*
X107806484Y-71083875D01*
X107680206Y-71168252D01*
X107539893Y-71226371D01*
X107440589Y-71246124D01*
X107390938Y-71256000D01*
X107239062Y-71256000D01*
X107189411Y-71246124D01*
X107090107Y-71226371D01*
X106949794Y-71168252D01*
X106823516Y-71083875D01*
X106716125Y-70976484D01*
X106631748Y-70850206D01*
X106573629Y-70709893D01*
X106544000Y-70560937D01*
X106544000Y-70409063D01*
X106573629Y-70260107D01*
X106631748Y-70119794D01*
X106716125Y-69993516D01*
X106823516Y-69886125D01*
X106949794Y-69801748D01*
X107090107Y-69743629D01*
X107189411Y-69723876D01*
X107239062Y-69714000D01*
X107390938Y-69714000D01*
X107440589Y-69723876D01*
G37*
G36*
X112520589Y-69723876D02*
G01*
X112619893Y-69743629D01*
X112760206Y-69801748D01*
X112886484Y-69886125D01*
X112993875Y-69993516D01*
X113078252Y-70119794D01*
X113136371Y-70260107D01*
X113166000Y-70409063D01*
X113166000Y-70560937D01*
X113136371Y-70709893D01*
X113078252Y-70850206D01*
X112993875Y-70976484D01*
X112886484Y-71083875D01*
X112760206Y-71168252D01*
X112619893Y-71226371D01*
X112520589Y-71246124D01*
X112470938Y-71256000D01*
X112319062Y-71256000D01*
X112269411Y-71246124D01*
X112170107Y-71226371D01*
X112029794Y-71168252D01*
X111903516Y-71083875D01*
X111796125Y-70976484D01*
X111711748Y-70850206D01*
X111653629Y-70709893D01*
X111624000Y-70560937D01*
X111624000Y-70409063D01*
X111653629Y-70260107D01*
X111711748Y-70119794D01*
X111796125Y-69993516D01*
X111903516Y-69886125D01*
X112029794Y-69801748D01*
X112170107Y-69743629D01*
X112269411Y-69723876D01*
X112319062Y-69714000D01*
X112470938Y-69714000D01*
X112520589Y-69723876D01*
G37*
G36*
X86653512Y-69183927D02*
G01*
X86802812Y-69213624D01*
X86966784Y-69281544D01*
X87114354Y-69380147D01*
X87239853Y-69505646D01*
X87338456Y-69653216D01*
X87406376Y-69817188D01*
X87441000Y-69991259D01*
X87441000Y-70168741D01*
X87406376Y-70342812D01*
X87338456Y-70506784D01*
X87239853Y-70654354D01*
X87114354Y-70779853D01*
X86966784Y-70878456D01*
X86802812Y-70946376D01*
X86653512Y-70976073D01*
X86628742Y-70981000D01*
X86451258Y-70981000D01*
X86426488Y-70976073D01*
X86277188Y-70946376D01*
X86113216Y-70878456D01*
X85965646Y-70779853D01*
X85840147Y-70654354D01*
X85741544Y-70506784D01*
X85673624Y-70342812D01*
X85639000Y-70168741D01*
X85639000Y-69991259D01*
X85673624Y-69817188D01*
X85741544Y-69653216D01*
X85840147Y-69505646D01*
X85965646Y-69380147D01*
X86113216Y-69281544D01*
X86277188Y-69213624D01*
X86426488Y-69183927D01*
X86451258Y-69179000D01*
X86628742Y-69179000D01*
X86653512Y-69183927D01*
G37*
G36*
X84113512Y-69183927D02*
G01*
X84262812Y-69213624D01*
X84426784Y-69281544D01*
X84574354Y-69380147D01*
X84699853Y-69505646D01*
X84798456Y-69653216D01*
X84866376Y-69817188D01*
X84901000Y-69991259D01*
X84901000Y-70168741D01*
X84866376Y-70342812D01*
X84798456Y-70506784D01*
X84699853Y-70654354D01*
X84574354Y-70779853D01*
X84426784Y-70878456D01*
X84262812Y-70946376D01*
X84113512Y-70976073D01*
X84088742Y-70981000D01*
X83911258Y-70981000D01*
X83886488Y-70976073D01*
X83737188Y-70946376D01*
X83573216Y-70878456D01*
X83425646Y-70779853D01*
X83300147Y-70654354D01*
X83201544Y-70506784D01*
X83133624Y-70342812D01*
X83099000Y-70168741D01*
X83099000Y-69991259D01*
X83133624Y-69817188D01*
X83201544Y-69653216D01*
X83300147Y-69505646D01*
X83425646Y-69380147D01*
X83573216Y-69281544D01*
X83737188Y-69213624D01*
X83886488Y-69183927D01*
X83911258Y-69179000D01*
X84088742Y-69179000D01*
X84113512Y-69183927D01*
G37*
G36*
X84113512Y-66643927D02*
G01*
X84262812Y-66673624D01*
X84426784Y-66741544D01*
X84574354Y-66840147D01*
X84699853Y-66965646D01*
X84798456Y-67113216D01*
X84866376Y-67277188D01*
X84901000Y-67451259D01*
X84901000Y-67628741D01*
X84866376Y-67802812D01*
X84798456Y-67966784D01*
X84699853Y-68114354D01*
X84574354Y-68239853D01*
X84426784Y-68338456D01*
X84262812Y-68406376D01*
X84113512Y-68436073D01*
X84088742Y-68441000D01*
X83911258Y-68441000D01*
X83886488Y-68436073D01*
X83737188Y-68406376D01*
X83573216Y-68338456D01*
X83425646Y-68239853D01*
X83300147Y-68114354D01*
X83201544Y-67966784D01*
X83133624Y-67802812D01*
X83099000Y-67628741D01*
X83099000Y-67451259D01*
X83133624Y-67277188D01*
X83201544Y-67113216D01*
X83300147Y-66965646D01*
X83425646Y-66840147D01*
X83573216Y-66741544D01*
X83737188Y-66673624D01*
X83886488Y-66643927D01*
X83911258Y-66639000D01*
X84088742Y-66639000D01*
X84113512Y-66643927D01*
G37*
G36*
X86653512Y-66643927D02*
G01*
X86802812Y-66673624D01*
X86966784Y-66741544D01*
X87114354Y-66840147D01*
X87239853Y-66965646D01*
X87338456Y-67113216D01*
X87406376Y-67277188D01*
X87441000Y-67451259D01*
X87441000Y-67628741D01*
X87406376Y-67802812D01*
X87338456Y-67966784D01*
X87239853Y-68114354D01*
X87114354Y-68239853D01*
X86966784Y-68338456D01*
X86802812Y-68406376D01*
X86653512Y-68436073D01*
X86628742Y-68441000D01*
X86451258Y-68441000D01*
X86426488Y-68436073D01*
X86277188Y-68406376D01*
X86113216Y-68338456D01*
X85965646Y-68239853D01*
X85840147Y-68114354D01*
X85741544Y-67966784D01*
X85673624Y-67802812D01*
X85639000Y-67628741D01*
X85639000Y-67451259D01*
X85673624Y-67277188D01*
X85741544Y-67113216D01*
X85840147Y-66965646D01*
X85965646Y-66840147D01*
X86113216Y-66741544D01*
X86277188Y-66673624D01*
X86426488Y-66643927D01*
X86451258Y-66639000D01*
X86628742Y-66639000D01*
X86653512Y-66643927D01*
G37*
G36*
X84901000Y-65901000D02*
G01*
X83099000Y-65901000D01*
X83099000Y-64099000D01*
X84901000Y-64099000D01*
X84901000Y-65901000D01*
G37*
G36*
X86653512Y-64103927D02*
G01*
X86802812Y-64133624D01*
X86966784Y-64201544D01*
X87114354Y-64300147D01*
X87239853Y-64425646D01*
X87338456Y-64573216D01*
X87406376Y-64737188D01*
X87441000Y-64911259D01*
X87441000Y-65088741D01*
X87406376Y-65262812D01*
X87338456Y-65426784D01*
X87239853Y-65574354D01*
X87114354Y-65699853D01*
X86966784Y-65798456D01*
X86802812Y-65866376D01*
X86653512Y-65896073D01*
X86628742Y-65901000D01*
X86451258Y-65901000D01*
X86426488Y-65896073D01*
X86277188Y-65866376D01*
X86113216Y-65798456D01*
X85965646Y-65699853D01*
X85840147Y-65574354D01*
X85741544Y-65426784D01*
X85673624Y-65262812D01*
X85639000Y-65088741D01*
X85639000Y-64911259D01*
X85673624Y-64737188D01*
X85741544Y-64573216D01*
X85840147Y-64425646D01*
X85965646Y-64300147D01*
X86113216Y-64201544D01*
X86277188Y-64133624D01*
X86426488Y-64103927D01*
X86451258Y-64099000D01*
X86628742Y-64099000D01*
X86653512Y-64103927D01*
G37*
G36*
X84901000Y-60901000D02*
G01*
X83099000Y-60901000D01*
X83099000Y-59099000D01*
X84901000Y-59099000D01*
X84901000Y-60901000D01*
G37*
G36*
X86653512Y-59103927D02*
G01*
X86802812Y-59133624D01*
X86966784Y-59201544D01*
X87114354Y-59300147D01*
X87239853Y-59425646D01*
X87338456Y-59573216D01*
X87406376Y-59737188D01*
X87441000Y-59911259D01*
X87441000Y-60088741D01*
X87406376Y-60262812D01*
X87338456Y-60426784D01*
X87239853Y-60574354D01*
X87114354Y-60699853D01*
X86966784Y-60798456D01*
X86802812Y-60866376D01*
X86653512Y-60896073D01*
X86628742Y-60901000D01*
X86451258Y-60901000D01*
X86426488Y-60896073D01*
X86277188Y-60866376D01*
X86113216Y-60798456D01*
X85965646Y-60699853D01*
X85840147Y-60574354D01*
X85741544Y-60426784D01*
X85673624Y-60262812D01*
X85639000Y-60088741D01*
X85639000Y-59911259D01*
X85673624Y-59737188D01*
X85741544Y-59573216D01*
X85840147Y-59425646D01*
X85965646Y-59300147D01*
X86113216Y-59201544D01*
X86277188Y-59133624D01*
X86426488Y-59103927D01*
X86451258Y-59099000D01*
X86628742Y-59099000D01*
X86653512Y-59103927D01*
G37*
G36*
X123901000Y-56901000D02*
G01*
X122099000Y-56901000D01*
X122099000Y-55099000D01*
X123901000Y-55099000D01*
X123901000Y-56901000D01*
G37*
G36*
X125653512Y-55103927D02*
G01*
X125802812Y-55133624D01*
X125966784Y-55201544D01*
X126114354Y-55300147D01*
X126239853Y-55425646D01*
X126338456Y-55573216D01*
X126406376Y-55737188D01*
X126441000Y-55911259D01*
X126441000Y-56088741D01*
X126406376Y-56262812D01*
X126338456Y-56426784D01*
X126239853Y-56574354D01*
X126114354Y-56699853D01*
X125966784Y-56798456D01*
X125802812Y-56866376D01*
X125653512Y-56896073D01*
X125628742Y-56901000D01*
X125451258Y-56901000D01*
X125426488Y-56896073D01*
X125277188Y-56866376D01*
X125113216Y-56798456D01*
X124965646Y-56699853D01*
X124840147Y-56574354D01*
X124741544Y-56426784D01*
X124673624Y-56262812D01*
X124639000Y-56088741D01*
X124639000Y-55911259D01*
X124673624Y-55737188D01*
X124741544Y-55573216D01*
X124840147Y-55425646D01*
X124965646Y-55300147D01*
X125113216Y-55201544D01*
X125277188Y-55133624D01*
X125426488Y-55103927D01*
X125451258Y-55099000D01*
X125628742Y-55099000D01*
X125653512Y-55103927D01*
G37*
G36*
X128193512Y-55103927D02*
G01*
X128342812Y-55133624D01*
X128506784Y-55201544D01*
X128654354Y-55300147D01*
X128779853Y-55425646D01*
X128878456Y-55573216D01*
X128946376Y-55737188D01*
X128981000Y-55911259D01*
X128981000Y-56088741D01*
X128946376Y-56262812D01*
X128878456Y-56426784D01*
X128779853Y-56574354D01*
X128654354Y-56699853D01*
X128506784Y-56798456D01*
X128342812Y-56866376D01*
X128193512Y-56896073D01*
X128168742Y-56901000D01*
X127991258Y-56901000D01*
X127966488Y-56896073D01*
X127817188Y-56866376D01*
X127653216Y-56798456D01*
X127505646Y-56699853D01*
X127380147Y-56574354D01*
X127281544Y-56426784D01*
X127213624Y-56262812D01*
X127179000Y-56088741D01*
X127179000Y-55911259D01*
X127213624Y-55737188D01*
X127281544Y-55573216D01*
X127380147Y-55425646D01*
X127505646Y-55300147D01*
X127653216Y-55201544D01*
X127817188Y-55133624D01*
X127966488Y-55103927D01*
X127991258Y-55099000D01*
X128168742Y-55099000D01*
X128193512Y-55103927D01*
G37*
G36*
X85913589Y-54933876D02*
G01*
X86012893Y-54953629D01*
X86153206Y-55011748D01*
X86279484Y-55096125D01*
X86386875Y-55203516D01*
X86471252Y-55329794D01*
X86529371Y-55470107D01*
X86559000Y-55619063D01*
X86559000Y-55770937D01*
X86529371Y-55919893D01*
X86471252Y-56060206D01*
X86386875Y-56186484D01*
X86279484Y-56293875D01*
X86153206Y-56378252D01*
X86012893Y-56436371D01*
X85913589Y-56456124D01*
X85863938Y-56466000D01*
X85712062Y-56466000D01*
X85662411Y-56456124D01*
X85563107Y-56436371D01*
X85422794Y-56378252D01*
X85296516Y-56293875D01*
X85189125Y-56186484D01*
X85104748Y-56060206D01*
X85046629Y-55919893D01*
X85017000Y-55770937D01*
X85017000Y-55619063D01*
X85046629Y-55470107D01*
X85104748Y-55329794D01*
X85189125Y-55203516D01*
X85296516Y-55096125D01*
X85422794Y-55011748D01*
X85563107Y-54953629D01*
X85662411Y-54933876D01*
X85712062Y-54924000D01*
X85863938Y-54924000D01*
X85913589Y-54933876D01*
G37*
G36*
X128193512Y-52563927D02*
G01*
X128342812Y-52593624D01*
X128506784Y-52661544D01*
X128654354Y-52760147D01*
X128779853Y-52885646D01*
X128878456Y-53033216D01*
X128946376Y-53197188D01*
X128981000Y-53371259D01*
X128981000Y-53548741D01*
X128946376Y-53722812D01*
X128878456Y-53886784D01*
X128779853Y-54034354D01*
X128654354Y-54159853D01*
X128506784Y-54258456D01*
X128342812Y-54326376D01*
X128193512Y-54356073D01*
X128168742Y-54361000D01*
X127991258Y-54361000D01*
X127966488Y-54356073D01*
X127817188Y-54326376D01*
X127653216Y-54258456D01*
X127505646Y-54159853D01*
X127380147Y-54034354D01*
X127281544Y-53886784D01*
X127213624Y-53722812D01*
X127179000Y-53548741D01*
X127179000Y-53371259D01*
X127213624Y-53197188D01*
X127281544Y-53033216D01*
X127380147Y-52885646D01*
X127505646Y-52760147D01*
X127653216Y-52661544D01*
X127817188Y-52593624D01*
X127966488Y-52563927D01*
X127991258Y-52559000D01*
X128168742Y-52559000D01*
X128193512Y-52563927D01*
G37*
G36*
X123113512Y-52563927D02*
G01*
X123262812Y-52593624D01*
X123426784Y-52661544D01*
X123574354Y-52760147D01*
X123699853Y-52885646D01*
X123798456Y-53033216D01*
X123866376Y-53197188D01*
X123901000Y-53371259D01*
X123901000Y-53548741D01*
X123866376Y-53722812D01*
X123798456Y-53886784D01*
X123699853Y-54034354D01*
X123574354Y-54159853D01*
X123426784Y-54258456D01*
X123262812Y-54326376D01*
X123113512Y-54356073D01*
X123088742Y-54361000D01*
X122911258Y-54361000D01*
X122886488Y-54356073D01*
X122737188Y-54326376D01*
X122573216Y-54258456D01*
X122425646Y-54159853D01*
X122300147Y-54034354D01*
X122201544Y-53886784D01*
X122133624Y-53722812D01*
X122099000Y-53548741D01*
X122099000Y-53371259D01*
X122133624Y-53197188D01*
X122201544Y-53033216D01*
X122300147Y-52885646D01*
X122425646Y-52760147D01*
X122573216Y-52661544D01*
X122737188Y-52593624D01*
X122886488Y-52563927D01*
X122911258Y-52559000D01*
X123088742Y-52559000D01*
X123113512Y-52563927D01*
G37*
G36*
X125653512Y-52563927D02*
G01*
X125802812Y-52593624D01*
X125966784Y-52661544D01*
X126114354Y-52760147D01*
X126239853Y-52885646D01*
X126338456Y-53033216D01*
X126406376Y-53197188D01*
X126441000Y-53371259D01*
X126441000Y-53548741D01*
X126406376Y-53722812D01*
X126338456Y-53886784D01*
X126239853Y-54034354D01*
X126114354Y-54159853D01*
X125966784Y-54258456D01*
X125802812Y-54326376D01*
X125653512Y-54356073D01*
X125628742Y-54361000D01*
X125451258Y-54361000D01*
X125426488Y-54356073D01*
X125277188Y-54326376D01*
X125113216Y-54258456D01*
X124965646Y-54159853D01*
X124840147Y-54034354D01*
X124741544Y-53886784D01*
X124673624Y-53722812D01*
X124639000Y-53548741D01*
X124639000Y-53371259D01*
X124673624Y-53197188D01*
X124741544Y-53033216D01*
X124840147Y-52885646D01*
X124965646Y-52760147D01*
X125113216Y-52661544D01*
X125277188Y-52593624D01*
X125426488Y-52563927D01*
X125451258Y-52559000D01*
X125628742Y-52559000D01*
X125653512Y-52563927D01*
G37*
G36*
X88453589Y-52393876D02*
G01*
X88552893Y-52413629D01*
X88693206Y-52471748D01*
X88819484Y-52556125D01*
X88926875Y-52663516D01*
X89011252Y-52789794D01*
X89069371Y-52930107D01*
X89099000Y-53079063D01*
X89099000Y-53230937D01*
X89069371Y-53379893D01*
X89011252Y-53520206D01*
X88926875Y-53646484D01*
X88819484Y-53753875D01*
X88693206Y-53838252D01*
X88552893Y-53896371D01*
X88453589Y-53916124D01*
X88403938Y-53926000D01*
X88252062Y-53926000D01*
X88202411Y-53916124D01*
X88103107Y-53896371D01*
X87962794Y-53838252D01*
X87836516Y-53753875D01*
X87729125Y-53646484D01*
X87644748Y-53520206D01*
X87586629Y-53379893D01*
X87557000Y-53230937D01*
X87557000Y-53079063D01*
X87586629Y-52930107D01*
X87644748Y-52789794D01*
X87729125Y-52663516D01*
X87836516Y-52556125D01*
X87962794Y-52471748D01*
X88103107Y-52413629D01*
X88202411Y-52393876D01*
X88252062Y-52384000D01*
X88403938Y-52384000D01*
X88453589Y-52393876D01*
G37*
G36*
X83373589Y-52393876D02*
G01*
X83472893Y-52413629D01*
X83613206Y-52471748D01*
X83739484Y-52556125D01*
X83846875Y-52663516D01*
X83931252Y-52789794D01*
X83989371Y-52930107D01*
X84019000Y-53079063D01*
X84019000Y-53230937D01*
X83989371Y-53379893D01*
X83931252Y-53520206D01*
X83846875Y-53646484D01*
X83739484Y-53753875D01*
X83613206Y-53838252D01*
X83472893Y-53896371D01*
X83373589Y-53916124D01*
X83323938Y-53926000D01*
X83172062Y-53926000D01*
X83122411Y-53916124D01*
X83023107Y-53896371D01*
X82882794Y-53838252D01*
X82756516Y-53753875D01*
X82649125Y-53646484D01*
X82564748Y-53520206D01*
X82506629Y-53379893D01*
X82477000Y-53230937D01*
X82477000Y-53079063D01*
X82506629Y-52930107D01*
X82564748Y-52789794D01*
X82649125Y-52663516D01*
X82756516Y-52556125D01*
X82882794Y-52471748D01*
X83023107Y-52413629D01*
X83122411Y-52393876D01*
X83172062Y-52384000D01*
X83323938Y-52384000D01*
X83373589Y-52393876D01*
G37*
M02*
