G04 #@! TF.GenerationSoftware,KiCad,Pcbnew,5.1.5+dfsg1-2build2*
G04 #@! TF.CreationDate,2021-11-26T12:56:36+03:00*
G04 #@! TF.ProjectId,VoltReg,566f6c74-5265-4672-9e6b-696361645f70,rev?*
G04 #@! TF.SameCoordinates,Original*
G04 #@! TF.FileFunction,Soldermask,Top*
G04 #@! TF.FilePolarity,Negative*
%FSLAX46Y46*%
G04 Gerber Fmt 4.6, Leading zero omitted, Abs format (unit mm)*
G04 Created by KiCad (PCBNEW 5.1.5+dfsg1-2build2) date 2021-11-26 12:56:36*
%MOMM*%
%LPD*%
G04 APERTURE LIST*
%ADD10C,0.100000*%
G04 APERTURE END LIST*
D10*
G36*
X107997307Y-77628498D02*
G01*
X108035318Y-77640029D01*
X108070342Y-77658749D01*
X108101049Y-77683951D01*
X108126251Y-77714658D01*
X108144971Y-77749682D01*
X108156502Y-77787693D01*
X108161000Y-77833363D01*
X108161000Y-80916637D01*
X108156502Y-80962307D01*
X108144971Y-81000318D01*
X108126251Y-81035342D01*
X108101049Y-81066049D01*
X108070342Y-81091251D01*
X108035318Y-81109971D01*
X107997307Y-81121502D01*
X107951637Y-81126000D01*
X107143363Y-81126000D01*
X107097693Y-81121502D01*
X107059682Y-81109971D01*
X107024658Y-81091251D01*
X106993951Y-81066049D01*
X106968749Y-81035342D01*
X106950029Y-81000318D01*
X106938498Y-80962307D01*
X106934000Y-80916637D01*
X106934000Y-77833363D01*
X106938498Y-77787693D01*
X106950029Y-77749682D01*
X106968749Y-77714658D01*
X106993951Y-77683951D01*
X107024658Y-77658749D01*
X107059682Y-77640029D01*
X107097693Y-77628498D01*
X107143363Y-77624000D01*
X107951637Y-77624000D01*
X107997307Y-77628498D01*
G37*
G36*
X99742307Y-77628498D02*
G01*
X99780318Y-77640029D01*
X99815342Y-77658749D01*
X99846049Y-77683951D01*
X99871251Y-77714658D01*
X99889971Y-77749682D01*
X99901502Y-77787693D01*
X99906000Y-77833363D01*
X99906000Y-80916637D01*
X99901502Y-80962307D01*
X99889971Y-81000318D01*
X99871251Y-81035342D01*
X99846049Y-81066049D01*
X99815342Y-81091251D01*
X99780318Y-81109971D01*
X99742307Y-81121502D01*
X99696637Y-81126000D01*
X98888363Y-81126000D01*
X98842693Y-81121502D01*
X98804682Y-81109971D01*
X98769658Y-81091251D01*
X98738951Y-81066049D01*
X98713749Y-81035342D01*
X98695029Y-81000318D01*
X98683498Y-80962307D01*
X98679000Y-80916637D01*
X98679000Y-77833363D01*
X98683498Y-77787693D01*
X98695029Y-77749682D01*
X98713749Y-77714658D01*
X98738951Y-77683951D01*
X98769658Y-77658749D01*
X98804682Y-77640029D01*
X98842693Y-77628498D01*
X98888363Y-77624000D01*
X99696637Y-77624000D01*
X99742307Y-77628498D01*
G37*
G36*
X95467307Y-77628498D02*
G01*
X95505318Y-77640029D01*
X95540342Y-77658749D01*
X95571049Y-77683951D01*
X95596251Y-77714658D01*
X95614971Y-77749682D01*
X95626502Y-77787693D01*
X95631000Y-77833363D01*
X95631000Y-80916637D01*
X95626502Y-80962307D01*
X95614971Y-81000318D01*
X95596251Y-81035342D01*
X95571049Y-81066049D01*
X95540342Y-81091251D01*
X95505318Y-81109971D01*
X95467307Y-81121502D01*
X95421637Y-81126000D01*
X94613363Y-81126000D01*
X94567693Y-81121502D01*
X94529682Y-81109971D01*
X94494658Y-81091251D01*
X94463951Y-81066049D01*
X94438749Y-81035342D01*
X94420029Y-81000318D01*
X94408498Y-80962307D01*
X94404000Y-80916637D01*
X94404000Y-77833363D01*
X94408498Y-77787693D01*
X94420029Y-77749682D01*
X94438749Y-77714658D01*
X94463951Y-77683951D01*
X94494658Y-77658749D01*
X94529682Y-77640029D01*
X94567693Y-77628498D01*
X94613363Y-77624000D01*
X95421637Y-77624000D01*
X95467307Y-77628498D01*
G37*
G36*
X103722307Y-77628498D02*
G01*
X103760318Y-77640029D01*
X103795342Y-77658749D01*
X103826049Y-77683951D01*
X103851251Y-77714658D01*
X103869971Y-77749682D01*
X103881502Y-77787693D01*
X103886000Y-77833363D01*
X103886000Y-80916637D01*
X103881502Y-80962307D01*
X103869971Y-81000318D01*
X103851251Y-81035342D01*
X103826049Y-81066049D01*
X103795342Y-81091251D01*
X103760318Y-81109971D01*
X103722307Y-81121502D01*
X103676637Y-81126000D01*
X102868363Y-81126000D01*
X102822693Y-81121502D01*
X102784682Y-81109971D01*
X102749658Y-81091251D01*
X102718951Y-81066049D01*
X102693749Y-81035342D01*
X102675029Y-81000318D01*
X102663498Y-80962307D01*
X102659000Y-80916637D01*
X102659000Y-77833363D01*
X102663498Y-77787693D01*
X102675029Y-77749682D01*
X102693749Y-77714658D01*
X102718951Y-77683951D01*
X102749658Y-77658749D01*
X102784682Y-77640029D01*
X102822693Y-77628498D01*
X102868363Y-77624000D01*
X103676637Y-77624000D01*
X103722307Y-77628498D01*
G37*
G36*
X123901000Y-80901000D02*
G01*
X122099000Y-80901000D01*
X122099000Y-79099000D01*
X123901000Y-79099000D01*
X123901000Y-80901000D01*
G37*
G36*
X84901000Y-80901000D02*
G01*
X83099000Y-80901000D01*
X83099000Y-79099000D01*
X84901000Y-79099000D01*
X84901000Y-80901000D01*
G37*
G36*
X86653512Y-79103927D02*
G01*
X86802812Y-79133624D01*
X86966784Y-79201544D01*
X87114354Y-79300147D01*
X87239853Y-79425646D01*
X87338456Y-79573216D01*
X87406376Y-79737188D01*
X87441000Y-79911259D01*
X87441000Y-80088741D01*
X87406376Y-80262812D01*
X87338456Y-80426784D01*
X87239853Y-80574354D01*
X87114354Y-80699853D01*
X86966784Y-80798456D01*
X86802812Y-80866376D01*
X86653512Y-80896073D01*
X86628742Y-80901000D01*
X86451258Y-80901000D01*
X86426488Y-80896073D01*
X86277188Y-80866376D01*
X86113216Y-80798456D01*
X85965646Y-80699853D01*
X85840147Y-80574354D01*
X85741544Y-80426784D01*
X85673624Y-80262812D01*
X85639000Y-80088741D01*
X85639000Y-79911259D01*
X85673624Y-79737188D01*
X85741544Y-79573216D01*
X85840147Y-79425646D01*
X85965646Y-79300147D01*
X86113216Y-79201544D01*
X86277188Y-79133624D01*
X86426488Y-79103927D01*
X86451258Y-79099000D01*
X86628742Y-79099000D01*
X86653512Y-79103927D01*
G37*
G36*
X125653512Y-79103927D02*
G01*
X125802812Y-79133624D01*
X125966784Y-79201544D01*
X126114354Y-79300147D01*
X126239853Y-79425646D01*
X126338456Y-79573216D01*
X126406376Y-79737188D01*
X126441000Y-79911259D01*
X126441000Y-80088741D01*
X126406376Y-80262812D01*
X126338456Y-80426784D01*
X126239853Y-80574354D01*
X126114354Y-80699853D01*
X125966784Y-80798456D01*
X125802812Y-80866376D01*
X125653512Y-80896073D01*
X125628742Y-80901000D01*
X125451258Y-80901000D01*
X125426488Y-80896073D01*
X125277188Y-80866376D01*
X125113216Y-80798456D01*
X124965646Y-80699853D01*
X124840147Y-80574354D01*
X124741544Y-80426784D01*
X124673624Y-80262812D01*
X124639000Y-80088741D01*
X124639000Y-79911259D01*
X124673624Y-79737188D01*
X124741544Y-79573216D01*
X124840147Y-79425646D01*
X124965646Y-79300147D01*
X125113216Y-79201544D01*
X125277188Y-79133624D01*
X125426488Y-79103927D01*
X125451258Y-79099000D01*
X125628742Y-79099000D01*
X125653512Y-79103927D01*
G37*
G36*
X128193512Y-79103927D02*
G01*
X128342812Y-79133624D01*
X128506784Y-79201544D01*
X128654354Y-79300147D01*
X128779853Y-79425646D01*
X128878456Y-79573216D01*
X128946376Y-79737188D01*
X128981000Y-79911259D01*
X128981000Y-80088741D01*
X128946376Y-80262812D01*
X128878456Y-80426784D01*
X128779853Y-80574354D01*
X128654354Y-80699853D01*
X128506784Y-80798456D01*
X128342812Y-80866376D01*
X128193512Y-80896073D01*
X128168742Y-80901000D01*
X127991258Y-80901000D01*
X127966488Y-80896073D01*
X127817188Y-80866376D01*
X127653216Y-80798456D01*
X127505646Y-80699853D01*
X127380147Y-80574354D01*
X127281544Y-80426784D01*
X127213624Y-80262812D01*
X127179000Y-80088741D01*
X127179000Y-79911259D01*
X127213624Y-79737188D01*
X127281544Y-79573216D01*
X127380147Y-79425646D01*
X127505646Y-79300147D01*
X127653216Y-79201544D01*
X127817188Y-79133624D01*
X127966488Y-79103927D01*
X127991258Y-79099000D01*
X128168742Y-79099000D01*
X128193512Y-79103927D01*
G37*
G36*
X115887307Y-79633498D02*
G01*
X115925318Y-79645029D01*
X115960342Y-79663749D01*
X115991049Y-79688951D01*
X116016251Y-79719658D01*
X116034971Y-79754682D01*
X116046502Y-79792693D01*
X116051000Y-79838363D01*
X116051000Y-80646637D01*
X116046502Y-80692307D01*
X116034971Y-80730318D01*
X116016251Y-80765342D01*
X115991049Y-80796049D01*
X115960342Y-80821251D01*
X115925318Y-80839971D01*
X115887307Y-80851502D01*
X115841637Y-80856000D01*
X112758363Y-80856000D01*
X112712693Y-80851502D01*
X112674682Y-80839971D01*
X112639658Y-80821251D01*
X112608951Y-80796049D01*
X112583749Y-80765342D01*
X112565029Y-80730318D01*
X112553498Y-80692307D01*
X112549000Y-80646637D01*
X112549000Y-79838363D01*
X112553498Y-79792693D01*
X112565029Y-79754682D01*
X112583749Y-79719658D01*
X112608951Y-79688951D01*
X112639658Y-79663749D01*
X112674682Y-79645029D01*
X112712693Y-79633498D01*
X112758363Y-79629000D01*
X115841637Y-79629000D01*
X115887307Y-79633498D01*
G37*
G36*
X123113512Y-76563927D02*
G01*
X123262812Y-76593624D01*
X123426784Y-76661544D01*
X123574354Y-76760147D01*
X123699853Y-76885646D01*
X123798456Y-77033216D01*
X123866376Y-77197188D01*
X123901000Y-77371259D01*
X123901000Y-77548741D01*
X123866376Y-77722812D01*
X123798456Y-77886784D01*
X123699853Y-78034354D01*
X123574354Y-78159853D01*
X123426784Y-78258456D01*
X123262812Y-78326376D01*
X123113512Y-78356073D01*
X123088742Y-78361000D01*
X122911258Y-78361000D01*
X122886488Y-78356073D01*
X122737188Y-78326376D01*
X122573216Y-78258456D01*
X122425646Y-78159853D01*
X122300147Y-78034354D01*
X122201544Y-77886784D01*
X122133624Y-77722812D01*
X122099000Y-77548741D01*
X122099000Y-77371259D01*
X122133624Y-77197188D01*
X122201544Y-77033216D01*
X122300147Y-76885646D01*
X122425646Y-76760147D01*
X122573216Y-76661544D01*
X122737188Y-76593624D01*
X122886488Y-76563927D01*
X122911258Y-76559000D01*
X123088742Y-76559000D01*
X123113512Y-76563927D01*
G37*
G36*
X125653512Y-76563927D02*
G01*
X125802812Y-76593624D01*
X125966784Y-76661544D01*
X126114354Y-76760147D01*
X126239853Y-76885646D01*
X126338456Y-77033216D01*
X126406376Y-77197188D01*
X126441000Y-77371259D01*
X126441000Y-77548741D01*
X126406376Y-77722812D01*
X126338456Y-77886784D01*
X126239853Y-78034354D01*
X126114354Y-78159853D01*
X125966784Y-78258456D01*
X125802812Y-78326376D01*
X125653512Y-78356073D01*
X125628742Y-78361000D01*
X125451258Y-78361000D01*
X125426488Y-78356073D01*
X125277188Y-78326376D01*
X125113216Y-78258456D01*
X124965646Y-78159853D01*
X124840147Y-78034354D01*
X124741544Y-77886784D01*
X124673624Y-77722812D01*
X124639000Y-77548741D01*
X124639000Y-77371259D01*
X124673624Y-77197188D01*
X124741544Y-77033216D01*
X124840147Y-76885646D01*
X124965646Y-76760147D01*
X125113216Y-76661544D01*
X125277188Y-76593624D01*
X125426488Y-76563927D01*
X125451258Y-76559000D01*
X125628742Y-76559000D01*
X125653512Y-76563927D01*
G37*
G36*
X128193512Y-76563927D02*
G01*
X128342812Y-76593624D01*
X128506784Y-76661544D01*
X128654354Y-76760147D01*
X128779853Y-76885646D01*
X128878456Y-77033216D01*
X128946376Y-77197188D01*
X128981000Y-77371259D01*
X128981000Y-77548741D01*
X128946376Y-77722812D01*
X128878456Y-77886784D01*
X128779853Y-78034354D01*
X128654354Y-78159853D01*
X128506784Y-78258456D01*
X128342812Y-78326376D01*
X128193512Y-78356073D01*
X128168742Y-78361000D01*
X127991258Y-78361000D01*
X127966488Y-78356073D01*
X127817188Y-78326376D01*
X127653216Y-78258456D01*
X127505646Y-78159853D01*
X127380147Y-78034354D01*
X127281544Y-77886784D01*
X127213624Y-77722812D01*
X127179000Y-77548741D01*
X127179000Y-77371259D01*
X127213624Y-77197188D01*
X127281544Y-77033216D01*
X127380147Y-76885646D01*
X127505646Y-76760147D01*
X127653216Y-76661544D01*
X127817188Y-76593624D01*
X127966488Y-76563927D01*
X127991258Y-76559000D01*
X128168742Y-76559000D01*
X128193512Y-76563927D01*
G37*
G36*
X115887307Y-75358498D02*
G01*
X115925318Y-75370029D01*
X115960342Y-75388749D01*
X115991049Y-75413951D01*
X116016251Y-75444658D01*
X116034971Y-75479682D01*
X116046502Y-75517693D01*
X116051000Y-75563363D01*
X116051000Y-76371637D01*
X116046502Y-76417307D01*
X116034971Y-76455318D01*
X116016251Y-76490342D01*
X115991049Y-76521049D01*
X115960342Y-76546251D01*
X115925318Y-76564971D01*
X115887307Y-76576502D01*
X115841637Y-76581000D01*
X112758363Y-76581000D01*
X112712693Y-76576502D01*
X112674682Y-76564971D01*
X112639658Y-76546251D01*
X112608951Y-76521049D01*
X112583749Y-76490342D01*
X112565029Y-76455318D01*
X112553498Y-76417307D01*
X112549000Y-76371637D01*
X112549000Y-75563363D01*
X112553498Y-75517693D01*
X112565029Y-75479682D01*
X112583749Y-75444658D01*
X112608951Y-75413951D01*
X112639658Y-75388749D01*
X112674682Y-75370029D01*
X112712693Y-75358498D01*
X112758363Y-75354000D01*
X115841637Y-75354000D01*
X115887307Y-75358498D01*
G37*
G36*
X119520562Y-74605681D02*
G01*
X119555481Y-74616274D01*
X119587663Y-74633476D01*
X119615873Y-74656627D01*
X119639024Y-74684837D01*
X119656226Y-74717019D01*
X119666819Y-74751938D01*
X119671000Y-74794395D01*
X119671000Y-75935605D01*
X119666819Y-75978062D01*
X119656226Y-76012981D01*
X119639024Y-76045163D01*
X119615873Y-76073373D01*
X119587663Y-76096524D01*
X119555481Y-76113726D01*
X119520562Y-76124319D01*
X119478105Y-76128500D01*
X118011895Y-76128500D01*
X117969438Y-76124319D01*
X117934519Y-76113726D01*
X117902337Y-76096524D01*
X117874127Y-76073373D01*
X117850976Y-76045163D01*
X117833774Y-76012981D01*
X117823181Y-75978062D01*
X117819000Y-75935605D01*
X117819000Y-74794395D01*
X117823181Y-74751938D01*
X117833774Y-74717019D01*
X117850976Y-74684837D01*
X117874127Y-74656627D01*
X117902337Y-74633476D01*
X117934519Y-74616274D01*
X117969438Y-74605681D01*
X118011895Y-74601500D01*
X119478105Y-74601500D01*
X119520562Y-74605681D01*
G37*
G36*
X84901000Y-75901000D02*
G01*
X83099000Y-75901000D01*
X83099000Y-74099000D01*
X84901000Y-74099000D01*
X84901000Y-75901000D01*
G37*
G36*
X86653512Y-74103927D02*
G01*
X86802812Y-74133624D01*
X86966784Y-74201544D01*
X87114354Y-74300147D01*
X87239853Y-74425646D01*
X87338456Y-74573216D01*
X87406376Y-74737188D01*
X87441000Y-74911259D01*
X87441000Y-75088741D01*
X87406376Y-75262812D01*
X87338456Y-75426784D01*
X87239853Y-75574354D01*
X87114354Y-75699853D01*
X86966784Y-75798456D01*
X86802812Y-75866376D01*
X86653512Y-75896073D01*
X86628742Y-75901000D01*
X86451258Y-75901000D01*
X86426488Y-75896073D01*
X86277188Y-75866376D01*
X86113216Y-75798456D01*
X85965646Y-75699853D01*
X85840147Y-75574354D01*
X85741544Y-75426784D01*
X85673624Y-75262812D01*
X85639000Y-75088741D01*
X85639000Y-74911259D01*
X85673624Y-74737188D01*
X85741544Y-74573216D01*
X85840147Y-74425646D01*
X85965646Y-74300147D01*
X86113216Y-74201544D01*
X86277188Y-74133624D01*
X86426488Y-74103927D01*
X86451258Y-74099000D01*
X86628742Y-74099000D01*
X86653512Y-74103927D01*
G37*
G36*
X90619807Y-71278498D02*
G01*
X90657818Y-71290029D01*
X90692842Y-71308749D01*
X90723549Y-71333951D01*
X90748751Y-71364658D01*
X90767471Y-71399682D01*
X90779002Y-71437693D01*
X90783500Y-71483363D01*
X90783500Y-74566637D01*
X90779002Y-74612307D01*
X90767471Y-74650318D01*
X90748751Y-74685342D01*
X90723549Y-74716049D01*
X90692842Y-74741251D01*
X90657818Y-74759971D01*
X90619807Y-74771502D01*
X90574137Y-74776000D01*
X89765863Y-74776000D01*
X89720193Y-74771502D01*
X89682182Y-74759971D01*
X89647158Y-74741251D01*
X89616451Y-74716049D01*
X89591249Y-74685342D01*
X89572529Y-74650318D01*
X89560998Y-74612307D01*
X89556500Y-74566637D01*
X89556500Y-71483363D01*
X89560998Y-71437693D01*
X89572529Y-71399682D01*
X89591249Y-71364658D01*
X89616451Y-71333951D01*
X89647158Y-71308749D01*
X89682182Y-71290029D01*
X89720193Y-71278498D01*
X89765863Y-71274000D01*
X90574137Y-71274000D01*
X90619807Y-71278498D01*
G37*
G36*
X94894807Y-71278498D02*
G01*
X94932818Y-71290029D01*
X94967842Y-71308749D01*
X94998549Y-71333951D01*
X95023751Y-71364658D01*
X95042471Y-71399682D01*
X95054002Y-71437693D01*
X95058500Y-71483363D01*
X95058500Y-74566637D01*
X95054002Y-74612307D01*
X95042471Y-74650318D01*
X95023751Y-74685342D01*
X94998549Y-74716049D01*
X94967842Y-74741251D01*
X94932818Y-74759971D01*
X94894807Y-74771502D01*
X94849137Y-74776000D01*
X94040863Y-74776000D01*
X93995193Y-74771502D01*
X93957182Y-74759971D01*
X93922158Y-74741251D01*
X93891451Y-74716049D01*
X93866249Y-74685342D01*
X93847529Y-74650318D01*
X93835998Y-74612307D01*
X93831500Y-74566637D01*
X93831500Y-71483363D01*
X93835998Y-71437693D01*
X93847529Y-71399682D01*
X93866249Y-71364658D01*
X93891451Y-71333951D01*
X93922158Y-71308749D01*
X93957182Y-71290029D01*
X93995193Y-71278498D01*
X94040863Y-71274000D01*
X94849137Y-71274000D01*
X94894807Y-71278498D01*
G37*
G36*
X105009928Y-73946764D02*
G01*
X105031009Y-73953160D01*
X105050445Y-73963548D01*
X105067476Y-73977524D01*
X105081452Y-73994555D01*
X105091840Y-74013991D01*
X105098236Y-74035072D01*
X105101000Y-74063140D01*
X105101000Y-74526860D01*
X105098236Y-74554928D01*
X105091840Y-74576009D01*
X105081452Y-74595445D01*
X105067476Y-74612476D01*
X105050445Y-74626452D01*
X105031009Y-74636840D01*
X105009928Y-74643236D01*
X104981860Y-74646000D01*
X103518140Y-74646000D01*
X103490072Y-74643236D01*
X103468991Y-74636840D01*
X103449555Y-74626452D01*
X103432524Y-74612476D01*
X103418548Y-74595445D01*
X103408160Y-74576009D01*
X103401764Y-74554928D01*
X103399000Y-74526860D01*
X103399000Y-74063140D01*
X103401764Y-74035072D01*
X103408160Y-74013991D01*
X103418548Y-73994555D01*
X103432524Y-73977524D01*
X103449555Y-73963548D01*
X103468991Y-73953160D01*
X103490072Y-73946764D01*
X103518140Y-73944000D01*
X104981860Y-73944000D01*
X105009928Y-73946764D01*
G37*
G36*
X99709928Y-73946764D02*
G01*
X99731009Y-73953160D01*
X99750445Y-73963548D01*
X99767476Y-73977524D01*
X99781452Y-73994555D01*
X99791840Y-74013991D01*
X99798236Y-74035072D01*
X99801000Y-74063140D01*
X99801000Y-74526860D01*
X99798236Y-74554928D01*
X99791840Y-74576009D01*
X99781452Y-74595445D01*
X99767476Y-74612476D01*
X99750445Y-74626452D01*
X99731009Y-74636840D01*
X99709928Y-74643236D01*
X99681860Y-74646000D01*
X98218140Y-74646000D01*
X98190072Y-74643236D01*
X98168991Y-74636840D01*
X98149555Y-74626452D01*
X98132524Y-74612476D01*
X98118548Y-74595445D01*
X98108160Y-74576009D01*
X98101764Y-74554928D01*
X98099000Y-74526860D01*
X98099000Y-74063140D01*
X98101764Y-74035072D01*
X98108160Y-74013991D01*
X98118548Y-73994555D01*
X98132524Y-73977524D01*
X98149555Y-73963548D01*
X98168991Y-73953160D01*
X98190072Y-73946764D01*
X98218140Y-73944000D01*
X99681860Y-73944000D01*
X99709928Y-73946764D01*
G37*
G36*
X102725285Y-70792710D02*
G01*
X102755611Y-70801909D01*
X102783557Y-70816847D01*
X102808051Y-70836949D01*
X102828153Y-70861443D01*
X102843091Y-70889389D01*
X102852290Y-70919715D01*
X102856000Y-70957386D01*
X102856000Y-73822614D01*
X102852290Y-73860285D01*
X102843091Y-73890611D01*
X102828153Y-73918557D01*
X102808051Y-73943051D01*
X102783557Y-73963153D01*
X102755611Y-73978091D01*
X102725285Y-73987290D01*
X102687614Y-73991000D01*
X100512386Y-73991000D01*
X100474715Y-73987290D01*
X100444389Y-73978091D01*
X100416443Y-73963153D01*
X100391949Y-73943051D01*
X100371847Y-73918557D01*
X100356909Y-73890611D01*
X100347710Y-73860285D01*
X100344000Y-73822614D01*
X100344000Y-70957386D01*
X100347710Y-70919715D01*
X100356909Y-70889389D01*
X100371847Y-70861443D01*
X100391949Y-70836949D01*
X100416443Y-70816847D01*
X100444389Y-70801909D01*
X100474715Y-70792710D01*
X100512386Y-70789000D01*
X102687614Y-70789000D01*
X102725285Y-70792710D01*
G37*
G36*
X128901000Y-73926000D02*
G01*
X127099000Y-73926000D01*
X127099000Y-72124000D01*
X128901000Y-72124000D01*
X128901000Y-73926000D01*
G37*
G36*
X109980589Y-72263876D02*
G01*
X110079893Y-72283629D01*
X110220206Y-72341748D01*
X110346484Y-72426125D01*
X110453875Y-72533516D01*
X110538252Y-72659794D01*
X110596371Y-72800107D01*
X110616124Y-72899411D01*
X110623774Y-72937869D01*
X110626000Y-72949063D01*
X110626000Y-73100937D01*
X110596371Y-73249893D01*
X110538252Y-73390206D01*
X110453875Y-73516484D01*
X110346484Y-73623875D01*
X110220206Y-73708252D01*
X110079893Y-73766371D01*
X110007760Y-73780719D01*
X109930938Y-73796000D01*
X109779062Y-73796000D01*
X109702240Y-73780719D01*
X109630107Y-73766371D01*
X109489794Y-73708252D01*
X109363516Y-73623875D01*
X109256125Y-73516484D01*
X109171748Y-73390206D01*
X109113629Y-73249893D01*
X109084000Y-73100937D01*
X109084000Y-72949063D01*
X109086227Y-72937869D01*
X109093876Y-72899411D01*
X109113629Y-72800107D01*
X109171748Y-72659794D01*
X109256125Y-72533516D01*
X109363516Y-72426125D01*
X109489794Y-72341748D01*
X109630107Y-72283629D01*
X109729411Y-72263876D01*
X109779062Y-72254000D01*
X109930938Y-72254000D01*
X109980589Y-72263876D01*
G37*
G36*
X105009928Y-72676764D02*
G01*
X105031009Y-72683160D01*
X105050445Y-72693548D01*
X105067476Y-72707524D01*
X105081452Y-72724555D01*
X105091840Y-72743991D01*
X105098236Y-72765072D01*
X105101000Y-72793140D01*
X105101000Y-73256860D01*
X105098236Y-73284928D01*
X105091840Y-73306009D01*
X105081452Y-73325445D01*
X105067476Y-73342476D01*
X105050445Y-73356452D01*
X105031009Y-73366840D01*
X105009928Y-73373236D01*
X104981860Y-73376000D01*
X103518140Y-73376000D01*
X103490072Y-73373236D01*
X103468991Y-73366840D01*
X103449555Y-73356452D01*
X103432524Y-73342476D01*
X103418548Y-73325445D01*
X103408160Y-73306009D01*
X103401764Y-73284928D01*
X103399000Y-73256860D01*
X103399000Y-72793140D01*
X103401764Y-72765072D01*
X103408160Y-72743991D01*
X103418548Y-72724555D01*
X103432524Y-72707524D01*
X103449555Y-72693548D01*
X103468991Y-72683160D01*
X103490072Y-72676764D01*
X103518140Y-72674000D01*
X104981860Y-72674000D01*
X105009928Y-72676764D01*
G37*
G36*
X99709928Y-72676764D02*
G01*
X99731009Y-72683160D01*
X99750445Y-72693548D01*
X99767476Y-72707524D01*
X99781452Y-72724555D01*
X99791840Y-72743991D01*
X99798236Y-72765072D01*
X99801000Y-72793140D01*
X99801000Y-73256860D01*
X99798236Y-73284928D01*
X99791840Y-73306009D01*
X99781452Y-73325445D01*
X99767476Y-73342476D01*
X99750445Y-73356452D01*
X99731009Y-73366840D01*
X99709928Y-73373236D01*
X99681860Y-73376000D01*
X98218140Y-73376000D01*
X98190072Y-73373236D01*
X98168991Y-73366840D01*
X98149555Y-73356452D01*
X98132524Y-73342476D01*
X98118548Y-73325445D01*
X98108160Y-73306009D01*
X98101764Y-73284928D01*
X98099000Y-73256860D01*
X98099000Y-72793140D01*
X98101764Y-72765072D01*
X98108160Y-72743991D01*
X98118548Y-72724555D01*
X98132524Y-72707524D01*
X98149555Y-72693548D01*
X98168991Y-72683160D01*
X98190072Y-72676764D01*
X98218140Y-72674000D01*
X99681860Y-72674000D01*
X99709928Y-72676764D01*
G37*
G36*
X119520562Y-71630681D02*
G01*
X119555481Y-71641274D01*
X119587663Y-71658476D01*
X119615873Y-71681627D01*
X119639024Y-71709837D01*
X119656226Y-71742019D01*
X119666819Y-71776938D01*
X119671000Y-71819395D01*
X119671000Y-72960605D01*
X119666819Y-73003062D01*
X119656226Y-73037981D01*
X119639024Y-73070163D01*
X119615873Y-73098373D01*
X119587663Y-73121524D01*
X119555481Y-73138726D01*
X119520562Y-73149319D01*
X119478105Y-73153500D01*
X118011895Y-73153500D01*
X117969438Y-73149319D01*
X117934519Y-73138726D01*
X117902337Y-73121524D01*
X117874127Y-73098373D01*
X117850976Y-73070163D01*
X117833774Y-73037981D01*
X117823181Y-73003062D01*
X117819000Y-72960605D01*
X117819000Y-71819395D01*
X117823181Y-71776938D01*
X117833774Y-71742019D01*
X117850976Y-71709837D01*
X117874127Y-71681627D01*
X117902337Y-71658476D01*
X117934519Y-71641274D01*
X117969438Y-71630681D01*
X118011895Y-71626500D01*
X119478105Y-71626500D01*
X119520562Y-71630681D01*
G37*
G36*
X105009928Y-71406764D02*
G01*
X105031009Y-71413160D01*
X105050445Y-71423548D01*
X105067476Y-71437524D01*
X105081452Y-71454555D01*
X105091840Y-71473991D01*
X105098236Y-71495072D01*
X105101000Y-71523140D01*
X105101000Y-71986860D01*
X105098236Y-72014928D01*
X105091840Y-72036009D01*
X105081452Y-72055445D01*
X105067476Y-72072476D01*
X105050445Y-72086452D01*
X105031009Y-72096840D01*
X105009928Y-72103236D01*
X104981860Y-72106000D01*
X103518140Y-72106000D01*
X103490072Y-72103236D01*
X103468991Y-72096840D01*
X103449555Y-72086452D01*
X103432524Y-72072476D01*
X103418548Y-72055445D01*
X103408160Y-72036009D01*
X103401764Y-72014928D01*
X103399000Y-71986860D01*
X103399000Y-71523140D01*
X103401764Y-71495072D01*
X103408160Y-71473991D01*
X103418548Y-71454555D01*
X103432524Y-71437524D01*
X103449555Y-71423548D01*
X103468991Y-71413160D01*
X103490072Y-71406764D01*
X103518140Y-71404000D01*
X104981860Y-71404000D01*
X105009928Y-71406764D01*
G37*
G36*
X99709928Y-71406764D02*
G01*
X99731009Y-71413160D01*
X99750445Y-71423548D01*
X99767476Y-71437524D01*
X99781452Y-71454555D01*
X99791840Y-71473991D01*
X99798236Y-71495072D01*
X99801000Y-71523140D01*
X99801000Y-71986860D01*
X99798236Y-72014928D01*
X99791840Y-72036009D01*
X99781452Y-72055445D01*
X99767476Y-72072476D01*
X99750445Y-72086452D01*
X99731009Y-72096840D01*
X99709928Y-72103236D01*
X99681860Y-72106000D01*
X98218140Y-72106000D01*
X98190072Y-72103236D01*
X98168991Y-72096840D01*
X98149555Y-72086452D01*
X98132524Y-72072476D01*
X98118548Y-72055445D01*
X98108160Y-72036009D01*
X98101764Y-72014928D01*
X98099000Y-71986860D01*
X98099000Y-71523140D01*
X98101764Y-71495072D01*
X98108160Y-71473991D01*
X98118548Y-71454555D01*
X98132524Y-71437524D01*
X98149555Y-71423548D01*
X98168991Y-71413160D01*
X98190072Y-71406764D01*
X98218140Y-71404000D01*
X99681860Y-71404000D01*
X99709928Y-71406764D01*
G37*
G36*
X128113512Y-69588927D02*
G01*
X128262812Y-69618624D01*
X128426784Y-69686544D01*
X128574354Y-69785147D01*
X128699853Y-69910646D01*
X128798456Y-70058216D01*
X128866376Y-70222188D01*
X128901000Y-70396259D01*
X128901000Y-70573741D01*
X128866376Y-70747812D01*
X128798456Y-70911784D01*
X128699853Y-71059354D01*
X128574354Y-71184853D01*
X128426784Y-71283456D01*
X128262812Y-71351376D01*
X128113512Y-71381073D01*
X128088742Y-71386000D01*
X127911258Y-71386000D01*
X127886488Y-71381073D01*
X127737188Y-71351376D01*
X127573216Y-71283456D01*
X127425646Y-71184853D01*
X127300147Y-71059354D01*
X127201544Y-70911784D01*
X127133624Y-70747812D01*
X127099000Y-70573741D01*
X127099000Y-70396259D01*
X127133624Y-70222188D01*
X127201544Y-70058216D01*
X127300147Y-69910646D01*
X127425646Y-69785147D01*
X127573216Y-69686544D01*
X127737188Y-69618624D01*
X127886488Y-69588927D01*
X127911258Y-69584000D01*
X128088742Y-69584000D01*
X128113512Y-69588927D01*
G37*
G36*
X112520589Y-69723876D02*
G01*
X112619893Y-69743629D01*
X112760206Y-69801748D01*
X112886484Y-69886125D01*
X112993875Y-69993516D01*
X113078252Y-70119794D01*
X113136371Y-70260107D01*
X113166000Y-70409063D01*
X113166000Y-70560937D01*
X113136371Y-70709893D01*
X113078252Y-70850206D01*
X112993875Y-70976484D01*
X112886484Y-71083875D01*
X112760206Y-71168252D01*
X112619893Y-71226371D01*
X112520589Y-71246124D01*
X112470938Y-71256000D01*
X112319062Y-71256000D01*
X112269411Y-71246124D01*
X112170107Y-71226371D01*
X112029794Y-71168252D01*
X111903516Y-71083875D01*
X111796125Y-70976484D01*
X111711748Y-70850206D01*
X111653629Y-70709893D01*
X111624000Y-70560937D01*
X111624000Y-70409063D01*
X111653629Y-70260107D01*
X111711748Y-70119794D01*
X111796125Y-69993516D01*
X111903516Y-69886125D01*
X112029794Y-69801748D01*
X112170107Y-69743629D01*
X112269411Y-69723876D01*
X112319062Y-69714000D01*
X112470938Y-69714000D01*
X112520589Y-69723876D01*
G37*
G36*
X107440589Y-69723876D02*
G01*
X107539893Y-69743629D01*
X107680206Y-69801748D01*
X107806484Y-69886125D01*
X107913875Y-69993516D01*
X107998252Y-70119794D01*
X108056371Y-70260107D01*
X108086000Y-70409063D01*
X108086000Y-70560937D01*
X108056371Y-70709893D01*
X107998252Y-70850206D01*
X107913875Y-70976484D01*
X107806484Y-71083875D01*
X107680206Y-71168252D01*
X107539893Y-71226371D01*
X107440589Y-71246124D01*
X107390938Y-71256000D01*
X107239062Y-71256000D01*
X107189411Y-71246124D01*
X107090107Y-71226371D01*
X106949794Y-71168252D01*
X106823516Y-71083875D01*
X106716125Y-70976484D01*
X106631748Y-70850206D01*
X106573629Y-70709893D01*
X106544000Y-70560937D01*
X106544000Y-70409063D01*
X106573629Y-70260107D01*
X106631748Y-70119794D01*
X106716125Y-69993516D01*
X106823516Y-69886125D01*
X106949794Y-69801748D01*
X107090107Y-69743629D01*
X107189411Y-69723876D01*
X107239062Y-69714000D01*
X107390938Y-69714000D01*
X107440589Y-69723876D01*
G37*
G36*
X84113512Y-69183927D02*
G01*
X84262812Y-69213624D01*
X84426784Y-69281544D01*
X84574354Y-69380147D01*
X84699853Y-69505646D01*
X84798456Y-69653216D01*
X84866376Y-69817188D01*
X84887894Y-69925369D01*
X84901000Y-69991258D01*
X84901000Y-70168742D01*
X84897686Y-70185403D01*
X84866376Y-70342812D01*
X84798456Y-70506784D01*
X84699853Y-70654354D01*
X84574354Y-70779853D01*
X84426784Y-70878456D01*
X84262812Y-70946376D01*
X84113512Y-70976073D01*
X84088742Y-70981000D01*
X83911258Y-70981000D01*
X83886488Y-70976073D01*
X83737188Y-70946376D01*
X83573216Y-70878456D01*
X83425646Y-70779853D01*
X83300147Y-70654354D01*
X83201544Y-70506784D01*
X83133624Y-70342812D01*
X83102314Y-70185403D01*
X83099000Y-70168742D01*
X83099000Y-69991258D01*
X83112106Y-69925369D01*
X83133624Y-69817188D01*
X83201544Y-69653216D01*
X83300147Y-69505646D01*
X83425646Y-69380147D01*
X83573216Y-69281544D01*
X83737188Y-69213624D01*
X83886488Y-69183927D01*
X83911258Y-69179000D01*
X84088742Y-69179000D01*
X84113512Y-69183927D01*
G37*
G36*
X86653512Y-69183927D02*
G01*
X86802812Y-69213624D01*
X86966784Y-69281544D01*
X87114354Y-69380147D01*
X87239853Y-69505646D01*
X87338456Y-69653216D01*
X87406376Y-69817188D01*
X87427894Y-69925369D01*
X87441000Y-69991258D01*
X87441000Y-70168742D01*
X87437686Y-70185403D01*
X87406376Y-70342812D01*
X87338456Y-70506784D01*
X87239853Y-70654354D01*
X87114354Y-70779853D01*
X86966784Y-70878456D01*
X86802812Y-70946376D01*
X86653512Y-70976073D01*
X86628742Y-70981000D01*
X86451258Y-70981000D01*
X86426488Y-70976073D01*
X86277188Y-70946376D01*
X86113216Y-70878456D01*
X85965646Y-70779853D01*
X85840147Y-70654354D01*
X85741544Y-70506784D01*
X85673624Y-70342812D01*
X85642314Y-70185403D01*
X85639000Y-70168742D01*
X85639000Y-69991258D01*
X85652106Y-69925369D01*
X85673624Y-69817188D01*
X85741544Y-69653216D01*
X85840147Y-69505646D01*
X85965646Y-69380147D01*
X86113216Y-69281544D01*
X86277188Y-69213624D01*
X86426488Y-69183927D01*
X86451258Y-69179000D01*
X86628742Y-69179000D01*
X86653512Y-69183927D01*
G37*
G36*
X99709928Y-70136764D02*
G01*
X99731009Y-70143160D01*
X99750445Y-70153548D01*
X99767476Y-70167524D01*
X99781452Y-70184555D01*
X99791840Y-70203991D01*
X99798236Y-70225072D01*
X99801000Y-70253140D01*
X99801000Y-70716860D01*
X99798236Y-70744928D01*
X99791840Y-70766009D01*
X99781452Y-70785445D01*
X99767476Y-70802476D01*
X99750445Y-70816452D01*
X99731009Y-70826840D01*
X99709928Y-70833236D01*
X99681860Y-70836000D01*
X98218140Y-70836000D01*
X98190072Y-70833236D01*
X98168991Y-70826840D01*
X98149555Y-70816452D01*
X98132524Y-70802476D01*
X98118548Y-70785445D01*
X98108160Y-70766009D01*
X98101764Y-70744928D01*
X98099000Y-70716860D01*
X98099000Y-70253140D01*
X98101764Y-70225072D01*
X98108160Y-70203991D01*
X98118548Y-70184555D01*
X98132524Y-70167524D01*
X98149555Y-70153548D01*
X98168991Y-70143160D01*
X98190072Y-70136764D01*
X98218140Y-70134000D01*
X99681860Y-70134000D01*
X99709928Y-70136764D01*
G37*
G36*
X105009928Y-70136764D02*
G01*
X105031009Y-70143160D01*
X105050445Y-70153548D01*
X105067476Y-70167524D01*
X105081452Y-70184555D01*
X105091840Y-70203991D01*
X105098236Y-70225072D01*
X105101000Y-70253140D01*
X105101000Y-70716860D01*
X105098236Y-70744928D01*
X105091840Y-70766009D01*
X105081452Y-70785445D01*
X105067476Y-70802476D01*
X105050445Y-70816452D01*
X105031009Y-70826840D01*
X105009928Y-70833236D01*
X104981860Y-70836000D01*
X103518140Y-70836000D01*
X103490072Y-70833236D01*
X103468991Y-70826840D01*
X103449555Y-70816452D01*
X103432524Y-70802476D01*
X103418548Y-70785445D01*
X103408160Y-70766009D01*
X103401764Y-70744928D01*
X103399000Y-70716860D01*
X103399000Y-70253140D01*
X103401764Y-70225072D01*
X103408160Y-70203991D01*
X103418548Y-70184555D01*
X103432524Y-70167524D01*
X103449555Y-70153548D01*
X103468991Y-70143160D01*
X103490072Y-70136764D01*
X103518140Y-70134000D01*
X104981860Y-70134000D01*
X105009928Y-70136764D01*
G37*
G36*
X116818062Y-68293181D02*
G01*
X116852981Y-68303774D01*
X116885163Y-68320976D01*
X116913373Y-68344127D01*
X116936524Y-68372337D01*
X116953726Y-68404519D01*
X116964319Y-68439438D01*
X116968500Y-68481895D01*
X116968500Y-69948105D01*
X116964319Y-69990562D01*
X116953726Y-70025481D01*
X116936524Y-70057663D01*
X116913373Y-70085873D01*
X116885163Y-70109024D01*
X116852981Y-70126226D01*
X116818062Y-70136819D01*
X116775605Y-70141000D01*
X115634395Y-70141000D01*
X115591938Y-70136819D01*
X115557019Y-70126226D01*
X115524837Y-70109024D01*
X115496627Y-70085873D01*
X115473476Y-70057663D01*
X115456274Y-70025481D01*
X115445681Y-69990562D01*
X115441500Y-69948105D01*
X115441500Y-68481895D01*
X115445681Y-68439438D01*
X115456274Y-68404519D01*
X115473476Y-68372337D01*
X115496627Y-68344127D01*
X115524837Y-68320976D01*
X115557019Y-68303774D01*
X115591938Y-68293181D01*
X115634395Y-68289000D01*
X116775605Y-68289000D01*
X116818062Y-68293181D01*
G37*
G36*
X119793062Y-68293181D02*
G01*
X119827981Y-68303774D01*
X119860163Y-68320976D01*
X119888373Y-68344127D01*
X119911524Y-68372337D01*
X119928726Y-68404519D01*
X119939319Y-68439438D01*
X119943500Y-68481895D01*
X119943500Y-69948105D01*
X119939319Y-69990562D01*
X119928726Y-70025481D01*
X119911524Y-70057663D01*
X119888373Y-70085873D01*
X119860163Y-70109024D01*
X119827981Y-70126226D01*
X119793062Y-70136819D01*
X119750605Y-70141000D01*
X118609395Y-70141000D01*
X118566938Y-70136819D01*
X118532019Y-70126226D01*
X118499837Y-70109024D01*
X118471627Y-70085873D01*
X118448476Y-70057663D01*
X118431274Y-70025481D01*
X118420681Y-69990562D01*
X118416500Y-69948105D01*
X118416500Y-68481895D01*
X118420681Y-68439438D01*
X118431274Y-68404519D01*
X118448476Y-68372337D01*
X118471627Y-68344127D01*
X118499837Y-68320976D01*
X118532019Y-68303774D01*
X118566938Y-68293181D01*
X118609395Y-68289000D01*
X119750605Y-68289000D01*
X119793062Y-68293181D01*
G37*
G36*
X86653512Y-66643927D02*
G01*
X86802812Y-66673624D01*
X86966784Y-66741544D01*
X87114354Y-66840147D01*
X87239853Y-66965646D01*
X87338456Y-67113216D01*
X87406376Y-67277188D01*
X87441000Y-67451259D01*
X87441000Y-67628741D01*
X87406376Y-67802812D01*
X87338456Y-67966784D01*
X87239853Y-68114354D01*
X87114354Y-68239853D01*
X86966784Y-68338456D01*
X86802812Y-68406376D01*
X86653512Y-68436073D01*
X86628742Y-68441000D01*
X86451258Y-68441000D01*
X86426488Y-68436073D01*
X86277188Y-68406376D01*
X86113216Y-68338456D01*
X85965646Y-68239853D01*
X85840147Y-68114354D01*
X85741544Y-67966784D01*
X85673624Y-67802812D01*
X85639000Y-67628741D01*
X85639000Y-67451259D01*
X85673624Y-67277188D01*
X85741544Y-67113216D01*
X85840147Y-66965646D01*
X85965646Y-66840147D01*
X86113216Y-66741544D01*
X86277188Y-66673624D01*
X86426488Y-66643927D01*
X86451258Y-66639000D01*
X86628742Y-66639000D01*
X86653512Y-66643927D01*
G37*
G36*
X84113512Y-66643927D02*
G01*
X84262812Y-66673624D01*
X84426784Y-66741544D01*
X84574354Y-66840147D01*
X84699853Y-66965646D01*
X84798456Y-67113216D01*
X84866376Y-67277188D01*
X84901000Y-67451259D01*
X84901000Y-67628741D01*
X84866376Y-67802812D01*
X84798456Y-67966784D01*
X84699853Y-68114354D01*
X84574354Y-68239853D01*
X84426784Y-68338456D01*
X84262812Y-68406376D01*
X84113512Y-68436073D01*
X84088742Y-68441000D01*
X83911258Y-68441000D01*
X83886488Y-68436073D01*
X83737188Y-68406376D01*
X83573216Y-68338456D01*
X83425646Y-68239853D01*
X83300147Y-68114354D01*
X83201544Y-67966784D01*
X83133624Y-67802812D01*
X83099000Y-67628741D01*
X83099000Y-67451259D01*
X83133624Y-67277188D01*
X83201544Y-67113216D01*
X83300147Y-66965646D01*
X83425646Y-66840147D01*
X83573216Y-66741544D01*
X83737188Y-66673624D01*
X83886488Y-66643927D01*
X83911258Y-66639000D01*
X84088742Y-66639000D01*
X84113512Y-66643927D01*
G37*
G36*
X124971000Y-67296000D02*
G01*
X124169000Y-67296000D01*
X124169000Y-66684000D01*
X124971000Y-66684000D01*
X124971000Y-67296000D01*
G37*
G36*
X127291000Y-67296000D02*
G01*
X126489000Y-67296000D01*
X126489000Y-66684000D01*
X127291000Y-66684000D01*
X127291000Y-67296000D01*
G37*
G36*
X124971000Y-66346000D02*
G01*
X124169000Y-66346000D01*
X124169000Y-65734000D01*
X124971000Y-65734000D01*
X124971000Y-66346000D01*
G37*
G36*
X127291000Y-66346000D02*
G01*
X126489000Y-66346000D01*
X126489000Y-65734000D01*
X127291000Y-65734000D01*
X127291000Y-66346000D01*
G37*
G36*
X119793062Y-64483181D02*
G01*
X119827981Y-64493774D01*
X119860163Y-64510976D01*
X119888373Y-64534127D01*
X119911524Y-64562337D01*
X119928726Y-64594519D01*
X119939319Y-64629438D01*
X119943500Y-64671895D01*
X119943500Y-66138105D01*
X119939319Y-66180562D01*
X119928726Y-66215481D01*
X119911524Y-66247663D01*
X119888373Y-66275873D01*
X119860163Y-66299024D01*
X119827981Y-66316226D01*
X119793062Y-66326819D01*
X119750605Y-66331000D01*
X118609395Y-66331000D01*
X118566938Y-66326819D01*
X118532019Y-66316226D01*
X118499837Y-66299024D01*
X118471627Y-66275873D01*
X118448476Y-66247663D01*
X118431274Y-66215481D01*
X118420681Y-66180562D01*
X118416500Y-66138105D01*
X118416500Y-64671895D01*
X118420681Y-64629438D01*
X118431274Y-64594519D01*
X118448476Y-64562337D01*
X118471627Y-64534127D01*
X118499837Y-64510976D01*
X118532019Y-64493774D01*
X118566938Y-64483181D01*
X118609395Y-64479000D01*
X119750605Y-64479000D01*
X119793062Y-64483181D01*
G37*
G36*
X116818062Y-64483181D02*
G01*
X116852981Y-64493774D01*
X116885163Y-64510976D01*
X116913373Y-64534127D01*
X116936524Y-64562337D01*
X116953726Y-64594519D01*
X116964319Y-64629438D01*
X116968500Y-64671895D01*
X116968500Y-66138105D01*
X116964319Y-66180562D01*
X116953726Y-66215481D01*
X116936524Y-66247663D01*
X116913373Y-66275873D01*
X116885163Y-66299024D01*
X116852981Y-66316226D01*
X116818062Y-66326819D01*
X116775605Y-66331000D01*
X115634395Y-66331000D01*
X115591938Y-66326819D01*
X115557019Y-66316226D01*
X115524837Y-66299024D01*
X115496627Y-66275873D01*
X115473476Y-66247663D01*
X115456274Y-66215481D01*
X115445681Y-66180562D01*
X115441500Y-66138105D01*
X115441500Y-64671895D01*
X115445681Y-64629438D01*
X115456274Y-64594519D01*
X115473476Y-64562337D01*
X115496627Y-64534127D01*
X115524837Y-64510976D01*
X115557019Y-64493774D01*
X115591938Y-64483181D01*
X115634395Y-64479000D01*
X116775605Y-64479000D01*
X116818062Y-64483181D01*
G37*
G36*
X86653512Y-64103927D02*
G01*
X86802812Y-64133624D01*
X86966784Y-64201544D01*
X87114354Y-64300147D01*
X87239853Y-64425646D01*
X87338456Y-64573216D01*
X87406376Y-64737188D01*
X87441000Y-64911259D01*
X87441000Y-65088741D01*
X87406376Y-65262812D01*
X87338456Y-65426784D01*
X87239853Y-65574354D01*
X87114354Y-65699853D01*
X86966784Y-65798456D01*
X86802812Y-65866376D01*
X86653512Y-65896073D01*
X86628742Y-65901000D01*
X86451258Y-65901000D01*
X86426488Y-65896073D01*
X86277188Y-65866376D01*
X86113216Y-65798456D01*
X85965646Y-65699853D01*
X85840147Y-65574354D01*
X85741544Y-65426784D01*
X85673624Y-65262812D01*
X85639000Y-65088741D01*
X85639000Y-64911259D01*
X85673624Y-64737188D01*
X85741544Y-64573216D01*
X85840147Y-64425646D01*
X85965646Y-64300147D01*
X86113216Y-64201544D01*
X86277188Y-64133624D01*
X86426488Y-64103927D01*
X86451258Y-64099000D01*
X86628742Y-64099000D01*
X86653512Y-64103927D01*
G37*
G36*
X84901000Y-65901000D02*
G01*
X83099000Y-65901000D01*
X83099000Y-64099000D01*
X84901000Y-64099000D01*
X84901000Y-65901000D01*
G37*
G36*
X127291000Y-65396000D02*
G01*
X126489000Y-65396000D01*
X126489000Y-64784000D01*
X127291000Y-64784000D01*
X127291000Y-65396000D01*
G37*
G36*
X124971000Y-65396000D02*
G01*
X124169000Y-65396000D01*
X124169000Y-64784000D01*
X124971000Y-64784000D01*
X124971000Y-65396000D01*
G37*
G36*
X112266000Y-64906000D02*
G01*
X102764000Y-64906000D01*
X102764000Y-54004000D01*
X112266000Y-54004000D01*
X112266000Y-64906000D01*
G37*
G36*
X100716000Y-62596000D02*
G01*
X96014000Y-62596000D01*
X96014000Y-61394000D01*
X100716000Y-61394000D01*
X100716000Y-62596000D01*
G37*
G36*
X119062307Y-60985998D02*
G01*
X119100318Y-60997529D01*
X119135342Y-61016249D01*
X119166049Y-61041451D01*
X119191251Y-61072158D01*
X119209971Y-61107182D01*
X119221502Y-61145193D01*
X119226000Y-61190863D01*
X119226000Y-61999137D01*
X119221502Y-62044807D01*
X119209971Y-62082818D01*
X119191251Y-62117842D01*
X119166049Y-62148549D01*
X119135342Y-62173751D01*
X119100318Y-62192471D01*
X119062307Y-62204002D01*
X119016637Y-62208500D01*
X115933363Y-62208500D01*
X115887693Y-62204002D01*
X115849682Y-62192471D01*
X115814658Y-62173751D01*
X115783951Y-62148549D01*
X115758749Y-62117842D01*
X115740029Y-62082818D01*
X115728498Y-62044807D01*
X115724000Y-61999137D01*
X115724000Y-61190863D01*
X115728498Y-61145193D01*
X115740029Y-61107182D01*
X115758749Y-61072158D01*
X115783951Y-61041451D01*
X115814658Y-61016249D01*
X115849682Y-60997529D01*
X115887693Y-60985998D01*
X115933363Y-60981500D01*
X119016637Y-60981500D01*
X119062307Y-60985998D01*
G37*
G36*
X86653512Y-59103927D02*
G01*
X86802812Y-59133624D01*
X86966784Y-59201544D01*
X87114354Y-59300147D01*
X87239853Y-59425646D01*
X87338456Y-59573216D01*
X87406376Y-59737188D01*
X87441000Y-59911259D01*
X87441000Y-60088741D01*
X87406376Y-60262812D01*
X87338456Y-60426784D01*
X87239853Y-60574354D01*
X87114354Y-60699853D01*
X86966784Y-60798456D01*
X86802812Y-60866376D01*
X86653512Y-60896073D01*
X86628742Y-60901000D01*
X86451258Y-60901000D01*
X86426488Y-60896073D01*
X86277188Y-60866376D01*
X86113216Y-60798456D01*
X85965646Y-60699853D01*
X85840147Y-60574354D01*
X85741544Y-60426784D01*
X85673624Y-60262812D01*
X85639000Y-60088741D01*
X85639000Y-59911259D01*
X85673624Y-59737188D01*
X85741544Y-59573216D01*
X85840147Y-59425646D01*
X85965646Y-59300147D01*
X86113216Y-59201544D01*
X86277188Y-59133624D01*
X86426488Y-59103927D01*
X86451258Y-59099000D01*
X86628742Y-59099000D01*
X86653512Y-59103927D01*
G37*
G36*
X84901000Y-60901000D02*
G01*
X83099000Y-60901000D01*
X83099000Y-59099000D01*
X84901000Y-59099000D01*
X84901000Y-60901000D01*
G37*
G36*
X119062307Y-56710998D02*
G01*
X119100318Y-56722529D01*
X119135342Y-56741249D01*
X119166049Y-56766451D01*
X119191251Y-56797158D01*
X119209971Y-56832182D01*
X119221502Y-56870193D01*
X119226000Y-56915863D01*
X119226000Y-57724137D01*
X119221502Y-57769807D01*
X119209971Y-57807818D01*
X119191251Y-57842842D01*
X119166049Y-57873549D01*
X119135342Y-57898751D01*
X119100318Y-57917471D01*
X119062307Y-57929002D01*
X119016637Y-57933500D01*
X115933363Y-57933500D01*
X115887693Y-57929002D01*
X115849682Y-57917471D01*
X115814658Y-57898751D01*
X115783951Y-57873549D01*
X115758749Y-57842842D01*
X115740029Y-57807818D01*
X115728498Y-57769807D01*
X115724000Y-57724137D01*
X115724000Y-56915863D01*
X115728498Y-56870193D01*
X115740029Y-56832182D01*
X115758749Y-56797158D01*
X115783951Y-56766451D01*
X115814658Y-56741249D01*
X115849682Y-56722529D01*
X115887693Y-56710998D01*
X115933363Y-56706500D01*
X119016637Y-56706500D01*
X119062307Y-56710998D01*
G37*
G36*
X94297307Y-56370998D02*
G01*
X94335318Y-56382529D01*
X94370342Y-56401249D01*
X94401049Y-56426451D01*
X94426251Y-56457158D01*
X94444971Y-56492182D01*
X94456502Y-56530193D01*
X94461000Y-56575863D01*
X94461000Y-57384137D01*
X94456502Y-57429807D01*
X94444971Y-57467818D01*
X94426251Y-57502842D01*
X94401049Y-57533549D01*
X94370342Y-57558751D01*
X94335318Y-57577471D01*
X94297307Y-57589002D01*
X94251637Y-57593500D01*
X91168363Y-57593500D01*
X91122693Y-57589002D01*
X91084682Y-57577471D01*
X91049658Y-57558751D01*
X91018951Y-57533549D01*
X90993749Y-57502842D01*
X90975029Y-57467818D01*
X90963498Y-57429807D01*
X90959000Y-57384137D01*
X90959000Y-56575863D01*
X90963498Y-56530193D01*
X90975029Y-56492182D01*
X90993749Y-56457158D01*
X91018951Y-56426451D01*
X91049658Y-56401249D01*
X91084682Y-56382529D01*
X91122693Y-56370998D01*
X91168363Y-56366500D01*
X94251637Y-56366500D01*
X94297307Y-56370998D01*
G37*
G36*
X100716000Y-57516000D02*
G01*
X96014000Y-57516000D01*
X96014000Y-56314000D01*
X100716000Y-56314000D01*
X100716000Y-57516000D01*
G37*
G36*
X125653512Y-55103927D02*
G01*
X125802812Y-55133624D01*
X125966784Y-55201544D01*
X126114354Y-55300147D01*
X126239853Y-55425646D01*
X126338456Y-55573216D01*
X126406376Y-55737188D01*
X126441000Y-55911259D01*
X126441000Y-56088741D01*
X126406376Y-56262812D01*
X126338456Y-56426784D01*
X126239853Y-56574354D01*
X126114354Y-56699853D01*
X125966784Y-56798456D01*
X125802812Y-56866376D01*
X125653512Y-56896073D01*
X125628742Y-56901000D01*
X125451258Y-56901000D01*
X125426488Y-56896073D01*
X125277188Y-56866376D01*
X125113216Y-56798456D01*
X124965646Y-56699853D01*
X124840147Y-56574354D01*
X124741544Y-56426784D01*
X124673624Y-56262812D01*
X124639000Y-56088741D01*
X124639000Y-55911259D01*
X124673624Y-55737188D01*
X124741544Y-55573216D01*
X124840147Y-55425646D01*
X124965646Y-55300147D01*
X125113216Y-55201544D01*
X125277188Y-55133624D01*
X125426488Y-55103927D01*
X125451258Y-55099000D01*
X125628742Y-55099000D01*
X125653512Y-55103927D01*
G37*
G36*
X123901000Y-56901000D02*
G01*
X122099000Y-56901000D01*
X122099000Y-55099000D01*
X123901000Y-55099000D01*
X123901000Y-56901000D01*
G37*
G36*
X128193512Y-55103927D02*
G01*
X128342812Y-55133624D01*
X128506784Y-55201544D01*
X128654354Y-55300147D01*
X128779853Y-55425646D01*
X128878456Y-55573216D01*
X128946376Y-55737188D01*
X128981000Y-55911259D01*
X128981000Y-56088741D01*
X128946376Y-56262812D01*
X128878456Y-56426784D01*
X128779853Y-56574354D01*
X128654354Y-56699853D01*
X128506784Y-56798456D01*
X128342812Y-56866376D01*
X128193512Y-56896073D01*
X128168742Y-56901000D01*
X127991258Y-56901000D01*
X127966488Y-56896073D01*
X127817188Y-56866376D01*
X127653216Y-56798456D01*
X127505646Y-56699853D01*
X127380147Y-56574354D01*
X127281544Y-56426784D01*
X127213624Y-56262812D01*
X127179000Y-56088741D01*
X127179000Y-55911259D01*
X127213624Y-55737188D01*
X127281544Y-55573216D01*
X127380147Y-55425646D01*
X127505646Y-55300147D01*
X127653216Y-55201544D01*
X127817188Y-55133624D01*
X127966488Y-55103927D01*
X127991258Y-55099000D01*
X128168742Y-55099000D01*
X128193512Y-55103927D01*
G37*
G36*
X85913589Y-54933876D02*
G01*
X86012893Y-54953629D01*
X86153206Y-55011748D01*
X86279484Y-55096125D01*
X86386875Y-55203516D01*
X86471252Y-55329794D01*
X86529371Y-55470107D01*
X86559000Y-55619063D01*
X86559000Y-55770937D01*
X86529371Y-55919893D01*
X86471252Y-56060206D01*
X86386875Y-56186484D01*
X86279484Y-56293875D01*
X86153206Y-56378252D01*
X86012893Y-56436371D01*
X85913589Y-56456124D01*
X85863938Y-56466000D01*
X85712062Y-56466000D01*
X85662411Y-56456124D01*
X85563107Y-56436371D01*
X85422794Y-56378252D01*
X85296516Y-56293875D01*
X85189125Y-56186484D01*
X85104748Y-56060206D01*
X85046629Y-55919893D01*
X85017000Y-55770937D01*
X85017000Y-55619063D01*
X85046629Y-55470107D01*
X85104748Y-55329794D01*
X85189125Y-55203516D01*
X85296516Y-55096125D01*
X85422794Y-55011748D01*
X85563107Y-54953629D01*
X85662411Y-54933876D01*
X85712062Y-54924000D01*
X85863938Y-54924000D01*
X85913589Y-54933876D01*
G37*
G36*
X119358062Y-53053181D02*
G01*
X119392981Y-53063774D01*
X119425163Y-53080976D01*
X119453373Y-53104127D01*
X119476524Y-53132337D01*
X119493726Y-53164519D01*
X119504319Y-53199438D01*
X119508500Y-53241895D01*
X119508500Y-54708105D01*
X119504319Y-54750562D01*
X119493726Y-54785481D01*
X119476524Y-54817663D01*
X119453373Y-54845873D01*
X119425163Y-54869024D01*
X119392981Y-54886226D01*
X119358062Y-54896819D01*
X119315605Y-54901000D01*
X118174395Y-54901000D01*
X118131938Y-54896819D01*
X118097019Y-54886226D01*
X118064837Y-54869024D01*
X118036627Y-54845873D01*
X118013476Y-54817663D01*
X117996274Y-54785481D01*
X117985681Y-54750562D01*
X117981500Y-54708105D01*
X117981500Y-53241895D01*
X117985681Y-53199438D01*
X117996274Y-53164519D01*
X118013476Y-53132337D01*
X118036627Y-53104127D01*
X118064837Y-53080976D01*
X118097019Y-53063774D01*
X118131938Y-53053181D01*
X118174395Y-53049000D01*
X119315605Y-53049000D01*
X119358062Y-53053181D01*
G37*
G36*
X116383062Y-53053181D02*
G01*
X116417981Y-53063774D01*
X116450163Y-53080976D01*
X116478373Y-53104127D01*
X116501524Y-53132337D01*
X116518726Y-53164519D01*
X116529319Y-53199438D01*
X116533500Y-53241895D01*
X116533500Y-54708105D01*
X116529319Y-54750562D01*
X116518726Y-54785481D01*
X116501524Y-54817663D01*
X116478373Y-54845873D01*
X116450163Y-54869024D01*
X116417981Y-54886226D01*
X116383062Y-54896819D01*
X116340605Y-54901000D01*
X115199395Y-54901000D01*
X115156938Y-54896819D01*
X115122019Y-54886226D01*
X115089837Y-54869024D01*
X115061627Y-54845873D01*
X115038476Y-54817663D01*
X115021274Y-54785481D01*
X115010681Y-54750562D01*
X115006500Y-54708105D01*
X115006500Y-53241895D01*
X115010681Y-53199438D01*
X115021274Y-53164519D01*
X115038476Y-53132337D01*
X115061627Y-53104127D01*
X115089837Y-53080976D01*
X115122019Y-53063774D01*
X115156938Y-53053181D01*
X115199395Y-53049000D01*
X116340605Y-53049000D01*
X116383062Y-53053181D01*
G37*
G36*
X125653512Y-52563927D02*
G01*
X125802812Y-52593624D01*
X125966784Y-52661544D01*
X126114354Y-52760147D01*
X126239853Y-52885646D01*
X126338456Y-53033216D01*
X126406376Y-53197188D01*
X126441000Y-53371259D01*
X126441000Y-53548741D01*
X126406376Y-53722812D01*
X126338456Y-53886784D01*
X126239853Y-54034354D01*
X126114354Y-54159853D01*
X125966784Y-54258456D01*
X125802812Y-54326376D01*
X125653512Y-54356073D01*
X125628742Y-54361000D01*
X125451258Y-54361000D01*
X125426488Y-54356073D01*
X125277188Y-54326376D01*
X125113216Y-54258456D01*
X124965646Y-54159853D01*
X124840147Y-54034354D01*
X124741544Y-53886784D01*
X124673624Y-53722812D01*
X124639000Y-53548741D01*
X124639000Y-53371259D01*
X124673624Y-53197188D01*
X124741544Y-53033216D01*
X124840147Y-52885646D01*
X124965646Y-52760147D01*
X125113216Y-52661544D01*
X125277188Y-52593624D01*
X125426488Y-52563927D01*
X125451258Y-52559000D01*
X125628742Y-52559000D01*
X125653512Y-52563927D01*
G37*
G36*
X128193512Y-52563927D02*
G01*
X128342812Y-52593624D01*
X128506784Y-52661544D01*
X128654354Y-52760147D01*
X128779853Y-52885646D01*
X128878456Y-53033216D01*
X128946376Y-53197188D01*
X128981000Y-53371259D01*
X128981000Y-53548741D01*
X128946376Y-53722812D01*
X128878456Y-53886784D01*
X128779853Y-54034354D01*
X128654354Y-54159853D01*
X128506784Y-54258456D01*
X128342812Y-54326376D01*
X128193512Y-54356073D01*
X128168742Y-54361000D01*
X127991258Y-54361000D01*
X127966488Y-54356073D01*
X127817188Y-54326376D01*
X127653216Y-54258456D01*
X127505646Y-54159853D01*
X127380147Y-54034354D01*
X127281544Y-53886784D01*
X127213624Y-53722812D01*
X127179000Y-53548741D01*
X127179000Y-53371259D01*
X127213624Y-53197188D01*
X127281544Y-53033216D01*
X127380147Y-52885646D01*
X127505646Y-52760147D01*
X127653216Y-52661544D01*
X127817188Y-52593624D01*
X127966488Y-52563927D01*
X127991258Y-52559000D01*
X128168742Y-52559000D01*
X128193512Y-52563927D01*
G37*
G36*
X123113512Y-52563927D02*
G01*
X123262812Y-52593624D01*
X123426784Y-52661544D01*
X123574354Y-52760147D01*
X123699853Y-52885646D01*
X123798456Y-53033216D01*
X123866376Y-53197188D01*
X123901000Y-53371259D01*
X123901000Y-53548741D01*
X123866376Y-53722812D01*
X123798456Y-53886784D01*
X123699853Y-54034354D01*
X123574354Y-54159853D01*
X123426784Y-54258456D01*
X123262812Y-54326376D01*
X123113512Y-54356073D01*
X123088742Y-54361000D01*
X122911258Y-54361000D01*
X122886488Y-54356073D01*
X122737188Y-54326376D01*
X122573216Y-54258456D01*
X122425646Y-54159853D01*
X122300147Y-54034354D01*
X122201544Y-53886784D01*
X122133624Y-53722812D01*
X122099000Y-53548741D01*
X122099000Y-53371259D01*
X122133624Y-53197188D01*
X122201544Y-53033216D01*
X122300147Y-52885646D01*
X122425646Y-52760147D01*
X122573216Y-52661544D01*
X122737188Y-52593624D01*
X122886488Y-52563927D01*
X122911258Y-52559000D01*
X123088742Y-52559000D01*
X123113512Y-52563927D01*
G37*
G36*
X83373589Y-52393876D02*
G01*
X83472893Y-52413629D01*
X83613206Y-52471748D01*
X83739484Y-52556125D01*
X83846875Y-52663516D01*
X83931252Y-52789794D01*
X83989371Y-52930107D01*
X84019000Y-53079063D01*
X84019000Y-53230937D01*
X83989371Y-53379893D01*
X83931252Y-53520206D01*
X83846875Y-53646484D01*
X83739484Y-53753875D01*
X83613206Y-53838252D01*
X83472893Y-53896371D01*
X83373589Y-53916124D01*
X83323938Y-53926000D01*
X83172062Y-53926000D01*
X83122411Y-53916124D01*
X83023107Y-53896371D01*
X82882794Y-53838252D01*
X82756516Y-53753875D01*
X82649125Y-53646484D01*
X82564748Y-53520206D01*
X82506629Y-53379893D01*
X82477000Y-53230937D01*
X82477000Y-53079063D01*
X82506629Y-52930107D01*
X82564748Y-52789794D01*
X82649125Y-52663516D01*
X82756516Y-52556125D01*
X82882794Y-52471748D01*
X83023107Y-52413629D01*
X83122411Y-52393876D01*
X83172062Y-52384000D01*
X83323938Y-52384000D01*
X83373589Y-52393876D01*
G37*
G36*
X88453589Y-52393876D02*
G01*
X88552893Y-52413629D01*
X88693206Y-52471748D01*
X88819484Y-52556125D01*
X88926875Y-52663516D01*
X89011252Y-52789794D01*
X89069371Y-52930107D01*
X89099000Y-53079063D01*
X89099000Y-53230937D01*
X89069371Y-53379893D01*
X89011252Y-53520206D01*
X88926875Y-53646484D01*
X88819484Y-53753875D01*
X88693206Y-53838252D01*
X88552893Y-53896371D01*
X88453589Y-53916124D01*
X88403938Y-53926000D01*
X88252062Y-53926000D01*
X88202411Y-53916124D01*
X88103107Y-53896371D01*
X87962794Y-53838252D01*
X87836516Y-53753875D01*
X87729125Y-53646484D01*
X87644748Y-53520206D01*
X87586629Y-53379893D01*
X87557000Y-53230937D01*
X87557000Y-53079063D01*
X87586629Y-52930107D01*
X87644748Y-52789794D01*
X87729125Y-52663516D01*
X87836516Y-52556125D01*
X87962794Y-52471748D01*
X88103107Y-52413629D01*
X88202411Y-52393876D01*
X88252062Y-52384000D01*
X88403938Y-52384000D01*
X88453589Y-52393876D01*
G37*
G36*
X94297307Y-52095998D02*
G01*
X94335318Y-52107529D01*
X94370342Y-52126249D01*
X94401049Y-52151451D01*
X94426251Y-52182158D01*
X94444971Y-52217182D01*
X94456502Y-52255193D01*
X94461000Y-52300863D01*
X94461000Y-53109137D01*
X94456502Y-53154807D01*
X94444971Y-53192818D01*
X94426251Y-53227842D01*
X94401049Y-53258549D01*
X94370342Y-53283751D01*
X94335318Y-53302471D01*
X94297307Y-53314002D01*
X94251637Y-53318500D01*
X91168363Y-53318500D01*
X91122693Y-53314002D01*
X91084682Y-53302471D01*
X91049658Y-53283751D01*
X91018951Y-53258549D01*
X90993749Y-53227842D01*
X90975029Y-53192818D01*
X90963498Y-53154807D01*
X90959000Y-53109137D01*
X90959000Y-52300863D01*
X90963498Y-52255193D01*
X90975029Y-52217182D01*
X90993749Y-52182158D01*
X91018951Y-52151451D01*
X91049658Y-52126249D01*
X91084682Y-52107529D01*
X91122693Y-52095998D01*
X91168363Y-52091500D01*
X94251637Y-52091500D01*
X94297307Y-52095998D01*
G37*
M02*
