G04 #@! TF.GenerationSoftware,KiCad,Pcbnew,5.1.5+dfsg1-2build2*
G04 #@! TF.CreationDate,2021-11-26T12:56:36+03:00*
G04 #@! TF.ProjectId,VoltReg,566f6c74-5265-4672-9e6b-696361645f70,rev?*
G04 #@! TF.SameCoordinates,Original*
G04 #@! TF.FileFunction,Copper,L2,Bot*
G04 #@! TF.FilePolarity,Positive*
%FSLAX46Y46*%
G04 Gerber Fmt 4.6, Leading zero omitted, Abs format (unit mm)*
G04 Created by KiCad (PCBNEW 5.1.5+dfsg1-2build2) date 2021-11-26 12:56:36*
%MOMM*%
%LPD*%
G04 APERTURE LIST*
%ADD10O,1.700000X1.700000*%
%ADD11R,1.700000X1.700000*%
%ADD12C,1.440000*%
%ADD13C,0.800000*%
%ADD14C,0.600000*%
%ADD15C,0.250000*%
%ADD16C,0.254000*%
G04 APERTURE END LIST*
D10*
X128080000Y-77460000D03*
X128080000Y-80000000D03*
X125540000Y-77460000D03*
X125540000Y-80000000D03*
X123000000Y-77460000D03*
D11*
X123000000Y-80000000D03*
D10*
X128000000Y-70485000D03*
D11*
X128000000Y-73025000D03*
D10*
X86540000Y-80000000D03*
D11*
X84000000Y-80000000D03*
D10*
X86540000Y-75000000D03*
D11*
X84000000Y-75000000D03*
D10*
X86540000Y-60000000D03*
D11*
X84000000Y-60000000D03*
D10*
X128080000Y-53460000D03*
X128080000Y-56000000D03*
X125540000Y-53460000D03*
X125540000Y-56000000D03*
X123000000Y-53460000D03*
D11*
X123000000Y-56000000D03*
D12*
X83248000Y-53155000D03*
X85788000Y-55695000D03*
X88328000Y-53155000D03*
X107315000Y-70485000D03*
X109855000Y-73025000D03*
X112395000Y-70485000D03*
D10*
X86540000Y-70080000D03*
X84000000Y-70080000D03*
X86540000Y-67540000D03*
X84000000Y-67540000D03*
X86540000Y-65000000D03*
D11*
X84000000Y-65000000D03*
D13*
X114353000Y-61634500D03*
X96520000Y-73025000D03*
X90170000Y-76200000D03*
X101219000Y-79375000D03*
D14*
X123547800Y-66040000D03*
D15*
X123547800Y-64847600D02*
X123547800Y-66040000D01*
X129895000Y-58500400D02*
X123547800Y-64847600D01*
X129895000Y-55275000D02*
X129895000Y-58500400D01*
X128080000Y-53460000D02*
X129895000Y-55275000D01*
D16*
G36*
X130340001Y-54645199D02*
G01*
X129521210Y-53826408D01*
X129565000Y-53606260D01*
X129565000Y-53313740D01*
X129507932Y-53026842D01*
X129395990Y-52756589D01*
X129233475Y-52513368D01*
X129026632Y-52306525D01*
X128783411Y-52144010D01*
X128513158Y-52032068D01*
X128226260Y-51975000D01*
X127933740Y-51975000D01*
X127646842Y-52032068D01*
X127376589Y-52144010D01*
X127133368Y-52306525D01*
X126926525Y-52513368D01*
X126804805Y-52695534D01*
X126735178Y-52578645D01*
X126540269Y-52362412D01*
X126306920Y-52188359D01*
X126044099Y-52063175D01*
X125896890Y-52018524D01*
X125667000Y-52139845D01*
X125667000Y-53333000D01*
X125687000Y-53333000D01*
X125687000Y-53587000D01*
X125667000Y-53587000D01*
X125667000Y-55873000D01*
X127953000Y-55873000D01*
X127953000Y-55853000D01*
X128207000Y-55853000D01*
X128207000Y-55873000D01*
X128227000Y-55873000D01*
X128227000Y-56127000D01*
X128207000Y-56127000D01*
X128207000Y-57320155D01*
X128436890Y-57441476D01*
X128584099Y-57396825D01*
X128846920Y-57271641D01*
X129080269Y-57097588D01*
X129135001Y-57036869D01*
X129135001Y-58185597D01*
X123036803Y-64283796D01*
X123007799Y-64307599D01*
X122952671Y-64374774D01*
X122912826Y-64423324D01*
X122842255Y-64555353D01*
X122842254Y-64555354D01*
X122798797Y-64698615D01*
X122787800Y-64810268D01*
X122787800Y-64810278D01*
X122784124Y-64847600D01*
X122787800Y-64884923D01*
X122787801Y-65494464D01*
X122719214Y-65597111D01*
X122648732Y-65767271D01*
X122612800Y-65947911D01*
X122612800Y-66132089D01*
X122648732Y-66312729D01*
X122719214Y-66482889D01*
X122821538Y-66636028D01*
X122951772Y-66766262D01*
X123104911Y-66868586D01*
X123275071Y-66939068D01*
X123455711Y-66975000D01*
X123639889Y-66975000D01*
X123820529Y-66939068D01*
X123990689Y-66868586D01*
X124143828Y-66766262D01*
X124274062Y-66636028D01*
X124376386Y-66482889D01*
X124446868Y-66312729D01*
X124482800Y-66132089D01*
X124482800Y-65947911D01*
X124446868Y-65767271D01*
X124376386Y-65597111D01*
X124307800Y-65494465D01*
X124307800Y-65162401D01*
X130340001Y-59130201D01*
X130340000Y-82340000D01*
X81660000Y-82340000D01*
X81660000Y-80850000D01*
X82511928Y-80850000D01*
X82524188Y-80974482D01*
X82560498Y-81094180D01*
X82619463Y-81204494D01*
X82698815Y-81301185D01*
X82795506Y-81380537D01*
X82905820Y-81439502D01*
X83025518Y-81475812D01*
X83150000Y-81488072D01*
X83714250Y-81485000D01*
X83873000Y-81326250D01*
X83873000Y-80127000D01*
X84127000Y-80127000D01*
X84127000Y-81326250D01*
X84285750Y-81485000D01*
X84850000Y-81488072D01*
X84974482Y-81475812D01*
X85094180Y-81439502D01*
X85204494Y-81380537D01*
X85301185Y-81301185D01*
X85380537Y-81204494D01*
X85439502Y-81094180D01*
X85462498Y-81018374D01*
X85658645Y-81195178D01*
X85908748Y-81344157D01*
X86183109Y-81441481D01*
X86413000Y-81320814D01*
X86413000Y-80127000D01*
X86667000Y-80127000D01*
X86667000Y-81320814D01*
X86896891Y-81441481D01*
X87171252Y-81344157D01*
X87421355Y-81195178D01*
X87637588Y-81000269D01*
X87749672Y-80850000D01*
X121511928Y-80850000D01*
X121524188Y-80974482D01*
X121560498Y-81094180D01*
X121619463Y-81204494D01*
X121698815Y-81301185D01*
X121795506Y-81380537D01*
X121905820Y-81439502D01*
X122025518Y-81475812D01*
X122150000Y-81488072D01*
X122714250Y-81485000D01*
X122873000Y-81326250D01*
X122873000Y-80127000D01*
X123127000Y-80127000D01*
X123127000Y-81326250D01*
X123285750Y-81485000D01*
X123850000Y-81488072D01*
X123974482Y-81475812D01*
X124094180Y-81439502D01*
X124204494Y-81380537D01*
X124301185Y-81301185D01*
X124380537Y-81204494D01*
X124439502Y-81094180D01*
X124463966Y-81013534D01*
X124539731Y-81097588D01*
X124773080Y-81271641D01*
X125035901Y-81396825D01*
X125183110Y-81441476D01*
X125413000Y-81320155D01*
X125413000Y-80127000D01*
X125667000Y-80127000D01*
X125667000Y-81320155D01*
X125896890Y-81441476D01*
X126044099Y-81396825D01*
X126306920Y-81271641D01*
X126540269Y-81097588D01*
X126735178Y-80881355D01*
X126810000Y-80755745D01*
X126884822Y-80881355D01*
X127079731Y-81097588D01*
X127313080Y-81271641D01*
X127575901Y-81396825D01*
X127723110Y-81441476D01*
X127953000Y-81320155D01*
X127953000Y-80127000D01*
X128207000Y-80127000D01*
X128207000Y-81320155D01*
X128436890Y-81441476D01*
X128584099Y-81396825D01*
X128846920Y-81271641D01*
X129080269Y-81097588D01*
X129275178Y-80881355D01*
X129424157Y-80631252D01*
X129521481Y-80356891D01*
X129400814Y-80127000D01*
X128207000Y-80127000D01*
X127953000Y-80127000D01*
X125667000Y-80127000D01*
X125413000Y-80127000D01*
X123127000Y-80127000D01*
X122873000Y-80127000D01*
X121673750Y-80127000D01*
X121515000Y-80285750D01*
X121511928Y-80850000D01*
X87749672Y-80850000D01*
X87811641Y-80766920D01*
X87936825Y-80504099D01*
X87981476Y-80356890D01*
X87860155Y-80127000D01*
X86667000Y-80127000D01*
X86413000Y-80127000D01*
X84127000Y-80127000D01*
X83873000Y-80127000D01*
X82673750Y-80127000D01*
X82515000Y-80285750D01*
X82511928Y-80850000D01*
X81660000Y-80850000D01*
X81660000Y-79150000D01*
X82511928Y-79150000D01*
X82515000Y-79714250D01*
X82673750Y-79873000D01*
X83873000Y-79873000D01*
X83873000Y-78673750D01*
X84127000Y-78673750D01*
X84127000Y-79873000D01*
X86413000Y-79873000D01*
X86413000Y-78679186D01*
X86667000Y-78679186D01*
X86667000Y-79873000D01*
X87860155Y-79873000D01*
X87981476Y-79643110D01*
X87936825Y-79495901D01*
X87811641Y-79233080D01*
X87749673Y-79150000D01*
X121511928Y-79150000D01*
X121515000Y-79714250D01*
X121673750Y-79873000D01*
X122873000Y-79873000D01*
X122873000Y-77587000D01*
X123127000Y-77587000D01*
X123127000Y-79873000D01*
X125413000Y-79873000D01*
X125413000Y-77587000D01*
X125667000Y-77587000D01*
X125667000Y-79873000D01*
X127953000Y-79873000D01*
X127953000Y-77587000D01*
X128207000Y-77587000D01*
X128207000Y-79873000D01*
X129400814Y-79873000D01*
X129521481Y-79643109D01*
X129424157Y-79368748D01*
X129275178Y-79118645D01*
X129080269Y-78902412D01*
X128849120Y-78730000D01*
X129080269Y-78557588D01*
X129275178Y-78341355D01*
X129424157Y-78091252D01*
X129521481Y-77816891D01*
X129400814Y-77587000D01*
X128207000Y-77587000D01*
X127953000Y-77587000D01*
X125667000Y-77587000D01*
X125413000Y-77587000D01*
X123127000Y-77587000D01*
X122873000Y-77587000D01*
X121679186Y-77587000D01*
X121558519Y-77816891D01*
X121655843Y-78091252D01*
X121804822Y-78341355D01*
X121981626Y-78537502D01*
X121905820Y-78560498D01*
X121795506Y-78619463D01*
X121698815Y-78698815D01*
X121619463Y-78795506D01*
X121560498Y-78905820D01*
X121524188Y-79025518D01*
X121511928Y-79150000D01*
X87749673Y-79150000D01*
X87637588Y-78999731D01*
X87421355Y-78804822D01*
X87171252Y-78655843D01*
X86896891Y-78558519D01*
X86667000Y-78679186D01*
X86413000Y-78679186D01*
X86183109Y-78558519D01*
X85908748Y-78655843D01*
X85658645Y-78804822D01*
X85462498Y-78981626D01*
X85439502Y-78905820D01*
X85380537Y-78795506D01*
X85301185Y-78698815D01*
X85204494Y-78619463D01*
X85094180Y-78560498D01*
X84974482Y-78524188D01*
X84850000Y-78511928D01*
X84285750Y-78515000D01*
X84127000Y-78673750D01*
X83873000Y-78673750D01*
X83714250Y-78515000D01*
X83150000Y-78511928D01*
X83025518Y-78524188D01*
X82905820Y-78560498D01*
X82795506Y-78619463D01*
X82698815Y-78698815D01*
X82619463Y-78795506D01*
X82560498Y-78905820D01*
X82524188Y-79025518D01*
X82511928Y-79150000D01*
X81660000Y-79150000D01*
X81660000Y-77103109D01*
X121558519Y-77103109D01*
X121679186Y-77333000D01*
X122873000Y-77333000D01*
X122873000Y-76139845D01*
X123127000Y-76139845D01*
X123127000Y-77333000D01*
X125413000Y-77333000D01*
X125413000Y-76139845D01*
X125667000Y-76139845D01*
X125667000Y-77333000D01*
X127953000Y-77333000D01*
X127953000Y-76139845D01*
X128207000Y-76139845D01*
X128207000Y-77333000D01*
X129400814Y-77333000D01*
X129521481Y-77103109D01*
X129424157Y-76828748D01*
X129275178Y-76578645D01*
X129080269Y-76362412D01*
X128846920Y-76188359D01*
X128584099Y-76063175D01*
X128436890Y-76018524D01*
X128207000Y-76139845D01*
X127953000Y-76139845D01*
X127723110Y-76018524D01*
X127575901Y-76063175D01*
X127313080Y-76188359D01*
X127079731Y-76362412D01*
X126884822Y-76578645D01*
X126810000Y-76704255D01*
X126735178Y-76578645D01*
X126540269Y-76362412D01*
X126306920Y-76188359D01*
X126044099Y-76063175D01*
X125896890Y-76018524D01*
X125667000Y-76139845D01*
X125413000Y-76139845D01*
X125183110Y-76018524D01*
X125035901Y-76063175D01*
X124773080Y-76188359D01*
X124539731Y-76362412D01*
X124344822Y-76578645D01*
X124270000Y-76704255D01*
X124195178Y-76578645D01*
X124000269Y-76362412D01*
X123766920Y-76188359D01*
X123504099Y-76063175D01*
X123356890Y-76018524D01*
X123127000Y-76139845D01*
X122873000Y-76139845D01*
X122643110Y-76018524D01*
X122495901Y-76063175D01*
X122233080Y-76188359D01*
X121999731Y-76362412D01*
X121804822Y-76578645D01*
X121655843Y-76828748D01*
X121558519Y-77103109D01*
X81660000Y-77103109D01*
X81660000Y-74150000D01*
X82511928Y-74150000D01*
X82511928Y-75850000D01*
X82524188Y-75974482D01*
X82560498Y-76094180D01*
X82619463Y-76204494D01*
X82698815Y-76301185D01*
X82795506Y-76380537D01*
X82905820Y-76439502D01*
X83025518Y-76475812D01*
X83150000Y-76488072D01*
X84850000Y-76488072D01*
X84974482Y-76475812D01*
X85094180Y-76439502D01*
X85204494Y-76380537D01*
X85301185Y-76301185D01*
X85380537Y-76204494D01*
X85439502Y-76094180D01*
X85461513Y-76021620D01*
X85593368Y-76153475D01*
X85836589Y-76315990D01*
X86106842Y-76427932D01*
X86393740Y-76485000D01*
X86686260Y-76485000D01*
X86973158Y-76427932D01*
X87243411Y-76315990D01*
X87486632Y-76153475D01*
X87693475Y-75946632D01*
X87855990Y-75703411D01*
X87967932Y-75433158D01*
X88025000Y-75146260D01*
X88025000Y-74853740D01*
X87967932Y-74566842D01*
X87855990Y-74296589D01*
X87693475Y-74053368D01*
X87486632Y-73846525D01*
X87243411Y-73684010D01*
X86973158Y-73572068D01*
X86686260Y-73515000D01*
X86393740Y-73515000D01*
X86106842Y-73572068D01*
X85836589Y-73684010D01*
X85593368Y-73846525D01*
X85461513Y-73978380D01*
X85439502Y-73905820D01*
X85380537Y-73795506D01*
X85301185Y-73698815D01*
X85204494Y-73619463D01*
X85094180Y-73560498D01*
X84974482Y-73524188D01*
X84850000Y-73511928D01*
X83150000Y-73511928D01*
X83025518Y-73524188D01*
X82905820Y-73560498D01*
X82795506Y-73619463D01*
X82698815Y-73698815D01*
X82619463Y-73795506D01*
X82560498Y-73905820D01*
X82524188Y-74025518D01*
X82511928Y-74150000D01*
X81660000Y-74150000D01*
X81660000Y-72891544D01*
X108500000Y-72891544D01*
X108500000Y-73158456D01*
X108552072Y-73420239D01*
X108654215Y-73666833D01*
X108802503Y-73888762D01*
X108991238Y-74077497D01*
X109213167Y-74225785D01*
X109459761Y-74327928D01*
X109721544Y-74380000D01*
X109988456Y-74380000D01*
X110250239Y-74327928D01*
X110496833Y-74225785D01*
X110718762Y-74077497D01*
X110907497Y-73888762D01*
X110916692Y-73875000D01*
X126511928Y-73875000D01*
X126524188Y-73999482D01*
X126560498Y-74119180D01*
X126619463Y-74229494D01*
X126698815Y-74326185D01*
X126795506Y-74405537D01*
X126905820Y-74464502D01*
X127025518Y-74500812D01*
X127150000Y-74513072D01*
X127714250Y-74510000D01*
X127873000Y-74351250D01*
X127873000Y-73152000D01*
X128127000Y-73152000D01*
X128127000Y-74351250D01*
X128285750Y-74510000D01*
X128850000Y-74513072D01*
X128974482Y-74500812D01*
X129094180Y-74464502D01*
X129204494Y-74405537D01*
X129301185Y-74326185D01*
X129380537Y-74229494D01*
X129439502Y-74119180D01*
X129475812Y-73999482D01*
X129488072Y-73875000D01*
X129485000Y-73310750D01*
X129326250Y-73152000D01*
X128127000Y-73152000D01*
X127873000Y-73152000D01*
X126673750Y-73152000D01*
X126515000Y-73310750D01*
X126511928Y-73875000D01*
X110916692Y-73875000D01*
X111055785Y-73666833D01*
X111157928Y-73420239D01*
X111210000Y-73158456D01*
X111210000Y-72891544D01*
X111157928Y-72629761D01*
X111055785Y-72383167D01*
X110916693Y-72175000D01*
X126511928Y-72175000D01*
X126515000Y-72739250D01*
X126673750Y-72898000D01*
X127873000Y-72898000D01*
X127873000Y-70612000D01*
X128127000Y-70612000D01*
X128127000Y-72898000D01*
X129326250Y-72898000D01*
X129485000Y-72739250D01*
X129488072Y-72175000D01*
X129475812Y-72050518D01*
X129439502Y-71930820D01*
X129380537Y-71820506D01*
X129301185Y-71723815D01*
X129204494Y-71644463D01*
X129094180Y-71585498D01*
X129018374Y-71562502D01*
X129195178Y-71366355D01*
X129344157Y-71116252D01*
X129441481Y-70841891D01*
X129320814Y-70612000D01*
X128127000Y-70612000D01*
X127873000Y-70612000D01*
X126679186Y-70612000D01*
X126558519Y-70841891D01*
X126655843Y-71116252D01*
X126804822Y-71366355D01*
X126981626Y-71562502D01*
X126905820Y-71585498D01*
X126795506Y-71644463D01*
X126698815Y-71723815D01*
X126619463Y-71820506D01*
X126560498Y-71930820D01*
X126524188Y-72050518D01*
X126511928Y-72175000D01*
X110916693Y-72175000D01*
X110907497Y-72161238D01*
X110718762Y-71972503D01*
X110496833Y-71824215D01*
X110250239Y-71722072D01*
X109988456Y-71670000D01*
X109721544Y-71670000D01*
X109459761Y-71722072D01*
X109213167Y-71824215D01*
X108991238Y-71972503D01*
X108802503Y-72161238D01*
X108654215Y-72383167D01*
X108552072Y-72629761D01*
X108500000Y-72891544D01*
X81660000Y-72891544D01*
X81660000Y-69933740D01*
X82515000Y-69933740D01*
X82515000Y-70226260D01*
X82572068Y-70513158D01*
X82684010Y-70783411D01*
X82846525Y-71026632D01*
X83053368Y-71233475D01*
X83296589Y-71395990D01*
X83566842Y-71507932D01*
X83853740Y-71565000D01*
X84146260Y-71565000D01*
X84433158Y-71507932D01*
X84703411Y-71395990D01*
X84946632Y-71233475D01*
X85153475Y-71026632D01*
X85270000Y-70852240D01*
X85386525Y-71026632D01*
X85593368Y-71233475D01*
X85836589Y-71395990D01*
X86106842Y-71507932D01*
X86393740Y-71565000D01*
X86686260Y-71565000D01*
X86973158Y-71507932D01*
X87243411Y-71395990D01*
X87486632Y-71233475D01*
X87693475Y-71026632D01*
X87855990Y-70783411D01*
X87967932Y-70513158D01*
X88000079Y-70351544D01*
X105960000Y-70351544D01*
X105960000Y-70618456D01*
X106012072Y-70880239D01*
X106114215Y-71126833D01*
X106262503Y-71348762D01*
X106451238Y-71537497D01*
X106673167Y-71685785D01*
X106919761Y-71787928D01*
X107181544Y-71840000D01*
X107448456Y-71840000D01*
X107710239Y-71787928D01*
X107956833Y-71685785D01*
X108178762Y-71537497D01*
X108295699Y-71420560D01*
X111639045Y-71420560D01*
X111700932Y-71656368D01*
X111942790Y-71769266D01*
X112202027Y-71832811D01*
X112468680Y-71844561D01*
X112732501Y-71804063D01*
X112983353Y-71712875D01*
X113089068Y-71656368D01*
X113150955Y-71420560D01*
X112395000Y-70664605D01*
X111639045Y-71420560D01*
X108295699Y-71420560D01*
X108367497Y-71348762D01*
X108515785Y-71126833D01*
X108617928Y-70880239D01*
X108670000Y-70618456D01*
X108670000Y-70558680D01*
X111035439Y-70558680D01*
X111075937Y-70822501D01*
X111167125Y-71073353D01*
X111223632Y-71179068D01*
X111459440Y-71240955D01*
X112215395Y-70485000D01*
X112574605Y-70485000D01*
X113330560Y-71240955D01*
X113566368Y-71179068D01*
X113679266Y-70937210D01*
X113742811Y-70677973D01*
X113754561Y-70411320D01*
X113714063Y-70147499D01*
X113707015Y-70128109D01*
X126558519Y-70128109D01*
X126679186Y-70358000D01*
X127873000Y-70358000D01*
X127873000Y-69164845D01*
X128127000Y-69164845D01*
X128127000Y-70358000D01*
X129320814Y-70358000D01*
X129441481Y-70128109D01*
X129344157Y-69853748D01*
X129195178Y-69603645D01*
X129000269Y-69387412D01*
X128766920Y-69213359D01*
X128504099Y-69088175D01*
X128356890Y-69043524D01*
X128127000Y-69164845D01*
X127873000Y-69164845D01*
X127643110Y-69043524D01*
X127495901Y-69088175D01*
X127233080Y-69213359D01*
X126999731Y-69387412D01*
X126804822Y-69603645D01*
X126655843Y-69853748D01*
X126558519Y-70128109D01*
X113707015Y-70128109D01*
X113622875Y-69896647D01*
X113566368Y-69790932D01*
X113330560Y-69729045D01*
X112574605Y-70485000D01*
X112215395Y-70485000D01*
X111459440Y-69729045D01*
X111223632Y-69790932D01*
X111110734Y-70032790D01*
X111047189Y-70292027D01*
X111035439Y-70558680D01*
X108670000Y-70558680D01*
X108670000Y-70351544D01*
X108617928Y-70089761D01*
X108515785Y-69843167D01*
X108367497Y-69621238D01*
X108295699Y-69549440D01*
X111639045Y-69549440D01*
X112395000Y-70305395D01*
X113150955Y-69549440D01*
X113089068Y-69313632D01*
X112847210Y-69200734D01*
X112587973Y-69137189D01*
X112321320Y-69125439D01*
X112057499Y-69165937D01*
X111806647Y-69257125D01*
X111700932Y-69313632D01*
X111639045Y-69549440D01*
X108295699Y-69549440D01*
X108178762Y-69432503D01*
X107956833Y-69284215D01*
X107710239Y-69182072D01*
X107448456Y-69130000D01*
X107181544Y-69130000D01*
X106919761Y-69182072D01*
X106673167Y-69284215D01*
X106451238Y-69432503D01*
X106262503Y-69621238D01*
X106114215Y-69843167D01*
X106012072Y-70089761D01*
X105960000Y-70351544D01*
X88000079Y-70351544D01*
X88025000Y-70226260D01*
X88025000Y-69933740D01*
X87967932Y-69646842D01*
X87855990Y-69376589D01*
X87693475Y-69133368D01*
X87486632Y-68926525D01*
X87304466Y-68804805D01*
X87421355Y-68735178D01*
X87637588Y-68540269D01*
X87811641Y-68306920D01*
X87936825Y-68044099D01*
X87981476Y-67896890D01*
X87860155Y-67667000D01*
X86667000Y-67667000D01*
X86667000Y-67687000D01*
X86413000Y-67687000D01*
X86413000Y-67667000D01*
X84127000Y-67667000D01*
X84127000Y-67687000D01*
X83873000Y-67687000D01*
X83873000Y-67667000D01*
X82679845Y-67667000D01*
X82558524Y-67896890D01*
X82603175Y-68044099D01*
X82728359Y-68306920D01*
X82902412Y-68540269D01*
X83118645Y-68735178D01*
X83235534Y-68804805D01*
X83053368Y-68926525D01*
X82846525Y-69133368D01*
X82684010Y-69376589D01*
X82572068Y-69646842D01*
X82515000Y-69933740D01*
X81660000Y-69933740D01*
X81660000Y-64150000D01*
X82511928Y-64150000D01*
X82511928Y-65850000D01*
X82524188Y-65974482D01*
X82560498Y-66094180D01*
X82619463Y-66204494D01*
X82698815Y-66301185D01*
X82795506Y-66380537D01*
X82905820Y-66439502D01*
X82986466Y-66463966D01*
X82902412Y-66539731D01*
X82728359Y-66773080D01*
X82603175Y-67035901D01*
X82558524Y-67183110D01*
X82679845Y-67413000D01*
X83873000Y-67413000D01*
X83873000Y-67393000D01*
X84127000Y-67393000D01*
X84127000Y-67413000D01*
X86413000Y-67413000D01*
X86413000Y-67393000D01*
X86667000Y-67393000D01*
X86667000Y-67413000D01*
X87860155Y-67413000D01*
X87981476Y-67183110D01*
X87936825Y-67035901D01*
X87811641Y-66773080D01*
X87637588Y-66539731D01*
X87421355Y-66344822D01*
X87304466Y-66275195D01*
X87486632Y-66153475D01*
X87693475Y-65946632D01*
X87855990Y-65703411D01*
X87967932Y-65433158D01*
X88025000Y-65146260D01*
X88025000Y-64853740D01*
X87967932Y-64566842D01*
X87855990Y-64296589D01*
X87693475Y-64053368D01*
X87486632Y-63846525D01*
X87243411Y-63684010D01*
X86973158Y-63572068D01*
X86686260Y-63515000D01*
X86393740Y-63515000D01*
X86106842Y-63572068D01*
X85836589Y-63684010D01*
X85593368Y-63846525D01*
X85461513Y-63978380D01*
X85439502Y-63905820D01*
X85380537Y-63795506D01*
X85301185Y-63698815D01*
X85204494Y-63619463D01*
X85094180Y-63560498D01*
X84974482Y-63524188D01*
X84850000Y-63511928D01*
X83150000Y-63511928D01*
X83025518Y-63524188D01*
X82905820Y-63560498D01*
X82795506Y-63619463D01*
X82698815Y-63698815D01*
X82619463Y-63795506D01*
X82560498Y-63905820D01*
X82524188Y-64025518D01*
X82511928Y-64150000D01*
X81660000Y-64150000D01*
X81660000Y-59150000D01*
X82511928Y-59150000D01*
X82511928Y-60850000D01*
X82524188Y-60974482D01*
X82560498Y-61094180D01*
X82619463Y-61204494D01*
X82698815Y-61301185D01*
X82795506Y-61380537D01*
X82905820Y-61439502D01*
X83025518Y-61475812D01*
X83150000Y-61488072D01*
X84850000Y-61488072D01*
X84974482Y-61475812D01*
X85094180Y-61439502D01*
X85204494Y-61380537D01*
X85301185Y-61301185D01*
X85380537Y-61204494D01*
X85439502Y-61094180D01*
X85461513Y-61021620D01*
X85593368Y-61153475D01*
X85836589Y-61315990D01*
X86106842Y-61427932D01*
X86393740Y-61485000D01*
X86686260Y-61485000D01*
X86973158Y-61427932D01*
X87243411Y-61315990D01*
X87486632Y-61153475D01*
X87693475Y-60946632D01*
X87855990Y-60703411D01*
X87967932Y-60433158D01*
X88025000Y-60146260D01*
X88025000Y-59853740D01*
X87967932Y-59566842D01*
X87855990Y-59296589D01*
X87693475Y-59053368D01*
X87486632Y-58846525D01*
X87243411Y-58684010D01*
X86973158Y-58572068D01*
X86686260Y-58515000D01*
X86393740Y-58515000D01*
X86106842Y-58572068D01*
X85836589Y-58684010D01*
X85593368Y-58846525D01*
X85461513Y-58978380D01*
X85439502Y-58905820D01*
X85380537Y-58795506D01*
X85301185Y-58698815D01*
X85204494Y-58619463D01*
X85094180Y-58560498D01*
X84974482Y-58524188D01*
X84850000Y-58511928D01*
X83150000Y-58511928D01*
X83025518Y-58524188D01*
X82905820Y-58560498D01*
X82795506Y-58619463D01*
X82698815Y-58698815D01*
X82619463Y-58795506D01*
X82560498Y-58905820D01*
X82524188Y-59025518D01*
X82511928Y-59150000D01*
X81660000Y-59150000D01*
X81660000Y-55561544D01*
X84433000Y-55561544D01*
X84433000Y-55828456D01*
X84485072Y-56090239D01*
X84587215Y-56336833D01*
X84735503Y-56558762D01*
X84924238Y-56747497D01*
X85146167Y-56895785D01*
X85392761Y-56997928D01*
X85654544Y-57050000D01*
X85921456Y-57050000D01*
X86183239Y-56997928D01*
X86429833Y-56895785D01*
X86498355Y-56850000D01*
X121511928Y-56850000D01*
X121524188Y-56974482D01*
X121560498Y-57094180D01*
X121619463Y-57204494D01*
X121698815Y-57301185D01*
X121795506Y-57380537D01*
X121905820Y-57439502D01*
X122025518Y-57475812D01*
X122150000Y-57488072D01*
X122714250Y-57485000D01*
X122873000Y-57326250D01*
X122873000Y-56127000D01*
X123127000Y-56127000D01*
X123127000Y-57326250D01*
X123285750Y-57485000D01*
X123850000Y-57488072D01*
X123974482Y-57475812D01*
X124094180Y-57439502D01*
X124204494Y-57380537D01*
X124301185Y-57301185D01*
X124380537Y-57204494D01*
X124439502Y-57094180D01*
X124463966Y-57013534D01*
X124539731Y-57097588D01*
X124773080Y-57271641D01*
X125035901Y-57396825D01*
X125183110Y-57441476D01*
X125413000Y-57320155D01*
X125413000Y-56127000D01*
X125667000Y-56127000D01*
X125667000Y-57320155D01*
X125896890Y-57441476D01*
X126044099Y-57396825D01*
X126306920Y-57271641D01*
X126540269Y-57097588D01*
X126735178Y-56881355D01*
X126810000Y-56755745D01*
X126884822Y-56881355D01*
X127079731Y-57097588D01*
X127313080Y-57271641D01*
X127575901Y-57396825D01*
X127723110Y-57441476D01*
X127953000Y-57320155D01*
X127953000Y-56127000D01*
X125667000Y-56127000D01*
X125413000Y-56127000D01*
X123127000Y-56127000D01*
X122873000Y-56127000D01*
X121673750Y-56127000D01*
X121515000Y-56285750D01*
X121511928Y-56850000D01*
X86498355Y-56850000D01*
X86651762Y-56747497D01*
X86840497Y-56558762D01*
X86988785Y-56336833D01*
X87090928Y-56090239D01*
X87143000Y-55828456D01*
X87143000Y-55561544D01*
X87090928Y-55299761D01*
X87028895Y-55150000D01*
X121511928Y-55150000D01*
X121515000Y-55714250D01*
X121673750Y-55873000D01*
X122873000Y-55873000D01*
X122873000Y-55853000D01*
X123127000Y-55853000D01*
X123127000Y-55873000D01*
X125413000Y-55873000D01*
X125413000Y-53587000D01*
X125393000Y-53587000D01*
X125393000Y-53333000D01*
X125413000Y-53333000D01*
X125413000Y-52139845D01*
X125183110Y-52018524D01*
X125035901Y-52063175D01*
X124773080Y-52188359D01*
X124539731Y-52362412D01*
X124344822Y-52578645D01*
X124275195Y-52695534D01*
X124153475Y-52513368D01*
X123946632Y-52306525D01*
X123703411Y-52144010D01*
X123433158Y-52032068D01*
X123146260Y-51975000D01*
X122853740Y-51975000D01*
X122566842Y-52032068D01*
X122296589Y-52144010D01*
X122053368Y-52306525D01*
X121846525Y-52513368D01*
X121684010Y-52756589D01*
X121572068Y-53026842D01*
X121515000Y-53313740D01*
X121515000Y-53606260D01*
X121572068Y-53893158D01*
X121684010Y-54163411D01*
X121846525Y-54406632D01*
X121978380Y-54538487D01*
X121905820Y-54560498D01*
X121795506Y-54619463D01*
X121698815Y-54698815D01*
X121619463Y-54795506D01*
X121560498Y-54905820D01*
X121524188Y-55025518D01*
X121511928Y-55150000D01*
X87028895Y-55150000D01*
X86988785Y-55053167D01*
X86840497Y-54831238D01*
X86651762Y-54642503D01*
X86429833Y-54494215D01*
X86183239Y-54392072D01*
X85921456Y-54340000D01*
X85654544Y-54340000D01*
X85392761Y-54392072D01*
X85146167Y-54494215D01*
X84924238Y-54642503D01*
X84735503Y-54831238D01*
X84587215Y-55053167D01*
X84485072Y-55299761D01*
X84433000Y-55561544D01*
X81660000Y-55561544D01*
X81660000Y-53021544D01*
X81893000Y-53021544D01*
X81893000Y-53288456D01*
X81945072Y-53550239D01*
X82047215Y-53796833D01*
X82195503Y-54018762D01*
X82384238Y-54207497D01*
X82606167Y-54355785D01*
X82852761Y-54457928D01*
X83114544Y-54510000D01*
X83381456Y-54510000D01*
X83643239Y-54457928D01*
X83889833Y-54355785D01*
X84111762Y-54207497D01*
X84228699Y-54090560D01*
X87572045Y-54090560D01*
X87633932Y-54326368D01*
X87875790Y-54439266D01*
X88135027Y-54502811D01*
X88401680Y-54514561D01*
X88665501Y-54474063D01*
X88916353Y-54382875D01*
X89022068Y-54326368D01*
X89083955Y-54090560D01*
X88328000Y-53334605D01*
X87572045Y-54090560D01*
X84228699Y-54090560D01*
X84300497Y-54018762D01*
X84448785Y-53796833D01*
X84550928Y-53550239D01*
X84603000Y-53288456D01*
X84603000Y-53228680D01*
X86968439Y-53228680D01*
X87008937Y-53492501D01*
X87100125Y-53743353D01*
X87156632Y-53849068D01*
X87392440Y-53910955D01*
X88148395Y-53155000D01*
X88507605Y-53155000D01*
X89263560Y-53910955D01*
X89499368Y-53849068D01*
X89612266Y-53607210D01*
X89675811Y-53347973D01*
X89687561Y-53081320D01*
X89647063Y-52817499D01*
X89555875Y-52566647D01*
X89499368Y-52460932D01*
X89263560Y-52399045D01*
X88507605Y-53155000D01*
X88148395Y-53155000D01*
X87392440Y-52399045D01*
X87156632Y-52460932D01*
X87043734Y-52702790D01*
X86980189Y-52962027D01*
X86968439Y-53228680D01*
X84603000Y-53228680D01*
X84603000Y-53021544D01*
X84550928Y-52759761D01*
X84448785Y-52513167D01*
X84300497Y-52291238D01*
X84228699Y-52219440D01*
X87572045Y-52219440D01*
X88328000Y-52975395D01*
X89083955Y-52219440D01*
X89022068Y-51983632D01*
X88780210Y-51870734D01*
X88520973Y-51807189D01*
X88254320Y-51795439D01*
X87990499Y-51835937D01*
X87739647Y-51927125D01*
X87633932Y-51983632D01*
X87572045Y-52219440D01*
X84228699Y-52219440D01*
X84111762Y-52102503D01*
X83889833Y-51954215D01*
X83643239Y-51852072D01*
X83381456Y-51800000D01*
X83114544Y-51800000D01*
X82852761Y-51852072D01*
X82606167Y-51954215D01*
X82384238Y-52102503D01*
X82195503Y-52291238D01*
X82047215Y-52513167D01*
X81945072Y-52759761D01*
X81893000Y-53021544D01*
X81660000Y-53021544D01*
X81660000Y-51660000D01*
X130340001Y-51660000D01*
X130340001Y-54645199D01*
G37*
X130340001Y-54645199D02*
X129521210Y-53826408D01*
X129565000Y-53606260D01*
X129565000Y-53313740D01*
X129507932Y-53026842D01*
X129395990Y-52756589D01*
X129233475Y-52513368D01*
X129026632Y-52306525D01*
X128783411Y-52144010D01*
X128513158Y-52032068D01*
X128226260Y-51975000D01*
X127933740Y-51975000D01*
X127646842Y-52032068D01*
X127376589Y-52144010D01*
X127133368Y-52306525D01*
X126926525Y-52513368D01*
X126804805Y-52695534D01*
X126735178Y-52578645D01*
X126540269Y-52362412D01*
X126306920Y-52188359D01*
X126044099Y-52063175D01*
X125896890Y-52018524D01*
X125667000Y-52139845D01*
X125667000Y-53333000D01*
X125687000Y-53333000D01*
X125687000Y-53587000D01*
X125667000Y-53587000D01*
X125667000Y-55873000D01*
X127953000Y-55873000D01*
X127953000Y-55853000D01*
X128207000Y-55853000D01*
X128207000Y-55873000D01*
X128227000Y-55873000D01*
X128227000Y-56127000D01*
X128207000Y-56127000D01*
X128207000Y-57320155D01*
X128436890Y-57441476D01*
X128584099Y-57396825D01*
X128846920Y-57271641D01*
X129080269Y-57097588D01*
X129135001Y-57036869D01*
X129135001Y-58185597D01*
X123036803Y-64283796D01*
X123007799Y-64307599D01*
X122952671Y-64374774D01*
X122912826Y-64423324D01*
X122842255Y-64555353D01*
X122842254Y-64555354D01*
X122798797Y-64698615D01*
X122787800Y-64810268D01*
X122787800Y-64810278D01*
X122784124Y-64847600D01*
X122787800Y-64884923D01*
X122787801Y-65494464D01*
X122719214Y-65597111D01*
X122648732Y-65767271D01*
X122612800Y-65947911D01*
X122612800Y-66132089D01*
X122648732Y-66312729D01*
X122719214Y-66482889D01*
X122821538Y-66636028D01*
X122951772Y-66766262D01*
X123104911Y-66868586D01*
X123275071Y-66939068D01*
X123455711Y-66975000D01*
X123639889Y-66975000D01*
X123820529Y-66939068D01*
X123990689Y-66868586D01*
X124143828Y-66766262D01*
X124274062Y-66636028D01*
X124376386Y-66482889D01*
X124446868Y-66312729D01*
X124482800Y-66132089D01*
X124482800Y-65947911D01*
X124446868Y-65767271D01*
X124376386Y-65597111D01*
X124307800Y-65494465D01*
X124307800Y-65162401D01*
X130340001Y-59130201D01*
X130340000Y-82340000D01*
X81660000Y-82340000D01*
X81660000Y-80850000D01*
X82511928Y-80850000D01*
X82524188Y-80974482D01*
X82560498Y-81094180D01*
X82619463Y-81204494D01*
X82698815Y-81301185D01*
X82795506Y-81380537D01*
X82905820Y-81439502D01*
X83025518Y-81475812D01*
X83150000Y-81488072D01*
X83714250Y-81485000D01*
X83873000Y-81326250D01*
X83873000Y-80127000D01*
X84127000Y-80127000D01*
X84127000Y-81326250D01*
X84285750Y-81485000D01*
X84850000Y-81488072D01*
X84974482Y-81475812D01*
X85094180Y-81439502D01*
X85204494Y-81380537D01*
X85301185Y-81301185D01*
X85380537Y-81204494D01*
X85439502Y-81094180D01*
X85462498Y-81018374D01*
X85658645Y-81195178D01*
X85908748Y-81344157D01*
X86183109Y-81441481D01*
X86413000Y-81320814D01*
X86413000Y-80127000D01*
X86667000Y-80127000D01*
X86667000Y-81320814D01*
X86896891Y-81441481D01*
X87171252Y-81344157D01*
X87421355Y-81195178D01*
X87637588Y-81000269D01*
X87749672Y-80850000D01*
X121511928Y-80850000D01*
X121524188Y-80974482D01*
X121560498Y-81094180D01*
X121619463Y-81204494D01*
X121698815Y-81301185D01*
X121795506Y-81380537D01*
X121905820Y-81439502D01*
X122025518Y-81475812D01*
X122150000Y-81488072D01*
X122714250Y-81485000D01*
X122873000Y-81326250D01*
X122873000Y-80127000D01*
X123127000Y-80127000D01*
X123127000Y-81326250D01*
X123285750Y-81485000D01*
X123850000Y-81488072D01*
X123974482Y-81475812D01*
X124094180Y-81439502D01*
X124204494Y-81380537D01*
X124301185Y-81301185D01*
X124380537Y-81204494D01*
X124439502Y-81094180D01*
X124463966Y-81013534D01*
X124539731Y-81097588D01*
X124773080Y-81271641D01*
X125035901Y-81396825D01*
X125183110Y-81441476D01*
X125413000Y-81320155D01*
X125413000Y-80127000D01*
X125667000Y-80127000D01*
X125667000Y-81320155D01*
X125896890Y-81441476D01*
X126044099Y-81396825D01*
X126306920Y-81271641D01*
X126540269Y-81097588D01*
X126735178Y-80881355D01*
X126810000Y-80755745D01*
X126884822Y-80881355D01*
X127079731Y-81097588D01*
X127313080Y-81271641D01*
X127575901Y-81396825D01*
X127723110Y-81441476D01*
X127953000Y-81320155D01*
X127953000Y-80127000D01*
X128207000Y-80127000D01*
X128207000Y-81320155D01*
X128436890Y-81441476D01*
X128584099Y-81396825D01*
X128846920Y-81271641D01*
X129080269Y-81097588D01*
X129275178Y-80881355D01*
X129424157Y-80631252D01*
X129521481Y-80356891D01*
X129400814Y-80127000D01*
X128207000Y-80127000D01*
X127953000Y-80127000D01*
X125667000Y-80127000D01*
X125413000Y-80127000D01*
X123127000Y-80127000D01*
X122873000Y-80127000D01*
X121673750Y-80127000D01*
X121515000Y-80285750D01*
X121511928Y-80850000D01*
X87749672Y-80850000D01*
X87811641Y-80766920D01*
X87936825Y-80504099D01*
X87981476Y-80356890D01*
X87860155Y-80127000D01*
X86667000Y-80127000D01*
X86413000Y-80127000D01*
X84127000Y-80127000D01*
X83873000Y-80127000D01*
X82673750Y-80127000D01*
X82515000Y-80285750D01*
X82511928Y-80850000D01*
X81660000Y-80850000D01*
X81660000Y-79150000D01*
X82511928Y-79150000D01*
X82515000Y-79714250D01*
X82673750Y-79873000D01*
X83873000Y-79873000D01*
X83873000Y-78673750D01*
X84127000Y-78673750D01*
X84127000Y-79873000D01*
X86413000Y-79873000D01*
X86413000Y-78679186D01*
X86667000Y-78679186D01*
X86667000Y-79873000D01*
X87860155Y-79873000D01*
X87981476Y-79643110D01*
X87936825Y-79495901D01*
X87811641Y-79233080D01*
X87749673Y-79150000D01*
X121511928Y-79150000D01*
X121515000Y-79714250D01*
X121673750Y-79873000D01*
X122873000Y-79873000D01*
X122873000Y-77587000D01*
X123127000Y-77587000D01*
X123127000Y-79873000D01*
X125413000Y-79873000D01*
X125413000Y-77587000D01*
X125667000Y-77587000D01*
X125667000Y-79873000D01*
X127953000Y-79873000D01*
X127953000Y-77587000D01*
X128207000Y-77587000D01*
X128207000Y-79873000D01*
X129400814Y-79873000D01*
X129521481Y-79643109D01*
X129424157Y-79368748D01*
X129275178Y-79118645D01*
X129080269Y-78902412D01*
X128849120Y-78730000D01*
X129080269Y-78557588D01*
X129275178Y-78341355D01*
X129424157Y-78091252D01*
X129521481Y-77816891D01*
X129400814Y-77587000D01*
X128207000Y-77587000D01*
X127953000Y-77587000D01*
X125667000Y-77587000D01*
X125413000Y-77587000D01*
X123127000Y-77587000D01*
X122873000Y-77587000D01*
X121679186Y-77587000D01*
X121558519Y-77816891D01*
X121655843Y-78091252D01*
X121804822Y-78341355D01*
X121981626Y-78537502D01*
X121905820Y-78560498D01*
X121795506Y-78619463D01*
X121698815Y-78698815D01*
X121619463Y-78795506D01*
X121560498Y-78905820D01*
X121524188Y-79025518D01*
X121511928Y-79150000D01*
X87749673Y-79150000D01*
X87637588Y-78999731D01*
X87421355Y-78804822D01*
X87171252Y-78655843D01*
X86896891Y-78558519D01*
X86667000Y-78679186D01*
X86413000Y-78679186D01*
X86183109Y-78558519D01*
X85908748Y-78655843D01*
X85658645Y-78804822D01*
X85462498Y-78981626D01*
X85439502Y-78905820D01*
X85380537Y-78795506D01*
X85301185Y-78698815D01*
X85204494Y-78619463D01*
X85094180Y-78560498D01*
X84974482Y-78524188D01*
X84850000Y-78511928D01*
X84285750Y-78515000D01*
X84127000Y-78673750D01*
X83873000Y-78673750D01*
X83714250Y-78515000D01*
X83150000Y-78511928D01*
X83025518Y-78524188D01*
X82905820Y-78560498D01*
X82795506Y-78619463D01*
X82698815Y-78698815D01*
X82619463Y-78795506D01*
X82560498Y-78905820D01*
X82524188Y-79025518D01*
X82511928Y-79150000D01*
X81660000Y-79150000D01*
X81660000Y-77103109D01*
X121558519Y-77103109D01*
X121679186Y-77333000D01*
X122873000Y-77333000D01*
X122873000Y-76139845D01*
X123127000Y-76139845D01*
X123127000Y-77333000D01*
X125413000Y-77333000D01*
X125413000Y-76139845D01*
X125667000Y-76139845D01*
X125667000Y-77333000D01*
X127953000Y-77333000D01*
X127953000Y-76139845D01*
X128207000Y-76139845D01*
X128207000Y-77333000D01*
X129400814Y-77333000D01*
X129521481Y-77103109D01*
X129424157Y-76828748D01*
X129275178Y-76578645D01*
X129080269Y-76362412D01*
X128846920Y-76188359D01*
X128584099Y-76063175D01*
X128436890Y-76018524D01*
X128207000Y-76139845D01*
X127953000Y-76139845D01*
X127723110Y-76018524D01*
X127575901Y-76063175D01*
X127313080Y-76188359D01*
X127079731Y-76362412D01*
X126884822Y-76578645D01*
X126810000Y-76704255D01*
X126735178Y-76578645D01*
X126540269Y-76362412D01*
X126306920Y-76188359D01*
X126044099Y-76063175D01*
X125896890Y-76018524D01*
X125667000Y-76139845D01*
X125413000Y-76139845D01*
X125183110Y-76018524D01*
X125035901Y-76063175D01*
X124773080Y-76188359D01*
X124539731Y-76362412D01*
X124344822Y-76578645D01*
X124270000Y-76704255D01*
X124195178Y-76578645D01*
X124000269Y-76362412D01*
X123766920Y-76188359D01*
X123504099Y-76063175D01*
X123356890Y-76018524D01*
X123127000Y-76139845D01*
X122873000Y-76139845D01*
X122643110Y-76018524D01*
X122495901Y-76063175D01*
X122233080Y-76188359D01*
X121999731Y-76362412D01*
X121804822Y-76578645D01*
X121655843Y-76828748D01*
X121558519Y-77103109D01*
X81660000Y-77103109D01*
X81660000Y-74150000D01*
X82511928Y-74150000D01*
X82511928Y-75850000D01*
X82524188Y-75974482D01*
X82560498Y-76094180D01*
X82619463Y-76204494D01*
X82698815Y-76301185D01*
X82795506Y-76380537D01*
X82905820Y-76439502D01*
X83025518Y-76475812D01*
X83150000Y-76488072D01*
X84850000Y-76488072D01*
X84974482Y-76475812D01*
X85094180Y-76439502D01*
X85204494Y-76380537D01*
X85301185Y-76301185D01*
X85380537Y-76204494D01*
X85439502Y-76094180D01*
X85461513Y-76021620D01*
X85593368Y-76153475D01*
X85836589Y-76315990D01*
X86106842Y-76427932D01*
X86393740Y-76485000D01*
X86686260Y-76485000D01*
X86973158Y-76427932D01*
X87243411Y-76315990D01*
X87486632Y-76153475D01*
X87693475Y-75946632D01*
X87855990Y-75703411D01*
X87967932Y-75433158D01*
X88025000Y-75146260D01*
X88025000Y-74853740D01*
X87967932Y-74566842D01*
X87855990Y-74296589D01*
X87693475Y-74053368D01*
X87486632Y-73846525D01*
X87243411Y-73684010D01*
X86973158Y-73572068D01*
X86686260Y-73515000D01*
X86393740Y-73515000D01*
X86106842Y-73572068D01*
X85836589Y-73684010D01*
X85593368Y-73846525D01*
X85461513Y-73978380D01*
X85439502Y-73905820D01*
X85380537Y-73795506D01*
X85301185Y-73698815D01*
X85204494Y-73619463D01*
X85094180Y-73560498D01*
X84974482Y-73524188D01*
X84850000Y-73511928D01*
X83150000Y-73511928D01*
X83025518Y-73524188D01*
X82905820Y-73560498D01*
X82795506Y-73619463D01*
X82698815Y-73698815D01*
X82619463Y-73795506D01*
X82560498Y-73905820D01*
X82524188Y-74025518D01*
X82511928Y-74150000D01*
X81660000Y-74150000D01*
X81660000Y-72891544D01*
X108500000Y-72891544D01*
X108500000Y-73158456D01*
X108552072Y-73420239D01*
X108654215Y-73666833D01*
X108802503Y-73888762D01*
X108991238Y-74077497D01*
X109213167Y-74225785D01*
X109459761Y-74327928D01*
X109721544Y-74380000D01*
X109988456Y-74380000D01*
X110250239Y-74327928D01*
X110496833Y-74225785D01*
X110718762Y-74077497D01*
X110907497Y-73888762D01*
X110916692Y-73875000D01*
X126511928Y-73875000D01*
X126524188Y-73999482D01*
X126560498Y-74119180D01*
X126619463Y-74229494D01*
X126698815Y-74326185D01*
X126795506Y-74405537D01*
X126905820Y-74464502D01*
X127025518Y-74500812D01*
X127150000Y-74513072D01*
X127714250Y-74510000D01*
X127873000Y-74351250D01*
X127873000Y-73152000D01*
X128127000Y-73152000D01*
X128127000Y-74351250D01*
X128285750Y-74510000D01*
X128850000Y-74513072D01*
X128974482Y-74500812D01*
X129094180Y-74464502D01*
X129204494Y-74405537D01*
X129301185Y-74326185D01*
X129380537Y-74229494D01*
X129439502Y-74119180D01*
X129475812Y-73999482D01*
X129488072Y-73875000D01*
X129485000Y-73310750D01*
X129326250Y-73152000D01*
X128127000Y-73152000D01*
X127873000Y-73152000D01*
X126673750Y-73152000D01*
X126515000Y-73310750D01*
X126511928Y-73875000D01*
X110916692Y-73875000D01*
X111055785Y-73666833D01*
X111157928Y-73420239D01*
X111210000Y-73158456D01*
X111210000Y-72891544D01*
X111157928Y-72629761D01*
X111055785Y-72383167D01*
X110916693Y-72175000D01*
X126511928Y-72175000D01*
X126515000Y-72739250D01*
X126673750Y-72898000D01*
X127873000Y-72898000D01*
X127873000Y-70612000D01*
X128127000Y-70612000D01*
X128127000Y-72898000D01*
X129326250Y-72898000D01*
X129485000Y-72739250D01*
X129488072Y-72175000D01*
X129475812Y-72050518D01*
X129439502Y-71930820D01*
X129380537Y-71820506D01*
X129301185Y-71723815D01*
X129204494Y-71644463D01*
X129094180Y-71585498D01*
X129018374Y-71562502D01*
X129195178Y-71366355D01*
X129344157Y-71116252D01*
X129441481Y-70841891D01*
X129320814Y-70612000D01*
X128127000Y-70612000D01*
X127873000Y-70612000D01*
X126679186Y-70612000D01*
X126558519Y-70841891D01*
X126655843Y-71116252D01*
X126804822Y-71366355D01*
X126981626Y-71562502D01*
X126905820Y-71585498D01*
X126795506Y-71644463D01*
X126698815Y-71723815D01*
X126619463Y-71820506D01*
X126560498Y-71930820D01*
X126524188Y-72050518D01*
X126511928Y-72175000D01*
X110916693Y-72175000D01*
X110907497Y-72161238D01*
X110718762Y-71972503D01*
X110496833Y-71824215D01*
X110250239Y-71722072D01*
X109988456Y-71670000D01*
X109721544Y-71670000D01*
X109459761Y-71722072D01*
X109213167Y-71824215D01*
X108991238Y-71972503D01*
X108802503Y-72161238D01*
X108654215Y-72383167D01*
X108552072Y-72629761D01*
X108500000Y-72891544D01*
X81660000Y-72891544D01*
X81660000Y-69933740D01*
X82515000Y-69933740D01*
X82515000Y-70226260D01*
X82572068Y-70513158D01*
X82684010Y-70783411D01*
X82846525Y-71026632D01*
X83053368Y-71233475D01*
X83296589Y-71395990D01*
X83566842Y-71507932D01*
X83853740Y-71565000D01*
X84146260Y-71565000D01*
X84433158Y-71507932D01*
X84703411Y-71395990D01*
X84946632Y-71233475D01*
X85153475Y-71026632D01*
X85270000Y-70852240D01*
X85386525Y-71026632D01*
X85593368Y-71233475D01*
X85836589Y-71395990D01*
X86106842Y-71507932D01*
X86393740Y-71565000D01*
X86686260Y-71565000D01*
X86973158Y-71507932D01*
X87243411Y-71395990D01*
X87486632Y-71233475D01*
X87693475Y-71026632D01*
X87855990Y-70783411D01*
X87967932Y-70513158D01*
X88000079Y-70351544D01*
X105960000Y-70351544D01*
X105960000Y-70618456D01*
X106012072Y-70880239D01*
X106114215Y-71126833D01*
X106262503Y-71348762D01*
X106451238Y-71537497D01*
X106673167Y-71685785D01*
X106919761Y-71787928D01*
X107181544Y-71840000D01*
X107448456Y-71840000D01*
X107710239Y-71787928D01*
X107956833Y-71685785D01*
X108178762Y-71537497D01*
X108295699Y-71420560D01*
X111639045Y-71420560D01*
X111700932Y-71656368D01*
X111942790Y-71769266D01*
X112202027Y-71832811D01*
X112468680Y-71844561D01*
X112732501Y-71804063D01*
X112983353Y-71712875D01*
X113089068Y-71656368D01*
X113150955Y-71420560D01*
X112395000Y-70664605D01*
X111639045Y-71420560D01*
X108295699Y-71420560D01*
X108367497Y-71348762D01*
X108515785Y-71126833D01*
X108617928Y-70880239D01*
X108670000Y-70618456D01*
X108670000Y-70558680D01*
X111035439Y-70558680D01*
X111075937Y-70822501D01*
X111167125Y-71073353D01*
X111223632Y-71179068D01*
X111459440Y-71240955D01*
X112215395Y-70485000D01*
X112574605Y-70485000D01*
X113330560Y-71240955D01*
X113566368Y-71179068D01*
X113679266Y-70937210D01*
X113742811Y-70677973D01*
X113754561Y-70411320D01*
X113714063Y-70147499D01*
X113707015Y-70128109D01*
X126558519Y-70128109D01*
X126679186Y-70358000D01*
X127873000Y-70358000D01*
X127873000Y-69164845D01*
X128127000Y-69164845D01*
X128127000Y-70358000D01*
X129320814Y-70358000D01*
X129441481Y-70128109D01*
X129344157Y-69853748D01*
X129195178Y-69603645D01*
X129000269Y-69387412D01*
X128766920Y-69213359D01*
X128504099Y-69088175D01*
X128356890Y-69043524D01*
X128127000Y-69164845D01*
X127873000Y-69164845D01*
X127643110Y-69043524D01*
X127495901Y-69088175D01*
X127233080Y-69213359D01*
X126999731Y-69387412D01*
X126804822Y-69603645D01*
X126655843Y-69853748D01*
X126558519Y-70128109D01*
X113707015Y-70128109D01*
X113622875Y-69896647D01*
X113566368Y-69790932D01*
X113330560Y-69729045D01*
X112574605Y-70485000D01*
X112215395Y-70485000D01*
X111459440Y-69729045D01*
X111223632Y-69790932D01*
X111110734Y-70032790D01*
X111047189Y-70292027D01*
X111035439Y-70558680D01*
X108670000Y-70558680D01*
X108670000Y-70351544D01*
X108617928Y-70089761D01*
X108515785Y-69843167D01*
X108367497Y-69621238D01*
X108295699Y-69549440D01*
X111639045Y-69549440D01*
X112395000Y-70305395D01*
X113150955Y-69549440D01*
X113089068Y-69313632D01*
X112847210Y-69200734D01*
X112587973Y-69137189D01*
X112321320Y-69125439D01*
X112057499Y-69165937D01*
X111806647Y-69257125D01*
X111700932Y-69313632D01*
X111639045Y-69549440D01*
X108295699Y-69549440D01*
X108178762Y-69432503D01*
X107956833Y-69284215D01*
X107710239Y-69182072D01*
X107448456Y-69130000D01*
X107181544Y-69130000D01*
X106919761Y-69182072D01*
X106673167Y-69284215D01*
X106451238Y-69432503D01*
X106262503Y-69621238D01*
X106114215Y-69843167D01*
X106012072Y-70089761D01*
X105960000Y-70351544D01*
X88000079Y-70351544D01*
X88025000Y-70226260D01*
X88025000Y-69933740D01*
X87967932Y-69646842D01*
X87855990Y-69376589D01*
X87693475Y-69133368D01*
X87486632Y-68926525D01*
X87304466Y-68804805D01*
X87421355Y-68735178D01*
X87637588Y-68540269D01*
X87811641Y-68306920D01*
X87936825Y-68044099D01*
X87981476Y-67896890D01*
X87860155Y-67667000D01*
X86667000Y-67667000D01*
X86667000Y-67687000D01*
X86413000Y-67687000D01*
X86413000Y-67667000D01*
X84127000Y-67667000D01*
X84127000Y-67687000D01*
X83873000Y-67687000D01*
X83873000Y-67667000D01*
X82679845Y-67667000D01*
X82558524Y-67896890D01*
X82603175Y-68044099D01*
X82728359Y-68306920D01*
X82902412Y-68540269D01*
X83118645Y-68735178D01*
X83235534Y-68804805D01*
X83053368Y-68926525D01*
X82846525Y-69133368D01*
X82684010Y-69376589D01*
X82572068Y-69646842D01*
X82515000Y-69933740D01*
X81660000Y-69933740D01*
X81660000Y-64150000D01*
X82511928Y-64150000D01*
X82511928Y-65850000D01*
X82524188Y-65974482D01*
X82560498Y-66094180D01*
X82619463Y-66204494D01*
X82698815Y-66301185D01*
X82795506Y-66380537D01*
X82905820Y-66439502D01*
X82986466Y-66463966D01*
X82902412Y-66539731D01*
X82728359Y-66773080D01*
X82603175Y-67035901D01*
X82558524Y-67183110D01*
X82679845Y-67413000D01*
X83873000Y-67413000D01*
X83873000Y-67393000D01*
X84127000Y-67393000D01*
X84127000Y-67413000D01*
X86413000Y-67413000D01*
X86413000Y-67393000D01*
X86667000Y-67393000D01*
X86667000Y-67413000D01*
X87860155Y-67413000D01*
X87981476Y-67183110D01*
X87936825Y-67035901D01*
X87811641Y-66773080D01*
X87637588Y-66539731D01*
X87421355Y-66344822D01*
X87304466Y-66275195D01*
X87486632Y-66153475D01*
X87693475Y-65946632D01*
X87855990Y-65703411D01*
X87967932Y-65433158D01*
X88025000Y-65146260D01*
X88025000Y-64853740D01*
X87967932Y-64566842D01*
X87855990Y-64296589D01*
X87693475Y-64053368D01*
X87486632Y-63846525D01*
X87243411Y-63684010D01*
X86973158Y-63572068D01*
X86686260Y-63515000D01*
X86393740Y-63515000D01*
X86106842Y-63572068D01*
X85836589Y-63684010D01*
X85593368Y-63846525D01*
X85461513Y-63978380D01*
X85439502Y-63905820D01*
X85380537Y-63795506D01*
X85301185Y-63698815D01*
X85204494Y-63619463D01*
X85094180Y-63560498D01*
X84974482Y-63524188D01*
X84850000Y-63511928D01*
X83150000Y-63511928D01*
X83025518Y-63524188D01*
X82905820Y-63560498D01*
X82795506Y-63619463D01*
X82698815Y-63698815D01*
X82619463Y-63795506D01*
X82560498Y-63905820D01*
X82524188Y-64025518D01*
X82511928Y-64150000D01*
X81660000Y-64150000D01*
X81660000Y-59150000D01*
X82511928Y-59150000D01*
X82511928Y-60850000D01*
X82524188Y-60974482D01*
X82560498Y-61094180D01*
X82619463Y-61204494D01*
X82698815Y-61301185D01*
X82795506Y-61380537D01*
X82905820Y-61439502D01*
X83025518Y-61475812D01*
X83150000Y-61488072D01*
X84850000Y-61488072D01*
X84974482Y-61475812D01*
X85094180Y-61439502D01*
X85204494Y-61380537D01*
X85301185Y-61301185D01*
X85380537Y-61204494D01*
X85439502Y-61094180D01*
X85461513Y-61021620D01*
X85593368Y-61153475D01*
X85836589Y-61315990D01*
X86106842Y-61427932D01*
X86393740Y-61485000D01*
X86686260Y-61485000D01*
X86973158Y-61427932D01*
X87243411Y-61315990D01*
X87486632Y-61153475D01*
X87693475Y-60946632D01*
X87855990Y-60703411D01*
X87967932Y-60433158D01*
X88025000Y-60146260D01*
X88025000Y-59853740D01*
X87967932Y-59566842D01*
X87855990Y-59296589D01*
X87693475Y-59053368D01*
X87486632Y-58846525D01*
X87243411Y-58684010D01*
X86973158Y-58572068D01*
X86686260Y-58515000D01*
X86393740Y-58515000D01*
X86106842Y-58572068D01*
X85836589Y-58684010D01*
X85593368Y-58846525D01*
X85461513Y-58978380D01*
X85439502Y-58905820D01*
X85380537Y-58795506D01*
X85301185Y-58698815D01*
X85204494Y-58619463D01*
X85094180Y-58560498D01*
X84974482Y-58524188D01*
X84850000Y-58511928D01*
X83150000Y-58511928D01*
X83025518Y-58524188D01*
X82905820Y-58560498D01*
X82795506Y-58619463D01*
X82698815Y-58698815D01*
X82619463Y-58795506D01*
X82560498Y-58905820D01*
X82524188Y-59025518D01*
X82511928Y-59150000D01*
X81660000Y-59150000D01*
X81660000Y-55561544D01*
X84433000Y-55561544D01*
X84433000Y-55828456D01*
X84485072Y-56090239D01*
X84587215Y-56336833D01*
X84735503Y-56558762D01*
X84924238Y-56747497D01*
X85146167Y-56895785D01*
X85392761Y-56997928D01*
X85654544Y-57050000D01*
X85921456Y-57050000D01*
X86183239Y-56997928D01*
X86429833Y-56895785D01*
X86498355Y-56850000D01*
X121511928Y-56850000D01*
X121524188Y-56974482D01*
X121560498Y-57094180D01*
X121619463Y-57204494D01*
X121698815Y-57301185D01*
X121795506Y-57380537D01*
X121905820Y-57439502D01*
X122025518Y-57475812D01*
X122150000Y-57488072D01*
X122714250Y-57485000D01*
X122873000Y-57326250D01*
X122873000Y-56127000D01*
X123127000Y-56127000D01*
X123127000Y-57326250D01*
X123285750Y-57485000D01*
X123850000Y-57488072D01*
X123974482Y-57475812D01*
X124094180Y-57439502D01*
X124204494Y-57380537D01*
X124301185Y-57301185D01*
X124380537Y-57204494D01*
X124439502Y-57094180D01*
X124463966Y-57013534D01*
X124539731Y-57097588D01*
X124773080Y-57271641D01*
X125035901Y-57396825D01*
X125183110Y-57441476D01*
X125413000Y-57320155D01*
X125413000Y-56127000D01*
X125667000Y-56127000D01*
X125667000Y-57320155D01*
X125896890Y-57441476D01*
X126044099Y-57396825D01*
X126306920Y-57271641D01*
X126540269Y-57097588D01*
X126735178Y-56881355D01*
X126810000Y-56755745D01*
X126884822Y-56881355D01*
X127079731Y-57097588D01*
X127313080Y-57271641D01*
X127575901Y-57396825D01*
X127723110Y-57441476D01*
X127953000Y-57320155D01*
X127953000Y-56127000D01*
X125667000Y-56127000D01*
X125413000Y-56127000D01*
X123127000Y-56127000D01*
X122873000Y-56127000D01*
X121673750Y-56127000D01*
X121515000Y-56285750D01*
X121511928Y-56850000D01*
X86498355Y-56850000D01*
X86651762Y-56747497D01*
X86840497Y-56558762D01*
X86988785Y-56336833D01*
X87090928Y-56090239D01*
X87143000Y-55828456D01*
X87143000Y-55561544D01*
X87090928Y-55299761D01*
X87028895Y-55150000D01*
X121511928Y-55150000D01*
X121515000Y-55714250D01*
X121673750Y-55873000D01*
X122873000Y-55873000D01*
X122873000Y-55853000D01*
X123127000Y-55853000D01*
X123127000Y-55873000D01*
X125413000Y-55873000D01*
X125413000Y-53587000D01*
X125393000Y-53587000D01*
X125393000Y-53333000D01*
X125413000Y-53333000D01*
X125413000Y-52139845D01*
X125183110Y-52018524D01*
X125035901Y-52063175D01*
X124773080Y-52188359D01*
X124539731Y-52362412D01*
X124344822Y-52578645D01*
X124275195Y-52695534D01*
X124153475Y-52513368D01*
X123946632Y-52306525D01*
X123703411Y-52144010D01*
X123433158Y-52032068D01*
X123146260Y-51975000D01*
X122853740Y-51975000D01*
X122566842Y-52032068D01*
X122296589Y-52144010D01*
X122053368Y-52306525D01*
X121846525Y-52513368D01*
X121684010Y-52756589D01*
X121572068Y-53026842D01*
X121515000Y-53313740D01*
X121515000Y-53606260D01*
X121572068Y-53893158D01*
X121684010Y-54163411D01*
X121846525Y-54406632D01*
X121978380Y-54538487D01*
X121905820Y-54560498D01*
X121795506Y-54619463D01*
X121698815Y-54698815D01*
X121619463Y-54795506D01*
X121560498Y-54905820D01*
X121524188Y-55025518D01*
X121511928Y-55150000D01*
X87028895Y-55150000D01*
X86988785Y-55053167D01*
X86840497Y-54831238D01*
X86651762Y-54642503D01*
X86429833Y-54494215D01*
X86183239Y-54392072D01*
X85921456Y-54340000D01*
X85654544Y-54340000D01*
X85392761Y-54392072D01*
X85146167Y-54494215D01*
X84924238Y-54642503D01*
X84735503Y-54831238D01*
X84587215Y-55053167D01*
X84485072Y-55299761D01*
X84433000Y-55561544D01*
X81660000Y-55561544D01*
X81660000Y-53021544D01*
X81893000Y-53021544D01*
X81893000Y-53288456D01*
X81945072Y-53550239D01*
X82047215Y-53796833D01*
X82195503Y-54018762D01*
X82384238Y-54207497D01*
X82606167Y-54355785D01*
X82852761Y-54457928D01*
X83114544Y-54510000D01*
X83381456Y-54510000D01*
X83643239Y-54457928D01*
X83889833Y-54355785D01*
X84111762Y-54207497D01*
X84228699Y-54090560D01*
X87572045Y-54090560D01*
X87633932Y-54326368D01*
X87875790Y-54439266D01*
X88135027Y-54502811D01*
X88401680Y-54514561D01*
X88665501Y-54474063D01*
X88916353Y-54382875D01*
X89022068Y-54326368D01*
X89083955Y-54090560D01*
X88328000Y-53334605D01*
X87572045Y-54090560D01*
X84228699Y-54090560D01*
X84300497Y-54018762D01*
X84448785Y-53796833D01*
X84550928Y-53550239D01*
X84603000Y-53288456D01*
X84603000Y-53228680D01*
X86968439Y-53228680D01*
X87008937Y-53492501D01*
X87100125Y-53743353D01*
X87156632Y-53849068D01*
X87392440Y-53910955D01*
X88148395Y-53155000D01*
X88507605Y-53155000D01*
X89263560Y-53910955D01*
X89499368Y-53849068D01*
X89612266Y-53607210D01*
X89675811Y-53347973D01*
X89687561Y-53081320D01*
X89647063Y-52817499D01*
X89555875Y-52566647D01*
X89499368Y-52460932D01*
X89263560Y-52399045D01*
X88507605Y-53155000D01*
X88148395Y-53155000D01*
X87392440Y-52399045D01*
X87156632Y-52460932D01*
X87043734Y-52702790D01*
X86980189Y-52962027D01*
X86968439Y-53228680D01*
X84603000Y-53228680D01*
X84603000Y-53021544D01*
X84550928Y-52759761D01*
X84448785Y-52513167D01*
X84300497Y-52291238D01*
X84228699Y-52219440D01*
X87572045Y-52219440D01*
X88328000Y-52975395D01*
X89083955Y-52219440D01*
X89022068Y-51983632D01*
X88780210Y-51870734D01*
X88520973Y-51807189D01*
X88254320Y-51795439D01*
X87990499Y-51835937D01*
X87739647Y-51927125D01*
X87633932Y-51983632D01*
X87572045Y-52219440D01*
X84228699Y-52219440D01*
X84111762Y-52102503D01*
X83889833Y-51954215D01*
X83643239Y-51852072D01*
X83381456Y-51800000D01*
X83114544Y-51800000D01*
X82852761Y-51852072D01*
X82606167Y-51954215D01*
X82384238Y-52102503D01*
X82195503Y-52291238D01*
X82047215Y-52513167D01*
X81945072Y-52759761D01*
X81893000Y-53021544D01*
X81660000Y-53021544D01*
X81660000Y-51660000D01*
X130340001Y-51660000D01*
X130340001Y-54645199D01*
M02*
