G04*
G04 #@! TF.GenerationSoftware,Altium Limited,Altium Designer,18.0.9 (584)*
G04*
G04 Layer_Color=16711935*
%FSLAX43Y43*%
%MOMM*%
G71*
G01*
G75*
%ADD10C,0.254*%
%ADD15C,0.100*%
D10*
X40000Y40000D02*
Y110000D01*
X110000D01*
Y40000D02*
Y110000D01*
X40000Y40000D02*
X110000D01*
D15*
X97190Y85025D02*
X98790D01*
X97190Y85825D02*
X98790D01*
X97190Y85025D02*
Y85825D01*
X98790Y85025D02*
Y85825D01*
X101500Y89150D02*
Y92350D01*
X97000Y89150D02*
Y92350D01*
X101500D01*
X97000Y89150D02*
X101500D01*
X98000Y79300D02*
Y81500D01*
X96600Y79300D02*
Y81500D01*
Y79300D02*
X98000D01*
X96600Y81500D02*
X98000D01*
X97190Y74750D02*
X98790D01*
X97190Y75550D02*
X98790D01*
X97190Y74750D02*
Y75550D01*
X98790Y74750D02*
Y75550D01*
X102825Y70795D02*
Y72395D01*
X102025Y70795D02*
Y72395D01*
Y70795D02*
X102825D01*
X102025Y72395D02*
X102825D01*
X97125Y71605D02*
X99325D01*
X97125Y70205D02*
X99325D01*
Y71605D01*
X97125Y70205D02*
Y71605D01*
X47875Y73335D02*
Y74935D01*
X47075Y73335D02*
Y74935D01*
Y73335D02*
X47875D01*
X47075Y74935D02*
X47875D01*
X52915Y72745D02*
X55115D01*
X52915Y74145D02*
X55115D01*
X52915Y72745D02*
Y74145D01*
X55115Y72745D02*
Y74145D01*
X53450Y78100D02*
X55050D01*
X53450Y77300D02*
X55050D01*
Y78100D01*
X53450Y77300D02*
Y78100D01*
X55640Y81840D02*
Y84040D01*
X54240Y81840D02*
Y84040D01*
Y81840D02*
X55640D01*
X54240Y84040D02*
X55640D01*
X53450Y88575D02*
X55050D01*
X53450Y87775D02*
X55050D01*
Y88575D01*
X53450Y87775D02*
Y88575D01*
X50740Y91900D02*
Y95100D01*
X55240Y91900D02*
Y95100D01*
X50740Y91900D02*
X55240D01*
X50740Y95100D02*
X55240D01*
M02*
