G04*
G04 #@! TF.GenerationSoftware,Altium Limited,Altium Designer,18.0.9 (584)*
G04*
G04 Layer_Color=16711935*
%FSLAX43Y43*%
%MOMM*%
G71*
G01*
G75*
%ADD16C,3.203*%
%ADD17C,1.703*%
%ADD18R,1.703X1.703*%
%ADD19R,1.703X1.703*%
%ADD20C,1.803*%
G04:AMPARAMS|DCode=21|XSize=1.727mm|YSize=1.727mm|CornerRadius=0.483mm|HoleSize=0mm|Usage=FLASHONLY|Rotation=90.000|XOffset=0mm|YOffset=0mm|HoleType=Round|Shape=RoundedRectangle|*
%AMROUNDEDRECTD21*
21,1,1.727,0.762,0,0,90.0*
21,1,0.762,1.727,0,0,90.0*
1,1,0.965,0.381,0.381*
1,1,0.965,0.381,-0.381*
1,1,0.965,-0.381,-0.381*
1,1,0.965,-0.381,0.381*
%
%ADD21ROUNDEDRECTD21*%
%ADD22C,1.727*%
%ADD23C,3.703*%
%ADD24C,5.203*%
%ADD41R,0.923X1.083*%
%ADD42R,1.503X3.453*%
%ADD43R,1.603X1.253*%
%ADD44R,1.083X0.923*%
%ADD45R,1.253X1.603*%
D16*
X19750Y41000D02*
D03*
Y36800D02*
D03*
X14327Y41000D02*
D03*
Y36800D02*
D03*
X19750Y135211D02*
D03*
Y131011D02*
D03*
X14327Y135211D02*
D03*
Y131011D02*
D03*
X130250Y108385D02*
D03*
Y112585D02*
D03*
X135673Y108385D02*
D03*
Y112585D02*
D03*
X130250Y129200D02*
D03*
X135673D02*
D03*
X130250Y133417D02*
D03*
X135673Y124982D02*
D03*
X130250D02*
D03*
X135672Y133417D02*
D03*
X19750Y55968D02*
D03*
X14328D02*
D03*
X19750Y51750D02*
D03*
X14328Y60185D02*
D03*
X19750D02*
D03*
X14328Y51750D02*
D03*
D17*
X19749Y107250D02*
D03*
X71445Y28543D02*
D03*
X71445Y9055D02*
D03*
Y12805D02*
D03*
X130249Y142490D02*
D03*
X125960Y100449D02*
D03*
X137949Y17890D02*
D03*
X51499D02*
D03*
X35399Y43783D02*
D03*
X20051Y73410D02*
D03*
X5051D02*
D03*
X25051D02*
D03*
X10051D02*
D03*
X30051D02*
D03*
X15051D02*
D03*
X132250Y37080D02*
D03*
Y39620D02*
D03*
Y42160D02*
D03*
Y44700D02*
D03*
Y47240D02*
D03*
Y49780D02*
D03*
Y52320D02*
D03*
Y54860D02*
D03*
Y57400D02*
D03*
Y59940D02*
D03*
Y62480D02*
D03*
Y65020D02*
D03*
Y67560D02*
D03*
Y70100D02*
D03*
Y72640D02*
D03*
Y75180D02*
D03*
Y77720D02*
D03*
Y80260D02*
D03*
Y82800D02*
D03*
Y85340D02*
D03*
Y87880D02*
D03*
Y90420D02*
D03*
Y92960D02*
D03*
X5476Y118790D02*
D03*
X2936D02*
D03*
X5476Y116250D02*
D03*
Y101790D02*
D03*
X2936D02*
D03*
X5476Y99250D02*
D03*
X5476Y84790D02*
D03*
X2936D02*
D03*
X5476Y82250D02*
D03*
X36639Y118790D02*
D03*
X34099D02*
D03*
X36639Y116250D02*
D03*
Y101790D02*
D03*
X34099D02*
D03*
X36639Y99250D02*
D03*
Y84790D02*
D03*
X34099D02*
D03*
X36639Y82250D02*
D03*
X22059Y68500D02*
D03*
X19519D02*
D03*
X16979D02*
D03*
X14439D02*
D03*
X11899D02*
D03*
X30540Y147000D02*
D03*
X51160Y3800D02*
D03*
X5476Y122960D02*
D03*
X2936D02*
D03*
X5476Y125500D02*
D03*
X71445Y24295D02*
D03*
X105520Y95960D02*
D03*
X44520Y95960D02*
D03*
X106790Y52770D02*
D03*
X45790Y52770D02*
D03*
X105520Y91225D02*
D03*
Y88685D02*
D03*
Y86145D02*
D03*
Y83605D02*
D03*
Y81065D02*
D03*
Y78525D02*
D03*
Y75985D02*
D03*
Y73445D02*
D03*
Y70905D02*
D03*
Y68365D02*
D03*
Y65825D02*
D03*
Y63285D02*
D03*
Y60745D02*
D03*
X44520Y58205D02*
D03*
Y60745D02*
D03*
Y63285D02*
D03*
Y65825D02*
D03*
Y68365D02*
D03*
Y70905D02*
D03*
Y73445D02*
D03*
Y75985D02*
D03*
Y78525D02*
D03*
Y81065D02*
D03*
Y83605D02*
D03*
Y86145D02*
D03*
Y88685D02*
D03*
D18*
X19749Y109790D02*
D03*
X130249Y139950D02*
D03*
X137949Y15350D02*
D03*
X51499D02*
D03*
X35399Y41243D02*
D03*
X20051Y75950D02*
D03*
X5051D02*
D03*
X25051D02*
D03*
X10051D02*
D03*
X30051D02*
D03*
X15051D02*
D03*
X27040Y3820D02*
D03*
X24500D02*
D03*
X32145Y27036D02*
D03*
X34685D02*
D03*
X29605D02*
D03*
X27065D02*
D03*
X24525D02*
D03*
X29605Y3820D02*
D03*
X32145D02*
D03*
X34685D02*
D03*
X42305Y27036D02*
D03*
X39765D02*
D03*
X37225D02*
D03*
Y3820D02*
D03*
X39765D02*
D03*
X42305D02*
D03*
X132250Y95500D02*
D03*
X60776Y29375D02*
D03*
Y24295D02*
D03*
X129356Y29375D02*
D03*
X60776Y16675D02*
D03*
Y9055D02*
D03*
Y3975D02*
D03*
X126816Y6515D02*
D03*
X63316Y16675D02*
D03*
Y29375D02*
D03*
Y24295D02*
D03*
X126816Y14135D02*
D03*
X129356Y3975D02*
D03*
Y21755D02*
D03*
Y11595D02*
D03*
X126816Y3975D02*
D03*
Y21755D02*
D03*
Y11595D02*
D03*
X129356Y6515D02*
D03*
Y16675D02*
D03*
X126816Y24295D02*
D03*
X63316Y3975D02*
D03*
X126816Y16675D02*
D03*
X129356Y24295D02*
D03*
X63316Y9055D02*
D03*
X129356Y14135D02*
D03*
X126816Y29375D02*
D03*
X2936Y116250D02*
D03*
Y99250D02*
D03*
X2936Y82250D02*
D03*
X34099Y116250D02*
D03*
Y99250D02*
D03*
Y82250D02*
D03*
X2936Y125500D02*
D03*
X105520Y98500D02*
D03*
X44520Y98500D02*
D03*
X105520Y58205D02*
D03*
X44520Y91225D02*
D03*
D19*
X68905Y28543D02*
D03*
X68905Y9055D02*
D03*
Y12805D02*
D03*
X128500Y100449D02*
D03*
X24599Y68500D02*
D03*
X28000Y147000D02*
D03*
X53700Y3800D02*
D03*
X68905Y24295D02*
D03*
X104250Y52770D02*
D03*
X43250Y52770D02*
D03*
D20*
X139178Y91263D02*
D03*
X142023Y89866D02*
D03*
Y87098D02*
D03*
Y84329D02*
D03*
X139178Y85726D02*
D03*
Y77420D02*
D03*
X142023Y78792D02*
D03*
Y76023D02*
D03*
X139178Y74652D02*
D03*
Y80189D02*
D03*
Y71883D02*
D03*
X142023Y70486D02*
D03*
X139178Y63577D02*
D03*
X142023Y62180D02*
D03*
Y64949D02*
D03*
X139178Y60809D02*
D03*
X142023Y59412D02*
D03*
Y56643D02*
D03*
X139178Y52503D02*
D03*
Y46966D02*
D03*
Y49734D02*
D03*
X142023Y48337D02*
D03*
Y45569D02*
D03*
X139178Y44197D02*
D03*
Y88495D02*
D03*
Y58040D02*
D03*
X142023Y73255D02*
D03*
X139178Y66346D02*
D03*
X142023Y42800D02*
D03*
Y51106D02*
D03*
D21*
X139178Y82957D02*
D03*
Y69114D02*
D03*
X142023Y67717D02*
D03*
Y53874D02*
D03*
X139178Y55271D02*
D03*
X142023Y81560D02*
D03*
D22*
X139178Y41428D02*
D03*
X63316Y6515D02*
D03*
X60776D02*
D03*
Y11595D02*
D03*
X63316D02*
D03*
Y14135D02*
D03*
X60776D02*
D03*
X63316Y19215D02*
D03*
X60776D02*
D03*
X63316Y21755D02*
D03*
X60776D02*
D03*
X63316Y26835D02*
D03*
X60776D02*
D03*
X129356D02*
D03*
X126816D02*
D03*
X129356Y19215D02*
D03*
X126816D02*
D03*
X129356Y9055D02*
D03*
X126816D02*
D03*
D23*
X140601Y98096D02*
D03*
Y34596D02*
D03*
D24*
X50000Y143000D02*
D03*
X100000D02*
D03*
X118000Y75000D02*
D03*
X100000Y32000D02*
D03*
Y118000D02*
D03*
X50000D02*
D03*
Y32000D02*
D03*
X145000Y5000D02*
D03*
X145000Y145000D02*
D03*
X5000D02*
D03*
X5000Y5000D02*
D03*
D41*
X97300Y85425D02*
D03*
X98680D02*
D03*
X97300Y75150D02*
D03*
X98680D02*
D03*
X54940Y77700D02*
D03*
X53560D02*
D03*
X54940Y88175D02*
D03*
X53560D02*
D03*
D42*
X101200Y90750D02*
D03*
X97300D02*
D03*
X51040Y93500D02*
D03*
X54940D02*
D03*
D43*
X97300Y79475D02*
D03*
Y81325D02*
D03*
X54940Y82015D02*
D03*
Y83865D02*
D03*
D44*
X102425Y70905D02*
D03*
Y72285D02*
D03*
X47475Y73445D02*
D03*
Y74825D02*
D03*
D45*
X99150Y70905D02*
D03*
X97300D02*
D03*
X53090Y73445D02*
D03*
X54940D02*
D03*
M02*
