M48
;Layer_Color=9474304
;FILE_FORMAT=4:3
METRIC,LZ
;TYPE=PLATED
T1F00S00C0.900
T2F00S00C0.965
T3F00S00C1.000
T4F00S00C2.000
T5F00S00C2.500
;TYPE=NON_PLATED
T6F00S00C4.000
%
T01
X005116Y00038
X00537
X0060776Y0003975
X0063316
Y0009055
X0060776
Y0016675
X0063316
Y0024295
X0060776
X0068905
X0071445
Y0028543
X0068905
X0068905Y0012805
X0071445
Y0009055
X0068905
X0051499Y001535
Y001789
X0126816Y0016675
Y0014135
Y0011595
X0129356
Y0014135
Y0016675
Y0021755
X0126816
Y0024295
X0129356
X0137949Y001789
Y001535
X0129356Y0006515
X0126816
Y0003975
X0129356
Y0029375
X0126816
X013225Y003708
Y003962
Y004216
Y00447
Y004724
Y004978
Y005232
Y005486
Y00574
Y005994
Y006248
Y006502
Y006756
X010552Y0068365
Y0065825
Y0063285
Y0060745
Y0058205
X010425Y005277
X010679
X004579Y005277
X004325
X004452Y0058205
Y0060745
Y0063285
Y0065825
Y0068365
X0060776Y0029375
X0063316
X0035399Y0041243
Y0043783
X0030051Y007341
Y007595
X0025051
Y007341
X0020051
Y007595
X0015051
Y007341
X0010051
Y007595
X0005051
Y007341
X0005476Y008225
Y008479
X0002936
Y008225
X0002936Y009925
Y010179
X0005476
Y009925
X0019749Y010725
X0034099Y010179
X0036639
Y009925
X0034099
Y008479
X0036639
Y008225
X0034099
X0024599Y00685
X0022059
X0019519
X0016979
X0014439
X0011899
X004452Y0070905
Y0073445
Y0075985
Y0078525
Y0081065
Y0083605
Y0086145
Y0088685
Y0091225
Y009596
Y00985
X010552Y00985
Y009596
Y0091225
Y0088685
Y0086145
Y0083605
Y0081065
Y0078525
Y0075985
Y0073445
Y0070905
X013225Y00701
Y007264
Y007518
Y007772
Y008026
Y00828
Y008534
Y008788
Y009042
Y009296
Y00955
X01285Y0100449
X012596
X0130249Y013995
Y014249
X003054Y0147
X0028
X0034099Y011879
X0036639
Y011625
X0034099
X0019749Y010979
X0005476Y011625
Y011879
X0002936
Y011625
Y012296
X0005476
Y01255
X0002936
T02
X0139178Y0041428
Y0055271
X0142023Y0053874
Y0067717
X0139178Y0069114
Y0082957
X0142023Y008156
T03
X00245Y000382
X002704
X0029605
X0032145
X0034685
X0037225
Y0027036
X0034685
X0032145
X0029605
X0027065
X0024525
X0039765
X0042305
X0060776Y0026835
X0063316
Y0021755
Y0019215
X0060776
Y0021755
Y0014135
Y0011595
X0063316
Y0014135
Y0006515
X0060776
X0042305Y000382
X0039765
X0126816Y0009055
X0129356
Y0019215
X0126816
Y0026835
X0129356
X0139178Y0044197
Y0046966
Y0049734
Y0052503
X0142023Y0051106
Y0048337
Y0045569
Y00428
Y0056643
Y0059412
Y006218
Y0064949
X0139178Y0063577
Y0060809
Y005804
Y0066346
Y0071883
Y0074652
Y007742
Y0080189
X0142023Y0078792
Y0076023
Y0073255
Y0070486
Y0084329
Y0087098
Y0089866
X0139178Y0088495
Y0091263
Y0085726
T04
X0014327Y00368
Y0041
X001975
Y00368
X001975Y005175
Y0055968
Y0060185
X0014328
Y0055968
Y005175
X013025Y0108385
Y0112585
X0135673
Y0108385
X0135673Y0124982
Y01292
X0135672Y0133417
X013025
Y01292
Y0124982
X001975Y0131011
Y0135211
X0014327
Y0131011
T05
X0140601Y0034596
Y0098096
T06
X0005Y0005
X0145
X01Y0032
X005
X0118Y0075
X0145Y0145
X01Y0143
Y0118
X005
Y0143
X0005Y0145
M30
