G04 #@! TF.GenerationSoftware,KiCad,Pcbnew,5.1.5+dfsg1-2build2*
G04 #@! TF.CreationDate,2021-11-26T13:05:08+03:00*
G04 #@! TF.ProjectId,Mezonin,4d657a6f-6e69-46e2-9e6b-696361645f70,rev?*
G04 #@! TF.SameCoordinates,Original*
G04 #@! TF.FileFunction,Copper,L2,Bot*
G04 #@! TF.FilePolarity,Positive*
%FSLAX46Y46*%
G04 Gerber Fmt 4.6, Leading zero omitted, Abs format (unit mm)*
G04 Created by KiCad (PCBNEW 5.1.5+dfsg1-2build2) date 2021-11-26 13:05:08*
%MOMM*%
%LPD*%
G04 APERTURE LIST*
%ADD10O,1.700000X1.700000*%
%ADD11R,1.700000X1.700000*%
%ADD12C,0.800000*%
%ADD13C,0.254000*%
G04 APERTURE END LIST*
D10*
X144846999Y-115110000D03*
X144846999Y-117650000D03*
X142306999Y-115110000D03*
X142306999Y-117650000D03*
X139766999Y-115110000D03*
D11*
X139766999Y-117650000D03*
D10*
X100846999Y-115110000D03*
X100846999Y-117650000D03*
X98306999Y-115110000D03*
X98306999Y-117650000D03*
X95766999Y-115110000D03*
D11*
X95766999Y-117650000D03*
X120266999Y-151650000D03*
D10*
X120266999Y-149110000D03*
X122806999Y-151650000D03*
X122806999Y-149110000D03*
X125346999Y-151650000D03*
X125346999Y-149110000D03*
X95461999Y-150000000D03*
D11*
X95461999Y-152540000D03*
D10*
X101811999Y-144920000D03*
D11*
X101811999Y-142380000D03*
D10*
X110701999Y-144920000D03*
D11*
X110701999Y-142380000D03*
D10*
X144991999Y-144920000D03*
D11*
X144991999Y-142380000D03*
D10*
X108161999Y-115710000D03*
D11*
X105621999Y-115710000D03*
D10*
X138514999Y-151905000D03*
D11*
X135974999Y-151905000D03*
D12*
X97366999Y-146825000D03*
X106256999Y-146825000D03*
X142451999Y-122060000D03*
X137371999Y-122060000D03*
X137371999Y-124600000D03*
X142451999Y-124600000D03*
X137371999Y-129680000D03*
X142451999Y-129680000D03*
X108161999Y-132220000D03*
X103081999Y-132220000D03*
X108161999Y-127140000D03*
X103081999Y-127140000D03*
X103081999Y-129680000D03*
X103081999Y-124600000D03*
X108161999Y-124600000D03*
X108161999Y-129680000D03*
X108161999Y-122060000D03*
X103081999Y-122060000D03*
X142451999Y-132220000D03*
X137371999Y-132220000D03*
X142451999Y-127140000D03*
X137371999Y-127140000D03*
X103081999Y-134760000D03*
X108161999Y-134760000D03*
X142451999Y-137300000D03*
X137371999Y-137300000D03*
X108161999Y-137300000D03*
X103081999Y-137300000D03*
X137371999Y-134760000D03*
X142451999Y-134760000D03*
D13*
G36*
X114106999Y-145617581D02*
G01*
X114103806Y-145650000D01*
X114116549Y-145779383D01*
X114154289Y-145903793D01*
X114215574Y-146018450D01*
X114260732Y-146073475D01*
X114298051Y-146118948D01*
X114398549Y-146201425D01*
X114513206Y-146262710D01*
X114637616Y-146300450D01*
X114766999Y-146313193D01*
X114799418Y-146310000D01*
X130734580Y-146310000D01*
X130766999Y-146313193D01*
X130799418Y-146310000D01*
X130896382Y-146300450D01*
X131020792Y-146262710D01*
X131135449Y-146201425D01*
X131235947Y-146118948D01*
X131318424Y-146018450D01*
X131379709Y-145903793D01*
X131417449Y-145779383D01*
X131430192Y-145650000D01*
X131426999Y-145617581D01*
X131426999Y-141530000D01*
X143503927Y-141530000D01*
X143503927Y-143230000D01*
X143516187Y-143354482D01*
X143552497Y-143474180D01*
X143611462Y-143584494D01*
X143690814Y-143681185D01*
X143787505Y-143760537D01*
X143897819Y-143819502D01*
X143970379Y-143841513D01*
X143838524Y-143973368D01*
X143676009Y-144216589D01*
X143564067Y-144486842D01*
X143506999Y-144773740D01*
X143506999Y-145066260D01*
X143564067Y-145353158D01*
X143676009Y-145623411D01*
X143838524Y-145866632D01*
X144045367Y-146073475D01*
X144288588Y-146235990D01*
X144558841Y-146347932D01*
X144845739Y-146405000D01*
X145138259Y-146405000D01*
X145425157Y-146347932D01*
X145695410Y-146235990D01*
X145938631Y-146073475D01*
X146145474Y-145866632D01*
X146307989Y-145623411D01*
X146419931Y-145353158D01*
X146476999Y-145066260D01*
X146476999Y-144773740D01*
X146419931Y-144486842D01*
X146307989Y-144216589D01*
X146145474Y-143973368D01*
X146013619Y-143841513D01*
X146086179Y-143819502D01*
X146196493Y-143760537D01*
X146293184Y-143681185D01*
X146372536Y-143584494D01*
X146431501Y-143474180D01*
X146467811Y-143354482D01*
X146480071Y-143230000D01*
X146480071Y-141530000D01*
X146467811Y-141405518D01*
X146431501Y-141285820D01*
X146372536Y-141175506D01*
X146293184Y-141078815D01*
X146196493Y-140999463D01*
X146086179Y-140940498D01*
X145966481Y-140904188D01*
X145841999Y-140891928D01*
X144141999Y-140891928D01*
X144017517Y-140904188D01*
X143897819Y-140940498D01*
X143787505Y-140999463D01*
X143690814Y-141078815D01*
X143611462Y-141175506D01*
X143552497Y-141285820D01*
X143516187Y-141405518D01*
X143503927Y-141530000D01*
X131426999Y-141530000D01*
X131426999Y-137198061D01*
X136336999Y-137198061D01*
X136336999Y-137401939D01*
X136376773Y-137601898D01*
X136454794Y-137790256D01*
X136568062Y-137959774D01*
X136712225Y-138103937D01*
X136881743Y-138217205D01*
X137070101Y-138295226D01*
X137270060Y-138335000D01*
X137473938Y-138335000D01*
X137673897Y-138295226D01*
X137862255Y-138217205D01*
X138031773Y-138103937D01*
X138175936Y-137959774D01*
X138289204Y-137790256D01*
X138367225Y-137601898D01*
X138406999Y-137401939D01*
X138406999Y-137198061D01*
X141416999Y-137198061D01*
X141416999Y-137401939D01*
X141456773Y-137601898D01*
X141534794Y-137790256D01*
X141648062Y-137959774D01*
X141792225Y-138103937D01*
X141961743Y-138217205D01*
X142150101Y-138295226D01*
X142350060Y-138335000D01*
X142553938Y-138335000D01*
X142753897Y-138295226D01*
X142942255Y-138217205D01*
X143111773Y-138103937D01*
X143255936Y-137959774D01*
X143369204Y-137790256D01*
X143447225Y-137601898D01*
X143486999Y-137401939D01*
X143486999Y-137198061D01*
X143447225Y-136998102D01*
X143369204Y-136809744D01*
X143255936Y-136640226D01*
X143111773Y-136496063D01*
X142942255Y-136382795D01*
X142753897Y-136304774D01*
X142553938Y-136265000D01*
X142350060Y-136265000D01*
X142150101Y-136304774D01*
X141961743Y-136382795D01*
X141792225Y-136496063D01*
X141648062Y-136640226D01*
X141534794Y-136809744D01*
X141456773Y-136998102D01*
X141416999Y-137198061D01*
X138406999Y-137198061D01*
X138367225Y-136998102D01*
X138289204Y-136809744D01*
X138175936Y-136640226D01*
X138031773Y-136496063D01*
X137862255Y-136382795D01*
X137673897Y-136304774D01*
X137473938Y-136265000D01*
X137270060Y-136265000D01*
X137070101Y-136304774D01*
X136881743Y-136382795D01*
X136712225Y-136496063D01*
X136568062Y-136640226D01*
X136454794Y-136809744D01*
X136376773Y-136998102D01*
X136336999Y-137198061D01*
X131426999Y-137198061D01*
X131426999Y-134658061D01*
X136336999Y-134658061D01*
X136336999Y-134861939D01*
X136376773Y-135061898D01*
X136454794Y-135250256D01*
X136568062Y-135419774D01*
X136712225Y-135563937D01*
X136881743Y-135677205D01*
X137070101Y-135755226D01*
X137270060Y-135795000D01*
X137473938Y-135795000D01*
X137673897Y-135755226D01*
X137862255Y-135677205D01*
X138031773Y-135563937D01*
X138175936Y-135419774D01*
X138289204Y-135250256D01*
X138367225Y-135061898D01*
X138406999Y-134861939D01*
X138406999Y-134658061D01*
X141416999Y-134658061D01*
X141416999Y-134861939D01*
X141456773Y-135061898D01*
X141534794Y-135250256D01*
X141648062Y-135419774D01*
X141792225Y-135563937D01*
X141961743Y-135677205D01*
X142150101Y-135755226D01*
X142350060Y-135795000D01*
X142553938Y-135795000D01*
X142753897Y-135755226D01*
X142942255Y-135677205D01*
X143111773Y-135563937D01*
X143255936Y-135419774D01*
X143369204Y-135250256D01*
X143447225Y-135061898D01*
X143486999Y-134861939D01*
X143486999Y-134658061D01*
X143447225Y-134458102D01*
X143369204Y-134269744D01*
X143255936Y-134100226D01*
X143111773Y-133956063D01*
X142942255Y-133842795D01*
X142753897Y-133764774D01*
X142553938Y-133725000D01*
X142350060Y-133725000D01*
X142150101Y-133764774D01*
X141961743Y-133842795D01*
X141792225Y-133956063D01*
X141648062Y-134100226D01*
X141534794Y-134269744D01*
X141456773Y-134458102D01*
X141416999Y-134658061D01*
X138406999Y-134658061D01*
X138367225Y-134458102D01*
X138289204Y-134269744D01*
X138175936Y-134100226D01*
X138031773Y-133956063D01*
X137862255Y-133842795D01*
X137673897Y-133764774D01*
X137473938Y-133725000D01*
X137270060Y-133725000D01*
X137070101Y-133764774D01*
X136881743Y-133842795D01*
X136712225Y-133956063D01*
X136568062Y-134100226D01*
X136454794Y-134269744D01*
X136376773Y-134458102D01*
X136336999Y-134658061D01*
X131426999Y-134658061D01*
X131426999Y-132118061D01*
X136336999Y-132118061D01*
X136336999Y-132321939D01*
X136376773Y-132521898D01*
X136454794Y-132710256D01*
X136568062Y-132879774D01*
X136712225Y-133023937D01*
X136881743Y-133137205D01*
X137070101Y-133215226D01*
X137270060Y-133255000D01*
X137473938Y-133255000D01*
X137673897Y-133215226D01*
X137862255Y-133137205D01*
X138031773Y-133023937D01*
X138175936Y-132879774D01*
X138289204Y-132710256D01*
X138367225Y-132521898D01*
X138406999Y-132321939D01*
X138406999Y-132118061D01*
X141416999Y-132118061D01*
X141416999Y-132321939D01*
X141456773Y-132521898D01*
X141534794Y-132710256D01*
X141648062Y-132879774D01*
X141792225Y-133023937D01*
X141961743Y-133137205D01*
X142150101Y-133215226D01*
X142350060Y-133255000D01*
X142553938Y-133255000D01*
X142753897Y-133215226D01*
X142942255Y-133137205D01*
X143111773Y-133023937D01*
X143255936Y-132879774D01*
X143369204Y-132710256D01*
X143447225Y-132521898D01*
X143486999Y-132321939D01*
X143486999Y-132118061D01*
X143447225Y-131918102D01*
X143369204Y-131729744D01*
X143255936Y-131560226D01*
X143111773Y-131416063D01*
X142942255Y-131302795D01*
X142753897Y-131224774D01*
X142553938Y-131185000D01*
X142350060Y-131185000D01*
X142150101Y-131224774D01*
X141961743Y-131302795D01*
X141792225Y-131416063D01*
X141648062Y-131560226D01*
X141534794Y-131729744D01*
X141456773Y-131918102D01*
X141416999Y-132118061D01*
X138406999Y-132118061D01*
X138367225Y-131918102D01*
X138289204Y-131729744D01*
X138175936Y-131560226D01*
X138031773Y-131416063D01*
X137862255Y-131302795D01*
X137673897Y-131224774D01*
X137473938Y-131185000D01*
X137270060Y-131185000D01*
X137070101Y-131224774D01*
X136881743Y-131302795D01*
X136712225Y-131416063D01*
X136568062Y-131560226D01*
X136454794Y-131729744D01*
X136376773Y-131918102D01*
X136336999Y-132118061D01*
X131426999Y-132118061D01*
X131426999Y-127038061D01*
X136336999Y-127038061D01*
X136336999Y-127241939D01*
X136376773Y-127441898D01*
X136454794Y-127630256D01*
X136568062Y-127799774D01*
X136712225Y-127943937D01*
X136881743Y-128057205D01*
X137070101Y-128135226D01*
X137270060Y-128175000D01*
X137473938Y-128175000D01*
X137673897Y-128135226D01*
X137862255Y-128057205D01*
X138031773Y-127943937D01*
X138175936Y-127799774D01*
X138289204Y-127630256D01*
X138367225Y-127441898D01*
X138406999Y-127241939D01*
X138406999Y-127038061D01*
X141416999Y-127038061D01*
X141416999Y-127241939D01*
X141456773Y-127441898D01*
X141534794Y-127630256D01*
X141648062Y-127799774D01*
X141792225Y-127943937D01*
X141961743Y-128057205D01*
X142150101Y-128135226D01*
X142350060Y-128175000D01*
X142553938Y-128175000D01*
X142753897Y-128135226D01*
X142942255Y-128057205D01*
X143111773Y-127943937D01*
X143255936Y-127799774D01*
X143369204Y-127630256D01*
X143447225Y-127441898D01*
X143486999Y-127241939D01*
X143486999Y-127038061D01*
X143447225Y-126838102D01*
X143369204Y-126649744D01*
X143255936Y-126480226D01*
X143111773Y-126336063D01*
X142942255Y-126222795D01*
X142753897Y-126144774D01*
X142553938Y-126105000D01*
X142350060Y-126105000D01*
X142150101Y-126144774D01*
X141961743Y-126222795D01*
X141792225Y-126336063D01*
X141648062Y-126480226D01*
X141534794Y-126649744D01*
X141456773Y-126838102D01*
X141416999Y-127038061D01*
X138406999Y-127038061D01*
X138367225Y-126838102D01*
X138289204Y-126649744D01*
X138175936Y-126480226D01*
X138031773Y-126336063D01*
X137862255Y-126222795D01*
X137673897Y-126144774D01*
X137473938Y-126105000D01*
X137270060Y-126105000D01*
X137070101Y-126144774D01*
X136881743Y-126222795D01*
X136712225Y-126336063D01*
X136568062Y-126480226D01*
X136454794Y-126649744D01*
X136376773Y-126838102D01*
X136336999Y-127038061D01*
X131426999Y-127038061D01*
X131426999Y-118500000D01*
X138278927Y-118500000D01*
X138291187Y-118624482D01*
X138327497Y-118744180D01*
X138386462Y-118854494D01*
X138465814Y-118951185D01*
X138562505Y-119030537D01*
X138672819Y-119089502D01*
X138792517Y-119125812D01*
X138916999Y-119138072D01*
X139481249Y-119135000D01*
X139639999Y-118976250D01*
X139639999Y-117777000D01*
X139893999Y-117777000D01*
X139893999Y-118976250D01*
X140052749Y-119135000D01*
X140616999Y-119138072D01*
X140741481Y-119125812D01*
X140861179Y-119089502D01*
X140971493Y-119030537D01*
X141068184Y-118951185D01*
X141147536Y-118854494D01*
X141206501Y-118744180D01*
X141230965Y-118663534D01*
X141306730Y-118747588D01*
X141540079Y-118921641D01*
X141802900Y-119046825D01*
X141950109Y-119091476D01*
X142179999Y-118970155D01*
X142179999Y-117777000D01*
X142433999Y-117777000D01*
X142433999Y-118970155D01*
X142663889Y-119091476D01*
X142811098Y-119046825D01*
X143073919Y-118921641D01*
X143307268Y-118747588D01*
X143502177Y-118531355D01*
X143576999Y-118405745D01*
X143651821Y-118531355D01*
X143846730Y-118747588D01*
X144080079Y-118921641D01*
X144342900Y-119046825D01*
X144490109Y-119091476D01*
X144719999Y-118970155D01*
X144719999Y-117777000D01*
X144973999Y-117777000D01*
X144973999Y-118970155D01*
X145203889Y-119091476D01*
X145351098Y-119046825D01*
X145613919Y-118921641D01*
X145847268Y-118747588D01*
X146042177Y-118531355D01*
X146191156Y-118281252D01*
X146288480Y-118006891D01*
X146167813Y-117777000D01*
X144973999Y-117777000D01*
X144719999Y-117777000D01*
X142433999Y-117777000D01*
X142179999Y-117777000D01*
X139893999Y-117777000D01*
X139639999Y-117777000D01*
X138440749Y-117777000D01*
X138281999Y-117935750D01*
X138278927Y-118500000D01*
X131426999Y-118500000D01*
X131426999Y-116800000D01*
X138278927Y-116800000D01*
X138281999Y-117364250D01*
X138440749Y-117523000D01*
X139639999Y-117523000D01*
X139639999Y-115237000D01*
X139893999Y-115237000D01*
X139893999Y-117523000D01*
X142179999Y-117523000D01*
X142179999Y-115237000D01*
X142433999Y-115237000D01*
X142433999Y-117523000D01*
X144719999Y-117523000D01*
X144719999Y-115237000D01*
X144973999Y-115237000D01*
X144973999Y-117523000D01*
X146167813Y-117523000D01*
X146288480Y-117293109D01*
X146191156Y-117018748D01*
X146042177Y-116768645D01*
X145847268Y-116552412D01*
X145616119Y-116380000D01*
X145847268Y-116207588D01*
X146042177Y-115991355D01*
X146191156Y-115741252D01*
X146288480Y-115466891D01*
X146167813Y-115237000D01*
X144973999Y-115237000D01*
X144719999Y-115237000D01*
X142433999Y-115237000D01*
X142179999Y-115237000D01*
X139893999Y-115237000D01*
X139639999Y-115237000D01*
X138446185Y-115237000D01*
X138325518Y-115466891D01*
X138422842Y-115741252D01*
X138571821Y-115991355D01*
X138748625Y-116187502D01*
X138672819Y-116210498D01*
X138562505Y-116269463D01*
X138465814Y-116348815D01*
X138386462Y-116445506D01*
X138327497Y-116555820D01*
X138291187Y-116675518D01*
X138278927Y-116800000D01*
X131426999Y-116800000D01*
X131426999Y-114753109D01*
X138325518Y-114753109D01*
X138446185Y-114983000D01*
X139639999Y-114983000D01*
X139639999Y-113789845D01*
X139893999Y-113789845D01*
X139893999Y-114983000D01*
X142179999Y-114983000D01*
X142179999Y-113789845D01*
X142433999Y-113789845D01*
X142433999Y-114983000D01*
X144719999Y-114983000D01*
X144719999Y-113789845D01*
X144973999Y-113789845D01*
X144973999Y-114983000D01*
X146167813Y-114983000D01*
X146288480Y-114753109D01*
X146191156Y-114478748D01*
X146042177Y-114228645D01*
X145847268Y-114012412D01*
X145613919Y-113838359D01*
X145351098Y-113713175D01*
X145203889Y-113668524D01*
X144973999Y-113789845D01*
X144719999Y-113789845D01*
X144490109Y-113668524D01*
X144342900Y-113713175D01*
X144080079Y-113838359D01*
X143846730Y-114012412D01*
X143651821Y-114228645D01*
X143576999Y-114354255D01*
X143502177Y-114228645D01*
X143307268Y-114012412D01*
X143073919Y-113838359D01*
X142811098Y-113713175D01*
X142663889Y-113668524D01*
X142433999Y-113789845D01*
X142179999Y-113789845D01*
X141950109Y-113668524D01*
X141802900Y-113713175D01*
X141540079Y-113838359D01*
X141306730Y-114012412D01*
X141111821Y-114228645D01*
X141036999Y-114354255D01*
X140962177Y-114228645D01*
X140767268Y-114012412D01*
X140533919Y-113838359D01*
X140271098Y-113713175D01*
X140123889Y-113668524D01*
X139893999Y-113789845D01*
X139639999Y-113789845D01*
X139410109Y-113668524D01*
X139262900Y-113713175D01*
X139000079Y-113838359D01*
X138766730Y-114012412D01*
X138571821Y-114228645D01*
X138422842Y-114478748D01*
X138325518Y-114753109D01*
X131426999Y-114753109D01*
X131426999Y-113310000D01*
X147107000Y-113310000D01*
X147106999Y-154990000D01*
X93426999Y-154990000D01*
X93426999Y-151690000D01*
X93973927Y-151690000D01*
X93973927Y-153390000D01*
X93986187Y-153514482D01*
X94022497Y-153634180D01*
X94081462Y-153744494D01*
X94160814Y-153841185D01*
X94257505Y-153920537D01*
X94367819Y-153979502D01*
X94487517Y-154015812D01*
X94611999Y-154028072D01*
X96311999Y-154028072D01*
X96436481Y-154015812D01*
X96556179Y-153979502D01*
X96666493Y-153920537D01*
X96763184Y-153841185D01*
X96842536Y-153744494D01*
X96901501Y-153634180D01*
X96937811Y-153514482D01*
X96950071Y-153390000D01*
X96950071Y-151690000D01*
X96937811Y-151565518D01*
X96901501Y-151445820D01*
X96842536Y-151335506D01*
X96763184Y-151238815D01*
X96666493Y-151159463D01*
X96556179Y-151100498D01*
X96483619Y-151078487D01*
X96615474Y-150946632D01*
X96713450Y-150800000D01*
X118778927Y-150800000D01*
X118778927Y-152500000D01*
X118791187Y-152624482D01*
X118827497Y-152744180D01*
X118886462Y-152854494D01*
X118965814Y-152951185D01*
X119062505Y-153030537D01*
X119172819Y-153089502D01*
X119292517Y-153125812D01*
X119416999Y-153138072D01*
X121116999Y-153138072D01*
X121241481Y-153125812D01*
X121361179Y-153089502D01*
X121471493Y-153030537D01*
X121568184Y-152951185D01*
X121647536Y-152854494D01*
X121706501Y-152744180D01*
X121728512Y-152671620D01*
X121860367Y-152803475D01*
X122103588Y-152965990D01*
X122373841Y-153077932D01*
X122660739Y-153135000D01*
X122953259Y-153135000D01*
X123240157Y-153077932D01*
X123510410Y-152965990D01*
X123753631Y-152803475D01*
X123960474Y-152596632D01*
X124076999Y-152422240D01*
X124193524Y-152596632D01*
X124400367Y-152803475D01*
X124643588Y-152965990D01*
X124913841Y-153077932D01*
X125200739Y-153135000D01*
X125493259Y-153135000D01*
X125780157Y-153077932D01*
X126050410Y-152965990D01*
X126293631Y-152803475D01*
X126342106Y-152755000D01*
X134486927Y-152755000D01*
X134499187Y-152879482D01*
X134535497Y-152999180D01*
X134594462Y-153109494D01*
X134673814Y-153206185D01*
X134770505Y-153285537D01*
X134880819Y-153344502D01*
X135000517Y-153380812D01*
X135124999Y-153393072D01*
X135689249Y-153390000D01*
X135847999Y-153231250D01*
X135847999Y-152032000D01*
X136101999Y-152032000D01*
X136101999Y-153231250D01*
X136260749Y-153390000D01*
X136824999Y-153393072D01*
X136949481Y-153380812D01*
X137069179Y-153344502D01*
X137179493Y-153285537D01*
X137276184Y-153206185D01*
X137355536Y-153109494D01*
X137414501Y-152999180D01*
X137438965Y-152918534D01*
X137514730Y-153002588D01*
X137748079Y-153176641D01*
X138010900Y-153301825D01*
X138158109Y-153346476D01*
X138387999Y-153225155D01*
X138387999Y-152032000D01*
X138641999Y-152032000D01*
X138641999Y-153225155D01*
X138871889Y-153346476D01*
X139019098Y-153301825D01*
X139281919Y-153176641D01*
X139515268Y-153002588D01*
X139710177Y-152786355D01*
X139859156Y-152536252D01*
X139956480Y-152261891D01*
X139835813Y-152032000D01*
X138641999Y-152032000D01*
X138387999Y-152032000D01*
X136101999Y-152032000D01*
X135847999Y-152032000D01*
X134648749Y-152032000D01*
X134489999Y-152190750D01*
X134486927Y-152755000D01*
X126342106Y-152755000D01*
X126500474Y-152596632D01*
X126662989Y-152353411D01*
X126774931Y-152083158D01*
X126831999Y-151796260D01*
X126831999Y-151503740D01*
X126774931Y-151216842D01*
X126707895Y-151055000D01*
X134486927Y-151055000D01*
X134489999Y-151619250D01*
X134648749Y-151778000D01*
X135847999Y-151778000D01*
X135847999Y-150578750D01*
X136101999Y-150578750D01*
X136101999Y-151778000D01*
X138387999Y-151778000D01*
X138387999Y-150584845D01*
X138641999Y-150584845D01*
X138641999Y-151778000D01*
X139835813Y-151778000D01*
X139956480Y-151548109D01*
X139859156Y-151273748D01*
X139710177Y-151023645D01*
X139515268Y-150807412D01*
X139281919Y-150633359D01*
X139019098Y-150508175D01*
X138871889Y-150463524D01*
X138641999Y-150584845D01*
X138387999Y-150584845D01*
X138158109Y-150463524D01*
X138010900Y-150508175D01*
X137748079Y-150633359D01*
X137514730Y-150807412D01*
X137438965Y-150891466D01*
X137414501Y-150810820D01*
X137355536Y-150700506D01*
X137276184Y-150603815D01*
X137179493Y-150524463D01*
X137069179Y-150465498D01*
X136949481Y-150429188D01*
X136824999Y-150416928D01*
X136260749Y-150420000D01*
X136101999Y-150578750D01*
X135847999Y-150578750D01*
X135689249Y-150420000D01*
X135124999Y-150416928D01*
X135000517Y-150429188D01*
X134880819Y-150465498D01*
X134770505Y-150524463D01*
X134673814Y-150603815D01*
X134594462Y-150700506D01*
X134535497Y-150810820D01*
X134499187Y-150930518D01*
X134486927Y-151055000D01*
X126707895Y-151055000D01*
X126662989Y-150946589D01*
X126500474Y-150703368D01*
X126293631Y-150496525D01*
X126117593Y-150378900D01*
X126347268Y-150207588D01*
X126542177Y-149991355D01*
X126691156Y-149741252D01*
X126788480Y-149466891D01*
X126667813Y-149237000D01*
X125473999Y-149237000D01*
X125473999Y-149257000D01*
X125219999Y-149257000D01*
X125219999Y-149237000D01*
X125199999Y-149237000D01*
X125199999Y-148983000D01*
X125219999Y-148983000D01*
X125219999Y-147789845D01*
X125473999Y-147789845D01*
X125473999Y-148983000D01*
X126667813Y-148983000D01*
X126788480Y-148753109D01*
X126691156Y-148478748D01*
X126542177Y-148228645D01*
X126347268Y-148012412D01*
X126113919Y-147838359D01*
X125851098Y-147713175D01*
X125703889Y-147668524D01*
X125473999Y-147789845D01*
X125219999Y-147789845D01*
X124990109Y-147668524D01*
X124842900Y-147713175D01*
X124580079Y-147838359D01*
X124346730Y-148012412D01*
X124151821Y-148228645D01*
X124082194Y-148345534D01*
X123960474Y-148163368D01*
X123753631Y-147956525D01*
X123510410Y-147794010D01*
X123240157Y-147682068D01*
X122953259Y-147625000D01*
X122660739Y-147625000D01*
X122373841Y-147682068D01*
X122103588Y-147794010D01*
X121860367Y-147956525D01*
X121653524Y-148163368D01*
X121536999Y-148337760D01*
X121420474Y-148163368D01*
X121213631Y-147956525D01*
X120970410Y-147794010D01*
X120700157Y-147682068D01*
X120413259Y-147625000D01*
X120120739Y-147625000D01*
X119833841Y-147682068D01*
X119563588Y-147794010D01*
X119320367Y-147956525D01*
X119113524Y-148163368D01*
X118951009Y-148406589D01*
X118839067Y-148676842D01*
X118781999Y-148963740D01*
X118781999Y-149256260D01*
X118839067Y-149543158D01*
X118951009Y-149813411D01*
X119113524Y-150056632D01*
X119245379Y-150188487D01*
X119172819Y-150210498D01*
X119062505Y-150269463D01*
X118965814Y-150348815D01*
X118886462Y-150445506D01*
X118827497Y-150555820D01*
X118791187Y-150675518D01*
X118778927Y-150800000D01*
X96713450Y-150800000D01*
X96777989Y-150703411D01*
X96889931Y-150433158D01*
X96946999Y-150146260D01*
X96946999Y-149853740D01*
X96889931Y-149566842D01*
X96777989Y-149296589D01*
X96615474Y-149053368D01*
X96408631Y-148846525D01*
X96165410Y-148684010D01*
X95895157Y-148572068D01*
X95608259Y-148515000D01*
X95315739Y-148515000D01*
X95028841Y-148572068D01*
X94758588Y-148684010D01*
X94515367Y-148846525D01*
X94308524Y-149053368D01*
X94146009Y-149296589D01*
X94034067Y-149566842D01*
X93976999Y-149853740D01*
X93976999Y-150146260D01*
X94034067Y-150433158D01*
X94146009Y-150703411D01*
X94308524Y-150946632D01*
X94440379Y-151078487D01*
X94367819Y-151100498D01*
X94257505Y-151159463D01*
X94160814Y-151238815D01*
X94081462Y-151335506D01*
X94022497Y-151445820D01*
X93986187Y-151565518D01*
X93973927Y-151690000D01*
X93426999Y-151690000D01*
X93426999Y-143230000D01*
X100323927Y-143230000D01*
X100336187Y-143354482D01*
X100372497Y-143474180D01*
X100431462Y-143584494D01*
X100510814Y-143681185D01*
X100607505Y-143760537D01*
X100717819Y-143819502D01*
X100790379Y-143841513D01*
X100658524Y-143973368D01*
X100496009Y-144216589D01*
X100384067Y-144486842D01*
X100326999Y-144773740D01*
X100326999Y-145066260D01*
X100384067Y-145353158D01*
X100496009Y-145623411D01*
X100658524Y-145866632D01*
X100865367Y-146073475D01*
X101108588Y-146235990D01*
X101378841Y-146347932D01*
X101665739Y-146405000D01*
X101958259Y-146405000D01*
X102245157Y-146347932D01*
X102515410Y-146235990D01*
X102758631Y-146073475D01*
X102965474Y-145866632D01*
X103127989Y-145623411D01*
X103239931Y-145353158D01*
X103296999Y-145066260D01*
X103296999Y-144773740D01*
X103239931Y-144486842D01*
X103127989Y-144216589D01*
X102965474Y-143973368D01*
X102833619Y-143841513D01*
X102906179Y-143819502D01*
X103016493Y-143760537D01*
X103113184Y-143681185D01*
X103192536Y-143584494D01*
X103251501Y-143474180D01*
X103287811Y-143354482D01*
X103300071Y-143230000D01*
X109213927Y-143230000D01*
X109226187Y-143354482D01*
X109262497Y-143474180D01*
X109321462Y-143584494D01*
X109400814Y-143681185D01*
X109497505Y-143760537D01*
X109607819Y-143819502D01*
X109680379Y-143841513D01*
X109548524Y-143973368D01*
X109386009Y-144216589D01*
X109274067Y-144486842D01*
X109216999Y-144773740D01*
X109216999Y-145066260D01*
X109274067Y-145353158D01*
X109386009Y-145623411D01*
X109548524Y-145866632D01*
X109755367Y-146073475D01*
X109998588Y-146235990D01*
X110268841Y-146347932D01*
X110555739Y-146405000D01*
X110848259Y-146405000D01*
X111135157Y-146347932D01*
X111405410Y-146235990D01*
X111648631Y-146073475D01*
X111855474Y-145866632D01*
X112017989Y-145623411D01*
X112129931Y-145353158D01*
X112186999Y-145066260D01*
X112186999Y-144773740D01*
X112129931Y-144486842D01*
X112017989Y-144216589D01*
X111855474Y-143973368D01*
X111723619Y-143841513D01*
X111796179Y-143819502D01*
X111906493Y-143760537D01*
X112003184Y-143681185D01*
X112082536Y-143584494D01*
X112141501Y-143474180D01*
X112177811Y-143354482D01*
X112190071Y-143230000D01*
X112186999Y-142665750D01*
X112028249Y-142507000D01*
X110828999Y-142507000D01*
X110828999Y-142527000D01*
X110574999Y-142527000D01*
X110574999Y-142507000D01*
X109375749Y-142507000D01*
X109216999Y-142665750D01*
X109213927Y-143230000D01*
X103300071Y-143230000D01*
X103296999Y-142665750D01*
X103138249Y-142507000D01*
X101938999Y-142507000D01*
X101938999Y-142527000D01*
X101684999Y-142527000D01*
X101684999Y-142507000D01*
X100485749Y-142507000D01*
X100326999Y-142665750D01*
X100323927Y-143230000D01*
X93426999Y-143230000D01*
X93426999Y-141530000D01*
X100323927Y-141530000D01*
X100326999Y-142094250D01*
X100485749Y-142253000D01*
X101684999Y-142253000D01*
X101684999Y-141053750D01*
X101938999Y-141053750D01*
X101938999Y-142253000D01*
X103138249Y-142253000D01*
X103296999Y-142094250D01*
X103300071Y-141530000D01*
X109213927Y-141530000D01*
X109216999Y-142094250D01*
X109375749Y-142253000D01*
X110574999Y-142253000D01*
X110574999Y-141053750D01*
X110828999Y-141053750D01*
X110828999Y-142253000D01*
X112028249Y-142253000D01*
X112186999Y-142094250D01*
X112190071Y-141530000D01*
X112177811Y-141405518D01*
X112141501Y-141285820D01*
X112082536Y-141175506D01*
X112003184Y-141078815D01*
X111906493Y-140999463D01*
X111796179Y-140940498D01*
X111676481Y-140904188D01*
X111551999Y-140891928D01*
X110987749Y-140895000D01*
X110828999Y-141053750D01*
X110574999Y-141053750D01*
X110416249Y-140895000D01*
X109851999Y-140891928D01*
X109727517Y-140904188D01*
X109607819Y-140940498D01*
X109497505Y-140999463D01*
X109400814Y-141078815D01*
X109321462Y-141175506D01*
X109262497Y-141285820D01*
X109226187Y-141405518D01*
X109213927Y-141530000D01*
X103300071Y-141530000D01*
X103287811Y-141405518D01*
X103251501Y-141285820D01*
X103192536Y-141175506D01*
X103113184Y-141078815D01*
X103016493Y-140999463D01*
X102906179Y-140940498D01*
X102786481Y-140904188D01*
X102661999Y-140891928D01*
X102097749Y-140895000D01*
X101938999Y-141053750D01*
X101684999Y-141053750D01*
X101526249Y-140895000D01*
X100961999Y-140891928D01*
X100837517Y-140904188D01*
X100717819Y-140940498D01*
X100607505Y-140999463D01*
X100510814Y-141078815D01*
X100431462Y-141175506D01*
X100372497Y-141285820D01*
X100336187Y-141405518D01*
X100323927Y-141530000D01*
X93426999Y-141530000D01*
X93426999Y-137198061D01*
X102046999Y-137198061D01*
X102046999Y-137401939D01*
X102086773Y-137601898D01*
X102164794Y-137790256D01*
X102278062Y-137959774D01*
X102422225Y-138103937D01*
X102591743Y-138217205D01*
X102780101Y-138295226D01*
X102980060Y-138335000D01*
X103183938Y-138335000D01*
X103383897Y-138295226D01*
X103572255Y-138217205D01*
X103741773Y-138103937D01*
X103885936Y-137959774D01*
X103999204Y-137790256D01*
X104077225Y-137601898D01*
X104116999Y-137401939D01*
X104116999Y-137198061D01*
X107126999Y-137198061D01*
X107126999Y-137401939D01*
X107166773Y-137601898D01*
X107244794Y-137790256D01*
X107358062Y-137959774D01*
X107502225Y-138103937D01*
X107671743Y-138217205D01*
X107860101Y-138295226D01*
X108060060Y-138335000D01*
X108263938Y-138335000D01*
X108463897Y-138295226D01*
X108652255Y-138217205D01*
X108821773Y-138103937D01*
X108965936Y-137959774D01*
X109079204Y-137790256D01*
X109157225Y-137601898D01*
X109196999Y-137401939D01*
X109196999Y-137198061D01*
X109157225Y-136998102D01*
X109079204Y-136809744D01*
X108965936Y-136640226D01*
X108821773Y-136496063D01*
X108652255Y-136382795D01*
X108463897Y-136304774D01*
X108263938Y-136265000D01*
X108060060Y-136265000D01*
X107860101Y-136304774D01*
X107671743Y-136382795D01*
X107502225Y-136496063D01*
X107358062Y-136640226D01*
X107244794Y-136809744D01*
X107166773Y-136998102D01*
X107126999Y-137198061D01*
X104116999Y-137198061D01*
X104077225Y-136998102D01*
X103999204Y-136809744D01*
X103885936Y-136640226D01*
X103741773Y-136496063D01*
X103572255Y-136382795D01*
X103383897Y-136304774D01*
X103183938Y-136265000D01*
X102980060Y-136265000D01*
X102780101Y-136304774D01*
X102591743Y-136382795D01*
X102422225Y-136496063D01*
X102278062Y-136640226D01*
X102164794Y-136809744D01*
X102086773Y-136998102D01*
X102046999Y-137198061D01*
X93426999Y-137198061D01*
X93426999Y-134658061D01*
X102046999Y-134658061D01*
X102046999Y-134861939D01*
X102086773Y-135061898D01*
X102164794Y-135250256D01*
X102278062Y-135419774D01*
X102422225Y-135563937D01*
X102591743Y-135677205D01*
X102780101Y-135755226D01*
X102980060Y-135795000D01*
X103183938Y-135795000D01*
X103383897Y-135755226D01*
X103572255Y-135677205D01*
X103741773Y-135563937D01*
X103885936Y-135419774D01*
X103999204Y-135250256D01*
X104077225Y-135061898D01*
X104116999Y-134861939D01*
X104116999Y-134658061D01*
X107126999Y-134658061D01*
X107126999Y-134861939D01*
X107166773Y-135061898D01*
X107244794Y-135250256D01*
X107358062Y-135419774D01*
X107502225Y-135563937D01*
X107671743Y-135677205D01*
X107860101Y-135755226D01*
X108060060Y-135795000D01*
X108263938Y-135795000D01*
X108463897Y-135755226D01*
X108652255Y-135677205D01*
X108821773Y-135563937D01*
X108965936Y-135419774D01*
X109079204Y-135250256D01*
X109157225Y-135061898D01*
X109196999Y-134861939D01*
X109196999Y-134658061D01*
X109157225Y-134458102D01*
X109079204Y-134269744D01*
X108965936Y-134100226D01*
X108821773Y-133956063D01*
X108652255Y-133842795D01*
X108463897Y-133764774D01*
X108263938Y-133725000D01*
X108060060Y-133725000D01*
X107860101Y-133764774D01*
X107671743Y-133842795D01*
X107502225Y-133956063D01*
X107358062Y-134100226D01*
X107244794Y-134269744D01*
X107166773Y-134458102D01*
X107126999Y-134658061D01*
X104116999Y-134658061D01*
X104077225Y-134458102D01*
X103999204Y-134269744D01*
X103885936Y-134100226D01*
X103741773Y-133956063D01*
X103572255Y-133842795D01*
X103383897Y-133764774D01*
X103183938Y-133725000D01*
X102980060Y-133725000D01*
X102780101Y-133764774D01*
X102591743Y-133842795D01*
X102422225Y-133956063D01*
X102278062Y-134100226D01*
X102164794Y-134269744D01*
X102086773Y-134458102D01*
X102046999Y-134658061D01*
X93426999Y-134658061D01*
X93426999Y-132118061D01*
X102046999Y-132118061D01*
X102046999Y-132321939D01*
X102086773Y-132521898D01*
X102164794Y-132710256D01*
X102278062Y-132879774D01*
X102422225Y-133023937D01*
X102591743Y-133137205D01*
X102780101Y-133215226D01*
X102980060Y-133255000D01*
X103183938Y-133255000D01*
X103383897Y-133215226D01*
X103572255Y-133137205D01*
X103741773Y-133023937D01*
X103885936Y-132879774D01*
X103999204Y-132710256D01*
X104077225Y-132521898D01*
X104116999Y-132321939D01*
X104116999Y-132118061D01*
X107126999Y-132118061D01*
X107126999Y-132321939D01*
X107166773Y-132521898D01*
X107244794Y-132710256D01*
X107358062Y-132879774D01*
X107502225Y-133023937D01*
X107671743Y-133137205D01*
X107860101Y-133215226D01*
X108060060Y-133255000D01*
X108263938Y-133255000D01*
X108463897Y-133215226D01*
X108652255Y-133137205D01*
X108821773Y-133023937D01*
X108965936Y-132879774D01*
X109079204Y-132710256D01*
X109157225Y-132521898D01*
X109196999Y-132321939D01*
X109196999Y-132118061D01*
X109157225Y-131918102D01*
X109079204Y-131729744D01*
X108965936Y-131560226D01*
X108821773Y-131416063D01*
X108652255Y-131302795D01*
X108463897Y-131224774D01*
X108263938Y-131185000D01*
X108060060Y-131185000D01*
X107860101Y-131224774D01*
X107671743Y-131302795D01*
X107502225Y-131416063D01*
X107358062Y-131560226D01*
X107244794Y-131729744D01*
X107166773Y-131918102D01*
X107126999Y-132118061D01*
X104116999Y-132118061D01*
X104077225Y-131918102D01*
X103999204Y-131729744D01*
X103885936Y-131560226D01*
X103741773Y-131416063D01*
X103572255Y-131302795D01*
X103383897Y-131224774D01*
X103183938Y-131185000D01*
X102980060Y-131185000D01*
X102780101Y-131224774D01*
X102591743Y-131302795D01*
X102422225Y-131416063D01*
X102278062Y-131560226D01*
X102164794Y-131729744D01*
X102086773Y-131918102D01*
X102046999Y-132118061D01*
X93426999Y-132118061D01*
X93426999Y-129578061D01*
X102046999Y-129578061D01*
X102046999Y-129781939D01*
X102086773Y-129981898D01*
X102164794Y-130170256D01*
X102278062Y-130339774D01*
X102422225Y-130483937D01*
X102591743Y-130597205D01*
X102780101Y-130675226D01*
X102980060Y-130715000D01*
X103183938Y-130715000D01*
X103383897Y-130675226D01*
X103572255Y-130597205D01*
X103741773Y-130483937D01*
X103885936Y-130339774D01*
X103999204Y-130170256D01*
X104077225Y-129981898D01*
X104116999Y-129781939D01*
X104116999Y-129578061D01*
X107126999Y-129578061D01*
X107126999Y-129781939D01*
X107166773Y-129981898D01*
X107244794Y-130170256D01*
X107358062Y-130339774D01*
X107502225Y-130483937D01*
X107671743Y-130597205D01*
X107860101Y-130675226D01*
X108060060Y-130715000D01*
X108263938Y-130715000D01*
X108463897Y-130675226D01*
X108652255Y-130597205D01*
X108821773Y-130483937D01*
X108965936Y-130339774D01*
X109079204Y-130170256D01*
X109157225Y-129981898D01*
X109196999Y-129781939D01*
X109196999Y-129578061D01*
X109157225Y-129378102D01*
X109079204Y-129189744D01*
X108965936Y-129020226D01*
X108821773Y-128876063D01*
X108652255Y-128762795D01*
X108463897Y-128684774D01*
X108263938Y-128645000D01*
X108060060Y-128645000D01*
X107860101Y-128684774D01*
X107671743Y-128762795D01*
X107502225Y-128876063D01*
X107358062Y-129020226D01*
X107244794Y-129189744D01*
X107166773Y-129378102D01*
X107126999Y-129578061D01*
X104116999Y-129578061D01*
X104077225Y-129378102D01*
X103999204Y-129189744D01*
X103885936Y-129020226D01*
X103741773Y-128876063D01*
X103572255Y-128762795D01*
X103383897Y-128684774D01*
X103183938Y-128645000D01*
X102980060Y-128645000D01*
X102780101Y-128684774D01*
X102591743Y-128762795D01*
X102422225Y-128876063D01*
X102278062Y-129020226D01*
X102164794Y-129189744D01*
X102086773Y-129378102D01*
X102046999Y-129578061D01*
X93426999Y-129578061D01*
X93426999Y-127038061D01*
X102046999Y-127038061D01*
X102046999Y-127241939D01*
X102086773Y-127441898D01*
X102164794Y-127630256D01*
X102278062Y-127799774D01*
X102422225Y-127943937D01*
X102591743Y-128057205D01*
X102780101Y-128135226D01*
X102980060Y-128175000D01*
X103183938Y-128175000D01*
X103383897Y-128135226D01*
X103572255Y-128057205D01*
X103741773Y-127943937D01*
X103885936Y-127799774D01*
X103999204Y-127630256D01*
X104077225Y-127441898D01*
X104116999Y-127241939D01*
X104116999Y-127038061D01*
X107126999Y-127038061D01*
X107126999Y-127241939D01*
X107166773Y-127441898D01*
X107244794Y-127630256D01*
X107358062Y-127799774D01*
X107502225Y-127943937D01*
X107671743Y-128057205D01*
X107860101Y-128135226D01*
X108060060Y-128175000D01*
X108263938Y-128175000D01*
X108463897Y-128135226D01*
X108652255Y-128057205D01*
X108821773Y-127943937D01*
X108965936Y-127799774D01*
X109079204Y-127630256D01*
X109157225Y-127441898D01*
X109196999Y-127241939D01*
X109196999Y-127038061D01*
X109157225Y-126838102D01*
X109079204Y-126649744D01*
X108965936Y-126480226D01*
X108821773Y-126336063D01*
X108652255Y-126222795D01*
X108463897Y-126144774D01*
X108263938Y-126105000D01*
X108060060Y-126105000D01*
X107860101Y-126144774D01*
X107671743Y-126222795D01*
X107502225Y-126336063D01*
X107358062Y-126480226D01*
X107244794Y-126649744D01*
X107166773Y-126838102D01*
X107126999Y-127038061D01*
X104116999Y-127038061D01*
X104077225Y-126838102D01*
X103999204Y-126649744D01*
X103885936Y-126480226D01*
X103741773Y-126336063D01*
X103572255Y-126222795D01*
X103383897Y-126144774D01*
X103183938Y-126105000D01*
X102980060Y-126105000D01*
X102780101Y-126144774D01*
X102591743Y-126222795D01*
X102422225Y-126336063D01*
X102278062Y-126480226D01*
X102164794Y-126649744D01*
X102086773Y-126838102D01*
X102046999Y-127038061D01*
X93426999Y-127038061D01*
X93426999Y-124498061D01*
X102046999Y-124498061D01*
X102046999Y-124701939D01*
X102086773Y-124901898D01*
X102164794Y-125090256D01*
X102278062Y-125259774D01*
X102422225Y-125403937D01*
X102591743Y-125517205D01*
X102780101Y-125595226D01*
X102980060Y-125635000D01*
X103183938Y-125635000D01*
X103383897Y-125595226D01*
X103572255Y-125517205D01*
X103741773Y-125403937D01*
X103885936Y-125259774D01*
X103999204Y-125090256D01*
X104077225Y-124901898D01*
X104116999Y-124701939D01*
X104116999Y-124498061D01*
X107126999Y-124498061D01*
X107126999Y-124701939D01*
X107166773Y-124901898D01*
X107244794Y-125090256D01*
X107358062Y-125259774D01*
X107502225Y-125403937D01*
X107671743Y-125517205D01*
X107860101Y-125595226D01*
X108060060Y-125635000D01*
X108263938Y-125635000D01*
X108463897Y-125595226D01*
X108652255Y-125517205D01*
X108821773Y-125403937D01*
X108965936Y-125259774D01*
X109079204Y-125090256D01*
X109157225Y-124901898D01*
X109196999Y-124701939D01*
X109196999Y-124498061D01*
X109157225Y-124298102D01*
X109079204Y-124109744D01*
X108965936Y-123940226D01*
X108821773Y-123796063D01*
X108652255Y-123682795D01*
X108463897Y-123604774D01*
X108263938Y-123565000D01*
X108060060Y-123565000D01*
X107860101Y-123604774D01*
X107671743Y-123682795D01*
X107502225Y-123796063D01*
X107358062Y-123940226D01*
X107244794Y-124109744D01*
X107166773Y-124298102D01*
X107126999Y-124498061D01*
X104116999Y-124498061D01*
X104077225Y-124298102D01*
X103999204Y-124109744D01*
X103885936Y-123940226D01*
X103741773Y-123796063D01*
X103572255Y-123682795D01*
X103383897Y-123604774D01*
X103183938Y-123565000D01*
X102980060Y-123565000D01*
X102780101Y-123604774D01*
X102591743Y-123682795D01*
X102422225Y-123796063D01*
X102278062Y-123940226D01*
X102164794Y-124109744D01*
X102086773Y-124298102D01*
X102046999Y-124498061D01*
X93426999Y-124498061D01*
X93426999Y-121958061D01*
X102046999Y-121958061D01*
X102046999Y-122161939D01*
X102086773Y-122361898D01*
X102164794Y-122550256D01*
X102278062Y-122719774D01*
X102422225Y-122863937D01*
X102591743Y-122977205D01*
X102780101Y-123055226D01*
X102980060Y-123095000D01*
X103183938Y-123095000D01*
X103383897Y-123055226D01*
X103572255Y-122977205D01*
X103741773Y-122863937D01*
X103885936Y-122719774D01*
X103999204Y-122550256D01*
X104077225Y-122361898D01*
X104116999Y-122161939D01*
X104116999Y-121958061D01*
X107126999Y-121958061D01*
X107126999Y-122161939D01*
X107166773Y-122361898D01*
X107244794Y-122550256D01*
X107358062Y-122719774D01*
X107502225Y-122863937D01*
X107671743Y-122977205D01*
X107860101Y-123055226D01*
X108060060Y-123095000D01*
X108263938Y-123095000D01*
X108463897Y-123055226D01*
X108652255Y-122977205D01*
X108821773Y-122863937D01*
X108965936Y-122719774D01*
X109079204Y-122550256D01*
X109157225Y-122361898D01*
X109196999Y-122161939D01*
X109196999Y-121958061D01*
X109157225Y-121758102D01*
X109079204Y-121569744D01*
X108965936Y-121400226D01*
X108821773Y-121256063D01*
X108652255Y-121142795D01*
X108463897Y-121064774D01*
X108263938Y-121025000D01*
X108060060Y-121025000D01*
X107860101Y-121064774D01*
X107671743Y-121142795D01*
X107502225Y-121256063D01*
X107358062Y-121400226D01*
X107244794Y-121569744D01*
X107166773Y-121758102D01*
X107126999Y-121958061D01*
X104116999Y-121958061D01*
X104077225Y-121758102D01*
X103999204Y-121569744D01*
X103885936Y-121400226D01*
X103741773Y-121256063D01*
X103572255Y-121142795D01*
X103383897Y-121064774D01*
X103183938Y-121025000D01*
X102980060Y-121025000D01*
X102780101Y-121064774D01*
X102591743Y-121142795D01*
X102422225Y-121256063D01*
X102278062Y-121400226D01*
X102164794Y-121569744D01*
X102086773Y-121758102D01*
X102046999Y-121958061D01*
X93426999Y-121958061D01*
X93426999Y-118500000D01*
X94278927Y-118500000D01*
X94291187Y-118624482D01*
X94327497Y-118744180D01*
X94386462Y-118854494D01*
X94465814Y-118951185D01*
X94562505Y-119030537D01*
X94672819Y-119089502D01*
X94792517Y-119125812D01*
X94916999Y-119138072D01*
X95481249Y-119135000D01*
X95639999Y-118976250D01*
X95639999Y-117777000D01*
X95893999Y-117777000D01*
X95893999Y-118976250D01*
X96052749Y-119135000D01*
X96616999Y-119138072D01*
X96741481Y-119125812D01*
X96861179Y-119089502D01*
X96971493Y-119030537D01*
X97068184Y-118951185D01*
X97147536Y-118854494D01*
X97206501Y-118744180D01*
X97230965Y-118663534D01*
X97306730Y-118747588D01*
X97540079Y-118921641D01*
X97802900Y-119046825D01*
X97950109Y-119091476D01*
X98179999Y-118970155D01*
X98179999Y-117777000D01*
X98433999Y-117777000D01*
X98433999Y-118970155D01*
X98663889Y-119091476D01*
X98811098Y-119046825D01*
X99073919Y-118921641D01*
X99307268Y-118747588D01*
X99502177Y-118531355D01*
X99576999Y-118405745D01*
X99651821Y-118531355D01*
X99846730Y-118747588D01*
X100080079Y-118921641D01*
X100342900Y-119046825D01*
X100490109Y-119091476D01*
X100719999Y-118970155D01*
X100719999Y-117777000D01*
X100973999Y-117777000D01*
X100973999Y-118970155D01*
X101203889Y-119091476D01*
X101351098Y-119046825D01*
X101613919Y-118921641D01*
X101847268Y-118747588D01*
X102042177Y-118531355D01*
X102191156Y-118281252D01*
X102288480Y-118006891D01*
X102167813Y-117777000D01*
X100973999Y-117777000D01*
X100719999Y-117777000D01*
X98433999Y-117777000D01*
X98179999Y-117777000D01*
X95893999Y-117777000D01*
X95639999Y-117777000D01*
X94440749Y-117777000D01*
X94281999Y-117935750D01*
X94278927Y-118500000D01*
X93426999Y-118500000D01*
X93426999Y-116800000D01*
X94278927Y-116800000D01*
X94281999Y-117364250D01*
X94440749Y-117523000D01*
X95639999Y-117523000D01*
X95639999Y-115237000D01*
X95893999Y-115237000D01*
X95893999Y-117523000D01*
X98179999Y-117523000D01*
X98179999Y-115237000D01*
X98433999Y-115237000D01*
X98433999Y-117523000D01*
X100719999Y-117523000D01*
X100719999Y-115237000D01*
X100973999Y-115237000D01*
X100973999Y-117523000D01*
X102167813Y-117523000D01*
X102288480Y-117293109D01*
X102191156Y-117018748D01*
X102042177Y-116768645D01*
X101854108Y-116560000D01*
X104133927Y-116560000D01*
X104146187Y-116684482D01*
X104182497Y-116804180D01*
X104241462Y-116914494D01*
X104320814Y-117011185D01*
X104417505Y-117090537D01*
X104527819Y-117149502D01*
X104647517Y-117185812D01*
X104771999Y-117198072D01*
X105336249Y-117195000D01*
X105494999Y-117036250D01*
X105494999Y-115837000D01*
X105748999Y-115837000D01*
X105748999Y-117036250D01*
X105907749Y-117195000D01*
X106471999Y-117198072D01*
X106596481Y-117185812D01*
X106716179Y-117149502D01*
X106826493Y-117090537D01*
X106923184Y-117011185D01*
X107002536Y-116914494D01*
X107061501Y-116804180D01*
X107085965Y-116723534D01*
X107161730Y-116807588D01*
X107395079Y-116981641D01*
X107657900Y-117106825D01*
X107805109Y-117151476D01*
X108034999Y-117030155D01*
X108034999Y-115837000D01*
X108288999Y-115837000D01*
X108288999Y-117030155D01*
X108518889Y-117151476D01*
X108666098Y-117106825D01*
X108928919Y-116981641D01*
X109162268Y-116807588D01*
X109357177Y-116591355D01*
X109506156Y-116341252D01*
X109603480Y-116066891D01*
X109482813Y-115837000D01*
X108288999Y-115837000D01*
X108034999Y-115837000D01*
X105748999Y-115837000D01*
X105494999Y-115837000D01*
X104295749Y-115837000D01*
X104136999Y-115995750D01*
X104133927Y-116560000D01*
X101854108Y-116560000D01*
X101847268Y-116552412D01*
X101616119Y-116380000D01*
X101847268Y-116207588D01*
X102042177Y-115991355D01*
X102191156Y-115741252D01*
X102288480Y-115466891D01*
X102167813Y-115237000D01*
X100973999Y-115237000D01*
X100719999Y-115237000D01*
X98433999Y-115237000D01*
X98179999Y-115237000D01*
X95893999Y-115237000D01*
X95639999Y-115237000D01*
X94446185Y-115237000D01*
X94325518Y-115466891D01*
X94422842Y-115741252D01*
X94571821Y-115991355D01*
X94748625Y-116187502D01*
X94672819Y-116210498D01*
X94562505Y-116269463D01*
X94465814Y-116348815D01*
X94386462Y-116445506D01*
X94327497Y-116555820D01*
X94291187Y-116675518D01*
X94278927Y-116800000D01*
X93426999Y-116800000D01*
X93426999Y-114753109D01*
X94325518Y-114753109D01*
X94446185Y-114983000D01*
X95639999Y-114983000D01*
X95639999Y-113789845D01*
X95893999Y-113789845D01*
X95893999Y-114983000D01*
X98179999Y-114983000D01*
X98179999Y-113789845D01*
X98433999Y-113789845D01*
X98433999Y-114983000D01*
X100719999Y-114983000D01*
X100719999Y-113789845D01*
X100973999Y-113789845D01*
X100973999Y-114983000D01*
X102167813Y-114983000D01*
X102232374Y-114860000D01*
X104133927Y-114860000D01*
X104136999Y-115424250D01*
X104295749Y-115583000D01*
X105494999Y-115583000D01*
X105494999Y-114383750D01*
X105748999Y-114383750D01*
X105748999Y-115583000D01*
X108034999Y-115583000D01*
X108034999Y-114389845D01*
X108288999Y-114389845D01*
X108288999Y-115583000D01*
X109482813Y-115583000D01*
X109603480Y-115353109D01*
X109506156Y-115078748D01*
X109357177Y-114828645D01*
X109162268Y-114612412D01*
X108928919Y-114438359D01*
X108666098Y-114313175D01*
X108518889Y-114268524D01*
X108288999Y-114389845D01*
X108034999Y-114389845D01*
X107805109Y-114268524D01*
X107657900Y-114313175D01*
X107395079Y-114438359D01*
X107161730Y-114612412D01*
X107085965Y-114696466D01*
X107061501Y-114615820D01*
X107002536Y-114505506D01*
X106923184Y-114408815D01*
X106826493Y-114329463D01*
X106716179Y-114270498D01*
X106596481Y-114234188D01*
X106471999Y-114221928D01*
X105907749Y-114225000D01*
X105748999Y-114383750D01*
X105494999Y-114383750D01*
X105336249Y-114225000D01*
X104771999Y-114221928D01*
X104647517Y-114234188D01*
X104527819Y-114270498D01*
X104417505Y-114329463D01*
X104320814Y-114408815D01*
X104241462Y-114505506D01*
X104182497Y-114615820D01*
X104146187Y-114735518D01*
X104133927Y-114860000D01*
X102232374Y-114860000D01*
X102288480Y-114753109D01*
X102191156Y-114478748D01*
X102042177Y-114228645D01*
X101847268Y-114012412D01*
X101613919Y-113838359D01*
X101351098Y-113713175D01*
X101203889Y-113668524D01*
X100973999Y-113789845D01*
X100719999Y-113789845D01*
X100490109Y-113668524D01*
X100342900Y-113713175D01*
X100080079Y-113838359D01*
X99846730Y-114012412D01*
X99651821Y-114228645D01*
X99576999Y-114354255D01*
X99502177Y-114228645D01*
X99307268Y-114012412D01*
X99073919Y-113838359D01*
X98811098Y-113713175D01*
X98663889Y-113668524D01*
X98433999Y-113789845D01*
X98179999Y-113789845D01*
X97950109Y-113668524D01*
X97802900Y-113713175D01*
X97540079Y-113838359D01*
X97306730Y-114012412D01*
X97111821Y-114228645D01*
X97036999Y-114354255D01*
X96962177Y-114228645D01*
X96767268Y-114012412D01*
X96533919Y-113838359D01*
X96271098Y-113713175D01*
X96123889Y-113668524D01*
X95893999Y-113789845D01*
X95639999Y-113789845D01*
X95410109Y-113668524D01*
X95262900Y-113713175D01*
X95000079Y-113838359D01*
X94766730Y-114012412D01*
X94571821Y-114228645D01*
X94422842Y-114478748D01*
X94325518Y-114753109D01*
X93426999Y-114753109D01*
X93426999Y-113310000D01*
X114107000Y-113310000D01*
X114106999Y-145617581D01*
G37*
X114106999Y-145617581D02*
X114103806Y-145650000D01*
X114116549Y-145779383D01*
X114154289Y-145903793D01*
X114215574Y-146018450D01*
X114260732Y-146073475D01*
X114298051Y-146118948D01*
X114398549Y-146201425D01*
X114513206Y-146262710D01*
X114637616Y-146300450D01*
X114766999Y-146313193D01*
X114799418Y-146310000D01*
X130734580Y-146310000D01*
X130766999Y-146313193D01*
X130799418Y-146310000D01*
X130896382Y-146300450D01*
X131020792Y-146262710D01*
X131135449Y-146201425D01*
X131235947Y-146118948D01*
X131318424Y-146018450D01*
X131379709Y-145903793D01*
X131417449Y-145779383D01*
X131430192Y-145650000D01*
X131426999Y-145617581D01*
X131426999Y-141530000D01*
X143503927Y-141530000D01*
X143503927Y-143230000D01*
X143516187Y-143354482D01*
X143552497Y-143474180D01*
X143611462Y-143584494D01*
X143690814Y-143681185D01*
X143787505Y-143760537D01*
X143897819Y-143819502D01*
X143970379Y-143841513D01*
X143838524Y-143973368D01*
X143676009Y-144216589D01*
X143564067Y-144486842D01*
X143506999Y-144773740D01*
X143506999Y-145066260D01*
X143564067Y-145353158D01*
X143676009Y-145623411D01*
X143838524Y-145866632D01*
X144045367Y-146073475D01*
X144288588Y-146235990D01*
X144558841Y-146347932D01*
X144845739Y-146405000D01*
X145138259Y-146405000D01*
X145425157Y-146347932D01*
X145695410Y-146235990D01*
X145938631Y-146073475D01*
X146145474Y-145866632D01*
X146307989Y-145623411D01*
X146419931Y-145353158D01*
X146476999Y-145066260D01*
X146476999Y-144773740D01*
X146419931Y-144486842D01*
X146307989Y-144216589D01*
X146145474Y-143973368D01*
X146013619Y-143841513D01*
X146086179Y-143819502D01*
X146196493Y-143760537D01*
X146293184Y-143681185D01*
X146372536Y-143584494D01*
X146431501Y-143474180D01*
X146467811Y-143354482D01*
X146480071Y-143230000D01*
X146480071Y-141530000D01*
X146467811Y-141405518D01*
X146431501Y-141285820D01*
X146372536Y-141175506D01*
X146293184Y-141078815D01*
X146196493Y-140999463D01*
X146086179Y-140940498D01*
X145966481Y-140904188D01*
X145841999Y-140891928D01*
X144141999Y-140891928D01*
X144017517Y-140904188D01*
X143897819Y-140940498D01*
X143787505Y-140999463D01*
X143690814Y-141078815D01*
X143611462Y-141175506D01*
X143552497Y-141285820D01*
X143516187Y-141405518D01*
X143503927Y-141530000D01*
X131426999Y-141530000D01*
X131426999Y-137198061D01*
X136336999Y-137198061D01*
X136336999Y-137401939D01*
X136376773Y-137601898D01*
X136454794Y-137790256D01*
X136568062Y-137959774D01*
X136712225Y-138103937D01*
X136881743Y-138217205D01*
X137070101Y-138295226D01*
X137270060Y-138335000D01*
X137473938Y-138335000D01*
X137673897Y-138295226D01*
X137862255Y-138217205D01*
X138031773Y-138103937D01*
X138175936Y-137959774D01*
X138289204Y-137790256D01*
X138367225Y-137601898D01*
X138406999Y-137401939D01*
X138406999Y-137198061D01*
X141416999Y-137198061D01*
X141416999Y-137401939D01*
X141456773Y-137601898D01*
X141534794Y-137790256D01*
X141648062Y-137959774D01*
X141792225Y-138103937D01*
X141961743Y-138217205D01*
X142150101Y-138295226D01*
X142350060Y-138335000D01*
X142553938Y-138335000D01*
X142753897Y-138295226D01*
X142942255Y-138217205D01*
X143111773Y-138103937D01*
X143255936Y-137959774D01*
X143369204Y-137790256D01*
X143447225Y-137601898D01*
X143486999Y-137401939D01*
X143486999Y-137198061D01*
X143447225Y-136998102D01*
X143369204Y-136809744D01*
X143255936Y-136640226D01*
X143111773Y-136496063D01*
X142942255Y-136382795D01*
X142753897Y-136304774D01*
X142553938Y-136265000D01*
X142350060Y-136265000D01*
X142150101Y-136304774D01*
X141961743Y-136382795D01*
X141792225Y-136496063D01*
X141648062Y-136640226D01*
X141534794Y-136809744D01*
X141456773Y-136998102D01*
X141416999Y-137198061D01*
X138406999Y-137198061D01*
X138367225Y-136998102D01*
X138289204Y-136809744D01*
X138175936Y-136640226D01*
X138031773Y-136496063D01*
X137862255Y-136382795D01*
X137673897Y-136304774D01*
X137473938Y-136265000D01*
X137270060Y-136265000D01*
X137070101Y-136304774D01*
X136881743Y-136382795D01*
X136712225Y-136496063D01*
X136568062Y-136640226D01*
X136454794Y-136809744D01*
X136376773Y-136998102D01*
X136336999Y-137198061D01*
X131426999Y-137198061D01*
X131426999Y-134658061D01*
X136336999Y-134658061D01*
X136336999Y-134861939D01*
X136376773Y-135061898D01*
X136454794Y-135250256D01*
X136568062Y-135419774D01*
X136712225Y-135563937D01*
X136881743Y-135677205D01*
X137070101Y-135755226D01*
X137270060Y-135795000D01*
X137473938Y-135795000D01*
X137673897Y-135755226D01*
X137862255Y-135677205D01*
X138031773Y-135563937D01*
X138175936Y-135419774D01*
X138289204Y-135250256D01*
X138367225Y-135061898D01*
X138406999Y-134861939D01*
X138406999Y-134658061D01*
X141416999Y-134658061D01*
X141416999Y-134861939D01*
X141456773Y-135061898D01*
X141534794Y-135250256D01*
X141648062Y-135419774D01*
X141792225Y-135563937D01*
X141961743Y-135677205D01*
X142150101Y-135755226D01*
X142350060Y-135795000D01*
X142553938Y-135795000D01*
X142753897Y-135755226D01*
X142942255Y-135677205D01*
X143111773Y-135563937D01*
X143255936Y-135419774D01*
X143369204Y-135250256D01*
X143447225Y-135061898D01*
X143486999Y-134861939D01*
X143486999Y-134658061D01*
X143447225Y-134458102D01*
X143369204Y-134269744D01*
X143255936Y-134100226D01*
X143111773Y-133956063D01*
X142942255Y-133842795D01*
X142753897Y-133764774D01*
X142553938Y-133725000D01*
X142350060Y-133725000D01*
X142150101Y-133764774D01*
X141961743Y-133842795D01*
X141792225Y-133956063D01*
X141648062Y-134100226D01*
X141534794Y-134269744D01*
X141456773Y-134458102D01*
X141416999Y-134658061D01*
X138406999Y-134658061D01*
X138367225Y-134458102D01*
X138289204Y-134269744D01*
X138175936Y-134100226D01*
X138031773Y-133956063D01*
X137862255Y-133842795D01*
X137673897Y-133764774D01*
X137473938Y-133725000D01*
X137270060Y-133725000D01*
X137070101Y-133764774D01*
X136881743Y-133842795D01*
X136712225Y-133956063D01*
X136568062Y-134100226D01*
X136454794Y-134269744D01*
X136376773Y-134458102D01*
X136336999Y-134658061D01*
X131426999Y-134658061D01*
X131426999Y-132118061D01*
X136336999Y-132118061D01*
X136336999Y-132321939D01*
X136376773Y-132521898D01*
X136454794Y-132710256D01*
X136568062Y-132879774D01*
X136712225Y-133023937D01*
X136881743Y-133137205D01*
X137070101Y-133215226D01*
X137270060Y-133255000D01*
X137473938Y-133255000D01*
X137673897Y-133215226D01*
X137862255Y-133137205D01*
X138031773Y-133023937D01*
X138175936Y-132879774D01*
X138289204Y-132710256D01*
X138367225Y-132521898D01*
X138406999Y-132321939D01*
X138406999Y-132118061D01*
X141416999Y-132118061D01*
X141416999Y-132321939D01*
X141456773Y-132521898D01*
X141534794Y-132710256D01*
X141648062Y-132879774D01*
X141792225Y-133023937D01*
X141961743Y-133137205D01*
X142150101Y-133215226D01*
X142350060Y-133255000D01*
X142553938Y-133255000D01*
X142753897Y-133215226D01*
X142942255Y-133137205D01*
X143111773Y-133023937D01*
X143255936Y-132879774D01*
X143369204Y-132710256D01*
X143447225Y-132521898D01*
X143486999Y-132321939D01*
X143486999Y-132118061D01*
X143447225Y-131918102D01*
X143369204Y-131729744D01*
X143255936Y-131560226D01*
X143111773Y-131416063D01*
X142942255Y-131302795D01*
X142753897Y-131224774D01*
X142553938Y-131185000D01*
X142350060Y-131185000D01*
X142150101Y-131224774D01*
X141961743Y-131302795D01*
X141792225Y-131416063D01*
X141648062Y-131560226D01*
X141534794Y-131729744D01*
X141456773Y-131918102D01*
X141416999Y-132118061D01*
X138406999Y-132118061D01*
X138367225Y-131918102D01*
X138289204Y-131729744D01*
X138175936Y-131560226D01*
X138031773Y-131416063D01*
X137862255Y-131302795D01*
X137673897Y-131224774D01*
X137473938Y-131185000D01*
X137270060Y-131185000D01*
X137070101Y-131224774D01*
X136881743Y-131302795D01*
X136712225Y-131416063D01*
X136568062Y-131560226D01*
X136454794Y-131729744D01*
X136376773Y-131918102D01*
X136336999Y-132118061D01*
X131426999Y-132118061D01*
X131426999Y-127038061D01*
X136336999Y-127038061D01*
X136336999Y-127241939D01*
X136376773Y-127441898D01*
X136454794Y-127630256D01*
X136568062Y-127799774D01*
X136712225Y-127943937D01*
X136881743Y-128057205D01*
X137070101Y-128135226D01*
X137270060Y-128175000D01*
X137473938Y-128175000D01*
X137673897Y-128135226D01*
X137862255Y-128057205D01*
X138031773Y-127943937D01*
X138175936Y-127799774D01*
X138289204Y-127630256D01*
X138367225Y-127441898D01*
X138406999Y-127241939D01*
X138406999Y-127038061D01*
X141416999Y-127038061D01*
X141416999Y-127241939D01*
X141456773Y-127441898D01*
X141534794Y-127630256D01*
X141648062Y-127799774D01*
X141792225Y-127943937D01*
X141961743Y-128057205D01*
X142150101Y-128135226D01*
X142350060Y-128175000D01*
X142553938Y-128175000D01*
X142753897Y-128135226D01*
X142942255Y-128057205D01*
X143111773Y-127943937D01*
X143255936Y-127799774D01*
X143369204Y-127630256D01*
X143447225Y-127441898D01*
X143486999Y-127241939D01*
X143486999Y-127038061D01*
X143447225Y-126838102D01*
X143369204Y-126649744D01*
X143255936Y-126480226D01*
X143111773Y-126336063D01*
X142942255Y-126222795D01*
X142753897Y-126144774D01*
X142553938Y-126105000D01*
X142350060Y-126105000D01*
X142150101Y-126144774D01*
X141961743Y-126222795D01*
X141792225Y-126336063D01*
X141648062Y-126480226D01*
X141534794Y-126649744D01*
X141456773Y-126838102D01*
X141416999Y-127038061D01*
X138406999Y-127038061D01*
X138367225Y-126838102D01*
X138289204Y-126649744D01*
X138175936Y-126480226D01*
X138031773Y-126336063D01*
X137862255Y-126222795D01*
X137673897Y-126144774D01*
X137473938Y-126105000D01*
X137270060Y-126105000D01*
X137070101Y-126144774D01*
X136881743Y-126222795D01*
X136712225Y-126336063D01*
X136568062Y-126480226D01*
X136454794Y-126649744D01*
X136376773Y-126838102D01*
X136336999Y-127038061D01*
X131426999Y-127038061D01*
X131426999Y-118500000D01*
X138278927Y-118500000D01*
X138291187Y-118624482D01*
X138327497Y-118744180D01*
X138386462Y-118854494D01*
X138465814Y-118951185D01*
X138562505Y-119030537D01*
X138672819Y-119089502D01*
X138792517Y-119125812D01*
X138916999Y-119138072D01*
X139481249Y-119135000D01*
X139639999Y-118976250D01*
X139639999Y-117777000D01*
X139893999Y-117777000D01*
X139893999Y-118976250D01*
X140052749Y-119135000D01*
X140616999Y-119138072D01*
X140741481Y-119125812D01*
X140861179Y-119089502D01*
X140971493Y-119030537D01*
X141068184Y-118951185D01*
X141147536Y-118854494D01*
X141206501Y-118744180D01*
X141230965Y-118663534D01*
X141306730Y-118747588D01*
X141540079Y-118921641D01*
X141802900Y-119046825D01*
X141950109Y-119091476D01*
X142179999Y-118970155D01*
X142179999Y-117777000D01*
X142433999Y-117777000D01*
X142433999Y-118970155D01*
X142663889Y-119091476D01*
X142811098Y-119046825D01*
X143073919Y-118921641D01*
X143307268Y-118747588D01*
X143502177Y-118531355D01*
X143576999Y-118405745D01*
X143651821Y-118531355D01*
X143846730Y-118747588D01*
X144080079Y-118921641D01*
X144342900Y-119046825D01*
X144490109Y-119091476D01*
X144719999Y-118970155D01*
X144719999Y-117777000D01*
X144973999Y-117777000D01*
X144973999Y-118970155D01*
X145203889Y-119091476D01*
X145351098Y-119046825D01*
X145613919Y-118921641D01*
X145847268Y-118747588D01*
X146042177Y-118531355D01*
X146191156Y-118281252D01*
X146288480Y-118006891D01*
X146167813Y-117777000D01*
X144973999Y-117777000D01*
X144719999Y-117777000D01*
X142433999Y-117777000D01*
X142179999Y-117777000D01*
X139893999Y-117777000D01*
X139639999Y-117777000D01*
X138440749Y-117777000D01*
X138281999Y-117935750D01*
X138278927Y-118500000D01*
X131426999Y-118500000D01*
X131426999Y-116800000D01*
X138278927Y-116800000D01*
X138281999Y-117364250D01*
X138440749Y-117523000D01*
X139639999Y-117523000D01*
X139639999Y-115237000D01*
X139893999Y-115237000D01*
X139893999Y-117523000D01*
X142179999Y-117523000D01*
X142179999Y-115237000D01*
X142433999Y-115237000D01*
X142433999Y-117523000D01*
X144719999Y-117523000D01*
X144719999Y-115237000D01*
X144973999Y-115237000D01*
X144973999Y-117523000D01*
X146167813Y-117523000D01*
X146288480Y-117293109D01*
X146191156Y-117018748D01*
X146042177Y-116768645D01*
X145847268Y-116552412D01*
X145616119Y-116380000D01*
X145847268Y-116207588D01*
X146042177Y-115991355D01*
X146191156Y-115741252D01*
X146288480Y-115466891D01*
X146167813Y-115237000D01*
X144973999Y-115237000D01*
X144719999Y-115237000D01*
X142433999Y-115237000D01*
X142179999Y-115237000D01*
X139893999Y-115237000D01*
X139639999Y-115237000D01*
X138446185Y-115237000D01*
X138325518Y-115466891D01*
X138422842Y-115741252D01*
X138571821Y-115991355D01*
X138748625Y-116187502D01*
X138672819Y-116210498D01*
X138562505Y-116269463D01*
X138465814Y-116348815D01*
X138386462Y-116445506D01*
X138327497Y-116555820D01*
X138291187Y-116675518D01*
X138278927Y-116800000D01*
X131426999Y-116800000D01*
X131426999Y-114753109D01*
X138325518Y-114753109D01*
X138446185Y-114983000D01*
X139639999Y-114983000D01*
X139639999Y-113789845D01*
X139893999Y-113789845D01*
X139893999Y-114983000D01*
X142179999Y-114983000D01*
X142179999Y-113789845D01*
X142433999Y-113789845D01*
X142433999Y-114983000D01*
X144719999Y-114983000D01*
X144719999Y-113789845D01*
X144973999Y-113789845D01*
X144973999Y-114983000D01*
X146167813Y-114983000D01*
X146288480Y-114753109D01*
X146191156Y-114478748D01*
X146042177Y-114228645D01*
X145847268Y-114012412D01*
X145613919Y-113838359D01*
X145351098Y-113713175D01*
X145203889Y-113668524D01*
X144973999Y-113789845D01*
X144719999Y-113789845D01*
X144490109Y-113668524D01*
X144342900Y-113713175D01*
X144080079Y-113838359D01*
X143846730Y-114012412D01*
X143651821Y-114228645D01*
X143576999Y-114354255D01*
X143502177Y-114228645D01*
X143307268Y-114012412D01*
X143073919Y-113838359D01*
X142811098Y-113713175D01*
X142663889Y-113668524D01*
X142433999Y-113789845D01*
X142179999Y-113789845D01*
X141950109Y-113668524D01*
X141802900Y-113713175D01*
X141540079Y-113838359D01*
X141306730Y-114012412D01*
X141111821Y-114228645D01*
X141036999Y-114354255D01*
X140962177Y-114228645D01*
X140767268Y-114012412D01*
X140533919Y-113838359D01*
X140271098Y-113713175D01*
X140123889Y-113668524D01*
X139893999Y-113789845D01*
X139639999Y-113789845D01*
X139410109Y-113668524D01*
X139262900Y-113713175D01*
X139000079Y-113838359D01*
X138766730Y-114012412D01*
X138571821Y-114228645D01*
X138422842Y-114478748D01*
X138325518Y-114753109D01*
X131426999Y-114753109D01*
X131426999Y-113310000D01*
X147107000Y-113310000D01*
X147106999Y-154990000D01*
X93426999Y-154990000D01*
X93426999Y-151690000D01*
X93973927Y-151690000D01*
X93973927Y-153390000D01*
X93986187Y-153514482D01*
X94022497Y-153634180D01*
X94081462Y-153744494D01*
X94160814Y-153841185D01*
X94257505Y-153920537D01*
X94367819Y-153979502D01*
X94487517Y-154015812D01*
X94611999Y-154028072D01*
X96311999Y-154028072D01*
X96436481Y-154015812D01*
X96556179Y-153979502D01*
X96666493Y-153920537D01*
X96763184Y-153841185D01*
X96842536Y-153744494D01*
X96901501Y-153634180D01*
X96937811Y-153514482D01*
X96950071Y-153390000D01*
X96950071Y-151690000D01*
X96937811Y-151565518D01*
X96901501Y-151445820D01*
X96842536Y-151335506D01*
X96763184Y-151238815D01*
X96666493Y-151159463D01*
X96556179Y-151100498D01*
X96483619Y-151078487D01*
X96615474Y-150946632D01*
X96713450Y-150800000D01*
X118778927Y-150800000D01*
X118778927Y-152500000D01*
X118791187Y-152624482D01*
X118827497Y-152744180D01*
X118886462Y-152854494D01*
X118965814Y-152951185D01*
X119062505Y-153030537D01*
X119172819Y-153089502D01*
X119292517Y-153125812D01*
X119416999Y-153138072D01*
X121116999Y-153138072D01*
X121241481Y-153125812D01*
X121361179Y-153089502D01*
X121471493Y-153030537D01*
X121568184Y-152951185D01*
X121647536Y-152854494D01*
X121706501Y-152744180D01*
X121728512Y-152671620D01*
X121860367Y-152803475D01*
X122103588Y-152965990D01*
X122373841Y-153077932D01*
X122660739Y-153135000D01*
X122953259Y-153135000D01*
X123240157Y-153077932D01*
X123510410Y-152965990D01*
X123753631Y-152803475D01*
X123960474Y-152596632D01*
X124076999Y-152422240D01*
X124193524Y-152596632D01*
X124400367Y-152803475D01*
X124643588Y-152965990D01*
X124913841Y-153077932D01*
X125200739Y-153135000D01*
X125493259Y-153135000D01*
X125780157Y-153077932D01*
X126050410Y-152965990D01*
X126293631Y-152803475D01*
X126342106Y-152755000D01*
X134486927Y-152755000D01*
X134499187Y-152879482D01*
X134535497Y-152999180D01*
X134594462Y-153109494D01*
X134673814Y-153206185D01*
X134770505Y-153285537D01*
X134880819Y-153344502D01*
X135000517Y-153380812D01*
X135124999Y-153393072D01*
X135689249Y-153390000D01*
X135847999Y-153231250D01*
X135847999Y-152032000D01*
X136101999Y-152032000D01*
X136101999Y-153231250D01*
X136260749Y-153390000D01*
X136824999Y-153393072D01*
X136949481Y-153380812D01*
X137069179Y-153344502D01*
X137179493Y-153285537D01*
X137276184Y-153206185D01*
X137355536Y-153109494D01*
X137414501Y-152999180D01*
X137438965Y-152918534D01*
X137514730Y-153002588D01*
X137748079Y-153176641D01*
X138010900Y-153301825D01*
X138158109Y-153346476D01*
X138387999Y-153225155D01*
X138387999Y-152032000D01*
X138641999Y-152032000D01*
X138641999Y-153225155D01*
X138871889Y-153346476D01*
X139019098Y-153301825D01*
X139281919Y-153176641D01*
X139515268Y-153002588D01*
X139710177Y-152786355D01*
X139859156Y-152536252D01*
X139956480Y-152261891D01*
X139835813Y-152032000D01*
X138641999Y-152032000D01*
X138387999Y-152032000D01*
X136101999Y-152032000D01*
X135847999Y-152032000D01*
X134648749Y-152032000D01*
X134489999Y-152190750D01*
X134486927Y-152755000D01*
X126342106Y-152755000D01*
X126500474Y-152596632D01*
X126662989Y-152353411D01*
X126774931Y-152083158D01*
X126831999Y-151796260D01*
X126831999Y-151503740D01*
X126774931Y-151216842D01*
X126707895Y-151055000D01*
X134486927Y-151055000D01*
X134489999Y-151619250D01*
X134648749Y-151778000D01*
X135847999Y-151778000D01*
X135847999Y-150578750D01*
X136101999Y-150578750D01*
X136101999Y-151778000D01*
X138387999Y-151778000D01*
X138387999Y-150584845D01*
X138641999Y-150584845D01*
X138641999Y-151778000D01*
X139835813Y-151778000D01*
X139956480Y-151548109D01*
X139859156Y-151273748D01*
X139710177Y-151023645D01*
X139515268Y-150807412D01*
X139281919Y-150633359D01*
X139019098Y-150508175D01*
X138871889Y-150463524D01*
X138641999Y-150584845D01*
X138387999Y-150584845D01*
X138158109Y-150463524D01*
X138010900Y-150508175D01*
X137748079Y-150633359D01*
X137514730Y-150807412D01*
X137438965Y-150891466D01*
X137414501Y-150810820D01*
X137355536Y-150700506D01*
X137276184Y-150603815D01*
X137179493Y-150524463D01*
X137069179Y-150465498D01*
X136949481Y-150429188D01*
X136824999Y-150416928D01*
X136260749Y-150420000D01*
X136101999Y-150578750D01*
X135847999Y-150578750D01*
X135689249Y-150420000D01*
X135124999Y-150416928D01*
X135000517Y-150429188D01*
X134880819Y-150465498D01*
X134770505Y-150524463D01*
X134673814Y-150603815D01*
X134594462Y-150700506D01*
X134535497Y-150810820D01*
X134499187Y-150930518D01*
X134486927Y-151055000D01*
X126707895Y-151055000D01*
X126662989Y-150946589D01*
X126500474Y-150703368D01*
X126293631Y-150496525D01*
X126117593Y-150378900D01*
X126347268Y-150207588D01*
X126542177Y-149991355D01*
X126691156Y-149741252D01*
X126788480Y-149466891D01*
X126667813Y-149237000D01*
X125473999Y-149237000D01*
X125473999Y-149257000D01*
X125219999Y-149257000D01*
X125219999Y-149237000D01*
X125199999Y-149237000D01*
X125199999Y-148983000D01*
X125219999Y-148983000D01*
X125219999Y-147789845D01*
X125473999Y-147789845D01*
X125473999Y-148983000D01*
X126667813Y-148983000D01*
X126788480Y-148753109D01*
X126691156Y-148478748D01*
X126542177Y-148228645D01*
X126347268Y-148012412D01*
X126113919Y-147838359D01*
X125851098Y-147713175D01*
X125703889Y-147668524D01*
X125473999Y-147789845D01*
X125219999Y-147789845D01*
X124990109Y-147668524D01*
X124842900Y-147713175D01*
X124580079Y-147838359D01*
X124346730Y-148012412D01*
X124151821Y-148228645D01*
X124082194Y-148345534D01*
X123960474Y-148163368D01*
X123753631Y-147956525D01*
X123510410Y-147794010D01*
X123240157Y-147682068D01*
X122953259Y-147625000D01*
X122660739Y-147625000D01*
X122373841Y-147682068D01*
X122103588Y-147794010D01*
X121860367Y-147956525D01*
X121653524Y-148163368D01*
X121536999Y-148337760D01*
X121420474Y-148163368D01*
X121213631Y-147956525D01*
X120970410Y-147794010D01*
X120700157Y-147682068D01*
X120413259Y-147625000D01*
X120120739Y-147625000D01*
X119833841Y-147682068D01*
X119563588Y-147794010D01*
X119320367Y-147956525D01*
X119113524Y-148163368D01*
X118951009Y-148406589D01*
X118839067Y-148676842D01*
X118781999Y-148963740D01*
X118781999Y-149256260D01*
X118839067Y-149543158D01*
X118951009Y-149813411D01*
X119113524Y-150056632D01*
X119245379Y-150188487D01*
X119172819Y-150210498D01*
X119062505Y-150269463D01*
X118965814Y-150348815D01*
X118886462Y-150445506D01*
X118827497Y-150555820D01*
X118791187Y-150675518D01*
X118778927Y-150800000D01*
X96713450Y-150800000D01*
X96777989Y-150703411D01*
X96889931Y-150433158D01*
X96946999Y-150146260D01*
X96946999Y-149853740D01*
X96889931Y-149566842D01*
X96777989Y-149296589D01*
X96615474Y-149053368D01*
X96408631Y-148846525D01*
X96165410Y-148684010D01*
X95895157Y-148572068D01*
X95608259Y-148515000D01*
X95315739Y-148515000D01*
X95028841Y-148572068D01*
X94758588Y-148684010D01*
X94515367Y-148846525D01*
X94308524Y-149053368D01*
X94146009Y-149296589D01*
X94034067Y-149566842D01*
X93976999Y-149853740D01*
X93976999Y-150146260D01*
X94034067Y-150433158D01*
X94146009Y-150703411D01*
X94308524Y-150946632D01*
X94440379Y-151078487D01*
X94367819Y-151100498D01*
X94257505Y-151159463D01*
X94160814Y-151238815D01*
X94081462Y-151335506D01*
X94022497Y-151445820D01*
X93986187Y-151565518D01*
X93973927Y-151690000D01*
X93426999Y-151690000D01*
X93426999Y-143230000D01*
X100323927Y-143230000D01*
X100336187Y-143354482D01*
X100372497Y-143474180D01*
X100431462Y-143584494D01*
X100510814Y-143681185D01*
X100607505Y-143760537D01*
X100717819Y-143819502D01*
X100790379Y-143841513D01*
X100658524Y-143973368D01*
X100496009Y-144216589D01*
X100384067Y-144486842D01*
X100326999Y-144773740D01*
X100326999Y-145066260D01*
X100384067Y-145353158D01*
X100496009Y-145623411D01*
X100658524Y-145866632D01*
X100865367Y-146073475D01*
X101108588Y-146235990D01*
X101378841Y-146347932D01*
X101665739Y-146405000D01*
X101958259Y-146405000D01*
X102245157Y-146347932D01*
X102515410Y-146235990D01*
X102758631Y-146073475D01*
X102965474Y-145866632D01*
X103127989Y-145623411D01*
X103239931Y-145353158D01*
X103296999Y-145066260D01*
X103296999Y-144773740D01*
X103239931Y-144486842D01*
X103127989Y-144216589D01*
X102965474Y-143973368D01*
X102833619Y-143841513D01*
X102906179Y-143819502D01*
X103016493Y-143760537D01*
X103113184Y-143681185D01*
X103192536Y-143584494D01*
X103251501Y-143474180D01*
X103287811Y-143354482D01*
X103300071Y-143230000D01*
X109213927Y-143230000D01*
X109226187Y-143354482D01*
X109262497Y-143474180D01*
X109321462Y-143584494D01*
X109400814Y-143681185D01*
X109497505Y-143760537D01*
X109607819Y-143819502D01*
X109680379Y-143841513D01*
X109548524Y-143973368D01*
X109386009Y-144216589D01*
X109274067Y-144486842D01*
X109216999Y-144773740D01*
X109216999Y-145066260D01*
X109274067Y-145353158D01*
X109386009Y-145623411D01*
X109548524Y-145866632D01*
X109755367Y-146073475D01*
X109998588Y-146235990D01*
X110268841Y-146347932D01*
X110555739Y-146405000D01*
X110848259Y-146405000D01*
X111135157Y-146347932D01*
X111405410Y-146235990D01*
X111648631Y-146073475D01*
X111855474Y-145866632D01*
X112017989Y-145623411D01*
X112129931Y-145353158D01*
X112186999Y-145066260D01*
X112186999Y-144773740D01*
X112129931Y-144486842D01*
X112017989Y-144216589D01*
X111855474Y-143973368D01*
X111723619Y-143841513D01*
X111796179Y-143819502D01*
X111906493Y-143760537D01*
X112003184Y-143681185D01*
X112082536Y-143584494D01*
X112141501Y-143474180D01*
X112177811Y-143354482D01*
X112190071Y-143230000D01*
X112186999Y-142665750D01*
X112028249Y-142507000D01*
X110828999Y-142507000D01*
X110828999Y-142527000D01*
X110574999Y-142527000D01*
X110574999Y-142507000D01*
X109375749Y-142507000D01*
X109216999Y-142665750D01*
X109213927Y-143230000D01*
X103300071Y-143230000D01*
X103296999Y-142665750D01*
X103138249Y-142507000D01*
X101938999Y-142507000D01*
X101938999Y-142527000D01*
X101684999Y-142527000D01*
X101684999Y-142507000D01*
X100485749Y-142507000D01*
X100326999Y-142665750D01*
X100323927Y-143230000D01*
X93426999Y-143230000D01*
X93426999Y-141530000D01*
X100323927Y-141530000D01*
X100326999Y-142094250D01*
X100485749Y-142253000D01*
X101684999Y-142253000D01*
X101684999Y-141053750D01*
X101938999Y-141053750D01*
X101938999Y-142253000D01*
X103138249Y-142253000D01*
X103296999Y-142094250D01*
X103300071Y-141530000D01*
X109213927Y-141530000D01*
X109216999Y-142094250D01*
X109375749Y-142253000D01*
X110574999Y-142253000D01*
X110574999Y-141053750D01*
X110828999Y-141053750D01*
X110828999Y-142253000D01*
X112028249Y-142253000D01*
X112186999Y-142094250D01*
X112190071Y-141530000D01*
X112177811Y-141405518D01*
X112141501Y-141285820D01*
X112082536Y-141175506D01*
X112003184Y-141078815D01*
X111906493Y-140999463D01*
X111796179Y-140940498D01*
X111676481Y-140904188D01*
X111551999Y-140891928D01*
X110987749Y-140895000D01*
X110828999Y-141053750D01*
X110574999Y-141053750D01*
X110416249Y-140895000D01*
X109851999Y-140891928D01*
X109727517Y-140904188D01*
X109607819Y-140940498D01*
X109497505Y-140999463D01*
X109400814Y-141078815D01*
X109321462Y-141175506D01*
X109262497Y-141285820D01*
X109226187Y-141405518D01*
X109213927Y-141530000D01*
X103300071Y-141530000D01*
X103287811Y-141405518D01*
X103251501Y-141285820D01*
X103192536Y-141175506D01*
X103113184Y-141078815D01*
X103016493Y-140999463D01*
X102906179Y-140940498D01*
X102786481Y-140904188D01*
X102661999Y-140891928D01*
X102097749Y-140895000D01*
X101938999Y-141053750D01*
X101684999Y-141053750D01*
X101526249Y-140895000D01*
X100961999Y-140891928D01*
X100837517Y-140904188D01*
X100717819Y-140940498D01*
X100607505Y-140999463D01*
X100510814Y-141078815D01*
X100431462Y-141175506D01*
X100372497Y-141285820D01*
X100336187Y-141405518D01*
X100323927Y-141530000D01*
X93426999Y-141530000D01*
X93426999Y-137198061D01*
X102046999Y-137198061D01*
X102046999Y-137401939D01*
X102086773Y-137601898D01*
X102164794Y-137790256D01*
X102278062Y-137959774D01*
X102422225Y-138103937D01*
X102591743Y-138217205D01*
X102780101Y-138295226D01*
X102980060Y-138335000D01*
X103183938Y-138335000D01*
X103383897Y-138295226D01*
X103572255Y-138217205D01*
X103741773Y-138103937D01*
X103885936Y-137959774D01*
X103999204Y-137790256D01*
X104077225Y-137601898D01*
X104116999Y-137401939D01*
X104116999Y-137198061D01*
X107126999Y-137198061D01*
X107126999Y-137401939D01*
X107166773Y-137601898D01*
X107244794Y-137790256D01*
X107358062Y-137959774D01*
X107502225Y-138103937D01*
X107671743Y-138217205D01*
X107860101Y-138295226D01*
X108060060Y-138335000D01*
X108263938Y-138335000D01*
X108463897Y-138295226D01*
X108652255Y-138217205D01*
X108821773Y-138103937D01*
X108965936Y-137959774D01*
X109079204Y-137790256D01*
X109157225Y-137601898D01*
X109196999Y-137401939D01*
X109196999Y-137198061D01*
X109157225Y-136998102D01*
X109079204Y-136809744D01*
X108965936Y-136640226D01*
X108821773Y-136496063D01*
X108652255Y-136382795D01*
X108463897Y-136304774D01*
X108263938Y-136265000D01*
X108060060Y-136265000D01*
X107860101Y-136304774D01*
X107671743Y-136382795D01*
X107502225Y-136496063D01*
X107358062Y-136640226D01*
X107244794Y-136809744D01*
X107166773Y-136998102D01*
X107126999Y-137198061D01*
X104116999Y-137198061D01*
X104077225Y-136998102D01*
X103999204Y-136809744D01*
X103885936Y-136640226D01*
X103741773Y-136496063D01*
X103572255Y-136382795D01*
X103383897Y-136304774D01*
X103183938Y-136265000D01*
X102980060Y-136265000D01*
X102780101Y-136304774D01*
X102591743Y-136382795D01*
X102422225Y-136496063D01*
X102278062Y-136640226D01*
X102164794Y-136809744D01*
X102086773Y-136998102D01*
X102046999Y-137198061D01*
X93426999Y-137198061D01*
X93426999Y-134658061D01*
X102046999Y-134658061D01*
X102046999Y-134861939D01*
X102086773Y-135061898D01*
X102164794Y-135250256D01*
X102278062Y-135419774D01*
X102422225Y-135563937D01*
X102591743Y-135677205D01*
X102780101Y-135755226D01*
X102980060Y-135795000D01*
X103183938Y-135795000D01*
X103383897Y-135755226D01*
X103572255Y-135677205D01*
X103741773Y-135563937D01*
X103885936Y-135419774D01*
X103999204Y-135250256D01*
X104077225Y-135061898D01*
X104116999Y-134861939D01*
X104116999Y-134658061D01*
X107126999Y-134658061D01*
X107126999Y-134861939D01*
X107166773Y-135061898D01*
X107244794Y-135250256D01*
X107358062Y-135419774D01*
X107502225Y-135563937D01*
X107671743Y-135677205D01*
X107860101Y-135755226D01*
X108060060Y-135795000D01*
X108263938Y-135795000D01*
X108463897Y-135755226D01*
X108652255Y-135677205D01*
X108821773Y-135563937D01*
X108965936Y-135419774D01*
X109079204Y-135250256D01*
X109157225Y-135061898D01*
X109196999Y-134861939D01*
X109196999Y-134658061D01*
X109157225Y-134458102D01*
X109079204Y-134269744D01*
X108965936Y-134100226D01*
X108821773Y-133956063D01*
X108652255Y-133842795D01*
X108463897Y-133764774D01*
X108263938Y-133725000D01*
X108060060Y-133725000D01*
X107860101Y-133764774D01*
X107671743Y-133842795D01*
X107502225Y-133956063D01*
X107358062Y-134100226D01*
X107244794Y-134269744D01*
X107166773Y-134458102D01*
X107126999Y-134658061D01*
X104116999Y-134658061D01*
X104077225Y-134458102D01*
X103999204Y-134269744D01*
X103885936Y-134100226D01*
X103741773Y-133956063D01*
X103572255Y-133842795D01*
X103383897Y-133764774D01*
X103183938Y-133725000D01*
X102980060Y-133725000D01*
X102780101Y-133764774D01*
X102591743Y-133842795D01*
X102422225Y-133956063D01*
X102278062Y-134100226D01*
X102164794Y-134269744D01*
X102086773Y-134458102D01*
X102046999Y-134658061D01*
X93426999Y-134658061D01*
X93426999Y-132118061D01*
X102046999Y-132118061D01*
X102046999Y-132321939D01*
X102086773Y-132521898D01*
X102164794Y-132710256D01*
X102278062Y-132879774D01*
X102422225Y-133023937D01*
X102591743Y-133137205D01*
X102780101Y-133215226D01*
X102980060Y-133255000D01*
X103183938Y-133255000D01*
X103383897Y-133215226D01*
X103572255Y-133137205D01*
X103741773Y-133023937D01*
X103885936Y-132879774D01*
X103999204Y-132710256D01*
X104077225Y-132521898D01*
X104116999Y-132321939D01*
X104116999Y-132118061D01*
X107126999Y-132118061D01*
X107126999Y-132321939D01*
X107166773Y-132521898D01*
X107244794Y-132710256D01*
X107358062Y-132879774D01*
X107502225Y-133023937D01*
X107671743Y-133137205D01*
X107860101Y-133215226D01*
X108060060Y-133255000D01*
X108263938Y-133255000D01*
X108463897Y-133215226D01*
X108652255Y-133137205D01*
X108821773Y-133023937D01*
X108965936Y-132879774D01*
X109079204Y-132710256D01*
X109157225Y-132521898D01*
X109196999Y-132321939D01*
X109196999Y-132118061D01*
X109157225Y-131918102D01*
X109079204Y-131729744D01*
X108965936Y-131560226D01*
X108821773Y-131416063D01*
X108652255Y-131302795D01*
X108463897Y-131224774D01*
X108263938Y-131185000D01*
X108060060Y-131185000D01*
X107860101Y-131224774D01*
X107671743Y-131302795D01*
X107502225Y-131416063D01*
X107358062Y-131560226D01*
X107244794Y-131729744D01*
X107166773Y-131918102D01*
X107126999Y-132118061D01*
X104116999Y-132118061D01*
X104077225Y-131918102D01*
X103999204Y-131729744D01*
X103885936Y-131560226D01*
X103741773Y-131416063D01*
X103572255Y-131302795D01*
X103383897Y-131224774D01*
X103183938Y-131185000D01*
X102980060Y-131185000D01*
X102780101Y-131224774D01*
X102591743Y-131302795D01*
X102422225Y-131416063D01*
X102278062Y-131560226D01*
X102164794Y-131729744D01*
X102086773Y-131918102D01*
X102046999Y-132118061D01*
X93426999Y-132118061D01*
X93426999Y-129578061D01*
X102046999Y-129578061D01*
X102046999Y-129781939D01*
X102086773Y-129981898D01*
X102164794Y-130170256D01*
X102278062Y-130339774D01*
X102422225Y-130483937D01*
X102591743Y-130597205D01*
X102780101Y-130675226D01*
X102980060Y-130715000D01*
X103183938Y-130715000D01*
X103383897Y-130675226D01*
X103572255Y-130597205D01*
X103741773Y-130483937D01*
X103885936Y-130339774D01*
X103999204Y-130170256D01*
X104077225Y-129981898D01*
X104116999Y-129781939D01*
X104116999Y-129578061D01*
X107126999Y-129578061D01*
X107126999Y-129781939D01*
X107166773Y-129981898D01*
X107244794Y-130170256D01*
X107358062Y-130339774D01*
X107502225Y-130483937D01*
X107671743Y-130597205D01*
X107860101Y-130675226D01*
X108060060Y-130715000D01*
X108263938Y-130715000D01*
X108463897Y-130675226D01*
X108652255Y-130597205D01*
X108821773Y-130483937D01*
X108965936Y-130339774D01*
X109079204Y-130170256D01*
X109157225Y-129981898D01*
X109196999Y-129781939D01*
X109196999Y-129578061D01*
X109157225Y-129378102D01*
X109079204Y-129189744D01*
X108965936Y-129020226D01*
X108821773Y-128876063D01*
X108652255Y-128762795D01*
X108463897Y-128684774D01*
X108263938Y-128645000D01*
X108060060Y-128645000D01*
X107860101Y-128684774D01*
X107671743Y-128762795D01*
X107502225Y-128876063D01*
X107358062Y-129020226D01*
X107244794Y-129189744D01*
X107166773Y-129378102D01*
X107126999Y-129578061D01*
X104116999Y-129578061D01*
X104077225Y-129378102D01*
X103999204Y-129189744D01*
X103885936Y-129020226D01*
X103741773Y-128876063D01*
X103572255Y-128762795D01*
X103383897Y-128684774D01*
X103183938Y-128645000D01*
X102980060Y-128645000D01*
X102780101Y-128684774D01*
X102591743Y-128762795D01*
X102422225Y-128876063D01*
X102278062Y-129020226D01*
X102164794Y-129189744D01*
X102086773Y-129378102D01*
X102046999Y-129578061D01*
X93426999Y-129578061D01*
X93426999Y-127038061D01*
X102046999Y-127038061D01*
X102046999Y-127241939D01*
X102086773Y-127441898D01*
X102164794Y-127630256D01*
X102278062Y-127799774D01*
X102422225Y-127943937D01*
X102591743Y-128057205D01*
X102780101Y-128135226D01*
X102980060Y-128175000D01*
X103183938Y-128175000D01*
X103383897Y-128135226D01*
X103572255Y-128057205D01*
X103741773Y-127943937D01*
X103885936Y-127799774D01*
X103999204Y-127630256D01*
X104077225Y-127441898D01*
X104116999Y-127241939D01*
X104116999Y-127038061D01*
X107126999Y-127038061D01*
X107126999Y-127241939D01*
X107166773Y-127441898D01*
X107244794Y-127630256D01*
X107358062Y-127799774D01*
X107502225Y-127943937D01*
X107671743Y-128057205D01*
X107860101Y-128135226D01*
X108060060Y-128175000D01*
X108263938Y-128175000D01*
X108463897Y-128135226D01*
X108652255Y-128057205D01*
X108821773Y-127943937D01*
X108965936Y-127799774D01*
X109079204Y-127630256D01*
X109157225Y-127441898D01*
X109196999Y-127241939D01*
X109196999Y-127038061D01*
X109157225Y-126838102D01*
X109079204Y-126649744D01*
X108965936Y-126480226D01*
X108821773Y-126336063D01*
X108652255Y-126222795D01*
X108463897Y-126144774D01*
X108263938Y-126105000D01*
X108060060Y-126105000D01*
X107860101Y-126144774D01*
X107671743Y-126222795D01*
X107502225Y-126336063D01*
X107358062Y-126480226D01*
X107244794Y-126649744D01*
X107166773Y-126838102D01*
X107126999Y-127038061D01*
X104116999Y-127038061D01*
X104077225Y-126838102D01*
X103999204Y-126649744D01*
X103885936Y-126480226D01*
X103741773Y-126336063D01*
X103572255Y-126222795D01*
X103383897Y-126144774D01*
X103183938Y-126105000D01*
X102980060Y-126105000D01*
X102780101Y-126144774D01*
X102591743Y-126222795D01*
X102422225Y-126336063D01*
X102278062Y-126480226D01*
X102164794Y-126649744D01*
X102086773Y-126838102D01*
X102046999Y-127038061D01*
X93426999Y-127038061D01*
X93426999Y-124498061D01*
X102046999Y-124498061D01*
X102046999Y-124701939D01*
X102086773Y-124901898D01*
X102164794Y-125090256D01*
X102278062Y-125259774D01*
X102422225Y-125403937D01*
X102591743Y-125517205D01*
X102780101Y-125595226D01*
X102980060Y-125635000D01*
X103183938Y-125635000D01*
X103383897Y-125595226D01*
X103572255Y-125517205D01*
X103741773Y-125403937D01*
X103885936Y-125259774D01*
X103999204Y-125090256D01*
X104077225Y-124901898D01*
X104116999Y-124701939D01*
X104116999Y-124498061D01*
X107126999Y-124498061D01*
X107126999Y-124701939D01*
X107166773Y-124901898D01*
X107244794Y-125090256D01*
X107358062Y-125259774D01*
X107502225Y-125403937D01*
X107671743Y-125517205D01*
X107860101Y-125595226D01*
X108060060Y-125635000D01*
X108263938Y-125635000D01*
X108463897Y-125595226D01*
X108652255Y-125517205D01*
X108821773Y-125403937D01*
X108965936Y-125259774D01*
X109079204Y-125090256D01*
X109157225Y-124901898D01*
X109196999Y-124701939D01*
X109196999Y-124498061D01*
X109157225Y-124298102D01*
X109079204Y-124109744D01*
X108965936Y-123940226D01*
X108821773Y-123796063D01*
X108652255Y-123682795D01*
X108463897Y-123604774D01*
X108263938Y-123565000D01*
X108060060Y-123565000D01*
X107860101Y-123604774D01*
X107671743Y-123682795D01*
X107502225Y-123796063D01*
X107358062Y-123940226D01*
X107244794Y-124109744D01*
X107166773Y-124298102D01*
X107126999Y-124498061D01*
X104116999Y-124498061D01*
X104077225Y-124298102D01*
X103999204Y-124109744D01*
X103885936Y-123940226D01*
X103741773Y-123796063D01*
X103572255Y-123682795D01*
X103383897Y-123604774D01*
X103183938Y-123565000D01*
X102980060Y-123565000D01*
X102780101Y-123604774D01*
X102591743Y-123682795D01*
X102422225Y-123796063D01*
X102278062Y-123940226D01*
X102164794Y-124109744D01*
X102086773Y-124298102D01*
X102046999Y-124498061D01*
X93426999Y-124498061D01*
X93426999Y-121958061D01*
X102046999Y-121958061D01*
X102046999Y-122161939D01*
X102086773Y-122361898D01*
X102164794Y-122550256D01*
X102278062Y-122719774D01*
X102422225Y-122863937D01*
X102591743Y-122977205D01*
X102780101Y-123055226D01*
X102980060Y-123095000D01*
X103183938Y-123095000D01*
X103383897Y-123055226D01*
X103572255Y-122977205D01*
X103741773Y-122863937D01*
X103885936Y-122719774D01*
X103999204Y-122550256D01*
X104077225Y-122361898D01*
X104116999Y-122161939D01*
X104116999Y-121958061D01*
X107126999Y-121958061D01*
X107126999Y-122161939D01*
X107166773Y-122361898D01*
X107244794Y-122550256D01*
X107358062Y-122719774D01*
X107502225Y-122863937D01*
X107671743Y-122977205D01*
X107860101Y-123055226D01*
X108060060Y-123095000D01*
X108263938Y-123095000D01*
X108463897Y-123055226D01*
X108652255Y-122977205D01*
X108821773Y-122863937D01*
X108965936Y-122719774D01*
X109079204Y-122550256D01*
X109157225Y-122361898D01*
X109196999Y-122161939D01*
X109196999Y-121958061D01*
X109157225Y-121758102D01*
X109079204Y-121569744D01*
X108965936Y-121400226D01*
X108821773Y-121256063D01*
X108652255Y-121142795D01*
X108463897Y-121064774D01*
X108263938Y-121025000D01*
X108060060Y-121025000D01*
X107860101Y-121064774D01*
X107671743Y-121142795D01*
X107502225Y-121256063D01*
X107358062Y-121400226D01*
X107244794Y-121569744D01*
X107166773Y-121758102D01*
X107126999Y-121958061D01*
X104116999Y-121958061D01*
X104077225Y-121758102D01*
X103999204Y-121569744D01*
X103885936Y-121400226D01*
X103741773Y-121256063D01*
X103572255Y-121142795D01*
X103383897Y-121064774D01*
X103183938Y-121025000D01*
X102980060Y-121025000D01*
X102780101Y-121064774D01*
X102591743Y-121142795D01*
X102422225Y-121256063D01*
X102278062Y-121400226D01*
X102164794Y-121569744D01*
X102086773Y-121758102D01*
X102046999Y-121958061D01*
X93426999Y-121958061D01*
X93426999Y-118500000D01*
X94278927Y-118500000D01*
X94291187Y-118624482D01*
X94327497Y-118744180D01*
X94386462Y-118854494D01*
X94465814Y-118951185D01*
X94562505Y-119030537D01*
X94672819Y-119089502D01*
X94792517Y-119125812D01*
X94916999Y-119138072D01*
X95481249Y-119135000D01*
X95639999Y-118976250D01*
X95639999Y-117777000D01*
X95893999Y-117777000D01*
X95893999Y-118976250D01*
X96052749Y-119135000D01*
X96616999Y-119138072D01*
X96741481Y-119125812D01*
X96861179Y-119089502D01*
X96971493Y-119030537D01*
X97068184Y-118951185D01*
X97147536Y-118854494D01*
X97206501Y-118744180D01*
X97230965Y-118663534D01*
X97306730Y-118747588D01*
X97540079Y-118921641D01*
X97802900Y-119046825D01*
X97950109Y-119091476D01*
X98179999Y-118970155D01*
X98179999Y-117777000D01*
X98433999Y-117777000D01*
X98433999Y-118970155D01*
X98663889Y-119091476D01*
X98811098Y-119046825D01*
X99073919Y-118921641D01*
X99307268Y-118747588D01*
X99502177Y-118531355D01*
X99576999Y-118405745D01*
X99651821Y-118531355D01*
X99846730Y-118747588D01*
X100080079Y-118921641D01*
X100342900Y-119046825D01*
X100490109Y-119091476D01*
X100719999Y-118970155D01*
X100719999Y-117777000D01*
X100973999Y-117777000D01*
X100973999Y-118970155D01*
X101203889Y-119091476D01*
X101351098Y-119046825D01*
X101613919Y-118921641D01*
X101847268Y-118747588D01*
X102042177Y-118531355D01*
X102191156Y-118281252D01*
X102288480Y-118006891D01*
X102167813Y-117777000D01*
X100973999Y-117777000D01*
X100719999Y-117777000D01*
X98433999Y-117777000D01*
X98179999Y-117777000D01*
X95893999Y-117777000D01*
X95639999Y-117777000D01*
X94440749Y-117777000D01*
X94281999Y-117935750D01*
X94278927Y-118500000D01*
X93426999Y-118500000D01*
X93426999Y-116800000D01*
X94278927Y-116800000D01*
X94281999Y-117364250D01*
X94440749Y-117523000D01*
X95639999Y-117523000D01*
X95639999Y-115237000D01*
X95893999Y-115237000D01*
X95893999Y-117523000D01*
X98179999Y-117523000D01*
X98179999Y-115237000D01*
X98433999Y-115237000D01*
X98433999Y-117523000D01*
X100719999Y-117523000D01*
X100719999Y-115237000D01*
X100973999Y-115237000D01*
X100973999Y-117523000D01*
X102167813Y-117523000D01*
X102288480Y-117293109D01*
X102191156Y-117018748D01*
X102042177Y-116768645D01*
X101854108Y-116560000D01*
X104133927Y-116560000D01*
X104146187Y-116684482D01*
X104182497Y-116804180D01*
X104241462Y-116914494D01*
X104320814Y-117011185D01*
X104417505Y-117090537D01*
X104527819Y-117149502D01*
X104647517Y-117185812D01*
X104771999Y-117198072D01*
X105336249Y-117195000D01*
X105494999Y-117036250D01*
X105494999Y-115837000D01*
X105748999Y-115837000D01*
X105748999Y-117036250D01*
X105907749Y-117195000D01*
X106471999Y-117198072D01*
X106596481Y-117185812D01*
X106716179Y-117149502D01*
X106826493Y-117090537D01*
X106923184Y-117011185D01*
X107002536Y-116914494D01*
X107061501Y-116804180D01*
X107085965Y-116723534D01*
X107161730Y-116807588D01*
X107395079Y-116981641D01*
X107657900Y-117106825D01*
X107805109Y-117151476D01*
X108034999Y-117030155D01*
X108034999Y-115837000D01*
X108288999Y-115837000D01*
X108288999Y-117030155D01*
X108518889Y-117151476D01*
X108666098Y-117106825D01*
X108928919Y-116981641D01*
X109162268Y-116807588D01*
X109357177Y-116591355D01*
X109506156Y-116341252D01*
X109603480Y-116066891D01*
X109482813Y-115837000D01*
X108288999Y-115837000D01*
X108034999Y-115837000D01*
X105748999Y-115837000D01*
X105494999Y-115837000D01*
X104295749Y-115837000D01*
X104136999Y-115995750D01*
X104133927Y-116560000D01*
X101854108Y-116560000D01*
X101847268Y-116552412D01*
X101616119Y-116380000D01*
X101847268Y-116207588D01*
X102042177Y-115991355D01*
X102191156Y-115741252D01*
X102288480Y-115466891D01*
X102167813Y-115237000D01*
X100973999Y-115237000D01*
X100719999Y-115237000D01*
X98433999Y-115237000D01*
X98179999Y-115237000D01*
X95893999Y-115237000D01*
X95639999Y-115237000D01*
X94446185Y-115237000D01*
X94325518Y-115466891D01*
X94422842Y-115741252D01*
X94571821Y-115991355D01*
X94748625Y-116187502D01*
X94672819Y-116210498D01*
X94562505Y-116269463D01*
X94465814Y-116348815D01*
X94386462Y-116445506D01*
X94327497Y-116555820D01*
X94291187Y-116675518D01*
X94278927Y-116800000D01*
X93426999Y-116800000D01*
X93426999Y-114753109D01*
X94325518Y-114753109D01*
X94446185Y-114983000D01*
X95639999Y-114983000D01*
X95639999Y-113789845D01*
X95893999Y-113789845D01*
X95893999Y-114983000D01*
X98179999Y-114983000D01*
X98179999Y-113789845D01*
X98433999Y-113789845D01*
X98433999Y-114983000D01*
X100719999Y-114983000D01*
X100719999Y-113789845D01*
X100973999Y-113789845D01*
X100973999Y-114983000D01*
X102167813Y-114983000D01*
X102232374Y-114860000D01*
X104133927Y-114860000D01*
X104136999Y-115424250D01*
X104295749Y-115583000D01*
X105494999Y-115583000D01*
X105494999Y-114383750D01*
X105748999Y-114383750D01*
X105748999Y-115583000D01*
X108034999Y-115583000D01*
X108034999Y-114389845D01*
X108288999Y-114389845D01*
X108288999Y-115583000D01*
X109482813Y-115583000D01*
X109603480Y-115353109D01*
X109506156Y-115078748D01*
X109357177Y-114828645D01*
X109162268Y-114612412D01*
X108928919Y-114438359D01*
X108666098Y-114313175D01*
X108518889Y-114268524D01*
X108288999Y-114389845D01*
X108034999Y-114389845D01*
X107805109Y-114268524D01*
X107657900Y-114313175D01*
X107395079Y-114438359D01*
X107161730Y-114612412D01*
X107085965Y-114696466D01*
X107061501Y-114615820D01*
X107002536Y-114505506D01*
X106923184Y-114408815D01*
X106826493Y-114329463D01*
X106716179Y-114270498D01*
X106596481Y-114234188D01*
X106471999Y-114221928D01*
X105907749Y-114225000D01*
X105748999Y-114383750D01*
X105494999Y-114383750D01*
X105336249Y-114225000D01*
X104771999Y-114221928D01*
X104647517Y-114234188D01*
X104527819Y-114270498D01*
X104417505Y-114329463D01*
X104320814Y-114408815D01*
X104241462Y-114505506D01*
X104182497Y-114615820D01*
X104146187Y-114735518D01*
X104133927Y-114860000D01*
X102232374Y-114860000D01*
X102288480Y-114753109D01*
X102191156Y-114478748D01*
X102042177Y-114228645D01*
X101847268Y-114012412D01*
X101613919Y-113838359D01*
X101351098Y-113713175D01*
X101203889Y-113668524D01*
X100973999Y-113789845D01*
X100719999Y-113789845D01*
X100490109Y-113668524D01*
X100342900Y-113713175D01*
X100080079Y-113838359D01*
X99846730Y-114012412D01*
X99651821Y-114228645D01*
X99576999Y-114354255D01*
X99502177Y-114228645D01*
X99307268Y-114012412D01*
X99073919Y-113838359D01*
X98811098Y-113713175D01*
X98663889Y-113668524D01*
X98433999Y-113789845D01*
X98179999Y-113789845D01*
X97950109Y-113668524D01*
X97802900Y-113713175D01*
X97540079Y-113838359D01*
X97306730Y-114012412D01*
X97111821Y-114228645D01*
X97036999Y-114354255D01*
X96962177Y-114228645D01*
X96767268Y-114012412D01*
X96533919Y-113838359D01*
X96271098Y-113713175D01*
X96123889Y-113668524D01*
X95893999Y-113789845D01*
X95639999Y-113789845D01*
X95410109Y-113668524D01*
X95262900Y-113713175D01*
X95000079Y-113838359D01*
X94766730Y-114012412D01*
X94571821Y-114228645D01*
X94422842Y-114478748D01*
X94325518Y-114753109D01*
X93426999Y-114753109D01*
X93426999Y-113310000D01*
X114107000Y-113310000D01*
X114106999Y-145617581D01*
M02*
