G04 #@! TF.GenerationSoftware,KiCad,Pcbnew,5.1.5+dfsg1-2build2*
G04 #@! TF.CreationDate,2021-11-26T13:05:08+03:00*
G04 #@! TF.ProjectId,Mezonin,4d657a6f-6e69-46e2-9e6b-696361645f70,rev?*
G04 #@! TF.SameCoordinates,Original*
G04 #@! TF.FileFunction,Paste,Top*
G04 #@! TF.FilePolarity,Positive*
%FSLAX46Y46*%
G04 Gerber Fmt 4.6, Leading zero omitted, Abs format (unit mm)*
G04 Created by KiCad (PCBNEW 5.1.5+dfsg1-2build2) date 2021-11-26 13:05:08*
%MOMM*%
%LPD*%
G04 APERTURE LIST*
%ADD10R,10.160000X1.524000*%
%ADD11C,0.100000*%
G04 APERTURE END LIST*
D10*
X105621999Y-127140000D03*
X139911999Y-122060000D03*
X139911999Y-127140000D03*
X105621999Y-134760000D03*
X139911999Y-124600000D03*
X139911999Y-137300000D03*
X105621999Y-124600000D03*
X139911999Y-132220000D03*
X105621999Y-129680000D03*
X105621999Y-137300000D03*
X105621999Y-132220000D03*
X105621999Y-122060000D03*
X139911999Y-134760000D03*
X139911999Y-129680000D03*
D11*
G36*
X98016503Y-141233704D02*
G01*
X98040772Y-141237304D01*
X98064570Y-141243265D01*
X98087670Y-141251530D01*
X98109848Y-141262020D01*
X98130892Y-141274633D01*
X98150597Y-141289247D01*
X98168776Y-141305723D01*
X98185252Y-141323902D01*
X98199866Y-141343607D01*
X98212479Y-141364651D01*
X98222969Y-141386829D01*
X98231234Y-141409929D01*
X98237195Y-141433727D01*
X98240795Y-141457996D01*
X98241999Y-141482500D01*
X98241999Y-142407500D01*
X98240795Y-142432004D01*
X98237195Y-142456273D01*
X98231234Y-142480071D01*
X98222969Y-142503171D01*
X98212479Y-142525349D01*
X98199866Y-142546393D01*
X98185252Y-142566098D01*
X98168776Y-142584277D01*
X98150597Y-142600753D01*
X98130892Y-142615367D01*
X98109848Y-142627980D01*
X98087670Y-142638470D01*
X98064570Y-142646735D01*
X98040772Y-142652696D01*
X98016503Y-142656296D01*
X97991999Y-142657500D01*
X96741999Y-142657500D01*
X96717495Y-142656296D01*
X96693226Y-142652696D01*
X96669428Y-142646735D01*
X96646328Y-142638470D01*
X96624150Y-142627980D01*
X96603106Y-142615367D01*
X96583401Y-142600753D01*
X96565222Y-142584277D01*
X96548746Y-142566098D01*
X96534132Y-142546393D01*
X96521519Y-142525349D01*
X96511029Y-142503171D01*
X96502764Y-142480071D01*
X96496803Y-142456273D01*
X96493203Y-142432004D01*
X96491999Y-142407500D01*
X96491999Y-141482500D01*
X96493203Y-141457996D01*
X96496803Y-141433727D01*
X96502764Y-141409929D01*
X96511029Y-141386829D01*
X96521519Y-141364651D01*
X96534132Y-141343607D01*
X96548746Y-141323902D01*
X96565222Y-141305723D01*
X96583401Y-141289247D01*
X96603106Y-141274633D01*
X96624150Y-141262020D01*
X96646328Y-141251530D01*
X96669428Y-141243265D01*
X96693226Y-141237304D01*
X96717495Y-141233704D01*
X96741999Y-141232500D01*
X97991999Y-141232500D01*
X98016503Y-141233704D01*
G37*
G36*
X98016503Y-144208704D02*
G01*
X98040772Y-144212304D01*
X98064570Y-144218265D01*
X98087670Y-144226530D01*
X98109848Y-144237020D01*
X98130892Y-144249633D01*
X98150597Y-144264247D01*
X98168776Y-144280723D01*
X98185252Y-144298902D01*
X98199866Y-144318607D01*
X98212479Y-144339651D01*
X98222969Y-144361829D01*
X98231234Y-144384929D01*
X98237195Y-144408727D01*
X98240795Y-144432996D01*
X98241999Y-144457500D01*
X98241999Y-145382500D01*
X98240795Y-145407004D01*
X98237195Y-145431273D01*
X98231234Y-145455071D01*
X98222969Y-145478171D01*
X98212479Y-145500349D01*
X98199866Y-145521393D01*
X98185252Y-145541098D01*
X98168776Y-145559277D01*
X98150597Y-145575753D01*
X98130892Y-145590367D01*
X98109848Y-145602980D01*
X98087670Y-145613470D01*
X98064570Y-145621735D01*
X98040772Y-145627696D01*
X98016503Y-145631296D01*
X97991999Y-145632500D01*
X96741999Y-145632500D01*
X96717495Y-145631296D01*
X96693226Y-145627696D01*
X96669428Y-145621735D01*
X96646328Y-145613470D01*
X96624150Y-145602980D01*
X96603106Y-145590367D01*
X96583401Y-145575753D01*
X96565222Y-145559277D01*
X96548746Y-145541098D01*
X96534132Y-145521393D01*
X96521519Y-145500349D01*
X96511029Y-145478171D01*
X96502764Y-145455071D01*
X96496803Y-145431273D01*
X96493203Y-145407004D01*
X96491999Y-145382500D01*
X96491999Y-144457500D01*
X96493203Y-144432996D01*
X96496803Y-144408727D01*
X96502764Y-144384929D01*
X96511029Y-144361829D01*
X96521519Y-144339651D01*
X96534132Y-144318607D01*
X96548746Y-144298902D01*
X96565222Y-144280723D01*
X96583401Y-144264247D01*
X96603106Y-144249633D01*
X96624150Y-144237020D01*
X96646328Y-144226530D01*
X96669428Y-144218265D01*
X96693226Y-144212304D01*
X96717495Y-144208704D01*
X96741999Y-144207500D01*
X97991999Y-144207500D01*
X98016503Y-144208704D01*
G37*
G36*
X106906503Y-144208704D02*
G01*
X106930772Y-144212304D01*
X106954570Y-144218265D01*
X106977670Y-144226530D01*
X106999848Y-144237020D01*
X107020892Y-144249633D01*
X107040597Y-144264247D01*
X107058776Y-144280723D01*
X107075252Y-144298902D01*
X107089866Y-144318607D01*
X107102479Y-144339651D01*
X107112969Y-144361829D01*
X107121234Y-144384929D01*
X107127195Y-144408727D01*
X107130795Y-144432996D01*
X107131999Y-144457500D01*
X107131999Y-145382500D01*
X107130795Y-145407004D01*
X107127195Y-145431273D01*
X107121234Y-145455071D01*
X107112969Y-145478171D01*
X107102479Y-145500349D01*
X107089866Y-145521393D01*
X107075252Y-145541098D01*
X107058776Y-145559277D01*
X107040597Y-145575753D01*
X107020892Y-145590367D01*
X106999848Y-145602980D01*
X106977670Y-145613470D01*
X106954570Y-145621735D01*
X106930772Y-145627696D01*
X106906503Y-145631296D01*
X106881999Y-145632500D01*
X105631999Y-145632500D01*
X105607495Y-145631296D01*
X105583226Y-145627696D01*
X105559428Y-145621735D01*
X105536328Y-145613470D01*
X105514150Y-145602980D01*
X105493106Y-145590367D01*
X105473401Y-145575753D01*
X105455222Y-145559277D01*
X105438746Y-145541098D01*
X105424132Y-145521393D01*
X105411519Y-145500349D01*
X105401029Y-145478171D01*
X105392764Y-145455071D01*
X105386803Y-145431273D01*
X105383203Y-145407004D01*
X105381999Y-145382500D01*
X105381999Y-144457500D01*
X105383203Y-144432996D01*
X105386803Y-144408727D01*
X105392764Y-144384929D01*
X105401029Y-144361829D01*
X105411519Y-144339651D01*
X105424132Y-144318607D01*
X105438746Y-144298902D01*
X105455222Y-144280723D01*
X105473401Y-144264247D01*
X105493106Y-144249633D01*
X105514150Y-144237020D01*
X105536328Y-144226530D01*
X105559428Y-144218265D01*
X105583226Y-144212304D01*
X105607495Y-144208704D01*
X105631999Y-144207500D01*
X106881999Y-144207500D01*
X106906503Y-144208704D01*
G37*
G36*
X106906503Y-141233704D02*
G01*
X106930772Y-141237304D01*
X106954570Y-141243265D01*
X106977670Y-141251530D01*
X106999848Y-141262020D01*
X107020892Y-141274633D01*
X107040597Y-141289247D01*
X107058776Y-141305723D01*
X107075252Y-141323902D01*
X107089866Y-141343607D01*
X107102479Y-141364651D01*
X107112969Y-141386829D01*
X107121234Y-141409929D01*
X107127195Y-141433727D01*
X107130795Y-141457996D01*
X107131999Y-141482500D01*
X107131999Y-142407500D01*
X107130795Y-142432004D01*
X107127195Y-142456273D01*
X107121234Y-142480071D01*
X107112969Y-142503171D01*
X107102479Y-142525349D01*
X107089866Y-142546393D01*
X107075252Y-142566098D01*
X107058776Y-142584277D01*
X107040597Y-142600753D01*
X107020892Y-142615367D01*
X106999848Y-142627980D01*
X106977670Y-142638470D01*
X106954570Y-142646735D01*
X106930772Y-142652696D01*
X106906503Y-142656296D01*
X106881999Y-142657500D01*
X105631999Y-142657500D01*
X105607495Y-142656296D01*
X105583226Y-142652696D01*
X105559428Y-142646735D01*
X105536328Y-142638470D01*
X105514150Y-142627980D01*
X105493106Y-142615367D01*
X105473401Y-142600753D01*
X105455222Y-142584277D01*
X105438746Y-142566098D01*
X105424132Y-142546393D01*
X105411519Y-142525349D01*
X105401029Y-142503171D01*
X105392764Y-142480071D01*
X105386803Y-142456273D01*
X105383203Y-142432004D01*
X105381999Y-142407500D01*
X105381999Y-141482500D01*
X105383203Y-141457996D01*
X105386803Y-141433727D01*
X105392764Y-141409929D01*
X105401029Y-141386829D01*
X105411519Y-141364651D01*
X105424132Y-141343607D01*
X105438746Y-141323902D01*
X105455222Y-141305723D01*
X105473401Y-141289247D01*
X105493106Y-141274633D01*
X105514150Y-141262020D01*
X105536328Y-141251530D01*
X105559428Y-141243265D01*
X105583226Y-141237304D01*
X105607495Y-141233704D01*
X105631999Y-141232500D01*
X106881999Y-141232500D01*
X106906503Y-141233704D01*
G37*
M02*
