M48
INCH,TZ
T1C0.0157
T2C0.0394
%
G90
G05
T1
X38333Y-57805
X40583Y-48055
X40583Y-49055
X40583Y-50055
X40583Y-51055
X40583Y-52055
X40583Y-53055
X40583Y-54055
X41833Y-57805
X42583Y-48055
X42583Y-49055
X42583Y-50055
X42583Y-51055
X42583Y-52055
X42583Y-53055
X42583Y-54055
X54083Y-48055
X54083Y-49055
X54083Y-50055
X54083Y-51055
X54083Y-52055
X54083Y-53055
X54083Y-54055
X56083Y-48055
X56083Y-49055
X56083Y-50055
X56083Y-51055
X56083Y-52055
X56083Y-53055
X56083Y-54055
T2
X37583Y-59055
X37583Y-60055
X37704Y-45319
X37704Y-46319
X38704Y-45319
X38704Y-46319
X39704Y-45319
X39704Y-46319
X40083Y-56055
X40083Y-57055
X41583Y-45555
X42583Y-45555
X57083Y-56055
X57083Y-57055
X53533Y-59805
X54533Y-59805
X47349Y-58705
X47349Y-59705
X48349Y-58705
X48349Y-59705
X49349Y-58705
X49349Y-59705
X55026Y-45319
X55026Y-46319
X56026Y-45319
X56026Y-46319
X57026Y-45319
X57026Y-46319
X43583Y-56055
X43583Y-57055
T0
M30
