G04*
G04 #@! TF.GenerationSoftware,Altium Limited,Altium Designer,18.0.9 (584)*
G04*
G04 Layer_Color=65535*
%FSLAX43Y43*%
%MOMM*%
G71*
G01*
G75*
%ADD10C,0.254*%
D10*
X35000Y0D02*
G03*
X35000Y0I-15000J0D01*
G01*
X12250Y-10500D02*
G03*
X12250Y-10500I-3000J0D01*
G01*
X23000Y-15000D02*
G03*
X23000Y-15000I-3000J0D01*
G01*
X33750Y-10500D02*
G03*
X33750Y-10500I-3000J0D01*
G01*
X8000Y0D02*
G03*
X8000Y0I-3000J0D01*
G01*
X12250Y10500D02*
G03*
X12250Y10500I-3000J0D01*
G01*
X23000Y15000D02*
G03*
X23000Y15000I-3000J0D01*
G01*
X33750Y10500D02*
G03*
X33750Y10500I-3000J0D01*
G01*
X38000Y0D02*
G03*
X38000Y0I-3000J0D01*
G01*
X13326Y1524D02*
X12310D01*
Y762D01*
X12818D01*
X12310D01*
Y0D01*
X13834D02*
X14342D01*
X14088D01*
Y1016D01*
X13834D01*
X15103Y1524D02*
Y0D01*
X15865D01*
X16119Y254D01*
Y508D01*
Y762D01*
X15865Y1016D01*
X15103D01*
X17389Y0D02*
X16881D01*
X16627Y254D01*
Y762D01*
X16881Y1016D01*
X17389D01*
X17643Y762D01*
Y508D01*
X16627D01*
X18150Y1016D02*
Y0D01*
Y508D01*
X18404Y762D01*
X18658Y1016D01*
X18912D01*
X22213Y1270D02*
X21959Y1524D01*
X21451D01*
X21197Y1270D01*
Y1016D01*
X21451Y762D01*
X21959D01*
X22213Y508D01*
Y254D01*
X21959Y0D01*
X21451D01*
X21197Y254D01*
X22721Y-508D02*
Y1016D01*
X23483D01*
X23737Y762D01*
Y254D01*
X23483Y0D01*
X22721D01*
X24498D02*
X25006D01*
X25260Y254D01*
Y762D01*
X25006Y1016D01*
X24498D01*
X24244Y762D01*
Y254D01*
X24498Y0D01*
X26022D02*
X26530D01*
X26784Y254D01*
Y762D01*
X26530Y1016D01*
X26022D01*
X25768Y762D01*
Y254D01*
X26022Y0D01*
X27292D02*
X27799D01*
X27545D01*
Y1524D01*
X27292D01*
X18000Y-7500D02*
Y-6484D01*
X18508Y-5977D01*
X19016Y-6484D01*
Y-7500D01*
Y-6738D01*
X18000D01*
X19524Y-7500D02*
Y-6484D01*
X20031Y-5977D01*
X20539Y-6484D01*
Y-7500D01*
Y-6738D01*
X19524D01*
X21047Y-5977D02*
Y-7500D01*
X21809D01*
X22063Y-7246D01*
Y-6992D01*
X21809Y-6738D01*
X21047D01*
X21809D01*
X22063Y-6484D01*
Y-6230D01*
X21809Y-5977D01*
X21047D01*
X16500Y-5000D02*
Y-3477D01*
X17516Y-5000D01*
Y-3477D01*
X18024D02*
X19039D01*
X18531D01*
Y-5000D01*
X19547Y-3477D02*
Y-5000D01*
Y-4492D01*
X20563Y-3477D01*
X19801Y-4238D01*
X20563Y-5000D01*
X21071Y-4238D02*
X22086D01*
X23356Y-5000D02*
Y-3477D01*
X22594Y-4238D01*
X23610D01*
M02*
