G04*
G04 #@! TF.GenerationSoftware,Altium Limited,Altium Designer,18.0.9 (584)*
G04*
G04 Layer_Color=65535*
%FSLAX43Y43*%
%MOMM*%
G71*
G01*
G75*
%ADD10C,0.500*%
%ADD11C,0.200*%
%ADD12C,0.254*%
D10*
X21200Y51250D02*
G03*
X21200Y51250I-200J0D01*
G01*
X1950Y51225D02*
G03*
X1950Y51225I-200J0D01*
G01*
D11*
X64250Y54690D02*
X66790D01*
X64250D02*
Y59770D01*
X66790D01*
Y54690D02*
Y59770D01*
X3250Y54690D02*
X5790D01*
X3250D02*
Y59770D01*
X5790D01*
Y54690D02*
Y59770D01*
X68060Y11500D02*
Y14040D01*
X62980Y11500D02*
X68060D01*
X62980D02*
Y14040D01*
X68060D01*
X7060Y11500D02*
Y14040D01*
X1980Y11500D02*
X7060D01*
X1980D02*
Y14040D01*
X7060D01*
X64250Y18840D02*
Y52495D01*
Y16935D02*
Y18840D01*
Y16935D02*
X66790D01*
Y52495D01*
X64250D02*
X66790D01*
X5790Y16935D02*
Y50590D01*
Y52495D01*
X3250D02*
X5790D01*
X3250Y16935D02*
Y52495D01*
Y16935D02*
X5790D01*
D12*
X47700Y3250D02*
Y66750D01*
X22300Y3250D02*
Y66750D01*
Y3250D02*
X47700D01*
X22300Y66750D02*
X47700D01*
X54454Y68658D02*
X54962D01*
X55216Y68405D01*
Y67643D01*
X54454D01*
X54200Y67897D01*
X54454Y68151D01*
X55216D01*
X55977Y68658D02*
X56485D01*
X56739Y68405D01*
Y67643D01*
X55977D01*
X55724Y67897D01*
X55977Y68151D01*
X56739D01*
X57247Y69166D02*
Y67643D01*
X58009D01*
X58263Y67897D01*
Y68151D01*
Y68405D01*
X58009Y68658D01*
X57247D01*
X59024D02*
X59532D01*
X59786Y68405D01*
Y67643D01*
X59024D01*
X58771Y67897D01*
X59024Y68151D01*
X59786D01*
X60294Y67643D02*
X60802D01*
X60548D01*
Y69166D01*
X60294D01*
X54200Y65205D02*
Y66728D01*
X55216Y65205D01*
Y66728D01*
X55724D02*
X56739D01*
X56231D01*
Y65205D01*
X57247Y66728D02*
Y65205D01*
Y65713D01*
X58263Y66728D01*
X57501Y65967D01*
X58263Y65205D01*
X58771Y65967D02*
X59786D01*
X61056Y65205D02*
Y66728D01*
X60294Y65967D01*
X61310D01*
X60926Y47923D02*
Y49447D01*
X61688D01*
X61942Y49193D01*
Y48685D01*
X61688Y48431D01*
X60926D01*
X61434D02*
X61942Y47923D01*
X63465Y49193D02*
X63212Y49447D01*
X62704D01*
X62450Y49193D01*
Y48939D01*
X62704Y48685D01*
X63212D01*
X63465Y48431D01*
Y48177D01*
X63212Y47923D01*
X62704D01*
X62450Y48177D01*
X58895Y51733D02*
X58641Y51987D01*
X58133D01*
X57879Y51733D01*
Y50717D01*
X58133Y50463D01*
X58641D01*
X58895Y50717D01*
X59657Y51479D02*
X60165D01*
X60418Y51225D01*
Y50463D01*
X59657D01*
X59403Y50717D01*
X59657Y50971D01*
X60418D01*
X60926Y50463D02*
X61688D01*
X61942Y50717D01*
X61688Y50971D01*
X61180D01*
X60926Y51225D01*
X61180Y51479D01*
X61942D01*
X63212Y50463D02*
X62704D01*
X62450Y50717D01*
Y51225D01*
X62704Y51479D01*
X63212D01*
X63465Y51225D01*
Y50971D01*
X62450D01*
X57879Y46907D02*
X58895D01*
X58387D01*
Y45383D01*
X60418Y46907D02*
X59403D01*
Y45383D01*
X60418D01*
X59403Y46145D02*
X59911D01*
X61942Y46653D02*
X61688Y46907D01*
X61180D01*
X60926Y46653D01*
Y45637D01*
X61180Y45383D01*
X61688D01*
X61942Y45637D01*
X62450Y46145D02*
X63465D01*
X57371Y44113D02*
X57118Y44367D01*
X56610D01*
X56356Y44113D01*
Y43097D01*
X56610Y42843D01*
X57118D01*
X57371Y43097D01*
X57879Y42843D02*
Y43859D01*
X58133D01*
X58387Y43605D01*
Y42843D01*
Y43605D01*
X58641Y43859D01*
X58895Y43605D01*
Y42843D01*
X59403D02*
Y43859D01*
X59911Y44367D01*
X60418Y43859D01*
Y42843D01*
Y43605D01*
X59403D01*
X60926Y44367D02*
Y42843D01*
X61688D01*
X61942Y43097D01*
Y44113D01*
X61688Y44367D01*
X60926D01*
X63465Y42843D02*
X62450D01*
X63465Y43859D01*
Y44113D01*
X63212Y44367D01*
X62704D01*
X62450Y44113D01*
X57371Y41573D02*
X57118Y41827D01*
X56610D01*
X56356Y41573D01*
Y40557D01*
X56610Y40303D01*
X57118D01*
X57371Y40557D01*
X57879Y40303D02*
Y41319D01*
X58133D01*
X58387Y41065D01*
Y40303D01*
Y41065D01*
X58641Y41319D01*
X58895Y41065D01*
Y40303D01*
X59403D02*
Y41319D01*
X59911Y41827D01*
X60418Y41319D01*
Y40303D01*
Y41065D01*
X59403D01*
X60926Y41827D02*
Y40303D01*
X61688D01*
X61942Y40557D01*
Y41573D01*
X61688Y41827D01*
X60926D01*
X62450Y41573D02*
X62704Y41827D01*
X63212D01*
X63465Y41573D01*
Y41319D01*
X63212Y41065D01*
X62958D01*
X63212D01*
X63465Y40811D01*
Y40557D01*
X63212Y40303D01*
X62704D01*
X62450Y40557D01*
X57879Y39033D02*
X57625Y39287D01*
X57118D01*
X56864Y39033D01*
Y38017D01*
X57118Y37763D01*
X57625D01*
X57879Y38017D01*
X59403Y39033D02*
X59149Y39287D01*
X58641D01*
X58387Y39033D01*
Y38779D01*
X58641Y38525D01*
X59149D01*
X59403Y38271D01*
Y38017D01*
X59149Y37763D01*
X58641D01*
X58387Y38017D01*
X59911Y39287D02*
Y37763D01*
X60672D01*
X60926Y38017D01*
Y38271D01*
X60672Y38525D01*
X59911D01*
X60672D01*
X60926Y38779D01*
Y39033D01*
X60672Y39287D01*
X59911D01*
X61688Y37763D02*
X62196D01*
X62450Y38017D01*
Y38525D01*
X62196Y38779D01*
X61688D01*
X61434Y38525D01*
Y38017D01*
X61688Y37763D01*
X63212Y39033D02*
Y38779D01*
X62958D01*
X63465D01*
X63212D01*
Y38017D01*
X63465Y37763D01*
X57879Y35223D02*
Y36747D01*
X58387Y36239D01*
X58895Y36747D01*
Y35223D01*
X60418Y36493D02*
X60165Y36747D01*
X59657D01*
X59403Y36493D01*
Y35477D01*
X59657Y35223D01*
X60165D01*
X60418Y35477D01*
X60926Y36747D02*
Y35223D01*
X61942D01*
X62450Y36747D02*
Y35223D01*
Y35731D01*
X63465Y36747D01*
X62704Y35985D01*
X63465Y35223D01*
X57879Y34207D02*
Y33191D01*
X58387Y32683D01*
X58895Y33191D01*
Y34207D01*
X60418Y33953D02*
X60165Y34207D01*
X59657D01*
X59403Y33953D01*
Y33699D01*
X59657Y33445D01*
X60165D01*
X60418Y33191D01*
Y32937D01*
X60165Y32683D01*
X59657D01*
X59403Y32937D01*
X61942Y33953D02*
X61688Y34207D01*
X61180D01*
X60926Y33953D01*
Y33699D01*
X61180Y33445D01*
X61688D01*
X61942Y33191D01*
Y32937D01*
X61688Y32683D01*
X61180D01*
X60926Y32937D01*
X62450Y34207D02*
Y32683D01*
X63212D01*
X63465Y32937D01*
Y33953D01*
X63212Y34207D01*
X62450D01*
X57879Y31667D02*
Y30651D01*
X58387Y30143D01*
X58895Y30651D01*
Y31667D01*
X59403D02*
Y30143D01*
X60165D01*
X60418Y30397D01*
Y31413D01*
X60165Y31667D01*
X59403D01*
X60926D02*
Y30143D01*
X61688D01*
X61942Y30397D01*
Y31413D01*
X61688Y31667D01*
X60926D01*
X62450D02*
Y30143D01*
X63212D01*
X63465Y30397D01*
Y31413D01*
X63212Y31667D01*
X62450D01*
X49500Y29127D02*
Y27603D01*
X50262D01*
X50516Y27857D01*
Y28111D01*
X50262Y28365D01*
X49500D01*
X50262D01*
X50516Y28619D01*
Y28873D01*
X50262Y29127D01*
X49500D01*
X51024Y27603D02*
X51531D01*
X51277D01*
Y29127D01*
X51024D01*
X52547Y28619D02*
X53055D01*
X53309Y28365D01*
Y27603D01*
X52547D01*
X52293Y27857D01*
X52547Y28111D01*
X53309D01*
X54832Y28619D02*
X54071D01*
X53817Y28365D01*
Y27857D01*
X54071Y27603D01*
X54832D01*
X55340D02*
Y29127D01*
Y28111D02*
X56102Y28619D01*
X55340Y28111D02*
X56102Y27603D01*
X56864Y29127D02*
Y27603D01*
X57879D01*
X59149D02*
X58641D01*
X58387Y27857D01*
Y28365D01*
X58641Y28619D01*
X59149D01*
X59403Y28365D01*
Y28111D01*
X58387D01*
X59911Y28619D02*
X60418Y27603D01*
X60926Y28619D01*
X62196Y27603D02*
X61688D01*
X61434Y27857D01*
Y28365D01*
X61688Y28619D01*
X62196D01*
X62450Y28365D01*
Y28111D01*
X61434D01*
X62958Y27603D02*
X63465D01*
X63212D01*
Y29127D01*
X62958D01*
X54071Y26587D02*
Y25571D01*
X54578Y25063D01*
X55086Y25571D01*
Y26587D01*
X56610Y26079D02*
X55848D01*
X55594Y25825D01*
Y25317D01*
X55848Y25063D01*
X56610D01*
X57118D02*
X57625D01*
X57371D01*
Y26587D01*
X57118D01*
X58387Y25063D02*
Y26079D01*
X59149D01*
X59403Y25825D01*
Y25063D01*
X59911D02*
Y26587D01*
X60672D01*
X60926Y26333D01*
Y25825D01*
X60672Y25571D01*
X59911D01*
X60418D02*
X60926Y25063D01*
X62196D02*
X61688D01*
X61434Y25317D01*
Y25825D01*
X61688Y26079D01*
X62196D01*
X62450Y25825D01*
Y25571D01*
X61434D01*
X63212Y25063D02*
Y26333D01*
Y25825D01*
X62958D01*
X63465D01*
X63212D01*
Y26333D01*
X63465Y26587D01*
X53055Y24280D02*
X52547D01*
X52293Y24026D01*
Y23010D01*
X52547Y22756D01*
X53055D01*
X53309Y23010D01*
Y24026D01*
X53055Y24280D01*
X53817Y23772D02*
Y23010D01*
X54071Y22756D01*
X54832D01*
Y23772D01*
X55594Y24026D02*
Y23772D01*
X55340D01*
X55848D01*
X55594D01*
Y23010D01*
X55848Y22756D01*
X56610Y24280D02*
Y22756D01*
X57371D01*
X57625Y23010D01*
Y23264D01*
X57371Y23518D01*
X56610D01*
X57371D01*
X57625Y23772D01*
Y24026D01*
X57371Y24280D01*
X56610D01*
X58387Y22756D02*
X58895D01*
X59149Y23010D01*
Y23518D01*
X58895Y23772D01*
X58387D01*
X58133Y23518D01*
Y23010D01*
X58387Y22756D01*
X59911Y24026D02*
Y23772D01*
X59657D01*
X60165D01*
X59911D01*
Y23010D01*
X60165Y22756D01*
X60926Y22502D02*
X61942D01*
X62450Y22248D02*
Y23772D01*
X63212D01*
X63465Y23518D01*
Y23010D01*
X63212Y22756D01*
X62450D01*
X53055Y21636D02*
X52547D01*
X52293Y21382D01*
Y20366D01*
X52547Y20112D01*
X53055D01*
X53309Y20366D01*
Y21382D01*
X53055Y21636D01*
X53817Y21128D02*
Y20366D01*
X54071Y20112D01*
X54832D01*
Y21128D01*
X55594Y21382D02*
Y21128D01*
X55340D01*
X55848D01*
X55594D01*
Y20366D01*
X55848Y20112D01*
X56610Y21636D02*
Y20112D01*
X57371D01*
X57625Y20366D01*
Y20620D01*
X57371Y20874D01*
X56610D01*
X57371D01*
X57625Y21128D01*
Y21382D01*
X57371Y21636D01*
X56610D01*
X58387Y20112D02*
X58895D01*
X59149Y20366D01*
Y20874D01*
X58895Y21128D01*
X58387D01*
X58133Y20874D01*
Y20366D01*
X58387Y20112D01*
X59911Y21382D02*
Y21128D01*
X59657D01*
X60165D01*
X59911D01*
Y20366D01*
X60165Y20112D01*
X60926Y19858D02*
X61942D01*
X62450Y20112D02*
Y21128D01*
X63212D01*
X63465Y20874D01*
Y20112D01*
X59403Y18967D02*
Y17951D01*
X59911Y17443D01*
X60418Y17951D01*
Y18967D01*
X61942Y18713D02*
X61688Y18967D01*
X61180D01*
X60926Y18713D01*
Y17697D01*
X61180Y17443D01*
X61688D01*
X61942Y17697D01*
X62450Y17443D02*
Y18967D01*
X62958Y18459D01*
X63465Y18967D01*
Y17443D01*
X7000Y18967D02*
X7508D01*
X7254D01*
Y17443D01*
X7000D01*
X7508D01*
X8270D02*
Y18459D01*
X9031D01*
X9285Y18205D01*
Y17443D01*
X10809Y18713D02*
X10555Y18967D01*
X10047D01*
X9793Y18713D01*
Y17697D01*
X10047Y17443D01*
X10555D01*
X10809Y17697D01*
Y18205D01*
X10301D01*
X11571Y18459D02*
X12078D01*
X12332Y18205D01*
Y17443D01*
X11571D01*
X11317Y17697D01*
X11571Y17951D01*
X12332D01*
X12840Y17443D02*
Y18459D01*
X13348Y18967D01*
X13856Y18459D01*
Y17443D01*
Y18205D01*
X12840D01*
X14364Y17443D02*
X15125D01*
X15379Y17697D01*
X15125Y17951D01*
X14618D01*
X14364Y18205D01*
X14618Y18459D01*
X15379D01*
X15887Y17443D02*
Y18967D01*
X16649D01*
X16903Y18713D01*
Y18205D01*
X16649Y17951D01*
X15887D01*
X17411Y18459D02*
Y17443D01*
Y17951D01*
X17665Y18205D01*
X17918Y18459D01*
X18172D01*
X19696Y17443D02*
X19188D01*
X18934Y17697D01*
Y18205D01*
X19188Y18459D01*
X19696D01*
X19950Y18205D01*
Y17951D01*
X18934D01*
X20712Y17443D02*
Y18713D01*
Y18205D01*
X20458D01*
X20965D01*
X20712D01*
Y18713D01*
X20965Y18967D01*
X7762Y21515D02*
X7254D01*
X7000Y21261D01*
Y20245D01*
X7254Y19991D01*
X7762D01*
X8016Y20245D01*
Y21261D01*
X7762Y21515D01*
X8524Y21007D02*
Y20245D01*
X8777Y19991D01*
X9539D01*
Y21007D01*
X10301Y21261D02*
Y21007D01*
X10047D01*
X10555D01*
X10301D01*
Y20245D01*
X10555Y19991D01*
X11317Y21515D02*
X12332D01*
X11824D01*
Y19991D01*
X13094D02*
X13602D01*
X13856Y20245D01*
Y20753D01*
X13602Y21007D01*
X13094D01*
X12840Y20753D01*
Y20245D01*
X13094Y19991D01*
X14364Y19483D02*
Y21007D01*
X15125D01*
X15379Y20753D01*
Y20245D01*
X15125Y19991D01*
X14364D01*
X15887Y19737D02*
X16903D01*
X17411Y19483D02*
Y21007D01*
X18172D01*
X18426Y20753D01*
Y20245D01*
X18172Y19991D01*
X17411D01*
X7762Y24080D02*
X7254D01*
X7000Y23826D01*
Y22810D01*
X7254Y22556D01*
X7762D01*
X8016Y22810D01*
Y23826D01*
X7762Y24080D01*
X8524Y23572D02*
Y22810D01*
X8777Y22556D01*
X9539D01*
Y23572D01*
X10301Y23826D02*
Y23572D01*
X10047D01*
X10555D01*
X10301D01*
Y22810D01*
X10555Y22556D01*
X11317Y24080D02*
X12332D01*
X11824D01*
Y22556D01*
X13094D02*
X13602D01*
X13856Y22810D01*
Y23318D01*
X13602Y23572D01*
X13094D01*
X12840Y23318D01*
Y22810D01*
X13094Y22556D01*
X14364Y22048D02*
Y23572D01*
X15125D01*
X15379Y23318D01*
Y22810D01*
X15125Y22556D01*
X14364D01*
X15887Y22302D02*
X16903D01*
X17411Y22556D02*
Y23572D01*
X18172D01*
X18426Y23318D01*
Y22556D01*
X8016Y26333D02*
X7762Y26587D01*
X7254D01*
X7000Y26333D01*
Y25317D01*
X7254Y25063D01*
X7762D01*
X8016Y25317D01*
Y25825D01*
X7508D01*
X8524Y26079D02*
Y25317D01*
X8777Y25063D01*
X9539D01*
Y26079D01*
X10301D02*
X10809D01*
X11063Y25825D01*
Y25063D01*
X10301D01*
X10047Y25317D01*
X10301Y25571D01*
X11063D01*
X11571Y26079D02*
Y25063D01*
Y25571D01*
X11824Y25825D01*
X12078Y26079D01*
X12332D01*
X14110Y26587D02*
Y25063D01*
X13348D01*
X13094Y25317D01*
Y25825D01*
X13348Y26079D01*
X14110D01*
X8016Y28902D02*
X7762Y29156D01*
X7254D01*
X7000Y28902D01*
Y27886D01*
X7254Y27632D01*
X7762D01*
X8016Y27886D01*
X8524Y29156D02*
Y27632D01*
X9285D01*
X9539Y27886D01*
Y28902D01*
X9285Y29156D01*
X8524D01*
X10047Y27632D02*
Y29156D01*
X10809D01*
X11063Y28902D01*
Y28394D01*
X10809Y28140D01*
X10047D01*
X10555D02*
X11063Y27632D01*
X11571Y27378D02*
X12586D01*
X13094Y27632D02*
Y29156D01*
X13856D01*
X14110Y28902D01*
Y28394D01*
X13856Y28140D01*
X13094D01*
X13602D02*
X14110Y27632D01*
X15379D02*
X14871D01*
X14618Y27886D01*
Y28394D01*
X14871Y28648D01*
X15379D01*
X15633Y28394D01*
Y28140D01*
X14618D01*
X16395Y27632D02*
Y28902D01*
Y28394D01*
X16141D01*
X16649D01*
X16395D01*
Y28902D01*
X16649Y29156D01*
X7000Y31694D02*
X7508D01*
X7254D01*
Y30170D01*
X7000D01*
X7508D01*
X8270D02*
Y31186D01*
X9031D01*
X9285Y30932D01*
Y30170D01*
X10809Y31440D02*
X10555Y31694D01*
X10047D01*
X9793Y31440D01*
Y30424D01*
X10047Y30170D01*
X10555D01*
X10809Y30424D01*
Y30932D01*
X10301D01*
X11571Y31186D02*
X12078D01*
X12332Y30932D01*
Y30170D01*
X11571D01*
X11317Y30424D01*
X11571Y30678D01*
X12332D01*
X12840Y30170D02*
Y31186D01*
X13348Y31694D01*
X13856Y31186D01*
Y30170D01*
Y30932D01*
X12840D01*
X14364Y30170D02*
X15125D01*
X15379Y30424D01*
X15125Y30678D01*
X14618D01*
X14364Y30932D01*
X14618Y31186D01*
X15379D01*
X15887Y29916D02*
X16903D01*
X17411Y30170D02*
Y31694D01*
X18426Y30170D01*
Y31694D01*
X7000Y34207D02*
Y33191D01*
X7508Y32683D01*
X8016Y33191D01*
Y34207D01*
X8524D02*
Y32683D01*
X9285D01*
X9539Y32937D01*
Y33953D01*
X9285Y34207D01*
X8524D01*
X10047D02*
Y32683D01*
X10809D01*
X11063Y32937D01*
Y33953D01*
X10809Y34207D01*
X10047D01*
X11571Y32683D02*
Y33699D01*
X12078Y34207D01*
X12586Y33699D01*
Y32683D01*
Y33445D01*
X11571D01*
X7000Y36747D02*
Y35731D01*
X7508Y35223D01*
X8016Y35731D01*
Y36747D01*
X9539Y36493D02*
X9285Y36747D01*
X8777D01*
X8524Y36493D01*
Y36239D01*
X8777Y35985D01*
X9285D01*
X9539Y35731D01*
Y35477D01*
X9285Y35223D01*
X8777D01*
X8524Y35477D01*
X11063Y36493D02*
X10809Y36747D01*
X10301D01*
X10047Y36493D01*
Y36239D01*
X10301Y35985D01*
X10809D01*
X11063Y35731D01*
Y35477D01*
X10809Y35223D01*
X10301D01*
X10047Y35477D01*
X11571Y35223D02*
Y36239D01*
X12078Y36747D01*
X12586Y36239D01*
Y35223D01*
Y35985D01*
X11571D01*
X8016Y39037D02*
X7762Y39291D01*
X7254D01*
X7000Y39037D01*
Y38021D01*
X7254Y37767D01*
X7762D01*
X8016Y38021D01*
X9539Y39037D02*
X9285Y39291D01*
X8777D01*
X8524Y39037D01*
Y38783D01*
X8777Y38529D01*
X9285D01*
X9539Y38275D01*
Y38021D01*
X9285Y37767D01*
X8777D01*
X8524Y38021D01*
X10047Y39291D02*
X11063D01*
X10555D01*
Y37767D01*
X11824D02*
X12332D01*
X12586Y38021D01*
Y38529D01*
X12332Y38783D01*
X11824D01*
X11571Y38529D01*
Y38021D01*
X11824Y37767D01*
X13094Y37259D02*
Y38783D01*
X13856D01*
X14110Y38529D01*
Y38021D01*
X13856Y37767D01*
X13094D01*
X8016Y41573D02*
X7762Y41827D01*
X7254D01*
X7000Y41573D01*
Y40557D01*
X7254Y40303D01*
X7762D01*
X8016Y40557D01*
X8524Y40303D02*
Y41319D01*
X8777D01*
X9031Y41065D01*
Y40303D01*
Y41065D01*
X9285Y41319D01*
X9539Y41065D01*
Y40303D01*
X10047D02*
Y41319D01*
X10555Y41827D01*
X11063Y41319D01*
Y40303D01*
Y41065D01*
X10047D01*
X11571Y41827D02*
Y40303D01*
X12332D01*
X12586Y40557D01*
Y41573D01*
X12332Y41827D01*
X11571D01*
X13094Y40303D02*
X13602D01*
X13348D01*
Y41827D01*
X13094Y41573D01*
X8016Y44113D02*
X7762Y44367D01*
X7254D01*
X7000Y44113D01*
Y43097D01*
X7254Y42843D01*
X7762D01*
X8016Y43097D01*
X8524Y42843D02*
Y43859D01*
X8777D01*
X9031Y43605D01*
Y42843D01*
Y43605D01*
X9285Y43859D01*
X9539Y43605D01*
Y42843D01*
X10047D02*
Y43859D01*
X10555Y44367D01*
X11063Y43859D01*
Y42843D01*
Y43605D01*
X10047D01*
X11571Y44367D02*
Y42843D01*
X12332D01*
X12586Y43097D01*
Y44113D01*
X12332Y44367D01*
X11571D01*
X13094Y44113D02*
X13348Y44367D01*
X13856D01*
X14110Y44113D01*
Y43097D01*
X13856Y42843D01*
X13348D01*
X13094Y43097D01*
Y44113D01*
X7000Y46907D02*
X8016D01*
X7508D01*
Y45383D01*
X9539Y46907D02*
X8524D01*
Y45383D01*
X9539D01*
X8524Y46145D02*
X9031D01*
X11063Y46653D02*
X10809Y46907D01*
X10301D01*
X10047Y46653D01*
Y45637D01*
X10301Y45383D01*
X10809D01*
X11063Y45637D01*
X11571Y46145D02*
X12586D01*
X12078Y46653D02*
Y45637D01*
X7000Y50463D02*
Y51987D01*
X8016Y50463D01*
Y51987D01*
X8524D02*
X9539D01*
X9031D01*
Y50463D01*
X11063Y51733D02*
X10809Y51987D01*
X10301D01*
X10047Y51733D01*
Y50717D01*
X10301Y50463D01*
X10809D01*
X11063Y50717D01*
X11571Y50463D02*
X12078D01*
X11824D01*
Y51987D01*
X11571Y51733D01*
X7000Y47923D02*
Y49447D01*
X8016Y47923D01*
Y49447D01*
X8524D02*
X9539D01*
X9031D01*
Y47923D01*
X11063Y49193D02*
X10809Y49447D01*
X10301D01*
X10047Y49193D01*
Y48177D01*
X10301Y47923D01*
X10809D01*
X11063Y48177D01*
X12586Y47923D02*
X11571D01*
X12586Y48939D01*
Y49193D01*
X12332Y49447D01*
X11824D01*
X11571Y49193D01*
X64513Y61695D02*
X64259Y61949D01*
X63751D01*
X63497Y61695D01*
Y60680D01*
X63751Y60426D01*
X64259D01*
X64513Y60680D01*
Y61188D01*
X64005D01*
X65021Y60426D02*
Y61949D01*
X66037Y60426D01*
Y61949D01*
X66545D02*
Y60426D01*
X67306D01*
X67560Y60680D01*
Y61695D01*
X67306Y61949D01*
X66545D01*
X3538Y61695D02*
X3284Y61949D01*
X2776D01*
X2523Y61695D01*
Y60680D01*
X2776Y60426D01*
X3284D01*
X3538Y60680D01*
Y61188D01*
X3030D01*
X4046Y60426D02*
Y61949D01*
X5062Y60426D01*
Y61949D01*
X5570D02*
Y60426D01*
X6331D01*
X6585Y60680D01*
Y61695D01*
X6331Y61949D01*
X5570D01*
X64514Y15945D02*
X64260Y16199D01*
X63752D01*
X63498Y15945D01*
Y14930D01*
X63752Y14676D01*
X64260D01*
X64514Y14930D01*
Y15438D01*
X64006D01*
X65022Y14676D02*
Y16199D01*
X66037Y14676D01*
Y16199D01*
X66545D02*
Y14676D01*
X67307D01*
X67561Y14930D01*
Y15945D01*
X67307Y16199D01*
X66545D01*
X3507Y15945D02*
X3253Y16199D01*
X2746D01*
X2492Y15945D01*
Y14930D01*
X2746Y14676D01*
X3253D01*
X3507Y14930D01*
Y15438D01*
X3000D01*
X4015Y14676D02*
Y16199D01*
X5031Y14676D01*
Y16199D01*
X5539D02*
Y14676D01*
X6300D01*
X6554Y14930D01*
Y15945D01*
X6300Y16199D01*
X5539D01*
X21916Y69166D02*
X22932Y67643D01*
Y69166D02*
X21916Y67643D01*
X23440Y69166D02*
Y67643D01*
X24456D01*
X24964Y69166D02*
X25471D01*
X25217D01*
Y67643D01*
X24964D01*
X25471D01*
X26233D02*
Y69166D01*
X27249Y67643D01*
Y69166D01*
X27757Y67643D02*
X28264D01*
X28011D01*
Y69166D01*
X27757Y68912D01*
X29026Y67643D02*
Y67897D01*
X29280D01*
Y67643D01*
X29026D01*
X30296Y69166D02*
X31311D01*
Y68912D01*
X30296Y67897D01*
Y67643D01*
X31819Y68405D02*
X32835D01*
X34358Y67643D02*
X33343D01*
X34358Y68658D01*
Y68912D01*
X34105Y69166D01*
X33597D01*
X33343Y68912D01*
X34866D02*
X35120Y69166D01*
X35628D01*
X35882Y68912D01*
Y67897D01*
X35628Y67643D01*
X35120D01*
X34866Y67897D01*
Y68912D01*
X37152Y67643D02*
Y69166D01*
X36390Y68405D01*
X37405D01*
X37913Y68912D02*
X38167Y69166D01*
X38675D01*
X38929Y68912D01*
Y68658D01*
X38675Y68405D01*
X38929Y68151D01*
Y67897D01*
X38675Y67643D01*
X38167D01*
X37913Y67897D01*
Y68151D01*
X38167Y68405D01*
X37913Y68658D01*
Y68912D01*
X38167Y68405D02*
X38675D01*
X40452Y68912D02*
X40199Y69166D01*
X39691D01*
X39437Y68912D01*
Y68658D01*
X39691Y68405D01*
X40199D01*
X40452Y68151D01*
Y67897D01*
X40199Y67643D01*
X39691D01*
X39437Y67897D01*
X41976D02*
Y68912D01*
X41722Y69166D01*
X41214D01*
X40960Y68912D01*
Y67897D01*
X41214Y67643D01*
X41722D01*
X41468Y68151D02*
X41976Y67643D01*
X41722D02*
X41976Y67897D01*
X44007Y69166D02*
X45023D01*
X44515D01*
Y67643D01*
X46547Y69166D02*
X45531D01*
Y67643D01*
X46547D01*
X45531Y68405D02*
X46039D01*
X47054Y68912D02*
X47308Y69166D01*
X47816D01*
X48070Y68912D01*
Y67897D01*
X47816Y67643D01*
X47308D01*
X47054Y67897D01*
Y68912D01*
M02*
