G04*
G04 #@! TF.GenerationSoftware,Altium Limited,Altium Designer,18.0.9 (584)*
G04*
G04 Layer_Physical_Order=1*
G04 Layer_Color=255*
%FSLAX43Y43*%
%MOMM*%
G71*
G01*
G75*
%ADD20C,0.600*%
%ADD21R,7.000X7.000*%
%ADD22R,1.500X1.500*%
%ADD23C,1.500*%
%ADD24R,1.500X1.500*%
%ADD25O,5.200X7.800*%
%ADD26C,2.500*%
%ADD27C,1.524*%
%ADD28C,5.000*%
D20*
X55055Y33445D02*
X65520D01*
X54750Y33750D02*
X55055Y33445D01*
X45150Y33750D02*
X54750D01*
X4520Y35985D02*
X14485D01*
X14750Y36250D01*
X24850D01*
X45150Y51250D02*
X65495D01*
X55095Y30905D02*
X65520D01*
X54750Y31250D02*
X55095Y30905D01*
X45150Y31250D02*
X54750D01*
X4520Y33445D02*
X14445D01*
X14750Y33750D01*
X24850D01*
X54750Y18750D02*
X55295Y18205D01*
X65520D01*
X45150Y18750D02*
X54750D01*
X55175Y25825D02*
X65520D01*
X54750Y26250D02*
X55175Y25825D01*
X45150Y26250D02*
X54750D01*
X45150Y46250D02*
X65415D01*
X24745Y46145D02*
X24850Y46250D01*
X4520Y46145D02*
X24745D01*
X45150Y48750D02*
X65455D01*
X4520Y20745D02*
X14245D01*
X14750Y21250D01*
X24850D01*
X14750Y23750D02*
X24850D01*
X14285Y23285D02*
X14750Y23750D01*
X4520Y23285D02*
X14285D01*
X55215D02*
X65520D01*
X54750Y23750D02*
X55215Y23285D01*
X45150Y23750D02*
X54750D01*
Y21250D02*
X55255Y20745D01*
X65520D01*
X65275Y20500D02*
X65520Y20745D01*
X45150Y21250D02*
X54750D01*
X4585Y48750D02*
X24850D01*
X24825Y51225D02*
X24850Y51250D01*
X4520Y51225D02*
X24825D01*
X55515Y35985D02*
X65520D01*
X55250Y36250D02*
X55515Y35985D01*
X45150Y36250D02*
X55250D01*
X4520Y18205D02*
X14205D01*
X14750Y18750D01*
X24850D01*
X4520Y30905D02*
X14405D01*
X14750Y31250D01*
X24850D01*
X4520Y25825D02*
X14325D01*
X14750Y26250D01*
X24850D01*
X4520Y38525D02*
X14525D01*
X14750Y38750D01*
X24850D01*
X55475Y38525D02*
X65520D01*
X55250Y38750D02*
X55475Y38525D01*
X45150Y38750D02*
X55250D01*
X55435Y41065D02*
X65520D01*
X55250Y41250D02*
X55435Y41065D01*
X45150Y41250D02*
X55250D01*
X45150Y43750D02*
X65375D01*
X4520Y41065D02*
X14565D01*
X14750Y41250D01*
X24850D01*
X4665Y43750D02*
X24850D01*
X14365Y28365D02*
X14750Y28750D01*
X4520Y28365D02*
X14365D01*
X14750Y28750D02*
X24850D01*
X55135Y28365D02*
X65520D01*
X54750Y28750D02*
X55135Y28365D01*
X45150Y28750D02*
X54750D01*
D21*
X15500Y65500D02*
D03*
D22*
X65520Y58500D02*
D03*
X4520Y58500D02*
D03*
X65520Y18205D02*
D03*
X4520Y51225D02*
D03*
D23*
X65520Y55960D02*
D03*
X4520Y55960D02*
D03*
X66790Y12770D02*
D03*
X5790Y12770D02*
D03*
X65520Y51225D02*
D03*
Y48685D02*
D03*
Y46145D02*
D03*
Y43605D02*
D03*
Y41065D02*
D03*
Y38525D02*
D03*
Y35985D02*
D03*
Y33445D02*
D03*
Y30905D02*
D03*
Y28365D02*
D03*
Y25825D02*
D03*
Y23285D02*
D03*
Y20745D02*
D03*
X4520Y18205D02*
D03*
Y20745D02*
D03*
Y23285D02*
D03*
Y25825D02*
D03*
Y28365D02*
D03*
Y30905D02*
D03*
Y33445D02*
D03*
Y35985D02*
D03*
Y38525D02*
D03*
Y41065D02*
D03*
Y43605D02*
D03*
Y46145D02*
D03*
Y48685D02*
D03*
D24*
X64250Y12770D02*
D03*
X3250Y12770D02*
D03*
D25*
X29900Y8350D02*
D03*
X40100D02*
D03*
X29900Y61650D02*
D03*
X40100D02*
D03*
D26*
X35000Y15000D02*
D03*
X40000D02*
D03*
X30000D02*
D03*
X35000Y55000D02*
D03*
X40000D02*
D03*
X30000D02*
D03*
Y20000D02*
D03*
Y50000D02*
D03*
Y35000D02*
D03*
Y40000D02*
D03*
Y45000D02*
D03*
Y30000D02*
D03*
Y25000D02*
D03*
X40000Y20000D02*
D03*
Y50000D02*
D03*
Y35000D02*
D03*
Y40000D02*
D03*
Y45000D02*
D03*
Y30000D02*
D03*
Y25000D02*
D03*
X35000D02*
D03*
Y30000D02*
D03*
Y45000D02*
D03*
Y40000D02*
D03*
Y35000D02*
D03*
Y50000D02*
D03*
Y20000D02*
D03*
D27*
X24850Y51250D02*
D03*
Y48750D02*
D03*
Y46250D02*
D03*
Y43750D02*
D03*
Y41250D02*
D03*
Y38750D02*
D03*
Y36250D02*
D03*
Y33750D02*
D03*
Y31250D02*
D03*
Y28750D02*
D03*
Y26250D02*
D03*
Y23750D02*
D03*
Y21250D02*
D03*
Y18750D02*
D03*
X45150D02*
D03*
Y21250D02*
D03*
Y23750D02*
D03*
Y26250D02*
D03*
Y28750D02*
D03*
Y31250D02*
D03*
Y33750D02*
D03*
Y36250D02*
D03*
Y38750D02*
D03*
Y41250D02*
D03*
Y43750D02*
D03*
Y46250D02*
D03*
Y48750D02*
D03*
Y51250D02*
D03*
D28*
X66500Y66500D02*
D03*
Y3500D02*
D03*
X3500Y3500D02*
D03*
Y66500D02*
D03*
X56222Y12013D02*
D03*
X13778D02*
D03*
X13829Y57987D02*
D03*
X55815Y58063D02*
D03*
M02*
