G04*
G04 #@! TF.GenerationSoftware,Altium Limited,Altium Designer,18.0.9 (584)*
G04*
G04 Layer_Physical_Order=2*
G04 Layer_Color=16711680*
%FSLAX43Y43*%
%MOMM*%
G71*
G01*
G75*
%ADD11C,0.200*%
%ADD12C,0.254*%
%ADD22R,1.500X1.500*%
%ADD23C,1.500*%
%ADD24R,1.500X1.500*%
%ADD25O,5.200X7.800*%
%ADD26C,2.500*%
%ADD27C,1.524*%
%ADD28C,5.000*%
D11*
X66624Y55960D02*
G03*
X66624Y55960I-1104J0D01*
G01*
Y51225D02*
G03*
X66624Y51225I-1104J0D01*
G01*
Y48685D02*
G03*
X66624Y48685I-1104J0D01*
G01*
X46266Y48750D02*
G03*
X46266Y48750I-1116J0D01*
G01*
X66624Y46145D02*
G03*
X66624Y46145I-1104J0D01*
G01*
Y43605D02*
G03*
X66624Y43605I-1104J0D01*
G01*
Y41065D02*
G03*
X66624Y41065I-1104J0D01*
G01*
Y38525D02*
G03*
X66624Y38525I-1104J0D01*
G01*
Y35985D02*
G03*
X66624Y35985I-1104J0D01*
G01*
Y33445D02*
G03*
X66624Y33445I-1104J0D01*
G01*
X46266Y51250D02*
G03*
X46266Y51250I-1116J0D01*
G01*
Y46250D02*
G03*
X46266Y46250I-1116J0D01*
G01*
X41604Y55000D02*
G03*
X41604Y55000I-1604J0D01*
G01*
X43054Y62950D02*
G03*
X37146Y62950I-2954J0D01*
G01*
Y60350D02*
G03*
X43054Y60350I2954J0D01*
G01*
X36604Y55000D02*
G03*
X36604Y55000I-1604J0D01*
G01*
X41604Y50000D02*
G03*
X41604Y50000I-1604J0D01*
G01*
Y45000D02*
G03*
X41604Y45000I-1604J0D01*
G01*
X36604Y50000D02*
G03*
X36604Y50000I-1604J0D01*
G01*
X46266Y43750D02*
G03*
X46266Y43750I-1116J0D01*
G01*
Y41250D02*
G03*
X46266Y41250I-1116J0D01*
G01*
Y38750D02*
G03*
X46266Y38750I-1116J0D01*
G01*
Y36250D02*
G03*
X46266Y36250I-1116J0D01*
G01*
Y33750D02*
G03*
X46266Y33750I-1116J0D01*
G01*
X41604Y40000D02*
G03*
X41604Y40000I-1604J0D01*
G01*
Y35000D02*
G03*
X41604Y35000I-1604J0D01*
G01*
X36604Y40000D02*
G03*
X36604Y40000I-1604J0D01*
G01*
Y35000D02*
G03*
X36604Y35000I-1604J0D01*
G01*
X66624Y23285D02*
G03*
X66624Y23285I-1104J0D01*
G01*
Y30905D02*
G03*
X66624Y30905I-1104J0D01*
G01*
Y28365D02*
G03*
X66624Y28365I-1104J0D01*
G01*
Y25825D02*
G03*
X66624Y25825I-1104J0D01*
G01*
Y20745D02*
G03*
X66624Y20745I-1104J0D01*
G01*
X67894Y12770D02*
G03*
X67894Y12770I-1104J0D01*
G01*
X46266Y31250D02*
G03*
X46266Y31250I-1116J0D01*
G01*
Y28750D02*
G03*
X46266Y28750I-1116J0D01*
G01*
Y26250D02*
G03*
X46266Y26250I-1116J0D01*
G01*
Y23750D02*
G03*
X46266Y23750I-1116J0D01*
G01*
X41604Y30000D02*
G03*
X41604Y30000I-1604J0D01*
G01*
X36604D02*
G03*
X36604Y30000I-1604J0D01*
G01*
X41604Y25000D02*
G03*
X41604Y25000I-1604J0D01*
G01*
X36604D02*
G03*
X36604Y25000I-1604J0D01*
G01*
X46266Y21250D02*
G03*
X46266Y21250I-1116J0D01*
G01*
Y18750D02*
G03*
X46266Y18750I-1116J0D01*
G01*
X41604Y20000D02*
G03*
X41604Y20000I-1604J0D01*
G01*
Y15000D02*
G03*
X41604Y15000I-1604J0D01*
G01*
X37146Y7050D02*
G03*
X43054Y7050I2954J0D01*
G01*
Y9650D02*
G03*
X37146Y9650I-2954J0D01*
G01*
X36604Y15000D02*
G03*
X36604Y15000I-1604J0D01*
G01*
X31604Y50000D02*
G03*
X31604Y50000I-1604J0D01*
G01*
X32854Y62950D02*
G03*
X26946Y62950I-2954J0D01*
G01*
Y60350D02*
G03*
X32854Y60350I2954J0D01*
G01*
X31604Y55000D02*
G03*
X31604Y55000I-1604J0D01*
G01*
X25966Y51250D02*
G03*
X25966Y51250I-1116J0D01*
G01*
X36604Y45000D02*
G03*
X36604Y45000I-1604J0D01*
G01*
X31604D02*
G03*
X31604Y45000I-1604J0D01*
G01*
Y40000D02*
G03*
X31604Y40000I-1604J0D01*
G01*
Y35000D02*
G03*
X31604Y35000I-1604J0D01*
G01*
X25966Y48750D02*
G03*
X25966Y48750I-1116J0D01*
G01*
Y46250D02*
G03*
X25966Y46250I-1116J0D01*
G01*
Y43750D02*
G03*
X25966Y43750I-1116J0D01*
G01*
Y41250D02*
G03*
X25966Y41250I-1116J0D01*
G01*
Y38750D02*
G03*
X25966Y38750I-1116J0D01*
G01*
Y36250D02*
G03*
X25966Y36250I-1116J0D01*
G01*
Y33750D02*
G03*
X25966Y33750I-1116J0D01*
G01*
X5624Y55960D02*
G03*
X5624Y55960I-1104J0D01*
G01*
Y48685D02*
G03*
X5624Y48685I-1104J0D01*
G01*
Y46145D02*
G03*
X5624Y46145I-1104J0D01*
G01*
Y43605D02*
G03*
X5624Y43605I-1104J0D01*
G01*
Y41065D02*
G03*
X5624Y41065I-1104J0D01*
G01*
Y38525D02*
G03*
X5624Y38525I-1104J0D01*
G01*
Y35985D02*
G03*
X5624Y35985I-1104J0D01*
G01*
Y33445D02*
G03*
X5624Y33445I-1104J0D01*
G01*
X31604Y30000D02*
G03*
X31604Y30000I-1604J0D01*
G01*
Y25000D02*
G03*
X31604Y25000I-1604J0D01*
G01*
X36604Y20000D02*
G03*
X36604Y20000I-1604J0D01*
G01*
X31604D02*
G03*
X31604Y20000I-1604J0D01*
G01*
X25966Y31250D02*
G03*
X25966Y31250I-1116J0D01*
G01*
Y28750D02*
G03*
X25966Y28750I-1116J0D01*
G01*
Y23750D02*
G03*
X25966Y23750I-1116J0D01*
G01*
Y26250D02*
G03*
X25966Y26250I-1116J0D01*
G01*
Y21250D02*
G03*
X25966Y21250I-1116J0D01*
G01*
Y18750D02*
G03*
X25966Y18750I-1116J0D01*
G01*
X31604Y15000D02*
G03*
X31604Y15000I-1604J0D01*
G01*
X32854Y9650D02*
G03*
X26946Y9650I-2954J0D01*
G01*
Y7050D02*
G03*
X32854Y7050I2954J0D01*
G01*
X5624Y30905D02*
G03*
X5624Y30905I-1104J0D01*
G01*
Y28365D02*
G03*
X5624Y28365I-1104J0D01*
G01*
Y25825D02*
G03*
X5624Y25825I-1104J0D01*
G01*
Y23285D02*
G03*
X5624Y23285I-1104J0D01*
G01*
X6894Y12770D02*
G03*
X6894Y12770I-1104J0D01*
G01*
X5624Y20745D02*
G03*
X5624Y20745I-1104J0D01*
G01*
Y18205D02*
G03*
X5624Y18205I-1104J0D01*
G01*
X66624Y58748D02*
X69500D01*
X66624Y59248D02*
X69500D01*
X66624Y58248D02*
X69500D01*
X66624Y57396D02*
Y59604D01*
X64416D02*
X66624D01*
X66576D02*
Y60500D01*
X66624Y57748D02*
X69500D01*
X66576Y56283D02*
Y57396D01*
X66586Y56248D02*
X69500D01*
X66293Y56748D02*
X69500D01*
X64416Y57396D02*
X66624D01*
X66076Y59604D02*
Y60500D01*
X65576Y59604D02*
Y60500D01*
X65076Y59604D02*
Y60500D01*
X64576Y59604D02*
Y60500D01*
X64416Y57396D02*
Y59604D01*
X65576Y57063D02*
Y57396D01*
X66076Y56914D02*
Y57396D01*
X65076Y56971D02*
Y57396D01*
X64576Y56532D02*
Y57396D01*
X66364Y55248D02*
X69500D01*
X66603Y55748D02*
X69500D01*
X66492Y51748D02*
X69500D01*
X66576Y51548D02*
Y55637D01*
X65935Y52248D02*
X69500D01*
X66516Y50748D02*
X69500D01*
X66624Y51248D02*
X69500D01*
X66470Y49248D02*
X69500D01*
X65819Y49748D02*
X69500D01*
X66034Y50248D02*
X69500D01*
X66076Y52179D02*
Y55006D01*
X65076Y52236D02*
Y54949D01*
X64576Y51797D02*
Y55388D01*
X66076Y49639D02*
Y50271D01*
X65576Y49788D02*
Y50122D01*
X66576Y49008D02*
Y50902D01*
X65576Y52328D02*
Y54857D01*
X65076Y49696D02*
Y50214D01*
X64576Y49257D02*
Y50653D01*
X60815Y60248D02*
X69500D01*
X60815Y60500D02*
X69500Y60500D01*
X60815Y59748D02*
X69500D01*
X60815Y59248D02*
X64416D01*
X43054Y60748D02*
X50815D01*
X43054Y61248D02*
X50815D01*
X43052Y60248D02*
X50815D01*
X60815Y58248D02*
X64416D01*
X60815Y58748D02*
X64416D01*
X60815Y57248D02*
X69500D01*
X60815Y57748D02*
X64416D01*
X42582Y58748D02*
X50815D01*
X41498Y57748D02*
X50815D01*
X42944Y63748D02*
X50815D01*
X42754Y64248D02*
X50815D01*
X43039Y63248D02*
X50815D01*
X41956Y65248D02*
X50815D01*
X41048Y65748D02*
X50815D01*
X42444Y64748D02*
X50815D01*
X43054Y62248D02*
X50815D01*
X43054Y62748D02*
X50815D01*
X43054Y61748D02*
X50815D01*
X42841Y59248D02*
X50815D01*
X42992Y59748D02*
X50815D01*
X42175Y58248D02*
X50815D01*
X60815Y54248D02*
X69500D01*
X60815Y54748D02*
X69500D01*
X60815Y53748D02*
X69500D01*
X60815Y56748D02*
X64747D01*
X60815Y56248D02*
X64454D01*
X60815Y55248D02*
X64676D01*
X60815Y53248D02*
X69500D01*
X46149Y51748D02*
X64548D01*
X46147Y50748D02*
X64524D01*
X45650Y52248D02*
X65105D01*
X45641Y50248D02*
X65006D01*
X45650Y49748D02*
X65221D01*
X60815Y55748D02*
X64437D01*
X60815Y53063D02*
Y60500D01*
X50815Y69500D02*
X50815Y53063D01*
X41419Y55748D02*
X50815D01*
X41008Y56248D02*
X50815D01*
X41585Y55248D02*
X50815D01*
X46266Y51248D02*
X64416D01*
X50815Y53063D02*
X60815D01*
X41417Y54248D02*
X50815D01*
X41584Y54748D02*
X50815D01*
X41002Y53748D02*
X50815D01*
X66534Y48248D02*
X69500D01*
X66622Y48748D02*
X69500D01*
X66550Y45748D02*
X69500D01*
X66619Y46248D02*
X69500D01*
X65570Y47248D02*
X69500D01*
X66104Y47748D02*
X69500D01*
X66445Y46748D02*
X69500D01*
X66565Y43248D02*
X69500D01*
X66418Y44248D02*
X69500D01*
X66609Y41248D02*
X69500D01*
X66216Y42748D02*
X69500D01*
X66163Y45248D02*
X69500D01*
X66387Y41748D02*
X69500D01*
X66576Y46468D02*
Y48362D01*
X66076Y47099D02*
Y47731D01*
X66576Y43928D02*
Y45822D01*
X65576Y47248D02*
Y47582D01*
X65076Y44616D02*
Y45134D01*
X66076Y44559D02*
Y45191D01*
X66615Y43748D02*
X69500D01*
X66576Y41388D02*
Y43282D01*
X66577Y40748D02*
X69500D01*
X65576Y42168D02*
Y42502D01*
Y44708D02*
Y45042D01*
X66076Y42019D02*
Y42651D01*
X66601Y38748D02*
X69500D01*
X66354Y39248D02*
X69500D01*
X66592Y36248D02*
X69500D01*
X66589Y38248D02*
X69500D01*
X66304Y37748D02*
X69500D01*
X66262Y40248D02*
X69500D01*
X66318Y36748D02*
X69500D01*
X66582Y33748D02*
X69500D01*
X66598Y35748D02*
X69500D01*
X66606Y33248D02*
X69500D01*
X66278Y34248D02*
X69500D01*
X66342Y35248D02*
X69500D01*
X66376Y32748D02*
X69500D01*
X66576Y38848D02*
Y40742D01*
X66076Y39479D02*
Y40111D01*
X66576Y36308D02*
Y38202D01*
X65576Y39628D02*
Y39962D01*
X65076Y39536D02*
Y40054D01*
X66076Y36939D02*
Y37571D01*
Y34399D02*
Y35031D01*
X65576Y37088D02*
Y37422D01*
X66576Y33768D02*
Y35662D01*
X65576Y34548D02*
Y34882D01*
X65076Y36996D02*
Y37514D01*
Y34456D02*
Y34974D01*
X45650Y47248D02*
X65470D01*
X65076Y47156D02*
Y47674D01*
X46149Y46748D02*
X64595D01*
X45641Y47748D02*
X64936D01*
X45641Y45248D02*
X64877D01*
X45650Y44748D02*
X69500D01*
X46149Y44248D02*
X64622D01*
X65076Y42076D02*
Y42594D01*
X45650Y42248D02*
X69500D01*
X45641Y42748D02*
X64824D01*
X46149Y41748D02*
X64653D01*
X64576Y46717D02*
Y48113D01*
X46266Y48748D02*
X64418D01*
X46266Y46248D02*
X64421D01*
X46149Y49248D02*
X64570D01*
X46147Y48248D02*
X64506D01*
X46147Y45748D02*
X64490D01*
X64576Y44177D02*
Y45573D01*
X46266Y43748D02*
X64425D01*
X64576Y41637D02*
Y43033D01*
X46147Y43248D02*
X64475D01*
X46266Y41248D02*
X64431D01*
X46147Y40748D02*
X64463D01*
X45650Y39748D02*
X69500D01*
X45641Y40248D02*
X64778D01*
X45641Y37748D02*
X64736D01*
X45650Y37248D02*
X69500D01*
X46149Y36748D02*
X64722D01*
X45650Y34748D02*
X69500D01*
X46149Y34248D02*
X64762D01*
X45650Y32248D02*
X69500D01*
X64576Y39097D02*
Y40493D01*
X46266Y38748D02*
X64439D01*
X64576Y36557D02*
Y37953D01*
X46149Y39248D02*
X64686D01*
X46147Y38248D02*
X64451D01*
X46266Y36248D02*
X64448D01*
X64576Y34017D02*
Y35413D01*
X46266Y33748D02*
X64458D01*
X46147Y33248D02*
X64434D01*
X45641Y35248D02*
X64698D01*
X46147Y35748D02*
X64442D01*
X45641Y32748D02*
X64664D01*
X45076Y52364D02*
Y69500D01*
X44576Y52207D02*
Y69500D01*
X46076Y51873D02*
Y69500D01*
X44076Y51552D02*
Y69500D01*
X42076Y65146D02*
Y69500D01*
X41076Y65738D02*
Y69500D01*
X42576Y64562D02*
Y69500D01*
X43054Y60350D02*
Y62950D01*
X41576Y65509D02*
Y69500D01*
X45576Y52282D02*
Y69500D01*
X41576Y55300D02*
Y57791D01*
X41076Y56190D02*
Y57562D01*
X41008Y51248D02*
X44034D01*
X40576Y65865D02*
Y69500D01*
X40076Y65904D02*
Y69500D01*
X39576Y65857D02*
Y69500D01*
Y56547D02*
Y57443D01*
X39076Y65721D02*
Y69500D01*
Y56311D02*
Y57579D01*
X40576Y56497D02*
Y57435D01*
X40076Y56602D02*
Y57396D01*
X40576Y51497D02*
Y53503D01*
X40076Y51602D02*
Y53398D01*
X39576Y51547D02*
Y53453D01*
X39076Y51311D02*
Y53689D01*
X45576Y49782D02*
Y50218D01*
X45076Y49864D02*
Y50136D01*
X46076Y49373D02*
Y50627D01*
X44576Y49707D02*
Y50293D01*
X41585Y50248D02*
X44659D01*
X41419Y50748D02*
X44153D01*
X45576Y47282D02*
Y47718D01*
X45076Y47364D02*
Y47636D01*
X46076Y46873D02*
Y48127D01*
X41584Y49748D02*
X44650D01*
X44576Y47207D02*
Y47793D01*
X44076Y49052D02*
Y50948D01*
X41576Y50300D02*
Y54700D01*
Y45300D02*
Y49700D01*
X41417Y49248D02*
X44151D01*
X41076Y51190D02*
Y53810D01*
Y46190D02*
Y48810D01*
X44076Y46552D02*
Y48448D01*
X41002Y48748D02*
X44034D01*
X41008Y46248D02*
X44034D01*
X40076Y46602D02*
Y48398D01*
X39576Y46547D02*
Y48453D01*
X40576Y46497D02*
Y48503D01*
X38576Y65480D02*
Y69500D01*
X38076Y65101D02*
Y69500D01*
X38576Y55738D02*
Y57820D01*
X37576Y64484D02*
Y69500D01*
X36419Y55748D02*
X38581D01*
X36585Y55248D02*
X38415D01*
X36584Y54748D02*
X38416D01*
X36008Y56248D02*
X38992D01*
X36417Y54248D02*
X38583D01*
X36002Y53748D02*
X38998D01*
X36076Y56190D02*
Y69500D01*
X35576Y56497D02*
Y69500D01*
X36576Y55300D02*
Y69500D01*
X35076Y56602D02*
Y69500D01*
X34076Y56311D02*
Y69500D01*
X33576Y55738D02*
Y69500D01*
X37146Y60350D02*
Y62950D01*
X35076Y51602D02*
Y53398D01*
X35576Y51497D02*
Y53503D01*
X34576Y56547D02*
Y69500D01*
Y51547D02*
Y53453D01*
X38576Y50738D02*
Y54262D01*
X36585Y50248D02*
X38415D01*
X36008Y51248D02*
X38992D01*
X36419Y50748D02*
X38581D01*
X36584Y49748D02*
X38416D01*
X39076Y46311D02*
Y48689D01*
X38576Y45738D02*
Y49262D01*
X36002Y48748D02*
X38998D01*
X36417Y49248D02*
X38583D01*
X36008Y46248D02*
X38992D01*
X36576Y50300D02*
Y54700D01*
X36076Y51190D02*
Y53810D01*
X36576Y45300D02*
Y49700D01*
X34076Y51311D02*
Y53689D01*
X33576Y50738D02*
Y54262D01*
X35576Y46497D02*
Y48503D01*
X35076Y46602D02*
Y48398D01*
X36076Y46190D02*
Y48810D01*
X34576Y46547D02*
Y48453D01*
X34076Y46311D02*
Y48689D01*
X33576Y45738D02*
Y49262D01*
X46076Y44373D02*
Y45627D01*
X45576Y44782D02*
Y45218D01*
X46076Y41873D02*
Y43127D01*
X45576Y42282D02*
Y42718D01*
X45076Y44864D02*
Y45136D01*
X41585Y45248D02*
X44659D01*
X45076Y39864D02*
Y40136D01*
Y42364D02*
Y42636D01*
X45576Y39782D02*
Y40218D01*
X41585Y40248D02*
X44659D01*
X41584Y39748D02*
X44650D01*
X41584Y44748D02*
X44650D01*
X44576Y44707D02*
Y45293D01*
X44076Y44052D02*
Y45948D01*
X41419Y45748D02*
X44153D01*
X41417Y44248D02*
X44151D01*
X41576Y40300D02*
Y44700D01*
X44576Y42207D02*
Y42793D01*
X44076Y41552D02*
Y43448D01*
X44576Y39707D02*
Y40293D01*
X41008Y41248D02*
X44034D01*
X41076Y41190D02*
Y43810D01*
X41419Y40748D02*
X44153D01*
X46076Y39373D02*
Y40627D01*
X45576Y37282D02*
Y37718D01*
X46076Y34373D02*
Y35627D01*
Y36873D02*
Y38127D01*
X45076Y37364D02*
Y37636D01*
X45576Y34782D02*
Y35218D01*
X45076Y34864D02*
Y35136D01*
X45576Y32282D02*
Y32718D01*
X41585Y35248D02*
X44659D01*
X45076Y32364D02*
Y32636D01*
X44576Y37207D02*
Y37793D01*
X44076Y39052D02*
Y40948D01*
Y36552D02*
Y38448D01*
X41417Y39248D02*
X44151D01*
X41076Y36190D02*
Y38810D01*
X41576Y35300D02*
Y39700D01*
X44576Y34707D02*
Y35293D01*
X44076Y34052D02*
Y35948D01*
X44576Y32207D02*
Y32793D01*
X41584Y34748D02*
X44650D01*
X41419Y35748D02*
X44153D01*
X41417Y34248D02*
X44151D01*
X41003Y43748D02*
X44034D01*
X39576Y41547D02*
Y43453D01*
X40576Y41497D02*
Y43503D01*
X39076Y41311D02*
Y43689D01*
X36417Y44248D02*
X38583D01*
X36419Y45748D02*
X38581D01*
X36003Y43748D02*
X38998D01*
X40076Y41602D02*
Y43398D01*
X36419Y40748D02*
X38581D01*
X41003Y38748D02*
X44034D01*
X36008Y41248D02*
X38992D01*
X36417Y39248D02*
X38583D01*
X36003Y38748D02*
X38997D01*
X36584Y44748D02*
X38416D01*
X36585Y45248D02*
X38415D01*
X38576Y40738D02*
Y44262D01*
X36076Y41190D02*
Y43810D01*
X33576Y40738D02*
Y44262D01*
X36576Y40300D02*
Y44700D01*
X36585Y40248D02*
X38415D01*
X35576Y41497D02*
Y43503D01*
X36584Y39748D02*
X38416D01*
X35076Y41602D02*
Y43398D01*
X34576Y41547D02*
Y43453D01*
X34076Y41311D02*
Y43689D01*
X40076Y36602D02*
Y38398D01*
X39576Y36547D02*
Y38453D01*
X40576Y36497D02*
Y38503D01*
X39076Y36311D02*
Y38689D01*
X41008Y36248D02*
X44034D01*
X36419Y35748D02*
X38581D01*
X41003Y33748D02*
X44034D01*
X36008Y36248D02*
X38992D01*
X36417Y34248D02*
X38583D01*
X36003Y33748D02*
X38997D01*
X38576Y35738D02*
Y39262D01*
X36076Y36190D02*
Y38810D01*
X36576Y35300D02*
Y39700D01*
X34076Y36311D02*
Y38689D01*
X33576Y35738D02*
Y39262D01*
X36585Y35248D02*
X38415D01*
X35576Y36497D02*
Y38503D01*
X36584Y34748D02*
X38416D01*
X35076Y36602D02*
Y38398D01*
X34576Y36547D02*
Y38453D01*
X66569Y31248D02*
X69500D01*
X66576Y31228D02*
Y33122D01*
X66613Y30748D02*
X69500D01*
X66576Y28688D02*
Y30582D01*
X66407Y30248D02*
X69500D01*
X66233Y31748D02*
X69500D01*
X66183Y29248D02*
X69500D01*
X66618Y28248D02*
X69500D01*
X66555Y28748D02*
X69500D01*
X66576Y26148D02*
Y28042D01*
X66126Y26748D02*
X69500D01*
X66435Y27748D02*
X69500D01*
X66540Y26248D02*
X69500D01*
X66076Y31859D02*
Y32491D01*
X65576Y32008D02*
Y32342D01*
X66076Y29319D02*
Y29951D01*
X65076Y31916D02*
Y32434D01*
X64576Y31477D02*
Y32873D01*
Y28937D02*
Y30333D01*
X65576Y26928D02*
Y27262D01*
Y29468D02*
Y29802D01*
X66076Y26779D02*
Y27411D01*
X65076Y26836D02*
Y27354D01*
Y29376D02*
Y29894D01*
X64576Y26397D02*
Y27793D01*
X68576Y9500D02*
Y60500D01*
X68076Y9500D02*
Y60500D01*
X69500D02*
X69500Y9500D01*
X69076D02*
Y60500D01*
X66461Y25248D02*
X69500D01*
X66621Y25748D02*
X69500D01*
X67576Y13546D02*
Y60500D01*
X66623Y23248D02*
X69500D01*
X66522Y23748D02*
X69500D01*
X66485Y22748D02*
X69500D01*
X66060Y24248D02*
X69500D01*
X65762Y24748D02*
X69500D01*
X65899Y22248D02*
X69500D01*
X66576Y23608D02*
Y25502D01*
X66076Y24239D02*
Y24871D01*
X67076Y13836D02*
Y60500D01*
X65576Y24388D02*
Y24722D01*
X65076Y24296D02*
Y24814D01*
X64576Y23857D02*
Y25253D01*
X66076Y21699D02*
Y22331D01*
X65576Y21848D02*
Y22182D01*
X66576Y21068D02*
Y22962D01*
X65076Y21756D02*
Y22274D01*
X64576Y21317D02*
Y22713D01*
X46149Y31748D02*
X64807D01*
X46149Y29248D02*
X64857D01*
X45650Y29748D02*
X69500D01*
X45641Y30248D02*
X64633D01*
X45641Y27748D02*
X64605D01*
X46149Y26748D02*
X64914D01*
X46149Y24248D02*
X64980D01*
X45650Y27248D02*
X69500D01*
X45650Y24748D02*
X65278D01*
X45650Y22248D02*
X65141D01*
X46266Y31248D02*
X64471D01*
X58576Y17013D02*
Y53063D01*
X59076Y17013D02*
Y53063D01*
X46266Y28748D02*
X64485D01*
X46147Y30748D02*
X64427D01*
X46147Y28248D02*
X64422D01*
X46266Y23748D02*
X64518D01*
X46266Y26248D02*
X64500D01*
X46147Y23248D02*
X64417D01*
X45641Y25248D02*
X64579D01*
X46147Y25748D02*
X64419D01*
X45641Y22748D02*
X64555D01*
X64076Y13874D02*
Y60500D01*
X63576Y13874D02*
Y60500D01*
X63076Y9500D02*
Y60500D01*
X62076Y9500D02*
Y60500D01*
X61576Y9500D02*
Y60500D01*
X62576Y9500D02*
Y60500D01*
X60576Y17013D02*
Y53063D01*
X60076Y17013D02*
Y53063D01*
X61076Y17013D02*
Y60500D01*
X58076Y17013D02*
Y53063D01*
X57576Y17013D02*
Y53063D01*
X59576Y17013D02*
Y53063D01*
X53576Y17013D02*
Y53063D01*
X53076Y17013D02*
Y53063D01*
X54076Y17013D02*
Y53063D01*
X52076Y17013D02*
Y53063D01*
X51576Y17013D02*
Y53063D01*
X52576Y17013D02*
Y53063D01*
X56576Y17013D02*
Y53063D01*
X56076Y17013D02*
Y53063D01*
X57076Y17013D02*
Y53063D01*
X55076Y17013D02*
Y53063D01*
X54576Y17013D02*
Y53063D01*
X55576Y17013D02*
Y53063D01*
X66624Y20748D02*
X69500D01*
X66503Y21248D02*
X69500D01*
X65994Y19748D02*
X69500D01*
X66506Y20248D02*
X69500D01*
X65981Y21748D02*
X69500D01*
X64416Y19309D02*
X66624D01*
Y17248D02*
X69500D01*
X66624Y17748D02*
X69500D01*
X67302Y13748D02*
X69500D01*
X66624Y18748D02*
X69500D01*
X66624Y19248D02*
X69500D01*
X66624Y18248D02*
X69500D01*
X66076Y19309D02*
Y19791D01*
X65576Y19309D02*
Y19642D01*
X66576Y19309D02*
Y20422D01*
X65076Y19309D02*
Y19734D01*
X64576Y19309D02*
Y20173D01*
X64416Y17101D02*
Y19309D01*
X66624Y17101D02*
Y19309D01*
X66576Y13853D02*
Y17101D01*
X65354Y13748D02*
X66278D01*
X64416Y17101D02*
X66624D01*
X64576Y13874D02*
Y17101D01*
X65076Y13874D02*
Y17101D01*
X67894Y12748D02*
X69500D01*
X67785Y13248D02*
X69500D01*
X67207Y11748D02*
X69500D01*
X67763Y12248D02*
X69500D01*
X67576Y9500D02*
Y11994D01*
X66576Y9500D02*
Y11687D01*
X65354Y11748D02*
X66373D01*
X67076Y9500D02*
Y11704D01*
X66076Y13612D02*
Y17101D01*
X65354Y11666D02*
Y13874D01*
X65576Y9500D02*
Y17101D01*
X65354Y13248D02*
X65795D01*
X65354Y12248D02*
X65817D01*
X65354Y12748D02*
X65686D01*
X66076Y9500D02*
Y11928D01*
X64576Y9500D02*
Y11666D01*
X65076Y9500D02*
Y11666D01*
X46149Y21748D02*
X65059D01*
X46266Y21248D02*
X64537D01*
X61222Y16748D02*
X69500D01*
X46147Y20748D02*
X64416D01*
X45650Y19748D02*
X65046D01*
X45641Y20248D02*
X64534D01*
X45641Y17748D02*
X64416D01*
X61222Y14248D02*
X69500D01*
X61222Y14748D02*
X69500D01*
X63146Y13874D02*
X65354D01*
X61222Y15748D02*
X69500D01*
X61222Y16248D02*
X69500D01*
X61222Y15248D02*
X69500D01*
X46266Y18748D02*
X64416D01*
X46149Y19248D02*
X64416D01*
X51222Y17013D02*
X61222D01*
X46147Y18248D02*
X64416D01*
X41008Y16248D02*
X51222D01*
X41419Y15748D02*
X51222D01*
X61222Y13748D02*
X63146D01*
X41585Y15248D02*
X51222D01*
X61222Y13248D02*
X63146D01*
X41417Y14248D02*
X51222D01*
X41584Y14748D02*
X51222D01*
X41003Y13748D02*
X51222D01*
X63146Y11666D02*
Y13874D01*
X63576Y9500D02*
Y11666D01*
X61222Y11748D02*
X63146D01*
X61222Y12748D02*
X63146D01*
Y11666D02*
X65354D01*
X61222Y10748D02*
X69500D01*
X61222Y11248D02*
X69500D01*
X64076Y9500D02*
Y11666D01*
X61222Y9748D02*
X69500D01*
X61222Y10248D02*
X69500D01*
X61222Y9500D02*
X69500Y9500D01*
X61222Y12248D02*
X63146D01*
X61222Y9500D02*
Y17013D01*
X51222Y500D02*
X51222Y17013D01*
X42180Y11748D02*
X51222D01*
X41506Y12248D02*
X51222D01*
X42584Y11248D02*
X51222D01*
X43054Y9248D02*
X51222D01*
X43054Y8748D02*
X51222D01*
X43054Y8248D02*
X51222D01*
X42993Y10248D02*
X51222D01*
X42842Y10748D02*
X51222D01*
X43052Y9748D02*
X51222D01*
X46076Y31873D02*
Y33127D01*
X45076Y29864D02*
Y30136D01*
X46076Y29373D02*
Y30627D01*
X45576Y29782D02*
Y30218D01*
X41585Y30248D02*
X44659D01*
X45576Y27282D02*
Y27718D01*
X45076Y27364D02*
Y27636D01*
X46076Y26873D02*
Y28127D01*
X41584Y29748D02*
X44650D01*
X44576Y27207D02*
Y27793D01*
X41585Y25248D02*
X44659D01*
X44076Y31552D02*
Y33448D01*
X41576Y30300D02*
Y34700D01*
X44076Y29052D02*
Y30948D01*
X41008Y31248D02*
X44034D01*
X41076Y31190D02*
Y33810D01*
X41419Y30748D02*
X44153D01*
X44576Y29707D02*
Y30293D01*
X44076Y26552D02*
Y28448D01*
X41576Y25300D02*
Y29700D01*
X41417Y29248D02*
X44151D01*
X41076Y26190D02*
Y28810D01*
X41419Y25748D02*
X44153D01*
X49576Y500D02*
Y69500D01*
X49076Y500D02*
Y69500D01*
X50576Y500D02*
Y69500D01*
X50076Y500D02*
Y69500D01*
X48076Y500D02*
Y69500D01*
X46576Y500D02*
Y69500D01*
X48576Y500D02*
Y69500D01*
X47576Y500D02*
Y69500D01*
X47076Y500D02*
Y69500D01*
X51076Y500D02*
Y53063D01*
X46076Y24373D02*
Y25627D01*
X44576Y24707D02*
Y25293D01*
X44076Y24052D02*
Y25948D01*
X43576Y500D02*
Y69500D01*
X42576Y11262D02*
Y58738D01*
X42076Y11846D02*
Y58154D01*
X43076Y500D02*
Y69500D01*
X45576Y24782D02*
Y25218D01*
X45076Y24864D02*
Y25136D01*
X41584Y24748D02*
X44650D01*
X41417Y24248D02*
X44151D01*
X41076Y21190D02*
Y23810D01*
X41576Y20300D02*
Y24700D01*
X40076Y31602D02*
Y33398D01*
X39576Y31547D02*
Y33453D01*
X40576Y31497D02*
Y33503D01*
X39076Y31311D02*
Y33689D01*
X36008Y31248D02*
X38992D01*
X38576Y30738D02*
Y34262D01*
X41003Y28748D02*
X44034D01*
X40076Y26602D02*
Y28398D01*
X39576Y26547D02*
Y28453D01*
X36417Y29248D02*
X38583D01*
X36419Y30748D02*
X38581D01*
X36003Y28748D02*
X38997D01*
X36076Y31190D02*
Y33810D01*
X35576Y31497D02*
Y33503D01*
X36576Y30300D02*
Y34700D01*
X34576Y31547D02*
Y33453D01*
X34076Y31311D02*
Y33689D01*
X33576Y30738D02*
Y34262D01*
X36585Y30248D02*
X38415D01*
X35076Y31602D02*
Y33398D01*
X36584Y29748D02*
X38416D01*
X35076Y26602D02*
Y28398D01*
X34576Y26547D02*
Y28453D01*
X40576Y26497D02*
Y28503D01*
X39076Y26311D02*
Y28689D01*
X41008Y26248D02*
X44034D01*
X36008D02*
X38992D01*
X38576Y25738D02*
Y29262D01*
X41003Y23748D02*
X44034D01*
X36585Y25248D02*
X38415D01*
X38576Y20738D02*
Y24262D01*
X36419Y25748D02*
X38581D01*
X36584Y24748D02*
X38416D01*
X36417Y24248D02*
X38583D01*
X38076Y11801D02*
Y58199D01*
X37576Y11184D02*
Y58816D01*
X37076Y500D02*
Y69500D01*
X36076Y26190D02*
Y28810D01*
X33576Y25738D02*
Y29262D01*
X36576Y25300D02*
Y29700D01*
X36076Y21190D02*
Y23810D01*
X35576Y26497D02*
Y28503D01*
X36576Y20300D02*
Y24700D01*
X34076Y26311D02*
Y28689D01*
X33576Y20738D02*
Y24262D01*
X45576Y22282D02*
Y22718D01*
X45076Y22364D02*
Y22636D01*
X46076Y19373D02*
Y20627D01*
Y21873D02*
Y23127D01*
X44576Y22207D02*
Y22793D01*
X41419Y20748D02*
X44153D01*
X45576Y19782D02*
Y20218D01*
X45076Y19864D02*
Y20136D01*
X44576Y19707D02*
Y20293D01*
X41585Y20248D02*
X44659D01*
X41584Y19748D02*
X44650D01*
X44076Y19052D02*
Y20948D01*
Y21552D02*
Y23448D01*
X41576Y15300D02*
Y19700D01*
X40576Y21497D02*
Y23503D01*
X40076Y21602D02*
Y23398D01*
X41008Y21248D02*
X44034D01*
X41417Y19248D02*
X44151D01*
X41003Y18748D02*
X44034D01*
X41076Y16190D02*
Y18810D01*
X40576Y16497D02*
Y18503D01*
X40076Y16602D02*
Y18398D01*
Y12604D02*
Y13398D01*
X45576Y500D02*
Y17718D01*
X45076Y500D02*
Y17636D01*
X46076Y500D02*
Y18127D01*
X43054Y7248D02*
X51222D01*
X43054Y7748D02*
X51222D01*
X44576Y500D02*
Y17793D01*
X42943Y6248D02*
X51222D01*
X43039Y6748D02*
X51222D01*
X42752Y5748D02*
X51222D01*
X41951Y4748D02*
X51222D01*
X42441Y5248D02*
X51222D01*
X41035Y4248D02*
X51222D01*
X43054Y7050D02*
Y9650D01*
X41576Y12209D02*
Y14700D01*
X44076Y500D02*
Y18448D01*
X40576Y12565D02*
Y13503D01*
X39576Y12557D02*
Y13453D01*
X41076Y12438D02*
Y13810D01*
X42076Y500D02*
Y4854D01*
X41576Y500D02*
Y4491D01*
X42576Y500D02*
Y5438D01*
X40576Y500D02*
Y4135D01*
X40076Y500D02*
Y4096D01*
X41076Y500D02*
Y4262D01*
X39576Y21547D02*
Y23453D01*
X39076Y21311D02*
Y23689D01*
X38576Y15738D02*
Y19262D01*
X36003Y23748D02*
X38997D01*
X36008Y21248D02*
X38992D01*
X36419Y20748D02*
X38581D01*
X39576Y16547D02*
Y18453D01*
X39076Y16311D02*
Y18689D01*
X36419Y15748D02*
X38581D01*
X36003Y18748D02*
X38997D01*
X36417Y19248D02*
X38583D01*
X36008Y16248D02*
X38992D01*
X36585Y20248D02*
X38415D01*
X35576Y21497D02*
Y23503D01*
X36584Y19748D02*
X38416D01*
X35076Y21602D02*
Y23398D01*
X34576Y21547D02*
Y23453D01*
X34076Y21311D02*
Y23689D01*
X35576Y16497D02*
Y18503D01*
X35076Y16602D02*
Y18398D01*
X36076Y16190D02*
Y18810D01*
X34576Y16547D02*
Y18453D01*
X34076Y16311D02*
Y18689D01*
X33576Y15738D02*
Y19262D01*
X36585Y15248D02*
X38415D01*
X38576Y12180D02*
Y14262D01*
X36417Y14248D02*
X38583D01*
X36584Y14748D02*
X38416D01*
X36003Y13748D02*
X38997D01*
X39576Y500D02*
Y4143D01*
X39076Y12421D02*
Y13689D01*
Y500D02*
Y4279D01*
X38576Y500D02*
Y4520D01*
X36576Y500D02*
Y14700D01*
Y15300D02*
Y19700D01*
X36076Y500D02*
Y13810D01*
X33576Y500D02*
Y14262D01*
X34076Y500D02*
Y13689D01*
X37576Y500D02*
Y5516D01*
X37146Y7050D02*
Y9650D01*
X38076Y500D02*
Y4899D01*
X35076Y500D02*
Y13398D01*
X34576Y500D02*
Y13453D01*
X35576Y500D02*
Y13503D01*
X32554Y64248D02*
X37446D01*
X32744Y63748D02*
X37256D01*
X32839Y63248D02*
X37161D01*
X32854Y61748D02*
X37146D01*
X30848Y65748D02*
X39152D01*
X31756Y65248D02*
X38244D01*
X32244Y64748D02*
X37756D01*
X32854Y60748D02*
X37146D01*
X32854Y61248D02*
X37146D01*
X32852Y60248D02*
X37148D01*
X32641Y59248D02*
X37359D01*
X32792Y59748D02*
X37208D01*
X32382Y58748D02*
X37618D01*
X32076Y64948D02*
Y69500D01*
X31576Y65383D02*
Y69500D01*
X32576Y64202D02*
Y69500D01*
X30576Y65826D02*
Y69500D01*
X29076Y65787D02*
Y69500D01*
X31076Y65660D02*
Y69500D01*
X32854Y62248D02*
X37146D01*
X32854Y62748D02*
X37146D01*
X32854Y60350D02*
Y62950D01*
X30076Y65899D02*
Y69500D01*
X29576Y65886D02*
Y69500D01*
X28576Y65590D02*
Y69500D01*
X31975Y58248D02*
X38025D01*
X31576Y55300D02*
Y57917D01*
X31584Y54748D02*
X33416D01*
X31585Y55248D02*
X33415D01*
X31298Y57748D02*
X38702D01*
X31008Y56248D02*
X33992D01*
X31419Y55748D02*
X33581D01*
X31417Y54248D02*
X33583D01*
X31419Y50748D02*
X33581D01*
X31576Y50300D02*
Y54700D01*
X31002Y53748D02*
X33998D01*
X31008Y51248D02*
X33992D01*
X30576Y56497D02*
Y57474D01*
X30076Y56602D02*
Y57401D01*
X31076Y56190D02*
Y57640D01*
X29576Y56547D02*
Y57414D01*
X29076Y56311D02*
Y57513D01*
X28576Y55738D02*
Y57709D01*
X30576Y51497D02*
Y53503D01*
X30076Y51602D02*
Y53398D01*
X31076Y51190D02*
Y53810D01*
X29576Y51547D02*
Y53453D01*
X29076Y51311D02*
Y53689D01*
X28576Y50738D02*
Y54262D01*
X18829Y69248D02*
X50815D01*
X18829Y69500D02*
X50815D01*
X28076Y65273D02*
Y69500D01*
X27576Y64773D02*
Y69500D01*
X18829Y68248D02*
X50815D01*
X18829Y68748D02*
X50815D01*
X18829Y67748D02*
X50815D01*
X18829Y66748D02*
X50815D01*
X18829Y67248D02*
X50815D01*
X18829Y66248D02*
X50815D01*
X18829Y65748D02*
X28952D01*
X18829Y65248D02*
X28044D01*
X18829Y64748D02*
X27556D01*
X27076Y63816D02*
Y69500D01*
X26946Y60350D02*
Y62950D01*
X18829Y64248D02*
X27246D01*
X18829Y63748D02*
X27056D01*
X18829Y63248D02*
X26961D01*
X18829Y60748D02*
X26946D01*
X18829Y61248D02*
X26946D01*
X18829Y60248D02*
X26948D01*
X18829Y62248D02*
X26946D01*
X18829Y62748D02*
X26946D01*
X18829Y61748D02*
X26946D01*
X18829Y57248D02*
X50815D01*
X18829Y56748D02*
X50815D01*
X18829Y56248D02*
X28992D01*
X18829Y54248D02*
X28583D01*
X25350Y52248D02*
X44650D01*
X25849Y51748D02*
X44151D01*
X25966Y51248D02*
X28992D01*
X18829Y53248D02*
X50815D01*
X18829Y53748D02*
X28998D01*
X500Y52748D02*
X69500D01*
X18829Y59248D02*
X27159D01*
X18829Y59748D02*
X27008D01*
X25576Y52098D02*
Y69500D01*
X18829Y58248D02*
X27825D01*
X18829Y58748D02*
X27418D01*
X18829Y57748D02*
X28502D01*
X25847Y50748D02*
X28581D01*
X25576Y49598D02*
Y50402D01*
X18829Y55748D02*
X28581D01*
X18829Y55248D02*
X28415D01*
X18829Y54748D02*
X28416D01*
X31584Y49748D02*
X33416D01*
X31585Y50248D02*
X33415D01*
X31576Y45300D02*
Y49700D01*
X31002Y48748D02*
X33998D01*
X31417Y49248D02*
X33583D01*
X31419Y45748D02*
X33581D01*
X31585Y45248D02*
X33415D01*
X31584Y44748D02*
X33416D01*
X31008Y46248D02*
X33992D01*
X31417Y44248D02*
X33583D01*
X31003Y43748D02*
X33998D01*
X30576Y46497D02*
Y48503D01*
X29576Y46547D02*
Y48453D01*
X31076Y46190D02*
Y48810D01*
X29076Y46311D02*
Y48689D01*
X25966Y48748D02*
X28998D01*
X28576Y45738D02*
Y49262D01*
X30076Y41602D02*
Y43398D01*
Y46602D02*
Y48398D01*
X30576Y41497D02*
Y43503D01*
X29576Y41547D02*
Y43453D01*
X25966Y43748D02*
X28997D01*
X29076Y41311D02*
Y43689D01*
X31419Y40748D02*
X33581D01*
X31585Y40248D02*
X33415D01*
X31417Y39248D02*
X33583D01*
X31584Y39748D02*
X33416D01*
X31003Y38748D02*
X33997D01*
X31008Y41248D02*
X33992D01*
X31419Y35748D02*
X33581D01*
X31585Y35248D02*
X33415D01*
X31584Y34748D02*
X33416D01*
X31008Y36248D02*
X33992D01*
X31417Y34248D02*
X33583D01*
X31003Y33748D02*
X33997D01*
X31576Y40300D02*
Y44700D01*
X31076Y41190D02*
Y43810D01*
X31576Y35300D02*
Y39700D01*
X31076Y36190D02*
Y38810D01*
X28576Y40738D02*
Y44262D01*
Y35738D02*
Y39262D01*
X30076Y36602D02*
Y38398D01*
X29576Y36547D02*
Y38453D01*
X30576Y36497D02*
Y38503D01*
X29076Y36311D02*
Y38689D01*
X25966Y38748D02*
X28997D01*
X25849Y46748D02*
X44151D01*
X25849Y49248D02*
X28583D01*
X25966Y46248D02*
X28992D01*
X25849Y44248D02*
X28583D01*
X25341Y47748D02*
X44659D01*
X25847Y48248D02*
X44153D01*
X25350Y47248D02*
X44650D01*
X25849Y41748D02*
X44151D01*
X25966Y41248D02*
X28992D01*
X25847Y40748D02*
X28581D01*
X25341Y42748D02*
X44659D01*
X25847Y43248D02*
X44153D01*
X25350Y42248D02*
X44650D01*
X25350Y49748D02*
X28416D01*
X25341Y50248D02*
X28415D01*
X25576Y47098D02*
Y47902D01*
X25076Y49843D02*
Y50157D01*
X25847Y45748D02*
X28581D01*
X25576Y44598D02*
Y45402D01*
Y42098D02*
Y42902D01*
X25350Y44748D02*
X28416D01*
X25341Y45248D02*
X28415D01*
X25849Y36748D02*
X44151D01*
X25849Y39248D02*
X28583D01*
X25966Y36248D02*
X28992D01*
X25341Y37748D02*
X44659D01*
X25847Y38248D02*
X44153D01*
X25350Y37248D02*
X44650D01*
X25966Y33748D02*
X28997D01*
X25849Y34248D02*
X28583D01*
X25847Y33248D02*
X44153D01*
X25847Y35748D02*
X28581D01*
X25350Y34748D02*
X28416D01*
X25341Y32748D02*
X44659D01*
X25350Y39748D02*
X28416D01*
X25341Y40248D02*
X28415D01*
X25576Y39598D02*
Y40402D01*
X25076Y39843D02*
Y40157D01*
X25341Y35248D02*
X28415D01*
X25576Y37098D02*
Y37902D01*
Y34598D02*
Y35402D01*
X25076Y34843D02*
Y35157D01*
X18829Y69500D02*
X18829Y52987D01*
X8829D02*
Y60500D01*
X25076Y52343D02*
Y69500D01*
X24576Y52332D02*
Y69500D01*
X5624Y58748D02*
X8829D01*
X5624Y59248D02*
X8829D01*
X5624Y58248D02*
X8829D01*
X5603Y55748D02*
X8829D01*
X5624Y57748D02*
X8829D01*
Y52987D02*
X18829D01*
X5586Y56248D02*
X8829D01*
X5293Y56748D02*
X8829D01*
X5364Y55248D02*
X8829D01*
X5576Y59604D02*
Y60500D01*
X5076Y59604D02*
Y60500D01*
X5624Y57396D02*
Y59604D01*
X4576D02*
Y60500D01*
X5576Y56283D02*
Y57396D01*
X5076Y56914D02*
Y57396D01*
X5576Y52329D02*
Y55637D01*
X4576Y57063D02*
Y57396D01*
X5624Y52248D02*
X24350D01*
X24076Y52054D02*
Y69500D01*
X24576Y49832D02*
Y50168D01*
X24076Y49554D02*
Y50446D01*
X5624Y50248D02*
X24359D01*
X5624Y50748D02*
X23853D01*
X4819Y49748D02*
X24350D01*
X25076Y47343D02*
Y47657D01*
X24576Y47332D02*
Y47668D01*
X24076Y47054D02*
Y47946D01*
X5534Y48248D02*
X23853D01*
X5470Y49248D02*
X23851D01*
X5104Y47748D02*
X24359D01*
X5624Y51748D02*
X23851D01*
X5624Y51248D02*
X23734D01*
X5624Y50121D02*
Y52329D01*
X5076D02*
Y55006D01*
X4576Y52329D02*
Y54857D01*
X5576Y49008D02*
Y50121D01*
X5622Y48748D02*
X23734D01*
X5076Y49639D02*
Y50121D01*
X5576Y46468D02*
Y48362D01*
X4576Y47248D02*
Y47582D01*
Y49788D02*
Y50121D01*
X5076Y47099D02*
Y47731D01*
X3416Y59604D02*
X5624D01*
X4076D02*
Y60500D01*
X3416Y57396D02*
X5624D01*
X500Y60248D02*
X8829D01*
X500Y60500D02*
X8829Y60500D01*
X500Y59748D02*
X8829D01*
X500Y57248D02*
X8829D01*
X500Y54748D02*
X8829D01*
X3576Y59604D02*
Y60500D01*
X500Y59248D02*
X3416D01*
Y57396D02*
Y59604D01*
X500Y58248D02*
X3416D01*
X500Y58748D02*
X3416D01*
X500Y57748D02*
X3416D01*
X4076Y56971D02*
Y57396D01*
X500Y56748D02*
X3747D01*
X3576Y56532D02*
Y57396D01*
X500Y56248D02*
X3454D01*
X500Y55748D02*
X3437D01*
X500Y55248D02*
X3676D01*
X3416Y52329D02*
X5624D01*
X4076D02*
Y54949D01*
X3416Y50121D02*
X5624D01*
X500Y53748D02*
X8829D01*
X500Y54248D02*
X8829D01*
X500Y53248D02*
X8829D01*
X4076Y49696D02*
Y50121D01*
Y47156D02*
Y47674D01*
X500Y49748D02*
X4221D01*
X500Y47748D02*
X3936D01*
X3576Y52329D02*
Y55388D01*
X500Y52248D02*
X3416D01*
Y50121D02*
Y52329D01*
X500Y51248D02*
X3416D01*
X500Y51748D02*
X3416D01*
X500Y50748D02*
X3416D01*
X3576Y49257D02*
Y50121D01*
X500Y50248D02*
X3416D01*
X3576Y46717D02*
Y48113D01*
X500Y49248D02*
X3570D01*
X500Y48748D02*
X3418D01*
X500Y48248D02*
X3506D01*
X25076Y44843D02*
Y45157D01*
X24576Y44832D02*
Y45168D01*
X24076Y42054D02*
Y42946D01*
Y44554D02*
Y45446D01*
X5163Y45248D02*
X24359D01*
X5550Y45748D02*
X23853D01*
X5565Y43248D02*
X23853D01*
X25076Y42343D02*
Y42657D01*
X24576Y42332D02*
Y42668D01*
Y39832D02*
Y40168D01*
X5216Y42748D02*
X24359D01*
X5262Y40248D02*
X24359D01*
X24076Y39554D02*
Y40446D01*
X5619Y46248D02*
X23734D01*
X5576Y43928D02*
Y45822D01*
X5615Y43748D02*
X23734D01*
X5445Y46748D02*
X23851D01*
X5076Y44559D02*
Y45191D01*
X5418Y44248D02*
X23851D01*
X5609Y41248D02*
X23734D01*
X5576Y41388D02*
Y43282D01*
X5577Y40748D02*
X23853D01*
X5076Y42019D02*
Y42651D01*
X4576Y42168D02*
Y42502D01*
X5387Y41748D02*
X23851D01*
X25076Y37343D02*
Y37657D01*
X24576Y37332D02*
Y37668D01*
X24076Y34554D02*
Y35446D01*
Y37054D02*
Y37946D01*
X5304Y37748D02*
X24359D01*
X5589Y38248D02*
X23853D01*
X5598Y35748D02*
X23853D01*
X24576Y34832D02*
Y35168D01*
X5606Y33248D02*
X23853D01*
X25076Y32343D02*
Y32657D01*
X5342Y35248D02*
X24359D01*
X5278Y34248D02*
X23851D01*
X5376Y32748D02*
X24359D01*
X5601Y38748D02*
X23734D01*
X5576Y38848D02*
Y40742D01*
Y36308D02*
Y38202D01*
X5354Y39248D02*
X23851D01*
X5076Y39479D02*
Y40111D01*
Y36939D02*
Y37571D01*
X5592Y36248D02*
X23734D01*
X5576Y33768D02*
Y35662D01*
X5582Y33748D02*
X23734D01*
X5318Y36748D02*
X23851D01*
X4576Y34548D02*
Y34882D01*
X5076Y34399D02*
Y35031D01*
X4570Y47248D02*
X24350D01*
X4576Y44708D02*
Y45042D01*
X4076Y44616D02*
Y45134D01*
X500Y47248D02*
X4470D01*
X500Y45248D02*
X3877D01*
X500Y44748D02*
X24350D01*
X4076Y42076D02*
Y42594D01*
X4576Y39628D02*
Y39962D01*
X500Y42248D02*
X24350D01*
X500Y42748D02*
X3824D01*
X500Y39748D02*
X24350D01*
X500Y46748D02*
X3595D01*
X500Y46248D02*
X3421D01*
X3576Y44177D02*
Y45573D01*
X500Y44248D02*
X3622D01*
X500Y45748D02*
X3490D01*
X500Y43748D02*
X3425D01*
X500Y41748D02*
X3653D01*
X500Y43248D02*
X3475D01*
X3576Y41637D02*
Y43033D01*
X500Y40748D02*
X3463D01*
X500Y41248D02*
X3431D01*
X500Y40248D02*
X3778D01*
X4576Y37088D02*
Y37422D01*
X4076Y39536D02*
Y40054D01*
Y36996D02*
Y37514D01*
X500Y37748D02*
X3736D01*
X500Y37248D02*
X24350D01*
X4076Y34456D02*
Y34974D01*
X500Y34748D02*
X24350D01*
X500Y36748D02*
X3722D01*
X500Y34248D02*
X3762D01*
X500Y39248D02*
X3686D01*
X3576Y39097D02*
Y40493D01*
Y36557D02*
Y37953D01*
X500Y38248D02*
X3451D01*
X500Y38748D02*
X3439D01*
X500Y36248D02*
X3448D01*
X500Y35248D02*
X3698D01*
X500Y35748D02*
X3442D01*
X3576Y34017D02*
Y35413D01*
X500Y33748D02*
X3458D01*
X500Y33248D02*
X3434D01*
X500Y32748D02*
X3664D01*
X31585Y30248D02*
X33415D01*
X31576Y30300D02*
Y34700D01*
X31584Y29748D02*
X33416D01*
X31576Y25300D02*
Y29700D01*
X31008Y31248D02*
X33992D01*
X31419Y30748D02*
X33581D01*
X31417Y29248D02*
X33583D01*
X31419Y25748D02*
X33581D01*
X31585Y25248D02*
X33415D01*
X31003Y28748D02*
X33997D01*
X31008Y26248D02*
X33992D01*
X31076Y26190D02*
Y28810D01*
X30576Y31497D02*
Y33503D01*
X30076Y31602D02*
Y33398D01*
X31076Y31190D02*
Y33810D01*
X29576Y31547D02*
Y33453D01*
X29076Y31311D02*
Y33689D01*
X28576Y30738D02*
Y34262D01*
X30076Y26602D02*
Y28398D01*
X29576Y26547D02*
Y28453D01*
X30576Y26497D02*
Y28503D01*
X29076Y26311D02*
Y28689D01*
X25966Y28748D02*
X28997D01*
X28576Y25738D02*
Y29262D01*
X31584Y24748D02*
X33416D01*
X32076Y11648D02*
Y58352D01*
X33076Y500D02*
Y69500D01*
X32576Y10902D02*
Y59098D01*
X31003Y23748D02*
X33997D01*
X31417Y24248D02*
X33583D01*
X31584Y19748D02*
X33416D01*
X31585Y20248D02*
X33415D01*
X31008Y21248D02*
X33992D01*
X31419Y20748D02*
X33581D01*
X31576Y20300D02*
Y24700D01*
X28076Y11973D02*
Y58027D01*
X27576Y11473D02*
Y58527D01*
X27076Y10516D02*
Y59484D01*
X26576Y500D02*
Y69500D01*
X26076Y500D02*
Y69500D01*
X30576Y21497D02*
Y23503D01*
X30076Y21602D02*
Y23398D01*
X31076Y21190D02*
Y23810D01*
X29576Y21547D02*
Y23453D01*
X29076Y21311D02*
Y23689D01*
X28576Y20738D02*
Y24262D01*
X25849Y31748D02*
X44151D01*
X25966Y31248D02*
X28992D01*
X25849Y29248D02*
X28583D01*
X25847Y30748D02*
X28581D01*
X25350Y32248D02*
X44650D01*
X25341Y30248D02*
X28415D01*
X25350Y29748D02*
X28416D01*
X25849Y26748D02*
X44151D01*
X25966Y26248D02*
X28992D01*
X25847Y25748D02*
X28581D01*
X25341Y27748D02*
X44659D01*
X25847Y28248D02*
X44153D01*
X25350Y27248D02*
X44650D01*
X25576Y32098D02*
Y32902D01*
X24576Y32332D02*
Y32668D01*
X25576Y29598D02*
Y30402D01*
X5407Y30248D02*
X24359D01*
X24576Y29832D02*
Y30168D01*
X25076Y27343D02*
Y27657D01*
Y29843D02*
Y30157D01*
X25576Y27098D02*
Y27902D01*
X5435Y27748D02*
X24359D01*
X24576Y27332D02*
Y27668D01*
X25966Y23748D02*
X28997D01*
X25849Y24248D02*
X28583D01*
X25847Y23248D02*
X44153D01*
X25350Y24748D02*
X28416D01*
X25341Y25248D02*
X28415D01*
X25849Y21748D02*
X44151D01*
X25966Y21248D02*
X28992D01*
X25847Y20748D02*
X28581D01*
X25341Y22748D02*
X44659D01*
X25350Y22248D02*
X44650D01*
X25341Y20248D02*
X28415D01*
X25576Y24598D02*
Y25402D01*
X25076Y24843D02*
Y25157D01*
X25576Y22098D02*
Y22902D01*
X24576Y24832D02*
Y25168D01*
Y22332D02*
Y22668D01*
X25076Y19843D02*
Y20157D01*
Y22343D02*
Y22657D01*
X25576Y19598D02*
Y20402D01*
X24576Y19832D02*
Y20168D01*
X31417Y19248D02*
X33583D01*
X31419Y15748D02*
X33581D01*
X31585Y15248D02*
X33415D01*
X31576Y15300D02*
Y19700D01*
X31003Y18748D02*
X33997D01*
X31008Y16248D02*
X33992D01*
X31584Y14748D02*
X33416D01*
X31576Y12083D02*
Y14700D01*
X31980Y11748D02*
X38020D01*
X31003Y13748D02*
X33997D01*
X31417Y14248D02*
X33583D01*
X31306Y12248D02*
X38694D01*
X30576Y16497D02*
Y18503D01*
X30076Y16602D02*
Y18398D01*
X31076Y16190D02*
Y18810D01*
X29576Y16547D02*
Y18453D01*
X29076Y16311D02*
Y18689D01*
X28576Y15738D02*
Y19262D01*
X30576Y12526D02*
Y13503D01*
X30076Y12599D02*
Y13398D01*
X31076Y12360D02*
Y13810D01*
X29576Y12586D02*
Y13453D01*
X29076Y12487D02*
Y13689D01*
X28576Y12290D02*
Y14262D01*
X32852Y9748D02*
X37148D01*
X32854Y9248D02*
X37146D01*
X32854Y7248D02*
X37146D01*
X32854Y7748D02*
X37146D01*
X32384Y11248D02*
X37616D01*
X32642Y10748D02*
X37358D01*
X32793Y10248D02*
X37207D01*
X32743Y6248D02*
X37257D01*
X32839Y6748D02*
X37161D01*
X32552Y5748D02*
X37448D01*
X31751Y4748D02*
X38249D01*
X32241Y5248D02*
X37759D01*
X30835Y4248D02*
X39165D01*
X32854Y8248D02*
X37146D01*
X32854Y8748D02*
X37146D01*
X32854Y7050D02*
Y9650D01*
X32076Y500D02*
Y5052D01*
X31576Y500D02*
Y4617D01*
X32576Y500D02*
Y5798D01*
X30576Y500D02*
Y4174D01*
X30076Y500D02*
Y4101D01*
X31076Y500D02*
Y4340D01*
X29076Y500D02*
Y4213D01*
X28576Y500D02*
Y4410D01*
X29576Y500D02*
Y4114D01*
X25966Y18748D02*
X28997D01*
X25849Y19248D02*
X28583D01*
X25341Y17748D02*
X44659D01*
X25847Y18248D02*
X44153D01*
X5070Y17248D02*
X64416D01*
X18778Y16748D02*
X51222D01*
X18778Y16248D02*
X28992D01*
X18778Y12748D02*
X51222D01*
X18778Y13248D02*
X51222D01*
X18778Y14248D02*
X28583D01*
X18778Y15748D02*
X28581D01*
X18778Y13748D02*
X28997D01*
X25350Y19748D02*
X28416D01*
X18778Y15248D02*
X28415D01*
X18778Y14748D02*
X28416D01*
X18778Y12248D02*
X28494D01*
X18778Y11748D02*
X27820D01*
X18778Y11248D02*
X27416D01*
X18778Y10748D02*
X27158D01*
X18778Y10248D02*
X27007D01*
X18778Y9748D02*
X26948D01*
X18778Y8748D02*
X26946D01*
X18778Y9248D02*
X26946D01*
X18778Y8248D02*
X26946D01*
X18778Y4748D02*
X28049D01*
X28076Y500D02*
Y4727D01*
X18778Y3748D02*
X51222D01*
X18778Y4248D02*
X28965D01*
X18778Y3248D02*
X51222D01*
X18778Y748D02*
X51222D01*
X18778Y1248D02*
X51222D01*
X18778Y500D02*
X51222D01*
X18778Y2248D02*
X51222D01*
X18778Y2748D02*
X51222D01*
X18778Y1748D02*
X51222D01*
X26946Y7050D02*
Y9650D01*
X25576Y500D02*
Y17902D01*
X25076Y500D02*
Y17657D01*
X18778Y7248D02*
X26946D01*
X18778Y7748D02*
X26946D01*
X24576Y500D02*
Y17668D01*
X27076Y500D02*
Y6184D01*
X18778Y6248D02*
X27057D01*
X27576Y500D02*
Y5227D01*
X18778Y5748D02*
X27248D01*
X18778Y6748D02*
X26961D01*
X18778Y5248D02*
X27559D01*
X24076Y29554D02*
Y30446D01*
Y32054D02*
Y32946D01*
X18576Y17013D02*
Y52987D01*
X18076Y17013D02*
Y52987D01*
X5613Y30748D02*
X23853D01*
X5569Y31248D02*
X23734D01*
X17576Y17013D02*
Y52987D01*
X24076Y27054D02*
Y27946D01*
X5621Y25748D02*
X23853D01*
X24076Y24554D02*
Y25446D01*
X5618Y28248D02*
X23853D01*
X5555Y28748D02*
X23734D01*
X5540Y26248D02*
X23734D01*
X16576Y17013D02*
Y52987D01*
X16076Y17013D02*
Y52987D01*
X17076Y17013D02*
Y52987D01*
X15076Y17013D02*
Y52987D01*
X14576Y17013D02*
Y52987D01*
X15576Y17013D02*
Y52987D01*
X13576Y17013D02*
Y52987D01*
X5576Y31228D02*
Y33122D01*
X14076Y17013D02*
Y52987D01*
X5576Y26148D02*
Y28042D01*
Y28688D02*
Y30582D01*
Y23608D02*
Y25502D01*
X22576Y500D02*
Y69500D01*
X22076Y500D02*
Y69500D01*
X23576Y500D02*
Y69500D01*
X23076Y500D02*
Y69500D01*
X21076Y500D02*
Y69500D01*
X20576Y500D02*
Y69500D01*
X21576Y500D02*
Y69500D01*
X19576Y500D02*
Y69500D01*
X19076Y500D02*
Y69500D01*
X20076Y500D02*
Y69500D01*
X12576Y17013D02*
Y52987D01*
X12076Y17013D02*
Y52987D01*
X13076Y17013D02*
Y52987D01*
X8076Y9500D02*
Y60500D01*
X7576Y9500D02*
Y60500D01*
X8576Y9500D02*
Y60500D01*
X6576Y13546D02*
Y60500D01*
X6076Y13836D02*
Y60500D01*
X7076Y9500D02*
Y60500D01*
X11076Y17013D02*
Y52987D01*
X10576Y17013D02*
Y52987D01*
X11576Y17013D02*
Y52987D01*
X9576Y17013D02*
Y52987D01*
X9076Y17013D02*
Y52987D01*
X10076Y17013D02*
Y52987D01*
X5076Y31859D02*
Y32491D01*
X4576Y32008D02*
Y32342D01*
X5233Y31748D02*
X23851D01*
X5076Y29319D02*
Y29951D01*
X500Y32248D02*
X24350D01*
X4076Y29376D02*
Y29894D01*
X5183Y29248D02*
X23851D01*
X4576Y29468D02*
Y29802D01*
Y26928D02*
Y27262D01*
X500Y29748D02*
X24350D01*
X500Y27248D02*
X24350D01*
X4076Y31916D02*
Y32434D01*
X3576Y31477D02*
Y32873D01*
Y28937D02*
Y30333D01*
X500Y31748D02*
X3807D01*
X500Y31248D02*
X3471D01*
X500Y30748D02*
X3427D01*
X500Y27748D02*
X3605D01*
X500Y28248D02*
X3422D01*
X4076Y26836D02*
Y27354D01*
X500Y29248D02*
X3857D01*
X500Y30248D02*
X3633D01*
X500Y28748D02*
X3485D01*
X5126Y26748D02*
X23851D01*
X5076Y26779D02*
Y27411D01*
X5461Y25248D02*
X24359D01*
X500Y26748D02*
X3914D01*
X5076Y24239D02*
Y24871D01*
X4762Y24748D02*
X24350D01*
X4576Y24388D02*
Y24722D01*
X4076Y24296D02*
Y24814D01*
X500Y24748D02*
X4278D01*
X500Y24248D02*
X3980D01*
X3076Y13874D02*
Y60500D01*
X2576Y13874D02*
Y60500D01*
X2076Y9500D02*
Y60500D01*
X576Y9500D02*
Y60500D01*
X500Y9500D02*
Y60500D01*
X1576Y9500D02*
Y60500D01*
X3576Y23857D02*
Y25253D01*
Y26397D02*
Y27793D01*
X1076Y9500D02*
Y60500D01*
X500Y26248D02*
X3500D01*
X500Y25748D02*
X3419D01*
X500Y25248D02*
X3579D01*
X5485Y22748D02*
X24359D01*
X5623Y23248D02*
X23853D01*
X24076Y22054D02*
Y22946D01*
X5624Y20748D02*
X23853D01*
X4899Y22248D02*
X24350D01*
X5060Y24248D02*
X23851D01*
X4981Y21748D02*
X23851D01*
X24076Y19554D02*
Y20446D01*
X5623Y18248D02*
X23853D01*
X5525Y17748D02*
X24359D01*
X5506Y20248D02*
X24359D01*
X4994Y19748D02*
X24350D01*
X4882Y19248D02*
X23851D01*
X5522Y23748D02*
X23734D01*
X5576Y21068D02*
Y22962D01*
Y18528D02*
Y20422D01*
X5076Y21699D02*
Y22331D01*
X4576Y21848D02*
Y22182D01*
X5503Y21248D02*
X23734D01*
X8778Y17013D02*
X18778D01*
X5576Y13853D02*
Y17882D01*
X6302Y13748D02*
X8778D01*
X5076Y19159D02*
Y19791D01*
X4576Y19308D02*
Y19642D01*
X5481Y18748D02*
X23734D01*
X18778Y500D02*
X18778Y17013D01*
X8778Y9500D02*
Y17013D01*
X24076Y500D02*
Y17946D01*
X6785Y13248D02*
X8778D01*
X6763Y12248D02*
X8778D01*
X6894Y12748D02*
X8778D01*
X6576Y9500D02*
Y11994D01*
X6207Y11748D02*
X8778D01*
X6076Y9500D02*
Y11704D01*
X5076Y13612D02*
Y17251D01*
X4576Y9500D02*
Y17102D01*
X4354Y13748D02*
X5278D01*
X4354Y13248D02*
X4795D01*
X4354Y11666D02*
Y13874D01*
X5576Y9500D02*
Y11687D01*
X5076Y9500D02*
Y11928D01*
X4354Y12248D02*
X4817D01*
X4354Y12748D02*
X4686D01*
X4354Y11748D02*
X5373D01*
X4076Y21756D02*
Y22274D01*
Y19216D02*
Y19734D01*
X500Y22248D02*
X4141D01*
X500Y21748D02*
X4059D01*
X500Y19748D02*
X4046D01*
X500Y15248D02*
X8778D01*
X500Y15748D02*
X8778D01*
X500Y14748D02*
X8778D01*
X500Y16748D02*
X8778D01*
X500Y19248D02*
X4158D01*
X500Y16248D02*
X8778D01*
X500Y23748D02*
X3518D01*
X500Y23248D02*
X3417D01*
X3576Y21317D02*
Y22713D01*
X500Y22748D02*
X3555D01*
X500Y21248D02*
X3537D01*
X500Y20748D02*
X3416D01*
X3576Y18777D02*
Y20173D01*
X500Y20248D02*
X3534D01*
X500Y18748D02*
X3559D01*
X500Y17748D02*
X3515D01*
X500Y18248D02*
X3417D01*
X500Y17248D02*
X3970D01*
X4076Y13874D02*
Y17194D01*
X3576Y13874D02*
Y17633D01*
X4076Y9500D02*
Y11666D01*
X500Y14248D02*
X8778D01*
X2146Y13874D02*
X4354D01*
X500Y11248D02*
X8778D01*
X2146Y11666D02*
X4354D01*
X500Y10748D02*
X8778D01*
X500Y9748D02*
X8778D01*
X500Y10248D02*
X8778D01*
X500Y9500D02*
X8778D01*
X500Y13248D02*
X2146D01*
X500Y13748D02*
X2146D01*
Y11666D02*
Y13874D01*
X3076Y9500D02*
Y11666D01*
X2576Y9500D02*
Y11666D01*
X3576Y9500D02*
Y11666D01*
X500Y12248D02*
X2146D01*
X500Y12748D02*
X2146D01*
X500Y11748D02*
X2146D01*
D12*
X65520Y58500D02*
X66524D01*
X65520Y55960D02*
X66524D01*
X65520Y58500D02*
Y59504D01*
Y57496D02*
Y58500D01*
X64516D02*
X65520D01*
Y54956D02*
Y55960D01*
Y56964D01*
X64516Y55960D02*
X65520D01*
X66790Y12770D02*
X67794D01*
X66790D02*
Y13774D01*
Y11766D02*
Y12770D01*
X65786D02*
X66790D01*
X64250D02*
Y13774D01*
Y11766D02*
Y12770D01*
X65254D01*
X63246D02*
X64250D01*
X4520Y58500D02*
Y59504D01*
Y58500D02*
X5524D01*
X4520Y57496D02*
Y58500D01*
Y55960D02*
Y56964D01*
X3516Y58500D02*
X4520D01*
Y55960D02*
X5524D01*
X3516D02*
X4520D01*
Y54956D02*
Y55960D01*
X4786Y12770D02*
X5790D01*
X6794D01*
X5790D02*
Y13774D01*
Y11766D02*
Y12770D01*
X3250D02*
X4254D01*
X2246D02*
X3250D01*
Y13774D01*
Y11766D02*
Y12770D01*
D22*
X65520Y58500D02*
D03*
X4520Y58500D02*
D03*
X65520Y18205D02*
D03*
X4520Y51225D02*
D03*
D23*
X65520Y55960D02*
D03*
X4520Y55960D02*
D03*
X66790Y12770D02*
D03*
X5790Y12770D02*
D03*
X65520Y51225D02*
D03*
Y48685D02*
D03*
Y46145D02*
D03*
Y43605D02*
D03*
Y41065D02*
D03*
Y38525D02*
D03*
Y35985D02*
D03*
Y33445D02*
D03*
Y30905D02*
D03*
Y28365D02*
D03*
Y25825D02*
D03*
Y23285D02*
D03*
Y20745D02*
D03*
X4520Y18205D02*
D03*
Y20745D02*
D03*
Y23285D02*
D03*
Y25825D02*
D03*
Y28365D02*
D03*
Y30905D02*
D03*
Y33445D02*
D03*
Y35985D02*
D03*
Y38525D02*
D03*
Y41065D02*
D03*
Y43605D02*
D03*
Y46145D02*
D03*
Y48685D02*
D03*
D24*
X64250Y12770D02*
D03*
X3250Y12770D02*
D03*
D25*
X29900Y8350D02*
D03*
X40100D02*
D03*
X29900Y61650D02*
D03*
X40100D02*
D03*
D26*
X35000Y15000D02*
D03*
X40000D02*
D03*
X30000D02*
D03*
X35000Y55000D02*
D03*
X40000D02*
D03*
X30000D02*
D03*
Y20000D02*
D03*
Y50000D02*
D03*
Y35000D02*
D03*
Y40000D02*
D03*
Y45000D02*
D03*
Y30000D02*
D03*
Y25000D02*
D03*
X40000Y20000D02*
D03*
Y50000D02*
D03*
Y35000D02*
D03*
Y40000D02*
D03*
Y45000D02*
D03*
Y30000D02*
D03*
Y25000D02*
D03*
X35000D02*
D03*
Y30000D02*
D03*
Y45000D02*
D03*
Y40000D02*
D03*
Y35000D02*
D03*
Y50000D02*
D03*
Y20000D02*
D03*
D27*
X24850Y51250D02*
D03*
Y48750D02*
D03*
Y46250D02*
D03*
Y43750D02*
D03*
Y41250D02*
D03*
Y38750D02*
D03*
Y36250D02*
D03*
Y33750D02*
D03*
Y31250D02*
D03*
Y28750D02*
D03*
Y26250D02*
D03*
Y23750D02*
D03*
Y21250D02*
D03*
Y18750D02*
D03*
X45150D02*
D03*
Y21250D02*
D03*
Y23750D02*
D03*
Y26250D02*
D03*
Y28750D02*
D03*
Y31250D02*
D03*
Y33750D02*
D03*
Y36250D02*
D03*
Y38750D02*
D03*
Y41250D02*
D03*
Y43750D02*
D03*
Y46250D02*
D03*
Y48750D02*
D03*
Y51250D02*
D03*
D28*
X66500Y66500D02*
D03*
Y3500D02*
D03*
X3500Y3500D02*
D03*
Y66500D02*
D03*
X56222Y12013D02*
D03*
X13778D02*
D03*
X13829Y57987D02*
D03*
X55815Y58063D02*
D03*
M02*
