M48
;Layer_Color=9474304
;FILE_FORMAT=4:3
METRIC,LZ
;TYPE=PLATED
T1F00S00C0.700
T2F00S00C0.762
T3F00S00C0.900
T5F00S00C4.000
%
T01
X002485Y001875
Y002125
Y002375
Y002625
Y002875
Y003125
X004515
Y002875
Y002625
Y002375
Y002125
Y001875
Y003375
Y003625
Y003875
Y004125
Y004375
Y004625
Y004875
Y005125
X002485
Y004875
Y004625
Y004375
Y004125
Y003875
Y003625
Y003375
T02
X003Y0015
X0035
X004
Y002
Y0025
Y003
X0035
X003
Y0025
Y002
X0035
Y0025
Y0035
X003
Y004
Y0045
Y005
Y0055
X0035
X004
Y005
Y0045
Y004
Y0035
X0035Y004
Y0045
Y005
T03
X000325Y001277
X000579
X000452Y0018205
Y0020745
Y0023285
Y0025825
Y0028365
Y0030905
X006552
Y0028365
Y0025825
Y0023285
Y0020745
Y0018205
X006425Y001277
X006679
X006552Y0033445
Y0035985
Y0038525
Y0041065
Y0043605
Y0046145
Y0048685
Y0051225
Y005596
Y00585
X000452Y00585
Y005596
Y0051225
Y0048685
Y0046145
Y0043605
Y0041065
Y0038525
Y0035985
Y0033445
T05
X00035Y00035
X0013778Y0012013
X0056222
X00665Y00035
Y00665
X0055815Y0058063
X0013829Y0057987
X00035Y00665
M30
