G04*
G04 #@! TF.GenerationSoftware,Altium Limited,Altium Designer,18.0.9 (584)*
G04*
G04 Layer_Physical_Order=2*
G04 Layer_Color=16711680*
%FSLAX44Y44*%
%MOMM*%
G71*
G01*
G75*
%ADD11C,0.2000*%
%ADD12C,0.2540*%
%ADD32R,1.5000X1.5000*%
%ADD33C,1.5000*%
%ADD34C,4.0000*%
%ADD35C,0.8000*%
D11*
X768787Y485399D02*
G03*
X768787Y485399I-11040J0D01*
G01*
X768740Y427670D02*
G03*
X768740Y427670I-11040J0D01*
G01*
X767470Y402270D02*
G03*
X767470Y402270I-9770J0D01*
G01*
Y376870D02*
G03*
X767470Y376870I-9770J0D01*
G01*
Y351470D02*
G03*
X767470Y351470I-9770J0D01*
G01*
Y326070D02*
G03*
X767470Y326070I-9770J0D01*
G01*
Y300670D02*
G03*
X767470Y300670I-9770J0D01*
G01*
Y275270D02*
G03*
X767470Y275270I-9770J0D01*
G01*
X474790Y314500D02*
G03*
X474790Y314500I-7540J0D01*
G01*
X415040Y213000D02*
G03*
X415040Y213000I-7540J0D01*
G01*
X402693Y274552D02*
G03*
X402693Y274552I-7540J0D01*
G01*
X768730Y173140D02*
G03*
X768730Y173140I-11040J0D01*
G01*
X743330D02*
G03*
X743330Y173140I-11040J0D01*
G01*
X768730Y147740D02*
G03*
X768730Y147740I-11040J0D01*
G01*
X743330D02*
G03*
X743330Y147740I-11040J0D01*
G01*
Y122340D02*
G03*
X743330Y122340I-11040J0D01*
G01*
X56740Y355730D02*
G03*
X56740Y355730I-9770J0D01*
G01*
Y330330D02*
G03*
X56740Y330330I-9770J0D01*
G01*
Y304930D02*
G03*
X56740Y304930I-9770J0D01*
G01*
Y203330D02*
G03*
X56740Y203330I-9770J0D01*
G01*
Y279530D02*
G03*
X56740Y279530I-9770J0D01*
G01*
Y254130D02*
G03*
X56740Y254130I-9770J0D01*
G01*
Y228730D02*
G03*
X56740Y228730I-9770J0D01*
G01*
Y177930D02*
G03*
X56740Y177930I-9770J0D01*
G01*
X58010Y152530D02*
G03*
X58010Y152530I-11040J0D01*
G01*
X58043Y94601D02*
G03*
X58043Y94601I-11040J0D01*
G01*
X768771Y485998D02*
X790000D01*
X767375Y479998D02*
X790000D01*
X766597Y491998D02*
X790000D01*
X768787Y455998D02*
X790000D01*
X768787Y467998D02*
X790000D01*
X763997Y471039D02*
Y476299D01*
X768787Y448959D02*
Y471039D01*
X763997Y494499D02*
Y540000D01*
X768787Y449998D02*
X790000D01*
X768787Y461998D02*
X790000D01*
X767856Y431998D02*
X790000D01*
X768613Y425998D02*
X790000D01*
X765639Y419998D02*
X790000D01*
X765614Y407998D02*
X790000D01*
X765191Y395998D02*
X790000D01*
X763997Y409740D02*
Y418602D01*
Y436738D02*
Y448959D01*
X767466Y401998D02*
X790000D01*
X763997Y384340D02*
Y394800D01*
X647500Y539998D02*
X790000D01*
X647500Y533998D02*
X790000D01*
X647500Y540000D02*
X790000D01*
X647500Y521998D02*
X790000D01*
X647500Y527998D02*
X790000D01*
X647500Y509998D02*
X790000D01*
X647500Y503998D02*
X790000D01*
X647500Y515998D02*
X790000D01*
X647500Y497998D02*
X790000D01*
X746707Y471039D02*
X768787D01*
X647500Y473998D02*
X790000D01*
X761600Y437998D02*
X790000D01*
X746707Y448959D02*
X768787D01*
X766645Y329999D02*
X790000D01*
X767248Y323998D02*
X790000D01*
X765889Y305998D02*
X790000D01*
X767447Y299998D02*
X790000D01*
X764837Y293999D02*
X790000D01*
X767405Y377998D02*
X790000D01*
X766169Y371998D02*
X790000D01*
X764381Y383998D02*
X790000D01*
X767137Y353998D02*
X790000D01*
X766832Y347998D02*
X790000D01*
X767443Y275999D02*
X790000D01*
X765926Y269999D02*
X790000D01*
X764784Y281999D02*
X790000D01*
X767470Y251999D02*
X790000D01*
X767470Y257999D02*
X790000D01*
X767470Y245999D02*
X790000D01*
X767470Y240100D02*
Y259640D01*
X768697Y173999D02*
X790000D01*
X766341Y179999D02*
X790000D01*
X762467Y359998D02*
X790000D01*
X760096Y341998D02*
X790000D01*
X763205Y317999D02*
X790000D01*
X474363Y311999D02*
X790000D01*
X763997Y358940D02*
Y369400D01*
Y333540D02*
Y344000D01*
Y308140D02*
Y318600D01*
X414418Y215999D02*
X790000D01*
X414417Y209999D02*
X790000D01*
X763997Y282740D02*
Y293200D01*
X747930Y259640D02*
X767470D01*
X763997Y182201D02*
Y240100D01*
X747930D02*
X767470D01*
X757997Y496436D02*
Y540000D01*
X751997Y494824D02*
Y540000D01*
Y471039D02*
Y475975D01*
X757997Y471039D02*
Y474362D01*
Y438706D02*
Y448959D01*
Y386636D02*
Y392505D01*
Y412035D02*
Y416634D01*
X751997Y410203D02*
Y418217D01*
Y437123D02*
Y448959D01*
Y359403D02*
Y368937D01*
Y384803D02*
Y394337D01*
X647500Y485998D02*
X746723D01*
X647500Y479998D02*
X748118D01*
X647500Y491998D02*
X748896D01*
X647500Y467998D02*
X746707D01*
X560000Y462500D02*
Y540000D01*
X647500Y462500D02*
Y540000D01*
X469997Y321522D02*
Y540000D01*
X746707Y448959D02*
Y471039D01*
X560000Y462500D02*
X647500D01*
X727997Y183311D02*
Y540000D01*
X721997Y177132D02*
Y540000D01*
X463997Y321302D02*
Y540000D01*
X739997Y181045D02*
Y540000D01*
X733997Y184047D02*
Y540000D01*
X397998Y281534D02*
Y540000D01*
X391998Y281400D02*
Y540000D01*
X409998Y220114D02*
Y540000D01*
X403998Y219677D02*
Y540000D01*
X757997Y335835D02*
Y341704D01*
Y310436D02*
Y316304D01*
Y361236D02*
Y367104D01*
X763997Y259640D02*
Y267800D01*
X757997Y285035D02*
Y290905D01*
X751997Y334003D02*
Y343537D01*
Y308603D02*
Y318137D01*
X473929Y317999D02*
X752195D01*
X757997Y259640D02*
Y265504D01*
X751997Y283203D02*
Y292737D01*
Y259640D02*
Y267337D01*
X757997Y184176D02*
Y240100D01*
X751997Y182599D02*
Y240100D01*
X740941Y179999D02*
X749039D01*
X747930Y240100D02*
Y259640D01*
X743297Y173999D02*
X746684D01*
X402552Y275999D02*
X747957D01*
X396333Y281999D02*
X750616D01*
X401163Y269999D02*
X749474D01*
X767460Y167999D02*
X790000D01*
X768496Y149999D02*
X790000D01*
X765016Y155999D02*
X790000D01*
X768077Y143999D02*
X790000D01*
X762886Y137999D02*
X790000D01*
X757997Y158776D02*
Y162104D01*
X763997Y156801D02*
Y164079D01*
X775997Y10000D02*
Y540000D01*
X781997Y10000D02*
Y540000D01*
X769997Y10000D02*
Y540000D01*
X790000Y10000D02*
Y540000D01*
X787997Y10000D02*
Y540000D01*
X763997Y133380D02*
Y138679D01*
X757997Y133380D02*
Y136704D01*
X751997Y133380D02*
Y138281D01*
X742060Y167999D02*
X747920D01*
X751997Y157199D02*
Y163681D01*
X739616Y155999D02*
X750364D01*
X739997Y155645D02*
Y165235D01*
X743096Y149999D02*
X746884D01*
X733997Y158647D02*
Y162233D01*
X745997Y10000D02*
Y540000D01*
X742677Y143999D02*
X747303D01*
X737486Y137999D02*
X752495D01*
X739997Y130245D02*
Y139835D01*
X733997Y133247D02*
Y136833D01*
X768730Y131999D02*
X790000D01*
X768730Y125999D02*
X790000D01*
X746650Y133380D02*
X768730D01*
Y113999D02*
X790000D01*
X768730Y119999D02*
X790000D01*
X742706Y125999D02*
X746650D01*
X743079Y119999D02*
X746650D01*
X768730Y111300D02*
Y133380D01*
X746650Y111300D02*
X768730D01*
X763997Y10000D02*
Y111300D01*
X757997Y10000D02*
Y111300D01*
X746650D02*
Y133380D01*
X739997Y10000D02*
Y114435D01*
X751997Y10000D02*
Y111300D01*
X739522Y113999D02*
X746650D01*
X647500Y77999D02*
X790000D01*
X647500Y71999D02*
X790000D01*
X647500Y83999D02*
X790000D01*
X647500Y53999D02*
X790000D01*
X647500Y59999D02*
X790000D01*
X737637Y131999D02*
X746650D01*
X647500Y65999D02*
X790000D01*
X647500Y41999D02*
X790000D01*
X647500Y35999D02*
X790000D01*
X647500Y47999D02*
X790000D01*
X647500Y23999D02*
X790000D01*
X647500Y29999D02*
X790000D01*
X733997Y10000D02*
Y111433D01*
X647500Y17999D02*
X790000D01*
X647500Y10000D02*
X790000D01*
X647500Y11999D02*
X790000D01*
X559997Y10000D02*
Y540000D01*
X649997Y10000D02*
Y540000D01*
X553997Y10000D02*
Y540000D01*
X661997Y10000D02*
Y540000D01*
X655997Y10000D02*
Y540000D01*
X529997Y10000D02*
Y540000D01*
X535997Y10000D02*
Y540000D01*
X523997Y10000D02*
Y540000D01*
X547997Y10000D02*
Y540000D01*
X541997Y10000D02*
Y540000D01*
X697997Y10000D02*
Y540000D01*
X703997Y10000D02*
Y540000D01*
X691997Y10000D02*
Y540000D01*
X715997Y10000D02*
Y540000D01*
X709997Y10000D02*
Y540000D01*
X673997Y10000D02*
Y540000D01*
X667997Y10000D02*
Y540000D01*
X685997Y10000D02*
Y540000D01*
X679997Y10000D02*
Y540000D01*
X421998Y10000D02*
Y540000D01*
X427998Y10000D02*
Y540000D01*
X415998Y10000D02*
Y540000D01*
X451997Y10000D02*
Y540000D01*
X433998Y10000D02*
Y540000D01*
X367998Y10000D02*
Y540000D01*
X373998Y10000D02*
Y540000D01*
X361998Y10000D02*
Y540000D01*
X385998Y10000D02*
Y540000D01*
X379998Y10000D02*
Y540000D01*
X499997Y10000D02*
Y540000D01*
X505997Y10000D02*
Y540000D01*
X493997Y10000D02*
Y540000D01*
X517997Y10000D02*
Y540000D01*
X511997Y10000D02*
Y540000D01*
X475998Y10000D02*
Y540000D01*
X457998Y10000D02*
Y540000D01*
X487998Y10000D02*
Y540000D01*
X481997Y10000D02*
Y540000D01*
X727997Y157911D02*
Y162969D01*
X721997Y151732D02*
Y169148D01*
Y126332D02*
Y143748D01*
X727997Y132511D02*
Y137569D01*
X643997Y85000D02*
Y462500D01*
X721997Y10000D02*
Y118348D01*
X637997Y85000D02*
Y462500D01*
X727997Y10000D02*
Y112169D01*
X647500Y10000D02*
Y85000D01*
X619997D02*
Y462500D01*
X613997Y85000D02*
Y462500D01*
X631997Y85000D02*
Y462500D01*
X625997Y85000D02*
Y462500D01*
X595997Y85000D02*
Y462500D01*
X601997Y85000D02*
Y462500D01*
X589997Y85000D02*
Y462500D01*
X607997Y85000D02*
Y462500D01*
X562500Y85000D02*
X647500D01*
X571997D02*
Y462500D01*
X565997Y85000D02*
Y462500D01*
X583997Y85000D02*
Y462500D01*
X577997Y85000D02*
Y462500D01*
X445998Y10000D02*
Y540000D01*
X463997Y10000D02*
Y307698D01*
X439998Y10000D02*
Y540000D01*
X562500Y10000D02*
Y85000D01*
X469997Y10000D02*
Y307478D01*
X397998Y10000D02*
Y267569D01*
X391998Y10000D02*
Y267703D01*
X409998Y10000D02*
Y205886D01*
X403998Y10000D02*
Y206323D01*
X225000Y533998D02*
X560000D01*
X225000Y527998D02*
X560000D01*
X225000Y539998D02*
X560000D01*
X225000Y509998D02*
X560000D01*
X225000Y521998D02*
X560000D01*
X225000Y540000D02*
X560000D01*
X225000Y515998D02*
X560000D01*
X10000Y527998D02*
X140000D01*
X225000Y503998D02*
X560000D01*
X10000Y509998D02*
X140000D01*
X225000Y491998D02*
X560000D01*
X225000Y485998D02*
X560000D01*
X225000Y497998D02*
X560000D01*
X225000Y473998D02*
X560000D01*
X225000Y479998D02*
X560000D01*
X225000Y462500D02*
Y540000D01*
X140000Y462500D02*
Y540000D01*
X225000Y467998D02*
X560000D01*
X140000Y462500D02*
X225000D01*
X10000Y485998D02*
X140000D01*
X10000Y479998D02*
X140000D01*
X10000Y497998D02*
X140000D01*
X10000Y467998D02*
X140000D01*
X10000Y473998D02*
X140000D01*
X10000Y533998D02*
X140000D01*
X10000Y521998D02*
X140000D01*
X10000Y540000D02*
X140000D01*
X10000Y503998D02*
X140000D01*
X10000Y515998D02*
X140000D01*
X10000Y437998D02*
X753800D01*
X10000Y431998D02*
X747544D01*
X10000Y443998D02*
X790000D01*
X10000Y413998D02*
X790000D01*
X10000Y419998D02*
X749761D01*
X10000Y455998D02*
X746707D01*
X10000Y461998D02*
X746707D01*
X10000Y425998D02*
X746787D01*
X10000Y449998D02*
X746707D01*
X56740Y389998D02*
X790000D01*
X56740Y383998D02*
X751019D01*
X55758Y359998D02*
X752933D01*
X56681Y305998D02*
X749511D01*
X54928Y335998D02*
X790000D01*
X56740Y377998D02*
X747995D01*
X56740Y371998D02*
X749231D01*
X56585Y353998D02*
X748263D01*
X56734Y329999D02*
X748755D01*
X54411Y323998D02*
X748152D01*
X55404Y299998D02*
X747953D01*
X56713Y227999D02*
X790000D01*
X55198Y233999D02*
X790000D01*
X56717Y203999D02*
X790000D01*
X55157Y197999D02*
X790000D01*
X56423Y281999D02*
X393972D01*
X56079Y275999D02*
X387753D01*
X56505Y251999D02*
X747930D01*
X55941Y257999D02*
X747930D01*
X10000Y365998D02*
X790000D01*
X10000Y341998D02*
X755304D01*
X10000Y395998D02*
X750209D01*
X51842Y287999D02*
X790000D01*
X10000Y293999D02*
X750563D01*
X10000Y401998D02*
X747934D01*
X52943Y347998D02*
X748568D01*
X10000Y407998D02*
X749786D01*
X53715Y311999D02*
X460137D01*
X10000Y317999D02*
X460571D01*
X10000Y239999D02*
X790000D01*
X54051Y221999D02*
X790000D01*
X10000Y263999D02*
X790000D01*
X52479Y185999D02*
X790000D01*
X10000Y191999D02*
X790000D01*
X52386Y245999D02*
X747930D01*
X49116Y269999D02*
X389142D01*
X54110Y209999D02*
X400583D01*
X10000Y215999D02*
X400582D01*
X55998Y390900D02*
Y540000D01*
X56740Y371360D02*
Y390900D01*
X37200Y371360D02*
X56740D01*
X55998Y359464D02*
Y371360D01*
X49998Y365019D02*
Y371360D01*
X43998Y390900D02*
Y540000D01*
X49998Y390900D02*
Y540000D01*
X37998Y390900D02*
Y540000D01*
X43998Y365037D02*
Y371360D01*
X37998Y359598D02*
Y371360D01*
X55998Y334064D02*
Y351996D01*
Y308664D02*
Y326596D01*
X49998Y339619D02*
Y346441D01*
X55998Y283264D02*
Y301196D01*
X49998Y314219D02*
Y321041D01*
X43998Y339637D02*
Y346423D01*
X37998Y334198D02*
Y351862D01*
X43998Y314237D02*
Y321023D01*
X37998Y308798D02*
Y326462D01*
X10000Y491998D02*
X140000D01*
X37200Y390900D02*
X56740D01*
X10000Y539998D02*
X140000D01*
X10000Y353998D02*
X37355D01*
X10000Y359998D02*
X38182D01*
X10000Y389998D02*
X37200D01*
Y371360D02*
Y390900D01*
X10000Y383998D02*
X37200D01*
X10000Y371998D02*
X37200D01*
X10000Y377998D02*
X37200D01*
X10000Y347998D02*
X40997D01*
X10000Y311999D02*
X40225D01*
X10000Y329999D02*
X37206D01*
X10000Y335998D02*
X39012D01*
X10000Y305998D02*
X37259D01*
X10000Y323998D02*
X39529D01*
X49998Y288819D02*
Y295641D01*
X55998Y257864D02*
Y275796D01*
X49998Y263419D02*
Y270241D01*
Y238019D02*
Y244841D01*
X43998Y263437D02*
Y270223D01*
Y288837D02*
Y295623D01*
X37998Y283398D02*
Y301062D01*
Y257998D02*
Y275662D01*
X43998Y238037D02*
Y244823D01*
X37998Y232598D02*
Y250262D01*
X55998Y232464D02*
Y250396D01*
Y207064D02*
Y224996D01*
X49998Y212619D02*
Y219441D01*
Y187219D02*
Y194041D01*
X43998Y212637D02*
Y219423D01*
X37998Y207198D02*
Y224862D01*
X43998Y187237D02*
Y194023D01*
X37998Y181798D02*
Y199462D01*
X10000Y299998D02*
X38536D01*
X10000Y287999D02*
X42098D01*
X10000Y245999D02*
X41554D01*
X10000Y269999D02*
X44824D01*
X10000Y275999D02*
X37861D01*
X10000Y281999D02*
X37517D01*
X10000Y251999D02*
X37435D01*
X10000Y257999D02*
X37998D01*
X10000Y221999D02*
X39889D01*
X10000Y185999D02*
X41461D01*
X10000Y209999D02*
X39830D01*
X10000Y227999D02*
X37227D01*
X10000Y233999D02*
X38742D01*
X10000Y197999D02*
X38783D01*
X10000Y203999D02*
X37223D01*
X283998Y10000D02*
Y540000D01*
X289998Y10000D02*
Y540000D01*
X277998Y10000D02*
Y540000D01*
X301998Y10000D02*
Y540000D01*
X295998Y10000D02*
Y540000D01*
X253998Y10000D02*
Y540000D01*
X259998Y10000D02*
Y540000D01*
X247998Y10000D02*
Y540000D01*
X271998Y10000D02*
Y540000D01*
X265998Y10000D02*
Y540000D01*
X337998Y10000D02*
Y540000D01*
X343998Y10000D02*
Y540000D01*
X331998Y10000D02*
Y540000D01*
X355998Y10000D02*
Y540000D01*
X349998Y10000D02*
Y540000D01*
X313998Y10000D02*
Y540000D01*
X307998Y10000D02*
Y540000D01*
X325998Y10000D02*
Y540000D01*
X319998Y10000D02*
Y540000D01*
X217998Y85000D02*
Y462500D01*
X223998Y85000D02*
Y462500D01*
X211998Y85000D02*
Y462500D01*
X56519Y179999D02*
X723639D01*
X55914Y173999D02*
X721283D01*
X187998Y85000D02*
Y462500D01*
X193998Y85000D02*
Y462500D01*
X157998Y85000D02*
Y462500D01*
X205998Y85000D02*
Y462500D01*
X199998Y85000D02*
Y462500D01*
X235998Y10000D02*
Y540000D01*
X241998Y10000D02*
Y540000D01*
X229998Y10000D02*
Y540000D01*
X181998Y85000D02*
Y462500D01*
X175998Y85000D02*
Y462500D01*
X151998Y85000D02*
Y462500D01*
X145998Y85000D02*
Y462500D01*
X169998Y85000D02*
Y462500D01*
X163998Y85000D02*
Y462500D01*
X58043Y113999D02*
X725058D01*
X225000Y83999D02*
X562500D01*
X58043Y125999D02*
X721874D01*
X225000Y71999D02*
X562500D01*
X225000Y77999D02*
X562500D01*
X225000Y65999D02*
X562500D01*
X225000Y59999D02*
X562500D01*
X140000Y85000D02*
X225000D01*
Y47999D02*
X562500D01*
X225000Y53999D02*
X562500D01*
X225000Y35999D02*
X562500D01*
X225000Y29999D02*
X562500D01*
X225000Y41999D02*
X562500D01*
X225000Y17999D02*
X562500D01*
X225000Y23999D02*
X562500D01*
X225000Y10000D02*
Y85000D01*
X140000Y10000D02*
Y85000D01*
X225000Y10000D02*
X562500D01*
X225000Y11999D02*
X562500D01*
X52647Y161999D02*
X790000D01*
X10000Y137999D02*
X727095D01*
X10000Y131999D02*
X726943D01*
X55198Y101999D02*
X790000D01*
X10000Y107999D02*
X790000D01*
X57451Y155999D02*
X724964D01*
X57716Y149999D02*
X721484D01*
X10000Y167999D02*
X722520D01*
X58043Y119999D02*
X721501D01*
X53977Y143999D02*
X721903D01*
X57954Y95999D02*
X790000D01*
X57038Y89999D02*
X790000D01*
X50082Y83999D02*
X140000D01*
X10000Y41999D02*
X140000D01*
X10000Y77999D02*
X140000D01*
X10000Y29999D02*
X140000D01*
X10000Y35999D02*
X140000D01*
X10000Y10000D02*
X140000D01*
X10000Y23999D02*
X140000D01*
X109998Y10000D02*
Y540000D01*
X115998Y10000D02*
Y540000D01*
X103998Y10000D02*
Y540000D01*
X139998Y10000D02*
Y540000D01*
X121998Y10000D02*
Y540000D01*
X55998Y181664D02*
Y199596D01*
Y158884D02*
Y174196D01*
X49998Y163146D02*
Y168641D01*
X55998Y131041D02*
Y146176D01*
X91998Y10000D02*
Y540000D01*
X97998Y10000D02*
Y540000D01*
X85998Y10000D02*
Y540000D01*
X133998Y10000D02*
Y540000D01*
X127998Y10000D02*
Y540000D01*
X67998Y10000D02*
Y540000D01*
X61998Y10000D02*
Y540000D01*
X79998Y10000D02*
Y540000D01*
X73998Y10000D02*
Y540000D01*
X43998Y163163D02*
Y168623D01*
X10000Y161999D02*
X41293D01*
X10000Y179999D02*
X37422D01*
X37998Y158964D02*
Y174062D01*
X10000Y173999D02*
X38026D01*
X10000Y149999D02*
X36224D01*
X10000Y155999D02*
X36489D01*
X31998Y10000D02*
Y540000D01*
X37998Y131041D02*
Y146096D01*
X10000Y143999D02*
X39963D01*
X13998Y10000D02*
Y540000D01*
X10000Y10000D02*
Y540000D01*
X25998Y10000D02*
Y540000D01*
X19998Y10000D02*
Y540000D01*
X49998Y131041D02*
Y141913D01*
X58043Y108961D02*
Y131041D01*
X55998Y101002D02*
Y108961D01*
X49998Y105227D02*
Y108961D01*
X43998Y131041D02*
Y141897D01*
Y105224D02*
Y108961D01*
X55998Y10000D02*
Y88200D01*
X49998Y10000D02*
Y83975D01*
X37998Y100988D02*
Y108961D01*
X43998Y10000D02*
Y83978D01*
X37998Y10000D02*
Y88214D01*
X35963Y131041D02*
X58043D01*
X35963Y108961D02*
X58043D01*
X10000Y101999D02*
X38809D01*
X10000Y89999D02*
X36968D01*
X10000Y95999D02*
X36052D01*
X35963Y108961D02*
Y131041D01*
X10000Y125999D02*
X35963D01*
X10000Y113999D02*
X35963D01*
X10000Y119999D02*
X35963D01*
X10000Y53999D02*
X140000D01*
X10000Y47999D02*
X140000D01*
X10000Y59999D02*
X140000D01*
X10000Y11999D02*
X140000D01*
X10000Y17999D02*
X140000D01*
X10000Y83999D02*
X43925D01*
X10000Y65999D02*
X140000D01*
X10000Y71999D02*
X140000D01*
D12*
X757747Y485399D02*
X767787D01*
X757747Y459999D02*
X767787D01*
X757700Y427670D02*
X767740D01*
X757690Y173140D02*
X767730D01*
X757747Y485399D02*
Y495439D01*
Y475359D02*
Y485399D01*
X747707D02*
X757747D01*
Y449959D02*
Y459999D01*
X747707D02*
X757747D01*
Y470039D01*
X757700Y427670D02*
Y437710D01*
Y417630D02*
Y427670D01*
X747660D02*
X757700D01*
X757690Y173140D02*
Y183180D01*
X732290Y173140D02*
Y183180D01*
X722250Y173140D02*
X732290D01*
X467250Y314500D02*
Y321040D01*
Y314500D02*
X473790D01*
X467250Y307960D02*
Y314500D01*
X460710D02*
X467250D01*
X395153Y274552D02*
Y281091D01*
X388613Y274552D02*
X395153D01*
X407500Y213000D02*
Y219540D01*
Y213000D02*
X414040D01*
X407500Y206460D02*
Y213000D01*
X395153Y268011D02*
Y274552D01*
X400960Y213000D02*
X407500D01*
X395153Y274552D02*
X401693D01*
X757690Y163100D02*
Y173140D01*
Y147740D02*
X767730D01*
X757690D02*
Y157780D01*
Y137700D02*
Y147740D01*
X747650Y173140D02*
X757690D01*
X732290D02*
X742330D01*
X747650Y147740D02*
X757690D01*
X732290D02*
X742330D01*
X757690Y122340D02*
X767730D01*
X757690D02*
Y132380D01*
X747650Y122340D02*
X757690D01*
Y112300D02*
Y122340D01*
X732290D02*
Y132380D01*
Y122340D02*
X742330D01*
X732290Y147740D02*
Y157780D01*
Y137700D02*
Y147740D01*
Y163100D02*
Y173140D01*
X722250Y122340D02*
X732290D01*
X722250Y147740D02*
X732290D01*
Y112300D02*
Y122340D01*
X46970Y152530D02*
X57010D01*
X46970D02*
Y162570D01*
X36930Y152530D02*
X46970D01*
Y142490D02*
Y152530D01*
X47003Y120001D02*
X57043D01*
X47003D02*
Y130041D01*
Y109961D02*
Y120001D01*
X36963D02*
X47003D01*
Y94601D02*
X57043D01*
X47003D02*
Y104641D01*
X36963Y94601D02*
X47003D01*
Y84561D02*
Y94601D01*
D32*
X757747Y459999D02*
D03*
X47003Y120001D02*
D03*
X757700Y249870D02*
D03*
X757690Y122340D02*
D03*
X46970Y381130D02*
D03*
D33*
X757747Y485399D02*
D03*
X47003Y94601D02*
D03*
X757700Y427670D02*
D03*
Y402270D02*
D03*
Y376870D02*
D03*
Y351470D02*
D03*
Y326070D02*
D03*
Y300670D02*
D03*
Y275270D02*
D03*
X732290Y173140D02*
D03*
Y147740D02*
D03*
Y122340D02*
D03*
X757690Y173140D02*
D03*
Y147740D02*
D03*
X46970Y330330D02*
D03*
Y152530D02*
D03*
Y177930D02*
D03*
Y203330D02*
D03*
Y228730D02*
D03*
Y254130D02*
D03*
Y279530D02*
D03*
Y304930D02*
D03*
Y355730D02*
D03*
D34*
X603072Y504552D02*
D03*
X183210Y503790D02*
D03*
X182702Y44050D02*
D03*
X607136D02*
D03*
D35*
X395153Y274552D02*
D03*
X407500Y213000D02*
D03*
X467250Y314500D02*
D03*
M02*
