G04*
G04 #@! TF.GenerationSoftware,Altium Limited,Altium Designer,18.0.9 (584)*
G04*
G04 Layer_Color=8388736*
%FSLAX44Y44*%
%MOMM*%
G71*
G01*
G75*
%ADD14R,1.6032X1.2532*%
%ADD15R,0.9232X1.0832*%
%ADD16O,3.2032X0.4532*%
%ADD17O,0.4532X3.2032*%
%ADD18R,2.2032X2.2032*%
%ADD19R,1.0832X0.9232*%
%ADD20R,1.2532X1.6032*%
%ADD21R,1.7032X1.7032*%
%ADD22C,1.7032*%
%ADD23C,4.2032*%
%ADD24C,1.0032*%
D14*
X291751Y283801D02*
D03*
Y265301D02*
D03*
X563290Y199540D02*
D03*
Y181040D02*
D03*
X523040Y247820D02*
D03*
Y229320D02*
D03*
D15*
X226347Y254552D02*
D03*
Y294552D02*
D03*
X240147Y254552D02*
D03*
Y294552D02*
D03*
D16*
X365653Y287051D02*
D03*
Y282052D02*
D03*
Y277052D02*
D03*
Y272051D02*
D03*
Y267052D02*
D03*
Y262052D02*
D03*
X424653D02*
D03*
Y267052D02*
D03*
Y272051D02*
D03*
Y277052D02*
D03*
Y282052D02*
D03*
Y287051D02*
D03*
D17*
X382653Y245051D02*
D03*
X387653D02*
D03*
X392653D02*
D03*
X397653D02*
D03*
X402653D02*
D03*
X407653D02*
D03*
Y304051D02*
D03*
X402653D02*
D03*
X397653D02*
D03*
X392653D02*
D03*
X387653D02*
D03*
X382653D02*
D03*
D18*
X395153Y274552D02*
D03*
D19*
X485977Y300678D02*
D03*
Y314478D02*
D03*
X436915Y347495D02*
D03*
Y361295D02*
D03*
D20*
X503010Y181710D02*
D03*
X484510D02*
D03*
D21*
X757747Y459999D02*
D03*
X47003Y120001D02*
D03*
X757700Y249870D02*
D03*
X757690Y122340D02*
D03*
X46970Y381130D02*
D03*
D22*
X757747Y485399D02*
D03*
X47003Y94601D02*
D03*
X757700Y427670D02*
D03*
Y402270D02*
D03*
Y376870D02*
D03*
Y351470D02*
D03*
Y326070D02*
D03*
Y300670D02*
D03*
Y275270D02*
D03*
X732290Y173140D02*
D03*
Y147740D02*
D03*
Y122340D02*
D03*
X757690Y173140D02*
D03*
Y147740D02*
D03*
X46970Y330330D02*
D03*
Y152530D02*
D03*
Y177930D02*
D03*
Y203330D02*
D03*
Y228730D02*
D03*
Y254130D02*
D03*
Y279530D02*
D03*
Y304930D02*
D03*
Y355730D02*
D03*
D23*
X603072Y504552D02*
D03*
X183210Y503790D02*
D03*
X182702Y44050D02*
D03*
X607136D02*
D03*
D24*
X395153Y274552D02*
D03*
X407500Y213000D02*
D03*
X467250Y314500D02*
D03*
M02*
