G04*
G04 #@! TF.GenerationSoftware,Altium Limited,Altium Designer,18.0.9 (584)*
G04*
G04 Layer_Physical_Order=1*
G04 Layer_Color=255*
%FSLAX44Y44*%
%MOMM*%
G71*
G01*
G75*
%ADD12C,0.2540*%
%ADD25R,1.4000X1.0500*%
%ADD26R,0.7200X0.8800*%
%ADD27O,3.0000X0.2500*%
%ADD28O,0.2500X3.0000*%
%ADD29R,2.0000X2.0000*%
%ADD30R,0.8800X0.7200*%
%ADD31R,1.0500X1.4000*%
%ADD32R,1.5000X1.5000*%
%ADD33C,1.5000*%
%ADD34C,4.0000*%
%ADD35C,0.8000*%
G36*
X120000Y430000D02*
X20000D01*
Y530000D01*
X120000D01*
Y430000D01*
D02*
G37*
D12*
X303101Y232500D02*
X337653Y267052D01*
X169704Y232500D02*
X303101D01*
X122674Y279530D02*
X169704Y232500D01*
X300601Y220000D02*
X342653Y262052D01*
X164704Y220000D02*
X300601D01*
X130574Y254130D02*
X164704Y220000D01*
X424653Y267052D02*
X467449D01*
X263974Y355730D02*
X337653Y282052D01*
X365653D01*
X337653Y267052D02*
X365653D01*
X208887Y272012D02*
X226347Y254552D01*
X46970Y304930D02*
X57130Y315090D01*
X208887Y277092D02*
X226347Y294552D01*
X177297Y277092D02*
X208887D01*
X46970Y330330D02*
X57130Y320170D01*
X134218D01*
X175193Y272012D02*
X208887D01*
X134218Y320170D02*
X177297Y277092D01*
X132114Y315090D02*
X175193Y272012D01*
X57130Y315090D02*
X132114D01*
X306771Y272051D02*
X365653D01*
X300021Y265301D02*
X306771Y272051D01*
X291751Y265301D02*
X300021D01*
Y283801D02*
X306771Y277052D01*
X291751Y283801D02*
X300021D01*
X306771Y277052D02*
X365653D01*
X283481Y265301D02*
X291751D01*
X276771Y272012D02*
X283481Y265301D01*
X257607Y272012D02*
X276771D01*
X283481Y283801D02*
X291751D01*
X276771Y277092D02*
X283481Y283801D01*
X257607Y277092D02*
X276771D01*
X240147Y294552D02*
X257607Y277092D01*
X240147Y254552D02*
X257607Y272012D01*
X345153Y287051D02*
X365653D01*
X251074Y381130D02*
X345153Y287051D01*
X210250Y381130D02*
X251074D01*
X249750Y355730D02*
X263974D01*
X342653Y262052D02*
X365653D01*
X133874Y203330D02*
X147204Y190000D01*
X46970Y203330D02*
X133874D01*
X132724Y228730D02*
X151454Y210000D01*
X46970Y228730D02*
X132724D01*
X46970Y254130D02*
X130574D01*
X46970Y279530D02*
X122674D01*
X407500Y213000D02*
X407653Y213153D01*
X467500Y198720D02*
X484510Y181710D01*
X467500Y198720D02*
Y245000D01*
X450448Y262052D02*
X467500Y245000D01*
X424653Y262052D02*
X450448D01*
X515720Y383250D02*
X547500Y351470D01*
X423250Y383250D02*
X515720D01*
X392653Y352653D02*
X423250Y383250D01*
X526620Y392750D02*
X542500Y376870D01*
X420250Y392750D02*
X526620D01*
X426250Y373750D02*
X489250D01*
X426295Y361295D02*
X436915D01*
X422648Y347495D02*
X436915D01*
X407653Y332500D02*
X422648Y347495D01*
X407653Y304051D02*
Y332500D01*
X467250Y314500D02*
X467272Y314478D01*
X485977D01*
Y300670D02*
X757700Y300670D01*
X424653Y287051D02*
X472351D01*
X485977Y300678D01*
X397653Y223153D02*
X407653Y213153D01*
Y245051D01*
X424653Y282052D02*
X667719D01*
X498809Y272051D02*
X523040Y247820D01*
X505180Y229320D02*
X523040D01*
X467449Y267052D02*
X505180Y229320D01*
X523040Y212710D02*
Y229320D01*
Y212710D02*
X545500Y190250D01*
X370930Y177930D02*
X392653Y199653D01*
X368000Y190000D02*
X387653Y209653D01*
X151454Y210000D02*
X378000D01*
X382653Y214653D01*
Y375153D02*
X409770Y402270D01*
X387653Y360153D02*
X420250Y392750D01*
X397653Y345153D02*
X426250Y373750D01*
X397653Y304051D02*
Y345153D01*
X402653Y304051D02*
Y337653D01*
X426295Y361295D01*
X667719Y282052D02*
X674500Y275270D01*
X589480Y190250D02*
X674500Y275270D01*
X545500Y190250D02*
X589480D01*
X549949Y277052D02*
X563290Y263710D01*
X424653Y277052D02*
X549949D01*
X424653Y272051D02*
X498809D01*
X489250Y373750D02*
X536930Y326070D01*
X540000D01*
X619170Y181040D02*
X688000Y249870D01*
X563290Y181040D02*
X619170D01*
X563290Y199540D02*
Y263710D01*
X562620Y181710D02*
X563290Y181040D01*
X503010Y181710D02*
X562620D01*
X542500Y376870D02*
X757700Y376870D01*
X382653Y304051D02*
Y375153D01*
X387653Y304051D02*
Y360153D01*
X392653Y304051D02*
Y352653D01*
X397653Y223153D02*
Y245051D01*
X347930Y177930D02*
X370930D01*
X392653Y199653D02*
Y245051D01*
X147204Y190000D02*
X368000D01*
X387653Y209653D02*
Y245051D01*
X382653Y214653D02*
Y245051D01*
X674500Y275270D02*
X757700D01*
X46970Y177930D02*
X347930Y177930D01*
X46970Y355730D02*
X249750Y355730D01*
X47250Y381130D02*
X210250Y381130D01*
X540000Y326070D02*
X757700Y326070D01*
X409770Y402270D02*
X757700Y402270D01*
X547500Y351470D02*
X757700Y351470D01*
X688000Y249870D02*
X757700D01*
D25*
X291751Y283801D02*
D03*
Y265301D02*
D03*
X563290Y199540D02*
D03*
Y181040D02*
D03*
X523040Y247820D02*
D03*
Y229320D02*
D03*
D26*
X226347Y254552D02*
D03*
Y294552D02*
D03*
X240147Y254552D02*
D03*
Y294552D02*
D03*
D27*
X365653Y287051D02*
D03*
Y282052D02*
D03*
Y277052D02*
D03*
Y272051D02*
D03*
Y267052D02*
D03*
Y262052D02*
D03*
X424653D02*
D03*
Y267052D02*
D03*
Y272051D02*
D03*
Y277052D02*
D03*
Y282052D02*
D03*
Y287051D02*
D03*
D28*
X382653Y245051D02*
D03*
X387653D02*
D03*
X392653D02*
D03*
X397653D02*
D03*
X402653D02*
D03*
X407653D02*
D03*
Y304051D02*
D03*
X402653D02*
D03*
X397653D02*
D03*
X392653D02*
D03*
X387653D02*
D03*
X382653D02*
D03*
D29*
X395153Y274552D02*
D03*
D30*
X485977Y300678D02*
D03*
Y314478D02*
D03*
X436915Y347495D02*
D03*
Y361295D02*
D03*
D31*
X503010Y181710D02*
D03*
X484510D02*
D03*
D32*
X757747Y459999D02*
D03*
X47003Y120001D02*
D03*
X757700Y249870D02*
D03*
X757690Y122340D02*
D03*
X46970Y381130D02*
D03*
D33*
X757747Y485399D02*
D03*
X47003Y94601D02*
D03*
X757700Y427670D02*
D03*
Y402270D02*
D03*
Y376870D02*
D03*
Y351470D02*
D03*
Y326070D02*
D03*
Y300670D02*
D03*
Y275270D02*
D03*
X732290Y173140D02*
D03*
Y147740D02*
D03*
Y122340D02*
D03*
X757690Y173140D02*
D03*
Y147740D02*
D03*
X46970Y330330D02*
D03*
Y152530D02*
D03*
Y177930D02*
D03*
Y203330D02*
D03*
Y228730D02*
D03*
Y254130D02*
D03*
Y279530D02*
D03*
Y304930D02*
D03*
Y355730D02*
D03*
D34*
X603072Y504552D02*
D03*
X183210Y503790D02*
D03*
X182702Y44050D02*
D03*
X607136D02*
D03*
D35*
X395153Y274552D02*
D03*
X407500Y213000D02*
D03*
X467250Y314500D02*
D03*
M02*
