G04*
G04 #@! TF.GenerationSoftware,Altium Limited,Altium Designer,18.0.9 (584)*
G04*
G04 Layer_Color=65535*
%FSLAX44Y44*%
%MOMM*%
G71*
G01*
G75*
%ADD10C,0.2500*%
%ADD11C,0.2000*%
%ADD12C,0.2540*%
%ADD13C,0.0500*%
D10*
X366903Y295051D02*
G03*
X366903Y295051I-1250J0D01*
G01*
D11*
X745047Y498099D02*
X770447D01*
Y447299D02*
Y498099D01*
X745047Y447299D02*
X770447D01*
X745047D02*
Y498099D01*
X34303Y81901D02*
X59703D01*
X34303D02*
Y132701D01*
X59703D01*
Y81901D02*
Y132701D01*
X285751Y273552D02*
Y275551D01*
X297751Y273552D02*
Y275551D01*
X373153Y292301D02*
Y296551D01*
X377403D01*
X412903D02*
X417153D01*
Y292301D02*
Y296551D01*
Y252551D02*
Y256801D01*
X412903Y252551D02*
X417153D01*
X373153D02*
Y256801D01*
Y252551D02*
X377403D01*
X569290Y189290D02*
Y191290D01*
X557290Y189290D02*
Y191290D01*
X492760Y175710D02*
X494760D01*
X492760Y187710D02*
X494760D01*
X529040Y237570D02*
Y239570D01*
X517040Y237570D02*
Y239570D01*
X745000Y237170D02*
Y440370D01*
Y237170D02*
X770400D01*
Y440370D01*
X745000D02*
X770400D01*
X770390Y109640D02*
Y185840D01*
X719590Y109640D02*
X770390D01*
X719590D02*
Y185840D01*
X770390D01*
X59670Y139830D02*
Y374780D01*
Y393830D01*
X34270D02*
X59670D01*
X34270Y139830D02*
Y393830D01*
Y139830D02*
X59670D01*
D12*
X282251Y257551D02*
Y291551D01*
X301251D01*
X282251Y257551D02*
X301251D01*
Y291551D01*
X220247Y247551D02*
X246247D01*
Y261551D01*
X220247D02*
X246247D01*
X220247Y247551D02*
Y261551D01*
Y287551D02*
X246247D01*
Y301551D01*
X220247D02*
X246247D01*
X220247Y287551D02*
Y301551D01*
X478977Y294578D02*
X492977D01*
X478977D02*
Y320578D01*
X492977D01*
Y294578D02*
Y320578D01*
X289172Y43950D02*
X501134D01*
X607116Y159250D02*
Y389850D01*
X368658Y505150D02*
X421648D01*
X607116Y159250D02*
X607116Y43950D01*
X607116Y505150D02*
X607116Y389850D01*
X183190Y435150D02*
Y505150D01*
X501134Y43950D02*
X607116D01*
X183190D02*
X289172D01*
X421648Y505150D02*
X448144D01*
X342162D02*
X368658D01*
X572790Y173290D02*
Y207290D01*
X553790Y173290D02*
X572790D01*
X553790Y207290D02*
X572790D01*
X553790Y173290D02*
Y207290D01*
X476760Y172210D02*
X510760D01*
X476760D02*
Y191210D01*
X510760Y172210D02*
Y191210D01*
X476760D02*
X510760D01*
X532540Y221570D02*
Y255570D01*
X513540Y221570D02*
X532540D01*
X513540Y255570D02*
X532540D01*
X513540Y221570D02*
Y255570D01*
X429915Y341395D02*
X443915D01*
X429915D02*
Y367395D01*
X443915D01*
Y341395D02*
Y367395D01*
X183190Y435000D02*
X183190Y43950D01*
Y505150D02*
X289172D01*
X448144D02*
X501134D01*
X289172D02*
X342162D01*
X501134D02*
X607116D01*
X46547Y49338D02*
Y62667D01*
X53211Y69332D01*
X59876Y62667D01*
Y49338D01*
Y59335D01*
X46547D01*
X66540Y49338D02*
Y62667D01*
X73205Y69332D01*
X79869Y62667D01*
Y49338D01*
Y59335D01*
X66540D01*
X86534Y69332D02*
Y49338D01*
X96530D01*
X99863Y52670D01*
Y56003D01*
X96530Y59335D01*
X86534D01*
X96530D01*
X99863Y62667D01*
Y65999D01*
X96530Y69332D01*
X86534D01*
X36550Y19250D02*
Y39244D01*
X49879Y19250D01*
Y39244D01*
X56543D02*
X69872D01*
X63208D01*
Y19250D01*
X76537Y39244D02*
Y19250D01*
Y25914D01*
X89866Y39244D01*
X79869Y29247D01*
X89866Y19250D01*
X106527D02*
Y39244D01*
X96530Y29247D01*
X109860D01*
X291250Y467500D02*
Y487494D01*
X297915Y480829D01*
X304579Y487494D01*
Y467500D01*
X311243D02*
Y480829D01*
X317908Y487494D01*
X324573Y480829D01*
Y467500D01*
Y477497D01*
X311243D01*
X331237Y487494D02*
X344566Y467500D01*
Y487494D02*
X331237Y467500D01*
X351231Y484161D02*
X354563Y487494D01*
X361227D01*
X364560Y484161D01*
Y480829D01*
X361227Y477497D01*
X357895D01*
X361227D01*
X364560Y474165D01*
Y470832D01*
X361227Y467500D01*
X354563D01*
X351231Y470832D01*
X371224Y487494D02*
X384553D01*
Y484161D01*
X371224Y470832D01*
Y467500D01*
X391218Y484161D02*
X394550Y487494D01*
X401214D01*
X404547Y484161D01*
Y480829D01*
X401214Y477497D01*
X397882D01*
X401214D01*
X404547Y474165D01*
Y470832D01*
X401214Y467500D01*
X394550D01*
X391218Y470832D01*
X411211Y484161D02*
X414544Y487494D01*
X421208D01*
X424540Y484161D01*
Y480829D01*
X421208Y477497D01*
X424540Y474165D01*
Y470832D01*
X421208Y467500D01*
X414544D01*
X411211Y470832D01*
Y474165D01*
X414544Y477497D01*
X411211Y480829D01*
Y484161D01*
X414544Y477497D02*
X421208D01*
X444534Y487494D02*
X431205D01*
Y467500D01*
X444534D01*
X431205Y477497D02*
X437869D01*
X451198Y487494D02*
X464528D01*
X457863D01*
Y467500D01*
X484521Y484161D02*
X481189Y487494D01*
X474524D01*
X471192Y484161D01*
Y470832D01*
X474524Y467500D01*
X481189D01*
X484521Y470832D01*
Y477497D01*
X477856D01*
X491186D02*
X504515D01*
X497850Y484161D02*
Y470832D01*
X713478Y489246D02*
X711479Y491246D01*
X707480D01*
X705481Y489246D01*
Y481249D01*
X707480Y479250D01*
X711479D01*
X713478Y481249D01*
Y485248D01*
X709479D01*
X717477Y479250D02*
Y491246D01*
X725474Y479250D01*
Y491246D01*
X729473D02*
Y479250D01*
X735471D01*
X737470Y481249D01*
Y489246D01*
X735471Y491246D01*
X729473D01*
X713478Y463996D02*
X711479Y465996D01*
X707480D01*
X705481Y463996D01*
Y455999D01*
X707480Y454000D01*
X711479D01*
X713478Y455999D01*
Y459998D01*
X709479D01*
X717477Y454000D02*
Y465996D01*
X725474Y454000D01*
Y465996D01*
X729473D02*
Y454000D01*
X735471D01*
X737470Y455999D01*
Y463996D01*
X735471Y465996D01*
X729473D01*
X72997Y98747D02*
X70998Y100746D01*
X66999D01*
X65000Y98747D01*
Y90749D01*
X66999Y88750D01*
X70998D01*
X72997Y90749D01*
Y94748D01*
X68999D01*
X76996Y88750D02*
Y100746D01*
X84993Y88750D01*
Y100746D01*
X88992D02*
Y88750D01*
X94990D01*
X96990Y90749D01*
Y98747D01*
X94990Y100746D01*
X88992D01*
X72997Y123997D02*
X70998Y125996D01*
X66999D01*
X65000Y123997D01*
Y115999D01*
X66999Y114000D01*
X70998D01*
X72997Y115999D01*
Y119998D01*
X68999D01*
X76996Y114000D02*
Y125996D01*
X84993Y114000D01*
Y125996D01*
X88992D02*
Y114000D01*
X94990D01*
X96990Y115999D01*
Y123997D01*
X94990Y125996D01*
X88992D01*
X736978Y200996D02*
X734979Y202996D01*
X730980D01*
X728980Y200996D01*
Y192999D01*
X730980Y191000D01*
X734979D01*
X736978Y192999D01*
Y196998D01*
X732979D01*
X740977Y191000D02*
Y202996D01*
X748974Y191000D01*
Y202996D01*
X752973D02*
Y191000D01*
X758971D01*
X760970Y192999D01*
Y200996D01*
X758971Y202996D01*
X752973D01*
X717477Y255996D02*
Y244000D01*
X725474D01*
X729473Y255996D02*
Y244000D01*
X735471D01*
X737470Y245999D01*
Y253997D01*
X735471Y255996D01*
X729473D01*
X713478Y431996D02*
X711479Y433996D01*
X707480D01*
X705481Y431996D01*
Y423999D01*
X707480Y422000D01*
X711479D01*
X713478Y423999D01*
Y427998D01*
X709479D01*
X717477Y422000D02*
Y433996D01*
X725474Y422000D01*
Y433996D01*
X729473D02*
Y422000D01*
X735471D01*
X737470Y423999D01*
Y431996D01*
X735471Y433996D01*
X729473D01*
X657496Y408567D02*
X665494D01*
X661495D01*
Y396571D01*
X669492Y408567D02*
Y396571D01*
Y402569D01*
X677490D01*
Y408567D01*
Y396571D01*
X681488Y394571D02*
X689486D01*
X693484Y408567D02*
X701482D01*
X697483D01*
Y396571D01*
X713478Y408567D02*
X705481D01*
Y396571D01*
X713478D01*
X705481Y402569D02*
X709479D01*
X717477Y396571D02*
Y408567D01*
X721475Y404568D01*
X725474Y408567D01*
Y396571D01*
X729473D02*
Y408567D01*
X735471D01*
X737470Y406567D01*
Y402569D01*
X735471Y400569D01*
X729473D01*
X645500Y371143D02*
Y383139D01*
X649499Y379140D01*
X653497Y383139D01*
Y371143D01*
X663494Y383139D02*
X659495D01*
X657496Y381139D01*
Y373142D01*
X659495Y371143D01*
X663494D01*
X665494Y373142D01*
Y381139D01*
X663494Y383139D01*
X669492D02*
Y371143D01*
X675490D01*
X677490Y373142D01*
Y381139D01*
X675490Y383139D01*
X669492D01*
X681488D02*
Y371143D01*
X687486D01*
X689486Y373142D01*
Y375141D01*
X687486Y377141D01*
X681488D01*
X687486D01*
X689486Y379140D01*
Y381139D01*
X687486Y383139D01*
X681488D01*
X701482Y381139D02*
X699482Y383139D01*
X695484D01*
X693484Y381139D01*
Y373142D01*
X695484Y371143D01*
X699482D01*
X701482Y373142D01*
X711479Y383139D02*
X707480D01*
X705481Y381139D01*
Y373142D01*
X707480Y371143D01*
X711479D01*
X713478Y373142D01*
Y381139D01*
X711479Y383139D01*
X717477Y371143D02*
Y383139D01*
X721475Y379140D01*
X725474Y383139D01*
Y371143D01*
X729473D02*
Y383139D01*
X735471D01*
X737470Y381139D01*
Y377141D01*
X735471Y375141D01*
X729473D01*
X669492Y345714D02*
Y357710D01*
X673491Y353712D01*
X677490Y357710D01*
Y345714D01*
X687486Y357710D02*
X683488D01*
X681488Y355711D01*
Y347714D01*
X683488Y345714D01*
X687486D01*
X689486Y347714D01*
Y355711D01*
X687486Y357710D01*
X693484D02*
Y345714D01*
X699482D01*
X701482Y347714D01*
Y355711D01*
X699482Y357710D01*
X693484D01*
X713478Y355711D02*
X711479Y357710D01*
X707480D01*
X705481Y355711D01*
Y353712D01*
X707480Y351712D01*
X711479D01*
X713478Y349713D01*
Y347714D01*
X711479Y345714D01*
X707480D01*
X705481Y347714D01*
X725474Y357710D02*
X717477D01*
Y345714D01*
X725474D01*
X717477Y351712D02*
X721475D01*
X729473Y357710D02*
X737470D01*
X733472D01*
Y345714D01*
X669492Y320286D02*
Y328283D01*
X673491Y332282D01*
X677490Y328283D01*
Y320286D01*
Y326284D01*
X669492D01*
X681488Y320286D02*
Y332282D01*
X687486D01*
X689486Y330282D01*
Y326284D01*
X687486Y324284D01*
X681488D01*
X701482Y330282D02*
X699482Y332282D01*
X695484D01*
X693484Y330282D01*
Y322285D01*
X695484Y320286D01*
X699482D01*
X701482Y322285D01*
X713478Y330282D02*
X711479Y332282D01*
X707480D01*
X705481Y330282D01*
Y328283D01*
X707480Y326284D01*
X711479D01*
X713478Y324284D01*
Y322285D01*
X711479Y320286D01*
X707480D01*
X705481Y322285D01*
X725474Y332282D02*
X717477D01*
Y320286D01*
X725474D01*
X717477Y326284D02*
X721475D01*
X729473Y332282D02*
X737470D01*
X733472D01*
Y320286D01*
X717477Y294857D02*
Y306853D01*
X721475Y302854D01*
X725474Y306853D01*
Y294857D01*
X729473Y306853D02*
Y294857D01*
X735471D01*
X737470Y296856D01*
Y304854D01*
X735471Y306853D01*
X729473D01*
X705481Y281425D02*
Y273427D01*
X709479Y269429D01*
X713478Y273427D01*
Y281425D01*
X725474Y279425D02*
X723475Y281425D01*
X719476D01*
X717477Y279425D01*
Y271428D01*
X719476Y269429D01*
X723475D01*
X725474Y271428D01*
X737470Y279425D02*
X735471Y281425D01*
X731472D01*
X729473Y279425D01*
Y271428D01*
X731472Y269429D01*
X735471D01*
X737470Y271428D01*
X72997Y155997D02*
X70998Y157996D01*
X66999D01*
X65000Y155997D01*
Y147999D01*
X66999Y146000D01*
X70998D01*
X72997Y147999D01*
Y151998D01*
X68999D01*
X76996Y146000D02*
Y157996D01*
X84993Y146000D01*
Y157996D01*
X88992D02*
Y146000D01*
X94990D01*
X96990Y147999D01*
Y155997D01*
X94990Y157996D01*
X88992D01*
X72997Y181441D02*
X70998Y183441D01*
X66999D01*
X65000Y181441D01*
Y179442D01*
X66999Y177442D01*
X70998D01*
X72997Y175443D01*
Y173444D01*
X70998Y171444D01*
X66999D01*
X65000Y173444D01*
X76996Y183441D02*
Y171444D01*
Y177442D01*
X84993D01*
Y183441D01*
Y171444D01*
X88992Y183441D02*
Y173444D01*
X90992Y171444D01*
X94990D01*
X96990Y173444D01*
Y183441D01*
X100988D02*
X108986D01*
X104987D01*
Y171444D01*
X112985Y183441D02*
Y171444D01*
X118982D01*
X120982Y173444D01*
Y181441D01*
X118982Y183441D01*
X112985D01*
X130979D02*
X126980D01*
X124981Y181441D01*
Y173444D01*
X126980Y171444D01*
X130979D01*
X132978Y173444D01*
Y181441D01*
X130979Y183441D01*
X136977D02*
Y171444D01*
X140975Y175443D01*
X144974Y171444D01*
Y183441D01*
X148973Y171444D02*
Y183441D01*
X156970Y171444D01*
Y183441D01*
X65000Y209884D02*
Y197888D01*
X70998D01*
X72997Y199888D01*
Y201887D01*
X70998Y203886D01*
X65000D01*
X70998D01*
X72997Y205886D01*
Y207885D01*
X70998Y209884D01*
X65000D01*
X84993Y207885D02*
X82994Y209884D01*
X78995D01*
X76996Y207885D01*
Y199888D01*
X78995Y197888D01*
X82994D01*
X84993Y199888D01*
X88992Y195889D02*
X96990D01*
X100988Y197888D02*
Y209884D01*
X104987Y205886D01*
X108986Y209884D01*
Y197888D01*
X118982Y209884D02*
X114984D01*
X112985Y207885D01*
Y199888D01*
X114984Y197888D01*
X118982D01*
X120982Y199888D01*
Y207885D01*
X118982Y209884D01*
X124981Y197888D02*
Y209884D01*
X132978Y197888D01*
Y209884D01*
X65000Y222333D02*
Y234329D01*
X70998D01*
X72997Y232329D01*
Y228331D01*
X70998Y226331D01*
X65000D01*
X84993Y232329D02*
X82994Y234329D01*
X78995D01*
X76996Y232329D01*
Y224332D01*
X78995Y222333D01*
X82994D01*
X84993Y224332D01*
X88992Y220333D02*
X96990D01*
X100988Y222333D02*
Y234329D01*
X104987Y230330D01*
X108986Y234329D01*
Y222333D01*
X118982Y234329D02*
X114984D01*
X112985Y232329D01*
Y224332D01*
X114984Y222333D01*
X118982D01*
X120982Y224332D01*
Y232329D01*
X118982Y234329D01*
X124981Y222333D02*
Y234329D01*
X132978Y222333D01*
Y234329D01*
X65000Y260773D02*
X72997D01*
X68999D01*
Y248777D01*
X76996Y260773D02*
X84993Y248777D01*
Y260773D02*
X76996Y248777D01*
X88992Y246778D02*
X96990D01*
X100988Y260773D02*
Y248777D01*
X106986D01*
X108986Y250776D01*
Y258774D01*
X106986Y260773D01*
X100988D01*
X112985D02*
X116983D01*
X114984D01*
Y248777D01*
X112985D01*
X116983D01*
X130979Y258774D02*
X128979Y260773D01*
X124981D01*
X122981Y258774D01*
Y256775D01*
X124981Y254775D01*
X128979D01*
X130979Y252776D01*
Y250776D01*
X128979Y248777D01*
X124981D01*
X122981Y250776D01*
X134977Y248777D02*
Y256775D01*
X138976Y260773D01*
X142975Y256775D01*
Y248777D01*
Y254775D01*
X134977D01*
X146973Y260773D02*
Y248777D01*
X152971D01*
X154971Y250776D01*
Y252776D01*
X152971Y254775D01*
X146973D01*
X152971D01*
X154971Y256775D01*
Y258774D01*
X152971Y260773D01*
X146973D01*
X158970D02*
Y248777D01*
X166967D01*
X178963Y260773D02*
X170966D01*
Y248777D01*
X178963D01*
X170966Y254775D02*
X174964D01*
X65000Y285218D02*
Y277221D01*
X68999Y273222D01*
X72997Y277221D01*
Y285218D01*
X84993Y283219D02*
X82994Y285218D01*
X78995D01*
X76996Y283219D01*
Y275222D01*
X78995Y273222D01*
X82994D01*
X84993Y275222D01*
X96990Y283219D02*
X94990Y285218D01*
X90992D01*
X88992Y283219D01*
Y275222D01*
X90992Y273222D01*
X94990D01*
X96990Y275222D01*
X65000Y298667D02*
Y310663D01*
X70998D01*
X72997Y308663D01*
Y304665D01*
X70998Y302665D01*
X65000D01*
X76996Y298667D02*
Y310663D01*
X82994D01*
X84993Y308663D01*
Y304665D01*
X82994Y302665D01*
X76996D01*
X80995D02*
X84993Y298667D01*
X88992Y310663D02*
Y298667D01*
X94990D01*
X96990Y300666D01*
Y302665D01*
X94990Y304665D01*
X88992D01*
X94990D01*
X96990Y306664D01*
Y308663D01*
X94990Y310663D01*
X88992D01*
X108986Y308663D02*
X106986Y310663D01*
X102988D01*
X100988Y308663D01*
Y306664D01*
X102988Y304665D01*
X106986D01*
X108986Y302665D01*
Y300666D01*
X106986Y298667D01*
X102988D01*
X100988Y300666D01*
X112985Y304665D02*
X120982D01*
X65000Y324111D02*
Y336107D01*
X70998D01*
X72997Y334108D01*
Y330109D01*
X70998Y328110D01*
X65000D01*
X76996Y324111D02*
Y336107D01*
X82994D01*
X84993Y334108D01*
Y330109D01*
X82994Y328110D01*
X76996D01*
X80995D02*
X84993Y324111D01*
X88992Y336107D02*
Y324111D01*
X94990D01*
X96990Y326110D01*
Y328110D01*
X94990Y330109D01*
X88992D01*
X94990D01*
X96990Y332108D01*
Y334108D01*
X94990Y336107D01*
X88992D01*
X108986Y334108D02*
X106986Y336107D01*
X102988D01*
X100988Y334108D01*
Y332108D01*
X102988Y330109D01*
X106986D01*
X108986Y328110D01*
Y326110D01*
X106986Y324111D01*
X102988D01*
X100988Y326110D01*
X112985Y330109D02*
X120982D01*
X116983Y334108D02*
Y326110D01*
X65000Y361552D02*
Y353554D01*
X68999Y349555D01*
X72997Y353554D01*
Y361552D01*
X84993Y359552D02*
X82994Y361552D01*
X78995D01*
X76996Y359552D01*
Y351555D01*
X78995Y349555D01*
X82994D01*
X84993Y351555D01*
X96990Y359552D02*
X94990Y361552D01*
X90992D01*
X88992Y359552D01*
Y351555D01*
X90992Y349555D01*
X94990D01*
X96990Y351555D01*
X65000Y375000D02*
Y386996D01*
X68999Y382997D01*
X72997Y386996D01*
Y375000D01*
X82994Y386996D02*
X78995D01*
X76996Y384997D01*
Y376999D01*
X78995Y375000D01*
X82994D01*
X84993Y376999D01*
Y384997D01*
X82994Y386996D01*
X88992D02*
Y375000D01*
X94990D01*
X96990Y376999D01*
Y384997D01*
X94990Y386996D01*
X88992D01*
X100988D02*
X108986D01*
X104987D01*
Y375000D01*
X120982Y384997D02*
X118982Y386996D01*
X114984D01*
X112985Y384997D01*
Y376999D01*
X114984Y375000D01*
X118982D01*
X120982Y376999D01*
X130979Y386996D02*
X126980D01*
X124981Y384997D01*
Y376999D01*
X126980Y375000D01*
X130979D01*
X132978Y376999D01*
Y384997D01*
X130979Y386996D01*
X136977Y375000D02*
Y386996D01*
X140975Y382997D01*
X144974Y386996D01*
Y375000D01*
X148973D02*
Y386996D01*
X154971D01*
X156970Y384997D01*
Y380998D01*
X154971Y378998D01*
X148973D01*
X347440Y347555D02*
Y332320D01*
X355057D01*
X357597Y334859D01*
Y345016D01*
X355057Y347555D01*
X347440D01*
X362675Y332320D02*
X367753D01*
X365214D01*
Y347555D01*
X362675Y345016D01*
X281622Y300316D02*
Y315551D01*
X289240D01*
X291779Y313012D01*
Y307934D01*
X289240Y305394D01*
X281622D01*
X286700D02*
X291779Y300316D01*
X296857D02*
X301935D01*
X299396D01*
Y315551D01*
X296857Y313012D01*
X231092Y237872D02*
X228553Y240411D01*
X223475D01*
X220936Y237872D01*
Y227716D01*
X223475Y225177D01*
X228553D01*
X231092Y227716D01*
X246327Y225177D02*
X236171D01*
X246327Y235333D01*
Y237872D01*
X243788Y240411D01*
X238710D01*
X236171Y237872D01*
X233342Y320622D02*
X230803Y323162D01*
X225725D01*
X223186Y320622D01*
Y310466D01*
X225725Y307927D01*
X230803D01*
X233342Y310466D01*
X238421Y307927D02*
X243499D01*
X240960D01*
Y323162D01*
X238421Y320622D01*
X483577Y342076D02*
X481037Y344615D01*
X475959D01*
X473420Y342076D01*
Y331919D01*
X475959Y329380D01*
X481037D01*
X483577Y331919D01*
X496273Y329380D02*
Y344615D01*
X488655Y336998D01*
X498812D01*
X550586Y213832D02*
Y229067D01*
X558204D01*
X560743Y226528D01*
Y221450D01*
X558204Y218910D01*
X550586D01*
X555664D02*
X560743Y213832D01*
X565821Y226528D02*
X568360Y229067D01*
X573439D01*
X575978Y226528D01*
Y223989D01*
X573439Y221450D01*
X570899D01*
X573439D01*
X575978Y218910D01*
Y216371D01*
X573439Y213832D01*
X568360D01*
X565821Y216371D01*
X510286Y263676D02*
Y278911D01*
X517904D01*
X520443Y276372D01*
Y271294D01*
X517904Y268754D01*
X510286D01*
X515364D02*
X520443Y263676D01*
X535678D02*
X525521D01*
X535678Y273833D01*
Y276372D01*
X533139Y278911D01*
X528060D01*
X525521Y276372D01*
X483416Y212673D02*
Y197438D01*
X493573D01*
X498651D02*
X503729D01*
X501190D01*
Y212673D01*
X498651Y210134D01*
X434486Y388091D02*
X431946Y390630D01*
X426868D01*
X424329Y388091D01*
Y377934D01*
X426868Y375395D01*
X431946D01*
X434486Y377934D01*
X439564Y388091D02*
X442103Y390630D01*
X447182D01*
X449721Y388091D01*
Y385552D01*
X447182Y383013D01*
X444642D01*
X447182D01*
X449721Y380473D01*
Y377934D01*
X447182Y375395D01*
X442103D01*
X439564Y377934D01*
D13*
X445153Y224552D02*
Y324552D01*
X345153D02*
X445153D01*
X345153Y224552D02*
Y324552D01*
Y224552D02*
X445153D01*
M02*
