G04*
G04 #@! TF.GenerationSoftware,Altium Limited,Altium Designer,18.0.9 (584)*
G04*
G04 Layer_Color=16711935*
%FSLAX44Y44*%
%MOMM*%
G71*
G01*
G75*
%ADD21R,1.7032X1.7032*%
%ADD22C,1.7032*%
%ADD23C,4.2032*%
%ADD24C,1.0032*%
D21*
X757747Y459999D02*
D03*
X47003Y120001D02*
D03*
X757700Y249870D02*
D03*
X757690Y122340D02*
D03*
X46970Y381130D02*
D03*
D22*
X757747Y485399D02*
D03*
X47003Y94601D02*
D03*
X757700Y427670D02*
D03*
Y402270D02*
D03*
Y376870D02*
D03*
Y351470D02*
D03*
Y326070D02*
D03*
Y300670D02*
D03*
Y275270D02*
D03*
X732290Y173140D02*
D03*
Y147740D02*
D03*
Y122340D02*
D03*
X757690Y173140D02*
D03*
Y147740D02*
D03*
X46970Y330330D02*
D03*
Y152530D02*
D03*
Y177930D02*
D03*
Y203330D02*
D03*
Y228730D02*
D03*
Y254130D02*
D03*
Y279530D02*
D03*
Y304930D02*
D03*
Y355730D02*
D03*
D23*
X603072Y504552D02*
D03*
X183210Y503790D02*
D03*
X182702Y44050D02*
D03*
X607136D02*
D03*
D24*
X395153Y274552D02*
D03*
X407500Y213000D02*
D03*
X467250Y314500D02*
D03*
M02*
