M48
;Layer_Color=9474304
;FILE_FORMAT=4:4
METRIC,LZ
;TYPE=PLATED
T1F00S00C0.4000
T2F00S00C0.9000
T3F00S00C4.0000
%
T01
X0046725Y003145
X00395153Y00274552
X004075Y00213
T02
X0073229Y0012234
Y0014774
Y0017314
X0075769
Y0014774
Y0012234
X007577Y0024987
Y0027527
Y0030067
Y0032607
X0004697Y0033033
Y0030493
Y0027953
Y0025413
Y0022873
Y0020333
Y0017793
Y0015253
X00047003Y00120001
Y00094601
X0004697Y0035573
Y0038113
X007577Y0037687
Y0040227
Y0042767
X00757747Y00459999
Y00485399
X007577Y0035147
T03
X00607136Y0004405
X00182702
X0018321Y0050379
X00603072Y00504552
M30
