G04*
G04 #@! TF.GenerationSoftware,Altium Limited,Altium Designer,18.0.9 (584)*
G04*
G04 Layer_Color=8388736*
%FSLAX43Y43*%
%MOMM*%
G71*
G01*
G75*
%ADD16R,0.923X1.083*%
%ADD17R,1.503X3.453*%
%ADD18R,1.603X1.253*%
%ADD19R,1.003X1.703*%
%ADD20R,3.303X2.613*%
%ADD21C,1.371*%
%ADD22R,1.371X1.371*%
%ADD23C,1.703*%
%ADD24R,1.703X1.703*%
%ADD25R,1.703X1.703*%
%ADD26C,0.703*%
D16*
X25310Y23750D02*
D03*
X26690D02*
D03*
X17290Y16500D02*
D03*
X15910D02*
D03*
X8060Y23750D02*
D03*
X9440D02*
D03*
X12560Y15000D02*
D03*
X13940D02*
D03*
X32510Y16500D02*
D03*
X33890D02*
D03*
X30440Y15000D02*
D03*
X29060D02*
D03*
X50590Y16500D02*
D03*
X49210D02*
D03*
X41860Y23750D02*
D03*
X43240D02*
D03*
X45860Y15000D02*
D03*
X47240D02*
D03*
D17*
X20950Y29750D02*
D03*
X17050D02*
D03*
X53950Y29750D02*
D03*
X50050D02*
D03*
X37200Y29750D02*
D03*
X33300D02*
D03*
D18*
X41900Y19125D02*
D03*
Y20975D02*
D03*
X26250Y19125D02*
D03*
Y20975D02*
D03*
X9750Y19125D02*
D03*
Y20975D02*
D03*
D19*
X31845Y19750D02*
D03*
X33115D02*
D03*
X34385D02*
D03*
X35655D02*
D03*
X31845Y25250D02*
D03*
X33115D02*
D03*
X34385D02*
D03*
X35655D02*
D03*
X15345Y19750D02*
D03*
X16615D02*
D03*
X17885D02*
D03*
X19155D02*
D03*
X15345Y25250D02*
D03*
X16615D02*
D03*
X17885D02*
D03*
X19155D02*
D03*
X48595Y19750D02*
D03*
X49865D02*
D03*
X51135D02*
D03*
X52405D02*
D03*
X48595Y25250D02*
D03*
X49865D02*
D03*
X51135D02*
D03*
X52405D02*
D03*
D20*
X33750Y22500D02*
D03*
X17250Y22500D02*
D03*
X50500Y22500D02*
D03*
D21*
X43290Y4540D02*
D03*
X45830Y2000D02*
D03*
X12580Y28000D02*
D03*
X10040Y30540D02*
D03*
X26540Y4540D02*
D03*
X29080Y2000D02*
D03*
X10040Y4540D02*
D03*
X12580Y2000D02*
D03*
X26540Y30540D02*
D03*
X29080Y28000D02*
D03*
X43290Y30540D02*
D03*
X45830Y28000D02*
D03*
D22*
X40750Y2000D02*
D03*
X7500Y28000D02*
D03*
X24000Y2000D02*
D03*
X7500Y2000D02*
D03*
X24000Y28000D02*
D03*
X40750D02*
D03*
D23*
X20040Y4727D02*
D03*
Y2187D02*
D03*
X17500Y4727D02*
D03*
X54040Y4727D02*
D03*
Y2187D02*
D03*
X51500Y4727D02*
D03*
X37040D02*
D03*
Y2187D02*
D03*
X34500Y4727D02*
D03*
X54040Y35890D02*
D03*
Y33350D02*
D03*
X51500Y35890D02*
D03*
X37040D02*
D03*
Y33350D02*
D03*
X34500Y35890D02*
D03*
X20040D02*
D03*
Y33350D02*
D03*
X17500Y35890D02*
D03*
X3750Y21310D02*
D03*
Y18770D02*
D03*
Y16230D02*
D03*
Y13690D02*
D03*
Y11150D02*
D03*
D24*
X17500Y2187D02*
D03*
X51500Y2187D02*
D03*
X34500D02*
D03*
X51500Y33350D02*
D03*
X34500D02*
D03*
X17500D02*
D03*
D25*
X3750Y23850D02*
D03*
D26*
X10850Y13050D02*
D03*
X9750D02*
D03*
X41900Y11950D02*
D03*
X43000Y13050D02*
D03*
Y11950D02*
D03*
X25150D02*
D03*
X10850Y11950D02*
D03*
X9750D02*
D03*
X8650D02*
D03*
X16150Y23050D02*
D03*
X17250D02*
D03*
X32650Y21950D02*
D03*
Y23050D02*
D03*
X33750Y21950D02*
D03*
Y23050D02*
D03*
X34850Y21950D02*
D03*
Y23050D02*
D03*
X16150Y21950D02*
D03*
X17250D02*
D03*
X18350D02*
D03*
Y23050D02*
D03*
X8650Y13050D02*
D03*
X25150Y13050D02*
D03*
X26250D02*
D03*
Y11950D02*
D03*
X27350Y13050D02*
D03*
Y11950D02*
D03*
X41900Y13050D02*
D03*
X44100D02*
D03*
Y11950D02*
D03*
X49400Y21950D02*
D03*
Y23050D02*
D03*
X50500Y21950D02*
D03*
Y23050D02*
D03*
X51600Y21950D02*
D03*
Y23050D02*
D03*
M02*
