G04*
G04 #@! TF.GenerationSoftware,Altium Limited,Altium Designer,18.0.9 (584)*
G04*
G04 Layer_Color=65535*
%FSLAX43Y43*%
%MOMM*%
G71*
G01*
G75*
%ADD10C,0.300*%
%ADD11C,0.500*%
%ADD12C,0.250*%
%ADD13C,0.127*%
%ADD14C,0.200*%
%ADD15C,0.254*%
D10*
X39465Y2000D02*
G03*
X39465Y2000I-100J0D01*
G01*
X6215Y28000D02*
G03*
X6215Y28000I-100J0D01*
G01*
X22715Y2000D02*
G03*
X22715Y2000I-100J0D01*
G01*
X6215Y2000D02*
G03*
X6215Y2000I-100J0D01*
G01*
X22715Y28000D02*
G03*
X22715Y28000I-100J0D01*
G01*
X39465D02*
G03*
X39465Y28000I-100J0D01*
G01*
D11*
X1450Y23850D02*
G03*
X1450Y23850I-200J0D01*
G01*
D12*
X31100Y19700D02*
G03*
X31100Y19700I-125J0D01*
G01*
X14600Y19700D02*
G03*
X14600Y19700I-125J0D01*
G01*
X47850Y19700D02*
G03*
X47850Y19700I-125J0D01*
G01*
D13*
X39835Y880D02*
Y5580D01*
X46745D01*
Y880D02*
Y5580D01*
X39835Y880D02*
X46745D01*
X24700Y24450D02*
X27300D01*
X24700Y23050D02*
Y24450D01*
Y23050D02*
X27300D01*
Y24450D01*
X15300Y15800D02*
X17900D01*
Y17200D01*
X15300D02*
X17900D01*
X15300Y15800D02*
Y17200D01*
X7450Y24450D02*
X10050D01*
X7450Y23050D02*
Y24450D01*
Y23050D02*
X10050D01*
Y24450D01*
X11950Y14300D02*
Y15700D01*
X14550D01*
Y14300D02*
Y15700D01*
X11950Y14300D02*
X14550D01*
X31900Y15800D02*
Y17200D01*
X34500D01*
Y15800D02*
Y17200D01*
X31900Y15800D02*
X34500D01*
X28450Y14300D02*
X31050D01*
Y15700D01*
X28450D02*
X31050D01*
X28450Y14300D02*
Y15700D01*
X48600Y15800D02*
X51200D01*
Y17200D01*
X48600D02*
X51200D01*
X48600Y15800D02*
Y17200D01*
X41250Y24450D02*
X43850D01*
X41250Y23050D02*
Y24450D01*
Y23050D02*
X43850D01*
Y24450D01*
X45250Y14300D02*
Y15700D01*
X47850D01*
Y14300D02*
Y15700D01*
X45250Y14300D02*
X47850D01*
X16150Y27850D02*
X21850D01*
X16150D02*
Y31650D01*
X21850Y27850D02*
Y31650D01*
X16150D02*
X21850D01*
X49150Y27850D02*
X54850D01*
X49150D02*
Y31650D01*
X54850Y27850D02*
Y31650D01*
X49150D02*
X54850D01*
X6585Y26880D02*
X13495D01*
Y31580D01*
X6585D02*
X13495D01*
X6585Y26880D02*
Y31580D01*
X23085Y880D02*
Y5580D01*
X29995D01*
Y880D02*
Y5580D01*
X23085Y880D02*
X29995D01*
X40950Y18350D02*
Y21750D01*
X42850D01*
X40950Y18350D02*
X42850D01*
Y21750D01*
X30500Y18250D02*
Y26750D01*
X37000D01*
Y18250D02*
Y26750D01*
X30500Y18250D02*
X37000D01*
X6585Y880D02*
Y5580D01*
X13495D01*
Y880D02*
Y5580D01*
X6585Y880D02*
X13495D01*
X32400Y27850D02*
X38100D01*
X32400D02*
Y31650D01*
X38100Y27850D02*
Y31650D01*
X32400D02*
X38100D01*
X25300Y18350D02*
Y21750D01*
X27200D01*
X25300Y18350D02*
X27200D01*
Y21750D01*
X23085Y26880D02*
Y31580D01*
X29995D01*
Y26880D02*
Y31580D01*
X23085Y26880D02*
X29995D01*
X14000Y18250D02*
Y26750D01*
X20500D01*
Y18250D02*
Y26750D01*
X14000Y18250D02*
X20500D01*
X8800Y18350D02*
Y21750D01*
X10700D01*
X8800Y18350D02*
X10700D01*
Y21750D01*
X39835Y26880D02*
Y31580D01*
X46745D01*
Y26880D02*
Y31580D01*
X39835Y26880D02*
X46745D01*
X47250Y18250D02*
Y26750D01*
X53750D01*
Y18250D02*
Y26750D01*
X47250Y18250D02*
X53750D01*
D14*
X16230Y5997D02*
X21310D01*
X16230Y916D02*
Y5997D01*
X21310Y916D02*
Y5997D01*
X16230Y916D02*
X21310D01*
X50230Y5997D02*
X55310D01*
X50230Y916D02*
Y5997D01*
X55310Y916D02*
Y5997D01*
X50230Y916D02*
X55310D01*
X33230Y5997D02*
X38310D01*
X33230Y916D02*
Y5997D01*
X38310Y916D02*
Y5997D01*
X33230Y916D02*
X38310D01*
X50230Y37160D02*
X55310D01*
X50230Y32080D02*
Y37160D01*
X55310Y32080D02*
Y37160D01*
X50230Y32080D02*
X55310D01*
X33230Y37160D02*
X38310D01*
X33230Y32080D02*
Y37160D01*
X38310Y32080D02*
Y37160D01*
X33230Y32080D02*
X38310D01*
X16230Y37160D02*
X21310D01*
X16230Y32080D02*
Y37160D01*
X21310Y32080D02*
Y37160D01*
X16230Y32080D02*
X21310D01*
X18100Y28225D02*
X19900D01*
X18100Y31275D02*
X19900D01*
X51100Y28225D02*
X52900D01*
X51100Y31275D02*
X52900D01*
X41300Y19950D02*
Y20150D01*
X42500Y19950D02*
Y20150D01*
X31250Y20900D02*
Y24100D01*
X36250Y20900D02*
Y24100D01*
X34350Y28225D02*
X36150D01*
X34350Y31275D02*
X36150D01*
X25650Y19950D02*
Y20150D01*
X26850Y19950D02*
Y20150D01*
X2480Y9880D02*
X5020D01*
X2480Y25120D02*
X5020D01*
Y9880D02*
Y25120D01*
X2480Y9880D02*
Y25120D01*
X14750Y20900D02*
Y24100D01*
X19750Y20900D02*
Y24100D01*
X9150Y19950D02*
Y20150D01*
X10350Y19950D02*
Y20150D01*
X48000Y20900D02*
Y24100D01*
X53000Y20900D02*
Y24100D01*
D15*
X54250Y7857D02*
Y13831D01*
X11400Y7857D02*
X54250Y7857D01*
X11400Y7857D02*
Y13831D01*
X54250D01*
X46500Y11650D02*
Y13174D01*
X47516Y11650D01*
Y13174D01*
X48024D02*
X49039D01*
X48531D01*
Y11650D01*
X49547Y13174D02*
Y11650D01*
Y12158D01*
X50563Y13174D01*
X49801Y12412D01*
X50563Y11650D01*
X51071Y12412D02*
X52086D01*
X53356Y11650D02*
Y13174D01*
X52594Y12412D01*
X53610D01*
X47008Y9916D02*
X47516D01*
X47770Y9662D01*
Y8900D01*
X47008D01*
X46754Y9154D01*
X47008Y9408D01*
X47770D01*
X48531Y9916D02*
X49039D01*
X49293Y9662D01*
Y8900D01*
X48531D01*
X48277Y9154D01*
X48531Y9408D01*
X49293D01*
X49801Y10424D02*
Y8900D01*
X50563D01*
X50817Y9154D01*
Y9408D01*
Y9662D01*
X50563Y9916D01*
X49801D01*
X51578D02*
X52086D01*
X52340Y9662D01*
Y8900D01*
X51578D01*
X51324Y9154D01*
X51578Y9408D01*
X52340D01*
X52848Y8900D02*
X53356D01*
X53102D01*
Y10424D01*
X52848D01*
X28088Y11650D02*
X28596D01*
X28342D01*
Y13174D01*
X28088Y12920D01*
X29612Y11396D02*
X29866Y11650D01*
Y11904D01*
X29612D01*
Y11650D01*
X29866D01*
X29612Y11396D01*
X29358Y11142D01*
X30881Y12920D02*
X31135Y13174D01*
X31643D01*
X31897Y12920D01*
Y11904D01*
X31643Y11650D01*
X31135D01*
X30881Y11904D01*
Y12920D01*
X32405Y13174D02*
Y12158D01*
X32913Y11650D01*
X33421Y12158D01*
Y13174D01*
X33928Y12412D02*
X34944D01*
X36468Y13174D02*
X35452D01*
Y12412D01*
X35960Y12666D01*
X36214D01*
X36468Y12412D01*
Y11904D01*
X36214Y11650D01*
X35706D01*
X35452Y11904D01*
X37229Y11396D02*
X37483Y11650D01*
Y11904D01*
X37229D01*
Y11650D01*
X37483D01*
X37229Y11396D01*
X36975Y11142D01*
X39515Y13174D02*
X38499D01*
Y12412D01*
X39007Y12666D01*
X39261D01*
X39515Y12412D01*
Y11904D01*
X39261Y11650D01*
X38753D01*
X38499Y11904D01*
X40022Y13174D02*
Y12158D01*
X40530Y11650D01*
X41038Y12158D01*
Y13174D01*
X31389Y10424D02*
X30881D01*
X30627Y10170D01*
Y9154D01*
X30881Y8900D01*
X31389D01*
X31643Y9154D01*
Y10170D01*
X31389Y10424D01*
X32151Y9916D02*
Y9154D01*
X32405Y8900D01*
X33167D01*
Y9916D01*
X33928Y10170D02*
Y9916D01*
X33674D01*
X34182D01*
X33928D01*
Y9154D01*
X34182Y8900D01*
X34944Y8392D02*
Y9916D01*
X35706D01*
X35960Y9662D01*
Y9154D01*
X35706Y8900D01*
X34944D01*
X36468Y9916D02*
Y9154D01*
X36721Y8900D01*
X37483D01*
Y9916D01*
X38245Y10170D02*
Y9916D01*
X37991D01*
X38499D01*
X38245D01*
Y9154D01*
X38499Y8900D01*
X14539Y10424D02*
X15047D01*
X14793D01*
Y8900D01*
X14539D01*
X15047D01*
X15809D02*
Y9916D01*
X16571D01*
X16824Y9662D01*
Y8900D01*
X17332Y8392D02*
Y9916D01*
X18094D01*
X18348Y9662D01*
Y9154D01*
X18094Y8900D01*
X17332D01*
X18856Y9916D02*
Y9154D01*
X19110Y8900D01*
X19871D01*
Y9916D01*
X20633Y10170D02*
Y9916D01*
X20379D01*
X20887D01*
X20633D01*
Y9154D01*
X20887Y8900D01*
X13016Y11650D02*
X12000D01*
X13016Y12666D01*
Y12920D01*
X12762Y13174D01*
X12254D01*
X12000Y12920D01*
X13777Y11396D02*
X14031Y11650D01*
Y11904D01*
X13777D01*
Y11650D01*
X14031D01*
X13777Y11396D01*
X13524Y11142D01*
X16063Y13174D02*
X15047D01*
Y12412D01*
X15555Y12666D01*
X15809D01*
X16063Y12412D01*
Y11904D01*
X15809Y11650D01*
X15301D01*
X15047Y11904D01*
X16571Y13174D02*
Y12158D01*
X17078Y11650D01*
X17586Y12158D01*
Y13174D01*
X18094Y12412D02*
X19110D01*
X19618Y11650D02*
X20125D01*
X19871D01*
Y13174D01*
X19618Y12920D01*
X21903Y13174D02*
X21395Y12920D01*
X20887Y12412D01*
Y11904D01*
X21141Y11650D01*
X21649D01*
X21903Y11904D01*
Y12158D01*
X21649Y12412D01*
X20887D01*
X22411Y13174D02*
Y12158D01*
X22918Y11650D01*
X23426Y12158D01*
Y13174D01*
X41250Y7462D02*
Y6446D01*
X41758Y5938D01*
X42266Y6446D01*
Y7462D01*
X42774Y5938D02*
Y7462D01*
X43535D01*
X43789Y7208D01*
Y6700D01*
X43535Y6446D01*
X42774D01*
X43281D02*
X43789Y5938D01*
X45313Y7462D02*
X44805Y7208D01*
X44297Y6700D01*
Y6192D01*
X44551Y5938D01*
X45059D01*
X45313Y6192D01*
Y6446D01*
X45059Y6700D01*
X44297D01*
X8275Y33426D02*
Y32410D01*
X8783Y31902D01*
X9291Y32410D01*
Y33426D01*
X9799Y31902D02*
Y33426D01*
X10560D01*
X10814Y33172D01*
Y32664D01*
X10560Y32410D01*
X9799D01*
X10306D02*
X10814Y31902D01*
X11322D02*
X11830D01*
X11576D01*
Y33426D01*
X11322Y33172D01*
X48205Y1499D02*
Y991D01*
X48459Y737D01*
X49475D01*
X49729Y991D01*
Y1499D01*
X49475Y1753D01*
X48459D01*
X48205Y1499D01*
Y2261D02*
X49475D01*
X49729Y2514D01*
Y3022D01*
X49475Y3276D01*
X48205D01*
Y3784D02*
Y4800D01*
Y4292D01*
X49729D01*
X48205Y6323D02*
X48459Y5815D01*
X48967Y5308D01*
X49475D01*
X49729Y5561D01*
Y6069D01*
X49475Y6323D01*
X49221D01*
X48967Y6069D01*
Y5308D01*
X31105Y1500D02*
Y992D01*
X31359Y738D01*
X32375D01*
X32629Y992D01*
Y1500D01*
X32375Y1753D01*
X31359D01*
X31105Y1500D01*
Y2261D02*
X32375D01*
X32629Y2515D01*
Y3023D01*
X32375Y3277D01*
X31105D01*
Y3785D02*
Y4800D01*
Y4293D01*
X32629D01*
X31105Y6324D02*
Y5308D01*
X31867D01*
X31613Y5816D01*
Y6070D01*
X31867Y6324D01*
X32375D01*
X32629Y6070D01*
Y5562D01*
X32375Y5308D01*
X14205Y1524D02*
Y1016D01*
X14459Y762D01*
X15475D01*
X15729Y1016D01*
Y1524D01*
X15475Y1778D01*
X14459D01*
X14205Y1524D01*
Y2286D02*
X15475D01*
X15729Y2540D01*
Y3047D01*
X15475Y3301D01*
X14205D01*
Y3809D02*
Y4825D01*
Y4317D01*
X15729D01*
Y6094D02*
X14205D01*
X14967Y5333D01*
Y6348D01*
X44762Y37024D02*
X44254D01*
X44000Y36770D01*
Y35754D01*
X44254Y35500D01*
X44762D01*
X45016Y35754D01*
Y36770D01*
X44762Y37024D01*
X45524D02*
Y35754D01*
X45778Y35500D01*
X46286D01*
X46540Y35754D01*
Y37024D01*
X47048D02*
X48063D01*
X47555D01*
Y35500D01*
X48571Y36770D02*
X48825Y37024D01*
X49333D01*
X49587Y36770D01*
Y36516D01*
X49333Y36262D01*
X49079D01*
X49333D01*
X49587Y36008D01*
Y35754D01*
X49333Y35500D01*
X48825D01*
X48571Y35754D01*
X27763Y37024D02*
X27255D01*
X27001Y36770D01*
Y35754D01*
X27255Y35500D01*
X27763D01*
X28017Y35754D01*
Y36770D01*
X27763Y37024D01*
X28525D02*
Y35754D01*
X28779Y35500D01*
X29286D01*
X29540Y35754D01*
Y37024D01*
X30048D02*
X31064D01*
X30556D01*
Y35500D01*
X32587D02*
X31572D01*
X32587Y36516D01*
Y36770D01*
X32333Y37024D01*
X31826D01*
X31572Y36770D01*
X11287Y37024D02*
X10779D01*
X10525Y36770D01*
Y35754D01*
X10779Y35500D01*
X11287D01*
X11541Y35754D01*
Y36770D01*
X11287Y37024D01*
X12049D02*
Y35754D01*
X12303Y35500D01*
X12811D01*
X13065Y35754D01*
Y37024D01*
X13572D02*
X14588D01*
X14080D01*
Y35500D01*
X15096D02*
X15604D01*
X15350D01*
Y37024D01*
X15096Y36770D01*
X28403Y21245D02*
X29926D01*
Y22007D01*
X29672Y22261D01*
X28657D01*
X28403Y22007D01*
Y21245D01*
X29926Y23784D02*
Y22768D01*
X28911Y23784D01*
X28657D01*
X28403Y23530D01*
Y23022D01*
X28657Y22768D01*
X40372Y18790D02*
X38848D01*
Y19552D01*
X39102Y19806D01*
X39610D01*
X39864Y19552D01*
Y18790D01*
Y19298D02*
X40372Y19806D01*
X39102Y20314D02*
X38848Y20568D01*
Y21075D01*
X39102Y21329D01*
X39356D01*
X39610Y21075D01*
Y20822D01*
Y21075D01*
X39864Y21329D01*
X40118D01*
X40372Y21075D01*
Y20568D01*
X40118Y20314D01*
X40951Y26196D02*
X40697Y26450D01*
X40190D01*
X39936Y26196D01*
Y25180D01*
X40190Y24926D01*
X40697D01*
X40951Y25180D01*
X41459Y26196D02*
X41713Y26450D01*
X42221D01*
X42475Y26196D01*
Y25942D01*
X42221Y25688D01*
X41967D01*
X42221D01*
X42475Y25434D01*
Y25180D01*
X42221Y24926D01*
X41713D01*
X41459Y25180D01*
X42983Y24926D02*
Y25180D01*
X43237D01*
Y24926D01*
X42983D01*
X45268D02*
X44252D01*
X45268Y25942D01*
Y26196D01*
X45014Y26450D01*
X44506D01*
X44252Y26196D01*
X24500Y33426D02*
Y32410D01*
X25008Y31902D01*
X25516Y32410D01*
Y33426D01*
X26024Y31902D02*
Y33426D01*
X26785D01*
X27039Y33172D01*
Y32664D01*
X26785Y32410D01*
X26024D01*
X26531D02*
X27039Y31902D01*
X28563D02*
X27547D01*
X28563Y32918D01*
Y33172D01*
X28309Y33426D01*
X27801D01*
X27547Y33172D01*
X24500Y7412D02*
Y6396D01*
X25008Y5888D01*
X25516Y6396D01*
Y7412D01*
X26024Y5888D02*
Y7412D01*
X26785D01*
X27039Y7158D01*
Y6650D01*
X26785Y6396D01*
X26024D01*
X26531D02*
X27039Y5888D01*
X28563Y7412D02*
X27547D01*
Y6650D01*
X28055Y6904D01*
X28309D01*
X28563Y6650D01*
Y6142D01*
X28309Y5888D01*
X27801D01*
X27547Y6142D01*
X8021Y7412D02*
Y6396D01*
X8529Y5888D01*
X9037Y6396D01*
Y7412D01*
X9545Y5888D02*
Y7412D01*
X10306D01*
X10560Y7158D01*
Y6650D01*
X10306Y6396D01*
X9545D01*
X10052D02*
X10560Y5888D01*
X11830D02*
Y7412D01*
X11068Y6650D01*
X12084D01*
X41250Y33426D02*
Y32410D01*
X41758Y31902D01*
X42266Y32410D01*
Y33426D01*
X42774Y31902D02*
Y33426D01*
X43535D01*
X43789Y33172D01*
Y32664D01*
X43535Y32410D01*
X42774D01*
X43281D02*
X43789Y31902D01*
X44297Y33172D02*
X44551Y33426D01*
X45059D01*
X45313Y33172D01*
Y32918D01*
X45059Y32664D01*
X44805D01*
X45059D01*
X45313Y32410D01*
Y32156D01*
X45059Y31902D01*
X44551D01*
X44297Y32156D01*
X24787Y18843D02*
X23264D01*
Y19605D01*
X23518Y19859D01*
X24026D01*
X24280Y19605D01*
Y18843D01*
Y19351D02*
X24787Y19859D01*
Y21383D02*
Y20367D01*
X23772Y21383D01*
X23518D01*
X23264Y21129D01*
Y20621D01*
X23518Y20367D01*
X8217Y19044D02*
X6694D01*
Y19806D01*
X6948Y20059D01*
X7456D01*
X7709Y19806D01*
Y19044D01*
Y19552D02*
X8217Y20059D01*
Y20567D02*
Y21075D01*
Y20821D01*
X6694D01*
X6948Y20567D01*
X45050Y21245D02*
X46573D01*
Y22007D01*
X46319Y22261D01*
X45304D01*
X45050Y22007D01*
Y21245D01*
X45304Y22768D02*
X45050Y23022D01*
Y23530D01*
X45304Y23784D01*
X45558D01*
X45812Y23530D01*
Y23276D01*
Y23530D01*
X46065Y23784D01*
X46319D01*
X46573Y23530D01*
Y23022D01*
X46319Y22768D01*
X11875Y21499D02*
X13398D01*
Y22261D01*
X13144Y22515D01*
X12129D01*
X11875Y22261D01*
Y21499D01*
X13398Y23022D02*
Y23530D01*
Y23276D01*
X11875D01*
X12129Y23022D01*
X47303Y28139D02*
X47049Y27885D01*
Y27377D01*
X47303Y27123D01*
X48318D01*
X48572Y27377D01*
Y27885D01*
X48318Y28139D01*
X47303Y28647D02*
X47049Y28900D01*
Y29408D01*
X47303Y29662D01*
X47557D01*
X47811Y29408D01*
Y29154D01*
Y29408D01*
X48065Y29662D01*
X48318D01*
X48572Y29408D01*
Y28900D01*
X48318Y28647D01*
X48572Y30170D02*
X48318D01*
Y30424D01*
X48572D01*
Y30170D01*
Y32201D02*
X47049D01*
X47811Y31440D01*
Y32455D01*
X40245Y15520D02*
X39991Y15774D01*
X39483D01*
X39229Y15520D01*
Y14504D01*
X39483Y14250D01*
X39991D01*
X40245Y14504D01*
X40752Y15520D02*
X41006Y15774D01*
X41514D01*
X41768Y15520D01*
Y15266D01*
X41514Y15012D01*
X41260D01*
X41514D01*
X41768Y14758D01*
Y14504D01*
X41514Y14250D01*
X41006D01*
X40752Y14504D01*
X42276Y14250D02*
Y14504D01*
X42530D01*
Y14250D01*
X42276D01*
X43545Y15520D02*
X43799Y15774D01*
X44307D01*
X44561Y15520D01*
Y15266D01*
X44307Y15012D01*
X44053D01*
X44307D01*
X44561Y14758D01*
Y14504D01*
X44307Y14250D01*
X43799D01*
X43545Y14504D01*
X44153Y17520D02*
X43899Y17774D01*
X43392D01*
X43138Y17520D01*
Y16504D01*
X43392Y16250D01*
X43899D01*
X44153Y16504D01*
X44661Y17520D02*
X44915Y17774D01*
X45423D01*
X45677Y17520D01*
Y17266D01*
X45423Y17012D01*
X45169D01*
X45423D01*
X45677Y16758D01*
Y16504D01*
X45423Y16250D01*
X44915D01*
X44661Y16504D01*
X46185Y16250D02*
Y16504D01*
X46439D01*
Y16250D01*
X46185D01*
X47454D02*
X47962D01*
X47708D01*
Y17774D01*
X47454Y17520D01*
X30548Y28139D02*
X30294Y27885D01*
Y27377D01*
X30548Y27123D01*
X31563D01*
X31817Y27377D01*
Y27885D01*
X31563Y28139D01*
X31817Y29662D02*
Y28647D01*
X30802Y29662D01*
X30548D01*
X30294Y29408D01*
Y28900D01*
X30548Y28647D01*
X31817Y30170D02*
X31563D01*
Y30424D01*
X31817D01*
Y30170D01*
Y32201D02*
X30294D01*
X31055Y31440D01*
Y32455D01*
X23634Y15520D02*
X23381Y15774D01*
X22873D01*
X22619Y15520D01*
Y14504D01*
X22873Y14250D01*
X23381D01*
X23634Y14504D01*
X25158Y14250D02*
X24142D01*
X25158Y15266D01*
Y15520D01*
X24904Y15774D01*
X24396D01*
X24142Y15520D01*
X25666Y14250D02*
Y14504D01*
X25920D01*
Y14250D01*
X25666D01*
X26935Y15520D02*
X27189Y15774D01*
X27697D01*
X27951Y15520D01*
Y15266D01*
X27697Y15012D01*
X27443D01*
X27697D01*
X27951Y14758D01*
Y14504D01*
X27697Y14250D01*
X27189D01*
X26935Y14504D01*
X24347Y26196D02*
X24093Y26450D01*
X23585D01*
X23331Y26196D01*
Y25180D01*
X23585Y24926D01*
X24093D01*
X24347Y25180D01*
X25870Y24926D02*
X24854D01*
X25870Y25942D01*
Y26196D01*
X25616Y26450D01*
X25108D01*
X24854Y26196D01*
X26378Y24926D02*
Y25180D01*
X26632D01*
Y24926D01*
X26378D01*
X28663D02*
X27647D01*
X28663Y25942D01*
Y26196D01*
X28409Y26450D01*
X27901D01*
X27647Y26196D01*
X27548Y17520D02*
X27294Y17774D01*
X26787D01*
X26533Y17520D01*
Y16504D01*
X26787Y16250D01*
X27294D01*
X27548Y16504D01*
X29072Y16250D02*
X28056D01*
X29072Y17266D01*
Y17520D01*
X28818Y17774D01*
X28310D01*
X28056Y17520D01*
X29580Y16250D02*
Y16504D01*
X29834D01*
Y16250D01*
X29580D01*
X30849D02*
X31357D01*
X31103D01*
Y17774D01*
X30849Y17520D01*
X14265Y28239D02*
X14011Y27985D01*
Y27477D01*
X14265Y27223D01*
X15280D01*
X15534Y27477D01*
Y27985D01*
X15280Y28239D01*
X15534Y28747D02*
Y29254D01*
Y29000D01*
X14011D01*
X14265Y28747D01*
X15534Y30016D02*
X15280D01*
Y30270D01*
X15534D01*
Y30016D01*
Y32047D02*
X14011D01*
X14773Y31286D01*
Y32301D01*
X7335Y15520D02*
X7081Y15774D01*
X6573D01*
X6319Y15520D01*
Y14504D01*
X6573Y14250D01*
X7081D01*
X7335Y14504D01*
X7843Y14250D02*
X8351D01*
X8097D01*
Y15774D01*
X7843Y15520D01*
X9112Y14250D02*
Y14504D01*
X9366D01*
Y14250D01*
X9112D01*
X10382Y15520D02*
X10636Y15774D01*
X11144D01*
X11398Y15520D01*
Y15266D01*
X11144Y15012D01*
X10890D01*
X11144D01*
X11398Y14758D01*
Y14504D01*
X11144Y14250D01*
X10636D01*
X10382Y14504D01*
X7247Y26175D02*
X6993Y26429D01*
X6485D01*
X6232Y26175D01*
Y25159D01*
X6485Y24905D01*
X6993D01*
X7247Y25159D01*
X7755Y24905D02*
X8263D01*
X8009D01*
Y26429D01*
X7755Y26175D01*
X9025Y24905D02*
Y25159D01*
X9279D01*
Y24905D01*
X9025D01*
X11310D02*
X10294D01*
X11310Y25921D01*
Y26175D01*
X11056Y26429D01*
X10548D01*
X10294Y26175D01*
X11198Y17520D02*
X10945Y17774D01*
X10437D01*
X10183Y17520D01*
Y16504D01*
X10437Y16250D01*
X10945D01*
X11198Y16504D01*
X11706Y16250D02*
X12214D01*
X11960D01*
Y17774D01*
X11706Y17520D01*
X12976Y16250D02*
Y16504D01*
X13230D01*
Y16250D01*
X12976D01*
X14245D02*
X14753D01*
X14499D01*
Y17774D01*
X14245Y17520D01*
X2650Y27315D02*
X3158D01*
X2904D01*
Y25792D01*
X2650D01*
X3158D01*
X3920D02*
Y27315D01*
X4935Y25792D01*
Y27315D01*
M02*
