G04*
G04 #@! TF.GenerationSoftware,Altium Limited,Altium Designer,18.0.9 (584)*
G04*
G04 Layer_Color=16711935*
%FSLAX43Y43*%
%MOMM*%
G71*
G01*
G75*
%ADD16R,0.923X1.083*%
%ADD18R,1.603X1.253*%
%ADD19R,1.003X1.703*%
%ADD20R,3.303X2.613*%
%ADD21C,1.371*%
%ADD22R,1.371X1.371*%
%ADD23C,1.703*%
%ADD24R,1.703X1.703*%
%ADD25R,1.703X1.703*%
%ADD26C,0.703*%
%ADD41R,1.253X1.603*%
%ADD42R,3.453X1.503*%
D16*
X9790Y18250D02*
D03*
X8410D02*
D03*
X8240Y5550D02*
D03*
X6860D02*
D03*
X7890Y20500D02*
D03*
X6510D02*
D03*
X26290Y18250D02*
D03*
X24910D02*
D03*
X24440Y6500D02*
D03*
X23060D02*
D03*
X24440Y20500D02*
D03*
X23060D02*
D03*
X43065Y18250D02*
D03*
X41685D02*
D03*
X41060Y6500D02*
D03*
X42440D02*
D03*
X41190Y20500D02*
D03*
X39810D02*
D03*
D18*
X21000Y12675D02*
D03*
Y10825D02*
D03*
X38000Y12675D02*
D03*
Y10825D02*
D03*
D19*
X7845Y15250D02*
D03*
X9115D02*
D03*
X10385D02*
D03*
X11655D02*
D03*
X7845Y9750D02*
D03*
X9115D02*
D03*
X10385D02*
D03*
X11655D02*
D03*
X24345Y15250D02*
D03*
X25615D02*
D03*
X26885D02*
D03*
X28155D02*
D03*
X24345Y9750D02*
D03*
X25615D02*
D03*
X26885D02*
D03*
X28155D02*
D03*
X41095Y15250D02*
D03*
X42365D02*
D03*
X43635D02*
D03*
X44905D02*
D03*
X41095Y9750D02*
D03*
X42365D02*
D03*
X43635D02*
D03*
X44905D02*
D03*
D20*
X9750Y12500D02*
D03*
X26250Y12500D02*
D03*
X43000D02*
D03*
D21*
X43290Y4540D02*
D03*
X45830Y2000D02*
D03*
X12580Y28000D02*
D03*
X10040Y30540D02*
D03*
X26540Y4540D02*
D03*
X29080Y2000D02*
D03*
X10040Y4540D02*
D03*
X12580Y2000D02*
D03*
X26540Y30540D02*
D03*
X29080Y28000D02*
D03*
X43290Y30540D02*
D03*
X45830Y28000D02*
D03*
D22*
X40750Y2000D02*
D03*
X7500Y28000D02*
D03*
X24000Y2000D02*
D03*
X7500Y2000D02*
D03*
X24000Y28000D02*
D03*
X40750D02*
D03*
D23*
X20040Y4727D02*
D03*
Y2187D02*
D03*
X17500Y4727D02*
D03*
X54040Y4727D02*
D03*
Y2187D02*
D03*
X51500Y4727D02*
D03*
X37040D02*
D03*
Y2187D02*
D03*
X34500Y4727D02*
D03*
X54040Y35890D02*
D03*
Y33350D02*
D03*
X51500Y35890D02*
D03*
X37040D02*
D03*
Y33350D02*
D03*
X34500Y35890D02*
D03*
X20040D02*
D03*
Y33350D02*
D03*
X17500Y35890D02*
D03*
X3750Y21310D02*
D03*
Y18770D02*
D03*
Y16230D02*
D03*
Y13690D02*
D03*
Y11150D02*
D03*
D24*
X17500Y2187D02*
D03*
X51500Y2187D02*
D03*
X34500D02*
D03*
X51500Y33350D02*
D03*
X34500D02*
D03*
X17500D02*
D03*
D25*
X3750Y23850D02*
D03*
D26*
X10850Y13050D02*
D03*
X9750D02*
D03*
X41900Y11950D02*
D03*
X43000Y13050D02*
D03*
Y11950D02*
D03*
X25150D02*
D03*
X10850Y11950D02*
D03*
X9750D02*
D03*
X8650D02*
D03*
X16150Y23050D02*
D03*
X17250D02*
D03*
X32650Y21950D02*
D03*
Y23050D02*
D03*
X33750Y21950D02*
D03*
Y23050D02*
D03*
X34850Y21950D02*
D03*
Y23050D02*
D03*
X16150Y21950D02*
D03*
X17250D02*
D03*
X18350D02*
D03*
Y23050D02*
D03*
X8650Y13050D02*
D03*
X25150Y13050D02*
D03*
X26250D02*
D03*
Y11950D02*
D03*
X27350Y13050D02*
D03*
Y11950D02*
D03*
X41900Y13050D02*
D03*
X44100D02*
D03*
Y11950D02*
D03*
X49400Y21950D02*
D03*
Y23050D02*
D03*
X50500Y21950D02*
D03*
Y23050D02*
D03*
X51600Y21950D02*
D03*
Y23050D02*
D03*
D41*
X4925Y8300D02*
D03*
X3075D02*
D03*
D42*
X51500Y11200D02*
D03*
Y7300D02*
D03*
X34500Y11200D02*
D03*
Y7300D02*
D03*
X17500Y11200D02*
D03*
Y7300D02*
D03*
M02*
