M48
;Layer_Color=9474304
;FILE_FORMAT=4:3
METRIC,LZ
;TYPE=PLATED
T1F00S00C0.200
T2F00S00C0.660
T3F00S00C0.900
%
T01
X00494Y002195
Y002305
X00505
Y002195
X00516
Y002305
X003485Y002305
X003375
X003265
Y002195
X003375
X003485
X00419Y001305
Y001195
X0043
Y001305
X00441
Y001195
X002735
X002625
X002515
Y001305
X002625
X002735
X001085Y001305
X000975
Y001195
X001085
X000865
Y001305
X001615Y002195
Y002305
X001725
Y002195
X001835
Y002305
T02
X004583Y0002
X004583Y0028
X004329Y003054
X004075Y0028
X002908
X002654Y003054
X0024Y0028
X001258Y0028
X00075
X001004Y003054
X001004Y000454
X001258Y0002
X00075
X0024Y0002
X002654Y000454
X002908Y0002
X004075Y0002
X004329Y000454
T03
X00515Y0002187
X005404
Y0004727
X00515
Y003335
X005404
Y003589
X00515
X003704
Y003335
X00345
Y003589
X002004
Y003335
X00175
Y003589
X00175Y0004727
X002004
Y0002187
X00175
X00345Y0002187
X003704
Y0004727
X00345
X000375Y001115
Y001369
Y001623
Y001877
Y002131
Y002385
M30
