G04 #@! TF.GenerationSoftware,KiCad,Pcbnew,5.1.5+dfsg1-2build2*
G04 #@! TF.CreationDate,2021-11-26T12:36:15+03:00*
G04 #@! TF.ProjectId,Motherboard,4d6f7468-6572-4626-9f61-72642e6b6963,rev?*
G04 #@! TF.SameCoordinates,Original*
G04 #@! TF.FileFunction,Legend,Top*
G04 #@! TF.FilePolarity,Positive*
%FSLAX46Y46*%
G04 Gerber Fmt 4.6, Leading zero omitted, Abs format (unit mm)*
G04 Created by KiCad (PCBNEW 5.1.5+dfsg1-2build2) date 2021-11-26 12:36:15*
%MOMM*%
%LPD*%
G04 APERTURE LIST*
%ADD10C,0.500000*%
%ADD11C,0.120000*%
%ADD12C,0.150000*%
G04 APERTURE END LIST*
D10*
X136005000Y-80005000D02*
G75*
G03X136005000Y-80005000I-600000J0D01*
G01*
D11*
X28500000Y-66500000D02*
X83500000Y-66500000D01*
X88500000Y-66500000D02*
X143500000Y-66500000D01*
X158500000Y-71500000D02*
X208500000Y-71500000D01*
X208500000Y-103500000D02*
X208500000Y-71500000D01*
X158500000Y-103500000D02*
X158500000Y-71500000D01*
X158500000Y-103500000D02*
X208500000Y-103500000D01*
X213500000Y-71500000D02*
X263500000Y-71500000D01*
X263500000Y-103500000D02*
X263500000Y-71500000D01*
X213500000Y-103500000D02*
X213500000Y-71500000D01*
X213500000Y-103500000D02*
X263500000Y-103500000D01*
X83500000Y-71500000D02*
X133500000Y-71500000D01*
X133500000Y-103500000D02*
X133500000Y-71500000D01*
X83500000Y-103500000D02*
X83500000Y-71500000D01*
X83500000Y-103500000D02*
X133500000Y-103500000D01*
X28500000Y-71500000D02*
X78500000Y-71500000D01*
X28500000Y-103500000D02*
X28500000Y-71500000D01*
X83500000Y-23500000D02*
X28500000Y-23500000D01*
X83500000Y-66500000D02*
X83500000Y-23500000D01*
X143500000Y-23500000D02*
X88500000Y-23500000D01*
X28500000Y-23500000D02*
X28500000Y-66500000D01*
X28500000Y-103500000D02*
X78500000Y-103500000D01*
X143500000Y-66500000D02*
X143500000Y-23500000D01*
X78500000Y-103500000D02*
X78500000Y-71500000D01*
X88500000Y-23500000D02*
X88500000Y-66500000D01*
X208500000Y-66500000D02*
X263500000Y-66500000D01*
X263500000Y-23500000D02*
X208500000Y-23500000D01*
X263500000Y-66500000D02*
X263500000Y-23500000D01*
X208500000Y-23500000D02*
X208500000Y-66500000D01*
X148500000Y-23500000D02*
X148500000Y-66500000D01*
X203500000Y-23500000D02*
X148500000Y-23500000D01*
X203500000Y-66500000D02*
X203500000Y-23500000D01*
X148500000Y-66500000D02*
X203500000Y-66500000D01*
X207050000Y-110458752D02*
X207050000Y-107686248D01*
X203630000Y-110458752D02*
X203630000Y-107686248D01*
X215630564Y-114026000D02*
X214426436Y-114026000D01*
X215630564Y-115846000D02*
X214426436Y-115846000D01*
X207050000Y-118248752D02*
X207050000Y-115476248D01*
X203630000Y-118248752D02*
X203630000Y-115476248D01*
X217070000Y-109081000D02*
X217070000Y-112186000D01*
X217070000Y-107446000D02*
X217070000Y-108091000D01*
X210120000Y-109081000D02*
X210120000Y-112186000D01*
X210120000Y-107446000D02*
X210120000Y-108091000D01*
X210120000Y-112186000D02*
X217070000Y-112186000D01*
X210120000Y-107446000D02*
X217070000Y-107446000D01*
X170400000Y-105100000D02*
X173000000Y-105100000D01*
X170400000Y-119800000D02*
X170400000Y-105100000D01*
X179600000Y-105100000D02*
X179600000Y-107000000D01*
X176900000Y-105100000D02*
X179600000Y-105100000D01*
X179600000Y-119800000D02*
X170400000Y-119800000D01*
X179600000Y-111000000D02*
X179600000Y-119800000D01*
X170200000Y-105950000D02*
X170200000Y-104900000D01*
X171250000Y-104900000D02*
X170200000Y-104900000D01*
X75280000Y-111949000D02*
X76610000Y-111949000D01*
X75280000Y-113279000D02*
X75280000Y-111949000D01*
X77880000Y-111949000D02*
X80480000Y-111949000D01*
X77880000Y-114549000D02*
X77880000Y-111949000D01*
X75280000Y-114549000D02*
X77880000Y-114549000D01*
X80480000Y-111949000D02*
X80480000Y-114609000D01*
X75280000Y-114549000D02*
X75280000Y-114609000D01*
X75280000Y-114609000D02*
X80480000Y-114609000D01*
X93060000Y-111949000D02*
X94390000Y-111949000D01*
X93060000Y-113279000D02*
X93060000Y-111949000D01*
X95660000Y-111949000D02*
X98260000Y-111949000D01*
X95660000Y-114549000D02*
X95660000Y-111949000D01*
X93060000Y-114549000D02*
X95660000Y-114549000D01*
X98260000Y-111949000D02*
X98260000Y-114609000D01*
X93060000Y-114549000D02*
X93060000Y-114609000D01*
X93060000Y-114609000D02*
X98260000Y-114609000D01*
X30170000Y-84170000D02*
X31500000Y-84170000D01*
X30170000Y-85500000D02*
X30170000Y-84170000D01*
X32770000Y-84170000D02*
X35370000Y-84170000D01*
X32770000Y-86770000D02*
X32770000Y-84170000D01*
X30170000Y-86770000D02*
X32770000Y-86770000D01*
X35370000Y-84170000D02*
X35370000Y-91910000D01*
X30170000Y-86770000D02*
X30170000Y-91910000D01*
X30170000Y-91910000D02*
X35370000Y-91910000D01*
X174670000Y-63830000D02*
X174670000Y-62500000D01*
X176000000Y-63830000D02*
X174670000Y-63830000D01*
X174670000Y-61230000D02*
X174670000Y-58630000D01*
X177270000Y-61230000D02*
X174670000Y-61230000D01*
X177270000Y-63830000D02*
X177270000Y-61230000D01*
X174670000Y-58630000D02*
X182410000Y-58630000D01*
X177270000Y-63830000D02*
X182410000Y-63830000D01*
X182410000Y-63830000D02*
X182410000Y-58630000D01*
X69170000Y-101830000D02*
X69170000Y-100500000D01*
X70500000Y-101830000D02*
X69170000Y-101830000D01*
X69170000Y-99230000D02*
X69170000Y-96630000D01*
X71770000Y-99230000D02*
X69170000Y-99230000D01*
X71770000Y-101830000D02*
X71770000Y-99230000D01*
X69170000Y-96630000D02*
X76910000Y-96630000D01*
X71770000Y-101830000D02*
X76910000Y-101830000D01*
X76910000Y-101830000D02*
X76910000Y-96630000D01*
X222670000Y-120330000D02*
X222670000Y-119000000D01*
X224000000Y-120330000D02*
X222670000Y-120330000D01*
X222670000Y-117730000D02*
X222670000Y-115130000D01*
X225270000Y-117730000D02*
X222670000Y-117730000D01*
X225270000Y-120330000D02*
X225270000Y-117730000D01*
X222670000Y-115130000D02*
X248190000Y-115130000D01*
X225270000Y-120330000D02*
X248190000Y-120330000D01*
X248190000Y-120330000D02*
X248190000Y-115130000D01*
X44670000Y-120330000D02*
X44670000Y-119000000D01*
X46000000Y-120330000D02*
X44670000Y-120330000D01*
X44670000Y-117730000D02*
X44670000Y-115130000D01*
X47270000Y-117730000D02*
X44670000Y-117730000D01*
X47270000Y-120330000D02*
X47270000Y-117730000D01*
X44670000Y-115130000D02*
X70190000Y-115130000D01*
X47270000Y-120330000D02*
X70190000Y-120330000D01*
X70190000Y-120330000D02*
X70190000Y-115130000D01*
X74170000Y-29830000D02*
X74170000Y-28500000D01*
X75500000Y-29830000D02*
X74170000Y-29830000D01*
X74170000Y-27230000D02*
X74170000Y-24630000D01*
X76770000Y-27230000D02*
X74170000Y-27230000D01*
X76770000Y-29830000D02*
X76770000Y-27230000D01*
X74170000Y-24630000D02*
X81910000Y-24630000D01*
X76770000Y-29830000D02*
X81910000Y-29830000D01*
X81910000Y-29830000D02*
X81910000Y-24630000D01*
X254170000Y-29830000D02*
X254170000Y-28500000D01*
X255500000Y-29830000D02*
X254170000Y-29830000D01*
X254170000Y-27230000D02*
X254170000Y-24630000D01*
X256770000Y-27230000D02*
X254170000Y-27230000D01*
X256770000Y-29830000D02*
X256770000Y-27230000D01*
X254170000Y-24630000D02*
X261910000Y-24630000D01*
X256770000Y-29830000D02*
X261910000Y-29830000D01*
X261910000Y-29830000D02*
X261910000Y-24630000D01*
X210170000Y-29830000D02*
X210170000Y-28500000D01*
X211500000Y-29830000D02*
X210170000Y-29830000D01*
X210170000Y-27230000D02*
X210170000Y-24630000D01*
X212770000Y-27230000D02*
X210170000Y-27230000D01*
X212770000Y-29830000D02*
X212770000Y-27230000D01*
X210170000Y-24630000D02*
X217910000Y-24630000D01*
X212770000Y-29830000D02*
X217910000Y-29830000D01*
X217910000Y-29830000D02*
X217910000Y-24630000D01*
X194170000Y-29830000D02*
X194170000Y-28500000D01*
X195500000Y-29830000D02*
X194170000Y-29830000D01*
X194170000Y-27230000D02*
X194170000Y-24630000D01*
X196770000Y-27230000D02*
X194170000Y-27230000D01*
X196770000Y-29830000D02*
X196770000Y-27230000D01*
X194170000Y-24630000D02*
X201910000Y-24630000D01*
X196770000Y-29830000D02*
X201910000Y-29830000D01*
X201910000Y-29830000D02*
X201910000Y-24630000D01*
X150170000Y-29830000D02*
X150170000Y-28500000D01*
X151500000Y-29830000D02*
X150170000Y-29830000D01*
X150170000Y-27230000D02*
X150170000Y-24630000D01*
X152770000Y-27230000D02*
X150170000Y-27230000D01*
X152770000Y-29830000D02*
X152770000Y-27230000D01*
X150170000Y-24630000D02*
X157910000Y-24630000D01*
X152770000Y-29830000D02*
X157910000Y-29830000D01*
X157910000Y-29830000D02*
X157910000Y-24630000D01*
X134170000Y-29830000D02*
X134170000Y-28500000D01*
X135500000Y-29830000D02*
X134170000Y-29830000D01*
X134170000Y-27230000D02*
X134170000Y-24630000D01*
X136770000Y-27230000D02*
X134170000Y-27230000D01*
X136770000Y-29830000D02*
X136770000Y-27230000D01*
X134170000Y-24630000D02*
X141910000Y-24630000D01*
X136770000Y-29830000D02*
X141910000Y-29830000D01*
X141910000Y-29830000D02*
X141910000Y-24630000D01*
X90170000Y-29830000D02*
X90170000Y-28500000D01*
X91500000Y-29830000D02*
X90170000Y-29830000D01*
X90170000Y-27230000D02*
X90170000Y-24630000D01*
X92770000Y-27230000D02*
X90170000Y-27230000D01*
X92770000Y-29830000D02*
X92770000Y-27230000D01*
X90170000Y-24630000D02*
X97910000Y-24630000D01*
X92770000Y-29830000D02*
X97910000Y-29830000D01*
X97910000Y-29830000D02*
X97910000Y-24630000D01*
X30170000Y-29830000D02*
X30170000Y-28500000D01*
X31500000Y-29830000D02*
X30170000Y-29830000D01*
X30170000Y-27230000D02*
X30170000Y-24630000D01*
X32770000Y-27230000D02*
X30170000Y-27230000D01*
X32770000Y-29830000D02*
X32770000Y-27230000D01*
X30170000Y-24630000D02*
X37910000Y-24630000D01*
X32770000Y-29830000D02*
X37910000Y-29830000D01*
X37910000Y-29830000D02*
X37910000Y-24630000D01*
X254170000Y-101830000D02*
X254170000Y-100500000D01*
X255500000Y-101830000D02*
X254170000Y-101830000D01*
X254170000Y-99230000D02*
X254170000Y-96630000D01*
X256770000Y-99230000D02*
X254170000Y-99230000D01*
X256770000Y-101830000D02*
X256770000Y-99230000D01*
X254170000Y-96630000D02*
X261910000Y-96630000D01*
X256770000Y-101830000D02*
X261910000Y-101830000D01*
X261910000Y-101830000D02*
X261910000Y-96630000D01*
X199170000Y-101830000D02*
X199170000Y-100500000D01*
X200500000Y-101830000D02*
X199170000Y-101830000D01*
X199170000Y-99230000D02*
X199170000Y-96630000D01*
X201770000Y-99230000D02*
X199170000Y-99230000D01*
X201770000Y-101830000D02*
X201770000Y-99230000D01*
X199170000Y-96630000D02*
X206910000Y-96630000D01*
X201770000Y-101830000D02*
X206910000Y-101830000D01*
X206910000Y-101830000D02*
X206910000Y-96630000D01*
X124170000Y-101830000D02*
X124170000Y-100500000D01*
X125500000Y-101830000D02*
X124170000Y-101830000D01*
X124170000Y-99230000D02*
X124170000Y-96630000D01*
X126770000Y-99230000D02*
X124170000Y-99230000D01*
X126770000Y-101830000D02*
X126770000Y-99230000D01*
X124170000Y-96630000D02*
X131910000Y-96630000D01*
X126770000Y-101830000D02*
X131910000Y-101830000D01*
X131910000Y-101830000D02*
X131910000Y-96630000D01*
X250670000Y-120330000D02*
X250670000Y-119000000D01*
X252000000Y-120330000D02*
X250670000Y-120330000D01*
X250670000Y-117730000D02*
X250670000Y-115130000D01*
X253270000Y-117730000D02*
X250670000Y-117730000D01*
X253270000Y-120330000D02*
X253270000Y-117730000D01*
X250670000Y-115130000D02*
X253330000Y-115130000D01*
X253270000Y-120330000D02*
X253330000Y-120330000D01*
X253330000Y-120330000D02*
X253330000Y-115130000D01*
X38670000Y-120330000D02*
X38670000Y-119000000D01*
X40000000Y-120330000D02*
X38670000Y-120330000D01*
X38670000Y-117730000D02*
X38670000Y-115130000D01*
X41270000Y-117730000D02*
X38670000Y-117730000D01*
X41270000Y-120330000D02*
X41270000Y-117730000D01*
X38670000Y-115130000D02*
X41330000Y-115130000D01*
X41270000Y-120330000D02*
X41330000Y-120330000D01*
X41330000Y-120330000D02*
X41330000Y-115130000D01*
X222670000Y-112710000D02*
X227870000Y-112710000D01*
X222670000Y-112650000D02*
X222670000Y-112710000D01*
X227870000Y-110050000D02*
X227870000Y-112710000D01*
X222670000Y-112650000D02*
X225270000Y-112650000D01*
X225270000Y-112650000D02*
X225270000Y-110050000D01*
X225270000Y-110050000D02*
X227870000Y-110050000D01*
X222670000Y-111380000D02*
X222670000Y-110050000D01*
X222670000Y-110050000D02*
X224000000Y-110050000D01*
X254170000Y-77830000D02*
X254170000Y-76500000D01*
X255500000Y-77830000D02*
X254170000Y-77830000D01*
X254170000Y-75230000D02*
X254170000Y-72630000D01*
X256770000Y-75230000D02*
X254170000Y-75230000D01*
X256770000Y-77830000D02*
X256770000Y-75230000D01*
X254170000Y-72630000D02*
X261910000Y-72630000D01*
X256770000Y-77830000D02*
X261910000Y-77830000D01*
X261910000Y-77830000D02*
X261910000Y-72630000D01*
X199170000Y-77830000D02*
X199170000Y-76500000D01*
X200500000Y-77830000D02*
X199170000Y-77830000D01*
X199170000Y-75230000D02*
X199170000Y-72630000D01*
X201770000Y-75230000D02*
X199170000Y-75230000D01*
X201770000Y-77830000D02*
X201770000Y-75230000D01*
X199170000Y-72630000D02*
X206910000Y-72630000D01*
X201770000Y-77830000D02*
X206910000Y-77830000D01*
X206910000Y-77830000D02*
X206910000Y-72630000D01*
X124170000Y-77830000D02*
X124170000Y-76500000D01*
X125500000Y-77830000D02*
X124170000Y-77830000D01*
X124170000Y-75230000D02*
X124170000Y-72630000D01*
X126770000Y-75230000D02*
X124170000Y-75230000D01*
X126770000Y-77830000D02*
X126770000Y-75230000D01*
X124170000Y-72630000D02*
X131910000Y-72630000D01*
X126770000Y-77830000D02*
X131910000Y-77830000D01*
X131910000Y-77830000D02*
X131910000Y-72630000D01*
X69170000Y-77830000D02*
X69170000Y-76500000D01*
X70500000Y-77830000D02*
X69170000Y-77830000D01*
X69170000Y-75230000D02*
X69170000Y-72630000D01*
X71770000Y-75230000D02*
X69170000Y-75230000D01*
X71770000Y-77830000D02*
X71770000Y-75230000D01*
X69170000Y-72630000D02*
X76910000Y-72630000D01*
X71770000Y-77830000D02*
X76910000Y-77830000D01*
X76910000Y-77830000D02*
X76910000Y-72630000D01*
X234670000Y-63830000D02*
X234670000Y-62500000D01*
X236000000Y-63830000D02*
X234670000Y-63830000D01*
X234670000Y-61230000D02*
X234670000Y-58630000D01*
X237270000Y-61230000D02*
X234670000Y-61230000D01*
X237270000Y-63830000D02*
X237270000Y-61230000D01*
X234670000Y-58630000D02*
X242410000Y-58630000D01*
X237270000Y-63830000D02*
X242410000Y-63830000D01*
X242410000Y-63830000D02*
X242410000Y-58630000D01*
X114670000Y-63830000D02*
X114670000Y-62500000D01*
X116000000Y-63830000D02*
X114670000Y-63830000D01*
X114670000Y-61230000D02*
X114670000Y-58630000D01*
X117270000Y-61230000D02*
X114670000Y-61230000D01*
X117270000Y-63830000D02*
X117270000Y-61230000D01*
X114670000Y-58630000D02*
X122410000Y-58630000D01*
X117270000Y-63830000D02*
X122410000Y-63830000D01*
X122410000Y-63830000D02*
X122410000Y-58630000D01*
X54670000Y-63830000D02*
X54670000Y-62500000D01*
X56000000Y-63830000D02*
X54670000Y-63830000D01*
X54670000Y-61230000D02*
X54670000Y-58630000D01*
X57270000Y-61230000D02*
X54670000Y-61230000D01*
X57270000Y-63830000D02*
X57270000Y-61230000D01*
X54670000Y-58630000D02*
X62410000Y-58630000D01*
X57270000Y-63830000D02*
X62410000Y-63830000D01*
X62410000Y-63830000D02*
X62410000Y-58630000D01*
X215170000Y-84170000D02*
X216500000Y-84170000D01*
X215170000Y-85500000D02*
X215170000Y-84170000D01*
X217770000Y-84170000D02*
X220370000Y-84170000D01*
X217770000Y-86770000D02*
X217770000Y-84170000D01*
X215170000Y-86770000D02*
X217770000Y-86770000D01*
X220370000Y-84170000D02*
X220370000Y-91910000D01*
X215170000Y-86770000D02*
X215170000Y-91910000D01*
X215170000Y-91910000D02*
X220370000Y-91910000D01*
X160170000Y-84170000D02*
X161500000Y-84170000D01*
X160170000Y-85500000D02*
X160170000Y-84170000D01*
X162770000Y-84170000D02*
X165370000Y-84170000D01*
X162770000Y-86770000D02*
X162770000Y-84170000D01*
X160170000Y-86770000D02*
X162770000Y-86770000D01*
X165370000Y-84170000D02*
X165370000Y-91910000D01*
X160170000Y-86770000D02*
X160170000Y-91910000D01*
X160170000Y-91910000D02*
X165370000Y-91910000D01*
X85170000Y-84170000D02*
X86500000Y-84170000D01*
X85170000Y-85500000D02*
X85170000Y-84170000D01*
X87770000Y-84170000D02*
X90370000Y-84170000D01*
X87770000Y-86770000D02*
X87770000Y-84170000D01*
X85170000Y-86770000D02*
X87770000Y-86770000D01*
X90370000Y-84170000D02*
X90370000Y-91910000D01*
X85170000Y-86770000D02*
X85170000Y-91910000D01*
X85170000Y-91910000D02*
X90370000Y-91910000D01*
X121150000Y-115150000D02*
X121150000Y-106850000D01*
X112850000Y-115150000D02*
X112850000Y-106850000D01*
X121150000Y-106850000D02*
X112850000Y-106850000D01*
X121150000Y-115150000D02*
X112850000Y-115150000D01*
X193825000Y-117200000D02*
X195325000Y-117200000D01*
X195325000Y-117200000D02*
X195325000Y-115390000D01*
X195325000Y-115390000D02*
X200450000Y-115390000D01*
X193825000Y-106800000D02*
X195325000Y-106800000D01*
X195325000Y-106800000D02*
X195325000Y-108610000D01*
X195325000Y-108610000D02*
X196425000Y-108610000D01*
X101950000Y-111949000D02*
X103280000Y-111949000D01*
X101950000Y-113279000D02*
X101950000Y-111949000D01*
X104550000Y-111949000D02*
X107150000Y-111949000D01*
X104550000Y-114549000D02*
X104550000Y-111949000D01*
X101950000Y-114549000D02*
X104550000Y-114549000D01*
X107150000Y-111949000D02*
X107150000Y-114609000D01*
X101950000Y-114549000D02*
X101950000Y-114609000D01*
X101950000Y-114609000D02*
X107150000Y-114609000D01*
X83860000Y-111949000D02*
X85190000Y-111949000D01*
X83860000Y-113279000D02*
X83860000Y-111949000D01*
X86460000Y-111949000D02*
X89060000Y-111949000D01*
X86460000Y-114549000D02*
X86460000Y-111949000D01*
X83860000Y-114549000D02*
X86460000Y-114549000D01*
X89060000Y-111949000D02*
X89060000Y-114609000D01*
X83860000Y-114549000D02*
X83860000Y-114609000D01*
X83860000Y-114609000D02*
X89060000Y-114609000D01*
X155020000Y-76060000D02*
X136980000Y-76060000D01*
X155020000Y-119500000D02*
X155020000Y-76060000D01*
X136980000Y-119500000D02*
X155020000Y-119500000D01*
X139650000Y-116830000D02*
X136980000Y-116830000D01*
X139650000Y-81270000D02*
X139650000Y-116830000D01*
X139650000Y-81270000D02*
X136980000Y-81270000D01*
X152350000Y-116830000D02*
X155020000Y-116830000D01*
X152350000Y-78730000D02*
X152350000Y-116830000D01*
X152350000Y-78730000D02*
X155020000Y-78730000D01*
X136980000Y-76060000D02*
X136980000Y-78730000D01*
X136980000Y-81270000D02*
X136980000Y-119500000D01*
X139650000Y-78730000D02*
X136980000Y-78730000D01*
X139650000Y-81270000D02*
X139650000Y-78730000D01*
D12*
X203047142Y-109239166D02*
X203094761Y-109286785D01*
X203142380Y-109429642D01*
X203142380Y-109524880D01*
X203094761Y-109667738D01*
X202999523Y-109762976D01*
X202904285Y-109810595D01*
X202713809Y-109858214D01*
X202570952Y-109858214D01*
X202380476Y-109810595D01*
X202285238Y-109762976D01*
X202190000Y-109667738D01*
X202142380Y-109524880D01*
X202142380Y-109429642D01*
X202190000Y-109286785D01*
X202237619Y-109239166D01*
X202237619Y-108858214D02*
X202190000Y-108810595D01*
X202142380Y-108715357D01*
X202142380Y-108477261D01*
X202190000Y-108382023D01*
X202237619Y-108334404D01*
X202332857Y-108286785D01*
X202428095Y-108286785D01*
X202570952Y-108334404D01*
X203142380Y-108905833D01*
X203142380Y-108286785D01*
X214861833Y-117208380D02*
X214528500Y-116732190D01*
X214290404Y-117208380D02*
X214290404Y-116208380D01*
X214671357Y-116208380D01*
X214766595Y-116256000D01*
X214814214Y-116303619D01*
X214861833Y-116398857D01*
X214861833Y-116541714D01*
X214814214Y-116636952D01*
X214766595Y-116684571D01*
X214671357Y-116732190D01*
X214290404Y-116732190D01*
X215814214Y-117208380D02*
X215242785Y-117208380D01*
X215528500Y-117208380D02*
X215528500Y-116208380D01*
X215433261Y-116351238D01*
X215338023Y-116446476D01*
X215242785Y-116494095D01*
X203047142Y-117029166D02*
X203094761Y-117076785D01*
X203142380Y-117219642D01*
X203142380Y-117314880D01*
X203094761Y-117457738D01*
X202999523Y-117552976D01*
X202904285Y-117600595D01*
X202713809Y-117648214D01*
X202570952Y-117648214D01*
X202380476Y-117600595D01*
X202285238Y-117552976D01*
X202190000Y-117457738D01*
X202142380Y-117314880D01*
X202142380Y-117219642D01*
X202190000Y-117076785D01*
X202237619Y-117029166D01*
X203142380Y-116076785D02*
X203142380Y-116648214D01*
X203142380Y-116362500D02*
X202142380Y-116362500D01*
X202285238Y-116457738D01*
X202380476Y-116552976D01*
X202428095Y-116648214D01*
X212285476Y-105768380D02*
X212618809Y-106768380D01*
X212952142Y-105768380D01*
X213856904Y-106768380D02*
X213523571Y-106292190D01*
X213285476Y-106768380D02*
X213285476Y-105768380D01*
X213666428Y-105768380D01*
X213761666Y-105816000D01*
X213809285Y-105863619D01*
X213856904Y-105958857D01*
X213856904Y-106101714D01*
X213809285Y-106196952D01*
X213761666Y-106244571D01*
X213666428Y-106292190D01*
X213285476Y-106292190D01*
X214809285Y-106768380D02*
X214237857Y-106768380D01*
X214523571Y-106768380D02*
X214523571Y-105768380D01*
X214428333Y-105911238D01*
X214333095Y-106006476D01*
X214237857Y-106054095D01*
X181107142Y-115664285D02*
X181154761Y-115711904D01*
X181202380Y-115854761D01*
X181202380Y-115950000D01*
X181154761Y-116092857D01*
X181059523Y-116188095D01*
X180964285Y-116235714D01*
X180773809Y-116283333D01*
X180630952Y-116283333D01*
X180440476Y-116235714D01*
X180345238Y-116188095D01*
X180250000Y-116092857D01*
X180202380Y-115950000D01*
X180202380Y-115854761D01*
X180250000Y-115711904D01*
X180297619Y-115664285D01*
X180202380Y-115045238D02*
X180202380Y-114854761D01*
X180250000Y-114759523D01*
X180345238Y-114664285D01*
X180535714Y-114616666D01*
X180869047Y-114616666D01*
X181059523Y-114664285D01*
X181154761Y-114759523D01*
X181202380Y-114854761D01*
X181202380Y-115045238D01*
X181154761Y-115140476D01*
X181059523Y-115235714D01*
X180869047Y-115283333D01*
X180535714Y-115283333D01*
X180345238Y-115235714D01*
X180250000Y-115140476D01*
X180202380Y-115045238D01*
X181202380Y-114188095D02*
X180202380Y-114188095D01*
X181202380Y-113616666D01*
X180202380Y-113616666D01*
X181202380Y-112616666D02*
X181202380Y-113188095D01*
X181202380Y-112902380D02*
X180202380Y-112902380D01*
X180345238Y-112997619D01*
X180440476Y-113092857D01*
X180488095Y-113188095D01*
X75927619Y-110401380D02*
X75927619Y-111115666D01*
X75880000Y-111258523D01*
X75784761Y-111353761D01*
X75641904Y-111401380D01*
X75546666Y-111401380D01*
X76260952Y-110401380D02*
X76832380Y-110401380D01*
X76546666Y-111401380D02*
X76546666Y-110401380D01*
X77737142Y-111401380D02*
X77403809Y-110925190D01*
X77165714Y-111401380D02*
X77165714Y-110401380D01*
X77546666Y-110401380D01*
X77641904Y-110449000D01*
X77689523Y-110496619D01*
X77737142Y-110591857D01*
X77737142Y-110734714D01*
X77689523Y-110829952D01*
X77641904Y-110877571D01*
X77546666Y-110925190D01*
X77165714Y-110925190D01*
X78165714Y-111401380D02*
X78165714Y-110401380D01*
X79165714Y-110449000D02*
X79070476Y-110401380D01*
X78927619Y-110401380D01*
X78784761Y-110449000D01*
X78689523Y-110544238D01*
X78641904Y-110639476D01*
X78594285Y-110829952D01*
X78594285Y-110972809D01*
X78641904Y-111163285D01*
X78689523Y-111258523D01*
X78784761Y-111353761D01*
X78927619Y-111401380D01*
X79022857Y-111401380D01*
X79165714Y-111353761D01*
X79213333Y-111306142D01*
X79213333Y-110972809D01*
X79022857Y-110972809D01*
X80165714Y-111401380D02*
X79594285Y-111401380D01*
X79880000Y-111401380D02*
X79880000Y-110401380D01*
X79784761Y-110544238D01*
X79689523Y-110639476D01*
X79594285Y-110687095D01*
X93707619Y-110401380D02*
X93707619Y-111115666D01*
X93660000Y-111258523D01*
X93564761Y-111353761D01*
X93421904Y-111401380D01*
X93326666Y-111401380D01*
X94040952Y-110401380D02*
X94612380Y-110401380D01*
X94326666Y-111401380D02*
X94326666Y-110401380D01*
X95517142Y-111401380D02*
X95183809Y-110925190D01*
X94945714Y-111401380D02*
X94945714Y-110401380D01*
X95326666Y-110401380D01*
X95421904Y-110449000D01*
X95469523Y-110496619D01*
X95517142Y-110591857D01*
X95517142Y-110734714D01*
X95469523Y-110829952D01*
X95421904Y-110877571D01*
X95326666Y-110925190D01*
X94945714Y-110925190D01*
X95945714Y-111401380D02*
X95945714Y-110401380D01*
X96945714Y-110449000D02*
X96850476Y-110401380D01*
X96707619Y-110401380D01*
X96564761Y-110449000D01*
X96469523Y-110544238D01*
X96421904Y-110639476D01*
X96374285Y-110829952D01*
X96374285Y-110972809D01*
X96421904Y-111163285D01*
X96469523Y-111258523D01*
X96564761Y-111353761D01*
X96707619Y-111401380D01*
X96802857Y-111401380D01*
X96945714Y-111353761D01*
X96993333Y-111306142D01*
X96993333Y-110972809D01*
X96802857Y-110972809D01*
X97326666Y-110401380D02*
X97945714Y-110401380D01*
X97612380Y-110782333D01*
X97755238Y-110782333D01*
X97850476Y-110829952D01*
X97898095Y-110877571D01*
X97945714Y-110972809D01*
X97945714Y-111210904D01*
X97898095Y-111306142D01*
X97850476Y-111353761D01*
X97755238Y-111401380D01*
X97469523Y-111401380D01*
X97374285Y-111353761D01*
X97326666Y-111306142D01*
X30603333Y-83098571D02*
X30746190Y-83146190D01*
X30793809Y-83193809D01*
X30841428Y-83289047D01*
X30841428Y-83431904D01*
X30793809Y-83527142D01*
X30746190Y-83574761D01*
X30650952Y-83622380D01*
X30270000Y-83622380D01*
X30270000Y-82622380D01*
X30603333Y-82622380D01*
X30698571Y-82670000D01*
X30746190Y-82717619D01*
X30793809Y-82812857D01*
X30793809Y-82908095D01*
X30746190Y-83003333D01*
X30698571Y-83050952D01*
X30603333Y-83098571D01*
X30270000Y-83098571D01*
X31270000Y-82622380D02*
X31270000Y-83431904D01*
X31317619Y-83527142D01*
X31365238Y-83574761D01*
X31460476Y-83622380D01*
X31650952Y-83622380D01*
X31746190Y-83574761D01*
X31793809Y-83527142D01*
X31841428Y-83431904D01*
X31841428Y-82622380D01*
X32270000Y-83574761D02*
X32412857Y-83622380D01*
X32650952Y-83622380D01*
X32746190Y-83574761D01*
X32793809Y-83527142D01*
X32841428Y-83431904D01*
X32841428Y-83336666D01*
X32793809Y-83241428D01*
X32746190Y-83193809D01*
X32650952Y-83146190D01*
X32460476Y-83098571D01*
X32365238Y-83050952D01*
X32317619Y-83003333D01*
X32270000Y-82908095D01*
X32270000Y-82812857D01*
X32317619Y-82717619D01*
X32365238Y-82670000D01*
X32460476Y-82622380D01*
X32698571Y-82622380D01*
X32841428Y-82670000D01*
X33270000Y-83622380D02*
X33270000Y-82622380D01*
X33746190Y-83622380D02*
X33746190Y-82622380D01*
X34317619Y-83622380D01*
X34317619Y-82622380D01*
X35317619Y-83622380D02*
X34746190Y-83622380D01*
X35031904Y-83622380D02*
X35031904Y-82622380D01*
X34936666Y-82765238D01*
X34841428Y-82860476D01*
X34746190Y-82908095D01*
X173598571Y-63539523D02*
X173646190Y-63396666D01*
X173693809Y-63349047D01*
X173789047Y-63301428D01*
X173931904Y-63301428D01*
X174027142Y-63349047D01*
X174074761Y-63396666D01*
X174122380Y-63491904D01*
X174122380Y-63872857D01*
X173122380Y-63872857D01*
X173122380Y-63539523D01*
X173170000Y-63444285D01*
X173217619Y-63396666D01*
X173312857Y-63349047D01*
X173408095Y-63349047D01*
X173503333Y-63396666D01*
X173550952Y-63444285D01*
X173598571Y-63539523D01*
X173598571Y-63872857D01*
X173122380Y-62872857D02*
X173931904Y-62872857D01*
X174027142Y-62825238D01*
X174074761Y-62777619D01*
X174122380Y-62682380D01*
X174122380Y-62491904D01*
X174074761Y-62396666D01*
X174027142Y-62349047D01*
X173931904Y-62301428D01*
X173122380Y-62301428D01*
X174074761Y-61872857D02*
X174122380Y-61730000D01*
X174122380Y-61491904D01*
X174074761Y-61396666D01*
X174027142Y-61349047D01*
X173931904Y-61301428D01*
X173836666Y-61301428D01*
X173741428Y-61349047D01*
X173693809Y-61396666D01*
X173646190Y-61491904D01*
X173598571Y-61682380D01*
X173550952Y-61777619D01*
X173503333Y-61825238D01*
X173408095Y-61872857D01*
X173312857Y-61872857D01*
X173217619Y-61825238D01*
X173170000Y-61777619D01*
X173122380Y-61682380D01*
X173122380Y-61444285D01*
X173170000Y-61301428D01*
X174122380Y-60396666D02*
X174122380Y-60872857D01*
X173122380Y-60872857D01*
X174122380Y-60063333D02*
X173122380Y-60063333D01*
X173122380Y-59825238D01*
X173170000Y-59682380D01*
X173265238Y-59587142D01*
X173360476Y-59539523D01*
X173550952Y-59491904D01*
X173693809Y-59491904D01*
X173884285Y-59539523D01*
X173979523Y-59587142D01*
X174074761Y-59682380D01*
X174122380Y-59825238D01*
X174122380Y-60063333D01*
X173122380Y-59158571D02*
X173122380Y-58539523D01*
X173503333Y-58872857D01*
X173503333Y-58730000D01*
X173550952Y-58634761D01*
X173598571Y-58587142D01*
X173693809Y-58539523D01*
X173931904Y-58539523D01*
X174027142Y-58587142D01*
X174074761Y-58634761D01*
X174122380Y-58730000D01*
X174122380Y-59015714D01*
X174074761Y-59110952D01*
X174027142Y-59158571D01*
X67622380Y-101087142D02*
X68336666Y-101087142D01*
X68479523Y-101134761D01*
X68574761Y-101230000D01*
X68622380Y-101372857D01*
X68622380Y-101468095D01*
X67670000Y-100087142D02*
X67622380Y-100182380D01*
X67622380Y-100325238D01*
X67670000Y-100468095D01*
X67765238Y-100563333D01*
X67860476Y-100610952D01*
X68050952Y-100658571D01*
X68193809Y-100658571D01*
X68384285Y-100610952D01*
X68479523Y-100563333D01*
X68574761Y-100468095D01*
X68622380Y-100325238D01*
X68622380Y-100230000D01*
X68574761Y-100087142D01*
X68527142Y-100039523D01*
X68193809Y-100039523D01*
X68193809Y-100230000D01*
X68622380Y-99610952D02*
X67622380Y-99610952D01*
X68622380Y-99039523D01*
X67622380Y-99039523D01*
X68622380Y-98563333D02*
X67622380Y-98563333D01*
X67622380Y-98325238D01*
X67670000Y-98182380D01*
X67765238Y-98087142D01*
X67860476Y-98039523D01*
X68050952Y-97991904D01*
X68193809Y-97991904D01*
X68384285Y-98039523D01*
X68479523Y-98087142D01*
X68574761Y-98182380D01*
X68622380Y-98325238D01*
X68622380Y-98563333D01*
X67622380Y-97658571D02*
X67622380Y-97039523D01*
X68003333Y-97372857D01*
X68003333Y-97230000D01*
X68050952Y-97134761D01*
X68098571Y-97087142D01*
X68193809Y-97039523D01*
X68431904Y-97039523D01*
X68527142Y-97087142D01*
X68574761Y-97134761D01*
X68622380Y-97230000D01*
X68622380Y-97515714D01*
X68574761Y-97610952D01*
X68527142Y-97658571D01*
X222122380Y-119325238D02*
X221122380Y-119325238D01*
X222122380Y-118753809D01*
X221122380Y-118753809D01*
X221598571Y-118277619D02*
X221598571Y-117944285D01*
X222122380Y-117801428D02*
X222122380Y-118277619D01*
X221122380Y-118277619D01*
X221122380Y-117801428D01*
X221122380Y-117515714D02*
X221122380Y-116944285D01*
X222122380Y-117230000D02*
X221122380Y-117230000D01*
X221217619Y-116658571D02*
X221170000Y-116610952D01*
X221122380Y-116515714D01*
X221122380Y-116277619D01*
X221170000Y-116182380D01*
X221217619Y-116134761D01*
X221312857Y-116087142D01*
X221408095Y-116087142D01*
X221550952Y-116134761D01*
X222122380Y-116706190D01*
X222122380Y-116087142D01*
X44122380Y-119325238D02*
X43122380Y-119325238D01*
X44122380Y-118753809D01*
X43122380Y-118753809D01*
X43598571Y-118277619D02*
X43598571Y-117944285D01*
X44122380Y-117801428D02*
X44122380Y-118277619D01*
X43122380Y-118277619D01*
X43122380Y-117801428D01*
X43122380Y-117515714D02*
X43122380Y-116944285D01*
X44122380Y-117230000D02*
X43122380Y-117230000D01*
X44122380Y-116087142D02*
X44122380Y-116658571D01*
X44122380Y-116372857D02*
X43122380Y-116372857D01*
X43265238Y-116468095D01*
X43360476Y-116563333D01*
X43408095Y-116658571D01*
X72622380Y-29087142D02*
X73336666Y-29087142D01*
X73479523Y-29134761D01*
X73574761Y-29230000D01*
X73622380Y-29372857D01*
X73622380Y-29468095D01*
X72670000Y-28087142D02*
X72622380Y-28182380D01*
X72622380Y-28325238D01*
X72670000Y-28468095D01*
X72765238Y-28563333D01*
X72860476Y-28610952D01*
X73050952Y-28658571D01*
X73193809Y-28658571D01*
X73384285Y-28610952D01*
X73479523Y-28563333D01*
X73574761Y-28468095D01*
X73622380Y-28325238D01*
X73622380Y-28230000D01*
X73574761Y-28087142D01*
X73527142Y-28039523D01*
X73193809Y-28039523D01*
X73193809Y-28230000D01*
X73622380Y-27610952D02*
X72622380Y-27610952D01*
X73622380Y-27039523D01*
X72622380Y-27039523D01*
X73622380Y-26563333D02*
X72622380Y-26563333D01*
X72622380Y-26325238D01*
X72670000Y-26182380D01*
X72765238Y-26087142D01*
X72860476Y-26039523D01*
X73050952Y-25991904D01*
X73193809Y-25991904D01*
X73384285Y-26039523D01*
X73479523Y-26087142D01*
X73574761Y-26182380D01*
X73622380Y-26325238D01*
X73622380Y-26563333D01*
X73050952Y-25420476D02*
X73003333Y-25515714D01*
X72955714Y-25563333D01*
X72860476Y-25610952D01*
X72812857Y-25610952D01*
X72717619Y-25563333D01*
X72670000Y-25515714D01*
X72622380Y-25420476D01*
X72622380Y-25230000D01*
X72670000Y-25134761D01*
X72717619Y-25087142D01*
X72812857Y-25039523D01*
X72860476Y-25039523D01*
X72955714Y-25087142D01*
X73003333Y-25134761D01*
X73050952Y-25230000D01*
X73050952Y-25420476D01*
X73098571Y-25515714D01*
X73146190Y-25563333D01*
X73241428Y-25610952D01*
X73431904Y-25610952D01*
X73527142Y-25563333D01*
X73574761Y-25515714D01*
X73622380Y-25420476D01*
X73622380Y-25230000D01*
X73574761Y-25134761D01*
X73527142Y-25087142D01*
X73431904Y-25039523D01*
X73241428Y-25039523D01*
X73146190Y-25087142D01*
X73098571Y-25134761D01*
X73050952Y-25230000D01*
X252622380Y-29563333D02*
X253336666Y-29563333D01*
X253479523Y-29610952D01*
X253574761Y-29706190D01*
X253622380Y-29849047D01*
X253622380Y-29944285D01*
X252670000Y-28563333D02*
X252622380Y-28658571D01*
X252622380Y-28801428D01*
X252670000Y-28944285D01*
X252765238Y-29039523D01*
X252860476Y-29087142D01*
X253050952Y-29134761D01*
X253193809Y-29134761D01*
X253384285Y-29087142D01*
X253479523Y-29039523D01*
X253574761Y-28944285D01*
X253622380Y-28801428D01*
X253622380Y-28706190D01*
X253574761Y-28563333D01*
X253527142Y-28515714D01*
X253193809Y-28515714D01*
X253193809Y-28706190D01*
X253622380Y-28087142D02*
X252622380Y-28087142D01*
X253622380Y-27515714D01*
X252622380Y-27515714D01*
X253622380Y-27039523D02*
X252622380Y-27039523D01*
X252622380Y-26801428D01*
X252670000Y-26658571D01*
X252765238Y-26563333D01*
X252860476Y-26515714D01*
X253050952Y-26468095D01*
X253193809Y-26468095D01*
X253384285Y-26515714D01*
X253479523Y-26563333D01*
X253574761Y-26658571D01*
X253622380Y-26801428D01*
X253622380Y-27039523D01*
X253622380Y-25515714D02*
X253622380Y-26087142D01*
X253622380Y-25801428D02*
X252622380Y-25801428D01*
X252765238Y-25896666D01*
X252860476Y-25991904D01*
X252908095Y-26087142D01*
X252955714Y-24658571D02*
X253622380Y-24658571D01*
X252574761Y-24896666D02*
X253289047Y-25134761D01*
X253289047Y-24515714D01*
X208622380Y-29563333D02*
X209336666Y-29563333D01*
X209479523Y-29610952D01*
X209574761Y-29706190D01*
X209622380Y-29849047D01*
X209622380Y-29944285D01*
X208670000Y-28563333D02*
X208622380Y-28658571D01*
X208622380Y-28801428D01*
X208670000Y-28944285D01*
X208765238Y-29039523D01*
X208860476Y-29087142D01*
X209050952Y-29134761D01*
X209193809Y-29134761D01*
X209384285Y-29087142D01*
X209479523Y-29039523D01*
X209574761Y-28944285D01*
X209622380Y-28801428D01*
X209622380Y-28706190D01*
X209574761Y-28563333D01*
X209527142Y-28515714D01*
X209193809Y-28515714D01*
X209193809Y-28706190D01*
X209622380Y-28087142D02*
X208622380Y-28087142D01*
X209622380Y-27515714D01*
X208622380Y-27515714D01*
X209622380Y-27039523D02*
X208622380Y-27039523D01*
X208622380Y-26801428D01*
X208670000Y-26658571D01*
X208765238Y-26563333D01*
X208860476Y-26515714D01*
X209050952Y-26468095D01*
X209193809Y-26468095D01*
X209384285Y-26515714D01*
X209479523Y-26563333D01*
X209574761Y-26658571D01*
X209622380Y-26801428D01*
X209622380Y-27039523D01*
X209622380Y-25515714D02*
X209622380Y-26087142D01*
X209622380Y-25801428D02*
X208622380Y-25801428D01*
X208765238Y-25896666D01*
X208860476Y-25991904D01*
X208908095Y-26087142D01*
X208622380Y-25182380D02*
X208622380Y-24563333D01*
X209003333Y-24896666D01*
X209003333Y-24753809D01*
X209050952Y-24658571D01*
X209098571Y-24610952D01*
X209193809Y-24563333D01*
X209431904Y-24563333D01*
X209527142Y-24610952D01*
X209574761Y-24658571D01*
X209622380Y-24753809D01*
X209622380Y-25039523D01*
X209574761Y-25134761D01*
X209527142Y-25182380D01*
X192622380Y-29563333D02*
X193336666Y-29563333D01*
X193479523Y-29610952D01*
X193574761Y-29706190D01*
X193622380Y-29849047D01*
X193622380Y-29944285D01*
X192670000Y-28563333D02*
X192622380Y-28658571D01*
X192622380Y-28801428D01*
X192670000Y-28944285D01*
X192765238Y-29039523D01*
X192860476Y-29087142D01*
X193050952Y-29134761D01*
X193193809Y-29134761D01*
X193384285Y-29087142D01*
X193479523Y-29039523D01*
X193574761Y-28944285D01*
X193622380Y-28801428D01*
X193622380Y-28706190D01*
X193574761Y-28563333D01*
X193527142Y-28515714D01*
X193193809Y-28515714D01*
X193193809Y-28706190D01*
X193622380Y-28087142D02*
X192622380Y-28087142D01*
X193622380Y-27515714D01*
X192622380Y-27515714D01*
X193622380Y-27039523D02*
X192622380Y-27039523D01*
X192622380Y-26801428D01*
X192670000Y-26658571D01*
X192765238Y-26563333D01*
X192860476Y-26515714D01*
X193050952Y-26468095D01*
X193193809Y-26468095D01*
X193384285Y-26515714D01*
X193479523Y-26563333D01*
X193574761Y-26658571D01*
X193622380Y-26801428D01*
X193622380Y-27039523D01*
X193622380Y-25515714D02*
X193622380Y-26087142D01*
X193622380Y-25801428D02*
X192622380Y-25801428D01*
X192765238Y-25896666D01*
X192860476Y-25991904D01*
X192908095Y-26087142D01*
X192717619Y-25134761D02*
X192670000Y-25087142D01*
X192622380Y-24991904D01*
X192622380Y-24753809D01*
X192670000Y-24658571D01*
X192717619Y-24610952D01*
X192812857Y-24563333D01*
X192908095Y-24563333D01*
X193050952Y-24610952D01*
X193622380Y-25182380D01*
X193622380Y-24563333D01*
X148622380Y-29563333D02*
X149336666Y-29563333D01*
X149479523Y-29610952D01*
X149574761Y-29706190D01*
X149622380Y-29849047D01*
X149622380Y-29944285D01*
X148670000Y-28563333D02*
X148622380Y-28658571D01*
X148622380Y-28801428D01*
X148670000Y-28944285D01*
X148765238Y-29039523D01*
X148860476Y-29087142D01*
X149050952Y-29134761D01*
X149193809Y-29134761D01*
X149384285Y-29087142D01*
X149479523Y-29039523D01*
X149574761Y-28944285D01*
X149622380Y-28801428D01*
X149622380Y-28706190D01*
X149574761Y-28563333D01*
X149527142Y-28515714D01*
X149193809Y-28515714D01*
X149193809Y-28706190D01*
X149622380Y-28087142D02*
X148622380Y-28087142D01*
X149622380Y-27515714D01*
X148622380Y-27515714D01*
X149622380Y-27039523D02*
X148622380Y-27039523D01*
X148622380Y-26801428D01*
X148670000Y-26658571D01*
X148765238Y-26563333D01*
X148860476Y-26515714D01*
X149050952Y-26468095D01*
X149193809Y-26468095D01*
X149384285Y-26515714D01*
X149479523Y-26563333D01*
X149574761Y-26658571D01*
X149622380Y-26801428D01*
X149622380Y-27039523D01*
X149622380Y-25515714D02*
X149622380Y-26087142D01*
X149622380Y-25801428D02*
X148622380Y-25801428D01*
X148765238Y-25896666D01*
X148860476Y-25991904D01*
X148908095Y-26087142D01*
X149622380Y-24563333D02*
X149622380Y-25134761D01*
X149622380Y-24849047D02*
X148622380Y-24849047D01*
X148765238Y-24944285D01*
X148860476Y-25039523D01*
X148908095Y-25134761D01*
X132622380Y-29563333D02*
X133336666Y-29563333D01*
X133479523Y-29610952D01*
X133574761Y-29706190D01*
X133622380Y-29849047D01*
X133622380Y-29944285D01*
X132670000Y-28563333D02*
X132622380Y-28658571D01*
X132622380Y-28801428D01*
X132670000Y-28944285D01*
X132765238Y-29039523D01*
X132860476Y-29087142D01*
X133050952Y-29134761D01*
X133193809Y-29134761D01*
X133384285Y-29087142D01*
X133479523Y-29039523D01*
X133574761Y-28944285D01*
X133622380Y-28801428D01*
X133622380Y-28706190D01*
X133574761Y-28563333D01*
X133527142Y-28515714D01*
X133193809Y-28515714D01*
X133193809Y-28706190D01*
X133622380Y-28087142D02*
X132622380Y-28087142D01*
X133622380Y-27515714D01*
X132622380Y-27515714D01*
X133622380Y-27039523D02*
X132622380Y-27039523D01*
X132622380Y-26801428D01*
X132670000Y-26658571D01*
X132765238Y-26563333D01*
X132860476Y-26515714D01*
X133050952Y-26468095D01*
X133193809Y-26468095D01*
X133384285Y-26515714D01*
X133479523Y-26563333D01*
X133574761Y-26658571D01*
X133622380Y-26801428D01*
X133622380Y-27039523D01*
X133622380Y-25515714D02*
X133622380Y-26087142D01*
X133622380Y-25801428D02*
X132622380Y-25801428D01*
X132765238Y-25896666D01*
X132860476Y-25991904D01*
X132908095Y-26087142D01*
X132622380Y-24896666D02*
X132622380Y-24801428D01*
X132670000Y-24706190D01*
X132717619Y-24658571D01*
X132812857Y-24610952D01*
X133003333Y-24563333D01*
X133241428Y-24563333D01*
X133431904Y-24610952D01*
X133527142Y-24658571D01*
X133574761Y-24706190D01*
X133622380Y-24801428D01*
X133622380Y-24896666D01*
X133574761Y-24991904D01*
X133527142Y-25039523D01*
X133431904Y-25087142D01*
X133241428Y-25134761D01*
X133003333Y-25134761D01*
X132812857Y-25087142D01*
X132717619Y-25039523D01*
X132670000Y-24991904D01*
X132622380Y-24896666D01*
X88622380Y-29087142D02*
X89336666Y-29087142D01*
X89479523Y-29134761D01*
X89574761Y-29230000D01*
X89622380Y-29372857D01*
X89622380Y-29468095D01*
X88670000Y-28087142D02*
X88622380Y-28182380D01*
X88622380Y-28325238D01*
X88670000Y-28468095D01*
X88765238Y-28563333D01*
X88860476Y-28610952D01*
X89050952Y-28658571D01*
X89193809Y-28658571D01*
X89384285Y-28610952D01*
X89479523Y-28563333D01*
X89574761Y-28468095D01*
X89622380Y-28325238D01*
X89622380Y-28230000D01*
X89574761Y-28087142D01*
X89527142Y-28039523D01*
X89193809Y-28039523D01*
X89193809Y-28230000D01*
X89622380Y-27610952D02*
X88622380Y-27610952D01*
X89622380Y-27039523D01*
X88622380Y-27039523D01*
X89622380Y-26563333D02*
X88622380Y-26563333D01*
X88622380Y-26325238D01*
X88670000Y-26182380D01*
X88765238Y-26087142D01*
X88860476Y-26039523D01*
X89050952Y-25991904D01*
X89193809Y-25991904D01*
X89384285Y-26039523D01*
X89479523Y-26087142D01*
X89574761Y-26182380D01*
X89622380Y-26325238D01*
X89622380Y-26563333D01*
X89622380Y-25515714D02*
X89622380Y-25325238D01*
X89574761Y-25230000D01*
X89527142Y-25182380D01*
X89384285Y-25087142D01*
X89193809Y-25039523D01*
X88812857Y-25039523D01*
X88717619Y-25087142D01*
X88670000Y-25134761D01*
X88622380Y-25230000D01*
X88622380Y-25420476D01*
X88670000Y-25515714D01*
X88717619Y-25563333D01*
X88812857Y-25610952D01*
X89050952Y-25610952D01*
X89146190Y-25563333D01*
X89193809Y-25515714D01*
X89241428Y-25420476D01*
X89241428Y-25230000D01*
X89193809Y-25134761D01*
X89146190Y-25087142D01*
X89050952Y-25039523D01*
X28622380Y-29087142D02*
X29336666Y-29087142D01*
X29479523Y-29134761D01*
X29574761Y-29230000D01*
X29622380Y-29372857D01*
X29622380Y-29468095D01*
X28670000Y-28087142D02*
X28622380Y-28182380D01*
X28622380Y-28325238D01*
X28670000Y-28468095D01*
X28765238Y-28563333D01*
X28860476Y-28610952D01*
X29050952Y-28658571D01*
X29193809Y-28658571D01*
X29384285Y-28610952D01*
X29479523Y-28563333D01*
X29574761Y-28468095D01*
X29622380Y-28325238D01*
X29622380Y-28230000D01*
X29574761Y-28087142D01*
X29527142Y-28039523D01*
X29193809Y-28039523D01*
X29193809Y-28230000D01*
X29622380Y-27610952D02*
X28622380Y-27610952D01*
X29622380Y-27039523D01*
X28622380Y-27039523D01*
X29622380Y-26563333D02*
X28622380Y-26563333D01*
X28622380Y-26325238D01*
X28670000Y-26182380D01*
X28765238Y-26087142D01*
X28860476Y-26039523D01*
X29050952Y-25991904D01*
X29193809Y-25991904D01*
X29384285Y-26039523D01*
X29479523Y-26087142D01*
X29574761Y-26182380D01*
X29622380Y-26325238D01*
X29622380Y-26563333D01*
X28622380Y-25658571D02*
X28622380Y-24991904D01*
X29622380Y-25420476D01*
X252622380Y-101087142D02*
X253336666Y-101087142D01*
X253479523Y-101134761D01*
X253574761Y-101230000D01*
X253622380Y-101372857D01*
X253622380Y-101468095D01*
X252670000Y-100087142D02*
X252622380Y-100182380D01*
X252622380Y-100325238D01*
X252670000Y-100468095D01*
X252765238Y-100563333D01*
X252860476Y-100610952D01*
X253050952Y-100658571D01*
X253193809Y-100658571D01*
X253384285Y-100610952D01*
X253479523Y-100563333D01*
X253574761Y-100468095D01*
X253622380Y-100325238D01*
X253622380Y-100230000D01*
X253574761Y-100087142D01*
X253527142Y-100039523D01*
X253193809Y-100039523D01*
X253193809Y-100230000D01*
X253622380Y-99610952D02*
X252622380Y-99610952D01*
X253622380Y-99039523D01*
X252622380Y-99039523D01*
X253622380Y-98563333D02*
X252622380Y-98563333D01*
X252622380Y-98325238D01*
X252670000Y-98182380D01*
X252765238Y-98087142D01*
X252860476Y-98039523D01*
X253050952Y-97991904D01*
X253193809Y-97991904D01*
X253384285Y-98039523D01*
X253479523Y-98087142D01*
X253574761Y-98182380D01*
X253622380Y-98325238D01*
X253622380Y-98563333D01*
X252622380Y-97134761D02*
X252622380Y-97325238D01*
X252670000Y-97420476D01*
X252717619Y-97468095D01*
X252860476Y-97563333D01*
X253050952Y-97610952D01*
X253431904Y-97610952D01*
X253527142Y-97563333D01*
X253574761Y-97515714D01*
X253622380Y-97420476D01*
X253622380Y-97230000D01*
X253574761Y-97134761D01*
X253527142Y-97087142D01*
X253431904Y-97039523D01*
X253193809Y-97039523D01*
X253098571Y-97087142D01*
X253050952Y-97134761D01*
X253003333Y-97230000D01*
X253003333Y-97420476D01*
X253050952Y-97515714D01*
X253098571Y-97563333D01*
X253193809Y-97610952D01*
X197622380Y-101087142D02*
X198336666Y-101087142D01*
X198479523Y-101134761D01*
X198574761Y-101230000D01*
X198622380Y-101372857D01*
X198622380Y-101468095D01*
X197670000Y-100087142D02*
X197622380Y-100182380D01*
X197622380Y-100325238D01*
X197670000Y-100468095D01*
X197765238Y-100563333D01*
X197860476Y-100610952D01*
X198050952Y-100658571D01*
X198193809Y-100658571D01*
X198384285Y-100610952D01*
X198479523Y-100563333D01*
X198574761Y-100468095D01*
X198622380Y-100325238D01*
X198622380Y-100230000D01*
X198574761Y-100087142D01*
X198527142Y-100039523D01*
X198193809Y-100039523D01*
X198193809Y-100230000D01*
X198622380Y-99610952D02*
X197622380Y-99610952D01*
X198622380Y-99039523D01*
X197622380Y-99039523D01*
X198622380Y-98563333D02*
X197622380Y-98563333D01*
X197622380Y-98325238D01*
X197670000Y-98182380D01*
X197765238Y-98087142D01*
X197860476Y-98039523D01*
X198050952Y-97991904D01*
X198193809Y-97991904D01*
X198384285Y-98039523D01*
X198479523Y-98087142D01*
X198574761Y-98182380D01*
X198622380Y-98325238D01*
X198622380Y-98563333D01*
X197622380Y-97087142D02*
X197622380Y-97563333D01*
X198098571Y-97610952D01*
X198050952Y-97563333D01*
X198003333Y-97468095D01*
X198003333Y-97230000D01*
X198050952Y-97134761D01*
X198098571Y-97087142D01*
X198193809Y-97039523D01*
X198431904Y-97039523D01*
X198527142Y-97087142D01*
X198574761Y-97134761D01*
X198622380Y-97230000D01*
X198622380Y-97468095D01*
X198574761Y-97563333D01*
X198527142Y-97610952D01*
X122622380Y-101087142D02*
X123336666Y-101087142D01*
X123479523Y-101134761D01*
X123574761Y-101230000D01*
X123622380Y-101372857D01*
X123622380Y-101468095D01*
X122670000Y-100087142D02*
X122622380Y-100182380D01*
X122622380Y-100325238D01*
X122670000Y-100468095D01*
X122765238Y-100563333D01*
X122860476Y-100610952D01*
X123050952Y-100658571D01*
X123193809Y-100658571D01*
X123384285Y-100610952D01*
X123479523Y-100563333D01*
X123574761Y-100468095D01*
X123622380Y-100325238D01*
X123622380Y-100230000D01*
X123574761Y-100087142D01*
X123527142Y-100039523D01*
X123193809Y-100039523D01*
X123193809Y-100230000D01*
X123622380Y-99610952D02*
X122622380Y-99610952D01*
X123622380Y-99039523D01*
X122622380Y-99039523D01*
X123622380Y-98563333D02*
X122622380Y-98563333D01*
X122622380Y-98325238D01*
X122670000Y-98182380D01*
X122765238Y-98087142D01*
X122860476Y-98039523D01*
X123050952Y-97991904D01*
X123193809Y-97991904D01*
X123384285Y-98039523D01*
X123479523Y-98087142D01*
X123574761Y-98182380D01*
X123622380Y-98325238D01*
X123622380Y-98563333D01*
X122955714Y-97134761D02*
X123622380Y-97134761D01*
X122574761Y-97372857D02*
X123289047Y-97610952D01*
X123289047Y-96991904D01*
X249122380Y-119587142D02*
X249836666Y-119587142D01*
X249979523Y-119634761D01*
X250074761Y-119730000D01*
X250122380Y-119872857D01*
X250122380Y-119968095D01*
X249170000Y-118587142D02*
X249122380Y-118682380D01*
X249122380Y-118825238D01*
X249170000Y-118968095D01*
X249265238Y-119063333D01*
X249360476Y-119110952D01*
X249550952Y-119158571D01*
X249693809Y-119158571D01*
X249884285Y-119110952D01*
X249979523Y-119063333D01*
X250074761Y-118968095D01*
X250122380Y-118825238D01*
X250122380Y-118730000D01*
X250074761Y-118587142D01*
X250027142Y-118539523D01*
X249693809Y-118539523D01*
X249693809Y-118730000D01*
X250122380Y-118110952D02*
X249122380Y-118110952D01*
X250122380Y-117539523D01*
X249122380Y-117539523D01*
X250122380Y-117063333D02*
X249122380Y-117063333D01*
X249122380Y-116825238D01*
X249170000Y-116682380D01*
X249265238Y-116587142D01*
X249360476Y-116539523D01*
X249550952Y-116491904D01*
X249693809Y-116491904D01*
X249884285Y-116539523D01*
X249979523Y-116587142D01*
X250074761Y-116682380D01*
X250122380Y-116825238D01*
X250122380Y-117063333D01*
X249217619Y-116110952D02*
X249170000Y-116063333D01*
X249122380Y-115968095D01*
X249122380Y-115730000D01*
X249170000Y-115634761D01*
X249217619Y-115587142D01*
X249312857Y-115539523D01*
X249408095Y-115539523D01*
X249550952Y-115587142D01*
X250122380Y-116158571D01*
X250122380Y-115539523D01*
X37122380Y-119587142D02*
X37836666Y-119587142D01*
X37979523Y-119634761D01*
X38074761Y-119730000D01*
X38122380Y-119872857D01*
X38122380Y-119968095D01*
X37170000Y-118587142D02*
X37122380Y-118682380D01*
X37122380Y-118825238D01*
X37170000Y-118968095D01*
X37265238Y-119063333D01*
X37360476Y-119110952D01*
X37550952Y-119158571D01*
X37693809Y-119158571D01*
X37884285Y-119110952D01*
X37979523Y-119063333D01*
X38074761Y-118968095D01*
X38122380Y-118825238D01*
X38122380Y-118730000D01*
X38074761Y-118587142D01*
X38027142Y-118539523D01*
X37693809Y-118539523D01*
X37693809Y-118730000D01*
X38122380Y-118110952D02*
X37122380Y-118110952D01*
X38122380Y-117539523D01*
X37122380Y-117539523D01*
X38122380Y-117063333D02*
X37122380Y-117063333D01*
X37122380Y-116825238D01*
X37170000Y-116682380D01*
X37265238Y-116587142D01*
X37360476Y-116539523D01*
X37550952Y-116491904D01*
X37693809Y-116491904D01*
X37884285Y-116539523D01*
X37979523Y-116587142D01*
X38074761Y-116682380D01*
X38122380Y-116825238D01*
X38122380Y-117063333D01*
X38122380Y-115539523D02*
X38122380Y-116110952D01*
X38122380Y-115825238D02*
X37122380Y-115825238D01*
X37265238Y-115920476D01*
X37360476Y-116015714D01*
X37408095Y-116110952D01*
X223412857Y-108502380D02*
X223412857Y-109216666D01*
X223365238Y-109359523D01*
X223270000Y-109454761D01*
X223127142Y-109502380D01*
X223031904Y-109502380D01*
X223889047Y-109121428D02*
X224650952Y-109121428D01*
X224270000Y-109502380D02*
X224270000Y-108740476D01*
X225603333Y-108502380D02*
X225127142Y-108502380D01*
X225079523Y-108978571D01*
X225127142Y-108930952D01*
X225222380Y-108883333D01*
X225460476Y-108883333D01*
X225555714Y-108930952D01*
X225603333Y-108978571D01*
X225650952Y-109073809D01*
X225650952Y-109311904D01*
X225603333Y-109407142D01*
X225555714Y-109454761D01*
X225460476Y-109502380D01*
X225222380Y-109502380D01*
X225127142Y-109454761D01*
X225079523Y-109407142D01*
X225936666Y-108502380D02*
X226270000Y-109502380D01*
X226603333Y-108502380D01*
X227460476Y-109502380D02*
X226889047Y-109502380D01*
X227174761Y-109502380D02*
X227174761Y-108502380D01*
X227079523Y-108645238D01*
X226984285Y-108740476D01*
X226889047Y-108788095D01*
X253098571Y-78063333D02*
X253146190Y-77920476D01*
X253193809Y-77872857D01*
X253289047Y-77825238D01*
X253431904Y-77825238D01*
X253527142Y-77872857D01*
X253574761Y-77920476D01*
X253622380Y-78015714D01*
X253622380Y-78396666D01*
X252622380Y-78396666D01*
X252622380Y-78063333D01*
X252670000Y-77968095D01*
X252717619Y-77920476D01*
X252812857Y-77872857D01*
X252908095Y-77872857D01*
X253003333Y-77920476D01*
X253050952Y-77968095D01*
X253098571Y-78063333D01*
X253098571Y-78396666D01*
X252622380Y-77396666D02*
X253431904Y-77396666D01*
X253527142Y-77349047D01*
X253574761Y-77301428D01*
X253622380Y-77206190D01*
X253622380Y-77015714D01*
X253574761Y-76920476D01*
X253527142Y-76872857D01*
X253431904Y-76825238D01*
X252622380Y-76825238D01*
X253574761Y-76396666D02*
X253622380Y-76253809D01*
X253622380Y-76015714D01*
X253574761Y-75920476D01*
X253527142Y-75872857D01*
X253431904Y-75825238D01*
X253336666Y-75825238D01*
X253241428Y-75872857D01*
X253193809Y-75920476D01*
X253146190Y-76015714D01*
X253098571Y-76206190D01*
X253050952Y-76301428D01*
X253003333Y-76349047D01*
X252908095Y-76396666D01*
X252812857Y-76396666D01*
X252717619Y-76349047D01*
X252670000Y-76301428D01*
X252622380Y-76206190D01*
X252622380Y-75968095D01*
X252670000Y-75825238D01*
X252622380Y-75206190D02*
X252622380Y-75015714D01*
X252670000Y-74920476D01*
X252765238Y-74825238D01*
X252955714Y-74777619D01*
X253289047Y-74777619D01*
X253479523Y-74825238D01*
X253574761Y-74920476D01*
X253622380Y-75015714D01*
X253622380Y-75206190D01*
X253574761Y-75301428D01*
X253479523Y-75396666D01*
X253289047Y-75444285D01*
X252955714Y-75444285D01*
X252765238Y-75396666D01*
X252670000Y-75301428D01*
X252622380Y-75206190D01*
X252622380Y-74349047D02*
X253431904Y-74349047D01*
X253527142Y-74301428D01*
X253574761Y-74253809D01*
X253622380Y-74158571D01*
X253622380Y-73968095D01*
X253574761Y-73872857D01*
X253527142Y-73825238D01*
X253431904Y-73777619D01*
X252622380Y-73777619D01*
X252622380Y-73444285D02*
X252622380Y-72872857D01*
X253622380Y-73158571D02*
X252622380Y-73158571D01*
X252955714Y-72110952D02*
X253622380Y-72110952D01*
X252574761Y-72349047D02*
X253289047Y-72587142D01*
X253289047Y-71968095D01*
X198098571Y-78063333D02*
X198146190Y-77920476D01*
X198193809Y-77872857D01*
X198289047Y-77825238D01*
X198431904Y-77825238D01*
X198527142Y-77872857D01*
X198574761Y-77920476D01*
X198622380Y-78015714D01*
X198622380Y-78396666D01*
X197622380Y-78396666D01*
X197622380Y-78063333D01*
X197670000Y-77968095D01*
X197717619Y-77920476D01*
X197812857Y-77872857D01*
X197908095Y-77872857D01*
X198003333Y-77920476D01*
X198050952Y-77968095D01*
X198098571Y-78063333D01*
X198098571Y-78396666D01*
X197622380Y-77396666D02*
X198431904Y-77396666D01*
X198527142Y-77349047D01*
X198574761Y-77301428D01*
X198622380Y-77206190D01*
X198622380Y-77015714D01*
X198574761Y-76920476D01*
X198527142Y-76872857D01*
X198431904Y-76825238D01*
X197622380Y-76825238D01*
X198574761Y-76396666D02*
X198622380Y-76253809D01*
X198622380Y-76015714D01*
X198574761Y-75920476D01*
X198527142Y-75872857D01*
X198431904Y-75825238D01*
X198336666Y-75825238D01*
X198241428Y-75872857D01*
X198193809Y-75920476D01*
X198146190Y-76015714D01*
X198098571Y-76206190D01*
X198050952Y-76301428D01*
X198003333Y-76349047D01*
X197908095Y-76396666D01*
X197812857Y-76396666D01*
X197717619Y-76349047D01*
X197670000Y-76301428D01*
X197622380Y-76206190D01*
X197622380Y-75968095D01*
X197670000Y-75825238D01*
X197622380Y-75206190D02*
X197622380Y-75015714D01*
X197670000Y-74920476D01*
X197765238Y-74825238D01*
X197955714Y-74777619D01*
X198289047Y-74777619D01*
X198479523Y-74825238D01*
X198574761Y-74920476D01*
X198622380Y-75015714D01*
X198622380Y-75206190D01*
X198574761Y-75301428D01*
X198479523Y-75396666D01*
X198289047Y-75444285D01*
X197955714Y-75444285D01*
X197765238Y-75396666D01*
X197670000Y-75301428D01*
X197622380Y-75206190D01*
X197622380Y-74349047D02*
X198431904Y-74349047D01*
X198527142Y-74301428D01*
X198574761Y-74253809D01*
X198622380Y-74158571D01*
X198622380Y-73968095D01*
X198574761Y-73872857D01*
X198527142Y-73825238D01*
X198431904Y-73777619D01*
X197622380Y-73777619D01*
X197622380Y-73444285D02*
X197622380Y-72872857D01*
X198622380Y-73158571D02*
X197622380Y-73158571D01*
X197622380Y-72634761D02*
X197622380Y-72015714D01*
X198003333Y-72349047D01*
X198003333Y-72206190D01*
X198050952Y-72110952D01*
X198098571Y-72063333D01*
X198193809Y-72015714D01*
X198431904Y-72015714D01*
X198527142Y-72063333D01*
X198574761Y-72110952D01*
X198622380Y-72206190D01*
X198622380Y-72491904D01*
X198574761Y-72587142D01*
X198527142Y-72634761D01*
X123098571Y-78063333D02*
X123146190Y-77920476D01*
X123193809Y-77872857D01*
X123289047Y-77825238D01*
X123431904Y-77825238D01*
X123527142Y-77872857D01*
X123574761Y-77920476D01*
X123622380Y-78015714D01*
X123622380Y-78396666D01*
X122622380Y-78396666D01*
X122622380Y-78063333D01*
X122670000Y-77968095D01*
X122717619Y-77920476D01*
X122812857Y-77872857D01*
X122908095Y-77872857D01*
X123003333Y-77920476D01*
X123050952Y-77968095D01*
X123098571Y-78063333D01*
X123098571Y-78396666D01*
X122622380Y-77396666D02*
X123431904Y-77396666D01*
X123527142Y-77349047D01*
X123574761Y-77301428D01*
X123622380Y-77206190D01*
X123622380Y-77015714D01*
X123574761Y-76920476D01*
X123527142Y-76872857D01*
X123431904Y-76825238D01*
X122622380Y-76825238D01*
X123574761Y-76396666D02*
X123622380Y-76253809D01*
X123622380Y-76015714D01*
X123574761Y-75920476D01*
X123527142Y-75872857D01*
X123431904Y-75825238D01*
X123336666Y-75825238D01*
X123241428Y-75872857D01*
X123193809Y-75920476D01*
X123146190Y-76015714D01*
X123098571Y-76206190D01*
X123050952Y-76301428D01*
X123003333Y-76349047D01*
X122908095Y-76396666D01*
X122812857Y-76396666D01*
X122717619Y-76349047D01*
X122670000Y-76301428D01*
X122622380Y-76206190D01*
X122622380Y-75968095D01*
X122670000Y-75825238D01*
X122622380Y-75206190D02*
X122622380Y-75015714D01*
X122670000Y-74920476D01*
X122765238Y-74825238D01*
X122955714Y-74777619D01*
X123289047Y-74777619D01*
X123479523Y-74825238D01*
X123574761Y-74920476D01*
X123622380Y-75015714D01*
X123622380Y-75206190D01*
X123574761Y-75301428D01*
X123479523Y-75396666D01*
X123289047Y-75444285D01*
X122955714Y-75444285D01*
X122765238Y-75396666D01*
X122670000Y-75301428D01*
X122622380Y-75206190D01*
X122622380Y-74349047D02*
X123431904Y-74349047D01*
X123527142Y-74301428D01*
X123574761Y-74253809D01*
X123622380Y-74158571D01*
X123622380Y-73968095D01*
X123574761Y-73872857D01*
X123527142Y-73825238D01*
X123431904Y-73777619D01*
X122622380Y-73777619D01*
X122622380Y-73444285D02*
X122622380Y-72872857D01*
X123622380Y-73158571D02*
X122622380Y-73158571D01*
X122717619Y-72587142D02*
X122670000Y-72539523D01*
X122622380Y-72444285D01*
X122622380Y-72206190D01*
X122670000Y-72110952D01*
X122717619Y-72063333D01*
X122812857Y-72015714D01*
X122908095Y-72015714D01*
X123050952Y-72063333D01*
X123622380Y-72634761D01*
X123622380Y-72015714D01*
X68098571Y-78063333D02*
X68146190Y-77920476D01*
X68193809Y-77872857D01*
X68289047Y-77825238D01*
X68431904Y-77825238D01*
X68527142Y-77872857D01*
X68574761Y-77920476D01*
X68622380Y-78015714D01*
X68622380Y-78396666D01*
X67622380Y-78396666D01*
X67622380Y-78063333D01*
X67670000Y-77968095D01*
X67717619Y-77920476D01*
X67812857Y-77872857D01*
X67908095Y-77872857D01*
X68003333Y-77920476D01*
X68050952Y-77968095D01*
X68098571Y-78063333D01*
X68098571Y-78396666D01*
X67622380Y-77396666D02*
X68431904Y-77396666D01*
X68527142Y-77349047D01*
X68574761Y-77301428D01*
X68622380Y-77206190D01*
X68622380Y-77015714D01*
X68574761Y-76920476D01*
X68527142Y-76872857D01*
X68431904Y-76825238D01*
X67622380Y-76825238D01*
X68574761Y-76396666D02*
X68622380Y-76253809D01*
X68622380Y-76015714D01*
X68574761Y-75920476D01*
X68527142Y-75872857D01*
X68431904Y-75825238D01*
X68336666Y-75825238D01*
X68241428Y-75872857D01*
X68193809Y-75920476D01*
X68146190Y-76015714D01*
X68098571Y-76206190D01*
X68050952Y-76301428D01*
X68003333Y-76349047D01*
X67908095Y-76396666D01*
X67812857Y-76396666D01*
X67717619Y-76349047D01*
X67670000Y-76301428D01*
X67622380Y-76206190D01*
X67622380Y-75968095D01*
X67670000Y-75825238D01*
X67622380Y-75206190D02*
X67622380Y-75015714D01*
X67670000Y-74920476D01*
X67765238Y-74825238D01*
X67955714Y-74777619D01*
X68289047Y-74777619D01*
X68479523Y-74825238D01*
X68574761Y-74920476D01*
X68622380Y-75015714D01*
X68622380Y-75206190D01*
X68574761Y-75301428D01*
X68479523Y-75396666D01*
X68289047Y-75444285D01*
X67955714Y-75444285D01*
X67765238Y-75396666D01*
X67670000Y-75301428D01*
X67622380Y-75206190D01*
X67622380Y-74349047D02*
X68431904Y-74349047D01*
X68527142Y-74301428D01*
X68574761Y-74253809D01*
X68622380Y-74158571D01*
X68622380Y-73968095D01*
X68574761Y-73872857D01*
X68527142Y-73825238D01*
X68431904Y-73777619D01*
X67622380Y-73777619D01*
X67622380Y-73444285D02*
X67622380Y-72872857D01*
X68622380Y-73158571D02*
X67622380Y-73158571D01*
X68622380Y-72015714D02*
X68622380Y-72587142D01*
X68622380Y-72301428D02*
X67622380Y-72301428D01*
X67765238Y-72396666D01*
X67860476Y-72491904D01*
X67908095Y-72587142D01*
X233598571Y-63539523D02*
X233646190Y-63396666D01*
X233693809Y-63349047D01*
X233789047Y-63301428D01*
X233931904Y-63301428D01*
X234027142Y-63349047D01*
X234074761Y-63396666D01*
X234122380Y-63491904D01*
X234122380Y-63872857D01*
X233122380Y-63872857D01*
X233122380Y-63539523D01*
X233170000Y-63444285D01*
X233217619Y-63396666D01*
X233312857Y-63349047D01*
X233408095Y-63349047D01*
X233503333Y-63396666D01*
X233550952Y-63444285D01*
X233598571Y-63539523D01*
X233598571Y-63872857D01*
X233122380Y-62872857D02*
X233931904Y-62872857D01*
X234027142Y-62825238D01*
X234074761Y-62777619D01*
X234122380Y-62682380D01*
X234122380Y-62491904D01*
X234074761Y-62396666D01*
X234027142Y-62349047D01*
X233931904Y-62301428D01*
X233122380Y-62301428D01*
X234074761Y-61872857D02*
X234122380Y-61730000D01*
X234122380Y-61491904D01*
X234074761Y-61396666D01*
X234027142Y-61349047D01*
X233931904Y-61301428D01*
X233836666Y-61301428D01*
X233741428Y-61349047D01*
X233693809Y-61396666D01*
X233646190Y-61491904D01*
X233598571Y-61682380D01*
X233550952Y-61777619D01*
X233503333Y-61825238D01*
X233408095Y-61872857D01*
X233312857Y-61872857D01*
X233217619Y-61825238D01*
X233170000Y-61777619D01*
X233122380Y-61682380D01*
X233122380Y-61444285D01*
X233170000Y-61301428D01*
X234122380Y-60396666D02*
X234122380Y-60872857D01*
X233122380Y-60872857D01*
X234122380Y-60063333D02*
X233122380Y-60063333D01*
X233122380Y-59825238D01*
X233170000Y-59682380D01*
X233265238Y-59587142D01*
X233360476Y-59539523D01*
X233550952Y-59491904D01*
X233693809Y-59491904D01*
X233884285Y-59539523D01*
X233979523Y-59587142D01*
X234074761Y-59682380D01*
X234122380Y-59825238D01*
X234122380Y-60063333D01*
X233455714Y-58634761D02*
X234122380Y-58634761D01*
X233074761Y-58872857D02*
X233789047Y-59110952D01*
X233789047Y-58491904D01*
X113598571Y-63539523D02*
X113646190Y-63396666D01*
X113693809Y-63349047D01*
X113789047Y-63301428D01*
X113931904Y-63301428D01*
X114027142Y-63349047D01*
X114074761Y-63396666D01*
X114122380Y-63491904D01*
X114122380Y-63872857D01*
X113122380Y-63872857D01*
X113122380Y-63539523D01*
X113170000Y-63444285D01*
X113217619Y-63396666D01*
X113312857Y-63349047D01*
X113408095Y-63349047D01*
X113503333Y-63396666D01*
X113550952Y-63444285D01*
X113598571Y-63539523D01*
X113598571Y-63872857D01*
X113122380Y-62872857D02*
X113931904Y-62872857D01*
X114027142Y-62825238D01*
X114074761Y-62777619D01*
X114122380Y-62682380D01*
X114122380Y-62491904D01*
X114074761Y-62396666D01*
X114027142Y-62349047D01*
X113931904Y-62301428D01*
X113122380Y-62301428D01*
X114074761Y-61872857D02*
X114122380Y-61730000D01*
X114122380Y-61491904D01*
X114074761Y-61396666D01*
X114027142Y-61349047D01*
X113931904Y-61301428D01*
X113836666Y-61301428D01*
X113741428Y-61349047D01*
X113693809Y-61396666D01*
X113646190Y-61491904D01*
X113598571Y-61682380D01*
X113550952Y-61777619D01*
X113503333Y-61825238D01*
X113408095Y-61872857D01*
X113312857Y-61872857D01*
X113217619Y-61825238D01*
X113170000Y-61777619D01*
X113122380Y-61682380D01*
X113122380Y-61444285D01*
X113170000Y-61301428D01*
X114122380Y-60396666D02*
X114122380Y-60872857D01*
X113122380Y-60872857D01*
X114122380Y-60063333D02*
X113122380Y-60063333D01*
X113122380Y-59825238D01*
X113170000Y-59682380D01*
X113265238Y-59587142D01*
X113360476Y-59539523D01*
X113550952Y-59491904D01*
X113693809Y-59491904D01*
X113884285Y-59539523D01*
X113979523Y-59587142D01*
X114074761Y-59682380D01*
X114122380Y-59825238D01*
X114122380Y-60063333D01*
X113217619Y-59110952D02*
X113170000Y-59063333D01*
X113122380Y-58968095D01*
X113122380Y-58730000D01*
X113170000Y-58634761D01*
X113217619Y-58587142D01*
X113312857Y-58539523D01*
X113408095Y-58539523D01*
X113550952Y-58587142D01*
X114122380Y-59158571D01*
X114122380Y-58539523D01*
X53598571Y-63539523D02*
X53646190Y-63396666D01*
X53693809Y-63349047D01*
X53789047Y-63301428D01*
X53931904Y-63301428D01*
X54027142Y-63349047D01*
X54074761Y-63396666D01*
X54122380Y-63491904D01*
X54122380Y-63872857D01*
X53122380Y-63872857D01*
X53122380Y-63539523D01*
X53170000Y-63444285D01*
X53217619Y-63396666D01*
X53312857Y-63349047D01*
X53408095Y-63349047D01*
X53503333Y-63396666D01*
X53550952Y-63444285D01*
X53598571Y-63539523D01*
X53598571Y-63872857D01*
X53122380Y-62872857D02*
X53931904Y-62872857D01*
X54027142Y-62825238D01*
X54074761Y-62777619D01*
X54122380Y-62682380D01*
X54122380Y-62491904D01*
X54074761Y-62396666D01*
X54027142Y-62349047D01*
X53931904Y-62301428D01*
X53122380Y-62301428D01*
X54074761Y-61872857D02*
X54122380Y-61730000D01*
X54122380Y-61491904D01*
X54074761Y-61396666D01*
X54027142Y-61349047D01*
X53931904Y-61301428D01*
X53836666Y-61301428D01*
X53741428Y-61349047D01*
X53693809Y-61396666D01*
X53646190Y-61491904D01*
X53598571Y-61682380D01*
X53550952Y-61777619D01*
X53503333Y-61825238D01*
X53408095Y-61872857D01*
X53312857Y-61872857D01*
X53217619Y-61825238D01*
X53170000Y-61777619D01*
X53122380Y-61682380D01*
X53122380Y-61444285D01*
X53170000Y-61301428D01*
X54122380Y-60396666D02*
X54122380Y-60872857D01*
X53122380Y-60872857D01*
X54122380Y-60063333D02*
X53122380Y-60063333D01*
X53122380Y-59825238D01*
X53170000Y-59682380D01*
X53265238Y-59587142D01*
X53360476Y-59539523D01*
X53550952Y-59491904D01*
X53693809Y-59491904D01*
X53884285Y-59539523D01*
X53979523Y-59587142D01*
X54074761Y-59682380D01*
X54122380Y-59825238D01*
X54122380Y-60063333D01*
X54122380Y-58539523D02*
X54122380Y-59110952D01*
X54122380Y-58825238D02*
X53122380Y-58825238D01*
X53265238Y-58920476D01*
X53360476Y-59015714D01*
X53408095Y-59110952D01*
X215603333Y-83098571D02*
X215746190Y-83146190D01*
X215793809Y-83193809D01*
X215841428Y-83289047D01*
X215841428Y-83431904D01*
X215793809Y-83527142D01*
X215746190Y-83574761D01*
X215650952Y-83622380D01*
X215270000Y-83622380D01*
X215270000Y-82622380D01*
X215603333Y-82622380D01*
X215698571Y-82670000D01*
X215746190Y-82717619D01*
X215793809Y-82812857D01*
X215793809Y-82908095D01*
X215746190Y-83003333D01*
X215698571Y-83050952D01*
X215603333Y-83098571D01*
X215270000Y-83098571D01*
X216270000Y-82622380D02*
X216270000Y-83431904D01*
X216317619Y-83527142D01*
X216365238Y-83574761D01*
X216460476Y-83622380D01*
X216650952Y-83622380D01*
X216746190Y-83574761D01*
X216793809Y-83527142D01*
X216841428Y-83431904D01*
X216841428Y-82622380D01*
X217270000Y-83574761D02*
X217412857Y-83622380D01*
X217650952Y-83622380D01*
X217746190Y-83574761D01*
X217793809Y-83527142D01*
X217841428Y-83431904D01*
X217841428Y-83336666D01*
X217793809Y-83241428D01*
X217746190Y-83193809D01*
X217650952Y-83146190D01*
X217460476Y-83098571D01*
X217365238Y-83050952D01*
X217317619Y-83003333D01*
X217270000Y-82908095D01*
X217270000Y-82812857D01*
X217317619Y-82717619D01*
X217365238Y-82670000D01*
X217460476Y-82622380D01*
X217698571Y-82622380D01*
X217841428Y-82670000D01*
X218270000Y-83622380D02*
X218270000Y-82622380D01*
X218746190Y-83622380D02*
X218746190Y-82622380D01*
X219317619Y-83622380D01*
X219317619Y-82622380D01*
X220222380Y-82955714D02*
X220222380Y-83622380D01*
X219984285Y-82574761D02*
X219746190Y-83289047D01*
X220365238Y-83289047D01*
X160603333Y-83098571D02*
X160746190Y-83146190D01*
X160793809Y-83193809D01*
X160841428Y-83289047D01*
X160841428Y-83431904D01*
X160793809Y-83527142D01*
X160746190Y-83574761D01*
X160650952Y-83622380D01*
X160270000Y-83622380D01*
X160270000Y-82622380D01*
X160603333Y-82622380D01*
X160698571Y-82670000D01*
X160746190Y-82717619D01*
X160793809Y-82812857D01*
X160793809Y-82908095D01*
X160746190Y-83003333D01*
X160698571Y-83050952D01*
X160603333Y-83098571D01*
X160270000Y-83098571D01*
X161270000Y-82622380D02*
X161270000Y-83431904D01*
X161317619Y-83527142D01*
X161365238Y-83574761D01*
X161460476Y-83622380D01*
X161650952Y-83622380D01*
X161746190Y-83574761D01*
X161793809Y-83527142D01*
X161841428Y-83431904D01*
X161841428Y-82622380D01*
X162270000Y-83574761D02*
X162412857Y-83622380D01*
X162650952Y-83622380D01*
X162746190Y-83574761D01*
X162793809Y-83527142D01*
X162841428Y-83431904D01*
X162841428Y-83336666D01*
X162793809Y-83241428D01*
X162746190Y-83193809D01*
X162650952Y-83146190D01*
X162460476Y-83098571D01*
X162365238Y-83050952D01*
X162317619Y-83003333D01*
X162270000Y-82908095D01*
X162270000Y-82812857D01*
X162317619Y-82717619D01*
X162365238Y-82670000D01*
X162460476Y-82622380D01*
X162698571Y-82622380D01*
X162841428Y-82670000D01*
X163270000Y-83622380D02*
X163270000Y-82622380D01*
X163746190Y-83622380D02*
X163746190Y-82622380D01*
X164317619Y-83622380D01*
X164317619Y-82622380D01*
X164698571Y-82622380D02*
X165317619Y-82622380D01*
X164984285Y-83003333D01*
X165127142Y-83003333D01*
X165222380Y-83050952D01*
X165270000Y-83098571D01*
X165317619Y-83193809D01*
X165317619Y-83431904D01*
X165270000Y-83527142D01*
X165222380Y-83574761D01*
X165127142Y-83622380D01*
X164841428Y-83622380D01*
X164746190Y-83574761D01*
X164698571Y-83527142D01*
X85603333Y-83098571D02*
X85746190Y-83146190D01*
X85793809Y-83193809D01*
X85841428Y-83289047D01*
X85841428Y-83431904D01*
X85793809Y-83527142D01*
X85746190Y-83574761D01*
X85650952Y-83622380D01*
X85270000Y-83622380D01*
X85270000Y-82622380D01*
X85603333Y-82622380D01*
X85698571Y-82670000D01*
X85746190Y-82717619D01*
X85793809Y-82812857D01*
X85793809Y-82908095D01*
X85746190Y-83003333D01*
X85698571Y-83050952D01*
X85603333Y-83098571D01*
X85270000Y-83098571D01*
X86270000Y-82622380D02*
X86270000Y-83431904D01*
X86317619Y-83527142D01*
X86365238Y-83574761D01*
X86460476Y-83622380D01*
X86650952Y-83622380D01*
X86746190Y-83574761D01*
X86793809Y-83527142D01*
X86841428Y-83431904D01*
X86841428Y-82622380D01*
X87270000Y-83574761D02*
X87412857Y-83622380D01*
X87650952Y-83622380D01*
X87746190Y-83574761D01*
X87793809Y-83527142D01*
X87841428Y-83431904D01*
X87841428Y-83336666D01*
X87793809Y-83241428D01*
X87746190Y-83193809D01*
X87650952Y-83146190D01*
X87460476Y-83098571D01*
X87365238Y-83050952D01*
X87317619Y-83003333D01*
X87270000Y-82908095D01*
X87270000Y-82812857D01*
X87317619Y-82717619D01*
X87365238Y-82670000D01*
X87460476Y-82622380D01*
X87698571Y-82622380D01*
X87841428Y-82670000D01*
X88270000Y-83622380D02*
X88270000Y-82622380D01*
X88746190Y-83622380D02*
X88746190Y-82622380D01*
X89317619Y-83622380D01*
X89317619Y-82622380D01*
X89746190Y-82717619D02*
X89793809Y-82670000D01*
X89889047Y-82622380D01*
X90127142Y-82622380D01*
X90222380Y-82670000D01*
X90270000Y-82717619D01*
X90317619Y-82812857D01*
X90317619Y-82908095D01*
X90270000Y-83050952D01*
X89698571Y-83622380D01*
X90317619Y-83622380D01*
X121652380Y-111809523D02*
X122652380Y-111142857D01*
X121652380Y-111142857D02*
X122652380Y-111809523D01*
X122652380Y-110238095D02*
X122652380Y-110809523D01*
X122652380Y-110523809D02*
X121652380Y-110523809D01*
X121795238Y-110619047D01*
X121890476Y-110714285D01*
X121938095Y-110809523D01*
X191613095Y-118102380D02*
X191613095Y-118911904D01*
X191660714Y-119007142D01*
X191708333Y-119054761D01*
X191803571Y-119102380D01*
X191994047Y-119102380D01*
X192089285Y-119054761D01*
X192136904Y-119007142D01*
X192184523Y-118911904D01*
X192184523Y-118102380D01*
X193184523Y-119102380D02*
X192613095Y-119102380D01*
X192898809Y-119102380D02*
X192898809Y-118102380D01*
X192803571Y-118245238D01*
X192708333Y-118340476D01*
X192613095Y-118388095D01*
X102597619Y-110401380D02*
X102597619Y-111115666D01*
X102550000Y-111258523D01*
X102454761Y-111353761D01*
X102311904Y-111401380D01*
X102216666Y-111401380D01*
X102930952Y-110401380D02*
X103502380Y-110401380D01*
X103216666Y-111401380D02*
X103216666Y-110401380D01*
X104407142Y-111401380D02*
X104073809Y-110925190D01*
X103835714Y-111401380D02*
X103835714Y-110401380D01*
X104216666Y-110401380D01*
X104311904Y-110449000D01*
X104359523Y-110496619D01*
X104407142Y-110591857D01*
X104407142Y-110734714D01*
X104359523Y-110829952D01*
X104311904Y-110877571D01*
X104216666Y-110925190D01*
X103835714Y-110925190D01*
X104835714Y-111401380D02*
X104835714Y-110401380D01*
X105835714Y-110449000D02*
X105740476Y-110401380D01*
X105597619Y-110401380D01*
X105454761Y-110449000D01*
X105359523Y-110544238D01*
X105311904Y-110639476D01*
X105264285Y-110829952D01*
X105264285Y-110972809D01*
X105311904Y-111163285D01*
X105359523Y-111258523D01*
X105454761Y-111353761D01*
X105597619Y-111401380D01*
X105692857Y-111401380D01*
X105835714Y-111353761D01*
X105883333Y-111306142D01*
X105883333Y-110972809D01*
X105692857Y-110972809D01*
X106740476Y-110734714D02*
X106740476Y-111401380D01*
X106502380Y-110353761D02*
X106264285Y-111068047D01*
X106883333Y-111068047D01*
X84507619Y-110401380D02*
X84507619Y-111115666D01*
X84460000Y-111258523D01*
X84364761Y-111353761D01*
X84221904Y-111401380D01*
X84126666Y-111401380D01*
X84840952Y-110401380D02*
X85412380Y-110401380D01*
X85126666Y-111401380D02*
X85126666Y-110401380D01*
X86317142Y-111401380D02*
X85983809Y-110925190D01*
X85745714Y-111401380D02*
X85745714Y-110401380D01*
X86126666Y-110401380D01*
X86221904Y-110449000D01*
X86269523Y-110496619D01*
X86317142Y-110591857D01*
X86317142Y-110734714D01*
X86269523Y-110829952D01*
X86221904Y-110877571D01*
X86126666Y-110925190D01*
X85745714Y-110925190D01*
X86745714Y-111401380D02*
X86745714Y-110401380D01*
X87745714Y-110449000D02*
X87650476Y-110401380D01*
X87507619Y-110401380D01*
X87364761Y-110449000D01*
X87269523Y-110544238D01*
X87221904Y-110639476D01*
X87174285Y-110829952D01*
X87174285Y-110972809D01*
X87221904Y-111163285D01*
X87269523Y-111258523D01*
X87364761Y-111353761D01*
X87507619Y-111401380D01*
X87602857Y-111401380D01*
X87745714Y-111353761D01*
X87793333Y-111306142D01*
X87793333Y-110972809D01*
X87602857Y-110972809D01*
X88174285Y-110496619D02*
X88221904Y-110449000D01*
X88317142Y-110401380D01*
X88555238Y-110401380D01*
X88650476Y-110449000D01*
X88698095Y-110496619D01*
X88745714Y-110591857D01*
X88745714Y-110687095D01*
X88698095Y-110829952D01*
X88126666Y-111401380D01*
X88745714Y-111401380D01*
X145285714Y-75086666D02*
X145761904Y-75086666D01*
X145190476Y-75372380D02*
X145523809Y-74372380D01*
X145857142Y-75372380D01*
X146714285Y-75372380D02*
X146142857Y-75372380D01*
X146428571Y-75372380D02*
X146428571Y-74372380D01*
X146333333Y-74515238D01*
X146238095Y-74610476D01*
X146142857Y-74658095D01*
M02*
