G04*
G04 #@! TF.GenerationSoftware,Altium Limited,Altium Designer,18.0.9 (584)*
G04*
G04 Layer_Physical_Order=1*
G04 Layer_Color=255*
%FSLAX44Y44*%
%MOMM*%
G71*
G01*
G75*
%ADD16R,1.3000X4.0000*%
%ADD17R,0.8000X4.0000*%
%ADD18R,6.0000X3.0000*%
%ADD19R,3.0000X6.0000*%
%ADD20C,0.6000*%
%ADD21R,5.0000X5.0000*%
%ADD22C,3.0000*%
D16*
X150000Y150000D02*
D03*
D17*
X165000D02*
D03*
X135000D02*
D03*
D18*
X265000Y125000D02*
D03*
Y175000D02*
D03*
D19*
X175000Y35000D02*
D03*
X125000D02*
D03*
D20*
X225000Y125000D02*
X265000D01*
X212500Y112500D02*
X225000Y125000D01*
X212500Y50000D02*
Y112500D01*
X197500Y35000D02*
X212500Y50000D01*
X87500Y117500D02*
X120000Y150000D01*
X87500Y50000D02*
Y117500D01*
Y50000D02*
X102500Y35000D01*
X120000Y150000D02*
X135000D01*
X102500Y35000D02*
X125000D01*
X175000D02*
X197500D01*
X190000Y150000D02*
X190000Y150000D01*
X165000Y150000D02*
X190000D01*
X215000Y175000D02*
X265000D01*
X190000Y150000D02*
X215000Y175000D01*
D21*
X197500Y270000D02*
D03*
D22*
X264300Y35700D02*
D03*
Y264300D02*
D03*
X35700D02*
D03*
Y35700D02*
D03*
M02*
