G04*
G04 #@! TF.GenerationSoftware,Altium Limited,Altium Designer,18.0.9 (584)*
G04*
G04 Layer_Color=32896*
%FSLAX44Y44*%
%MOMM*%
G71*
G01*
G75*
%ADD11C,0.2540*%
%ADD13C,0.2000*%
D11*
X1165230Y54500D02*
Y80500D01*
X1179230D01*
Y54500D02*
Y80500D01*
X1165230Y54500D02*
X1179230D01*
X741100Y423170D02*
X798100D01*
Y461170D01*
X741100Y423170D02*
Y461170D01*
X798100D01*
X759520Y529250D02*
Y563250D01*
X740520D02*
X759520D01*
X740520Y529250D02*
X759520D01*
X740520D02*
Y563250D01*
X759520Y639250D02*
Y673250D01*
X740520D02*
X759520D01*
X740520Y639250D02*
X759520D01*
X740520D02*
Y673250D01*
X770000Y488730D02*
Y502730D01*
X744000D02*
X770000D01*
X744000Y488730D02*
Y502730D01*
Y488730D02*
X770000D01*
X769750Y593980D02*
Y607980D01*
X743750D02*
X769750D01*
X743750Y593980D02*
Y607980D01*
Y593980D02*
X769750D01*
X769750Y704730D02*
Y718730D01*
X743750D02*
X769750D01*
X743750Y704730D02*
Y718730D01*
Y704730D02*
X769750D01*
X782427Y644344D02*
X767192D01*
Y654501D01*
Y669736D02*
Y659579D01*
X777349Y669736D01*
X779888D01*
X782427Y667197D01*
Y662118D01*
X779888Y659579D01*
X782427Y536094D02*
X767192D01*
Y546251D01*
Y551329D02*
Y556408D01*
Y553868D01*
X782427D01*
X779888Y551329D01*
X1174711Y102174D02*
X1177251Y104713D01*
X1182329D01*
X1184868Y102174D01*
Y92017D01*
X1182329Y89478D01*
X1177251D01*
X1174711Y92017D01*
X1159476Y104713D02*
X1169633D01*
Y97095D01*
X1164555Y99635D01*
X1162015D01*
X1159476Y97095D01*
Y92017D01*
X1162015Y89478D01*
X1167094D01*
X1169633Y92017D01*
X791138Y709629D02*
X793677Y707090D01*
Y702011D01*
X791138Y699472D01*
X780981D01*
X778442Y702011D01*
Y707090D01*
X780981Y709629D01*
X778442Y722325D02*
X793677D01*
X786059Y714707D01*
Y724864D01*
X791138Y599237D02*
X793677Y596698D01*
Y591619D01*
X791138Y589080D01*
X780981D01*
X778442Y591619D01*
Y596698D01*
X780981Y599237D01*
X791138Y604315D02*
X793677Y606854D01*
Y611933D01*
X791138Y614472D01*
X788599D01*
X786059Y611933D01*
Y609393D01*
Y611933D01*
X783520Y614472D01*
X780981D01*
X778442Y611933D01*
Y606854D01*
X780981Y604315D01*
X818412Y440155D02*
X820951Y437616D01*
Y432537D01*
X818412Y429998D01*
X808255D01*
X805716Y432537D01*
Y437616D01*
X808255Y440155D01*
X805716Y455390D02*
Y445233D01*
X815873Y455390D01*
X818412D01*
X820951Y452851D01*
Y447772D01*
X818412Y445233D01*
X791138Y496071D02*
X793677Y493532D01*
Y488453D01*
X791138Y485914D01*
X780981D01*
X778442Y488453D01*
Y493532D01*
X780981Y496071D01*
X778442Y501149D02*
Y506227D01*
Y503688D01*
X793677D01*
X791138Y501149D01*
D13*
X760600Y426920D02*
X778600D01*
X760600Y457420D02*
X778600D01*
X756020Y545250D02*
Y547250D01*
X744020Y545250D02*
Y547250D01*
X756020Y655250D02*
Y657250D01*
X744020Y655250D02*
Y657250D01*
M02*
