G04*
G04 #@! TF.GenerationSoftware,Altium Limited,Altium Designer,18.0.9 (584)*
G04*
G04 Layer_Physical_Order=2*
G04 Layer_Color=16711680*
%FSLAX44Y44*%
%MOMM*%
G71*
G01*
G75*
%ADD11C,0.2540*%
%ADD13C,0.2000*%
%ADD32R,1.5000X1.5000*%
%ADD33C,1.5000*%
%ADD34R,1.5000X1.5000*%
%ADD35C,1.1680*%
%ADD36R,1.1680X1.1680*%
%ADD37R,1.1680X1.1680*%
%ADD38C,5.0000*%
%ADD39C,1.6000*%
%ADD40R,1.6000X1.6000*%
%ADD41C,3.0000*%
%ADD42C,3.3000*%
G04:AMPARAMS|DCode=43|XSize=1.524mm|YSize=1.524mm|CornerRadius=0.381mm|HoleSize=0mm|Usage=FLASHONLY|Rotation=90.000|XOffset=0mm|YOffset=0mm|HoleType=Round|Shape=RoundedRectangle|*
%AMROUNDEDRECTD43*
21,1,1.5240,0.7620,0,0,90.0*
21,1,0.7620,1.5240,0,0,90.0*
1,1,0.7620,0.3810,0.3810*
1,1,0.7620,0.3810,-0.3810*
1,1,0.7620,-0.3810,-0.3810*
1,1,0.7620,-0.3810,0.3810*
%
%ADD43ROUNDEDRECTD43*%
%ADD44C,1.5240*%
%ADD45C,3.5000*%
%ADD46R,0.8800X0.7200*%
%ADD47R,1.3000X3.2500*%
%ADD48R,1.4000X1.0500*%
%ADD49R,0.7200X0.8800*%
D11*
X224093Y56724D02*
Y66764D01*
X214053D02*
X224093D01*
X214053Y92164D02*
X224093D01*
Y82124D02*
Y92164D01*
Y102204D01*
X109960Y195250D02*
X120000D01*
Y185210D02*
Y195250D01*
X130040D01*
X120000D02*
Y205290D01*
X224093Y66764D02*
Y76804D01*
Y66764D02*
X234133D01*
X224093Y92164D02*
X234133D01*
X334050Y83811D02*
Y101351D01*
X316510D02*
X334050D01*
Y118891D01*
Y101351D02*
X351590D01*
X358685D02*
X376225D01*
Y83811D02*
Y101351D01*
Y118891D01*
Y101351D02*
X393765D01*
X418400Y83811D02*
Y101351D01*
X400860D02*
X418400D01*
Y118891D01*
X391778Y627977D02*
X401818D01*
Y617937D02*
Y627977D01*
Y638017D01*
Y627977D02*
X411858D01*
X418400Y101351D02*
X435940D01*
X683600Y287020D02*
Y295400D01*
X675220D02*
X683600D01*
X691980D01*
X683600D02*
Y303780D01*
X54129Y994956D02*
X81669D01*
X214053Y861764D02*
X224093D01*
X234133D01*
X224093Y851724D02*
Y861764D01*
Y871804D01*
X81669Y994956D02*
Y1022496D01*
X214053Y887164D02*
X224093D01*
X81669Y967416D02*
Y994956D01*
X224093Y877124D02*
Y887164D01*
Y897204D01*
Y887164D02*
X234133D01*
X81669Y994956D02*
X109209D01*
X54129Y1328204D02*
X81669D01*
Y1300664D02*
Y1328204D01*
X109209D01*
X81669D02*
Y1355744D01*
X366220Y1250400D02*
X374600D01*
Y1242020D02*
Y1250400D01*
X382980D01*
X374600D02*
Y1258780D01*
X365296Y1373098D02*
X375336D01*
Y1363058D02*
Y1373098D01*
X385376D01*
X375336D02*
Y1383138D01*
X400736Y1363058D02*
Y1373098D01*
X410776D01*
X390696D02*
X400736D01*
Y1383138D01*
X524600Y1242020D02*
Y1250400D01*
X516220D02*
X524600D01*
X532980D01*
X524600D02*
Y1258780D01*
X674600Y1242020D02*
Y1250400D01*
X666220D02*
X674600D01*
Y1258780D01*
Y1250400D02*
X682980D01*
X1130001Y265602D02*
Y275642D01*
X1119961D02*
X1130001D01*
Y285682D01*
Y275642D02*
X1140041D01*
X887805Y301042D02*
X897845D01*
Y291002D02*
Y301042D01*
Y311082D01*
Y301042D02*
X907885D01*
X789100Y442170D02*
Y460960D01*
X763900Y488790D02*
Y495730D01*
Y502670D01*
Y495730D02*
X770040D01*
X789100Y423380D02*
Y442170D01*
X780060D02*
X789100D01*
X798140D01*
X1165290Y60600D02*
X1172230D01*
Y54460D02*
Y60600D01*
X1179170D01*
X1372836Y137464D02*
Y147504D01*
X1362796D02*
X1372836D01*
Y157544D01*
Y147504D02*
X1382876D01*
X1398236D02*
X1408276D01*
X1388196D02*
X1398236D01*
Y137464D02*
Y147504D01*
Y157544D01*
X1384960Y308000D02*
X1405000D01*
Y287960D02*
Y308000D01*
Y328040D01*
Y308000D02*
X1425040D01*
X1380236Y459384D02*
X1390776D01*
Y448844D02*
Y459384D01*
X1401316D01*
X1390776D02*
Y469924D01*
X1419224Y462560D02*
Y473100D01*
X1408684D02*
X1419224D01*
X1429764D01*
X1419224D02*
Y483640D01*
X763650Y594040D02*
Y600980D01*
Y607920D01*
Y600980D02*
X769790D01*
X763650Y711730D02*
X769790D01*
X763650D02*
Y718670D01*
Y704790D02*
Y711730D01*
X1077098Y597787D02*
X1087138D01*
Y587747D02*
Y597787D01*
X1097178D01*
X1087138D02*
Y607827D01*
X1077098Y623187D02*
X1087138D01*
Y613147D02*
Y623187D01*
X1097178D01*
X1087138D02*
Y633227D01*
X1102498Y597787D02*
X1112538D01*
Y587747D02*
Y597787D01*
X1122578D01*
X1112538D02*
Y607827D01*
Y613147D02*
Y623187D01*
Y633227D01*
Y623187D02*
X1122578D01*
X1102498D02*
X1112538D01*
X1077098Y648587D02*
X1087138D01*
Y638547D02*
Y648587D01*
X1097178D01*
X1087138D02*
Y658627D01*
X1102498Y648587D02*
X1112538D01*
Y638547D02*
Y648587D01*
X1122578D01*
X1112538D02*
Y658627D01*
X824600Y1242020D02*
Y1250400D01*
X816220D02*
X824600D01*
X832980D01*
X824600D02*
Y1258780D01*
X974600Y1242020D02*
Y1250400D01*
Y1258780D01*
Y1250400D02*
X982980D01*
X966220D02*
X974600D01*
X1102508Y903118D02*
X1112548D01*
Y893077D02*
Y903118D01*
Y913158D01*
Y903118D02*
X1122588D01*
X1116220Y1250400D02*
X1124600D01*
Y1242020D02*
Y1250400D01*
Y1258780D01*
Y1250400D02*
X1132980D01*
X1115296Y1373098D02*
X1125336D01*
Y1363058D02*
Y1373098D01*
X1135376D01*
X1125336D02*
Y1383138D01*
X1140696Y1373098D02*
X1150736D01*
Y1363058D02*
Y1373098D01*
X1160776D01*
X1150736D02*
Y1383138D01*
X1380236Y597814D02*
X1390776D01*
Y587274D02*
Y597814D01*
X1401316D01*
X1390776D02*
Y608354D01*
X1380236Y736244D02*
X1390776D01*
Y725704D02*
Y736244D01*
X1401316D01*
X1408684Y611530D02*
X1419224D01*
Y600990D02*
Y611530D01*
Y622070D01*
Y611530D02*
X1429764D01*
X1390776Y736244D02*
Y746784D01*
X1372836Y1083051D02*
Y1093091D01*
X1382876D01*
X1388196D02*
X1398236D01*
Y1083051D02*
Y1093091D01*
X1372836D02*
Y1103131D01*
X1362796Y1093091D02*
X1372836D01*
X1398236D02*
Y1103131D01*
X1384960Y943000D02*
X1405000D01*
X1398236Y1093091D02*
X1408276D01*
X1408684Y749960D02*
X1419224D01*
Y739420D02*
Y749960D01*
Y760500D01*
Y749960D02*
X1429764D01*
X1405000Y922960D02*
Y943000D01*
X1425040D01*
X1405000D02*
Y963040D01*
X120000Y695000D02*
X129178Y704177D01*
X401818D01*
X695000Y440000D02*
X747930D01*
X597500Y342500D02*
X695000Y440000D01*
X597500Y230000D02*
Y342500D01*
X442500Y75000D02*
X597500Y230000D01*
X361924Y75000D02*
X442500D01*
X334050Y47126D02*
X361924Y75000D01*
X747930Y440000D02*
X750100Y442170D01*
X750100Y442170D02*
X750100Y442170D01*
X750100Y442170D02*
Y495730D01*
X401818Y856577D02*
X430000Y884760D01*
Y1245800D01*
X400000Y1275800D02*
X430000Y1245800D01*
X1172500Y74400D02*
Y190000D01*
X750020Y665500D02*
Y732520D01*
X1059000Y47770D02*
Y54000D01*
X1079400Y74400D02*
X1172230D01*
X1059000Y54000D02*
X1079400Y74400D01*
X1149682Y725318D02*
X1254999Y620001D01*
Y147504D02*
Y620001D01*
X1057500Y271943D02*
Y695670D01*
X1112548Y750717D01*
Y725318D02*
X1149682D01*
X1163058Y199442D02*
X1172500Y190000D01*
X1130001Y199442D02*
X1163058D01*
X1057500Y271943D02*
X1130001Y199442D01*
X380000Y822500D02*
X388677Y831177D01*
X401818D01*
X380000Y762500D02*
Y822500D01*
Y762500D02*
X387523Y754977D01*
X401818D01*
X507500D02*
X727563D01*
X401818D02*
X507500D01*
Y755500D01*
X727563Y754977D02*
X750020Y732520D01*
X768217Y750717D01*
X1112548D01*
X749850Y646830D02*
X750020Y647000D01*
X749850Y600980D02*
Y646830D01*
Y600980D02*
X750020Y600810D01*
Y555500D02*
Y600810D01*
Y537000D02*
X750100Y536920D01*
Y495730D02*
Y536920D01*
D13*
X89040Y144250D02*
G03*
X89040Y144250I-20040J0D01*
G01*
X235133Y92164D02*
G03*
X235133Y92164I-11040J0D01*
G01*
X131040Y170250D02*
G03*
X131040Y170250I-11040J0D01*
G01*
X89040Y246250D02*
G03*
X89040Y246250I-20040J0D01*
G01*
X89040Y394000D02*
G03*
X89040Y394000I-20040J0D01*
G01*
X343310Y63188D02*
G03*
X352590Y47126I-9260J-16062D01*
G01*
D02*
G03*
X350112Y56386I-18540J0D01*
G01*
X394765Y47126D02*
G03*
X394765Y47126I-18540J0D01*
G01*
X361924Y79810D02*
G03*
X358523Y78401I0J-4810D01*
G01*
X361924Y79810D02*
G03*
X358523Y78401I0J-4810D01*
G01*
X352590Y101351D02*
G03*
X352590Y101351I-18540J0D01*
G01*
X394765D02*
G03*
X394765Y101351I-18540J0D01*
G01*
X131040Y420000D02*
G03*
X131040Y420000I-11040J0D01*
G01*
X89040Y496000D02*
G03*
X89040Y496000I-20040J0D01*
G01*
Y644000D02*
G03*
X89040Y644000I-20040J0D01*
G01*
X131040Y670000D02*
G03*
X131040Y670000I-11040J0D01*
G01*
X129178Y708987D02*
G03*
X125776Y707579I0J-4810D01*
G01*
X129178Y708987D02*
G03*
X125776Y707579I0J-4810D01*
G01*
X412858Y627977D02*
G03*
X412858Y627977I-11040J0D01*
G01*
Y653377D02*
G03*
X412858Y653377I-11040J0D01*
G01*
Y678777D02*
G03*
X412858Y678777I-11040J0D01*
G01*
X391881Y699367D02*
G03*
X412858Y704177I9937J4810D01*
G01*
D02*
G03*
X391881Y708987I-11040J0D01*
G01*
X436940Y47126D02*
G03*
X436940Y47126I-18540J0D01*
G01*
X442500Y70190D02*
G03*
X445901Y71599I0J4810D01*
G01*
X442500Y70190D02*
G03*
X445901Y71599I0J4810D01*
G01*
X436940Y101351D02*
G03*
X436940Y101351I-18540J0D01*
G01*
X727540Y47770D02*
G03*
X727540Y47770I-18540J0D01*
G01*
X769540D02*
G03*
X769540Y47770I-18540J0D01*
G01*
X727540Y102000D02*
G03*
X727540Y102000I-18540J0D01*
G01*
X769540D02*
G03*
X769540Y102000I-18540J0D01*
G01*
X600901Y226599D02*
G03*
X602310Y230000I-3401J3401D01*
G01*
X600901Y226599D02*
G03*
X602310Y230000I-3401J3401D01*
G01*
X718380Y270000D02*
G03*
X718380Y270000I-9380J0D01*
G01*
X692980Y295400D02*
G03*
X692980Y295400I-9380J0D01*
G01*
X594099Y345901D02*
G03*
X592690Y342500I3401J-3401D01*
G01*
X594099Y345901D02*
G03*
X592690Y342500I3401J-3401D01*
G01*
X695000Y444810D02*
G03*
X691599Y443401I0J-4810D01*
G01*
X695000Y444810D02*
G03*
X691599Y443401I0J-4810D01*
G01*
X54679Y1086650D02*
G03*
X67809Y1075220I1590J-11430D01*
G01*
X89040Y746000D02*
G03*
X89040Y746000I-20040J0D01*
G01*
X80079Y1075220D02*
G03*
X93209Y1063790I1590J-11430D01*
G01*
X110209Y994956D02*
G03*
X110209Y994956I-28540J0D01*
G01*
X67809Y1075220D02*
G03*
X57858Y1086650I-11540J0D01*
G01*
X67809Y1098080D02*
G03*
X57858Y1109510I-11540J0D01*
G01*
X54679D02*
G03*
X54679Y1086650I1590J-11430D01*
G01*
Y1132370D02*
G03*
X54679Y1109510I1590J-11430D01*
G01*
X57858Y1132370D02*
G03*
X67809Y1143800I-1590J11430D01*
G01*
X57858Y1086650D02*
G03*
X67809Y1098080I-1590J11430D01*
G01*
X80079D02*
G03*
X80079Y1075220I1590J-11430D01*
G01*
X57858Y1109510D02*
G03*
X67809Y1120940I-1590J11430D01*
G01*
D02*
G03*
X57858Y1132370I-11540J0D01*
G01*
X80079Y1120940D02*
G03*
X80079Y1098080I1590J-11430D01*
G01*
X80079Y1143800D02*
G03*
X80079Y1120940I1590J-11430D01*
G01*
X375190Y762500D02*
G03*
X376599Y759099I4810J0D01*
G01*
X375190Y762500D02*
G03*
X376599Y759099I4810J0D01*
G01*
Y825901D02*
G03*
X375190Y822500I3401J-3401D01*
G01*
X376599Y825901D02*
G03*
X375190Y822500I3401J-3401D01*
G01*
X235133Y887164D02*
G03*
X235133Y887164I-11040J0D01*
G01*
X384121Y751576D02*
G03*
X387523Y750167I3401J3401D01*
G01*
X384121Y751576D02*
G03*
X387523Y750167I3401J3401D01*
G01*
X388677Y835987D02*
G03*
X385276Y834579I0J-4810D01*
G01*
X388677Y835987D02*
G03*
X385276Y834579I0J-4810D01*
G01*
X93209Y1063790D02*
G03*
X83258Y1075220I-11540J0D01*
G01*
D02*
G03*
X93209Y1086650I-1590J11430D01*
G01*
X93209Y1109510D02*
G03*
X83258Y1120940I-11540J0D01*
G01*
X93209Y1086650D02*
G03*
X83258Y1098080I-11540J0D01*
G01*
D02*
G03*
X93209Y1109510I-1590J11430D01*
G01*
X83258Y1120940D02*
G03*
X93209Y1132370I-1590J11430D01*
G01*
D02*
G03*
X83258Y1143800I-11540J0D01*
G01*
X109311Y1086760D02*
G03*
X118609Y1098080I-2243J11320D01*
G01*
X105479Y1109510D02*
G03*
X104826Y1086760I1590J-11430D01*
G01*
X105479Y1132370D02*
G03*
X105479Y1109510I1590J-11430D01*
G01*
X118609Y1098080D02*
G03*
X108658Y1109510I-11540J0D01*
G01*
D02*
G03*
X118609Y1120940I-1590J11430D01*
G01*
D02*
G03*
X108658Y1132370I-11540J0D01*
G01*
D02*
G03*
X118609Y1143800I-1590J11430D01*
G01*
X54679Y1155230D02*
G03*
X54679Y1132370I1590J-11430D01*
G01*
X57858Y1155230D02*
G03*
X67809Y1166660I-1590J11430D01*
G01*
X54679Y1178090D02*
G03*
X54679Y1155230I1590J-11430D01*
G01*
X67809Y1166660D02*
G03*
X57858Y1178090I-11540J0D01*
G01*
X54679Y1200950D02*
G03*
X54679Y1178090I1590J-11430D01*
G01*
X57858D02*
G03*
X67809Y1189520I-1590J11430D01*
G01*
D02*
G03*
X57858Y1200950I-11540J0D01*
G01*
X54679Y1223810D02*
G03*
X54679Y1200950I1590J-11430D01*
G01*
X57858D02*
G03*
X67809Y1212380I-1590J11430D01*
G01*
Y1143800D02*
G03*
X57858Y1155230I-11540J0D01*
G01*
X80079Y1166660D02*
G03*
X80079Y1143800I1590J-11430D01*
G01*
X83258D02*
G03*
X93209Y1155230I-1590J11430D01*
G01*
D02*
G03*
X83258Y1166660I-11540J0D01*
G01*
X93209Y1178090D02*
G03*
X83258Y1189520I-11540J0D01*
G01*
X80079D02*
G03*
X80079Y1166660I1590J-11430D01*
G01*
X67809Y1212380D02*
G03*
X57858Y1223810I-11540J0D01*
G01*
X83258Y1189520D02*
G03*
X93209Y1200950I-1590J11430D01*
G01*
X80079Y1212380D02*
G03*
X80079Y1189520I1590J-11430D01*
G01*
Y1235240D02*
G03*
X80079Y1212380I1590J-11430D01*
G01*
X93209Y1200950D02*
G03*
X83258Y1212380I-11540J0D01*
G01*
D02*
G03*
X93209Y1223810I-1590J11430D01*
G01*
X57858D02*
G03*
X67809Y1235240I-1590J11430D01*
G01*
D02*
G03*
X54679Y1223810I-11540J0D01*
G01*
X93209D02*
G03*
X83258Y1235240I-11540J0D01*
G01*
X93209Y1246670D02*
G03*
X80079Y1235240I-11540J0D01*
G01*
X110209Y1328204D02*
G03*
X110209Y1328204I-28540J0D01*
G01*
X83258Y1166660D02*
G03*
X93209Y1178090I-1590J11430D01*
G01*
X105479Y1155230D02*
G03*
X105479Y1132370I1590J-11430D01*
G01*
Y1178090D02*
G03*
X105479Y1155230I1590J-11430D01*
G01*
Y1200950D02*
G03*
X105479Y1178090I1590J-11430D01*
G01*
Y1223810D02*
G03*
X105479Y1200950I1590J-11430D01*
G01*
Y1246670D02*
G03*
X105479Y1223810I1590J-11430D01*
G01*
X118609Y1166660D02*
G03*
X108658Y1178090I-11540J0D01*
G01*
X118609Y1143800D02*
G03*
X108658Y1155230I-11540J0D01*
G01*
D02*
G03*
X118609Y1166660I-1590J11430D01*
G01*
X108658Y1200950D02*
G03*
X118609Y1212380I-1590J11430D01*
G01*
X108658Y1178090D02*
G03*
X118609Y1189520I-1590J11430D01*
G01*
D02*
G03*
X108658Y1200950I-11540J0D01*
G01*
X118609Y1212380D02*
G03*
X108658Y1223810I-11540J0D01*
G01*
D02*
G03*
X118609Y1235240I-1590J11430D01*
G01*
X83258D02*
G03*
X93209Y1246670I-1590J11430D01*
G01*
X118609Y1235240D02*
G03*
X108658Y1246670I-11540J0D01*
G01*
D02*
G03*
X118609Y1258100I-1590J11430D01*
G01*
D02*
G03*
X105479Y1246670I-11540J0D01*
G01*
X383980Y1250400D02*
G03*
X383980Y1250400I-9380J0D01*
G01*
X386376Y1373098D02*
G03*
X386376Y1373098I-11040J0D01*
G01*
X391881Y750167D02*
G03*
X411755Y750167I9937J4810D01*
G01*
X412858Y729577D02*
G03*
X412858Y729577I-11040J0D01*
G01*
X411755Y759787D02*
G03*
X391881Y759787I-9937J-4810D01*
G01*
X412858Y780377D02*
G03*
X412858Y780377I-11040J0D01*
G01*
Y805777D02*
G03*
X412858Y805777I-11040J0D01*
G01*
X391881Y826367D02*
G03*
X412858Y831177I9937J4810D01*
G01*
D02*
G03*
X391881Y835987I-11040J0D01*
G01*
X730964Y758379D02*
G03*
X727563Y759787I-3401J-3401D01*
G01*
X730964Y758379D02*
G03*
X727563Y759787I-3401J-3401D01*
G01*
X433401Y881358D02*
G03*
X434810Y884760I-3401J3401D01*
G01*
X509680Y759787D02*
G03*
X505320Y759787I-2180J-4287D01*
G01*
X433401Y881358D02*
G03*
X434810Y884760I-3401J3401D01*
G01*
X409380Y1275800D02*
G03*
X402293Y1266705I-9380J0D01*
G01*
X409095Y1273507D02*
G03*
X409380Y1275800I-9095J2293D01*
G01*
X434810Y1245800D02*
G03*
X433401Y1249201I-4810J0D01*
G01*
X434810Y1245800D02*
G03*
X433401Y1249201I-4810J0D01*
G01*
X533980Y1250400D02*
G03*
X533980Y1250400I-9380J0D01*
G01*
X559380Y1275800D02*
G03*
X559380Y1275800I-9380J0D01*
G01*
X683980Y1250400D02*
G03*
X683980Y1250400I-9380J0D01*
G01*
X709380Y1275800D02*
G03*
X709380Y1275800I-9380J0D01*
G01*
X1063859Y65662D02*
G03*
X1077540Y47770I-4859J-17892D01*
G01*
D02*
G03*
X1072393Y60591I-18540J0D01*
G01*
X1077540Y102000D02*
G03*
X1077540Y102000I-18540J0D01*
G01*
X1079400Y79210D02*
G03*
X1075999Y77801I0J-4810D01*
G01*
X1052690Y271943D02*
G03*
X1054099Y268541I4810J0D01*
G01*
X1052690Y271943D02*
G03*
X1054099Y268541I4810J0D01*
G01*
X1119540Y47770D02*
G03*
X1119540Y47770I-18540J0D01*
G01*
X1079400Y79210D02*
G03*
X1075999Y77801I0J-4810D01*
G01*
X1119540Y102000D02*
G03*
X1119540Y102000I-18540J0D01*
G01*
X1166459Y202843D02*
G03*
X1163058Y204252I-3401J-3401D01*
G01*
X1166459Y202843D02*
G03*
X1163058Y204252I-3401J-3401D01*
G01*
X1177310Y190000D02*
G03*
X1175901Y193401I-4810J0D01*
G01*
X1177310Y190000D02*
G03*
X1175901Y193401I-4810J0D01*
G01*
X1291439Y147504D02*
G03*
X1291439Y147504I-11040J0D01*
G01*
X1383876D02*
G03*
X1383876Y147504I-11040J0D01*
G01*
X1401936Y376326D02*
G03*
X1401936Y376326I-11160J0D01*
G01*
X1426040Y308000D02*
G03*
X1426040Y308000I-21040J0D01*
G01*
X1402316Y404012D02*
G03*
X1402316Y404012I-11540J0D01*
G01*
Y431698D02*
G03*
X1402316Y431698I-11540J0D01*
G01*
Y459384D02*
G03*
X1402316Y459384I-11540J0D01*
G01*
X1338627Y502164D02*
G03*
X1338627Y502164I-11040J0D01*
G01*
Y527564D02*
G03*
X1338627Y527564I-11040J0D01*
G01*
X1402316Y487070D02*
G03*
X1402316Y487070I-11540J0D01*
G01*
X1379616Y510946D02*
G03*
X1386966Y503596I7350J0D01*
G01*
X1430764Y390042D02*
G03*
X1430764Y390042I-11540J0D01*
G01*
Y417728D02*
G03*
X1430764Y417728I-11540J0D01*
G01*
Y445414D02*
G03*
X1430764Y445414I-11540J0D01*
G01*
X1394586Y503596D02*
G03*
X1401936Y510946I0J7350D01*
G01*
X1408064Y496976D02*
G03*
X1415414Y489626I7350J0D01*
G01*
Y511946D02*
G03*
X1408064Y504596I0J-7350D01*
G01*
X1430764Y473100D02*
G03*
X1430764Y473100I-11540J0D01*
G01*
X1423034Y489626D02*
G03*
X1430384Y496976I0J7350D01*
G01*
Y504596D02*
G03*
X1423034Y511946I-7350J0D01*
G01*
X1430764Y528472D02*
G03*
X1430764Y528472I-11540J0D01*
G01*
X1054099Y699071D02*
G03*
X1052690Y695670I3401J-3401D01*
G01*
X768217Y755527D02*
G03*
X764816Y754119I0J-4810D01*
G01*
X768217Y755527D02*
G03*
X764816Y754119I0J-4810D01*
G01*
X1054099Y699071D02*
G03*
X1052690Y695670I3401J-3401D01*
G01*
X1098178Y597787D02*
G03*
X1098178Y597787I-11040J0D01*
G01*
Y623187D02*
G03*
X1098178Y623187I-11040J0D01*
G01*
X1123578D02*
G03*
X1123578Y623187I-11040J0D01*
G01*
X1098178Y648587D02*
G03*
X1098178Y648587I-11040J0D01*
G01*
X1123578D02*
G03*
X1123578Y648587I-11040J0D01*
G01*
X1123588Y750717D02*
G03*
X1102611Y755527I-11040J0D01*
G01*
X1108922Y740290D02*
G03*
X1123588Y750717I3625J10428D01*
G01*
Y776117D02*
G03*
X1123588Y776117I-11040J0D01*
G01*
X1153084Y728719D02*
G03*
X1149682Y730127I-3401J-3401D01*
G01*
X1153084Y728719D02*
G03*
X1149682Y730127I-3401J-3401D01*
G01*
X833980Y1250400D02*
G03*
X833980Y1250400I-9380J0D01*
G01*
X859380Y1275800D02*
G03*
X859380Y1275800I-9380J0D01*
G01*
X983980Y1250400D02*
G03*
X983980Y1250400I-9380J0D01*
G01*
X1009380Y1275800D02*
G03*
X1009380Y1275800I-9380J0D01*
G01*
X1123588Y852318D02*
G03*
X1123588Y852318I-11040J0D01*
G01*
Y877718D02*
G03*
X1123588Y877718I-11040J0D01*
G01*
Y801517D02*
G03*
X1123588Y801517I-11040J0D01*
G01*
Y826917D02*
G03*
X1123588Y826917I-11040J0D01*
G01*
Y903118D02*
G03*
X1123588Y903118I-11040J0D01*
G01*
X1133980Y1250400D02*
G03*
X1133980Y1250400I-9380J0D01*
G01*
X1136376Y1373098D02*
G03*
X1136376Y1373098I-11040J0D01*
G01*
X1159380Y1275800D02*
G03*
X1159380Y1275800I-9380J0D01*
G01*
X1386966Y525916D02*
G03*
X1379616Y518566I0J-7350D01*
G01*
X1402316Y542442D02*
G03*
X1402316Y542442I-11540J0D01*
G01*
Y570128D02*
G03*
X1402316Y570128I-11540J0D01*
G01*
X1401936Y518566D02*
G03*
X1394586Y525916I-7350J0D01*
G01*
X1402316Y597814D02*
G03*
X1402316Y597814I-11540J0D01*
G01*
Y625500D02*
G03*
X1402316Y625500I-11540J0D01*
G01*
X1259809Y620001D02*
G03*
X1258401Y623402I-4810J0D01*
G01*
X1259809Y620001D02*
G03*
X1258401Y623402I-4810J0D01*
G01*
X1379616Y649376D02*
G03*
X1386966Y642026I7350J0D01*
G01*
Y664346D02*
G03*
X1379616Y656996I0J-7350D01*
G01*
X1394586Y642026D02*
G03*
X1401936Y649376I0J7350D01*
G01*
Y656996D02*
G03*
X1394586Y664346I-7350J0D01*
G01*
X1402316Y680872D02*
G03*
X1402316Y680872I-11540J0D01*
G01*
Y708558D02*
G03*
X1402316Y708558I-11540J0D01*
G01*
X1430764Y556158D02*
G03*
X1430764Y556158I-11540J0D01*
G01*
Y583844D02*
G03*
X1430764Y583844I-11540J0D01*
G01*
Y611530D02*
G03*
X1430764Y611530I-11540J0D01*
G01*
X1408064Y635406D02*
G03*
X1415414Y628056I7350J0D01*
G01*
Y650376D02*
G03*
X1408064Y643026I0J-7350D01*
G01*
X1423034Y628056D02*
G03*
X1430384Y635406I0J7350D01*
G01*
Y643026D02*
G03*
X1423034Y650376I-7350J0D01*
G01*
X1430764Y666902D02*
G03*
X1430764Y666902I-11540J0D01*
G01*
Y694588D02*
G03*
X1430764Y694588I-11540J0D01*
G01*
Y722274D02*
G03*
X1430764Y722274I-11540J0D01*
G01*
X1379616Y787806D02*
G03*
X1386966Y780456I7350J0D01*
G01*
Y802776D02*
G03*
X1379616Y795426I0J-7350D01*
G01*
X1402316Y736244D02*
G03*
X1402316Y736244I-11540J0D01*
G01*
Y763930D02*
G03*
X1402316Y763930I-11540J0D01*
G01*
X1394586Y780456D02*
G03*
X1401936Y787806I0J7350D01*
G01*
X1402316Y819302D02*
G03*
X1402316Y819302I-11540J0D01*
G01*
Y846988D02*
G03*
X1402316Y846988I-11540J0D01*
G01*
X1401936Y795426D02*
G03*
X1394586Y802776I-7350J0D01*
G01*
X1383876Y1093091D02*
G03*
X1383876Y1093091I-11040J0D01*
G01*
X1402316Y874674D02*
G03*
X1402316Y874674I-11540J0D01*
G01*
X1426040Y943000D02*
G03*
X1426040Y943000I-21040J0D01*
G01*
X1408064Y773836D02*
G03*
X1415414Y766486I7350J0D01*
G01*
Y788806D02*
G03*
X1408064Y781456I0J-7350D01*
G01*
X1430764Y749960D02*
G03*
X1430764Y749960I-11540J0D01*
G01*
X1423034Y766486D02*
G03*
X1430384Y773836I0J7350D01*
G01*
Y781456D02*
G03*
X1423034Y788806I-7350J0D01*
G01*
X1430764Y805332D02*
G03*
X1430764Y805332I-11540J0D01*
G01*
Y833018D02*
G03*
X1430764Y833018I-11540J0D01*
G01*
Y860704D02*
G03*
X1430764Y860704I-11540J0D01*
G01*
X49999Y100000D02*
Y137880D01*
X10000Y100000D02*
X100000D01*
X55999D02*
Y128999D01*
X10000Y139999D02*
X49416D01*
X10000Y127999D02*
X57273D01*
X10000Y133999D02*
X51780D01*
X79999Y100000D02*
Y127498D01*
X100000Y10000D02*
Y100000D01*
X85999D02*
Y133637D01*
X61999Y100000D02*
Y125472D01*
X67999Y100000D02*
Y124235D01*
X73999Y100000D02*
Y124844D01*
X10000Y145999D02*
X49036D01*
X49999Y150620D02*
Y239880D01*
X10000Y151999D02*
X50519D01*
X10000Y157999D02*
X54420D01*
X55999Y159501D02*
Y230999D01*
X115999Y10000D02*
Y159960D01*
X121999Y10000D02*
Y159392D01*
X127999Y10000D02*
Y162641D01*
X61999Y163027D02*
Y227472D01*
X79999Y161002D02*
Y229498D01*
X109999Y10000D02*
Y165574D01*
X85999Y154863D02*
Y235637D01*
X100000Y43999D02*
X315776D01*
X100000Y31999D02*
X323330D01*
X100000Y37999D02*
X317912D01*
X100000Y61999D02*
X213053D01*
X100000Y49999D02*
X315734D01*
X100000Y55999D02*
X213053D01*
X217999Y10000D02*
Y55724D01*
X213053D02*
X235133D01*
X100000Y67999D02*
X213053D01*
X100000Y73999D02*
X213053D01*
Y77804D02*
X235133D01*
X100000Y91999D02*
X213055D01*
X100000Y85999D02*
X214935D01*
X100000Y97999D02*
X214722D01*
X10000Y103999D02*
X315700D01*
X10000Y109999D02*
X317651D01*
X10000Y115999D02*
X322685D01*
X213053Y55724D02*
Y77804D01*
X217999D02*
Y82958D01*
X10000Y235999D02*
X51780D01*
X10000Y163999D02*
X65598D01*
X10000Y229999D02*
X57274D01*
X10000Y247999D02*
X49036D01*
X10000Y241999D02*
X49416D01*
X10000Y253999D02*
X50519D01*
X67999Y164265D02*
Y226235D01*
X73999Y163656D02*
Y226844D01*
X10000Y259999D02*
X54420D01*
X10000Y265999D02*
X65597D01*
X67999Y266265D02*
Y373985D01*
X10000Y373999D02*
X67754D01*
X10000Y391999D02*
X49060D01*
X10000Y379999D02*
X54662D01*
X10000Y385999D02*
X50627D01*
X10000Y397999D02*
X49363D01*
X10000Y403999D02*
X51633D01*
X10000Y409999D02*
X56932D01*
X49999Y252620D02*
Y387630D01*
X55999Y261501D02*
Y378749D01*
X85999Y256863D02*
Y383387D01*
X73999Y265656D02*
Y374594D01*
X61999Y265028D02*
Y375223D01*
X79999Y263002D02*
Y377248D01*
X10000Y169999D02*
X108963D01*
X72402Y163999D02*
X110900D01*
X10000Y175999D02*
X110575D01*
X10000Y193999D02*
X108960D01*
Y184210D02*
X131040D01*
X10000Y187999D02*
X108960D01*
X109999Y174926D02*
Y184210D01*
X127999Y177859D02*
Y184210D01*
X115999Y180540D02*
Y184210D01*
X121999Y181108D02*
Y184210D01*
X10000Y199999D02*
X108960D01*
X10000Y205999D02*
X108960D01*
Y206290D02*
X131040D01*
X10000Y421999D02*
X109142D01*
X81068Y409999D02*
X115325D01*
X10000Y415999D02*
X109711D01*
X108960Y184210D02*
Y206290D01*
X131040Y184210D02*
Y206290D01*
X115999D02*
Y409710D01*
X109999Y206290D02*
Y415324D01*
X121999Y206290D02*
Y409142D01*
X127999Y206290D02*
Y412391D01*
X223999Y10000D02*
Y55724D01*
X319999Y10000D02*
Y35031D01*
X229999Y10000D02*
Y55724D01*
X235133Y55999D02*
X317771D01*
X331999Y10000D02*
Y28700D01*
X325999Y10000D02*
Y30425D01*
X343999Y10000D02*
Y31481D01*
X361999Y10000D02*
Y35237D01*
X349999Y10000D02*
Y37673D01*
X337999Y10000D02*
Y29011D01*
X352366Y49999D02*
X357909D01*
X350188Y37999D02*
X360087D01*
X352324Y43999D02*
X357951D01*
X235133Y55724D02*
Y77804D01*
X319999Y59221D02*
Y89256D01*
X235133Y61999D02*
X322981D01*
X337999Y65241D02*
Y83236D01*
X325999Y63827D02*
Y84650D01*
X350329Y55999D02*
X359946D01*
X355999Y10000D02*
Y62273D01*
X343310Y63188D02*
X358523Y78401D01*
X343999Y63877D02*
Y85707D01*
X361999Y59015D02*
Y68273D01*
X350112Y56386D02*
X363916Y70190D01*
X367999Y10000D02*
Y30511D01*
X373999Y10000D02*
Y28720D01*
X379999Y10000D02*
Y28974D01*
X344770Y31999D02*
X365505D01*
X385999Y10000D02*
Y31372D01*
X386945Y31999D02*
X407680D01*
X391999Y10000D02*
Y37383D01*
X409999Y10000D02*
Y30599D01*
X403999Y10000D02*
Y35450D01*
X392363Y37999D02*
X402262D01*
X394499Y43999D02*
X400126D01*
X415999Y10000D02*
Y28742D01*
X421999Y10000D02*
Y28939D01*
X355726Y61999D02*
X365156D01*
X387294D02*
X407331D01*
X367999Y63741D02*
Y70190D01*
X385999Y62881D02*
Y70190D01*
X379999Y65278D02*
Y70190D01*
X397999Y10000D02*
Y70190D01*
X394541Y49999D02*
X400084D01*
X392504Y55999D02*
X402121D01*
X403999Y58802D02*
Y70190D01*
X391999Y56869D02*
Y70190D01*
X421999Y65313D02*
Y70190D01*
X409999Y63653D02*
Y70190D01*
X235133Y73999D02*
X354121D01*
X223999Y77804D02*
Y81124D01*
X229999Y77804D02*
Y82836D01*
X233252Y85999D02*
X323655D01*
X331999Y65552D02*
Y82925D01*
X235133Y67999D02*
X348121D01*
X349999Y69877D02*
Y91898D01*
X344445Y85999D02*
X365830D01*
X361999Y79810D02*
Y89462D01*
X233465Y97999D02*
X315815D01*
X235132Y91999D02*
X318041D01*
X350059D02*
X360216D01*
X352284Y97999D02*
X357990D01*
X352400Y103999D02*
X357875D01*
X350449Y109999D02*
X359826D01*
X345415Y115999D02*
X364860D01*
X367999Y79810D02*
Y84736D01*
X373999Y65532D02*
Y70190D01*
Y79810D02*
Y82945D01*
X379999Y79810D02*
Y83199D01*
X385999Y79810D02*
Y85597D01*
X386620Y85999D02*
X408005D01*
X403999Y79810D02*
Y89675D01*
X415999Y65510D02*
Y70190D01*
X409999Y79810D02*
Y84824D01*
X415999Y79810D02*
Y82967D01*
X391999Y79810D02*
Y91608D01*
X421999Y79810D02*
Y83164D01*
X427999Y79810D02*
Y85489D01*
X387590Y115999D02*
X407035D01*
X394459Y97999D02*
X400165D01*
X392234Y91999D02*
X402391D01*
X394575Y103999D02*
X400050D01*
X392624Y109999D02*
X402001D01*
X10000Y487999D02*
X50627D01*
X10000Y475998D02*
X67758D01*
X10000Y481998D02*
X54663D01*
X10000Y493998D02*
X49060D01*
X10000Y505998D02*
X51632D01*
X10000Y511998D02*
X56931D01*
X49999Y400370D02*
Y489630D01*
X61999Y412777D02*
Y477223D01*
X55999Y409251D02*
Y480749D01*
X10000Y499999D02*
X49363D01*
X67999Y414015D02*
Y475985D01*
X73999Y413406D02*
Y476594D01*
X25999Y100000D02*
Y1400000D01*
X37999Y100000D02*
Y1400000D01*
X31999Y100000D02*
Y1400000D01*
X10000Y100000D02*
Y1400000D01*
X20000Y100000D02*
Y1400000D01*
X14000Y100000D02*
Y1400000D01*
X43999Y100000D02*
Y1400000D01*
X55999Y511251D02*
Y628749D01*
X49999Y502370D02*
Y637630D01*
X67999Y516015D02*
Y623985D01*
X61999Y514777D02*
Y625223D01*
X73999Y515406D02*
Y624594D01*
X79999Y512752D02*
Y627248D01*
X10000Y433999D02*
X108960D01*
X10000Y427999D02*
X112391D01*
X10000Y451999D02*
X108960D01*
X10000Y439999D02*
X108960D01*
X10000Y445999D02*
X108960D01*
X109999Y424676D02*
Y433960D01*
X127999Y427609D02*
Y433960D01*
X115999Y430290D02*
Y433960D01*
X121999Y430858D02*
Y433960D01*
X108960D02*
Y456040D01*
Y433960D02*
X131040D01*
Y456040D01*
X79999Y410752D02*
Y479248D01*
X85999Y404613D02*
Y485387D01*
X91999Y100000D02*
Y968351D01*
X85999Y506613D02*
Y633387D01*
X10000Y619998D02*
X394188D01*
X97999Y100000D02*
Y971550D01*
X108960Y456040D02*
X131040D01*
X103999Y10000D02*
Y977183D01*
X115999Y456040D02*
Y659710D01*
X109999Y456040D02*
Y665324D01*
X121999Y456040D02*
Y659143D01*
X127999Y456040D02*
Y662391D01*
X10000Y643998D02*
X48960D01*
X10000Y631998D02*
X52951D01*
X10000Y637998D02*
X49880D01*
X10000Y649998D02*
X49879D01*
X10000Y655998D02*
X52949D01*
X10000Y661998D02*
X60187D01*
X10000Y625998D02*
X60194D01*
X77813Y661998D02*
X112394D01*
X10000Y667998D02*
X109143D01*
X10000Y673998D02*
X109709D01*
X10000Y679998D02*
X115318D01*
X109999Y674676D02*
Y683960D01*
X49999Y650370D02*
Y739630D01*
X10000Y685998D02*
X108960D01*
X55999Y659251D02*
Y730749D01*
X10000Y703998D02*
X108960D01*
X10000Y691998D02*
X108960D01*
X10000Y697998D02*
X108960D01*
X61999Y662777D02*
Y727223D01*
X79999Y660752D02*
Y729248D01*
X85999Y654613D02*
Y735387D01*
X67999Y664015D02*
Y725985D01*
X73999Y663406D02*
Y726593D01*
X108960Y683960D02*
Y706040D01*
X109999D02*
Y991506D01*
X77806Y625998D02*
X390957D01*
X85049Y631998D02*
X391536D01*
X88120Y637998D02*
X397185D01*
X85051Y655998D02*
X391093D01*
X89040Y643998D02*
X395994D01*
X88121Y649998D02*
X391308D01*
X127606Y661998D02*
X394921D01*
X130857Y667998D02*
X399433D01*
X127999Y677609D02*
Y683960D01*
X121999Y680857D02*
Y683960D01*
X130291Y673998D02*
X391866D01*
X124682Y679998D02*
X390845D01*
X115999Y680290D02*
Y683960D01*
X108960D02*
X131040D01*
X108960Y706040D02*
X124238D01*
X115999D02*
Y1063680D01*
X124238Y706040D02*
X125776Y707579D01*
X121999Y706040D02*
Y1490000D01*
X131040Y683960D02*
Y699238D01*
Y685998D02*
X393466D01*
X131040Y697998D02*
X392669D01*
X127999Y708841D02*
Y1490000D01*
X129178Y708987D02*
X391881D01*
X211999Y10000D02*
Y699367D01*
X241999Y10000D02*
Y699367D01*
X235999Y10000D02*
Y699367D01*
X217999Y101369D02*
Y699367D01*
X229999Y101491D02*
Y699367D01*
X223999Y103203D02*
Y699367D01*
X271999Y10000D02*
Y699367D01*
X283999Y10000D02*
Y699367D01*
X277999Y10000D02*
Y699367D01*
X253999Y10000D02*
Y699367D01*
X247999Y10000D02*
Y699367D01*
X265999Y10000D02*
Y699367D01*
X259999Y10000D02*
Y699367D01*
X151999Y10000D02*
Y699367D01*
X163999Y10000D02*
Y699367D01*
X157999Y10000D02*
Y699367D01*
X133999Y10000D02*
Y699367D01*
X145999Y10000D02*
Y699367D01*
X139999Y10000D02*
Y699367D01*
X193999Y10000D02*
Y699367D01*
X205999Y10000D02*
Y699367D01*
X199999Y10000D02*
Y699367D01*
X175999Y10000D02*
Y699367D01*
X169999Y10000D02*
Y699367D01*
X187999Y10000D02*
Y699367D01*
X181999Y10000D02*
Y699367D01*
X289999Y10000D02*
Y699367D01*
X319999Y113446D02*
Y699367D01*
X313999Y10000D02*
Y699367D01*
X325999Y118052D02*
Y699367D01*
X337999Y119466D02*
Y699367D01*
X331999Y119777D02*
Y699367D01*
X391999Y111094D02*
Y622931D01*
X403999Y113027D02*
Y617155D01*
X397999Y79810D02*
Y617619D01*
X409999Y117878D02*
Y620564D01*
X295999Y10000D02*
Y699367D01*
X307999Y10000D02*
Y699367D01*
X301999Y10000D02*
Y699367D01*
X343999Y116995D02*
Y699367D01*
X355999Y75877D02*
Y699367D01*
X349999Y110804D02*
Y699367D01*
X361999Y113240D02*
Y699367D01*
X385999Y117106D02*
Y699367D01*
X367999Y117966D02*
Y699367D01*
X379999Y119503D02*
Y699367D01*
X373999Y119757D02*
Y699367D01*
X421999Y119538D02*
Y750167D01*
X415999Y119735D02*
Y750167D01*
X151999Y708987D02*
Y1490000D01*
X169999Y708987D02*
Y1490000D01*
X163999Y708987D02*
Y1490000D01*
X133999Y708987D02*
Y1490000D01*
X145999Y708987D02*
Y1490000D01*
X139999Y708987D02*
Y1490000D01*
X217999Y708987D02*
Y850724D01*
X229999Y708987D02*
Y850724D01*
X223999Y708987D02*
Y850724D01*
X181999Y708987D02*
Y1490000D01*
X175999Y708987D02*
Y1490000D01*
X193999Y708987D02*
Y1490000D01*
X187999Y708987D02*
Y1490000D01*
X211999Y708987D02*
Y1490000D01*
X241999Y708987D02*
Y1490000D01*
X235999Y708987D02*
Y1490000D01*
X157999Y708987D02*
Y1490000D01*
X205999Y708987D02*
Y1490000D01*
X199999Y708987D02*
Y1490000D01*
X271999Y708987D02*
Y1490000D01*
X283999Y708987D02*
Y1490000D01*
X277999Y708987D02*
Y1490000D01*
X253999Y708987D02*
Y1490000D01*
X247999Y708987D02*
Y1490000D01*
X265999Y708987D02*
Y1490000D01*
X259999Y708987D02*
Y1490000D01*
X391999Y633024D02*
Y648331D01*
X397999Y638336D02*
Y643019D01*
X391999Y658424D02*
Y673731D01*
X397999Y663736D02*
Y668419D01*
X409999Y635391D02*
Y645964D01*
X403999Y638800D02*
Y642555D01*
Y664200D02*
Y667955D01*
X409999Y660791D02*
Y671364D01*
X403999Y689600D02*
Y693355D01*
X289999Y708987D02*
Y1490000D01*
X131170Y699367D02*
X391881D01*
X295999Y708987D02*
Y1490000D01*
X301999Y708987D02*
Y1490000D01*
X313999Y708987D02*
Y1490000D01*
X307999Y708987D02*
Y1490000D01*
X391999Y683824D02*
Y699131D01*
X397999Y689136D02*
Y693819D01*
X409999Y686191D02*
Y696764D01*
X367999Y708987D02*
Y1243736D01*
X361999Y708987D02*
Y1490000D01*
X427999Y10000D02*
Y31264D01*
X433999Y57147D02*
Y70190D01*
X427999Y62988D02*
Y70190D01*
X363916D02*
X442500D01*
X361924Y79810D02*
X440508D01*
X433999Y10000D02*
Y37105D01*
X439999Y10000D02*
Y70190D01*
X451999Y10000D02*
Y77696D01*
X445999Y10000D02*
Y71696D01*
X433999Y79810D02*
Y91330D01*
X100000Y79999D02*
X440697D01*
X428795Y85999D02*
X446697D01*
X434409Y91999D02*
X452697D01*
X436634Y97999D02*
X458697D01*
X481998Y10000D02*
Y107696D01*
X487999Y10000D02*
Y113696D01*
X493998Y10000D02*
Y119696D01*
X457999Y10000D02*
Y83696D01*
X463999Y10000D02*
Y89696D01*
X469999Y10000D02*
Y95696D01*
X475998Y10000D02*
Y101696D01*
X100000Y20000D02*
X1400000D01*
X100000Y10000D02*
X1400000D01*
X100000Y14000D02*
X1400000D01*
X429120Y31999D02*
X699252D01*
X100000Y25999D02*
X1400000D01*
X361726Y67999D02*
X1066197D01*
X436716Y49999D02*
X690595D01*
X434538Y37999D02*
X693244D01*
X436674Y43999D02*
X690847D01*
X434679Y55999D02*
X692386D01*
X429468Y61999D02*
X697115D01*
X448302Y73999D02*
X1072197D01*
X454302Y79999D02*
X1164290D01*
X499999Y10000D02*
Y125696D01*
X445901Y71599D02*
X600901Y226599D01*
X440508Y79810D02*
X592690Y231992D01*
X472302Y97999D02*
X690897D01*
X460302Y85999D02*
X699635D01*
X466302Y91999D02*
X693389D01*
X529998Y10000D02*
Y155696D01*
X535998Y10000D02*
Y161696D01*
X541998Y10000D02*
Y167696D01*
X505998Y10000D02*
Y131696D01*
X511998Y10000D02*
Y137696D01*
X517999Y10000D02*
Y143696D01*
X523998Y10000D02*
Y149696D01*
X10000Y121999D02*
X482697D01*
X80727Y127999D02*
X488697D01*
X86220Y133999D02*
X494697D01*
X88584Y139999D02*
X500697D01*
X87481Y151999D02*
X512697D01*
X83580Y157999D02*
X518697D01*
X436750Y103999D02*
X464697D01*
X434799Y109999D02*
X470697D01*
X429765Y115999D02*
X476697D01*
X88964Y145999D02*
X506697D01*
X129100Y163999D02*
X524697D01*
X131037Y169999D02*
X530697D01*
X10000Y181999D02*
X542697D01*
X10000Y211999D02*
X572697D01*
X10000Y217999D02*
X578697D01*
X10000Y223999D02*
X584697D01*
X10000Y289999D02*
X592690D01*
X10000Y325999D02*
X592690D01*
X129425Y175999D02*
X536697D01*
X131040Y187999D02*
X548697D01*
X131040Y193999D02*
X554697D01*
X131040Y199999D02*
X560697D01*
X131040Y205999D02*
X566697D01*
X80726Y229999D02*
X590697D01*
X10000Y277999D02*
X592690D01*
X478302Y103999D02*
X690568D01*
X484302Y109999D02*
X692274D01*
X490302Y115999D02*
X696845D01*
X88584Y241999D02*
X592690D01*
X496302Y121999D02*
X1167690D01*
X86220Y235999D02*
X592690D01*
X514302Y139999D02*
X1167690D01*
X502302Y127999D02*
X1167690D01*
X508302Y133999D02*
X1167690D01*
X532302Y157999D02*
X1167690D01*
X538302Y163999D02*
X1167690D01*
X520302Y145999D02*
X1167690D01*
X526302Y151999D02*
X1167690D01*
X10000Y313999D02*
X592690D01*
X10000Y301999D02*
X592690D01*
X10000Y307999D02*
X592690D01*
X10000Y337999D02*
X592690D01*
X10000Y319999D02*
X592690D01*
X10000Y331999D02*
X592690D01*
X83580Y259999D02*
X592690D01*
X88964Y247999D02*
X592690D01*
X87481Y253999D02*
X592690D01*
X10000Y283999D02*
X592690D01*
X10000Y295999D02*
X592690D01*
X72403Y265999D02*
X592690D01*
X10000Y271999D02*
X592690D01*
X547998Y10000D02*
Y173696D01*
X553998Y10000D02*
Y179696D01*
X559998Y10000D02*
Y185696D01*
X691998Y55164D02*
Y94606D01*
X697998Y10000D02*
Y32847D01*
X691998Y10000D02*
Y40376D01*
X703998Y10000D02*
Y29918D01*
X709998Y10000D02*
Y29257D01*
X715998Y10000D02*
Y30601D01*
X703998Y65623D02*
Y84148D01*
X697998Y62693D02*
Y87077D01*
X709998Y66283D02*
Y83487D01*
X715998Y64939D02*
Y84831D01*
X583998Y10000D02*
Y209696D01*
X589998Y10000D02*
Y215696D01*
X595998Y10000D02*
Y221696D01*
X565998Y10000D02*
Y191696D01*
X571998Y10000D02*
Y197696D01*
X577998Y10000D02*
Y203696D01*
X601998Y10000D02*
Y228297D01*
X655998Y10000D02*
Y260620D01*
X649998Y10000D02*
Y260620D01*
X661998Y10000D02*
Y260620D01*
X679998Y10000D02*
Y286739D01*
X685998Y10000D02*
Y286332D01*
X691998Y109394D02*
Y291222D01*
X721998Y10000D02*
Y34550D01*
X718748Y31999D02*
X741252D01*
X725614Y55999D02*
X734387D01*
X724756Y37999D02*
X735244D01*
X720885Y61999D02*
X739115D01*
X733998Y10000D02*
Y40377D01*
X751998Y10000D02*
Y29257D01*
X739998Y10000D02*
Y32847D01*
X727153Y43999D02*
X732848D01*
X727405Y49999D02*
X732595D01*
X745998Y10000D02*
Y29918D01*
X721998Y60991D02*
Y88779D01*
X718365Y85999D02*
X741635D01*
X725726Y109999D02*
X734275D01*
X724612Y91999D02*
X735389D01*
X721155Y115999D02*
X738845D01*
X733998Y55163D02*
Y94607D01*
X745998Y65623D02*
Y84148D01*
X739998Y62693D02*
Y87077D01*
X727103Y97999D02*
X732897D01*
X727432Y103999D02*
X732568D01*
X751998Y66283D02*
Y83487D01*
X648820Y260620D02*
X667580D01*
X602310Y277999D02*
X648820D01*
X602310Y265999D02*
X648820D01*
X602310Y271999D02*
X648820D01*
X703998Y119853D02*
Y262065D01*
X709998Y120513D02*
Y260673D01*
X715998Y119169D02*
Y263754D01*
X667580Y271999D02*
X699836D01*
X667580Y260620D02*
Y279380D01*
Y265999D02*
X700516D01*
X667580Y277999D02*
X704101D01*
X648820Y260620D02*
Y279380D01*
X602310Y289999D02*
X675931D01*
X602310Y295999D02*
X674239D01*
X602310Y301999D02*
X676934D01*
X602310Y325999D02*
X886805D01*
X602310Y331999D02*
X886805D01*
X648820Y279380D02*
X667580D01*
X556301Y181999D02*
X1167690D01*
X544301Y169999D02*
X1167690D01*
X550302Y175999D02*
X1167690D01*
X574301Y199999D02*
X886805D01*
X562301Y187999D02*
X1167690D01*
X568302Y193999D02*
X886805D01*
X580302Y205999D02*
X886805D01*
X586301Y211999D02*
X1110641D01*
X592301Y217999D02*
X886805D01*
X598301Y223999D02*
X886805D01*
X602310Y229999D02*
X886805D01*
X602310Y235999D02*
X1086641D01*
X602310Y241999D02*
X886805D01*
X602310Y259999D02*
X886805D01*
X602310Y247999D02*
X886805D01*
X602310Y253999D02*
X886805D01*
X602310Y283999D02*
X886805D01*
X602310Y313999D02*
X1052690D01*
X602310Y319999D02*
X886805D01*
X713899Y277999D02*
X886805D01*
X717484Y265999D02*
X886805D01*
X718165Y271999D02*
X886805D01*
X690266Y301999D02*
X886805D01*
X602310Y307999D02*
X886805D01*
X691269Y289999D02*
X1052690D01*
X692961Y295999D02*
X886805D01*
X505998Y145301D02*
Y750167D01*
X517999Y157301D02*
Y750167D01*
X511998Y151301D02*
Y750167D01*
X523998Y163301D02*
Y750167D01*
X535998Y175301D02*
Y750167D01*
X529998Y169301D02*
Y750167D01*
X541998Y181301D02*
Y750167D01*
X553998Y193301D02*
Y750167D01*
X547998Y187301D02*
Y750167D01*
X565998Y205301D02*
Y750167D01*
X559998Y199301D02*
Y750167D01*
X577998Y217301D02*
Y750167D01*
X571998Y211301D02*
Y750167D01*
X439999Y79810D02*
Y750167D01*
X451999Y91301D02*
Y750167D01*
X445999Y85301D02*
Y750167D01*
X427999Y117213D02*
Y750167D01*
X457999Y97301D02*
Y750167D01*
X433999Y111372D02*
Y750167D01*
X463999Y103301D02*
Y750167D01*
X475998Y115301D02*
Y750167D01*
X469999Y109301D02*
Y750167D01*
X487999Y127301D02*
Y750167D01*
X481998Y121301D02*
Y750167D01*
X499999Y139301D02*
Y750167D01*
X493998Y133301D02*
Y750167D01*
X592690Y231992D02*
Y342500D01*
X10000Y343999D02*
X592929D01*
X10000Y349999D02*
X598196D01*
X10000Y355999D02*
X604196D01*
X10000Y361999D02*
X610196D01*
X602310Y230000D02*
Y340508D01*
X607998Y10000D02*
Y346196D01*
X613998Y10000D02*
Y352196D01*
X605801Y343999D02*
X886805D01*
X602310Y337999D02*
X1052690D01*
X611801Y349999D02*
X886805D01*
X583998Y223301D02*
Y750167D01*
X10000Y367999D02*
X616196D01*
X70246Y373999D02*
X622196D01*
X83338Y379999D02*
X628196D01*
X87373Y385999D02*
X634196D01*
X88940Y391999D02*
X640196D01*
X589998Y229301D02*
Y750167D01*
X602310Y340508D02*
X696992Y435190D01*
X594099Y345901D02*
X691599Y443401D01*
X601998Y353801D02*
Y750167D01*
X595998Y347801D02*
Y750167D01*
X613998Y365801D02*
Y750167D01*
X607998Y359801D02*
Y750167D01*
X88637Y397999D02*
X646196D01*
X86368Y403999D02*
X652196D01*
X124675Y409999D02*
X658196D01*
X10000Y535998D02*
X739480D01*
X10000Y457999D02*
X740060D01*
X10000Y529998D02*
X739480D01*
X130289Y415999D02*
X664196D01*
X130858Y421999D02*
X670196D01*
X127609Y427999D02*
X676196D01*
X131040Y433999D02*
X682196D01*
X131040Y439999D02*
X688196D01*
X131040Y445999D02*
X740060D01*
X131040Y451999D02*
X740060D01*
X10000Y553998D02*
X739480D01*
X10000Y541998D02*
X739480D01*
X10000Y547998D02*
X739480D01*
X10000Y559998D02*
X739480D01*
X10000Y595998D02*
X742710D01*
X10000Y601998D02*
X742710D01*
X412328Y649998D02*
X739480D01*
X10000Y607998D02*
X742710D01*
X407641Y643998D02*
X739480D01*
X408714Y661998D02*
X739480D01*
X404203Y667998D02*
X739480D01*
X411770Y673998D02*
X739480D01*
X412856Y703998D02*
X742710D01*
X10000Y517999D02*
X745290D01*
X10000Y463999D02*
X745290D01*
X10000Y469999D02*
X745290D01*
X10000Y571998D02*
X745210D01*
X10000Y523998D02*
X745290D01*
X10000Y565998D02*
X745210D01*
X87373Y487999D02*
X742960D01*
X70243Y475998D02*
X745290D01*
X83337Y481998D02*
X745290D01*
X88940Y493998D02*
X742960D01*
X88637Y499999D02*
X742960D01*
X86368Y505998D02*
X745290D01*
X81069Y511998D02*
X745290D01*
X10000Y589998D02*
X745210D01*
X10000Y577998D02*
X745210D01*
X10000Y583998D02*
X745210D01*
X10000Y613998D02*
X745040D01*
X406451Y637998D02*
X745040D01*
X131040Y691998D02*
X745210D01*
X412100Y631998D02*
X745040D01*
X409448Y619998D02*
X745040D01*
X412679Y625998D02*
X745040D01*
X410169Y685998D02*
X745210D01*
X410966Y697998D02*
X745210D01*
X412542Y655998D02*
X1052690D01*
X412790Y679998D02*
X745210D01*
X619998Y10000D02*
Y358196D01*
X625998Y10000D02*
Y364196D01*
X631998Y10000D02*
Y370196D01*
X637998Y10000D02*
Y376196D01*
X643998Y10000D02*
Y382196D01*
X649998Y279380D02*
Y388196D01*
X661998Y279380D02*
Y400196D01*
X667998Y10000D02*
Y406196D01*
X673998Y10000D02*
Y412196D01*
X655998Y279380D02*
Y394196D01*
X679998Y304061D02*
Y418196D01*
X685998Y304468D02*
Y424196D01*
X691998Y299578D02*
Y430196D01*
X619998Y371801D02*
Y750167D01*
X631998Y383801D02*
Y750167D01*
X625998Y377801D02*
Y750167D01*
X637998Y389801D02*
Y750167D01*
X649998Y401801D02*
Y750167D01*
X643998Y395801D02*
Y750167D01*
X655998Y407801D02*
Y750167D01*
X697998Y116923D02*
Y435190D01*
X661998Y413801D02*
Y750167D01*
X673998Y425801D02*
Y750167D01*
X667998Y419800D02*
Y750167D01*
X685998Y437800D02*
Y750167D01*
X679998Y431800D02*
Y750167D01*
X629801Y367999D02*
X886805D01*
X617801Y355999D02*
X886805D01*
X623801Y361999D02*
X886805D01*
X647801Y385999D02*
X886805D01*
X635801Y373999D02*
X886805D01*
X641801Y379999D02*
X886805D01*
X745998Y119853D02*
Y422380D01*
X653801Y391999D02*
X1052690D01*
X659801Y397999D02*
X1052690D01*
X677801Y415999D02*
X1052690D01*
X683801Y421999D02*
X1052690D01*
X665801Y403999D02*
X1052690D01*
X671801Y409999D02*
X1052690D01*
X703998Y277935D02*
Y435190D01*
X715998Y276246D02*
Y435190D01*
X709998Y279327D02*
Y435190D01*
X696992D02*
X740060D01*
X689801Y427999D02*
X740060D01*
X695801Y433999D02*
X740060D01*
X721998Y115221D02*
Y435190D01*
X733998Y109393D02*
Y435190D01*
X727998Y10000D02*
Y435190D01*
X740060Y422380D02*
Y435190D01*
X739998Y116923D02*
Y435190D01*
X740060Y422380D02*
X760140D01*
X751998Y120513D02*
Y422380D01*
X695000Y444810D02*
X740060D01*
X739480Y528210D02*
Y545790D01*
Y546710D02*
Y564290D01*
Y638210D02*
X745040D01*
X739998Y444810D02*
Y528210D01*
X740060Y444810D02*
Y461960D01*
X742960Y487790D02*
Y503670D01*
X742710Y593040D02*
Y608920D01*
X745040D02*
Y638210D01*
X739480Y564290D02*
X745210D01*
X742710Y608920D02*
X745040D01*
X691998Y443758D02*
Y750167D01*
X703998Y444810D02*
Y750167D01*
X697998Y444810D02*
Y750167D01*
X709998Y444810D02*
Y750167D01*
X721998Y444810D02*
Y750167D01*
X715998Y444810D02*
Y750167D01*
X727998Y444810D02*
Y747740D01*
X739998Y564290D02*
Y638210D01*
X733998Y444810D02*
Y741740D01*
X739480Y638210D02*
Y655790D01*
Y656710D02*
Y674290D01*
X742710Y703790D02*
Y719670D01*
X739998Y674290D02*
Y735740D01*
X739480Y528210D02*
X745290D01*
X740060Y461960D02*
X745290D01*
X742960Y487790D02*
X745290D01*
X742710Y593040D02*
X745210D01*
X739480Y545790D02*
X760560D01*
X739480Y546710D02*
X760560D01*
X742960Y503670D02*
X745290D01*
Y461960D02*
Y487790D01*
Y503670D02*
Y528210D01*
X745210Y564290D02*
Y593040D01*
X754660Y608920D02*
X756510D01*
X754830Y583998D02*
X1052690D01*
X754660Y613998D02*
X1052690D01*
X739480Y656710D02*
X760560D01*
X754660Y637998D02*
X1052690D01*
X739480Y655790D02*
X760560D01*
X742710Y703790D02*
X745210D01*
X739480Y674290D02*
X745210D01*
Y703790D01*
X754660Y608920D02*
Y638210D01*
Y619998D02*
X1052690D01*
X754660Y625998D02*
X1052690D01*
X754660Y638210D02*
X760560D01*
X754830Y703790D02*
X756510D01*
X754660Y631998D02*
X1052690D01*
X754830Y679998D02*
X1052690D01*
X10000Y739998D02*
X49880D01*
X10000Y727998D02*
X60195D01*
X10000Y733998D02*
X52951D01*
X10000Y745998D02*
X48960D01*
X10000Y751998D02*
X49879D01*
X10000Y757998D02*
X52948D01*
X10000Y763998D02*
X60187D01*
X67999Y766015D02*
Y969902D01*
X61999Y764777D02*
Y974276D01*
X10000Y979997D02*
X57363D01*
X10000Y967998D02*
X72300D01*
X10000Y973997D02*
X62297D01*
X10000Y991998D02*
X53282D01*
X10000Y985997D02*
X54571D01*
X10000Y997998D02*
X53291D01*
X10000Y1003997D02*
X54599D01*
X10000Y1009997D02*
X57414D01*
X10000Y1015997D02*
X62387D01*
X49999Y752370D02*
Y1065531D01*
X55999Y761251D02*
Y982481D01*
Y1007431D02*
Y1063683D01*
X61999Y1015636D02*
Y1065203D01*
X10000Y1021997D02*
X72542D01*
X10000Y1057997D02*
X71688D01*
X10000Y817998D02*
X375190D01*
X10000Y805998D02*
X375190D01*
X10000Y811998D02*
X375190D01*
X10000Y823998D02*
X375429D01*
X10000Y829998D02*
X380695D01*
X10000Y835998D02*
X391886D01*
X10000Y769998D02*
X375190D01*
X10000Y775998D02*
X375190D01*
X10000Y793998D02*
X375190D01*
X10000Y799998D02*
X375190D01*
X10000Y781998D02*
X375190D01*
X10000Y787998D02*
X375190D01*
X10000Y859998D02*
X213053D01*
X10000Y847998D02*
X390778D01*
X10000Y853998D02*
X213053D01*
X10000Y865998D02*
X213053D01*
X10000Y871998D02*
X213053D01*
X10000Y877998D02*
X217940D01*
X73999Y765406D02*
Y967466D01*
X10000Y883998D02*
X213517D01*
X10000Y889998D02*
X213423D01*
X10000Y895998D02*
X217472D01*
X10000Y1075997D02*
X44755D01*
X10000Y1063997D02*
X53581D01*
X10000Y1069997D02*
X45978D01*
X10000Y1093997D02*
X45475D01*
X10000Y1081997D02*
X46928D01*
X10000Y1087997D02*
X50655D01*
X49999Y1084909D02*
Y1088391D01*
X61999Y1085236D02*
Y1088064D01*
X10000Y1099997D02*
X44889D01*
X10000Y1105997D02*
X47873D01*
X10000Y1117997D02*
X45110D01*
X10000Y1111997D02*
X48975D01*
X10000Y1123997D02*
X45141D01*
X10000Y1147997D02*
X45519D01*
X10000Y1129997D02*
X49118D01*
X10000Y1135997D02*
X47766D01*
X49999Y1107768D02*
Y1111251D01*
X61999Y1108096D02*
Y1110923D01*
X49999Y1130629D02*
Y1134111D01*
X10000Y1141997D02*
X44870D01*
X61999Y1130956D02*
Y1133783D01*
X58957Y1063997D02*
X70130D01*
X65609Y1081997D02*
X71108D01*
X61882Y1087997D02*
X70208D01*
X64664Y1105997D02*
X70676D01*
X63562Y1111997D02*
X70400D01*
X66559Y1069997D02*
X71940D01*
X73999Y1072413D02*
Y1078027D01*
X67062Y1093997D02*
X72770D01*
X73999Y1095273D02*
Y1100887D01*
X67782Y1075997D02*
X77231D01*
X67648Y1099997D02*
X75136D01*
X63420Y1129997D02*
X70375D01*
X61671Y1153997D02*
X70195D01*
X64771Y1135997D02*
X70714D01*
X67018Y1147997D02*
X72676D01*
X67427Y1117997D02*
X73850D01*
X73999Y1118133D02*
Y1123747D01*
X67396Y1123997D02*
X73727D01*
X73999Y1140993D02*
Y1146607D01*
X67667Y1141997D02*
X75306D01*
X213053Y850724D02*
Y872804D01*
X77813Y763998D02*
X375190D01*
X213053Y850724D02*
X235133D01*
X213053Y872804D02*
X235133D01*
X375190Y762500D02*
Y822500D01*
X79999Y762752D02*
Y966465D01*
X85999Y756612D02*
Y966746D01*
X217999Y872804D02*
Y877958D01*
X235133Y850724D02*
Y872804D01*
X223999D02*
Y876124D01*
X229999Y872804D02*
Y877836D01*
X379999Y708987D02*
Y755699D01*
X77805Y727998D02*
X390891D01*
X85049Y733998D02*
X391702D01*
X85051Y757998D02*
X377700D01*
X88121Y751998D02*
X383700D01*
X376599Y759099D02*
X384121Y751576D01*
X385999Y708987D02*
Y750415D01*
X384810Y764492D02*
X389515Y759787D01*
X384810Y775998D02*
X391684D01*
X387523Y750167D02*
X391881D01*
X389515Y759787D02*
X391881D01*
X376599Y825901D02*
X385276Y834579D01*
X384810Y805998D02*
X390780D01*
X384810Y820508D02*
X390670Y826367D01*
X235133Y865998D02*
X390778D01*
X235133Y853998D02*
X390778D01*
X235133Y859998D02*
X390778D01*
X384810Y764492D02*
Y820508D01*
Y781998D02*
X390897D01*
X385999Y763304D02*
Y821696D01*
X388677Y835987D02*
X391881D01*
X390778Y845537D02*
Y867617D01*
X73999Y1022446D02*
Y1055167D01*
X79999Y1023447D02*
Y1052371D01*
X85999Y1023166D02*
Y1053093D01*
X86106Y1075997D02*
X95529D01*
X91999Y1021561D02*
Y1058647D01*
X93207Y1063997D02*
X95529D01*
Y1063680D02*
Y1086760D01*
X91397Y1069997D02*
X95529D01*
X91999Y1068933D02*
Y1081507D01*
X92229Y1081997D02*
X95529D01*
X90567Y1093997D02*
X96275D01*
X88032Y1141997D02*
X95670D01*
X91999Y1091793D02*
Y1104367D01*
X88202Y1099997D02*
X95689D01*
X91999Y1114653D02*
Y1127227D01*
X89488Y1117997D02*
X95910D01*
X91999Y1137513D02*
Y1150087D01*
X89610Y1123997D02*
X95941D01*
X90661Y1147997D02*
X96319D01*
X95529Y1086760D02*
X104826D01*
X95529Y1063680D02*
X118609D01*
X97999Y1086760D02*
Y1090944D01*
X93130Y1087997D02*
X101455D01*
X92661Y1105997D02*
X98673D01*
X97999Y1018362D02*
Y1063680D01*
X109999Y998406D02*
Y1063680D01*
X103999Y1012729D02*
Y1063680D01*
X118609D02*
Y1086760D01*
X115999D02*
Y1090771D01*
X109311Y1086760D02*
X118609D01*
X92937Y1111997D02*
X99775D01*
X97999Y1128076D02*
Y1136664D01*
X92962Y1129997D02*
X99918D01*
X92624Y1135997D02*
X98566D01*
X97999Y1105216D02*
Y1113804D01*
X115999Y1105388D02*
Y1113631D01*
Y1128249D02*
Y1136491D01*
X10000Y1159997D02*
X46846D01*
X10000Y1153997D02*
X50866D01*
X10000Y1165997D02*
X44748D01*
X10000Y1171997D02*
X46037D01*
X10000Y1177997D02*
X54114D01*
X49999Y1153488D02*
Y1156971D01*
X61999Y1153816D02*
Y1156644D01*
X49999Y1176348D02*
Y1179831D01*
X61999Y1176676D02*
Y1179503D01*
X10000Y1189997D02*
X44738D01*
X10000Y1183997D02*
X46136D01*
X10000Y1195997D02*
X46718D01*
X10000Y1213997D02*
X44843D01*
X10000Y1201997D02*
X51232D01*
X10000Y1207997D02*
X45593D01*
X49999Y1199209D02*
Y1202691D01*
X61999Y1199536D02*
Y1202364D01*
X65691Y1159997D02*
X71159D01*
X67790Y1165997D02*
X77517D01*
X58423Y1177997D02*
X70129D01*
X66500Y1171997D02*
X71868D01*
X66401Y1183997D02*
X71755D01*
X73999Y1163853D02*
Y1169467D01*
X67799Y1189997D02*
X78034D01*
X67999Y1020010D02*
Y1303150D01*
X65819Y1195997D02*
X71245D01*
X61305Y1201997D02*
X70176D01*
X66944Y1207997D02*
X72530D01*
X67695Y1213997D02*
X75596D01*
X73999Y1186713D02*
Y1192327D01*
Y1209573D02*
Y1215187D01*
X10000Y1231997D02*
X45194D01*
X10000Y1219997D02*
X47600D01*
X10000Y1225997D02*
X49359D01*
X10000Y1237997D02*
X45063D01*
X10000Y1243997D02*
X48753D01*
X10000Y1303997D02*
X66551D01*
X49999Y1222068D02*
Y1225551D01*
X61999Y1222396D02*
Y1225223D01*
Y1245256D02*
Y1307524D01*
X63178Y1225997D02*
X70338D01*
X63784Y1243997D02*
X70442D01*
X10000Y1321997D02*
X53812D01*
X10000Y1309997D02*
X59691D01*
X10000Y1315997D02*
X55871D01*
X10000Y1327997D02*
X53129D01*
X10000Y1333997D02*
X53723D01*
X10000Y1339997D02*
X55679D01*
X49999Y1244929D02*
Y1400000D01*
X55999Y1246777D02*
Y1315729D01*
Y1340679D02*
Y1400000D01*
X10000Y1345997D02*
X59354D01*
X61999Y1348884D02*
Y1400000D01*
X10000Y1351997D02*
X65907D01*
X67999Y1353258D02*
Y1400000D01*
X10000Y1249997D02*
X70619D01*
X10000Y1255997D02*
X74873D01*
X10000Y1261997D02*
X96207D01*
X10000Y1267997D02*
X101134D01*
X10000Y1273997D02*
X390795D01*
X10000Y1279997D02*
X391611D01*
X64938Y1219997D02*
X70777D01*
X67344Y1231997D02*
X73536D01*
X67474Y1237997D02*
X74056D01*
X73999Y1232433D02*
Y1238047D01*
X79999Y1258089D02*
Y1299713D01*
X10000Y1363997D02*
X369088D01*
X10000Y1369997D02*
X364741D01*
X10000Y1400000D02*
X100000D01*
X10000Y1375997D02*
X364684D01*
X10000Y1381997D02*
X368802D01*
X73999Y1255293D02*
Y1300714D01*
X79999Y1356695D02*
Y1400000D01*
X73999Y1355694D02*
Y1400000D01*
X91999Y1160373D02*
Y1172947D01*
X85821Y1165997D02*
X95548D01*
X85303Y1189997D02*
X95539D01*
X91469Y1171997D02*
X96837D01*
X91582Y1183997D02*
X96936D01*
X97999Y1150936D02*
Y1159524D01*
X93143Y1153997D02*
X101666D01*
X92178Y1159997D02*
X97646D01*
X97999Y1173796D02*
Y1182384D01*
X93208Y1177997D02*
X104915D01*
X91999Y1183233D02*
Y1195807D01*
X92092Y1195997D02*
X97518D01*
X91999Y1206093D02*
Y1218667D01*
X87741Y1213997D02*
X95642D01*
X90807Y1207997D02*
X96393D01*
X92561Y1219997D02*
X98400D01*
X97999Y1196656D02*
Y1205244D01*
X115999Y1196829D02*
Y1205071D01*
X93161Y1201997D02*
X102032D01*
X97999Y1219516D02*
Y1228104D01*
X115999Y1151108D02*
Y1159351D01*
Y1173969D02*
Y1182211D01*
Y1219688D02*
Y1227931D01*
X115738Y1219997D02*
X390620D01*
Y1215620D02*
Y1234380D01*
X319999Y708987D02*
Y1490000D01*
X331999Y708987D02*
Y1490000D01*
X325999Y708987D02*
Y1490000D01*
X217999Y896369D02*
Y1490000D01*
X229999Y896491D02*
Y1490000D01*
X223999Y898203D02*
Y1490000D01*
X337999Y708987D02*
Y1490000D01*
X349999Y708987D02*
Y1490000D01*
X343999Y708987D02*
Y1490000D01*
X373999Y708987D02*
Y1241039D01*
X355999Y708987D02*
Y1490000D01*
X379999Y829301D02*
Y1242729D01*
X385999Y835173D02*
Y1370235D01*
X91999Y1228953D02*
Y1241527D01*
X89802Y1231997D02*
X95994D01*
X88464Y1255997D02*
X95722D01*
X89281Y1237997D02*
X95863D01*
X92719Y1249997D02*
X98852D01*
X97999Y1242376D02*
Y1250964D01*
X92999Y1225997D02*
X100159D01*
X92895Y1243997D02*
X99553D01*
X115999Y1242549D02*
Y1250791D01*
X115285Y1249997D02*
X365229D01*
X85999Y1257366D02*
Y1299994D01*
X91999Y1251813D02*
Y1301599D01*
X85999Y1356414D02*
Y1400000D01*
X97999Y1265236D02*
Y1304798D01*
X91999Y1354809D02*
Y1400000D01*
X103999Y1269224D02*
Y1310431D01*
X109999Y1269262D02*
Y1324754D01*
X115999Y1265408D02*
Y1490000D01*
X97999Y1351610D02*
Y1400000D01*
X100000D02*
Y1490000D01*
X109999Y1331654D02*
Y1490000D01*
X103999Y1345977D02*
Y1490000D01*
X113978Y1225997D02*
X390620D01*
X118144Y1231997D02*
X390620D01*
X118415Y1255997D02*
X367073D01*
X114584Y1243997D02*
X367745D01*
X373999Y1259761D02*
Y1362140D01*
X367999Y1257064D02*
Y1364850D01*
X379999Y1258071D02*
Y1363091D01*
X381585Y1363997D02*
X389696D01*
X367999Y1381347D02*
Y1490000D01*
X373999Y1384057D02*
Y1490000D01*
X385932Y1369997D02*
X389696D01*
Y1362058D02*
Y1384138D01*
X385999Y1375961D02*
Y1490000D01*
X379999Y1383105D02*
Y1490000D01*
X385989Y1375997D02*
X389696D01*
X381871Y1381997D02*
X389696D01*
X10000Y709998D02*
X392437D01*
X10000Y721998D02*
X393791D01*
X88120Y739998D02*
X398172D01*
X89040Y745998D02*
X395395D01*
X385304Y763998D02*
X395453D01*
X384810Y769998D02*
X398056D01*
X391999Y709224D02*
Y724531D01*
X397999Y714536D02*
Y719219D01*
X391999Y734624D02*
Y749931D01*
X397999Y739936D02*
Y744619D01*
X403999Y765800D02*
Y769555D01*
X397999Y765336D02*
Y770019D01*
X391999Y785424D02*
Y800731D01*
X384810Y787998D02*
X393830D01*
X384810Y799998D02*
X392411D01*
X384810Y811998D02*
X392697D01*
X388300Y823998D02*
X393431D01*
X10000Y841998D02*
X399627D01*
X391999Y760024D02*
Y775331D01*
X397999Y790736D02*
Y795419D01*
X391999Y810824D02*
Y826131D01*
X397999Y816136D02*
Y820819D01*
X391999Y836224D02*
Y845537D01*
X403999Y816600D02*
Y820355D01*
X397999Y841536D02*
Y845537D01*
X10000Y715998D02*
X742710D01*
X384810Y793998D02*
X1104465D01*
X403999Y715000D02*
Y718755D01*
X405464Y739998D02*
X735740D01*
X403999Y740400D02*
Y744155D01*
X408241Y745998D02*
X729740D01*
X403999Y791200D02*
Y794955D01*
X408183Y763998D02*
X1379236D01*
X405579Y769998D02*
X1103359D01*
X235133Y871998D02*
X410436D01*
X384810Y817998D02*
X1106042D01*
X230247Y877998D02*
X416436D01*
X234670Y883998D02*
X422436D01*
X234763Y889998D02*
X425190D01*
X404009Y841998D02*
X1108625D01*
X403999Y842000D02*
Y845537D01*
X390778Y867617D02*
X406055D01*
X390778Y845537D02*
X412858D01*
X406055Y867617D02*
X425190Y886752D01*
X112682Y1087997D02*
X425190D01*
X10000Y1051997D02*
X425190D01*
X91650Y1057997D02*
X425190D01*
X114362Y1111997D02*
X425190D01*
X117862Y1093997D02*
X425190D01*
X115464Y1105997D02*
X425190D01*
X118609Y1075997D02*
X425190D01*
X118609Y1063997D02*
X425190D01*
X118609Y1069997D02*
X425190D01*
X118227Y1117997D02*
X425190D01*
X118196Y1123997D02*
X425190D01*
X118609Y1081997D02*
X425190D01*
X118448Y1099997D02*
X425190D01*
X112471Y1153997D02*
X425190D01*
X114220Y1129997D02*
X425190D01*
X115571Y1135997D02*
X425190D01*
X112105Y1201997D02*
X425190D01*
X116491Y1159997D02*
X425190D01*
X109223Y1177997D02*
X425190D01*
X118590Y1165997D02*
X425190D01*
X118467Y1141997D02*
X425190D01*
X117818Y1147997D02*
X425190D01*
X118599Y1189997D02*
X425190D01*
X116619Y1195997D02*
X425190D01*
X117300Y1171997D02*
X425190D01*
X117201Y1183997D02*
X425190D01*
X10000Y913998D02*
X425190D01*
X10000Y901998D02*
X425190D01*
X10000Y907998D02*
X425190D01*
X10000Y931998D02*
X425190D01*
X10000Y919998D02*
X425190D01*
X10000Y925998D02*
X425190D01*
X10000Y943998D02*
X425190D01*
X230715Y895998D02*
X425190D01*
X10000Y937998D02*
X425190D01*
X10000Y961998D02*
X425190D01*
X91038Y967998D02*
X425190D01*
X10000Y949998D02*
X425190D01*
X10000Y955998D02*
X425190D01*
X10000Y1027997D02*
X425190D01*
X100950Y1015997D02*
X425190D01*
X90795Y1021997D02*
X425190D01*
X10000Y1045997D02*
X425190D01*
X10000Y1033997D02*
X425190D01*
X10000Y1039997D02*
X425190D01*
X108766Y985997D02*
X425190D01*
X101041Y973997D02*
X425190D01*
X105975Y979997D02*
X425190D01*
X108738Y1003997D02*
X425190D01*
X105923Y1009997D02*
X425190D01*
X110055Y991998D02*
X425190D01*
X110046Y997998D02*
X425190D01*
X409999Y711591D02*
Y722164D01*
X411199Y709998D02*
X742710D01*
X409845Y721998D02*
X745210D01*
X409999Y736991D02*
Y747564D01*
X411755Y750167D02*
X507500D01*
X411755Y759787D02*
X505320D01*
X411934Y733998D02*
X741740D01*
X412744Y727998D02*
X745210D01*
X725570Y750167D02*
X745210Y730528D01*
X507500Y750167D02*
X725570D01*
X509680Y759787D02*
X727563D01*
X409999Y813191D02*
Y823764D01*
Y762391D02*
Y772964D01*
Y787791D02*
Y798364D01*
Y838591D02*
Y845537D01*
X412858D02*
Y860815D01*
X433401Y881358D01*
X415999Y759787D02*
Y863956D01*
X421999Y759787D02*
Y869956D01*
X427999Y759787D02*
Y875956D01*
X433999Y759787D02*
Y882086D01*
X730964Y758379D02*
X750020Y739322D01*
X731344Y757998D02*
X1104249D01*
X411952Y775998D02*
X1101508D01*
X411224Y799998D02*
X1101613D01*
X412738Y781998D02*
X1103204D01*
X409806Y787998D02*
X1379616D01*
X745210Y719670D02*
Y730528D01*
X754830Y719670D02*
X756510D01*
X742710D02*
X745210D01*
X743344Y745998D02*
X756696D01*
X737344Y751998D02*
X762696D01*
X754830Y730528D02*
X770210Y745908D01*
X750020Y739322D02*
X764816Y754119D01*
X410204Y823998D02*
X1101901D01*
X412856Y805998D02*
X1102458D01*
X410938Y811998D02*
X1109078D01*
X412795Y829998D02*
X1101946D01*
X411750Y835998D02*
X1106269D01*
X412858Y847998D02*
X1102388D01*
X412858Y853998D02*
X1101637D01*
X412858Y859998D02*
X1104617D01*
X418041Y865998D02*
X1383167D01*
X424040Y871998D02*
X1103105D01*
X430041Y877998D02*
X1101511D01*
X434749Y883998D02*
X1103468D01*
X434810Y889998D02*
X1490000D01*
X434810Y943998D02*
X1383983D01*
X434810Y937998D02*
X1384563D01*
X434810Y949998D02*
X1385158D01*
X434810Y955998D02*
X1388455D01*
X434810Y961998D02*
X1395957D01*
X434810Y967998D02*
X1490000D01*
X434810Y901998D02*
X1101565D01*
X434810Y895998D02*
X1104110D01*
X434810Y907998D02*
X1102645D01*
X434810Y913998D02*
X1110676D01*
X434810Y931998D02*
X1387066D01*
X434810Y919998D02*
X1490000D01*
X434810Y925998D02*
X1392606D01*
X434810Y1033997D02*
X1490000D01*
X434810Y1021997D02*
X1490000D01*
X434810Y1027997D02*
X1490000D01*
X434810Y1093997D02*
X1361834D01*
X434810Y1087997D02*
X1363042D01*
X434810Y1099997D02*
X1364223D01*
X434810Y991998D02*
X1490000D01*
X434810Y973997D02*
X1490000D01*
X434810Y985997D02*
X1490000D01*
X434810Y1009997D02*
X1490000D01*
X434810Y1015997D02*
X1490000D01*
X434810Y997998D02*
X1490000D01*
X434810Y1003997D02*
X1490000D01*
X434810Y1105997D02*
X1490000D01*
X434810Y1075997D02*
X1490000D01*
X434810Y1081997D02*
X1490000D01*
X434810Y1123997D02*
X1490000D01*
X434810Y1111997D02*
X1490000D01*
X434810Y1117997D02*
X1490000D01*
X434810Y1045997D02*
X1490000D01*
X434810Y979997D02*
X1490000D01*
X434810Y1039997D02*
X1490000D01*
X434810Y1063997D02*
X1490000D01*
X434810Y1069997D02*
X1490000D01*
X434810Y1051997D02*
X1490000D01*
X434810Y1057997D02*
X1490000D01*
X434810Y1183997D02*
X1490000D01*
X434810Y1171997D02*
X1490000D01*
X434810Y1177997D02*
X1490000D01*
X434810Y1201997D02*
X1490000D01*
X434810Y1189997D02*
X1490000D01*
X434810Y1195997D02*
X1490000D01*
X434810Y1141997D02*
X1490000D01*
X434810Y1129997D02*
X1490000D01*
X434810Y1135997D02*
X1490000D01*
X434810Y1159997D02*
X1490000D01*
X434810Y1165997D02*
X1490000D01*
X434810Y1147997D02*
X1490000D01*
X434810Y1153997D02*
X1490000D01*
X391999Y867617D02*
Y1215620D01*
X117744Y1207997D02*
X425190D01*
X390620Y1215620D02*
X409380D01*
X390620Y1234380D02*
X409380D01*
X381455Y1243997D02*
X425001D01*
X383971Y1249997D02*
X419001D01*
X397999Y867617D02*
Y1215620D01*
X403999Y867617D02*
Y1215620D01*
X421999Y883561D02*
Y1246999D01*
X409380Y1215620D02*
Y1234380D01*
X425190Y886752D02*
Y1243808D01*
X409380Y1219997D02*
X425190D01*
X409380Y1225997D02*
X425190D01*
X391999Y1234380D02*
Y1270905D01*
X382127Y1255997D02*
X413001D01*
X397999Y1234380D02*
Y1266636D01*
X113003Y1267997D02*
X394795D01*
X117931Y1261997D02*
X407001D01*
X403999Y1234380D02*
Y1264999D01*
X415999Y877561D02*
Y1252999D01*
X409999Y871561D02*
Y1258999D01*
Y1272604D02*
Y1362058D01*
X421999Y1260604D02*
Y1490000D01*
X415999Y1266604D02*
Y1490000D01*
X409380Y1231997D02*
X425190D01*
X434810Y1207997D02*
X1490000D01*
X118495Y1213997D02*
X425190D01*
X118274Y1237997D02*
X425190D01*
X434810Y884760D02*
Y1245800D01*
Y1213997D02*
X1490000D01*
X434810Y1219997D02*
X540620D01*
X434810Y1231997D02*
X540620D01*
X434810Y1243997D02*
X517745D01*
X434810Y1225997D02*
X540620D01*
X434810Y1237997D02*
X1490000D01*
X402293Y1266705D02*
X425190Y1243808D01*
X409095Y1273507D02*
X433401Y1249201D01*
X427999Y1254604D02*
Y1490000D01*
X426605Y1255997D02*
X517073D01*
X420606Y1261997D02*
X1490000D01*
X414605Y1267997D02*
X544795D01*
X451999Y759787D02*
Y1490000D01*
X463999Y759787D02*
Y1490000D01*
X457999Y759787D02*
Y1490000D01*
X439999Y759787D02*
Y1490000D01*
X433999Y1248474D02*
Y1490000D01*
X432606Y1249997D02*
X515229D01*
X445999Y759787D02*
Y1490000D01*
X391999Y1280695D02*
Y1362058D01*
X389696D02*
X411776D01*
X397999Y1284964D02*
Y1362058D01*
X403999Y1284285D02*
Y1362058D01*
X409205Y1273997D02*
X540795D01*
X408389Y1279997D02*
X541611D01*
X411776Y1369997D02*
X1114741D01*
X411776Y1375997D02*
X1114684D01*
X411776Y1363997D02*
X1119088D01*
X411776Y1381997D02*
X1118802D01*
X100000Y1453997D02*
X1400000D01*
X100000Y1441997D02*
X1400000D01*
X100000Y1447997D02*
X1400000D01*
X100000Y1477997D02*
X1400000D01*
X100000Y1465997D02*
X1400000D01*
X100000Y1471996D02*
X1400000D01*
X391999Y1384138D02*
Y1490000D01*
X411776Y1362058D02*
Y1384138D01*
X403999D02*
Y1490000D01*
X397999Y1384138D02*
Y1490000D01*
X389696Y1384138D02*
X411776D01*
X409999D02*
Y1490000D01*
X10000Y1297997D02*
X1490000D01*
X10000Y1285997D02*
X1490000D01*
X10000Y1291997D02*
X1490000D01*
X10000Y1357997D02*
X1490000D01*
X96786Y1303997D02*
X1490000D01*
X97430Y1351997D02*
X1490000D01*
X109525Y1321997D02*
X1490000D01*
X103647Y1309997D02*
X1490000D01*
X107466Y1315997D02*
X1490000D01*
X107658Y1339997D02*
X1490000D01*
X103983Y1345997D02*
X1490000D01*
X110208Y1327997D02*
X1490000D01*
X109614Y1333997D02*
X1490000D01*
X10000Y1399997D02*
X1490000D01*
X10000Y1387997D02*
X1490000D01*
X10000Y1393997D02*
X1490000D01*
X100000Y1417997D02*
X1400000D01*
X100000Y1405997D02*
X1400000D01*
X100000Y1411997D02*
X1400000D01*
X100000Y1435997D02*
X1400000D01*
X100000Y1423997D02*
X1400000D01*
X100000Y1429997D02*
X1400000D01*
X100000Y1489996D02*
X1400000D01*
X100000Y1490000D02*
X1400000D01*
X100000Y1459997D02*
X1400000D01*
X100000Y1483996D02*
X1400000D01*
X475998Y759787D02*
Y1490000D01*
X499999Y759787D02*
Y1490000D01*
X481998Y759787D02*
Y1490000D01*
X505998Y760070D02*
Y1490000D01*
X517999Y759787D02*
Y1243736D01*
X511998Y759787D02*
Y1490000D01*
X523998Y759787D02*
Y1241039D01*
X541998Y759787D02*
Y1215620D01*
X529998Y759787D02*
Y1242729D01*
X553998Y759787D02*
Y1215620D01*
X547998Y759787D02*
Y1215620D01*
X540620D02*
X559380D01*
Y1234380D01*
X535998Y759787D02*
Y1490000D01*
X565998Y759787D02*
Y1490000D01*
X559998Y759787D02*
Y1490000D01*
X469999Y759787D02*
Y1490000D01*
X493998Y759787D02*
Y1490000D01*
X487999Y759787D02*
Y1490000D01*
X595998Y759787D02*
Y1490000D01*
X607998Y759787D02*
Y1490000D01*
X601998Y759787D02*
Y1490000D01*
X577998Y759787D02*
Y1490000D01*
X571998Y759787D02*
Y1490000D01*
X589998Y759787D02*
Y1490000D01*
X583998Y759787D02*
Y1490000D01*
X655998Y759787D02*
Y1490000D01*
X667998Y759787D02*
Y1243737D01*
X661998Y759787D02*
Y1490000D01*
X619998Y759787D02*
Y1490000D01*
X649998Y759787D02*
Y1490000D01*
X643998Y759787D02*
Y1490000D01*
X673998Y759787D02*
Y1241039D01*
X691998Y759787D02*
Y1215620D01*
X679998Y759787D02*
Y1242729D01*
X697998Y759787D02*
Y1215620D01*
X690620D02*
Y1234380D01*
Y1215620D02*
X709380D01*
X703998Y759787D02*
Y1215620D01*
X637998Y759787D02*
Y1490000D01*
X709998Y759787D02*
Y1490000D01*
X685998Y759787D02*
Y1490000D01*
X613998Y759787D02*
Y1490000D01*
X631998Y759787D02*
Y1490000D01*
X625998Y759787D02*
Y1490000D01*
X739998Y749344D02*
Y1490000D01*
X751998Y741300D02*
Y1490000D01*
X745998Y743344D02*
Y1490000D01*
X721998Y759787D02*
Y1490000D01*
X715998Y759787D02*
Y1490000D01*
X733998Y755344D02*
Y1490000D01*
X727998Y759768D02*
Y1490000D01*
X531455Y1243997D02*
X667745D01*
X540620Y1215620D02*
Y1234380D01*
X559380D01*
X533971Y1249997D02*
X665229D01*
X532127Y1255997D02*
X667073D01*
X517999Y1257064D02*
Y1490000D01*
X541998Y1234380D02*
Y1270905D01*
X529998Y1258071D02*
Y1490000D01*
X523998Y1259761D02*
Y1490000D01*
X541998Y1280695D02*
Y1490000D01*
X547998Y1234380D02*
Y1266636D01*
X553998Y1234380D02*
Y1267315D01*
X667998Y1257063D02*
Y1490000D01*
X553998Y1284285D02*
Y1490000D01*
X547998Y1284964D02*
Y1490000D01*
X679998Y1258071D02*
Y1490000D01*
X673998Y1259761D02*
Y1490000D01*
X559380Y1231997D02*
X690620D01*
X559380Y1219997D02*
X690620D01*
X559380Y1225997D02*
X690620D01*
X681455Y1243997D02*
X817745D01*
X709380Y1215620D02*
Y1234380D01*
Y1219997D02*
X840620D01*
X709380Y1225997D02*
X840620D01*
X690620Y1234380D02*
X709380D01*
X683971Y1249997D02*
X815229D01*
X709380Y1231997D02*
X840620D01*
X682127Y1255997D02*
X817073D01*
X691998Y1234380D02*
Y1270906D01*
X555205Y1267997D02*
X694795D01*
X559205Y1273997D02*
X690795D01*
X558389Y1279997D02*
X691611D01*
X691998Y1280694D02*
Y1490000D01*
X697998Y1234380D02*
Y1266636D01*
X703998Y1234380D02*
Y1267315D01*
X705206Y1267997D02*
X844795D01*
X703998Y1284285D02*
Y1490000D01*
X697998Y1284964D02*
Y1490000D01*
X709205Y1273997D02*
X840795D01*
X708389Y1279997D02*
X841611D01*
X757998Y10000D02*
Y30601D01*
X760748Y31999D02*
X1049252D01*
X763998Y10000D02*
Y34549D01*
X757998Y64939D02*
Y84831D01*
X766757Y37999D02*
X1043244D01*
X762885Y61999D02*
X1047115D01*
X769153Y43999D02*
X1040847D01*
X1051997Y10000D02*
Y30603D01*
X1045997Y10000D02*
Y34554D01*
X769406Y49999D02*
X1040595D01*
X767614Y55999D02*
X1042386D01*
X1057997Y66283D02*
Y83487D01*
X763998Y60991D02*
Y88779D01*
X760365Y85999D02*
X1049635D01*
X766611Y91999D02*
X1043389D01*
X769103Y97999D02*
X1040897D01*
X767726Y109999D02*
X1042274D01*
X763155Y115999D02*
X1046845D01*
X889998Y10000D02*
Y188402D01*
X901998Y10000D02*
Y188402D01*
X895998Y10000D02*
Y188402D01*
X769432Y103999D02*
X1040568D01*
X907998Y10000D02*
Y188402D01*
X1051997Y64937D02*
Y84833D01*
X1045997Y60986D02*
Y88784D01*
X1057997Y10000D02*
Y29257D01*
X1063997Y10000D02*
Y29916D01*
X1069997Y10000D02*
Y32844D01*
X1063859Y65662D02*
X1075999Y77801D01*
X1068748Y31999D02*
X1091252D01*
X1075997Y10000D02*
Y40366D01*
X1074757Y37999D02*
X1085244D01*
X1075997Y55174D02*
Y64195D01*
X1072393Y60591D02*
X1081392Y69590D01*
X1075614Y55999D02*
X1084387D01*
X1073802Y61999D02*
X1089115D01*
X1063997Y65800D02*
Y84146D01*
X1069997Y71800D02*
Y87074D01*
X1057997Y120513D02*
Y264643D01*
X1068365Y85999D02*
X1091635D01*
X1063997Y119854D02*
Y258643D01*
X1075997Y77800D02*
Y94596D01*
X1074612Y91999D02*
X1085389D01*
X1075997Y109404D02*
Y246643D01*
X1069997Y116926D02*
Y252643D01*
X1075726Y109999D02*
X1084275D01*
X1071155Y115999D02*
X1088845D01*
X886805Y188402D02*
Y210482D01*
Y188402D02*
X908885D01*
X886805Y210482D02*
X908885D01*
X886805Y213802D02*
Y235882D01*
Y213802D02*
X908885D01*
X886805Y235882D02*
X908885D01*
X889998Y210482D02*
Y213802D01*
X908885Y188402D02*
Y210482D01*
X895998D02*
Y213802D01*
X901998Y210482D02*
Y213802D01*
X895998Y235882D02*
Y239202D01*
X907998Y210482D02*
Y213802D01*
X908885D02*
Y235882D01*
X886805Y239202D02*
Y261282D01*
Y239202D02*
X908885D01*
X889998Y235882D02*
Y239202D01*
X886805Y264602D02*
Y286682D01*
Y290002D02*
X908885D01*
X889998Y286682D02*
Y290002D01*
X901998Y235882D02*
Y239202D01*
X907998Y235882D02*
Y239202D01*
X908885D02*
Y261282D01*
X895998D02*
Y264602D01*
X889998Y261282D02*
Y264602D01*
X907998Y261282D02*
Y264602D01*
X901998Y261282D02*
Y264602D01*
X908885Y217999D02*
X1104641D01*
X908885Y193999D02*
X1118961D01*
X908885Y205999D02*
X1116641D01*
X886805Y264602D02*
X908885D01*
Y223999D02*
X1098641D01*
X886805Y261282D02*
X908885D01*
Y241999D02*
X1080641D01*
X908885Y199999D02*
X1118961D01*
X908885Y229999D02*
X1092641D01*
X908885Y259999D02*
X1062641D01*
X908885Y265999D02*
X1056641D01*
X908885Y247999D02*
X1074641D01*
X908885Y253999D02*
X1068641D01*
X908885Y264602D02*
Y286682D01*
Y271999D02*
X1052690D01*
X886805Y286682D02*
X908885D01*
Y277999D02*
X1052690D01*
X908885Y283999D02*
X1052690D01*
X1070246Y265999D02*
X1118961D01*
X1054099Y268541D02*
X1118961Y203680D01*
X1062310Y273935D02*
X1118961Y217284D01*
X1064246Y271999D02*
X1118961D01*
X1062310Y277999D02*
X1118961D01*
X1062310Y283999D02*
X1118961D01*
X1081997Y10000D02*
Y69590D01*
X1087997Y10000D02*
Y34554D01*
X1077405Y49999D02*
X1082595D01*
X1077153Y43999D02*
X1082848D01*
X1087997Y60986D02*
Y69590D01*
X1093997Y10000D02*
Y30603D01*
X1099997Y10000D02*
Y29257D01*
X1105997Y10000D02*
Y29916D01*
X1099997Y66283D02*
Y69590D01*
X1093997Y64937D02*
Y69590D01*
X1111997Y10000D02*
Y32844D01*
X1117997Y10000D02*
Y40366D01*
X1093997Y79210D02*
Y84833D01*
X1081997Y79210D02*
Y240643D01*
X1077103Y97999D02*
X1082897D01*
X1087997Y79210D02*
Y88784D01*
X1105997Y65624D02*
Y69590D01*
X1117997Y55175D02*
Y69590D01*
X1111997Y62696D02*
Y69590D01*
X1099997Y79210D02*
Y83487D01*
X1105997Y79210D02*
Y84146D01*
X1111997Y79210D02*
Y87074D01*
X1117997Y79210D02*
Y94595D01*
X1123997Y10000D02*
Y69590D01*
X1117614Y55999D02*
X1164290D01*
X1129997Y10000D02*
Y69590D01*
X1081392D02*
X1164290D01*
X1112885Y61999D02*
X1164290D01*
X1079802Y67999D02*
X1164290D01*
X1135997Y10000D02*
Y69590D01*
X1147997Y10000D02*
Y69590D01*
X1141997Y10000D02*
Y69590D01*
X1159997Y10000D02*
Y69590D01*
X1153997Y10000D02*
Y69590D01*
X1165997Y10000D02*
Y53460D01*
X1164290D02*
Y67260D01*
X1123997Y79210D02*
Y188402D01*
X1079400Y79210D02*
X1164290D01*
X1129997D02*
Y188402D01*
X1135997Y79210D02*
Y188402D01*
X1110365Y85999D02*
X1167690D01*
X1141997Y79210D02*
Y194632D01*
X1153997Y79210D02*
Y194632D01*
X1164290Y67740D02*
Y69590D01*
X1159997Y79210D02*
Y194632D01*
X1164290Y79210D02*
Y81540D01*
X1147997Y79210D02*
Y194632D01*
X1164290Y81540D02*
X1167690D01*
X1165997D02*
Y189701D01*
X1077432Y103999D02*
X1082568D01*
X1093997Y119167D02*
Y228643D01*
X1087997Y115216D02*
Y234643D01*
X1099997Y120513D02*
Y222643D01*
X1105997Y119854D02*
Y216643D01*
X1106246Y229999D02*
X1118961D01*
X1111997Y116926D02*
Y210643D01*
X1118961Y188402D02*
Y203680D01*
X1117997Y109405D02*
Y204643D01*
X1123997Y212248D02*
Y213802D01*
X1112246Y223999D02*
X1118961D01*
X1129997Y210482D02*
Y213802D01*
X1122443D02*
X1125763Y210482D01*
X1088246Y247999D02*
X1118961D01*
Y217284D02*
Y235882D01*
X1094246Y241999D02*
X1118961D01*
Y264602D02*
Y286682D01*
X1082246Y253999D02*
X1118961D01*
X1076246Y259999D02*
X1118961D01*
Y239202D02*
Y261282D01*
X1129997Y235882D02*
Y239202D01*
X1123997Y235882D02*
Y239202D01*
X1129997Y261282D02*
Y264602D01*
X1123997Y261282D02*
Y264602D01*
X1118961Y188402D02*
X1141041D01*
X1117726Y109999D02*
X1167690D01*
X1113155Y115999D02*
X1167690D01*
X1122443Y213802D02*
X1141041D01*
Y194632D02*
X1161066D01*
X1125763Y210482D02*
X1141041D01*
Y188402D02*
Y194632D01*
Y193999D02*
X1161699D01*
X1161066Y194632D02*
X1167690Y188008D01*
X1141041Y204252D02*
X1163058D01*
X1141041D02*
Y210482D01*
X1118961Y261282D02*
X1141041D01*
X1118961Y235882D02*
X1141041D01*
X1118961Y239202D02*
X1141041D01*
X1118961Y264602D02*
X1141041D01*
X1118961Y286682D02*
X1141041D01*
X1135997Y210482D02*
Y213802D01*
X1141041D02*
Y235882D01*
X1135997D02*
Y239202D01*
Y261282D02*
Y264602D01*
X1141041Y239202D02*
Y261282D01*
Y264602D02*
Y286682D01*
X781998Y10000D02*
Y422380D01*
X793998Y10000D02*
Y422380D01*
X787998Y10000D02*
Y422380D01*
X757998Y119169D02*
Y422380D01*
X769998Y10000D02*
Y487790D01*
X763998Y115221D02*
Y487790D01*
X805998Y10000D02*
Y745908D01*
X817998Y10000D02*
Y745908D01*
X811998Y10000D02*
Y745908D01*
X886805Y340802D02*
Y362882D01*
Y366202D02*
Y388282D01*
Y290002D02*
Y312082D01*
Y315402D02*
Y337482D01*
X829998Y10000D02*
Y745908D01*
X841998Y10000D02*
Y745908D01*
X835998Y10000D02*
Y745908D01*
X775998Y10000D02*
Y745908D01*
X823998Y10000D02*
Y745908D01*
X799998Y10000D02*
Y745908D01*
X871998Y10000D02*
Y745908D01*
X883998Y10000D02*
Y745908D01*
X877998Y10000D02*
Y745908D01*
X853998Y10000D02*
Y745908D01*
X847998Y10000D02*
Y745908D01*
X865998Y10000D02*
Y745908D01*
X859998Y10000D02*
Y745908D01*
X895998Y286682D02*
Y290002D01*
X886805Y312082D02*
X908885D01*
X889998D02*
Y315402D01*
X886805D02*
X908885D01*
X895998Y312082D02*
Y315402D01*
X907998Y286682D02*
Y290002D01*
X901998Y286682D02*
Y290002D01*
Y312082D02*
Y315402D01*
X907998Y312082D02*
Y315402D01*
X889998Y337482D02*
Y340802D01*
X886805Y337482D02*
X908885D01*
X886805Y340802D02*
X908885D01*
X889998Y362882D02*
Y366202D01*
X886805Y362882D02*
X908885D01*
X886805Y366202D02*
X908885D01*
X895998Y337482D02*
Y340802D01*
X907998Y337482D02*
Y340802D01*
X901998Y337482D02*
Y340802D01*
Y362882D02*
Y366202D01*
X895998Y362882D02*
Y366202D01*
X907998Y362882D02*
Y366202D01*
Y388282D02*
Y745908D01*
X754910Y461960D02*
X760140D01*
Y445999D02*
X779060D01*
X760140Y451999D02*
X779060D01*
X754910Y461960D02*
Y487790D01*
X757998Y461960D02*
Y487790D01*
X754910D02*
X756760D01*
X760140Y422380D02*
Y461960D01*
Y427999D02*
X779060D01*
Y422380D02*
Y461960D01*
X760140Y433999D02*
X779060D01*
X760140Y439999D02*
X779060D01*
X760140Y457999D02*
X779060D01*
X754910Y503670D02*
X756760D01*
X757240Y487790D02*
X771040D01*
X754910Y503670D02*
Y528210D01*
X757240Y503670D02*
X771040D01*
X757998D02*
Y528210D01*
X771040Y487790D02*
Y503670D01*
X787998Y461960D02*
Y745908D01*
X781998Y461960D02*
Y745908D01*
X763998Y503670D02*
Y593040D01*
X769998Y503670D02*
Y593040D01*
X779060Y422380D02*
X799140D01*
Y433999D02*
X1052690D01*
X779060Y461960D02*
X799140D01*
Y422380D02*
Y461960D01*
X886805Y388282D02*
X908885D01*
X799140Y427999D02*
X1052690D01*
X799140Y451999D02*
X1052690D01*
X799140Y457999D02*
X1052690D01*
X799140Y439999D02*
X1052690D01*
X799140Y445999D02*
X1052690D01*
X754910Y475998D02*
X1052690D01*
X754910Y463999D02*
X1052690D01*
X754910Y469999D02*
X1052690D01*
X754910Y511998D02*
X1052690D01*
X754910Y481998D02*
X1052690D01*
X754910Y505998D02*
X1052690D01*
X889998Y388282D02*
Y745908D01*
X901998Y388282D02*
Y745908D01*
X895998Y388282D02*
Y745908D01*
X771040Y487999D02*
X1052690D01*
X793998Y461960D02*
Y745908D01*
X771040Y493998D02*
X1052690D01*
X771040Y499999D02*
X1052690D01*
X913998Y10000D02*
Y745908D01*
X931998Y10000D02*
Y745908D01*
X919998Y10000D02*
Y745908D01*
X908885Y290002D02*
Y312082D01*
Y301999D02*
X1052690D01*
X925998Y10000D02*
Y745908D01*
X961998Y10000D02*
Y745908D01*
X973997Y10000D02*
Y745908D01*
X967998Y10000D02*
Y745908D01*
X943998Y10000D02*
Y745908D01*
X937998Y10000D02*
Y745908D01*
X955998Y10000D02*
Y745908D01*
X949998Y10000D02*
Y745908D01*
X997998Y10000D02*
Y745908D01*
X1009997Y10000D02*
Y745908D01*
X1003997Y10000D02*
Y745908D01*
X979997Y10000D02*
Y745908D01*
X991998Y10000D02*
Y745908D01*
X985997Y10000D02*
Y745908D01*
X1015997Y10000D02*
Y745908D01*
X1027997Y10000D02*
Y745908D01*
X1021997Y10000D02*
Y745908D01*
X1039997Y10000D02*
Y745908D01*
X1033997Y10000D02*
Y745908D01*
X1051997Y119167D02*
Y745908D01*
X1045997Y115216D02*
Y745908D01*
X1087997Y248248D02*
Y586781D01*
X1111997Y224248D02*
Y586747D01*
X1105997Y230248D02*
Y586747D01*
X908885Y295999D02*
X1052690D01*
X1062310D02*
X1118961D01*
X1062310Y301999D02*
X1118961D01*
X1117997Y218248D02*
Y586747D01*
X1129997Y286682D02*
Y290002D01*
X1123997Y286682D02*
Y290002D01*
X1135997Y286682D02*
Y290002D01*
X1118961D02*
Y312082D01*
Y290002D02*
X1141041D01*
Y312082D01*
X1069997Y266248D02*
Y701365D01*
X1081997Y254248D02*
Y588017D01*
X1075997Y260248D02*
Y707365D01*
X1052690Y271943D02*
Y695670D01*
X1062310Y273935D02*
Y693677D01*
X1063997Y272248D02*
Y695365D01*
X1153997Y204252D02*
Y714201D01*
X1165997Y203250D02*
Y702200D01*
X1159997Y204252D02*
Y708201D01*
X1093997Y242248D02*
Y589137D01*
X1099997Y236248D02*
Y731365D01*
X1147997Y204252D02*
Y720200D01*
X1141997Y204252D02*
Y720508D01*
X908885Y315402D02*
Y337482D01*
Y307999D02*
X1052690D01*
X908885Y319999D02*
X1052690D01*
X908885Y349999D02*
X1052690D01*
X908885Y325999D02*
X1052690D01*
X908885Y331999D02*
X1052690D01*
X1062310Y319999D02*
X1118961D01*
X1062310Y307999D02*
X1118961D01*
Y315402D02*
Y337482D01*
X1062310Y325999D02*
X1118961D01*
X908885Y343999D02*
X1052690D01*
X1062310Y331999D02*
X1118961D01*
X1062310Y343999D02*
X1118961D01*
X908885Y340802D02*
Y362882D01*
Y355999D02*
X1052690D01*
X908885Y361999D02*
X1052690D01*
X908885Y385999D02*
X1052690D01*
X908885Y367999D02*
X1052690D01*
X908885Y373999D02*
X1052690D01*
X908885Y366202D02*
Y388282D01*
X1062310Y349999D02*
X1118961D01*
Y341056D02*
Y363136D01*
X1062310Y367999D02*
X1118961D01*
X908885Y379999D02*
X1052690D01*
X1062310D02*
X1118961D01*
X1062310Y385999D02*
X1118961D01*
Y337482D02*
X1141041D01*
X1118961Y312082D02*
X1141041D01*
X1118961Y315402D02*
X1141041D01*
X1062310Y361999D02*
X1118961D01*
Y341056D02*
X1141041D01*
X1062310Y355999D02*
X1118961D01*
X1123997Y312082D02*
Y315402D01*
X1135997Y312082D02*
Y315402D01*
X1129997Y312082D02*
Y315402D01*
Y337482D02*
Y341056D01*
X1123997Y337482D02*
Y341056D01*
X1141041Y315402D02*
Y337482D01*
X1135997D02*
Y341056D01*
X1118961Y366456D02*
Y388536D01*
Y363136D02*
X1141041D01*
X1123997D02*
Y366456D01*
X1062310Y373999D02*
X1118961D01*
Y366456D02*
X1141041D01*
X1118961Y388536D02*
X1141041D01*
X1129997Y363136D02*
Y366456D01*
X1141041Y341056D02*
Y363136D01*
X1135997D02*
Y366456D01*
X1129997Y388536D02*
Y720508D01*
X1123997Y388536D02*
Y720508D01*
X1141041Y366456D02*
Y388536D01*
X1135997D02*
Y720508D01*
X1164290Y53460D02*
X1180170D01*
X1119432Y103999D02*
X1167690D01*
X1116611Y91999D02*
X1167690D01*
X1119103Y97999D02*
X1167690D01*
X1171997Y10000D02*
Y53460D01*
X1177997Y10000D02*
Y53460D01*
X1180170D02*
Y67260D01*
X1177310Y81540D02*
X1180170D01*
Y67740D02*
Y81540D01*
X1167690D02*
Y188008D01*
X1177310Y139999D02*
X1243959D01*
X1177310Y145999D02*
X1243959D01*
X1177310Y151999D02*
X1243959D01*
X1177310Y157999D02*
X1243959D01*
X1177310Y181999D02*
X1250189D01*
X1177310Y81540D02*
Y190000D01*
X1249997Y10000D02*
Y136464D01*
X1243997Y10000D02*
Y136464D01*
X1243959Y158544D02*
X1250189D01*
X1243959Y136464D02*
Y158544D01*
X1177310Y163999D02*
X1250189D01*
X1177310Y175999D02*
X1250189D01*
X1119153Y43999D02*
X1400000D01*
X1110748Y31999D02*
X1400000D01*
X1116757Y37999D02*
X1400000D01*
X1119406Y49999D02*
X1400000D01*
X1177310Y97999D02*
X1400000D01*
X1177310Y103999D02*
X1490000D01*
X1180170Y67999D02*
X1400000D01*
X1180170Y55999D02*
X1400000D01*
X1180170Y61999D02*
X1400000D01*
X1177310Y85999D02*
X1400000D01*
X1177310Y91999D02*
X1400000D01*
X1180170Y73999D02*
X1400000D01*
X1180170Y79999D02*
X1400000D01*
X1177310Y121999D02*
X1490000D01*
X1177310Y109999D02*
X1490000D01*
X1177310Y115999D02*
X1490000D01*
X1177310Y169999D02*
X1250189D01*
X1177310Y127999D02*
X1490000D01*
X1177310Y133999D02*
X1490000D01*
X1255997Y10000D02*
Y136464D01*
X1243959D02*
X1266039D01*
X1259809Y158544D02*
X1266039D01*
X1259809Y175999D02*
X1490000D01*
X1259809Y181999D02*
X1490000D01*
X1259809Y163999D02*
X1490000D01*
X1259809Y169999D02*
X1490000D01*
X1141041Y217999D02*
X1250189D01*
X1141041Y205999D02*
X1250189D01*
X1124246Y211999D02*
X1250189D01*
X1141041Y241999D02*
X1250189D01*
X1141041Y229999D02*
X1250189D01*
X1100246Y235999D02*
X1250189D01*
X1177310Y187999D02*
X1250189D01*
X1175303Y193999D02*
X1250189D01*
X1166459Y202843D02*
X1175901Y193401D01*
X1169303Y199999D02*
X1250189D01*
X1141041Y223999D02*
X1250189D01*
X1141041Y265999D02*
X1250189D01*
X1141041Y247999D02*
X1250189D01*
X1141041Y253999D02*
X1250189D01*
X1062310Y391999D02*
X1250189D01*
X1141041Y271999D02*
X1250189D01*
X1062310Y289999D02*
X1250189D01*
X1141041Y283999D02*
X1250189D01*
X1141041Y259999D02*
X1250189D01*
X1141041Y277999D02*
X1250189D01*
X1141041Y349999D02*
X1250189D01*
X1141041Y385999D02*
X1250189D01*
X1141041Y295999D02*
X1250189D01*
X1141041Y343999D02*
X1250189D01*
X1141041Y301999D02*
X1250189D01*
X1259809Y199999D02*
X1490000D01*
X1259809Y205999D02*
X1490000D01*
X1141041Y319999D02*
X1250189D01*
X1141041Y307999D02*
X1250189D01*
X1062310Y313999D02*
X1250189D01*
X1259809Y211999D02*
X1490000D01*
X1259809Y187999D02*
X1490000D01*
X1259809Y193999D02*
X1490000D01*
X1259809Y289999D02*
X1394108D01*
X1259809Y295999D02*
X1387718D01*
X1259809Y217999D02*
X1490000D01*
X1259809Y223999D02*
X1490000D01*
X1141041Y355999D02*
X1250189D01*
X1141041Y331999D02*
X1250189D01*
X1062310Y337999D02*
X1250189D01*
X1141041Y379999D02*
X1250189D01*
X1141041Y361999D02*
X1250189D01*
X1141041Y373999D02*
X1250189D01*
X1141041Y325999D02*
X1250189D01*
X1259809Y343999D02*
X1490000D01*
X1259809Y349999D02*
X1490000D01*
X1259809Y367999D02*
X1383346D01*
X1141041D02*
X1250189D01*
X1259809Y355999D02*
X1490000D01*
X1259809Y361999D02*
X1490000D01*
X1261997Y10000D02*
Y136464D01*
X1285997Y10000D02*
Y137988D01*
X1273997Y10000D02*
Y138510D01*
X1266039Y145999D02*
X1269462D01*
X1279997Y10000D02*
Y136471D01*
X1266039Y139999D02*
X1272302D01*
X1363997Y10000D02*
Y140890D01*
X1369997Y10000D02*
Y136835D01*
X1375997Y10000D02*
Y136926D01*
X1288497Y139999D02*
X1364739D01*
X1291337Y145999D02*
X1361899D01*
X1380934Y139999D02*
X1387196D01*
X1381997Y10000D02*
Y141342D01*
X1266039Y136464D02*
Y158544D01*
X1290483Y151999D02*
X1362753D01*
X1266039D02*
X1270316D01*
X1283823Y157999D02*
X1369412D01*
X1266039D02*
X1276975D01*
X1387196Y136464D02*
Y158544D01*
X1381997Y153666D02*
Y369436D01*
X1387997Y10000D02*
Y136464D01*
X1387196D02*
X1409276D01*
X1393997Y10000D02*
Y136464D01*
X1383773Y145999D02*
X1387196D01*
X1399997Y10000D02*
Y136464D01*
X1400000Y100000D02*
X1490000D01*
X1400000Y10000D02*
Y100000D01*
X1405997D02*
Y136464D01*
X1409276Y139999D02*
X1490000D01*
X1409276Y145999D02*
X1490000D01*
X1376260Y157999D02*
X1387196D01*
X1382920Y151999D02*
X1387196D01*
X1387997Y158544D02*
Y295607D01*
X1405997Y158544D02*
Y286984D01*
X1399997Y158544D02*
Y287563D01*
X1417997Y100000D02*
Y291454D01*
X1423997Y100000D02*
Y298955D01*
X1429997Y100000D02*
Y385904D01*
X1409276Y136464D02*
Y158544D01*
X1411997Y100000D02*
Y288157D01*
X1409276Y151999D02*
X1490000D01*
X1409276Y157999D02*
X1490000D01*
X1259809Y307999D02*
X1383960D01*
X1259809Y301999D02*
X1384834D01*
X1259809Y313999D02*
X1384833D01*
X1259809Y319999D02*
X1387717D01*
X1259809Y325999D02*
X1394104D01*
X1393997Y158544D02*
Y290067D01*
X1387196Y158544D02*
X1409276D01*
X1387997Y320392D02*
Y365518D01*
X1393997Y325933D02*
Y365641D01*
X1399997Y328437D02*
Y370039D01*
X1259809Y373999D02*
X1379861D01*
X1259809Y379999D02*
X1380237D01*
X1381997Y383216D02*
Y396522D01*
X1259809Y385999D02*
X1385210D01*
X1259809Y391999D02*
X1407851D01*
X1411997Y327842D02*
Y381045D01*
X1417997Y324546D02*
Y378567D01*
X1423997Y317045D02*
Y379535D01*
X1387997Y387134D02*
Y392812D01*
X1393997Y387011D02*
Y392931D01*
X1401314Y379999D02*
X1413540D01*
X1396342Y385999D02*
X1408415D01*
X1259809Y241999D02*
X1490000D01*
X1259809Y229999D02*
X1490000D01*
X1259809Y235999D02*
X1490000D01*
X1259809Y259999D02*
X1490000D01*
X1259809Y247999D02*
X1490000D01*
X1259809Y253999D02*
X1490000D01*
X1259809Y277999D02*
X1490000D01*
X1259809Y265999D02*
X1490000D01*
X1259809Y271999D02*
X1490000D01*
X1422281Y295999D02*
X1490000D01*
X1425166Y301999D02*
X1490000D01*
X1259809Y283999D02*
X1490000D01*
X1415892Y289999D02*
X1490000D01*
X1259809Y331999D02*
X1490000D01*
X1401691Y373999D02*
X1490000D01*
X1259809Y337999D02*
X1490000D01*
X1398206Y367999D02*
X1490000D01*
X1422283Y319999D02*
X1490000D01*
X1426040Y307999D02*
X1490000D01*
X1425167Y313999D02*
X1490000D01*
X1430032Y385999D02*
X1490000D01*
X1430597Y391999D02*
X1490000D01*
X1415896Y325999D02*
X1490000D01*
X1424908Y379999D02*
X1490000D01*
X1062310Y409999D02*
X1250189D01*
X1062310Y397999D02*
X1250189D01*
X1062310Y403999D02*
X1250189D01*
X1062310Y427999D02*
X1250189D01*
X1062310Y415999D02*
X1250189D01*
X1062310Y421999D02*
X1250189D01*
X1231997Y10000D02*
Y636201D01*
X1243997Y158544D02*
Y624201D01*
X1237997Y10000D02*
Y630201D01*
X1250189Y158544D02*
Y618008D01*
X1249997Y158544D02*
Y618201D01*
X1062310Y433999D02*
X1250189D01*
X1259809Y158544D02*
Y620001D01*
X1189997Y10000D02*
Y678201D01*
X1201997Y10000D02*
Y666200D01*
X1195997Y10000D02*
Y672200D01*
X1171997Y197305D02*
Y696200D01*
X1183997Y10000D02*
Y684201D01*
X1177997Y81540D02*
Y690201D01*
X1207997Y10000D02*
Y660201D01*
X1219997Y10000D02*
Y648201D01*
X1213997Y10000D02*
Y654201D01*
X1225997Y10000D02*
Y642201D01*
X1261997Y158544D02*
Y1490000D01*
X1273997Y156497D02*
Y1490000D01*
X1267997Y10000D02*
Y1490000D01*
X1259809Y403999D02*
X1379236D01*
X1259809Y397999D02*
X1380926D01*
X1259809Y409999D02*
X1380910D01*
X1259809Y427999D02*
X1379845D01*
X1259809Y415999D02*
X1407814D01*
X1259809Y421999D02*
X1384523D01*
X1321997Y10000D02*
Y465724D01*
X1333997Y10000D02*
Y465724D01*
X1327997Y10000D02*
Y465724D01*
X1259809Y433999D02*
X1379467D01*
X1369997Y158172D02*
Y1082423D01*
X1297997Y10000D02*
Y1490000D01*
X1309997Y10000D02*
Y1490000D01*
X1303997Y10000D02*
Y1490000D01*
X1279997Y158536D02*
Y1490000D01*
X1291997Y10000D02*
Y1490000D01*
X1285997Y157019D02*
Y1490000D01*
X1315997Y10000D02*
Y1490000D01*
X1345997Y10000D02*
Y1490000D01*
X1339997Y10000D02*
Y1490000D01*
X1357997Y10000D02*
Y1490000D01*
X1351997Y10000D02*
Y1490000D01*
X1375997Y158082D02*
Y1082513D01*
X1363997Y154117D02*
Y1086477D01*
X1062310Y451999D02*
X1250189D01*
X1062310Y439999D02*
X1250189D01*
X1062310Y445999D02*
X1250189D01*
X1062310Y469999D02*
X1250189D01*
X1062310Y457999D02*
X1250189D01*
X1062310Y463999D02*
X1250189D01*
X1062310Y475998D02*
X1250189D01*
X1259809Y469999D02*
X1316547D01*
Y465724D02*
Y487804D01*
X1062310Y481998D02*
X1250189D01*
X1062310Y487999D02*
X1250189D01*
X1259809Y475998D02*
X1316547D01*
X1259809Y481998D02*
X1316547D01*
X1062310Y493998D02*
X1250189D01*
X1259809D02*
X1320156D01*
X1062310Y499999D02*
X1250189D01*
X1062310Y517999D02*
X1250189D01*
X1062310Y505998D02*
X1250189D01*
X1062310Y511998D02*
X1250189D01*
X1259809Y499999D02*
X1316761D01*
X1327997Y487804D02*
Y491131D01*
X1321997Y487804D02*
Y492643D01*
X1259809Y505998D02*
X1317234D01*
X1321997Y511684D02*
Y518043D01*
X1259809Y511998D02*
X1322571D01*
X1327997Y513196D02*
Y516531D01*
X1259809Y451999D02*
X1381909D01*
X1259809Y439999D02*
X1382759D01*
X1259809Y445999D02*
X1407699D01*
X1316547Y465724D02*
X1338627D01*
X1259809Y457999D02*
X1379319D01*
X1259809Y463999D02*
X1380199D01*
X1338627Y465724D02*
Y487804D01*
Y481998D02*
X1380410D01*
X1316547Y487804D02*
X1338627D01*
Y469999D02*
X1386248D01*
X1338627Y475998D02*
X1387521D01*
X1333997Y487804D02*
Y493175D01*
X1259809Y487999D02*
X1379273D01*
X1333997Y511152D02*
Y518575D01*
X1332602Y511998D02*
X1379616D01*
X1335017Y493998D02*
X1381547D01*
X1381997Y494560D02*
Y505530D01*
X1337939Y505998D02*
X1381530D01*
X1379616Y510946D02*
Y518566D01*
X1338412Y499999D02*
X1408064D01*
X1381997Y411502D02*
Y424208D01*
X1399997Y382613D02*
Y397073D01*
Y410951D02*
Y424759D01*
X1387997Y415212D02*
Y420498D01*
X1393997Y415093D02*
Y420617D01*
X1397028Y421999D02*
X1408503D01*
X1400625Y397999D02*
X1410865D01*
X1423997Y400549D02*
Y407221D01*
X1411997Y399039D02*
Y408731D01*
X1400641Y409999D02*
X1410655D01*
X1401707Y427999D02*
X1413962D01*
X1417997Y401517D02*
Y406253D01*
Y429203D02*
Y433939D01*
X1381997Y439188D02*
Y451894D01*
X1398793Y439999D02*
X1409033D01*
X1393997Y442779D02*
Y448303D01*
X1387997Y442898D02*
Y448184D01*
X1399643Y451999D02*
X1409747D01*
X1405997Y329016D02*
Y921984D01*
X1423997Y428235D02*
Y434907D01*
X1411997Y426725D02*
Y436417D01*
X1399997Y438637D02*
Y452445D01*
X1411997Y454411D02*
Y464103D01*
X1402084Y433999D02*
X1417532D01*
X1429997Y449552D02*
Y468962D01*
X1427582Y397999D02*
X1490000D01*
X1402316Y403999D02*
X1490000D01*
X1424486Y427999D02*
X1490000D01*
X1420915Y433999D02*
X1490000D01*
X1429997Y394180D02*
Y413590D01*
X1427793Y409999D02*
X1490000D01*
X1430634Y415999D02*
X1490000D01*
X1429945Y421999D02*
X1490000D01*
X1429997Y421866D02*
Y441276D01*
X1429414Y439999D02*
X1490000D01*
X1430749Y445999D02*
X1490000D01*
X1435997Y100000D02*
Y1400000D01*
X1453997Y100000D02*
Y1400000D01*
X1441997Y100000D02*
Y1400000D01*
X1428701Y451999D02*
X1490000D01*
X1447997Y100000D02*
Y1400000D01*
X1483996Y100000D02*
Y1400000D01*
X1490000Y100000D02*
Y1400000D01*
X1489996Y100000D02*
Y1400000D01*
X1465997Y100000D02*
Y1400000D01*
X1459997Y100000D02*
Y1400000D01*
X1477997Y100000D02*
Y1400000D01*
X1471996Y100000D02*
Y1400000D01*
X1381997Y466874D02*
Y479580D01*
X1387997Y470584D02*
Y475870D01*
X1393997Y470465D02*
Y475989D01*
X1394031Y475998D02*
X1408054D01*
X1399997Y466323D02*
Y480131D01*
X1417997Y456889D02*
Y461625D01*
X1401353Y463999D02*
X1412129D01*
X1395304Y469999D02*
X1408109D01*
X1401142Y481998D02*
X1411876D01*
X1417997Y484575D02*
Y489626D01*
X1411997Y482097D02*
Y490469D01*
X1393997Y498151D02*
Y503596D01*
X1400004Y493998D02*
X1408694D01*
X1399997Y494009D02*
Y505971D01*
X1387997Y498270D02*
Y503596D01*
X1386966D02*
X1394586D01*
X1408064Y496976D02*
Y504596D01*
X1400021Y505998D02*
X1408199D01*
X1401936Y510946D02*
Y518566D01*
X1417997Y511946D02*
Y516997D01*
X1411997Y511103D02*
Y519475D01*
X1402232Y457999D02*
X1490000D01*
X1402278Y487999D02*
X1490000D01*
X1415414Y489626D02*
X1423034D01*
X1423997Y455921D02*
Y462593D01*
X1426319Y463999D02*
X1490000D01*
X1430339Y469999D02*
X1490000D01*
X1430394Y475998D02*
X1490000D01*
X1426572Y481998D02*
X1490000D01*
X1423997Y483607D02*
Y489689D01*
X1415414Y511946D02*
X1423034D01*
X1401936Y511998D02*
X1490000D01*
X1429997Y477238D02*
Y494622D01*
X1429754Y493998D02*
X1490000D01*
X1430384Y496976D02*
Y504596D01*
X1423997Y511883D02*
Y517965D01*
X1429997Y506950D02*
Y524334D01*
X1430384Y499999D02*
X1490000D01*
X1430249Y505998D02*
X1490000D01*
X754910Y528210D02*
X760560D01*
X754910Y523998D02*
X1052690D01*
X760560Y535998D02*
X1052690D01*
X754830Y564290D02*
X760560D01*
Y541998D02*
X1052690D01*
X754830Y565998D02*
X1052690D01*
X760560Y528210D02*
Y545790D01*
Y529998D02*
X1052690D01*
X760560Y546710D02*
Y564290D01*
Y559998D02*
X1052690D01*
X760560Y547998D02*
X1052690D01*
X760560Y553998D02*
X1052690D01*
X754830Y564290D02*
Y593040D01*
Y571998D02*
X1052690D01*
X754830Y593040D02*
X756510D01*
X757998Y608920D02*
Y638210D01*
X756990Y593040D02*
X770790D01*
X756990Y608920D02*
X770790D01*
X757998Y564290D02*
Y593040D01*
X770790D02*
Y608920D01*
X763998D02*
Y703790D01*
X769998Y608920D02*
Y703790D01*
X754910Y517999D02*
X1052690D01*
X1062310Y523998D02*
X1250189D01*
X1062310Y535998D02*
X1250189D01*
X754830Y577998D02*
X1052690D01*
X1062310Y541998D02*
X1250189D01*
X1062310Y547998D02*
X1250189D01*
X1062310Y559998D02*
X1250189D01*
X1062310Y529998D02*
X1250189D01*
X1062310Y553998D02*
X1250189D01*
X1062310Y577998D02*
X1250189D01*
X1062310Y583998D02*
X1250189D01*
X1062310Y565998D02*
X1250189D01*
X1062310Y571998D02*
X1250189D01*
X754830Y589998D02*
X1052690D01*
X1062310Y595998D02*
X1076244D01*
X770790D02*
X1052690D01*
X770790Y601998D02*
X1052690D01*
X770790Y607998D02*
X1052690D01*
X1062310Y631998D02*
X1080486D01*
X1062310Y601998D02*
X1076933D01*
X1062310Y589998D02*
X1079314D01*
X1062310Y607998D02*
X1082940D01*
X1062310Y619998D02*
X1076569D01*
X1062310Y625998D02*
X1076462D01*
X1062310Y613998D02*
X1081019D01*
X1062310Y637998D02*
X1084015D01*
X754830Y674290D02*
Y703790D01*
X760560Y638210D02*
Y655790D01*
X754830Y674290D02*
X760560D01*
X754830Y685998D02*
X1052690D01*
X754830Y691998D02*
X1052690D01*
X754830Y697998D02*
X1053291D01*
X760560Y656710D02*
Y674290D01*
Y643998D02*
X1052690D01*
X760560Y649998D02*
X1052690D01*
X760560Y661998D02*
X1052690D01*
X760560Y667998D02*
X1052690D01*
X760560Y673998D02*
X1052690D01*
X757998Y674290D02*
Y703790D01*
X756990D02*
X770790D01*
X754830Y719670D02*
Y730528D01*
X756990Y719670D02*
X770790D01*
X757998D02*
Y733696D01*
X770790Y703790D02*
Y719670D01*
X763998D02*
Y739696D01*
X769998Y719670D02*
Y745696D01*
X1062310Y643998D02*
X1077097D01*
X1062310Y655998D02*
X1078955D01*
X1062310Y661998D02*
X1206199D01*
X1062310Y667998D02*
X1200200D01*
X770790Y703998D02*
X1059026D01*
X1062310Y649998D02*
X1076188D01*
X1062310Y673998D02*
X1194200D01*
X1062310Y679998D02*
X1188199D01*
X1066631Y697998D02*
X1170200D01*
X1072631Y703998D02*
X1164200D01*
X1062310Y685998D02*
X1182199D01*
X1062310Y691998D02*
X1176199D01*
X754830Y721998D02*
X1077026D01*
X754830Y727998D02*
X1083026D01*
X758300Y733998D02*
X1089026D01*
X764300Y739998D02*
X1095026D01*
X770210Y745908D02*
X1100936D01*
X768217Y755527D02*
X1102611D01*
X1057997Y702969D02*
Y745908D01*
X1062310Y693677D02*
X1101508Y732875D01*
X1054099Y699071D02*
X1100936Y745908D01*
X770790Y709998D02*
X1065026D01*
X1063997Y708969D02*
Y745908D01*
X770790Y715998D02*
X1071026D01*
X1069997Y714969D02*
Y745908D01*
X1081997Y607557D02*
Y613417D01*
X1098032Y595998D02*
X1101498D01*
X1094962Y589998D02*
X1101498D01*
Y586747D02*
Y608827D01*
X1097343Y601998D02*
X1101498D01*
X1087997Y608794D02*
Y612181D01*
X1091335Y607998D02*
X1101498D01*
X1105997Y608827D02*
Y614293D01*
X1081997Y632957D02*
Y638817D01*
X1093997Y606438D02*
Y614537D01*
X1097707Y619998D02*
X1101969D01*
X1097814Y625998D02*
X1101862D01*
X1087997Y634194D02*
Y637581D01*
X1093997Y631838D02*
Y639937D01*
X1093790Y631998D02*
X1105886D01*
X1105997Y632081D02*
Y639693D01*
X1101498Y586747D02*
X1123578D01*
X1111997Y608827D02*
Y612161D01*
X1101498Y608827D02*
X1123578D01*
Y586747D02*
Y608827D01*
Y589998D02*
X1250189D01*
X1123578Y595998D02*
X1250189D01*
X1117997Y608827D02*
Y613592D01*
X1123578Y601998D02*
X1250189D01*
X1123578Y607998D02*
X1250189D01*
X1093257Y613998D02*
X1106419D01*
X1123107Y619998D02*
X1248199D01*
X1118657Y613998D02*
X1250189D01*
X1147690Y720508D02*
X1250189Y618008D01*
X1119190Y631998D02*
X1236199D01*
X1117997Y632783D02*
Y638992D01*
X1123214Y625998D02*
X1242199D01*
X1153084Y728719D02*
X1258401Y623402D01*
X1081997Y658357D02*
Y713365D01*
X1097179Y643998D02*
X1102497D01*
X1111997Y634214D02*
Y637561D01*
X1090261Y637998D02*
X1109415D01*
X1098087Y649998D02*
X1101588D01*
X1095321Y655998D02*
X1104355D01*
X1111997Y659614D02*
Y714277D01*
X1105997Y657481D02*
Y714277D01*
X1075997Y720969D02*
Y745908D01*
X1084631Y715998D02*
X1101508D01*
X1087997Y659594D02*
Y719365D01*
X1081997Y726969D02*
Y745908D01*
X1090631Y721998D02*
X1101508D01*
X1087997Y732969D02*
Y745908D01*
X1093997Y657238D02*
Y725365D01*
X1096631Y727998D02*
X1101508D01*
Y714277D02*
Y732875D01*
X1093997Y738969D02*
Y745908D01*
X1105997Y759604D02*
Y767231D01*
X1111997Y736357D02*
Y739691D01*
X1104990Y736357D02*
X1108922Y740290D01*
X1078631Y709998D02*
X1158200D01*
X1101508Y714277D02*
X1123588D01*
X1115661Y637998D02*
X1230199D01*
X1122579Y643998D02*
X1224199D01*
X1117997Y658183D02*
Y714277D01*
X1123588Y715998D02*
X1152200D01*
X1123487Y649998D02*
X1218199D01*
X1120721Y655998D02*
X1212199D01*
X1104990Y736357D02*
X1123588D01*
X1111997Y761744D02*
Y765091D01*
X1117997Y760319D02*
Y766516D01*
X1123588Y714277D02*
Y720508D01*
X1147690D01*
X1123588Y730127D02*
Y736357D01*
X1117997D02*
Y741116D01*
X1123588Y730127D02*
X1149682D01*
X799998Y755527D02*
Y1490000D01*
X823998Y755527D02*
Y1241039D01*
X817998Y755527D02*
Y1243737D01*
X775998Y755527D02*
Y1490000D01*
X793998Y755527D02*
Y1490000D01*
X787998Y755527D02*
Y1490000D01*
X829998Y755527D02*
Y1242729D01*
X847998Y755527D02*
Y1215620D01*
X841998Y755527D02*
Y1215620D01*
X853998Y755527D02*
Y1215620D01*
X840620D02*
Y1234380D01*
Y1215620D02*
X859380D01*
Y1234380D01*
X757998Y747300D02*
Y1490000D01*
X769998Y755527D02*
Y1490000D01*
X763998Y753300D02*
Y1490000D01*
X781998Y755527D02*
Y1490000D01*
X811998Y755527D02*
Y1490000D01*
X805998Y755527D02*
Y1490000D01*
X877998Y755527D02*
Y1490000D01*
X889998Y755527D02*
Y1490000D01*
X883998Y755527D02*
Y1490000D01*
X859998Y755527D02*
Y1490000D01*
X835998Y755527D02*
Y1490000D01*
X871998Y755527D02*
Y1490000D01*
X865998Y755527D02*
Y1490000D01*
X931998Y755527D02*
Y1490000D01*
X943998Y755527D02*
Y1490000D01*
X937998Y755527D02*
Y1490000D01*
X895998Y755527D02*
Y1490000D01*
X925998Y755527D02*
Y1490000D01*
X901998Y755527D02*
Y1490000D01*
X967998Y755527D02*
Y1243737D01*
X973997Y755527D02*
Y1241039D01*
X979997Y755527D02*
Y1242729D01*
X991998Y755527D02*
Y1215620D01*
X990620D02*
Y1234380D01*
X1003997Y755527D02*
Y1215620D01*
X997998Y755527D02*
Y1215620D01*
X949998Y755527D02*
Y1490000D01*
X961998Y755527D02*
Y1490000D01*
X955998Y755527D02*
Y1490000D01*
X907998Y755527D02*
Y1490000D01*
X919998Y755527D02*
Y1490000D01*
X913998Y755527D02*
Y1490000D01*
X1027997Y755527D02*
Y1490000D01*
X1039997Y755527D02*
Y1490000D01*
X1033997Y755527D02*
Y1490000D01*
X1009997Y755527D02*
Y1490000D01*
X985997Y755527D02*
Y1490000D01*
X1021997Y755527D02*
Y1490000D01*
X1015997Y755527D02*
Y1490000D01*
X831455Y1243997D02*
X967745D01*
X840620Y1234380D02*
X859380D01*
X833971Y1249997D02*
X965229D01*
X832127Y1255997D02*
X967073D01*
X817998Y1257063D02*
Y1490000D01*
X841998Y1234380D02*
Y1270906D01*
X829998Y1258071D02*
Y1490000D01*
X823998Y1259761D02*
Y1490000D01*
X841998Y1280694D02*
Y1490000D01*
X847998Y1234380D02*
Y1266636D01*
X853998Y1234380D02*
Y1267315D01*
X967998Y1257063D02*
Y1490000D01*
X853998Y1284285D02*
Y1490000D01*
X847998Y1284964D02*
Y1490000D01*
X979997Y1258072D02*
Y1490000D01*
X973997Y1259761D02*
Y1490000D01*
X859380Y1231997D02*
X990620D01*
X859380Y1219997D02*
X990620D01*
X859380Y1225997D02*
X990620D01*
X981455Y1243997D02*
X1117745D01*
X982127Y1255997D02*
X1117073D01*
X1009380Y1215620D02*
Y1234380D01*
X990620Y1215620D02*
X1009380D01*
Y1219997D02*
X1140620D01*
X990620Y1234380D02*
X1009380D01*
X983971Y1249997D02*
X1115229D01*
X1009380Y1225997D02*
X1140620D01*
X1009380Y1231997D02*
X1140620D01*
X991998Y1234380D02*
Y1270907D01*
X855206Y1267997D02*
X994795D01*
X859205Y1273997D02*
X990795D01*
X858389Y1279997D02*
X991611D01*
X991998Y1280693D02*
Y1490000D01*
X997998Y1234380D02*
Y1266636D01*
X1003997Y1234380D02*
Y1267314D01*
X1005206Y1267997D02*
X1144795D01*
X1003997Y1284286D02*
Y1490000D01*
X997998Y1284964D02*
Y1490000D01*
X1009205Y1273997D02*
X1140795D01*
X1008389Y1279997D02*
X1141611D01*
X1105997Y785004D02*
Y792631D01*
X1111997Y787144D02*
Y790491D01*
X1105997Y810404D02*
Y818031D01*
Y835804D02*
Y843431D01*
Y861204D02*
Y868831D01*
X1111997Y812544D02*
Y815891D01*
X1117997Y785719D02*
Y791916D01*
Y811119D02*
Y817316D01*
X1111997Y837944D02*
Y841291D01*
Y863344D02*
Y866691D01*
X1117997Y836519D02*
Y842716D01*
Y861919D02*
Y868116D01*
X1063997Y755527D02*
Y1490000D01*
X1075997Y755527D02*
Y1490000D01*
X1069997Y755527D02*
Y1490000D01*
X1045997Y755527D02*
Y1490000D01*
X1057997Y755527D02*
Y1490000D01*
X1051997Y755527D02*
Y1490000D01*
X1081997Y755527D02*
Y1490000D01*
X1093997Y755527D02*
Y1490000D01*
X1087997Y755527D02*
Y1490000D01*
X1105997Y886604D02*
Y894231D01*
X1099997Y755527D02*
Y1490000D01*
X1111997Y888744D02*
Y892091D01*
X1117997Y887319D02*
Y893516D01*
X1123997Y730127D02*
Y1241039D01*
X1129997Y730127D02*
Y1242728D01*
X1135997Y730127D02*
Y1370230D01*
X1165997Y715805D02*
Y1490000D01*
X1177997Y703805D02*
Y1490000D01*
X1171997Y709805D02*
Y1490000D01*
X1147997Y730127D02*
Y1215620D01*
X1141997Y730127D02*
Y1215620D01*
X1153997Y727805D02*
Y1215620D01*
X1159997Y721805D02*
Y1362058D01*
X1201997Y679805D02*
Y1490000D01*
X1213997Y667805D02*
Y1490000D01*
X1207997Y673805D02*
Y1490000D01*
X1183997Y697805D02*
Y1490000D01*
X1195997Y685805D02*
Y1490000D01*
X1189997Y691805D02*
Y1490000D01*
X1243997Y637805D02*
Y1490000D01*
X1255997Y625805D02*
Y1490000D01*
X1249997Y631805D02*
Y1490000D01*
X1225997Y655805D02*
Y1490000D01*
X1219997Y661805D02*
Y1490000D01*
X1237997Y643805D02*
Y1490000D01*
X1231997Y649805D02*
Y1490000D01*
X1117997Y912719D02*
Y1243738D01*
X1123997Y1259761D02*
Y1362140D01*
X1129997Y1258072D02*
Y1363090D01*
X1105997Y912004D02*
Y1490000D01*
X1117997Y1257062D02*
Y1364851D01*
X1111997Y914144D02*
Y1490000D01*
X1117997Y1381346D02*
Y1490000D01*
X1135932Y1369997D02*
X1139696D01*
X1123997Y1384057D02*
Y1490000D01*
X1135997Y1375967D02*
Y1490000D01*
X1129997Y1383106D02*
Y1490000D01*
X1140620Y1215620D02*
Y1234380D01*
Y1215620D02*
X1159380D01*
X1140620Y1234380D02*
X1159380D01*
X1131585Y1363997D02*
X1139696D01*
Y1362058D02*
X1161776D01*
X1141997Y1234380D02*
Y1270907D01*
X1159380Y1215620D02*
Y1234380D01*
X1147997D02*
Y1266636D01*
Y1284964D02*
Y1362058D01*
X1141997Y1280693D02*
Y1362058D01*
X1153997Y1234380D02*
Y1267314D01*
Y1284286D02*
Y1362058D01*
X1139696D02*
Y1384138D01*
X1135989Y1375997D02*
X1139696D01*
X1131871Y1381997D02*
X1139696D01*
Y1384138D02*
X1161776D01*
X1141997D02*
Y1490000D01*
X1161776Y1362058D02*
Y1384138D01*
X1147997D02*
Y1490000D01*
X1159997Y1384138D02*
Y1490000D01*
X1153997Y1384138D02*
Y1490000D01*
X1259809Y529998D02*
X1316819D01*
X1259809Y517999D02*
X1322074D01*
X1259809Y523998D02*
X1317138D01*
X1259809Y535998D02*
X1320464D01*
X1259809Y541998D02*
X1379244D01*
X1259809Y547998D02*
X1380662D01*
X1333099Y517999D02*
X1379616D01*
X1381997Y523982D02*
Y534952D01*
X1334710Y535998D02*
X1381202D01*
X1338035Y523998D02*
X1382015D01*
X1387997Y553642D02*
Y558928D01*
X1259809Y571998D02*
X1379388D01*
X1259809Y559998D02*
X1385247D01*
X1259809Y565998D02*
X1380000D01*
X1259809Y601998D02*
X1380021D01*
X1259809Y577998D02*
X1382336D01*
X1259809Y589998D02*
X1382285D01*
X1381997Y549932D02*
Y562638D01*
X1387997Y581328D02*
Y586614D01*
X1381997Y577618D02*
Y590324D01*
X1259809Y595998D02*
X1379380D01*
X1381997Y605304D02*
Y618010D01*
X1259809Y607998D02*
X1385349D01*
X1387997Y609014D02*
Y614300D01*
X1386966Y525916D02*
X1394586D01*
X1338355Y529998D02*
X1407785D01*
X1259809Y553998D02*
X1407888D01*
X1259809Y583998D02*
X1407685D01*
X1393997Y525916D02*
Y531361D01*
X1399537Y523998D02*
X1408586D01*
X1387997Y525916D02*
Y531242D01*
X1393997Y553523D02*
Y559047D01*
X1396304Y559998D02*
X1408342D01*
X1399216Y577998D02*
X1409274D01*
X1259809Y613998D02*
X1389837D01*
X1393997Y581209D02*
Y586733D01*
X1399266Y589998D02*
X1409462D01*
X1393997Y608895D02*
Y614419D01*
X1399997Y604753D02*
Y618561D01*
X1396203Y607998D02*
X1408238D01*
X1391715Y613998D02*
X1407951D01*
X1255804Y625998D02*
X1379247D01*
X1249804Y631998D02*
X1381239D01*
X1237804Y643998D02*
X1381956D01*
X1231804Y649998D02*
X1379616D01*
X1225804Y655998D02*
X1379616D01*
X1219804Y661998D02*
X1381581D01*
X1259809Y619998D02*
X1380632D01*
X1381997Y632990D02*
Y643960D01*
X1379616Y649376D02*
Y656996D01*
X1171804Y709998D02*
X1379326D01*
X1183804Y697998D02*
X1386122D01*
X1177804Y703998D02*
X1380175D01*
X1123588Y733998D02*
X1379457D01*
X1165804Y715998D02*
X1381954D01*
X1153804Y727998D02*
X1382703D01*
X1201804Y679998D02*
X1379269D01*
X1381997Y662412D02*
Y673382D01*
X1207804Y673998D02*
X1381507D01*
X1195804Y685998D02*
X1380437D01*
X1381997Y688362D02*
Y701068D01*
X1189804Y691998D02*
X1387713D01*
X1381997Y716048D02*
Y728754D01*
X1387997Y636700D02*
Y642026D01*
X1243804Y637998D02*
X1408064D01*
X1386966Y642026D02*
X1394586D01*
X1387997Y664346D02*
Y669672D01*
X1386966Y664346D02*
X1394586D01*
X1213804Y667998D02*
X1407736D01*
X1393997Y636581D02*
Y642026D01*
X1399596Y643998D02*
X1408129D01*
X1393997Y664346D02*
Y669791D01*
X1399971Y661998D02*
X1408778D01*
X1393839Y691998D02*
X1407978D01*
X1387997Y692072D02*
Y697358D01*
Y719758D02*
Y725044D01*
X1159804Y721998D02*
X1407687D01*
X1393997Y691953D02*
Y697477D01*
X1395430Y697998D02*
X1408199D01*
X1399597Y715998D02*
X1409540D01*
X1393997Y719639D02*
Y725163D01*
X1398849Y727998D02*
X1409204D01*
X1399997Y523540D02*
Y535503D01*
X1401936Y517999D02*
X1414379D01*
X1400349Y535998D02*
X1410476D01*
X1399997Y549381D02*
Y563189D01*
X1400890Y547998D02*
X1411063D01*
X1401552Y565998D02*
X1413196D01*
X1411997Y537469D02*
Y547161D01*
X1417997Y539947D02*
Y544683D01*
X1423997Y538979D02*
Y545651D01*
X1417997Y567633D02*
Y572369D01*
X1411997Y565155D02*
Y574847D01*
X1423997Y566665D02*
Y573337D01*
X1429997Y560296D02*
Y579706D01*
X1399997Y577067D02*
Y590875D01*
X1401531Y601998D02*
X1412719D01*
X1411997Y592841D02*
Y602533D01*
X1400920Y619998D02*
X1411384D01*
X1411997Y620527D02*
Y628899D01*
X1417997Y595319D02*
Y600055D01*
X1423997Y594351D02*
Y601023D01*
X1417997Y623005D02*
Y628056D01*
X1415414D02*
X1423034D01*
X1423997Y622037D02*
Y628119D01*
X1424069Y517999D02*
X1490000D01*
X1402307Y541998D02*
X1490000D01*
X1402163Y571998D02*
X1490000D01*
X1427384Y547998D02*
X1490000D01*
X1425252Y565998D02*
X1490000D01*
X1429997Y532610D02*
Y552020D01*
X1429861Y523998D02*
X1490000D01*
X1430663Y529998D02*
X1490000D01*
X1430106Y559998D02*
X1490000D01*
X1429174Y577998D02*
X1490000D01*
X1427972Y535998D02*
X1490000D01*
X1430560Y553998D02*
X1490000D01*
X1402172Y595998D02*
X1490000D01*
X1425729Y601998D02*
X1490000D01*
X1402305Y625998D02*
X1490000D01*
X1429997Y587982D02*
Y607392D01*
X1430763Y583998D02*
X1490000D01*
X1428986Y589998D02*
X1490000D01*
X1430210Y607998D02*
X1490000D01*
X1429997Y615668D02*
Y633052D01*
X1430497Y613998D02*
X1490000D01*
X1427063Y619998D02*
X1490000D01*
X1399997Y632439D02*
Y644401D01*
X1400312Y631998D02*
X1408902D01*
X1401936Y649376D02*
Y656996D01*
Y649998D02*
X1413088D01*
X1401936Y655998D02*
X1415445D01*
X1408064Y635406D02*
Y643026D01*
X1429997Y645380D02*
Y662764D01*
X1417997Y650376D02*
Y655427D01*
X1411997Y649533D02*
Y657905D01*
X1415414Y650376D02*
X1423034D01*
X1423997Y650313D02*
Y656395D01*
X1399997Y661971D02*
Y673933D01*
X1400045Y673998D02*
X1410123D01*
X1401115Y685998D02*
X1411518D01*
X1399997Y687811D02*
Y701619D01*
X1401377Y703998D02*
X1412544D01*
X1399997Y715497D02*
Y729305D01*
X1411997Y675899D02*
Y685591D01*
X1417997Y678377D02*
Y683113D01*
X1423997Y677409D02*
Y684081D01*
X1417997Y706063D02*
Y710799D01*
X1411997Y703585D02*
Y713277D01*
X1423997Y705095D02*
Y711767D01*
X1417997Y733749D02*
Y738485D01*
X1425360Y649998D02*
X1490000D01*
X1423003Y655998D02*
X1490000D01*
X1402283Y679998D02*
X1490000D01*
X1430384Y635406D02*
Y643026D01*
X1429546Y631998D02*
X1490000D01*
X1430384Y637998D02*
X1490000D01*
X1430712Y667998D02*
X1490000D01*
X1428324Y673998D02*
X1490000D01*
X1430319Y643998D02*
X1490000D01*
X1429670Y661998D02*
X1490000D01*
X1426930Y685998D02*
X1490000D01*
X1425904Y703998D02*
X1490000D01*
X1402226Y709998D02*
X1490000D01*
X1402095Y733998D02*
X1490000D01*
X1429997Y671040D02*
Y690450D01*
X1430470Y691998D02*
X1490000D01*
X1430249Y697998D02*
X1490000D01*
X1428908Y715998D02*
X1490000D01*
X1429997Y698726D02*
Y718136D01*
X1430761Y721998D02*
X1490000D01*
X1429244Y727998D02*
X1490000D01*
X1115189Y739998D02*
X1379863D01*
X1122528Y745998D02*
X1384609D01*
X1120847Y757998D02*
X1380877D01*
X1120631Y793998D02*
X1379616D01*
X1121737Y769998D02*
X1380960D01*
X1121891Y781998D02*
X1382462D01*
X1381997Y743734D02*
Y756440D01*
Y771420D02*
Y782390D01*
X1379616Y787806D02*
Y795426D01*
X1123483Y799998D02*
X1381211D01*
X1381997Y800842D02*
Y811812D01*
X1119053Y817998D02*
X1379310D01*
X1116018Y811998D02*
X1381842D01*
X1123149Y829998D02*
X1386443D01*
X1122708Y847998D02*
X1379280D01*
X1118827Y835998D02*
X1387256D01*
X1116470Y841998D02*
X1380371D01*
X1321997Y537084D02*
Y1490000D01*
X1333997Y536552D02*
Y1490000D01*
X1327997Y538596D02*
Y1490000D01*
X1123195Y823998D02*
X1380235D01*
X1123459Y853998D02*
X1381609D01*
X1381997Y826792D02*
Y839498D01*
Y854478D02*
Y867184D01*
X1387997Y747444D02*
Y752730D01*
X1123513Y751998D02*
X1407865D01*
X1386966Y780456D02*
X1394586D01*
X1123587Y775998D02*
X1408064D01*
X1396943Y745998D02*
X1408385D01*
X1393997Y747325D02*
Y752849D01*
Y775011D02*
Y780456D01*
X1387997Y775130D02*
Y780456D01*
X1399090Y781998D02*
X1408084D01*
X1387997Y802776D02*
Y808102D01*
X1386966Y802776D02*
X1394586D01*
X1122638Y805998D02*
X1407703D01*
X1387997Y858188D02*
Y863474D01*
X1393997Y802776D02*
Y808221D01*
X1395108Y829998D02*
X1408086D01*
X1387997Y830502D02*
Y835788D01*
X1393997Y830383D02*
Y835907D01*
X1394296Y835998D02*
X1408075D01*
X1393997Y858069D02*
Y863593D01*
X1121991Y871998D02*
X1379550D01*
X1123584Y877998D02*
X1379725D01*
X1381997Y882164D02*
Y1086929D01*
X1121628Y883998D02*
X1383976D01*
X1387997Y955393D02*
Y1082051D01*
X1393997Y885755D02*
Y925067D01*
X1387997Y885874D02*
Y930608D01*
X1393997Y960934D02*
Y1082051D01*
X1382631Y1087997D02*
X1387196D01*
X1363997Y1099705D02*
Y1490000D01*
X1375997Y1103669D02*
Y1490000D01*
X1369997Y1103760D02*
Y1490000D01*
X1387196Y1082051D02*
Y1104131D01*
X1383839Y1093997D02*
X1387196D01*
X1381450Y1099997D02*
X1387196D01*
X1381997Y1099253D02*
Y1490000D01*
X1393997Y1104131D02*
Y1490000D01*
X1387997Y1104131D02*
Y1490000D01*
X1120479Y859998D02*
X1407706D01*
X1120985Y895998D02*
X1490000D01*
X1114419Y913998D02*
X1490000D01*
X1123531Y901998D02*
X1490000D01*
X1122451Y907998D02*
X1490000D01*
X1398385Y865998D02*
X1408970D01*
X1397576Y883998D02*
X1490000D01*
X1387196Y1082051D02*
X1409276D01*
X1387196Y1104131D02*
X1409276D01*
X1132127Y1255997D02*
X1490000D01*
X1131455Y1243997D02*
X1490000D01*
X1133971Y1249997D02*
X1490000D01*
X1158389Y1279997D02*
X1490000D01*
X1155206Y1267997D02*
X1490000D01*
X1159205Y1273997D02*
X1490000D01*
X1159380Y1231997D02*
X1490000D01*
X1159380Y1219997D02*
X1490000D01*
X1159380Y1225997D02*
X1490000D01*
X1161776Y1375997D02*
X1490000D01*
X1161776Y1381997D02*
X1490000D01*
X1161776Y1363997D02*
X1490000D01*
X1161776Y1369997D02*
X1490000D01*
X1399997Y743183D02*
Y756991D01*
X1401688Y739998D02*
X1413399D01*
X1400592Y769998D02*
X1409146D01*
X1400674Y757998D02*
X1410944D01*
X1411997Y731271D02*
Y740963D01*
X1417997Y761435D02*
Y766486D01*
X1411997Y758957D02*
Y767329D01*
X1415414Y766486D02*
X1423034D01*
X1423997Y760467D02*
Y766549D01*
X1399997Y770869D02*
Y782831D01*
X1401936Y787998D02*
X1412063D01*
X1401936Y793998D02*
X1417054D01*
X1399997Y800400D02*
Y812363D01*
X1400341Y799998D02*
X1408991D01*
X1399710Y811998D02*
X1409804D01*
X1401936Y787806D02*
Y795426D01*
X1408064Y773836D02*
Y781456D01*
X1411997Y787963D02*
Y796335D01*
Y814329D02*
Y824021D01*
X1415414Y788806D02*
X1423034D01*
X1417997D02*
Y793857D01*
X1423997Y732781D02*
Y739453D01*
X1425049Y739998D02*
X1490000D01*
X1402316Y763998D02*
X1490000D01*
X1429997Y726412D02*
Y745822D01*
X1430062Y745998D02*
X1490000D01*
X1430582Y751998D02*
X1490000D01*
X1427504Y757998D02*
X1490000D01*
X1429997Y754098D02*
Y771482D01*
X1429302Y769998D02*
X1490000D01*
X1430384Y775998D02*
X1490000D01*
X1423997Y788743D02*
Y794825D01*
X1426384Y787998D02*
X1490000D01*
X1423997Y815839D02*
Y822511D01*
X1421394Y793998D02*
X1490000D01*
X1429997Y783810D02*
Y801194D01*
X1430384Y773836D02*
Y781456D01*
X1430364Y781998D02*
X1490000D01*
X1429457Y799998D02*
X1490000D01*
X1429997Y809470D02*
Y828880D01*
X1430745Y805998D02*
X1490000D01*
X1428644Y811998D02*
X1490000D01*
X1399997Y826241D02*
Y840049D01*
X1401317Y823998D02*
X1412026D01*
X1401181Y841998D02*
X1411976D01*
X1399997Y853927D02*
Y867735D01*
X1399943Y853998D02*
X1409832D01*
X1399997Y881613D02*
Y922563D01*
X1411997Y842015D02*
Y851707D01*
X1417997Y816807D02*
Y821543D01*
X1423997Y843525D02*
Y850197D01*
X1402001Y871998D02*
X1416853D01*
X1411997Y869701D02*
Y923157D01*
X1417997Y844493D02*
Y849229D01*
Y872179D02*
Y926454D01*
X1399997Y963437D02*
Y1082051D01*
X1400000Y1400000D02*
Y1490000D01*
X1399997Y1104131D02*
Y1490000D01*
X1417997Y959546D02*
Y1400000D01*
X1423997Y871211D02*
Y933955D01*
Y952045D02*
Y1400000D01*
X1405997Y964016D02*
Y1082051D01*
Y1104131D02*
Y1400000D01*
X1409276Y1082051D02*
Y1104131D01*
X1411997Y962842D02*
Y1400000D01*
X1402242Y817998D02*
X1490000D01*
X1426422Y823998D02*
X1490000D01*
X1402272Y847998D02*
X1490000D01*
X1421595Y871998D02*
X1490000D01*
X1429997Y837156D02*
Y856566D01*
X1430362Y829998D02*
X1490000D01*
X1430372Y835998D02*
X1490000D01*
X1430742Y859998D02*
X1490000D01*
X1429478Y865998D02*
X1490000D01*
X1426472Y841998D02*
X1490000D01*
X1428615Y853998D02*
X1490000D01*
X1409276Y1087997D02*
X1490000D01*
X1401827Y877998D02*
X1490000D01*
X1414043Y961998D02*
X1490000D01*
X1400000Y1400000D02*
X1490000D01*
X1409276Y1093997D02*
X1490000D01*
X1409276Y1099997D02*
X1490000D01*
X1429997Y864842D02*
Y1400000D01*
X1417393Y925998D02*
X1490000D01*
X1422934Y931998D02*
X1490000D01*
X1424842Y949998D02*
X1490000D01*
X1421545Y955998D02*
X1490000D01*
X1425437Y937998D02*
X1490000D01*
X1426016Y943998D02*
X1490000D01*
D32*
X1150736Y1373098D02*
D03*
X400736D02*
D03*
X1398236Y1093091D02*
D03*
Y147504D02*
D03*
X1254999D02*
D03*
X1130001Y352096D02*
D03*
Y377496D02*
D03*
X897845Y301042D02*
D03*
Y275642D02*
D03*
Y326442D02*
D03*
Y351842D02*
D03*
Y377242D02*
D03*
X1130001Y326442D02*
D03*
Y301042D02*
D03*
Y275642D02*
D03*
X897845Y199442D02*
D03*
Y224842D02*
D03*
Y250242D02*
D03*
X1130001D02*
D03*
Y224842D02*
D03*
Y199442D02*
D03*
X120000Y195250D02*
D03*
X120000Y445000D02*
D03*
Y695000D02*
D03*
D33*
X1125336Y1373098D02*
D03*
X375336D02*
D03*
X224093Y887164D02*
D03*
X1372836Y1093091D02*
D03*
X224093Y92164D02*
D03*
X1372836Y147504D02*
D03*
X1087138Y648587D02*
D03*
Y623187D02*
D03*
Y597787D02*
D03*
X1112538Y648587D02*
D03*
Y623187D02*
D03*
X1112548Y903118D02*
D03*
Y877718D02*
D03*
Y852318D02*
D03*
Y826917D02*
D03*
Y801517D02*
D03*
Y776117D02*
D03*
Y750717D02*
D03*
X401818Y805777D02*
D03*
Y627977D02*
D03*
Y653377D02*
D03*
Y678777D02*
D03*
Y704177D02*
D03*
Y729577D02*
D03*
Y754977D02*
D03*
Y780377D02*
D03*
Y831177D02*
D03*
X1280399Y147504D02*
D03*
X120000Y170250D02*
D03*
X120000Y420000D02*
D03*
X1327587Y502164D02*
D03*
Y527564D02*
D03*
X120000Y670000D02*
D03*
D34*
X224093Y861764D02*
D03*
Y66764D02*
D03*
X1112538Y597787D02*
D03*
X1112548Y725318D02*
D03*
X401818Y856577D02*
D03*
X1327587Y476764D02*
D03*
D35*
X1124600Y1250400D02*
D03*
X1150000Y1275800D02*
D03*
X974600Y1250400D02*
D03*
X1000000Y1275800D02*
D03*
X683600Y295400D02*
D03*
X709000Y270000D02*
D03*
X850000Y1275800D02*
D03*
X824600Y1250400D02*
D03*
X700000Y1275800D02*
D03*
X674600Y1250400D02*
D03*
X550000Y1275800D02*
D03*
X524600Y1250400D02*
D03*
X400000Y1275800D02*
D03*
X374600Y1250400D02*
D03*
D36*
X1150000Y1225000D02*
D03*
X1000000D02*
D03*
X850000D02*
D03*
X700000D02*
D03*
X550000D02*
D03*
X400000D02*
D03*
D37*
X658200Y270000D02*
D03*
D38*
X81669Y1328204D02*
D03*
Y994956D02*
D03*
D39*
X107069Y1166660D02*
D03*
Y1189520D02*
D03*
Y1212380D02*
D03*
Y1235240D02*
D03*
Y1143800D02*
D03*
Y1120940D02*
D03*
Y1098080D02*
D03*
Y1258100D02*
D03*
X81669Y1063790D02*
D03*
X81669Y1086650D02*
D03*
X81669Y1109510D02*
D03*
Y1132370D02*
D03*
Y1155230D02*
D03*
Y1246670D02*
D03*
Y1223810D02*
D03*
Y1200950D02*
D03*
Y1178090D02*
D03*
X56269Y1075220D02*
D03*
Y1098080D02*
D03*
Y1120940D02*
D03*
Y1143800D02*
D03*
Y1235240D02*
D03*
Y1212380D02*
D03*
Y1189520D02*
D03*
Y1166660D02*
D03*
X1390776Y874674D02*
D03*
X1419224Y860704D02*
D03*
Y833018D02*
D03*
Y805332D02*
D03*
X1390776Y819302D02*
D03*
Y736244D02*
D03*
X1419224Y749960D02*
D03*
Y722274D02*
D03*
X1390776Y708558D02*
D03*
Y763930D02*
D03*
Y680872D02*
D03*
X1419224Y666902D02*
D03*
X1390776Y597814D02*
D03*
X1419224Y583844D02*
D03*
Y611530D02*
D03*
X1390776Y570128D02*
D03*
X1419224Y556158D02*
D03*
Y528472D02*
D03*
X1390776Y487070D02*
D03*
Y431698D02*
D03*
Y459384D02*
D03*
X1419224Y445414D02*
D03*
Y417728D02*
D03*
X1390776Y404012D02*
D03*
Y846988D02*
D03*
Y542442D02*
D03*
X1419224Y694588D02*
D03*
X1390776Y625500D02*
D03*
X1419224Y390042D02*
D03*
Y473100D02*
D03*
D40*
X107069Y1075220D02*
D03*
D41*
X418400Y47126D02*
D03*
X334050Y101351D02*
D03*
Y47126D02*
D03*
X418400Y101351D02*
D03*
X376225Y47126D02*
D03*
Y101351D02*
D03*
X1101000Y47770D02*
D03*
X1059000D02*
D03*
X1101000Y102000D02*
D03*
X1059000D02*
D03*
X751000Y47770D02*
D03*
X709000D02*
D03*
X751000Y102000D02*
D03*
X709000D02*
D03*
X50000Y1450000D02*
D03*
X1450000D02*
D03*
Y50000D02*
D03*
X50000D02*
D03*
D42*
X69000Y144250D02*
D03*
Y246250D02*
D03*
X69000Y394000D02*
D03*
Y496000D02*
D03*
Y746000D02*
D03*
Y644000D02*
D03*
D43*
X1390776Y791616D02*
D03*
Y653186D02*
D03*
X1419224Y639216D02*
D03*
Y500786D02*
D03*
X1390776Y514756D02*
D03*
X1419224Y777646D02*
D03*
D44*
X1390776Y376326D02*
D03*
D45*
X1405000Y943000D02*
D03*
Y308000D02*
D03*
D46*
X1172230Y74400D02*
D03*
Y60600D02*
D03*
D47*
X750100Y442170D02*
D03*
X789100D02*
D03*
D48*
X750020Y537000D02*
D03*
Y555500D02*
D03*
Y647000D02*
D03*
Y665500D02*
D03*
D49*
X763900Y495730D02*
D03*
X750100D02*
D03*
X763650Y600980D02*
D03*
X749850D02*
D03*
X763650Y711730D02*
D03*
X749850D02*
D03*
M02*
