M48
;Layer_Color=9474304
;FILE_FORMAT=4:4
METRIC,LZ
;TYPE=PLATED
T1F00S00C0.6600
T2F00S00C0.9000
T3F00S00C0.9652
T4F00S00C1.0000
T5F00S00C2.0000
T6F00S00C2.5000
T7F00S00C3.2000
;TYPE=NON_PLATED
T8F00S00C4.0000
%
T01
X006582Y0027
X006836Y002954
X00709Y0027
X009746Y012504
X01Y012758
Y01225
X011246Y012504
X0115Y012758
Y01225
X0085
Y012758
X008246Y012504
X007Y01225
Y012758
X006746Y012504
X0055Y01225
Y012758
X005246Y012504
X004Y01225
Y012758
X003746Y012504
T02
X00224093Y00066764
Y00092164
X01372836Y00147504
X01398236
X01280399
X01254999
X01327587Y00476764
Y00502164
Y00527564
X0012Y00445
Y0042
X0012Y0019525
Y0017025
X0012Y0067
Y00695
X00224093Y00861764
Y00887164
X00401818Y00856577
Y00831177
Y00805777
Y00780377
Y00754977
Y00729577
Y00704177
Y00678777
Y00653377
Y00627977
X01087138Y00623187
Y00648587
X01112538
Y00623187
Y00597787
X01087138
X01112548Y00725318
Y00750717
Y00776117
Y00801517
Y00826917
Y00852318
Y00877718
Y00903118
X01372836Y01093091
X01398236
X00400736Y01373098
X00375336
X01125336
X01150736
T03
X01390776Y00376326
Y00514756
X01419224Y00500786
Y00639216
X01390776Y00653186
Y00791616
X01419224Y00777646
T04
X01390776Y00404012
Y00431698
Y00459384
Y0048707
X01419224Y004731
Y00445414
Y00417728
Y00390042
Y00528472
X01390776Y00542442
X01130001Y00377496
Y00352096
Y00326442
Y00301042
Y00275642
Y00250242
Y00224842
Y00199442
X00897845
Y00224842
Y00250242
Y00275642
Y00301042
Y00326442
Y00351842
Y00377242
X01390776Y00570128
Y00597814
Y006255
X01419224Y0061153
Y00583844
Y00556158
Y00666902
Y00694588
Y00722274
Y0074996
X01390776Y00736244
Y00708558
Y00680872
Y0076393
Y00819302
Y00846988
Y00874674
X01419224Y00860704
Y00833018
Y00805332
X00107069Y0107522
Y0109808
Y0112094
Y011438
Y0116666
Y0118952
Y0121238
Y0123524
Y012581
X00081669Y0124667
Y0122381
Y0120095
Y0117809
Y0115523
Y0113237
Y0110951
X00081669Y0108665
X00081669Y0106379
X00056269Y0107522
Y0109808
Y0112094
Y011438
Y0116666
Y0118952
Y0121238
Y0123524
T05
X00069Y0014425
X0033405Y00101351
X00376225
X004184
Y00047126
X00376225
X0033405
X00709Y0004777
X00751
Y00102
X00709
X01059
X01101
Y0004777
X01059
X00069Y0024625
X00069Y00394
Y00496
Y00644
Y00746
T06
X01405Y00308
Y00943
T07
X00081669Y00994956
Y01328204
T08
X0005Y0005
X0145
X0005Y0145
X0145
M30
