G04*
G04 #@! TF.GenerationSoftware,Altium Limited,Altium Designer,18.0.9 (584)*
G04*
G04 Layer_Physical_Order=1*
G04 Layer_Color=255*
%FSLAX44Y44*%
%MOMM*%
G71*
G01*
G75*
%ADD11C,0.2540*%
%ADD31C,0.3810*%
%ADD32R,1.5000X1.5000*%
%ADD33C,1.5000*%
%ADD34R,1.5000X1.5000*%
%ADD35C,1.1680*%
%ADD36R,1.1680X1.1680*%
%ADD37R,1.1680X1.1680*%
%ADD38C,5.0000*%
%ADD39C,1.6000*%
%ADD40R,1.6000X1.6000*%
%ADD41C,3.0000*%
%ADD42C,3.3000*%
G04:AMPARAMS|DCode=43|XSize=1.524mm|YSize=1.524mm|CornerRadius=0.381mm|HoleSize=0mm|Usage=FLASHONLY|Rotation=90.000|XOffset=0mm|YOffset=0mm|HoleType=Round|Shape=RoundedRectangle|*
%AMROUNDEDRECTD43*
21,1,1.5240,0.7620,0,0,90.0*
21,1,0.7620,1.5240,0,0,90.0*
1,1,0.7620,0.3810,0.3810*
1,1,0.7620,0.3810,-0.3810*
1,1,0.7620,-0.3810,-0.3810*
1,1,0.7620,-0.3810,0.3810*
%
%ADD43ROUNDEDRECTD43*%
%ADD44C,1.5240*%
%ADD45C,3.5000*%
D11*
X1370464Y500786D02*
X1419224D01*
X1369086Y502164D02*
X1370464Y500786D01*
X1327587Y502164D02*
X1369086D01*
X120000Y445000D02*
X214750D01*
X286000Y516250D01*
Y616000D02*
X323377Y653377D01*
X286000Y516250D02*
Y616000D01*
X1116000Y352096D02*
X1130001D01*
X1109250Y358846D02*
X1116000Y352096D01*
X1109250Y358846D02*
Y401750D01*
X1209664Y502164D01*
X1327587D01*
X709000Y102000D02*
X709000Y102000D01*
X709000Y102000D02*
Y270000D01*
X323377Y653377D02*
X401818D01*
X1252500Y225000D02*
X1280399Y197101D01*
X1176458Y301042D02*
X1252500Y225000D01*
X1252342Y224842D02*
X1252500Y225000D01*
X1130001Y224842D02*
X1252342D01*
X1280399Y147504D02*
Y197101D01*
X1200000Y147500D02*
X1200004Y147504D01*
X1254999D01*
X1280399Y125399D02*
Y147504D01*
X1257000Y102000D02*
X1280399Y125399D01*
X1101000Y102000D02*
X1257000D01*
X1070500Y147500D02*
X1200000D01*
X1059000Y136000D02*
X1070500Y147500D01*
X1059000Y102000D02*
Y136000D01*
X1130001Y301042D02*
X1176458D01*
X405851Y17500D02*
X790000D01*
X376225Y47126D02*
X405851Y17500D01*
X550000Y1275800D02*
X582500Y1243300D01*
Y790000D02*
Y1243300D01*
X369000Y706750D02*
X384250Y691500D01*
X369000Y706750D02*
Y719250D01*
X379327Y729577D01*
X401818D01*
X384250Y691500D02*
X894250D01*
X1166750Y789250D02*
X1261250Y694750D01*
Y561750D02*
Y694750D01*
Y561750D02*
X1295436Y527564D01*
X1327587D01*
X1017500Y389584D02*
X1106042Y301042D01*
X1130001D01*
Y377496D02*
X1192996D01*
X1292264Y476764D01*
X1327587D01*
X1380264D01*
X1390570Y487070D01*
X1390776D01*
X1327587Y527564D02*
X1328495Y528472D01*
X1419224D01*
X1057117Y776117D02*
X1112548D01*
X1017500Y736500D02*
X1057117Y776117D01*
X1017500Y389584D02*
Y736500D01*
X992000Y789250D02*
X1166750D01*
X894250Y691500D02*
X992000Y789250D01*
X1112548Y877718D02*
X1167718D01*
X1192500Y902500D01*
Y1233300D01*
X1150000Y1275800D02*
X1192500Y1233300D01*
X1072682Y852318D02*
X1112548D01*
X1045000Y880000D02*
X1072682Y852318D01*
X1045000Y880000D02*
Y1230000D01*
X1000000Y1275000D02*
X1045000Y1230000D01*
X1000000Y1275000D02*
Y1275800D01*
X1018083Y826917D02*
X1112548D01*
X897500Y947500D02*
X1018083Y826917D01*
X897500Y947500D02*
Y1225000D01*
X850000Y1272500D02*
X897500Y1225000D01*
X850000Y1272500D02*
Y1275800D01*
X903483Y801517D02*
X1112548D01*
X745000Y960000D02*
X903483Y801517D01*
X745000Y960000D02*
Y1230800D01*
X700000Y1275800D02*
X745000Y1230800D01*
X496677Y704177D02*
X582500Y790000D01*
X401818Y704177D02*
X496677D01*
X574270Y182500D02*
X709000Y47770D01*
X574270Y182500D02*
Y540730D01*
X436223Y678777D02*
X574270Y540730D01*
X401818Y678777D02*
X436223D01*
X852500Y275642D02*
X897845D01*
X825000Y248142D02*
X852500Y275642D01*
X825000Y52500D02*
Y248142D01*
X790000Y17500D02*
X825000Y52500D01*
D31*
X434130Y789902D02*
X444600Y800372D01*
X411343Y789902D02*
X434130D01*
X401818Y780377D02*
X411343Y789902D01*
X107069Y1235240D02*
X115324Y1226985D01*
X148880D01*
X431500Y796252D02*
X438250Y803002D01*
X411343Y796252D02*
X431500D01*
X401818Y805777D02*
X411343Y796252D01*
X107069Y1212380D02*
X115324Y1220635D01*
X146250D01*
X438250Y928635D01*
X444600Y800372D02*
Y931265D01*
X148880Y1226985D02*
X444600Y931265D01*
X438250Y803002D02*
Y928635D01*
D32*
X1150736Y1373098D02*
D03*
X400736D02*
D03*
X1398236Y1093091D02*
D03*
Y147504D02*
D03*
X1254999D02*
D03*
X1130001Y352096D02*
D03*
Y377496D02*
D03*
X897845Y301042D02*
D03*
Y275642D02*
D03*
Y326442D02*
D03*
Y351842D02*
D03*
Y377242D02*
D03*
X1130001Y326442D02*
D03*
Y301042D02*
D03*
Y275642D02*
D03*
X897845Y199442D02*
D03*
Y224842D02*
D03*
Y250242D02*
D03*
X1130001D02*
D03*
Y224842D02*
D03*
Y199442D02*
D03*
X120000Y195250D02*
D03*
X120000Y445000D02*
D03*
Y695000D02*
D03*
D33*
X1125336Y1373098D02*
D03*
X375336D02*
D03*
X224093Y887164D02*
D03*
X1372836Y1093091D02*
D03*
X224093Y92164D02*
D03*
X1372836Y147504D02*
D03*
X1087138Y648587D02*
D03*
Y623187D02*
D03*
Y597787D02*
D03*
X1112538Y648587D02*
D03*
Y623187D02*
D03*
X1112548Y903118D02*
D03*
Y877718D02*
D03*
Y852318D02*
D03*
Y826917D02*
D03*
Y801517D02*
D03*
Y776117D02*
D03*
Y750717D02*
D03*
X401818Y805777D02*
D03*
Y627977D02*
D03*
Y653377D02*
D03*
Y678777D02*
D03*
Y704177D02*
D03*
Y729577D02*
D03*
Y754977D02*
D03*
Y780377D02*
D03*
Y831177D02*
D03*
X1280399Y147504D02*
D03*
X120000Y170250D02*
D03*
X120000Y420000D02*
D03*
X1327587Y502164D02*
D03*
Y527564D02*
D03*
X120000Y670000D02*
D03*
D34*
X224093Y861764D02*
D03*
Y66764D02*
D03*
X1112538Y597787D02*
D03*
X1112548Y725318D02*
D03*
X401818Y856577D02*
D03*
X1327587Y476764D02*
D03*
D35*
X1124600Y1250400D02*
D03*
X1150000Y1275800D02*
D03*
X974600Y1250400D02*
D03*
X1000000Y1275800D02*
D03*
X683600Y295400D02*
D03*
X709000Y270000D02*
D03*
X850000Y1275800D02*
D03*
X824600Y1250400D02*
D03*
X700000Y1275800D02*
D03*
X674600Y1250400D02*
D03*
X550000Y1275800D02*
D03*
X524600Y1250400D02*
D03*
X400000Y1275800D02*
D03*
X374600Y1250400D02*
D03*
D36*
X1150000Y1225000D02*
D03*
X1000000D02*
D03*
X850000D02*
D03*
X700000D02*
D03*
X550000D02*
D03*
X400000D02*
D03*
D37*
X658200Y270000D02*
D03*
D38*
X81669Y1328204D02*
D03*
Y994956D02*
D03*
D39*
X107069Y1166660D02*
D03*
Y1189520D02*
D03*
Y1212380D02*
D03*
Y1235240D02*
D03*
Y1143800D02*
D03*
Y1120940D02*
D03*
Y1098080D02*
D03*
Y1258100D02*
D03*
X81669Y1063790D02*
D03*
X81669Y1086650D02*
D03*
X81669Y1109510D02*
D03*
Y1132370D02*
D03*
Y1155230D02*
D03*
Y1246670D02*
D03*
Y1223810D02*
D03*
Y1200950D02*
D03*
Y1178090D02*
D03*
X56269Y1075220D02*
D03*
Y1098080D02*
D03*
Y1120940D02*
D03*
Y1143800D02*
D03*
Y1235240D02*
D03*
Y1212380D02*
D03*
Y1189520D02*
D03*
Y1166660D02*
D03*
X1390776Y874674D02*
D03*
X1419224Y860704D02*
D03*
Y833018D02*
D03*
Y805332D02*
D03*
X1390776Y819302D02*
D03*
Y736244D02*
D03*
X1419224Y749960D02*
D03*
Y722274D02*
D03*
X1390776Y708558D02*
D03*
Y763930D02*
D03*
Y680872D02*
D03*
X1419224Y666902D02*
D03*
X1390776Y597814D02*
D03*
X1419224Y583844D02*
D03*
Y611530D02*
D03*
X1390776Y570128D02*
D03*
X1419224Y556158D02*
D03*
Y528472D02*
D03*
X1390776Y487070D02*
D03*
Y431698D02*
D03*
Y459384D02*
D03*
X1419224Y445414D02*
D03*
Y417728D02*
D03*
X1390776Y404012D02*
D03*
Y846988D02*
D03*
Y542442D02*
D03*
X1419224Y694588D02*
D03*
X1390776Y625500D02*
D03*
X1419224Y390042D02*
D03*
Y473100D02*
D03*
D40*
X107069Y1075220D02*
D03*
D41*
X418400Y47126D02*
D03*
X334050Y101351D02*
D03*
Y47126D02*
D03*
X418400Y101351D02*
D03*
X376225Y47126D02*
D03*
Y101351D02*
D03*
X1101000Y47770D02*
D03*
X1059000D02*
D03*
X1101000Y102000D02*
D03*
X1059000D02*
D03*
X751000Y47770D02*
D03*
X709000D02*
D03*
X751000Y102000D02*
D03*
X709000D02*
D03*
X50000Y1450000D02*
D03*
X1450000D02*
D03*
Y50000D02*
D03*
X50000D02*
D03*
D42*
X69000Y144250D02*
D03*
Y246250D02*
D03*
X69000Y394000D02*
D03*
Y496000D02*
D03*
Y746000D02*
D03*
Y644000D02*
D03*
D43*
X1390776Y791616D02*
D03*
Y653186D02*
D03*
X1419224Y639216D02*
D03*
Y500786D02*
D03*
X1390776Y514756D02*
D03*
X1419224Y777646D02*
D03*
D44*
X1390776Y376326D02*
D03*
D45*
X1405000Y943000D02*
D03*
Y308000D02*
D03*
M02*
