G04*
G04 #@! TF.GenerationSoftware,Altium Limited,Altium Designer,18.0.9 (584)*
G04*
G04 Layer_Color=16711935*
%FSLAX44Y44*%
%MOMM*%
G71*
G01*
G75*
%ADD17R,1.7032X1.7032*%
%ADD18C,1.7032*%
%ADD19R,1.7032X1.7032*%
%ADD20C,1.3712*%
%ADD21R,1.3712X1.3712*%
%ADD22R,1.3712X1.3712*%
%ADD23C,5.2032*%
%ADD24C,1.8032*%
%ADD25R,1.8032X1.8032*%
%ADD26C,3.2032*%
%ADD27C,3.5032*%
G04:AMPARAMS|DCode=28|XSize=1.7272mm|YSize=1.7272mm|CornerRadius=0.4826mm|HoleSize=0mm|Usage=FLASHONLY|Rotation=90.000|XOffset=0mm|YOffset=0mm|HoleType=Round|Shape=RoundedRectangle|*
%AMROUNDEDRECTD28*
21,1,1.7272,0.7620,0,0,90.0*
21,1,0.7620,1.7272,0,0,90.0*
1,1,0.9652,0.3810,0.3810*
1,1,0.9652,0.3810,-0.3810*
1,1,0.9652,-0.3810,-0.3810*
1,1,0.9652,-0.3810,0.3810*
%
%ADD28ROUNDEDRECTD28*%
%ADD29C,1.7272*%
%ADD30C,3.7032*%
%ADD50R,1.0832X0.9232*%
%ADD51R,1.5032X3.4532*%
%ADD52R,1.6032X1.2532*%
%ADD53R,0.9232X1.0832*%
D17*
X1150736Y1373098D02*
D03*
X400736D02*
D03*
X1398236Y1093091D02*
D03*
Y147504D02*
D03*
X1254999D02*
D03*
X1130001Y352096D02*
D03*
Y377496D02*
D03*
X897845Y301042D02*
D03*
Y275642D02*
D03*
Y326442D02*
D03*
Y351842D02*
D03*
Y377242D02*
D03*
X1130001Y326442D02*
D03*
Y301042D02*
D03*
Y275642D02*
D03*
X897845Y199442D02*
D03*
Y224842D02*
D03*
Y250242D02*
D03*
X1130001D02*
D03*
Y224842D02*
D03*
Y199442D02*
D03*
X120000Y195250D02*
D03*
X120000Y445000D02*
D03*
Y695000D02*
D03*
D18*
X1125336Y1373098D02*
D03*
X375336D02*
D03*
X224093Y887164D02*
D03*
X1372836Y1093091D02*
D03*
X224093Y92164D02*
D03*
X1372836Y147504D02*
D03*
X1087138Y648587D02*
D03*
Y623187D02*
D03*
Y597787D02*
D03*
X1112538Y648587D02*
D03*
Y623187D02*
D03*
X1112548Y903118D02*
D03*
Y877718D02*
D03*
Y852318D02*
D03*
Y826917D02*
D03*
Y801517D02*
D03*
Y776117D02*
D03*
Y750717D02*
D03*
X401818Y805777D02*
D03*
Y627977D02*
D03*
Y653377D02*
D03*
Y678777D02*
D03*
Y704177D02*
D03*
Y729577D02*
D03*
Y754977D02*
D03*
Y780377D02*
D03*
Y831177D02*
D03*
X1280399Y147504D02*
D03*
X120000Y170250D02*
D03*
X120000Y420000D02*
D03*
X1327587Y502164D02*
D03*
Y527564D02*
D03*
X120000Y670000D02*
D03*
D19*
X224093Y861764D02*
D03*
Y66764D02*
D03*
X1112538Y597787D02*
D03*
X1112548Y725318D02*
D03*
X401818Y856577D02*
D03*
X1327587Y476764D02*
D03*
D20*
X1124600Y1250400D02*
D03*
X1150000Y1275800D02*
D03*
X974600Y1250400D02*
D03*
X1000000Y1275800D02*
D03*
X683600Y295400D02*
D03*
X709000Y270000D02*
D03*
X850000Y1275800D02*
D03*
X824600Y1250400D02*
D03*
X700000Y1275800D02*
D03*
X674600Y1250400D02*
D03*
X550000Y1275800D02*
D03*
X524600Y1250400D02*
D03*
X400000Y1275800D02*
D03*
X374600Y1250400D02*
D03*
D21*
X1150000Y1225000D02*
D03*
X1000000D02*
D03*
X850000D02*
D03*
X700000D02*
D03*
X550000D02*
D03*
X400000D02*
D03*
D22*
X658200Y270000D02*
D03*
D23*
X81669Y1328204D02*
D03*
Y994956D02*
D03*
D24*
X107069Y1166660D02*
D03*
Y1189520D02*
D03*
Y1212380D02*
D03*
Y1235240D02*
D03*
Y1143800D02*
D03*
Y1120940D02*
D03*
Y1098080D02*
D03*
Y1258100D02*
D03*
X81669Y1063790D02*
D03*
X81669Y1086650D02*
D03*
X81669Y1109510D02*
D03*
Y1132370D02*
D03*
Y1155230D02*
D03*
Y1246670D02*
D03*
Y1223810D02*
D03*
Y1200950D02*
D03*
Y1178090D02*
D03*
X56269Y1075220D02*
D03*
Y1098080D02*
D03*
Y1120940D02*
D03*
Y1143800D02*
D03*
Y1235240D02*
D03*
Y1212380D02*
D03*
Y1189520D02*
D03*
Y1166660D02*
D03*
X1390776Y874674D02*
D03*
X1419224Y860704D02*
D03*
Y833018D02*
D03*
Y805332D02*
D03*
X1390776Y819302D02*
D03*
Y736244D02*
D03*
X1419224Y749960D02*
D03*
Y722274D02*
D03*
X1390776Y708558D02*
D03*
Y763930D02*
D03*
Y680872D02*
D03*
X1419224Y666902D02*
D03*
X1390776Y597814D02*
D03*
X1419224Y583844D02*
D03*
Y611530D02*
D03*
X1390776Y570128D02*
D03*
X1419224Y556158D02*
D03*
Y528472D02*
D03*
X1390776Y487070D02*
D03*
Y431698D02*
D03*
Y459384D02*
D03*
X1419224Y445414D02*
D03*
Y417728D02*
D03*
X1390776Y404012D02*
D03*
Y846988D02*
D03*
Y542442D02*
D03*
X1419224Y694588D02*
D03*
X1390776Y625500D02*
D03*
X1419224Y390042D02*
D03*
Y473100D02*
D03*
D25*
X107069Y1075220D02*
D03*
D26*
X418400Y47126D02*
D03*
X334050Y101351D02*
D03*
Y47126D02*
D03*
X418400Y101351D02*
D03*
X376225Y47126D02*
D03*
Y101351D02*
D03*
X1101000Y47770D02*
D03*
X1059000D02*
D03*
X1101000Y102000D02*
D03*
X1059000D02*
D03*
X751000Y47770D02*
D03*
X709000D02*
D03*
X751000Y102000D02*
D03*
X709000D02*
D03*
X50000Y1450000D02*
D03*
X1450000D02*
D03*
Y50000D02*
D03*
X50000D02*
D03*
D27*
X69000Y144250D02*
D03*
Y246250D02*
D03*
X69000Y394000D02*
D03*
Y496000D02*
D03*
Y746000D02*
D03*
Y644000D02*
D03*
D28*
X1390776Y791616D02*
D03*
Y653186D02*
D03*
X1419224Y639216D02*
D03*
Y500786D02*
D03*
X1390776Y514756D02*
D03*
X1419224Y777646D02*
D03*
D29*
X1390776Y376326D02*
D03*
D30*
X1405000Y943000D02*
D03*
Y308000D02*
D03*
D50*
X1172230Y74400D02*
D03*
Y60600D02*
D03*
D51*
X750100Y442170D02*
D03*
X789100D02*
D03*
D52*
X750020Y537000D02*
D03*
Y555500D02*
D03*
Y647000D02*
D03*
Y665500D02*
D03*
D53*
X763900Y495730D02*
D03*
X750100D02*
D03*
X763650Y600980D02*
D03*
X749850D02*
D03*
X763650Y711730D02*
D03*
X749850D02*
D03*
M02*
