G04*
G04 #@! TF.GenerationSoftware,Altium Limited,Altium Designer,20.1.14 (287)*
G04*
G04 Layer_Physical_Order=2*
G04 Layer_Color=16711680*
%FSLAX42Y42*%
%MOMM*%
G71*
G04*
G04 #@! TF.SameCoordinates,C0F7CC4A-4C12-43CF-AD3A-5075A501ED9E*
G04*
G04*
G04 #@! TF.FilePolarity,Positive*
G04*
G01*
G75*
%ADD13C,0.40*%
%ADD29C,0.20*%
%ADD30C,1.50*%
%ADD31C,5.00*%
%ADD32C,2.50*%
%ADD33O,1.80X4.60*%
%ADD34O,1.80X3.60*%
%ADD35O,3.60X1.80*%
%ADD36C,1.27*%
D13*
X4247Y2280D02*
X4323Y2204D01*
X4050Y2280D02*
X4247D01*
X3900Y1168D02*
X3962D01*
X4142Y988D01*
X4688D02*
X4811Y1111D01*
X4142Y988D02*
X4688D01*
X4323Y1347D02*
Y2204D01*
Y1347D02*
X4390Y1280D01*
X4811Y1111D02*
Y2789D01*
X4800Y2800D02*
X4811Y2789D01*
X3400Y1930D02*
X4055D01*
X4213Y1773D01*
X3642Y1168D02*
X3900D01*
X3400Y1410D02*
X3642Y1168D01*
D29*
X4867Y2604D02*
G03*
X4926Y2710I-67J106D01*
G01*
Y2890D02*
G03*
X4675Y2890I-126J0D01*
G01*
Y2710D02*
G03*
X4756Y2592I126J0D01*
G01*
X4696Y3280D02*
G03*
X4610Y3399I-126J0D01*
G01*
X4570Y3154D02*
G03*
X4696Y3280I0J126D01*
G01*
X4350Y3399D02*
G03*
X4390Y3154I40J-119D01*
G01*
X4286Y2319D02*
G03*
X4247Y2336I-39J-39D01*
G01*
X4286Y2319D02*
G03*
X4247Y2336I-39J-39D01*
G01*
X4326Y2940D02*
G03*
X4075Y2940I-126J0D01*
G01*
Y2660D02*
G03*
X4326Y2660I126J0D01*
G01*
X4132Y2336D02*
G03*
X4132Y2224I-82J-56D01*
G01*
X4378Y2204D02*
G03*
X4362Y2244I-56J0D01*
G01*
X4378Y2204D02*
G03*
X4362Y2244I-56J0D01*
G01*
X4094Y1969D02*
G03*
X4055Y1986I-39J-39D01*
G01*
X4267Y1855D02*
G03*
X4194Y1870I-55J-83D01*
G01*
X4267Y1347D02*
G03*
X4284Y1308I56J0D01*
G01*
X4267Y1347D02*
G03*
X4284Y1308I56J0D01*
G01*
X4115Y1791D02*
G03*
X4267Y1690I97J-19D01*
G01*
X4094Y1969D02*
G03*
X4055Y1986I-39J-39D01*
G01*
X3507Y1382D02*
G03*
X3511Y1410I-107J28D01*
G01*
X4851Y1072D02*
G03*
X4867Y1111I-39J39D01*
G01*
X4851Y1072D02*
G03*
X4867Y1111I-39J39D01*
G01*
X5115Y754D02*
G03*
X5115Y754I-161J0D01*
G01*
X4861Y500D02*
G03*
X4861Y500I-161J0D01*
G01*
X5115Y246D02*
G03*
X5115Y246I-161J0D01*
G01*
X4489Y1280D02*
G03*
X4378Y1378I-99J0D01*
G01*
X4293Y1299D02*
G03*
X4489Y1280I97J-19D01*
G01*
X4001Y1207D02*
G03*
X3985Y1218I-39J-39D01*
G01*
X4001Y1207D02*
G03*
X3985Y1218I-39J-39D01*
G01*
D02*
G03*
X3818Y1224I-85J-50D01*
G01*
X3603Y1129D02*
G03*
X3642Y1112I39J39D01*
G01*
X3818D02*
G03*
X3961Y1090I82J56D01*
G01*
X3603Y1129D02*
G03*
X3642Y1112I39J39D01*
G01*
X4688Y933D02*
G03*
X4728Y949I0J56D01*
G01*
X4688Y933D02*
G03*
X4728Y949I0J56D01*
G01*
X4607Y754D02*
G03*
X4607Y754I-161J0D01*
G01*
Y246D02*
G03*
X4607Y246I-161J0D01*
G01*
X4102Y949D02*
G03*
X4142Y933I39J39D01*
G01*
X4102Y949D02*
G03*
X4142Y933I39J39D01*
G01*
X3286Y3100D02*
G03*
X3286Y3100I-286J0D01*
G01*
X3496Y1986D02*
G03*
X3496Y1874I-96J-56D01*
G01*
X3511Y1410D02*
G03*
X3428Y1303I-111J0D01*
G01*
X2836Y2550D02*
G03*
X2836Y2550I-286J0D01*
G01*
X586Y3100D02*
G03*
X586Y3100I-286J0D01*
G01*
X1036Y2550D02*
G03*
X1036Y2550I-286J0D01*
G01*
X2836Y850D02*
G03*
X2836Y850I-286J0D01*
G01*
X3286Y300D02*
G03*
X3286Y300I-286J0D01*
G01*
X1036Y850D02*
G03*
X1036Y850I-286J0D01*
G01*
X586Y300D02*
G03*
X586Y300I-286J0D01*
G01*
X5248Y3399D02*
X5300Y3347D01*
X5033Y3399D02*
X5300Y3132D01*
X4961Y3399D02*
X5300Y3060D01*
X4889Y3399D02*
X5300Y2988D01*
X5176Y3399D02*
X5300Y3275D01*
X5104Y3399D02*
X5300Y3203D01*
X4890Y2978D02*
X5300Y3388D01*
X4926Y2870D02*
X5300Y3245D01*
X4926Y2799D02*
X5300Y3173D01*
X4918Y2934D02*
X5300Y3317D01*
X4926Y2727D02*
X5300Y3101D01*
X4926Y2710D02*
Y2890D01*
Y2716D02*
X5300Y2341D01*
X4867Y2309D02*
X5300Y2742D01*
X4867Y2381D02*
X5300Y2814D01*
X4913Y2656D02*
X5300Y2269D01*
X4882Y2615D02*
X5300Y2198D01*
X4867Y2237D02*
X5300Y2670D01*
X4914Y2943D02*
X5300Y2557D01*
X4867Y2524D02*
X5300Y2957D01*
X4867Y2596D02*
X5300Y3029D01*
X4926Y2859D02*
X5300Y2485D01*
X4926Y2788D02*
X5300Y2413D01*
X4867Y2452D02*
X5300Y2886D01*
X4782Y3014D02*
X5167Y3399D01*
X4846Y3007D02*
X5239Y3399D01*
X4326Y2773D02*
X4951Y3399D01*
X4817D02*
X5300Y2916D01*
X4745Y3399D02*
X5300Y2844D01*
X4610Y3399D02*
X5300D01*
X4679Y3342D02*
X4736Y3399D01*
X4695Y3287D02*
X4808Y3399D01*
X4326Y2845D02*
X4879Y3399D01*
X4662Y3195D02*
X4853Y3004D01*
X4620Y3165D02*
X4772Y3012D01*
X4673Y3399D02*
X5300Y2772D01*
X4326Y2702D02*
X5023Y3399D01*
X4321Y2625D02*
X5095Y3399D01*
X4692Y3308D02*
X5300Y2701D01*
X4689Y3240D02*
X5300Y2629D01*
X4326Y2884D02*
X4756Y2454D01*
X4326Y2813D02*
X4756Y2383D01*
X4325Y2958D02*
X4756Y2526D01*
X4326Y2741D02*
X4756Y2311D01*
X4326Y2669D02*
X4756Y2239D01*
X4315Y2608D02*
X4756Y2167D01*
X4867Y2343D02*
X5300Y1910D01*
X4867Y1878D02*
X5300Y2311D01*
X4867Y1950D02*
X5300Y2383D01*
X4867Y1806D02*
X5300Y2239D01*
X4867Y2200D02*
X5300Y1767D01*
X4867Y2271D02*
X5300Y1838D01*
X4867Y2559D02*
X5300Y2126D01*
X4867Y2093D02*
X5300Y2526D01*
X4867Y2165D02*
X5300Y2598D01*
X4867Y2021D02*
X5300Y2454D01*
X4867Y2415D02*
X5300Y1982D01*
X4867Y2487D02*
X5300Y2054D01*
X4867Y1912D02*
X5300Y1479D01*
X4867Y1447D02*
X5300Y1880D01*
X4867Y1519D02*
X5300Y1952D01*
X4867Y1375D02*
X5300Y1808D01*
X4867Y1769D02*
X5300Y1336D01*
X4867Y1840D02*
X5300Y1407D01*
X4867Y2128D02*
X5300Y1695D01*
X4867Y1662D02*
X5300Y2095D01*
X4867Y1734D02*
X5300Y2167D01*
X4867Y1590D02*
X5300Y2023D01*
X4867Y1984D02*
X5300Y1551D01*
X4867Y2056D02*
X5300Y1623D01*
X4378Y1892D02*
X4756Y2270D01*
X4378Y1820D02*
X4756Y2198D01*
X4169Y2538D02*
X4756Y1952D01*
X4378Y1748D02*
X4756Y2126D01*
X4378Y2113D02*
X4756Y1736D01*
X4378Y2185D02*
X4756Y1808D01*
X4378Y2179D02*
X4756Y2557D01*
X4284Y2567D02*
X4756Y2095D01*
X4239Y2540D02*
X4756Y2023D01*
X4378Y2036D02*
X4756Y2413D01*
X4378Y1964D02*
X4756Y2341D01*
X4378Y2108D02*
X4756Y2485D01*
X4378Y1826D02*
X4756Y1449D01*
X4378Y1389D02*
X4756Y1767D01*
X4378Y1461D02*
X4756Y1838D01*
X4431Y1370D02*
X4756Y1695D01*
X4471Y1338D02*
X4756Y1623D01*
X4378Y1754D02*
X4756Y1377D01*
X4378Y2042D02*
X4756Y1664D01*
X4378Y1605D02*
X4756Y1982D01*
X4378Y1677D02*
X4756Y2054D01*
X4378Y1533D02*
X4756Y1910D01*
X4378Y1898D02*
X4756Y1520D01*
X4378Y1970D02*
X4756Y1592D01*
X4645Y3380D02*
X4664Y3399D01*
X4559Y3154D02*
X4724Y2990D01*
X4390Y3154D02*
X4570D01*
X4487D02*
X4690Y2951D01*
X4319Y2982D02*
X4491Y3154D01*
X4314Y3399D02*
X4326Y3388D01*
X4242Y3399D02*
X4288Y3353D01*
X4249Y3056D02*
X4353Y3160D01*
X4291Y3026D02*
X4419Y3154D01*
X4186Y3065D02*
X4307Y3186D01*
X4415Y3154D02*
X4675Y2895D01*
X4675Y2710D02*
Y2890D01*
X4325Y3172D02*
X4675Y2823D01*
X4331Y2275D02*
X4696Y2640D01*
X4366Y2239D02*
X4732Y2605D01*
X4295Y2311D02*
X4676Y2692D01*
X4326Y2917D02*
X4563Y3154D01*
X4326Y2660D02*
Y2940D01*
X4175Y2336D02*
X4675Y2835D01*
X4247Y2336D02*
X4675Y2763D01*
X4171Y3399D02*
X4267Y3303D01*
X4099Y3399D02*
X4283Y3215D01*
X4027Y3399D02*
X4675Y2751D01*
X3883Y3399D02*
X4218Y3064D01*
X3811Y3399D02*
X4154Y3057D01*
X3596Y3399D02*
X4075Y2920D01*
X3524Y3399D02*
X4075Y2848D01*
X3380Y3399D02*
X4075Y2705D01*
X3739Y3399D02*
X4111Y3028D01*
X3668Y3399D02*
X4083Y2984D01*
X3452Y3399D02*
X4075Y2776D01*
X4119Y2351D02*
X4676Y2908D01*
X3955Y3399D02*
X4680Y2674D01*
X4073Y2376D02*
X4236Y2540D01*
X4132Y2336D02*
X4247D01*
X3610Y1986D02*
X4164Y2540D01*
X4075Y2660D02*
Y2940D01*
X3441Y2033D02*
X4075Y2666D01*
X3374Y2038D02*
X4075Y2738D01*
X3538Y1986D02*
X4118Y2565D01*
X3483Y2003D02*
X4087Y2606D01*
X4286Y2319D02*
X4362Y2244D01*
X4224Y2224D02*
X4267Y2181D01*
X4196Y2224D02*
X4267Y2153D01*
X4129Y2220D02*
X4267Y2081D01*
X4132Y2224D02*
X4224D01*
X4095Y1968D02*
X4267Y2140D01*
X4088Y2188D02*
X4267Y2009D01*
X4131Y1932D02*
X4267Y2068D01*
X4167Y1896D02*
X4267Y1996D01*
Y1855D02*
Y2181D01*
X4378Y1378D02*
Y2204D01*
Y1395D02*
X4394Y1379D01*
X4214Y1872D02*
X4267Y1925D01*
X4094Y1969D02*
X4194Y1870D01*
X4240Y1677D02*
X4267Y1650D01*
Y1347D02*
Y1690D01*
X4147Y1699D02*
X4267Y1578D01*
X3969Y1986D02*
X4208Y2224D01*
X4041Y1986D02*
X4252Y2197D01*
X3897Y1986D02*
X4136Y2224D01*
X4018Y2186D02*
X4267Y1937D01*
X3496Y1986D02*
X4055D01*
X3753D02*
X3979Y2211D01*
X3825Y1986D02*
X4024Y2184D01*
X3682Y1986D02*
X3954Y2257D01*
X3496Y1874D02*
X4032D01*
X3490Y1866D02*
X3499Y1874D01*
X3483Y2003D02*
X3500Y1986D01*
X3899Y1874D02*
X4267Y1506D01*
X3827Y1874D02*
X4267Y1434D01*
X3755Y1874D02*
X4267Y1362D01*
X4032Y1874D02*
X4115Y1791D01*
X3971Y1874D02*
X4139Y1707D01*
X3580Y1309D02*
X4089Y1818D01*
X3504Y1448D02*
X3930Y1874D01*
X3508Y1381D02*
X4002Y1874D01*
X3475Y1491D02*
X3858Y1874D01*
X3544Y1345D02*
X4053Y1854D01*
X3428Y1517D02*
X3786Y1874D01*
X4867Y1231D02*
X5300Y1664D01*
X4867Y1625D02*
X5300Y1192D01*
X4867Y1303D02*
X5300Y1736D01*
X4867Y1697D02*
X5300Y1264D01*
X4867Y1553D02*
X5300Y1120D01*
X4900Y905D02*
X5300Y1305D01*
X4867Y1159D02*
X5300Y1592D01*
X4867Y1481D02*
X5300Y1048D01*
X4867Y1409D02*
X5300Y976D01*
X4867Y1111D02*
Y2604D01*
X4979Y913D02*
X5300Y1233D01*
X5033Y894D02*
X5300Y1161D01*
X4867Y1338D02*
X5300Y904D01*
X5103Y814D02*
X5300Y617D01*
Y-0D02*
Y3399D01*
X5078Y652D02*
X5300Y874D01*
X5113Y732D02*
X5300Y545D01*
X4975Y405D02*
X5300Y730D01*
X4892Y394D02*
X5300Y802D01*
X4867Y1194D02*
X5300Y761D01*
X4867Y1122D02*
X5300Y689D01*
X4867Y1266D02*
X5300Y833D01*
X5101Y819D02*
X5300Y1018D01*
X5114Y760D02*
X5300Y946D01*
X5073Y862D02*
X5300Y1089D01*
X4608Y1044D02*
X4756Y1192D01*
X4489Y1284D02*
X4756Y1551D01*
X4812Y1033D02*
X4932Y913D01*
X4728Y949D02*
X4851Y1072D01*
X4378Y1539D02*
X4756Y1161D01*
X4392Y1044D02*
X4756Y1407D01*
X4320Y1044D02*
X4756Y1479D01*
X4536Y1044D02*
X4756Y1264D01*
X4665Y1044D02*
X4756Y1134D01*
X4464Y1044D02*
X4756Y1336D01*
X4595Y815D02*
X5300Y1521D01*
X4607Y755D02*
X5300Y1449D01*
X3923Y0D02*
X5300Y1377D01*
X4848Y1069D02*
X5014Y903D01*
X4776Y997D02*
X4878Y895D01*
X4740Y961D02*
X4837Y864D01*
X4696Y933D02*
X4808Y821D01*
X4553Y933D02*
X4819Y667D01*
X4625Y933D02*
X4794Y764D01*
X4646Y651D02*
X4803Y808D01*
X4591Y823D02*
X4769Y645D01*
X5099Y314D02*
X5300Y515D01*
X4964Y594D02*
X5300Y258D01*
X4867Y619D02*
X5300Y186D01*
X5114Y257D02*
X5300Y443D01*
X5099Y315D02*
X5300Y114D01*
X5091Y162D02*
X5300Y371D01*
X5095Y678D02*
X5300Y473D01*
X5064Y637D02*
X5300Y402D01*
X5029Y388D02*
X5300Y658D01*
X5070Y357D02*
X5300Y587D01*
X5021Y608D02*
X5300Y330D01*
X4860Y506D02*
X4948Y594D01*
X5114Y229D02*
X5300Y42D01*
X5073Y0D02*
X5300Y227D01*
X5001Y0D02*
X5300Y299D01*
X5216Y0D02*
X5300Y84D01*
X5288Y0D02*
X5300Y12D01*
X5144Y0D02*
X5300Y156D01*
X5067Y132D02*
X5199Y0D01*
X5097Y173D02*
X5271Y0D01*
X4929D02*
X5038Y109D01*
X4969Y86D02*
X5055Y0D01*
X5025Y102D02*
X5127Y0D01*
X4879Y104D02*
X4983Y0D01*
X4847Y565D02*
X4889Y607D01*
X4824Y398D02*
X5056Y630D01*
X4860Y483D02*
X4937Y406D01*
X4845Y569D02*
X5023Y391D01*
X4843Y427D02*
X4881Y389D01*
X4779Y640D02*
X4814Y675D01*
X4819Y608D02*
X4846Y635D01*
X4725Y659D02*
X4795Y729D01*
X4813Y386D02*
X4840Y359D01*
X4771Y356D02*
X4810Y317D01*
X4715Y340D02*
X4794Y261D01*
X4606Y233D02*
X4839Y0D01*
X4585Y326D02*
X4911Y0D01*
X4785D02*
X4886Y101D01*
X4857Y0D02*
X4943Y86D01*
X4713Y0D02*
X4843Y130D01*
X4625Y358D02*
X4812Y171D01*
X4570Y144D02*
X4802Y376D01*
X4498Y0D02*
X4806Y308D01*
X4591Y177D02*
X4768Y0D01*
X4642D02*
X4812Y171D01*
X4570Y0D02*
X4795Y225D01*
X4378Y1682D02*
X4756Y1305D01*
Y1134D02*
Y2592D01*
X4378Y1611D02*
X4756Y1233D01*
X4378Y1467D02*
X4733Y1112D01*
X4284Y1308D02*
X4293Y1299D01*
X3990Y1216D02*
X4267Y1494D01*
X4027Y1182D02*
X4267Y1422D01*
X3953Y1252D02*
X4267Y1565D01*
X4063Y1146D02*
X4267Y1350D01*
X4489Y1284D02*
X4697Y1076D01*
X4474Y1228D02*
X4658Y1044D01*
X4437Y1193D02*
X4586Y1044D01*
X4249D02*
X4386Y1181D01*
X4376Y1182D02*
X4514Y1044D01*
X4165D02*
X4665D01*
X4099Y1110D02*
X4290Y1301D01*
X4135Y1074D02*
X4300Y1239D01*
X4001Y1207D02*
X4165Y1044D01*
X4177D02*
X4332Y1199D01*
X3961Y1090D02*
X4102Y949D01*
X3913Y1070D02*
X4304Y679D01*
X3683Y1874D02*
X4292Y1266D01*
X3652Y1237D02*
X4131Y1716D01*
X3616Y1273D02*
X4114Y1771D01*
X3897Y1267D02*
X4267Y1637D01*
X3782Y1224D02*
X4234Y1676D01*
X3710Y1224D02*
X4170Y1683D01*
X3507Y1382D02*
X3665Y1224D01*
X3510Y1401D02*
X3688Y1224D01*
X3377Y1822D02*
X3940Y1259D01*
X3665Y1224D02*
X3818D01*
X3428Y1303D02*
X3603Y1129D01*
X3540Y1874D02*
X4370Y1044D01*
X3612Y1874D02*
X4442Y1044D01*
X3396Y1300D02*
X4334Y361D01*
X3727Y1112D02*
X4433Y406D01*
X3799Y1112D02*
X4526Y385D01*
X3655Y1112D02*
X4377Y391D01*
X3484Y1858D02*
X4298Y1044D01*
X3443Y1828D02*
X4227Y1044D01*
X3642Y1112D02*
X3818D01*
X4567Y859D02*
X4640Y933D01*
X4606Y737D02*
X4683Y660D01*
X4589Y681D02*
X4627Y643D01*
X4559Y640D02*
X4586Y613D01*
X4481Y933D02*
X4515Y899D01*
X4528Y892D02*
X4569Y933D01*
X4476Y912D02*
X4497Y933D01*
X4410D02*
X4429Y914D01*
X4517Y610D02*
X4556Y571D01*
X4400Y908D02*
X4425Y933D01*
X4565Y354D02*
X4592Y381D01*
X4593Y311D02*
X4635Y353D01*
X4525Y386D02*
X4560Y421D01*
X4606Y252D02*
X4694Y340D01*
X4561Y134D02*
X4696Y0D01*
X4520Y104D02*
X4624Y0D01*
X4461Y594D02*
X4540Y515D01*
X4471Y405D02*
X4541Y475D01*
X4392Y397D02*
X4549Y554D01*
X4426Y0D02*
X4548Y122D01*
X4465Y87D02*
X4552Y0D01*
X4381Y99D02*
X4480Y0D01*
X4142Y933D02*
X4688D01*
X4338D02*
X4373Y897D01*
X3420Y0D02*
X4353Y933D01*
X4371Y612D02*
X4558Y425D01*
X4116Y939D02*
X4286Y769D01*
X4266Y933D02*
X4332Y867D01*
X4211Y0D02*
X4338Y127D01*
X4194Y933D02*
X4302Y825D01*
X3708Y0D02*
X4341Y633D01*
X3779Y0D02*
X4385Y605D01*
X3636Y0D02*
X4308Y672D01*
X4282Y0D02*
X4381Y99D01*
X4354Y0D02*
X4440Y86D01*
X3851Y0D02*
X4445Y593D01*
X3492Y0D02*
X4292Y800D01*
X3564Y0D02*
X4288Y724D01*
X3348Y0D02*
X4281Y933D01*
X4067Y0D02*
X4287Y221D01*
X4139Y0D02*
X4306Y167D01*
X3995Y0D02*
X4295Y300D01*
X3117Y3361D02*
X3155Y3399D01*
X3163Y3335D02*
X3227Y3399D01*
X3063Y3379D02*
X3083Y3399D01*
X3093D02*
X3147Y3345D01*
X3235Y3263D02*
X3371Y3399D01*
X3235Y3263D02*
X3371Y3399D01*
X3202Y3302D02*
X3299Y3399D01*
X2913Y3372D02*
X2940Y3399D01*
X2877D02*
X2906Y3370D01*
X2806Y3399D02*
X2857Y3347D01*
X2998Y3386D02*
X3012Y3399D01*
X3021D02*
X3037Y3383D01*
X2949Y3399D02*
X2965Y3383D01*
X3308Y3399D02*
X4079Y2629D01*
X3237Y3399D02*
X4756Y1880D01*
X3165Y3399D02*
X4228Y2336D01*
X3283Y3137D02*
X4041Y2379D01*
X3283Y3065D02*
X3990Y2359D01*
X3245Y3247D02*
X4156Y2336D01*
X3279Y3163D02*
X3514Y3399D01*
X3286Y3098D02*
X3586Y3399D01*
X3261Y3217D02*
X3443Y3399D01*
X3272Y3013D02*
X3658Y3399D01*
X2831Y2500D02*
X3730Y3399D01*
X2765Y2362D02*
X3802Y3399D01*
X2590D02*
X2750Y3239D01*
X2518Y3399D02*
X2729Y3189D01*
X2303Y3399D02*
X2768Y2934D01*
X2734Y3399D02*
X2815Y3318D01*
X2662Y3399D02*
X2779Y3281D01*
X-1Y3399D02*
X4350D01*
X2015D02*
X2580Y2834D01*
X1943Y3399D02*
X2510Y2833D01*
X1872Y3399D02*
X2452Y2818D01*
X2446Y3399D02*
X2716Y3129D01*
X2518Y2834D02*
X2721Y3037D01*
X2374Y3399D02*
X2718Y3055D01*
X2159Y3399D02*
X3572Y1986D01*
X2231Y3399D02*
X3644Y1986D01*
X1297Y3399D02*
X3290Y1406D01*
X2413Y2801D02*
X2714Y3102D01*
X663Y1122D02*
X2728Y3187D01*
X2087Y3399D02*
X2684Y2802D01*
X1800Y3399D02*
X2404Y2795D01*
X-1Y1033D02*
X2365Y3399D01*
X1728D02*
X2362Y2765D01*
X1656Y3399D02*
X2327Y2728D01*
X571Y3191D02*
X2641Y1121D01*
X3270Y3006D02*
X3958Y2318D01*
X3247Y2957D02*
X3956Y2248D01*
X3139Y2850D02*
X4003Y1986D01*
X2955Y2818D02*
X3788Y1986D01*
X3029Y2816D02*
X3860Y1986D01*
X2802Y2684D02*
X3473Y2013D01*
X2801Y2686D02*
X2937Y2821D01*
X2834Y2575D02*
X3087Y2828D01*
X2773Y2729D02*
X2883Y2839D01*
X2834Y2580D02*
X3376Y2038D01*
X2833Y2510D02*
X3328Y2014D01*
X2823Y2635D02*
X3002Y2814D01*
X3181Y2879D02*
X4082Y1978D01*
X3218Y2915D02*
X4267Y1865D01*
X2834Y2868D02*
X3716Y1986D01*
X3089Y2829D02*
X3932Y1986D01*
X3346Y1507D02*
X3714Y1874D01*
X2765Y2362D02*
X3866Y1261D01*
X2818Y2452D02*
X3298Y1973D01*
X2795Y2404D02*
X3292Y1907D01*
X2783Y1015D02*
X3642Y1874D01*
X2750Y1054D02*
X3570Y1874D01*
X2737Y2766D02*
X2837Y2865D01*
X2728Y2327D02*
X3824Y1231D01*
X2685Y2298D02*
X3760Y1224D01*
X2634Y2277D02*
X3391Y1520D01*
X2574Y2265D02*
X3338Y1502D01*
X2499Y2269D02*
X3304Y1464D01*
X2647Y2819D02*
X2765Y2937D01*
X2696Y2796D02*
X2798Y2898D01*
X2589Y2833D02*
X2739Y2983D01*
X2737Y2766D02*
X2837Y2865D01*
X997Y2693D02*
X2554Y1136D01*
X2544Y1136D02*
X3297Y1889D01*
X2457Y1120D02*
X3292Y1956D01*
X1033Y2585D02*
X2489Y1129D01*
X2664Y1112D02*
X3375Y1822D01*
X2710Y1086D02*
X3464Y1840D01*
X2610Y1129D02*
X3327Y1847D01*
X1033Y2513D02*
X2435Y1111D01*
X1019Y2455D02*
X2389Y1086D01*
X997Y2406D02*
X2349Y1053D01*
X985Y1013D02*
X2334Y2363D01*
X985Y1013D02*
X2334Y2363D01*
X967Y2364D02*
X2316Y1014D01*
X584Y3127D02*
X856Y3399D01*
X582Y3052D02*
X928Y3399D01*
X572Y3187D02*
X784Y3399D01*
X524Y2923D02*
X1000Y3399D01*
X793Y2832D02*
X1359Y3399D01*
X850Y2818D02*
X1431Y3399D01*
X723Y2834D02*
X1287Y3399D01*
X395Y3369D02*
X425Y3399D01*
X444Y3346D02*
X497Y3399D01*
X363D02*
X391Y3371D01*
X522Y3280D02*
X641Y3399D01*
X551Y3237D02*
X713Y3399D01*
X486Y3316D02*
X569Y3399D01*
X1441D02*
X2265Y2574D01*
X1035Y2572D02*
X1862Y3399D01*
X1030Y2495D02*
X1934Y3399D01*
X1584D02*
X2298Y2685D01*
X1512Y3399D02*
X2277Y2634D01*
X1369Y3399D02*
X2269Y2499D01*
X898Y2794D02*
X1503Y3399D01*
X939Y2764D02*
X1575Y3399D01*
X622Y2805D02*
X1216Y3399D01*
X1003Y2683D02*
X1718Y3399D01*
X1023Y2632D02*
X1790Y3399D01*
X974Y2727D02*
X1647Y3399D01*
X219D02*
X239Y3379D01*
X159Y3348D02*
X210Y3399D01*
X147D02*
X185Y3361D01*
X291Y3399D02*
X304Y3386D01*
X338Y3383D02*
X353Y3399D01*
X266Y3384D02*
X282Y3399D01*
X76D02*
X139Y3336D01*
X4Y3399D02*
X99Y3303D01*
X-2Y3259D02*
X138Y3399D01*
X-2Y3330D02*
X66Y3399D01*
X-2Y3261D02*
X40Y3219D01*
X-2Y3333D02*
X66Y3264D01*
X-1Y1392D02*
X2006Y3399D01*
X-1Y1320D02*
X2078Y3399D01*
X-2Y2254D02*
X1144Y3399D01*
X-1Y1177D02*
X2221Y3399D01*
X-1Y1105D02*
X2293Y3399D01*
X-1Y1249D02*
X2149Y3399D01*
X-2Y2325D02*
X1072Y3399D01*
X-2Y3187D02*
X52Y3241D01*
X-2Y3115D02*
X16Y3134D01*
X-2Y3118D02*
X14Y3101D01*
X-2Y3189D02*
X22Y3165D01*
X579Y3039D02*
X785Y2833D01*
X586Y3104D02*
X893Y2797D01*
X561Y2985D02*
X713Y2833D01*
X536Y2939D02*
X655Y2819D01*
X-1Y1679D02*
X617Y2297D01*
X503Y2899D02*
X606Y2797D01*
X464Y2866D02*
X564Y2767D01*
X419Y2840D02*
X529Y2730D01*
X365Y2822D02*
X500Y2687D01*
X301Y2814D02*
X478Y2637D01*
X216Y2827D02*
X466Y2578D01*
X813Y1129D02*
X2266Y2582D01*
X867Y1111D02*
X2267Y2511D01*
X748Y1136D02*
X2299Y2687D01*
X913Y1085D02*
X2281Y2453D01*
X952Y1052D02*
X2304Y2404D01*
X-1Y1464D02*
X805Y2270D01*
X-1Y1608D02*
X668Y2277D01*
X-1Y1536D02*
X728Y2265D01*
X-1Y1680D02*
X591Y1087D01*
X-1Y1536D02*
X518Y1017D01*
X-1Y1464D02*
X492Y971D01*
X-1Y1608D02*
X551Y1055D01*
X-2Y2684D02*
X163Y2849D01*
X-2Y2397D02*
X477Y2876D01*
X-2Y2974D02*
X468Y2503D01*
X-2Y2541D02*
X273Y2816D01*
X-2Y2469D02*
X348Y2818D01*
X-2Y2613D02*
X213Y2828D01*
X-2Y3043D02*
X17Y3062D01*
X-2Y2972D02*
X31Y3005D01*
X-2Y3046D02*
X27Y3016D01*
X-2Y2828D02*
X84Y2914D01*
X-2Y2756D02*
X120Y2878D01*
X-2Y2900D02*
X54Y2956D01*
X-1Y1823D02*
X536Y2361D01*
X-1Y1751D02*
X573Y2326D01*
X-1Y1967D02*
X847Y1118D01*
X-1Y1823D02*
X692Y1130D01*
X-1Y1752D02*
X638Y1113D01*
X-1Y1895D02*
X759Y1135D01*
X-2Y2182D02*
X495Y2678D01*
X-2Y2110D02*
X466Y2577D01*
X-2Y2902D02*
X523Y2377D01*
X-1Y1966D02*
X482Y2450D01*
X-1Y1895D02*
X506Y2402D01*
X-1Y2038D02*
X468Y2507D01*
X2915Y573D02*
X3537Y1194D01*
X1225Y3399D02*
X4304Y320D01*
X1153Y3399D02*
X4287Y265D01*
X1081Y3399D02*
X4299Y181D01*
X3064Y578D02*
X3609Y1123D01*
X3203Y501D02*
X3814Y1112D01*
X3000Y586D02*
X3573Y1158D01*
X2828Y916D02*
X3293Y1382D01*
X2836Y852D02*
X3319Y1335D01*
X2809Y970D02*
X3303Y1464D01*
X2824Y768D02*
X3362Y1306D01*
X2199Y0D02*
X3465Y1266D01*
X938Y3399D02*
X4337Y0D01*
X1009Y3399D02*
X4408Y0D01*
X906D02*
X4305Y3399D01*
X978Y0D02*
X4265Y3287D01*
X1049Y0D02*
X4276Y3227D01*
X866Y3399D02*
X4265Y0D01*
X1121D02*
X4075Y2954D01*
X1193Y0D02*
X4075Y2882D01*
X834Y0D02*
X4233Y3399D01*
X2127Y0D02*
X3429Y1302D01*
X2271Y0D02*
X3501Y1230D01*
X1265Y0D02*
X4075Y2810D01*
X650Y3399D02*
X4049Y0D01*
X690D02*
X4089Y3399D01*
X618Y0D02*
X4017Y3399D01*
X-0Y531D02*
X2868Y3399D01*
X577Y2323D02*
X2773Y127D01*
X-0Y602D02*
X2796Y3399D01*
X-1Y746D02*
X2652Y3399D01*
X-0Y674D02*
X2724Y3399D01*
X-1Y818D02*
X2581Y3399D01*
X703Y2268D02*
X2718Y253D01*
X581Y250D02*
X2600Y2269D01*
X515Y112D02*
X2738Y2335D01*
X547Y0D02*
X3946Y3399D01*
X578D02*
X3977Y0D01*
X507Y3399D02*
X3906Y0D01*
X762D02*
X4161Y3399D01*
X794D02*
X4193Y0D01*
X722Y3399D02*
X4121Y0D01*
X435Y3399D02*
X3834Y0D01*
X475D02*
X3874Y3399D01*
X-2Y2830D02*
X2828Y0D01*
X-2Y2686D02*
X2684Y0D01*
X-2Y2614D02*
X2612Y0D01*
X-2Y2758D02*
X2756Y0D01*
X3235Y462D02*
X3854Y1080D01*
X3261Y416D02*
X3916Y1070D01*
X3164Y534D02*
X3742Y1112D01*
X3279Y361D02*
X3984Y1067D01*
X3286Y296D02*
X4020Y1031D01*
X3271Y210D02*
X4056Y995D01*
X3247Y443D02*
X3690Y0D01*
X3283Y335D02*
X3618Y0D01*
X3118Y560D02*
X3671Y1112D01*
X3269Y205D02*
X3474Y0D01*
X3283Y263D02*
X3546Y0D01*
X3247Y156D02*
X3403Y0D01*
X3205D02*
X4138Y933D01*
X3277Y0D02*
X4209Y933D01*
X3133Y0D02*
X4092Y959D01*
X3180Y79D02*
X3259Y0D01*
X3217Y114D02*
X3331Y0D01*
X3137Y50D02*
X3187Y0D01*
X3061D02*
X3090Y29D01*
X3087Y28D02*
X3115Y0D01*
X2917D02*
X2939Y21D01*
X2989Y0D02*
X3004Y14D01*
X3028Y16D02*
X3043Y0D01*
X2953Y18D02*
X2972Y0D01*
X2829Y789D02*
X3035Y583D01*
X2836Y854D02*
X3143Y547D01*
X2811Y735D02*
X2963Y583D01*
X2786Y689D02*
X2905Y569D01*
X2846Y0D02*
X2884Y39D01*
X2753Y649D02*
X2856Y547D01*
X2714Y616D02*
X2814Y517D01*
X2669Y590D02*
X2779Y480D01*
X2615Y572D02*
X2750Y437D01*
X2551Y564D02*
X2728Y387D01*
X2466Y577D02*
X2716Y328D01*
X2702Y0D02*
X2799Y97D01*
X2821Y941D02*
X3762Y0D01*
X2630D02*
X2766Y136D01*
X2774Y0D02*
X2838Y65D01*
X2827Y73D02*
X2900Y0D01*
X0D02*
X5300D01*
X2055D02*
X2632Y576D01*
X2343Y0D02*
X2727Y385D01*
X1983Y0D02*
X2548Y564D01*
X2486Y0D02*
X2722Y236D01*
X2558Y0D02*
X2740Y182D01*
X2414Y0D02*
X2714Y300D01*
X1011Y967D02*
X2371Y2327D01*
X1029Y913D02*
X2414Y2299D01*
X930Y2329D02*
X2290Y969D01*
X887Y2300D02*
X2272Y915D01*
X1036Y848D02*
X2465Y2277D01*
X1022Y763D02*
X2525Y2266D01*
X778Y2266D02*
X2277Y766D01*
X837Y2278D02*
X2264Y851D01*
X268Y584D02*
X471Y787D01*
X397Y569D02*
X515Y687D01*
X446Y546D02*
X548Y648D01*
X339Y583D02*
X489Y733D01*
X1409Y0D02*
X2264Y856D01*
X1481Y0D02*
X2271Y790D01*
X1337Y0D02*
X2280Y943D01*
X1624Y0D02*
X2314Y690D01*
X1696Y0D02*
X2346Y650D01*
X1552Y0D02*
X2288Y736D01*
X1030Y792D02*
X1822Y0D01*
X1035Y859D02*
X1894Y0D01*
X1018Y947D02*
X1966Y0D01*
X987Y691D02*
X1678Y0D01*
X1013Y738D02*
X1750Y0D01*
X955Y651D02*
X1607Y0D01*
X-1Y961D02*
X2437Y3399D01*
X-1Y890D02*
X2509Y3399D01*
X-1Y1392D02*
X473Y918D01*
X-1Y1248D02*
X475Y772D01*
X-0Y459D02*
X478Y937D01*
X-1Y1320D02*
X464Y855D01*
X-1Y889D02*
X303Y586D01*
X163Y551D02*
X464Y852D01*
X-1Y961D02*
X388Y572D01*
X-1Y745D02*
X184Y561D01*
X-0Y673D02*
X138Y535D01*
X-1Y817D02*
X238Y579D01*
X-2Y2470D02*
X2469Y0D01*
X-2Y2399D02*
X2397Y0D01*
X-2Y2542D02*
X2541Y0D01*
X-2Y2255D02*
X2253Y0D01*
X-2Y2183D02*
X2181Y0D01*
X-2Y2327D02*
X2325Y0D01*
X-2Y2111D02*
X2109Y0D01*
X-1Y2039D02*
X2038Y0D01*
X-3Y3400D02*
X0Y0D01*
X-1Y1104D02*
X1104Y0D01*
X-1Y1033D02*
X1032Y0D01*
X-1Y1176D02*
X1176Y0D01*
X871Y592D02*
X1463Y0D01*
X1840D02*
X2430Y591D01*
X672Y575D02*
X1247Y0D01*
X755Y564D02*
X1319Y0D01*
X818Y573D02*
X1391Y0D01*
X586Y303D02*
X888Y0D01*
X487Y516D02*
X587Y615D01*
X523Y479D02*
X633Y589D01*
X487Y516D02*
X587Y615D01*
X573Y385D02*
X752Y564D01*
X584Y325D02*
X837Y578D01*
X551Y436D02*
X687Y571D01*
X1768Y0D02*
X2385Y617D01*
X1912Y0D02*
X2484Y572D01*
X917Y618D02*
X1535Y0D01*
X572Y388D02*
X960Y0D01*
X579Y238D02*
X816Y0D01*
X561Y184D02*
X744Y0D01*
X502Y98D02*
X601Y0D01*
X535Y138D02*
X673Y0D01*
X403D02*
X488Y85D01*
X417Y40D02*
X457Y0D01*
X463Y66D02*
X529Y0D01*
X364Y22D02*
X385Y0D01*
X-0Y529D02*
X66Y463D01*
X-0Y457D02*
X40Y417D01*
X-0Y601D02*
X98Y502D01*
X-0Y100D02*
X54Y154D01*
X-0Y28D02*
X84Y113D01*
X-0Y387D02*
X49Y437D01*
X-0Y315D02*
X16Y332D01*
X-0Y314D02*
X14Y299D01*
X-0Y386D02*
X22Y364D01*
X-0Y242D02*
X28Y214D01*
X-0Y172D02*
X31Y203D01*
X-0Y244D02*
X17Y261D01*
X187Y0D02*
X215Y27D01*
X214Y28D02*
X242Y0D01*
X299Y14D02*
X313Y0D01*
X331D02*
X350Y19D01*
X259Y0D02*
X275Y16D01*
X-0Y28D02*
X84Y113D01*
X-0Y98D02*
X98Y0D01*
X-0Y170D02*
X170Y0D01*
X44D02*
X121Y77D01*
X116Y0D02*
X164Y49D01*
X-0Y26D02*
X26Y0D01*
D30*
X3400Y1410D02*
D03*
Y1930D02*
D03*
D31*
X2550Y850D02*
D03*
Y2550D02*
D03*
X750D02*
D03*
Y850D02*
D03*
X3000Y300D02*
D03*
Y3100D02*
D03*
X300Y300D02*
D03*
Y3100D02*
D03*
D32*
X4700Y500D02*
D03*
X4446Y246D02*
D03*
Y754D02*
D03*
X4954D02*
D03*
Y246D02*
D03*
D33*
X4200Y2800D02*
D03*
D34*
X4800Y2800D02*
D03*
D35*
X4480Y3280D02*
D03*
D36*
X4050Y2280D02*
D03*
X4390Y1280D02*
D03*
X4213Y1773D02*
D03*
X3900Y1168D02*
D03*
M02*
