G04*
G04 #@! TF.GenerationSoftware,Altium Limited,Altium Designer,20.1.14 (287)*
G04*
G04 Layer_Color=32896*
%FSLAX42Y42*%
%MOMM*%
G71*
G04*
G04 #@! TF.SameCoordinates,C0F7CC4A-4C12-43CF-AD3A-5075A501ED9E*
G04*
G04*
G04 #@! TF.FilePolarity,Positive*
G04*
G01*
G75*
G36*
X5005Y345D02*
X5007D01*
X5009Y345D01*
X5012Y344D01*
X5015Y344D01*
X5019Y343D01*
X5022Y342D01*
X5022D01*
X5022Y342D01*
X5023Y341D01*
X5023Y341D01*
X5025Y340D01*
X5027Y339D01*
X5029Y338D01*
X5031Y336D01*
X5033Y334D01*
X5035Y332D01*
X5036Y332D01*
X5036Y331D01*
X5037Y330D01*
X5038Y328D01*
X5039Y326D01*
X5041Y323D01*
X5042Y320D01*
X5043Y316D01*
X5031Y313D01*
Y313D01*
X5031Y313D01*
X5031Y314D01*
X5031Y314D01*
X5030Y316D01*
X5030Y317D01*
X5029Y319D01*
X5028Y321D01*
X5027Y323D01*
X5026Y325D01*
X5025Y325D01*
X5025Y326D01*
X5024Y326D01*
X5023Y327D01*
X5022Y328D01*
X5020Y330D01*
X5018Y331D01*
X5016Y332D01*
X5016Y332D01*
X5015Y332D01*
X5014Y332D01*
X5012Y333D01*
X5010Y333D01*
X5008Y334D01*
X5006Y334D01*
X5003Y334D01*
X5001D01*
X5001Y334D01*
X5000D01*
X4998Y334D01*
X4995Y334D01*
X4993Y333D01*
X4990Y332D01*
X4988Y331D01*
X4987Y331D01*
X4986Y331D01*
X4985Y330D01*
X4984Y330D01*
X4982Y329D01*
X4980Y327D01*
X4979Y326D01*
X4977Y324D01*
X4977Y324D01*
X4976Y324D01*
X4976Y323D01*
X4975Y322D01*
X4974Y320D01*
X4973Y319D01*
X4972Y317D01*
X4971Y315D01*
Y315D01*
X4971Y314D01*
X4971Y314D01*
X4970Y313D01*
X4970Y312D01*
X4970Y311D01*
X4969Y310D01*
X4969Y309D01*
X4968Y306D01*
X4968Y303D01*
X4967Y299D01*
X4967Y295D01*
Y295D01*
Y295D01*
Y294D01*
X4967Y293D01*
Y292D01*
X4968Y290D01*
X4968Y289D01*
X4968Y288D01*
X4968Y284D01*
X4969Y280D01*
X4970Y277D01*
X4972Y273D01*
Y273D01*
X4972Y273D01*
X4972Y272D01*
X4972Y272D01*
X4973Y270D01*
X4975Y268D01*
X4977Y266D01*
X4979Y264D01*
X4982Y262D01*
X4985Y260D01*
X4985D01*
X4985Y260D01*
X4986Y260D01*
X4986Y259D01*
X4987Y259D01*
X4988Y259D01*
X4990Y258D01*
X4993Y257D01*
X4996Y257D01*
X5000Y256D01*
X5003Y256D01*
X5004D01*
X5005Y256D01*
X5006D01*
X5008Y256D01*
X5011Y257D01*
X5013Y257D01*
X5016Y258D01*
X5019Y259D01*
X5020D01*
X5020Y259D01*
X5020Y259D01*
X5021Y260D01*
X5022Y260D01*
X5024Y261D01*
X5026Y262D01*
X5028Y263D01*
X5030Y265D01*
X5032Y266D01*
Y284D01*
X5003D01*
Y296D01*
X5044D01*
Y260D01*
X5044Y259D01*
X5044Y259D01*
X5043Y259D01*
X5043Y258D01*
X5042Y258D01*
X5041Y257D01*
X5040Y256D01*
X5038Y255D01*
X5035Y254D01*
X5032Y252D01*
X5028Y250D01*
X5025Y248D01*
X5024D01*
X5024Y248D01*
X5024Y248D01*
X5023Y248D01*
X5022Y247D01*
X5021Y247D01*
X5020Y247D01*
X5018Y246D01*
X5015Y246D01*
X5012Y245D01*
X5008Y245D01*
X5004Y244D01*
X5002D01*
X5002Y245D01*
X5000D01*
X4999Y245D01*
X4997Y245D01*
X4995Y245D01*
X4991Y246D01*
X4987Y247D01*
X4982Y248D01*
X4980Y249D01*
X4978Y250D01*
X4978Y251D01*
X4977Y251D01*
X4977Y251D01*
X4976Y252D01*
X4975Y252D01*
X4974Y253D01*
X4971Y255D01*
X4968Y257D01*
X4965Y261D01*
X4962Y264D01*
X4960Y268D01*
Y268D01*
X4960Y269D01*
X4959Y269D01*
X4959Y270D01*
X4959Y271D01*
X4958Y273D01*
X4958Y274D01*
X4957Y276D01*
X4956Y278D01*
X4956Y280D01*
X4955Y282D01*
X4955Y284D01*
X4954Y289D01*
X4954Y294D01*
Y294D01*
Y295D01*
Y296D01*
X4954Y297D01*
Y298D01*
X4954Y299D01*
X4955Y301D01*
X4955Y303D01*
X4955Y305D01*
X4955Y307D01*
X4957Y311D01*
X4958Y316D01*
X4960Y321D01*
X4960Y321D01*
X4960Y321D01*
X4960Y322D01*
X4961Y323D01*
X4962Y324D01*
X4962Y325D01*
X4964Y328D01*
X4967Y331D01*
X4970Y334D01*
X4973Y337D01*
X4975Y338D01*
X4977Y339D01*
X4977Y339D01*
X4978Y340D01*
X4978Y340D01*
X4979Y340D01*
X4980Y341D01*
X4981Y341D01*
X4983Y342D01*
X4984Y342D01*
X4986Y343D01*
X4988Y343D01*
X4990Y344D01*
X4993Y344D01*
X4998Y345D01*
X5000Y345D01*
X5005D01*
X5005Y345D01*
D02*
G37*
G36*
X5140Y246D02*
X5127D01*
X5076Y323D01*
Y246D01*
X5063D01*
Y344D01*
X5077D01*
X5128Y267D01*
Y344D01*
X5140D01*
Y246D01*
D02*
G37*
G36*
X5202Y343D02*
X5205Y343D01*
X5207Y343D01*
X5210Y343D01*
X5213Y342D01*
X5213D01*
X5213Y342D01*
X5214D01*
X5214Y342D01*
X5216Y341D01*
X5218Y341D01*
X5220Y340D01*
X5222Y338D01*
X5225Y337D01*
X5227Y335D01*
X5227Y335D01*
X5227Y335D01*
X5228Y334D01*
X5228Y334D01*
X5230Y333D01*
X5231Y331D01*
X5233Y328D01*
X5235Y325D01*
X5237Y322D01*
X5238Y319D01*
Y318D01*
X5239Y318D01*
X5239Y318D01*
X5239Y317D01*
X5239Y316D01*
X5240Y315D01*
X5240Y313D01*
X5240Y312D01*
X5241Y310D01*
X5241Y308D01*
X5242Y304D01*
X5242Y300D01*
X5242Y295D01*
Y295D01*
Y295D01*
Y294D01*
Y293D01*
X5242Y292D01*
Y291D01*
X5242Y289D01*
X5242Y286D01*
X5241Y282D01*
X5241Y279D01*
X5240Y276D01*
Y275D01*
X5240Y275D01*
X5239Y275D01*
X5239Y274D01*
X5239Y273D01*
X5238Y271D01*
X5237Y268D01*
X5236Y266D01*
X5235Y264D01*
X5233Y261D01*
X5233Y261D01*
X5232Y260D01*
X5232Y259D01*
X5230Y258D01*
X5229Y257D01*
X5228Y255D01*
X5226Y254D01*
X5224Y253D01*
X5224Y252D01*
X5223Y252D01*
X5222Y251D01*
X5221Y251D01*
X5219Y250D01*
X5217Y249D01*
X5215Y248D01*
X5213Y248D01*
X5212D01*
X5212Y247D01*
X5211Y247D01*
X5210Y247D01*
X5208Y247D01*
X5206Y247D01*
X5203Y246D01*
X5200Y246D01*
X5197Y246D01*
X5162D01*
Y344D01*
X5199D01*
X5202Y343D01*
D02*
G37*
%LPC*%
G36*
X5197Y332D02*
X5175D01*
Y258D01*
X5198D01*
X5199Y258D01*
X5201Y258D01*
X5203Y258D01*
X5206Y258D01*
X5208Y259D01*
X5211Y259D01*
X5211Y259D01*
X5212Y260D01*
X5213Y260D01*
X5214Y261D01*
X5215Y261D01*
X5217Y262D01*
X5218Y263D01*
X5219Y264D01*
X5220Y265D01*
X5220Y265D01*
X5221Y266D01*
X5222Y268D01*
X5223Y269D01*
X5224Y272D01*
X5226Y274D01*
X5226Y277D01*
Y277D01*
X5227Y277D01*
X5227Y277D01*
X5227Y278D01*
X5227Y279D01*
X5227Y280D01*
X5228Y281D01*
X5228Y282D01*
X5228Y285D01*
X5229Y288D01*
X5229Y292D01*
X5229Y296D01*
Y296D01*
Y296D01*
Y297D01*
X5229Y298D01*
Y299D01*
X5229Y301D01*
X5229Y302D01*
X5229Y304D01*
X5228Y308D01*
X5227Y312D01*
X5226Y316D01*
X5225Y317D01*
X5224Y319D01*
Y319D01*
X5224Y319D01*
X5224Y320D01*
X5223Y320D01*
X5222Y322D01*
X5221Y323D01*
X5219Y325D01*
X5217Y327D01*
X5214Y329D01*
X5212Y330D01*
X5212Y330D01*
X5211Y330D01*
X5210Y331D01*
X5208Y331D01*
X5205Y331D01*
X5203Y332D01*
X5201Y332D01*
X5199D01*
X5197Y332D01*
D02*
G37*
%LPD*%
M02*
