G04*
G04 #@! TF.GenerationSoftware,Altium Limited,Altium Designer,20.1.14 (287)*
G04*
G04 Layer_Physical_Order=1*
G04 Layer_Color=255*
%FSLAX42Y42*%
%MOMM*%
G71*
G04*
G04 #@! TF.SameCoordinates,C0F7CC4A-4C12-43CF-AD3A-5075A501ED9E*
G04*
G04*
G04 #@! TF.FilePolarity,Positive*
G04*
G01*
G75*
%ADD13C,0.40*%
%ADD14R,1.00X0.60*%
%ADD15R,1.60X1.20*%
%ADD16R,1.20X1.60*%
%ADD17R,0.60X1.00*%
%ADD29C,0.20*%
%ADD30C,1.50*%
%ADD31C,5.00*%
%ADD32C,2.50*%
%ADD33O,1.80X4.60*%
%ADD34O,1.80X3.60*%
%ADD35O,3.60X1.80*%
%ADD36C,1.27*%
D13*
X3300Y800D02*
X3320Y780D01*
Y323D02*
X3543Y100D01*
X3320Y323D02*
Y780D01*
X3400Y423D02*
Y588D01*
X3533Y721D01*
X3400Y423D02*
X3484Y339D01*
X3460Y2600D02*
X3470Y2590D01*
Y2590D02*
X3615D01*
X3543Y100D02*
X4100D01*
X3484Y339D02*
X3561D01*
X3600Y300D01*
X3533Y721D02*
X3903D01*
X3600Y300D02*
X4000D01*
X4446Y246D02*
X4954D01*
Y754D01*
X4446D02*
X4954D01*
X4992Y792D02*
Y1825D01*
X4815Y2002D02*
X4992Y1825D01*
X4700Y2000D02*
Y2349D01*
X3995Y1745D02*
Y1865D01*
X3900Y1168D02*
Y1650D01*
X4700Y2002D02*
X4815D01*
X4700Y2349D02*
X4800Y2449D01*
X4050Y2280D02*
Y2312D01*
X4015Y2348D02*
X4050Y2312D01*
X4015Y2348D02*
Y2525D01*
Y2720D01*
X4095Y2800D01*
X3905Y2135D02*
X4050Y2280D01*
X3700Y2355D02*
X3775Y2430D01*
X3700Y2200D02*
Y2355D01*
X3615Y2590D02*
X3775Y2430D01*
Y2620D02*
X3895Y2500D01*
Y2317D02*
Y2500D01*
X3765Y2188D02*
X3895Y2317D01*
X3765Y1945D02*
Y2188D01*
Y1945D02*
X3845Y1865D01*
X3700Y1000D02*
Y2200D01*
X3700Y2200D01*
X4365Y1620D02*
X4500D01*
X4390Y2288D02*
Y3000D01*
X4237Y2135D02*
X4390Y2288D01*
X4095Y2135D02*
X4237D01*
X3845Y1865D02*
X3905D01*
X4095Y2800D02*
X4200D01*
X3903Y721D02*
X4030Y848D01*
X3400Y1930D02*
Y2320D01*
X3260Y2460D02*
X3400Y2320D01*
X3260Y2460D02*
Y2600D01*
X3320Y2820D02*
X3510D01*
X3260Y2660D02*
Y2760D01*
X3320Y2820D01*
X3510D02*
X3790Y3100D01*
X4290D02*
X4390Y3000D01*
X3790Y3100D02*
X4290D01*
X4100Y1550D02*
Y1865D01*
X4590Y1070D02*
X4711D01*
X4390D02*
Y1280D01*
X4030Y848D02*
X4170Y988D01*
X4280Y1867D02*
X4350Y1798D01*
X4280Y1867D02*
Y1945D01*
X4350Y1798D02*
X4458D01*
X3900Y1650D02*
X3995Y1745D01*
X4095Y1865D02*
Y1950D01*
X4145Y2000D01*
X4225D01*
X4280Y1945D01*
X4500Y1840D02*
X4563Y1777D01*
X4800D01*
X4865Y1712D01*
Y1224D02*
Y1712D01*
X4711Y1070D02*
X4865Y1224D01*
X4500Y1840D02*
Y2000D01*
X4458Y1798D02*
X4500Y1840D01*
X4170Y1327D02*
X4238Y1395D01*
X4578D01*
X4700Y1518D01*
Y1600D01*
X4170Y988D02*
Y1327D01*
X3995Y1865D02*
X4000D01*
X4350Y500D02*
X4360D01*
X3900Y1000D02*
Y1168D01*
X4213Y1773D02*
X4365Y1620D01*
X4500Y1600D02*
Y1620D01*
X3300Y1000D02*
X3499D01*
X3700Y1000D01*
X4800Y2800D02*
Y2960D01*
X4480Y3280D02*
X4800Y2960D01*
X3700Y964D02*
Y1000D01*
Y964D02*
X3816Y848D01*
X4030D01*
X4100Y100D02*
X4200Y200D01*
Y340D01*
X4360Y500D01*
X4700D01*
X4000Y500D02*
X4200D01*
X4350Y500D01*
X3799D02*
X4000Y500D01*
X3600Y500D02*
X3799D01*
X4800Y2449D02*
Y2800D01*
D14*
X3775Y2620D02*
D03*
Y2430D02*
D03*
X4015Y2525D02*
D03*
D15*
X4000Y500D02*
D03*
Y300D02*
D03*
X3600Y500D02*
D03*
Y300D02*
D03*
X3300Y1000D02*
D03*
Y800D02*
D03*
D16*
X4100Y1550D02*
D03*
X3900D02*
D03*
X4590Y1070D02*
D03*
X4390D02*
D03*
X3260Y2600D02*
D03*
X3460D02*
D03*
X4700Y1600D02*
D03*
X4500D02*
D03*
X3900Y1000D02*
D03*
X3700D02*
D03*
X4700Y2000D02*
D03*
X4500D02*
D03*
D17*
X3905Y2135D02*
D03*
X4095D02*
D03*
Y1865D02*
D03*
X4000D02*
D03*
X3905D02*
D03*
D29*
X4856Y2597D02*
G03*
X4926Y2710I-55J113D01*
G01*
Y2890D02*
G03*
X4826Y3013I-126J0D01*
G01*
X4839Y2410D02*
G03*
X4856Y2449I-39J39D01*
G01*
X4839Y2410D02*
G03*
X4856Y2449I-39J39D01*
G01*
X4696Y3280D02*
G03*
X4610Y3399I-126J0D01*
G01*
X4653Y3186D02*
G03*
X4696Y3280I-83J94D01*
G01*
X4707Y2974D02*
G03*
X4675Y2890I93J-84D01*
G01*
Y2710D02*
G03*
X4744Y2597I126J0D01*
G01*
X4661Y2388D02*
G03*
X4644Y2349I39J-39D01*
G01*
X4661Y2388D02*
G03*
X4644Y2349I39J-39D01*
G01*
X5048Y1825D02*
G03*
X5032Y1864I-56J0D01*
G01*
X5048Y1825D02*
G03*
X5032Y1864I-56J0D01*
G01*
X4854Y2042D02*
G03*
X4815Y2058I-39J-39D01*
G01*
X4854Y2042D02*
G03*
X4815Y2058I-39J-39D01*
G01*
X4839Y1817D02*
G03*
X4800Y1833I-39J-39D01*
G01*
X4839Y1817D02*
G03*
X4800Y1833I-39J-39D01*
G01*
X4921Y1712D02*
G03*
X4904Y1752I-56J0D01*
G01*
X4921Y1712D02*
G03*
X4904Y1752I-56J0D01*
G01*
X4429Y2248D02*
G03*
X4446Y2288I-39J39D01*
G01*
X4458Y1742D02*
G03*
X4497Y1758I0J56D01*
G01*
X4458Y1742D02*
G03*
X4497Y1758I0J56D01*
G01*
X4523Y1738D02*
G03*
X4563Y1722I39J39D01*
G01*
X4523Y1738D02*
G03*
X4563Y1722I39J39D01*
G01*
X4446Y3000D02*
G03*
X4429Y3039I-56J0D01*
G01*
X4446Y3000D02*
G03*
X4429Y3039I-56J0D01*
G01*
X4351Y3399D02*
G03*
X4390Y3154I39J-119D01*
G01*
X4326Y2940D02*
G03*
X4309Y3002I-126J0D01*
G01*
X4329Y3139D02*
G03*
X4290Y3156I-39J-39D01*
G01*
X4329Y3139D02*
G03*
X4290Y3156I-39J-39D01*
G01*
X4429Y2248D02*
G03*
X4446Y2288I-39J39D01*
G01*
X4101Y2584D02*
G03*
X4326Y2660I100J76D01*
G01*
X4129Y2221D02*
G03*
X4149Y2280I-79J59D01*
G01*
X4131Y3044D02*
G03*
X4075Y2940I70J-104D01*
G01*
Y2660D02*
G03*
X4096Y2591I126J0D01*
G01*
X4075Y2852D02*
G03*
X4056Y2839I20J-52D01*
G01*
X4075Y2852D02*
G03*
X4056Y2839I20J-52D01*
G01*
X3976Y2759D02*
G03*
X3959Y2720I39J-39D01*
G01*
X3976Y2759D02*
G03*
X3959Y2720I39J-39D01*
G01*
X4096Y2591D02*
G03*
X4101Y2584I105J69D01*
G01*
X4149Y2280D02*
G03*
X4071Y2377I-99J0D01*
G01*
X3959Y2348D02*
G03*
X3963Y2328I56J0D01*
G01*
X3959Y2348D02*
G03*
X3963Y2328I56J0D01*
G01*
Y2328D02*
G03*
X3953Y2261I87J-48D01*
G01*
X3934Y2278D02*
G03*
X3951Y2317I-39J39D01*
G01*
X3934Y2278D02*
G03*
X3951Y2317I-39J39D01*
G01*
X4237Y2079D02*
G03*
X4277Y2096I0J56D01*
G01*
X4336Y1945D02*
G03*
X4319Y1984I-56J0D01*
G01*
X4336Y1945D02*
G03*
X4319Y1984I-56J0D01*
G01*
X4237Y2079D02*
G03*
X4277Y2096I0J56D01*
G01*
X4264Y2039D02*
G03*
X4225Y2056I-39J-39D01*
G01*
X4264Y2039D02*
G03*
X4225Y2056I-39J-39D01*
G01*
X4311Y1758D02*
G03*
X4350Y1742I39J39D01*
G01*
X4311Y1758D02*
G03*
X4350Y1742I39J39D01*
G01*
X4120Y2049D02*
G03*
X4106Y2039I25J-49D01*
G01*
X4120Y2049D02*
G03*
X4106Y2039I25J-49D01*
G01*
X4056Y1989D02*
G03*
X4039Y1951I39J-39D01*
G01*
X4056Y1989D02*
G03*
X4039Y1951I39J-39D01*
G01*
X4224Y1871D02*
G03*
X4161Y1857I-12J-98D01*
G01*
X4156Y1692D02*
G03*
X4231Y1675I57J81D01*
G01*
X4034Y1706D02*
G03*
X4044Y1720I-39J39D01*
G01*
X4034Y1706D02*
G03*
X4044Y1720I-39J39D01*
G01*
X4904Y1184D02*
G03*
X4921Y1224I-39J39D01*
G01*
X4904Y1184D02*
G03*
X4921Y1224I-39J39D01*
G01*
X4739Y1478D02*
G03*
X4745Y1484I-39J39D01*
G01*
X4739Y1478D02*
G03*
X4745Y1484I-39J39D01*
G01*
X4578Y1339D02*
G03*
X4617Y1356I0J56D01*
G01*
X4578Y1339D02*
G03*
X4617Y1356I0J56D01*
G01*
X4711Y1014D02*
G03*
X4751Y1031I0J56D01*
G01*
X4711Y1014D02*
G03*
X4751Y1031I0J56D01*
G01*
X5115Y754D02*
G03*
X5048Y884I-161J0D01*
G01*
X5010Y603D02*
G03*
X5115Y754I-56J151D01*
G01*
Y246D02*
G03*
X5010Y397I-161J0D01*
G01*
X4937Y914D02*
G03*
X4803Y810I17J-160D01*
G01*
Y698D02*
G03*
X4898Y603I151J56D01*
G01*
X4861Y500D02*
G03*
X4549Y556I-161J0D01*
G01*
Y444D02*
G03*
X4861Y500I151J56D01*
G01*
X4597Y810D02*
G03*
X4597Y698I-151J-56D01*
G01*
X4898Y397D02*
G03*
X4803Y302I56J-151D01*
G01*
Y190D02*
G03*
X5115Y246I151J56D01*
G01*
X4597Y302D02*
G03*
X4597Y190I-151J-56D01*
G01*
X4489Y1280D02*
G03*
X4469Y1339I-99J0D01*
G01*
X4446Y1198D02*
G03*
X4489Y1280I-56J82D01*
G01*
X4326Y1581D02*
G03*
X4365Y1565I39J39D01*
G01*
X4326Y1581D02*
G03*
X4365Y1565I39J39D01*
G01*
X4311Y1339D02*
G03*
X4334Y1198I79J-59D01*
G01*
X4238Y1451D02*
G03*
X4198Y1434I0J-56D01*
G01*
X4238Y1451D02*
G03*
X4198Y1434I0J-56D01*
G01*
X4131Y1367D02*
G03*
X4114Y1327I39J-39D01*
G01*
X4131Y1367D02*
G03*
X4114Y1327I39J-39D01*
G01*
X4209Y949D02*
G03*
X4226Y988I-39J39D01*
G01*
X4209Y949D02*
G03*
X4226Y988I-39J39D01*
G01*
X3999Y1168D02*
G03*
X3956Y1250I-99J0D01*
G01*
X3984Y1116D02*
G03*
X3999Y1168I-84J52D01*
G01*
X4161Y379D02*
G03*
X4144Y340I39J-39D01*
G01*
X4161Y379D02*
G03*
X4144Y340I39J-39D01*
G01*
X4239Y161D02*
G03*
X4256Y200I-39J39D01*
G01*
X4239Y161D02*
G03*
X4256Y200I-39J39D01*
G01*
X3903Y665D02*
G03*
X3942Y682I0J56D01*
G01*
X3903Y665D02*
G03*
X3942Y682I0J56D01*
G01*
X4100Y44D02*
G03*
X4139Y61I0J56D01*
G01*
X4100Y44D02*
G03*
X4139Y61I0J56D01*
G01*
X3790Y3156D02*
G03*
X3751Y3139I0J-56D01*
G01*
X3790Y3156D02*
G03*
X3751Y3139I0J-56D01*
G01*
X3654Y2630D02*
G03*
X3615Y2646I-39J-39D01*
G01*
X3654Y2630D02*
G03*
X3615Y2646I-39J-39D01*
G01*
X3661Y2394D02*
G03*
X3644Y2355I39J-39D01*
G01*
X3661Y2394D02*
G03*
X3644Y2355I39J-39D01*
G01*
X3510Y2764D02*
G03*
X3549Y2781I0J56D01*
G01*
X3510Y2764D02*
G03*
X3549Y2781I0J56D01*
G01*
X3806Y1826D02*
G03*
X3839Y1810I39J39D01*
G01*
X3806Y1826D02*
G03*
X3839Y1810I39J39D01*
G01*
X3861Y1689D02*
G03*
X3847Y1666I39J-39D01*
G01*
X3861Y1689D02*
G03*
X3847Y1666I39J-39D01*
G01*
X3844Y1250D02*
G03*
X3816Y1116I56J-82D01*
G01*
X3456Y2320D02*
G03*
X3439Y2359I-56J0D01*
G01*
X3456Y2320D02*
G03*
X3439Y2359I-56J0D01*
G01*
X3511Y1930D02*
G03*
X3456Y2026I-111J0D01*
G01*
X3344D02*
G03*
X3511Y1930I56J-96D01*
G01*
Y1410D02*
G03*
X3511Y1410I-111J0D01*
G01*
X3286Y3100D02*
G03*
X3286Y3100I-286J0D01*
G01*
X586D02*
G03*
X586Y3100I-286J0D01*
G01*
X3320Y2876D02*
G03*
X3281Y2859I0J-56D01*
G01*
X3320Y2876D02*
G03*
X3281Y2859I0J-56D01*
G01*
X3221Y2799D02*
G03*
X3204Y2760I39J-39D01*
G01*
X3221Y2799D02*
G03*
X3204Y2760I39J-39D01*
G01*
Y2460D02*
G03*
X3221Y2421I56J0D01*
G01*
X3204Y2460D02*
G03*
X3221Y2421I56J0D01*
G01*
X2836Y2550D02*
G03*
X2836Y2550I-286J0D01*
G01*
X1036D02*
G03*
X1036Y2550I-286J0D01*
G01*
X3777Y809D02*
G03*
X3816Y792I39J39D01*
G01*
X3777Y809D02*
G03*
X3816Y792I39J39D01*
G01*
X3533Y777D02*
G03*
X3494Y760I0J-56D01*
G01*
X3533Y777D02*
G03*
X3494Y760I0J-56D01*
G01*
X3445Y299D02*
G03*
X3484Y283I39J39D01*
G01*
X3445Y299D02*
G03*
X3484Y283I39J39D01*
G01*
X3504Y61D02*
G03*
X3543Y44I39J39D01*
G01*
X3504Y61D02*
G03*
X3543Y44I39J39D01*
G01*
X2836Y850D02*
G03*
X2836Y850I-286J0D01*
G01*
X1036D02*
G03*
X1036Y850I-286J0D01*
G01*
X3264Y408D02*
G03*
X3285Y280I-264J-108D01*
G01*
X586Y300D02*
G03*
X586Y300I-286J0D01*
G01*
X5104Y3399D02*
X5300Y3203D01*
X5176Y3399D02*
X5300Y3275D01*
X5033Y3399D02*
X5300Y3132D01*
X4889Y3399D02*
X5300Y2988D01*
X4961Y3399D02*
X5300Y3060D01*
X4817Y3399D02*
X5300Y2916D01*
X4918Y2934D02*
X5300Y3317D01*
X5248Y3399D02*
X5300Y3347D01*
X4926Y2727D02*
X5300Y3101D01*
X4856Y2585D02*
X5300Y3029D01*
X4890Y2978D02*
X5300Y3388D01*
X4914Y2943D02*
X5300Y2557D01*
X4803Y3035D02*
X5167Y3399D01*
X4767Y3071D02*
X5095Y3399D01*
X4846Y3007D02*
X5239Y3399D01*
X4731Y3107D02*
X5023Y3399D01*
X4695Y3143D02*
X4951Y3399D01*
X4745Y3399D02*
X5300Y2844D01*
X4926Y2799D02*
X5300Y3173D01*
X4926Y2870D02*
X5300Y3245D01*
X4926Y2710D02*
Y2890D01*
X4856Y2513D02*
X5300Y2957D01*
X4926Y2788D02*
X5300Y2413D01*
X4926Y2859D02*
X5300Y2485D01*
X4926Y2716D02*
X5300Y2341D01*
X4756Y2269D02*
X5300Y2814D01*
X4855Y2440D02*
X5300Y2886D01*
X4756Y2197D02*
X5300Y2742D01*
X4882Y2615D02*
X5300Y2198D01*
X4913Y2656D02*
X5300Y2269D01*
X4907Y1989D02*
X5300Y2383D01*
X4756Y2126D02*
X5300Y2670D01*
X4856Y2570D02*
X5300Y2126D01*
X4871Y2025D02*
X5300Y2454D01*
X4856Y2449D02*
Y2597D01*
Y2498D02*
X5300Y2054D01*
X4796Y2094D02*
X5300Y2598D01*
X4744Y2472D02*
Y2597D01*
X4830Y2056D02*
X5300Y2526D01*
X4852Y2430D02*
X5300Y1982D01*
X4820Y2390D02*
X5300Y1910D01*
X4756Y2326D02*
X4839Y2410D01*
X4756Y2116D02*
Y2326D01*
X4784Y2354D02*
X5300Y1838D01*
X4695Y3287D02*
X4808Y3399D01*
X4679Y3342D02*
X4736Y3399D01*
X4673Y3399D02*
X5300Y2772D01*
X4610Y3399D02*
X5300Y3399D01*
X4660Y3179D02*
X4880Y3399D01*
X4662Y3195D02*
X4853Y3004D01*
X4653Y3186D02*
X4826Y3013D01*
X4527Y3154D02*
X4707Y2974D01*
X4487Y3154D02*
X4690Y2951D01*
X4645Y3380D02*
X4664Y3399D01*
X4438Y3029D02*
X4545Y3136D01*
X4415Y3154D02*
X4675Y2895D01*
X4390Y3154D02*
X4527D01*
X4403Y3066D02*
X4491Y3154D01*
X4325Y3172D02*
X4675Y2823D01*
X4446Y2750D02*
X4689Y2993D01*
X4446Y2980D02*
X4675Y2751D01*
Y2710D02*
Y2890D01*
X4446Y2893D02*
X4617Y3065D01*
X4446Y2965D02*
X4581Y3100D01*
X4446Y2821D02*
X4653Y3029D01*
X4689Y3240D02*
X5300Y2629D01*
X4692Y3308D02*
X5300Y2701D01*
X4446Y2837D02*
X4744Y2538D01*
X4446Y2908D02*
X4680Y2674D01*
X4446Y2765D02*
X4741Y2469D01*
X4446Y2693D02*
X4705Y2433D01*
X4446Y2390D02*
X4696Y2640D01*
X4661Y2388D02*
X4744Y2472D01*
X4249Y2050D02*
X4744Y2545D01*
X4446Y2318D02*
X4732Y2605D01*
X4287Y2016D02*
X4744Y2474D01*
X4446Y2462D02*
X4676Y2692D01*
X4446Y2621D02*
X4669Y2397D01*
X4446Y2549D02*
X4644Y2350D01*
X4446Y2678D02*
X4676Y2908D01*
X4446Y2606D02*
X4675Y2835D01*
X4446Y2534D02*
X4675Y2763D01*
X4644Y2116D02*
Y2349D01*
X4446Y2405D02*
X4644Y2207D01*
X4446Y2477D02*
X4644Y2278D01*
X4446Y2334D02*
X4644Y2135D01*
X5014Y1882D02*
X5300Y2167D01*
X4979Y1918D02*
X5300Y2239D01*
X5046Y1841D02*
X5300Y2095D01*
X4943Y1953D02*
X5300Y2311D01*
X4854Y2042D02*
X5032Y1864D01*
X4756Y2311D02*
X5300Y1767D01*
X5048Y1771D02*
X5300Y2023D01*
X4796Y1943D02*
X4937Y1802D01*
X4859Y1798D02*
X4900Y1839D01*
X4796Y1912D02*
X4937Y1770D01*
X4796Y2058D02*
Y2116D01*
Y2058D02*
X4815D01*
X4756Y2116D02*
X4796D01*
Y1884D02*
Y1943D01*
X4819Y1830D02*
X4864Y1875D01*
X4750Y1833D02*
X4828Y1911D01*
X4679Y1884D02*
X4731Y1833D01*
X4751Y1884D02*
X4803Y1833D01*
X5048Y1700D02*
X5300Y1952D01*
X5048Y1628D02*
X5300Y1880D01*
X4756Y2239D02*
X5300Y1695D01*
X4894Y1762D02*
X4936Y1803D01*
X4756Y2167D02*
X5300Y1623D01*
X4921Y1643D02*
X4937Y1627D01*
X4921Y1644D02*
X4937Y1660D01*
X4921Y1572D02*
X4937Y1589D01*
X4920Y1716D02*
X4937Y1732D01*
X4921Y1715D02*
X4937Y1699D01*
X4839Y1817D02*
X4904Y1752D01*
X4777Y1722D02*
X4783Y1716D01*
X4776D02*
X4796Y1696D01*
X4705Y1716D02*
X4711Y1722D01*
X4698D02*
X4704Y1716D01*
X4770Y1722D02*
X4776Y1716D01*
X4796Y1624D02*
X4809Y1611D01*
X4796Y1663D02*
X4809Y1677D01*
X4796Y1591D02*
X4809Y1605D01*
X4796Y1703D02*
X4809Y1689D01*
X4783Y1716D02*
X4796Y1703D01*
Y1696D02*
X4809Y1682D01*
X4596Y2109D02*
X4644Y2158D01*
X4604Y2116D02*
X4644D01*
X4604Y1884D02*
Y2116D01*
X4530D02*
X4644Y2230D01*
X4458Y2116D02*
X4644Y2302D01*
X4596Y2112D02*
X4604Y2103D01*
Y1884D02*
X4796D01*
X4596Y1968D02*
X4604Y1959D01*
X4607Y1833D02*
X4658Y1884D01*
X4596Y2040D02*
X4604Y2031D01*
X4596Y2037D02*
X4604Y2046D01*
X4596Y1966D02*
X4604Y1974D01*
X4441Y2266D02*
X4592Y2116D01*
X4596Y1884D02*
Y2116D01*
X4404D02*
X4596D01*
X4372Y2191D02*
X4448Y2116D01*
X4408Y2227D02*
X4520Y2116D01*
X4596Y1896D02*
X4604Y1887D01*
X4596Y1894D02*
X4604Y1903D01*
X4586Y1884D02*
X4596Y1894D01*
X4556Y1884D02*
X4596D01*
X4556Y1863D02*
Y1884D01*
X4560Y1858D02*
X4586Y1884D01*
X4679Y1833D02*
X4730Y1884D01*
X4633Y1716D02*
X4639Y1722D01*
X4626D02*
X4633Y1716D01*
X4586Y1833D02*
X4800D01*
X4607Y1884D02*
X4659Y1833D01*
X4563Y1722D02*
X4777D01*
X4604Y1716D02*
X4783D01*
X4596Y1678D02*
X4604Y1687D01*
X4596Y1681D02*
X4604Y1672D01*
X4596Y1606D02*
X4604Y1615D01*
X4404Y1716D02*
X4596D01*
Y1609D02*
X4604Y1600D01*
X4556Y1864D02*
X4587Y1833D01*
X4556Y1863D02*
X4586Y1833D01*
X4500Y1761D02*
X4523Y1738D01*
X4489Y1716D02*
X4518Y1744D01*
X4554Y1723D02*
X4561Y1716D01*
X4561D02*
X4567Y1722D01*
X4350Y1742D02*
X4458D01*
X4462Y1742D02*
X4489Y1716D01*
X4367Y3102D02*
X4419Y3154D01*
X4331Y3138D02*
X4353Y3160D01*
X4329Y3139D02*
X4429Y3039D01*
X4326Y2773D02*
X4334Y2782D01*
X4326Y2813D02*
X4334Y2804D01*
X4326Y2741D02*
X4334Y2732D01*
X4326Y2917D02*
X4334Y2926D01*
X4325Y2958D02*
X4334Y2948D01*
X4326Y2845D02*
X4334Y2854D01*
X4314Y3399D02*
X4326Y3388D01*
X4242Y3399D02*
X4288Y3353D01*
X4277Y3156D02*
X4307Y3186D01*
X4205Y3156D02*
X4276Y3227D01*
X4170Y3399D02*
X4267Y3303D01*
X4133Y3156D02*
X4265Y3287D01*
X4319Y2982D02*
X4324Y2987D01*
X4326Y2884D02*
X4334Y2876D01*
X4309Y3002D02*
X4334Y2977D01*
Y2311D02*
Y2977D01*
X4326Y2702D02*
X4334Y2710D01*
X4446Y2288D02*
Y3000D01*
X4321Y2625D02*
X4334Y2638D01*
X4326Y2669D02*
X4334Y2660D01*
X4315Y2608D02*
X4334Y2588D01*
X4239Y2540D02*
X4334Y2445D01*
X4284Y2567D02*
X4334Y2517D01*
X4119Y2351D02*
X4334Y2567D01*
X4169Y2538D02*
X4334Y2373D01*
X4174Y2191D02*
X4334Y2351D01*
X4326Y2660D02*
Y2940D01*
X4101Y2459D02*
Y2584D01*
Y2476D02*
X4164Y2540D01*
X4101Y2548D02*
X4118Y2565D01*
X4101Y2535D02*
X4330Y2306D01*
X4146Y2306D02*
X4334Y2495D01*
X4149Y2271D02*
X4222Y2198D01*
X4214Y2191D02*
X4334Y2311D01*
X4101Y2463D02*
X4294Y2270D01*
X4132Y2221D02*
X4334Y2423D01*
X4061Y3156D02*
X4305Y3399D01*
X4098Y3399D02*
X4283Y3215D01*
X4027Y3399D02*
X4270Y3156D01*
X3955Y3399D02*
X4198Y3156D01*
X3918D02*
X4161Y3399D01*
X3990Y3156D02*
X4233Y3399D01*
X4094Y3044D02*
X4111Y3028D01*
X4071Y2591D02*
X4096D01*
X4022Y3044D02*
X4083Y2984D01*
X4071Y2591D02*
X4087Y2606D01*
X4075Y2852D02*
Y2940D01*
X3950Y3044D02*
X4075Y2920D01*
X3976Y2759D02*
X4056Y2839D01*
X4071Y2637D02*
X4079Y2629D01*
X4075Y2660D02*
Y2701D01*
X4071Y2591D02*
Y2697D01*
X3959Y2591D02*
Y2720D01*
X3929Y2591D02*
X3959D01*
X4084Y2459D02*
X4101Y2476D01*
X4073Y2376D02*
X4236Y2540D01*
X4071Y2459D02*
X4101D01*
X4071Y2446D02*
X4084Y2459D01*
X4071Y2377D02*
Y2459D01*
Y2421D02*
X4258Y2234D01*
X3951Y2326D02*
X3961Y2336D01*
X3951Y2398D02*
X3959Y2407D01*
X3951Y2459D02*
X3959D01*
Y2348D02*
Y2459D01*
X3905Y2568D02*
X3959Y2623D01*
X3929Y2544D02*
Y2591D01*
X3951Y2317D02*
Y2459D01*
Y2398D02*
X3959Y2389D01*
X3951Y2326D02*
X3958Y2318D01*
X3930Y2274D02*
X3948Y2257D01*
X3912Y2221D02*
X3953Y2261D01*
X4301Y2119D02*
X4404Y2016D01*
X4336Y2155D02*
X4404Y2087D01*
Y1884D02*
Y2116D01*
X4277Y2096D02*
X4429Y2248D01*
X4263Y2085D02*
X4404Y1944D01*
X4336Y1921D02*
X4404Y1990D01*
X4323Y1980D02*
X4404Y2062D01*
X4336Y1891D02*
Y1945D01*
X4264Y2039D02*
X4319Y1984D01*
X4197Y2079D02*
X4221Y2056D01*
X4183D02*
X4207Y2079D01*
X4161D02*
X4237D01*
X4161Y2191D02*
Y2221D01*
Y2056D02*
Y2079D01*
X4202Y1944D02*
X4224Y1922D01*
X4161Y2056D02*
X4225D01*
X4168Y1944D02*
X4202D01*
X4188D02*
X4224Y1908D01*
X4434Y1853D02*
X4444Y1863D01*
Y1884D01*
X4411Y1853D02*
X4443Y1884D01*
X4404D02*
X4444D01*
X4356Y1870D02*
X4404Y1918D01*
X4336Y1941D02*
X4423Y1853D01*
X4417Y1716D02*
X4444Y1742D01*
X4404Y1703D02*
X4417Y1716D01*
X4404Y1676D02*
Y1716D01*
X4373Y1853D02*
X4434D01*
X4391Y1742D02*
X4417Y1716D01*
X4388Y1676D02*
X4404D01*
X4336Y1891D02*
X4373Y1853D01*
X4224Y1871D02*
Y1922D01*
X4214Y1872D02*
X4224Y1882D01*
X4310Y1754D02*
X4388Y1676D01*
X4383Y1681D02*
X4404Y1703D01*
X4347Y1717D02*
X4372Y1742D01*
X4231Y1675D02*
X4326Y1581D01*
X4196Y1637D02*
X4232Y1674D01*
X4180Y1666D02*
X4196Y1650D01*
Y1566D02*
X4268Y1638D01*
X4161Y2191D02*
X4214D01*
X4129Y2221D02*
X4161D01*
X4145Y2056D02*
X4161D01*
X3971Y2090D02*
X4064Y1997D01*
X4056Y1989D02*
X4106Y2039D01*
X4083Y2049D02*
X4100Y2033D01*
X4029Y2049D02*
X4120D01*
X4029Y1951D02*
X4039D01*
X3991Y2142D02*
X4029Y2103D01*
X3971Y2122D02*
X4029Y2181D01*
Y2049D02*
Y2181D01*
X3971Y2059D02*
X4029Y2118D01*
X3894Y2238D02*
X3912Y2221D01*
X3971Y2049D02*
Y2122D01*
Y1951D02*
X4029D01*
X3961Y2049D02*
X3971Y2059D01*
X4029Y1951D02*
X4039D01*
X3934D02*
X4033Y2049D01*
X3934Y1951D02*
X3971D01*
X3940Y2049D02*
X4038Y1951D01*
X4161Y1900D02*
X4191Y1869D01*
X4161Y1857D02*
Y1937D01*
X4168Y1944D01*
X4006Y1951D02*
X4105Y2049D01*
X4161Y1890D02*
X4209Y1938D01*
X4156Y1666D02*
X4196D01*
X4156Y1669D02*
X4170Y1683D01*
X4156Y1690D02*
X4180Y1666D01*
X4156D02*
Y1692D01*
X4044Y1666D02*
Y1720D01*
X3994Y1666D02*
X4034Y1706D01*
X3934Y1951D02*
X3971D01*
X3939Y1768D02*
Y1779D01*
X3922D02*
X3936Y1765D01*
X4008Y1666D02*
X4044Y1702D01*
X4004Y1666D02*
X4044D01*
X4015Y1686D02*
X4036Y1666D01*
X3996Y1634D02*
X4004Y1625D01*
X3996Y1653D02*
X4004Y1662D01*
X3996Y1581D02*
X4004Y1590D01*
X5048Y1412D02*
X5300Y1664D01*
X5048Y1731D02*
X5300Y1479D01*
X5048Y1659D02*
X5300Y1407D01*
X5048Y1803D02*
X5300Y1551D01*
X5048Y1556D02*
X5300Y1808D01*
X5048Y1484D02*
X5300Y1736D01*
X5048Y1587D02*
X5300Y1336D01*
X5048Y1340D02*
X5300Y1592D01*
X5048Y1269D02*
X5300Y1521D01*
X4921Y1284D02*
X4937Y1268D01*
X4921Y1571D02*
X4937Y1555D01*
X5048Y1516D02*
X5300Y1264D01*
X4921Y1500D02*
X4937Y1517D01*
X4809Y1247D02*
Y1689D01*
X4921Y1224D02*
Y1712D01*
X4796Y1519D02*
X4809Y1533D01*
X4796Y1553D02*
X4809Y1539D01*
X4796Y1484D02*
Y1703D01*
X4921Y1356D02*
X4937Y1339D01*
X4921Y1357D02*
X4937Y1373D01*
X4921Y1285D02*
X4937Y1301D01*
X4921Y1428D02*
X4937Y1445D01*
X4921Y1499D02*
X4937Y1483D01*
X4921Y1428D02*
X4937Y1411D01*
X5048Y1053D02*
X5300Y1305D01*
X5048Y1372D02*
X5300Y1120D01*
X5048Y1300D02*
X5300Y1048D01*
X5048Y1444D02*
X5300Y1192D01*
X5048Y1197D02*
X5300Y1449D01*
X5048Y1125D02*
X5300Y1377D01*
X5048Y1228D02*
X5300Y976D01*
X5048Y981D02*
X5300Y1233D01*
X5073Y862D02*
X5300Y1089D01*
X5048Y1085D02*
X5300Y833D01*
X5048Y1156D02*
X5300Y904D01*
X5048Y1013D02*
X5300Y761D01*
X5048Y884D02*
Y1825D01*
X4937Y914D02*
Y1802D01*
X5300Y0D02*
Y3399D01*
X4919Y1212D02*
X4937Y1229D01*
X5048Y909D02*
X5300Y1161D01*
X4920Y1213D02*
X4937Y1196D01*
X5101Y819D02*
X5300Y1018D01*
X4854Y1134D02*
X4937Y1052D01*
X4890Y1170D02*
X4937Y1124D01*
X4819Y1099D02*
X4937Y980D01*
X4745Y1484D02*
X4796D01*
X4792D02*
X4809Y1467D01*
X4733Y1472D02*
X4809Y1395D01*
X4617Y1356D02*
X4739Y1478D01*
X4661Y1400D02*
X4809Y1251D01*
X4697Y1436D02*
X4809Y1323D01*
X4678Y1186D02*
X4809Y1317D01*
X4606Y1186D02*
X4809Y1389D01*
X4625Y1364D02*
X4776Y1213D01*
X4506Y1339D02*
X4660Y1186D01*
X4604Y1501D02*
Y1716D01*
X4596Y1535D02*
X4604Y1543D01*
X4596Y1492D02*
Y1716D01*
Y1492D02*
X4604Y1501D01*
X4596Y1537D02*
X4604Y1528D01*
X4588Y1484D02*
X4596Y1492D01*
X4576Y1484D02*
X4582Y1478D01*
X4554Y1451D02*
X4588Y1484D01*
X4404D02*
X4588D01*
X4469Y1339D02*
X4578D01*
X4751Y1031D02*
X4904Y1184D01*
X4688Y1126D02*
X4809Y1247D01*
X4661Y810D02*
X4937Y1086D01*
X4534Y1186D02*
X4809Y1461D01*
X4462Y1186D02*
X4761Y1484D01*
X4595Y815D02*
X4937Y1157D01*
X4783Y1063D02*
X4932Y913D01*
X4746Y1027D02*
X4878Y895D01*
X4733Y810D02*
X4937Y1014D01*
X4687Y1014D02*
X4837Y864D01*
X4686Y1160D02*
X4704Y1141D01*
X4686Y1126D02*
Y1186D01*
Y978D02*
X4723Y1016D01*
X4494Y1186D02*
X4686D01*
X4489Y1284D02*
X4588Y1186D01*
X4578Y1339D02*
X4740Y1177D01*
X4686Y1014D02*
X4711D01*
X4686Y954D02*
Y1014D01*
X4567Y859D02*
X4662Y954D01*
X4494D02*
X4686D01*
X4528Y892D02*
X4590Y954D01*
X4532D02*
X4676Y810D01*
X5078Y652D02*
X5300Y874D01*
X5114Y760D02*
X5300Y946D01*
X5103Y814D02*
X5300Y617D01*
X5048Y941D02*
X5300Y689D01*
X5010Y512D02*
X5300Y802D01*
X5095Y678D02*
X5300Y473D01*
X5113Y732D02*
X5300Y545D01*
X5064Y637D02*
X5300Y402D01*
X5010Y584D02*
X5056Y630D01*
X5010Y440D02*
X5300Y730D01*
X5010Y397D02*
Y603D01*
X4900Y905D02*
X4937Y942D01*
X4898Y397D02*
Y603D01*
X4867Y619D02*
X4898Y588D01*
X4819Y608D02*
X4846Y635D01*
X4847Y565D02*
X4889Y607D01*
X4892Y394D02*
X4898Y401D01*
X4860Y506D02*
X4898Y544D01*
X5010Y405D02*
X5023Y391D01*
X4860Y483D02*
X4898Y444D01*
X4845Y569D02*
X4898Y516D01*
X4824Y398D02*
X4898Y472D01*
X5070Y357D02*
X5300Y587D01*
X5029Y388D02*
X5300Y658D01*
X5099Y314D02*
X5300Y515D01*
X5010Y548D02*
X5300Y258D01*
X5021Y608D02*
X5300Y330D01*
X5010Y476D02*
X5300Y186D01*
X5114Y229D02*
X5300Y42D01*
X5114Y257D02*
X5300Y443D01*
X5216Y0D02*
X5300Y84D01*
X5099Y315D02*
X5300Y114D01*
X5091Y162D02*
X5300Y371D01*
X5001Y0D02*
X5300Y299D01*
X5073Y0D02*
X5300Y227D01*
X5097Y173D02*
X5271Y0D01*
X5144D02*
X5300Y156D01*
X4843Y427D02*
X4881Y389D01*
X5067Y132D02*
X5199Y0D01*
X5025Y102D02*
X5127Y0D01*
X4969Y86D02*
X5055Y0D01*
X5288D02*
X5300Y12D01*
X4879Y104D02*
X4983Y0D01*
X4857D02*
X4943Y86D01*
X4929Y0D02*
X5038Y109D01*
X4788Y698D02*
X4819Y667D01*
X4675Y954D02*
X4808Y821D01*
X4597Y810D02*
X4803D01*
X4597Y698D02*
X4803D01*
X4813Y386D02*
X4840Y359D01*
X4779Y640D02*
X4814Y675D01*
X4771Y356D02*
X4810Y317D01*
X4716Y698D02*
X4769Y645D01*
X4725Y659D02*
X4765Y698D01*
X4644D02*
X4683Y660D01*
X4646Y651D02*
X4693Y698D01*
X4603Y954D02*
X4748Y810D01*
X4591Y823D02*
X4605Y810D01*
X4589Y681D02*
X4627Y643D01*
X4559Y640D02*
X4586Y613D01*
X4565Y354D02*
X4592Y381D01*
X4479Y556D02*
X4622Y698D01*
X4539Y444D02*
X4558Y425D01*
X4525Y386D02*
X4560Y421D01*
X4799Y302D02*
X4806Y308D01*
X4597Y302D02*
X4803D01*
X4728D02*
X4802Y376D01*
X4721Y190D02*
X4911Y0D01*
X4785D02*
X4886Y101D01*
X4793Y190D02*
X4812Y171D01*
X4713Y0D02*
X4843Y130D01*
X4642Y0D02*
X4812Y171D01*
X4597Y190D02*
X4803D01*
X4649D02*
X4839Y0D01*
X4656Y302D02*
X4694Y340D01*
X4625Y358D02*
X4682Y302D01*
X4715Y340D02*
X4753Y302D01*
X4593Y311D02*
X4635Y353D01*
X4585Y326D02*
X4610Y302D01*
X4591Y177D02*
X4768Y0D01*
X4570Y144D02*
X4616Y190D01*
X4570Y0D02*
X4760Y190D01*
X4498Y0D02*
X4688Y190D01*
X4520Y104D02*
X4624Y0D01*
X4561Y134D02*
X4696Y0D01*
X4505Y1484D02*
X4538Y1451D01*
X4440D02*
X4474Y1484D01*
X4512Y1451D02*
X4545Y1484D01*
X4368Y1451D02*
X4404Y1487D01*
X4296Y1451D02*
X4404Y1559D01*
X4433Y1484D02*
X4467Y1451D01*
X4489Y1284D02*
X4544Y1339D01*
X4474Y1228D02*
X4516Y1186D01*
X4238Y1451D02*
X4554D01*
X4446Y1186D02*
Y1198D01*
X4351Y1566D02*
X4404Y1513D01*
X4365Y1565D02*
X4404D01*
Y1484D02*
Y1565D01*
X4261Y1339D02*
X4311D01*
X4290D02*
X4303Y1327D01*
X4294Y1186D02*
X4334D01*
X4239Y1318D02*
X4292Y1266D01*
X4226Y1304D02*
X4261Y1339D01*
X4226Y1236D02*
X4294Y1305D01*
X4494Y954D02*
Y1186D01*
X4486Y1065D02*
X4494Y1074D01*
X4486Y954D02*
Y1186D01*
Y1137D02*
X4494Y1146D01*
X4446Y1186D02*
X4486D01*
Y1144D02*
X4494Y1135D01*
X4486Y993D02*
X4494Y1002D01*
X4486Y1072D02*
X4494Y1063D01*
X4486Y1000D02*
X4494Y992D01*
X4294Y954D02*
X4486D01*
X4388D02*
X4429Y914D01*
X4476Y912D02*
X4518Y954D01*
X4318Y1186D02*
X4332Y1199D01*
X4226Y1260D02*
X4300Y1186D01*
X4334D02*
Y1198D01*
X4226Y1165D02*
X4300Y1239D01*
X4226Y1189D02*
X4294Y1120D01*
X4226Y988D02*
Y1304D01*
X4294Y954D02*
Y1186D01*
X4226Y1093D02*
X4294Y1162D01*
X4316Y954D02*
X4373Y897D01*
X4226Y1021D02*
X4294Y1090D01*
X4226Y1117D02*
X4294Y1048D01*
X4226Y1045D02*
X4294Y976D01*
X4196Y1650D02*
X4395Y1451D01*
X4222Y1448D02*
X4343Y1569D01*
X4196Y1434D02*
Y1666D01*
Y1494D02*
X4304Y1602D01*
X4196Y1506D02*
X4251Y1451D01*
X4196Y1578D02*
X4323Y1451D01*
X4131Y1367D02*
X4198Y1434D01*
X4004Y1434D02*
X4196D01*
X4123D02*
X4161Y1397D01*
X4004Y1434D02*
Y1666D01*
X3996Y1562D02*
X4004Y1553D01*
X3996Y1434D02*
Y1666D01*
Y1490D02*
X4004Y1482D01*
X3996Y1509D02*
X4004Y1518D01*
X3996Y1437D02*
X4004Y1446D01*
X4052Y1434D02*
X4125Y1361D01*
X3980Y1434D02*
X4114Y1300D01*
X3956Y1434D02*
X3996D01*
X3956Y1397D02*
X3993Y1434D01*
X3956Y1326D02*
X4064Y1434D01*
X3988Y1214D02*
X4117Y1343D01*
X3998Y1152D02*
X4114Y1269D01*
X3991Y1208D02*
X4114Y1084D01*
X3956Y1254D02*
X4136Y1434D01*
X3956Y1387D02*
X4114Y1228D01*
X3956Y1315D02*
X4114Y1156D01*
X4224Y975D02*
X4332Y867D01*
X4016Y596D02*
X4375Y954D01*
X3996Y1078D02*
X4114Y1197D01*
X3944Y596D02*
X4303Y954D01*
X4114Y1011D02*
Y1327D01*
X3993Y1134D02*
X4114Y1012D01*
X3996Y1006D02*
X4114Y1125D01*
X3956Y1250D02*
Y1434D01*
X4007Y904D02*
X4114Y1011D01*
X3996Y1059D02*
X4079Y976D01*
X3996Y904D02*
Y1116D01*
Y988D02*
X4043Y940D01*
X3984Y1116D02*
X3996D01*
Y935D02*
X4114Y1053D01*
X4517Y610D02*
X4556Y571D01*
X4460Y954D02*
X4515Y899D01*
X4461Y594D02*
X4499Y556D01*
X4400Y908D02*
X4447Y954D01*
X4407Y556D02*
X4445Y593D01*
X4371Y612D02*
X4428Y556D01*
X4471Y405D02*
X4511Y444D01*
X4395D02*
X4433Y406D01*
X4467Y444D02*
X4526Y385D01*
X4383Y444D02*
X4549D01*
X4360Y556D02*
X4549D01*
X4392Y397D02*
X4439Y444D01*
X4335Y556D02*
X4385Y605D01*
X4263Y556D02*
X4341Y633D01*
X4200Y556D02*
X4350Y556D01*
X4194Y933D02*
X4302Y825D01*
X4158Y897D02*
X4286Y769D01*
X4191Y556D02*
X4308Y672D01*
X4353Y415D02*
X4377Y391D01*
X4350Y556D02*
X4360D01*
X4317Y379D02*
X4334Y361D01*
X4200Y444D02*
X4226Y444D01*
X4179Y444D02*
X4203Y421D01*
X4161Y379D02*
X4226Y444D01*
X4256Y317D02*
X4383Y444D01*
X4281Y343D02*
X4304Y320D01*
X4256Y225D02*
X4299Y181D01*
X4208Y129D02*
X4337Y0D01*
X4139D02*
X4306Y167D01*
X4243Y165D02*
X4408Y0D01*
X4426D02*
X4548Y122D01*
X4381Y99D02*
X4480Y0D01*
X4465Y87D02*
X4552Y0D01*
X4282D02*
X4381Y99D01*
X4211Y0D02*
X4338Y127D01*
X4354Y0D02*
X4440Y86D01*
X4256Y261D02*
X4295Y300D01*
X4256Y297D02*
X4287Y265D01*
X4256Y200D02*
Y317D01*
X4144Y223D02*
Y340D01*
X4254Y187D02*
X4287Y221D01*
X4172Y93D02*
X4265Y0D01*
X4139Y61D02*
X4239Y161D01*
X4136Y57D02*
X4193Y0D01*
X4122Y861D02*
X4304Y679D01*
X4088Y596D02*
X4292Y800D01*
X4086Y826D02*
X4356Y556D01*
X4014Y754D02*
X4212Y556D01*
X4069Y809D02*
X4209Y949D01*
X4050Y790D02*
X4284Y556D01*
X4116Y556D02*
X4200D01*
X4116Y580D02*
X4140Y556D01*
X4120D02*
X4288Y724D01*
X4116Y444D02*
X4200D01*
X4100Y596D02*
X4116Y580D01*
Y408D02*
X4152Y444D01*
X3996Y916D02*
X4007Y904D01*
X3996Y904D02*
X4007D01*
X3978Y718D02*
X4100Y596D01*
X3942Y682D02*
X4069Y809D01*
X3942Y682D02*
X4028Y596D01*
X4116Y404D02*
Y444D01*
Y556D02*
Y596D01*
X4103Y396D02*
X4112Y404D01*
X4031Y396D02*
X4040Y404D01*
X4076D02*
X4085Y396D01*
X4116Y264D02*
X4144Y293D01*
X4116Y365D02*
X4144Y336D01*
X4116Y293D02*
X4144Y264D01*
X4116Y336D02*
X4224Y444D01*
X4116Y437D02*
X4167Y385D01*
X4116Y204D02*
Y396D01*
Y221D02*
X4129Y208D01*
X4077Y156D02*
X4144Y223D01*
X4077Y44D02*
X4121Y0D01*
X4067D02*
X4113Y46D01*
X4060Y204D02*
X4093Y172D01*
X4004Y404D02*
X4013Y396D01*
X4007Y156D02*
X4056Y204D01*
X3960Y396D02*
X3968Y404D01*
X3932D02*
X3941Y396D01*
X3988Y204D02*
X4037Y156D01*
X3995Y0D02*
X4039Y44D01*
X3935Y156D02*
X3984Y204D01*
X4005Y44D02*
X4049Y0D01*
X3923D02*
X3968Y44D01*
X3917Y204D02*
X3965Y156D01*
X3933Y44D02*
X3977Y0D01*
X3846Y3156D02*
X4089Y3399D01*
X3811Y3399D02*
X4055Y3156D01*
X3883Y3399D02*
X4127Y3156D01*
X3790D02*
X4290D01*
X3770Y3152D02*
X4018Y3399D01*
X3623Y2645D02*
X4022Y3044D01*
X3813D02*
X4131D01*
X3878D02*
X4072Y2851D01*
X3861Y2667D02*
X4075Y2882D01*
X3807Y2686D02*
X4075Y2954D01*
X3810Y3041D02*
X4034Y2817D01*
X3735Y2686D02*
X4094Y3044D01*
X3774Y3005D02*
X3998Y2781D01*
X3667Y3399D02*
X3911Y3156D01*
X3595Y3399D02*
X3839Y3156D01*
X3739Y3399D02*
X3983Y3156D01*
X3738Y2969D02*
X3964Y2743D01*
X3689Y2686D02*
X3861D01*
X3702Y2933D02*
X3959Y2676D01*
X3630Y2862D02*
X3806Y2686D01*
X3594Y2826D02*
X3734Y2686D01*
X3558Y2790D02*
X3689Y2659D01*
X3869Y2604D02*
X3959Y2694D01*
X3861Y2613D02*
Y2686D01*
Y2631D02*
X3929Y2562D01*
X3666Y2898D02*
X3959Y2604D01*
X3861Y2613D02*
X3929Y2544D01*
X3729Y2554D02*
X3788Y2496D01*
Y2364D02*
X3839D01*
X3788Y2496D02*
X3821D01*
X3839Y2341D02*
Y2364D01*
X3762Y2554D02*
X3821Y2496D01*
X3774Y2509D02*
X3791Y2526D01*
X3756Y2332D02*
X3788Y2364D01*
X3689Y2594D02*
Y2686D01*
X3667Y2617D02*
X3689Y2640D01*
X3729Y2554D02*
X3762D01*
X3654Y2630D02*
X3689Y2594D01*
X3738Y2545D02*
X3748Y2554D01*
X3689Y2423D02*
Y2437D01*
X3661Y2394D02*
X3689Y2423D01*
X3592Y2535D02*
X3689Y2437D01*
X3524Y3399D02*
X3771Y3152D01*
X3452Y3399D02*
X3731Y3120D01*
X3380Y3399D02*
X3695Y3084D01*
X-3Y3400D02*
X4351Y3399D01*
X3308Y3399D02*
X3659Y3048D01*
X3236Y3399D02*
X3623Y3012D01*
X3549Y2781D02*
X3813Y3044D01*
X3487Y2876D02*
X3751Y3139D01*
X3550Y2716D02*
X3878Y3044D01*
X3350Y2876D02*
X3874Y3399D01*
X3272Y3013D02*
X3659Y3399D01*
X3422Y2876D02*
X3946Y3399D01*
X3286Y3098D02*
X3587Y3399D01*
X3279Y3163D02*
X3515Y3399D01*
X3283Y3137D02*
X3516Y2904D01*
X3164Y3399D02*
X3588Y2976D01*
X3261Y3217D02*
X3443Y3399D01*
X3245Y3247D02*
X3552Y2940D01*
X3440Y2764D02*
X3489Y2716D01*
X3320Y2876D02*
X3487D01*
X3283Y3065D02*
X3473Y2876D01*
X3343Y2764D02*
X3510D01*
X3556Y2650D02*
X3950Y3044D01*
X3556Y2646D02*
X3615D01*
X3556Y2505D02*
X3664Y2397D01*
X2831Y2500D02*
X3730Y3399D01*
X3512Y2764D02*
X3634Y2643D01*
X2765Y2362D02*
X3802Y3399D01*
X3456Y2262D02*
X3660Y2467D01*
X3504Y2484D02*
X3644Y2344D01*
X3456Y2191D02*
X3689Y2424D01*
X3433Y2484D02*
X3644Y2273D01*
X3454Y2333D02*
X3624Y2503D01*
X3356Y2490D02*
X3644Y2201D01*
X3556Y2646D02*
Y2716D01*
X3478D02*
X3530Y2768D01*
X3556Y2484D02*
Y2535D01*
X3364Y2716D02*
X3556D01*
X3368Y2764D02*
X3417Y2716D01*
X3406D02*
X3455Y2764D01*
X3556Y2535D02*
X3592D01*
X3556Y2506D02*
X3584Y2535D01*
X3424Y2375D02*
X3534Y2484D01*
X3364D02*
X3556D01*
X3388Y2410D02*
X3462Y2484D01*
X3316Y2483D02*
X3439Y2359D01*
X3877Y2221D02*
X3934Y2278D01*
X3877Y2221D02*
X3912D01*
X3823Y2166D02*
X3839Y2149D01*
X3821Y2125D02*
X3839Y2143D01*
X3821Y2165D02*
X3839Y2183D01*
X3821Y2096D02*
X3839Y2078D01*
Y2049D02*
X3971D01*
X3862Y1951D02*
X3961Y2049D01*
X3868D02*
X3967Y1951D01*
X3821Y2024D02*
X3895Y1951D01*
X3821Y1981D02*
X3889Y2049D01*
X3839Y1951D02*
X3934D01*
X3756Y2275D02*
X3839Y2359D01*
X3778Y2355D02*
X3816Y2317D01*
X3839Y2049D02*
Y2183D01*
X3756Y2257D02*
X3839Y2341D01*
X3756Y2305D02*
X3780Y2281D01*
X3756Y2257D02*
Y2332D01*
X3821Y2053D02*
X3839Y2072D01*
X3821Y1968D02*
Y2165D01*
Y1968D02*
X3839Y1949D01*
X3756Y1876D02*
X3806Y1826D01*
X3861Y1689D02*
X3939Y1768D01*
X3850Y1779D02*
X3901Y1729D01*
X3839Y1779D02*
X3934D01*
X3756Y1874D02*
X3839Y1790D01*
X3850Y1779D01*
X3836Y1434D02*
X3844Y1426D01*
Y1250D02*
Y1434D01*
X3804Y1666D02*
X3847D01*
X3804Y1434D02*
X3844D01*
X3839Y1779D02*
Y1810D01*
X3756Y1587D02*
X3804Y1538D01*
Y1434D02*
Y1666D01*
X3756Y1557D02*
X3804Y1605D01*
X3756Y1659D02*
X3804Y1610D01*
X3756Y1116D02*
Y1876D01*
Y1228D02*
X3802Y1181D01*
X3756Y1116D02*
X3796D01*
X3804D02*
X3816D01*
X3756Y1515D02*
X3804Y1466D01*
X3756Y1485D02*
X3804Y1534D01*
X3756Y1413D02*
X3804Y1462D01*
X3644Y2200D02*
Y2355D01*
X3456Y2318D02*
X3644Y2129D01*
X3456Y2119D02*
X3644Y2308D01*
X3456Y2047D02*
X3644Y2236D01*
X3456Y2246D02*
X3644Y2057D01*
X3456Y2174D02*
X3644Y1985D01*
X3756Y1802D02*
X3865Y1693D01*
X3756Y1700D02*
X3839Y1784D01*
X3756Y1730D02*
X3820Y1666D01*
X3756Y1844D02*
X3772Y1860D01*
X3483Y2003D02*
X3644Y2164D01*
X3756Y1772D02*
X3807Y1824D01*
X3508Y1955D02*
X3644Y2092D01*
X3456Y2026D02*
Y2320D01*
Y2102D02*
X3644Y1913D01*
X3456Y2030D02*
X3473Y2013D01*
X3508Y1906D02*
X3644Y1770D01*
X3490Y1866D02*
X3644Y2020D01*
X3484Y1858D02*
X3644Y1698D01*
X3483Y2003D02*
X3644Y1842D01*
X3756Y1628D02*
X3907Y1779D01*
X3504Y1448D02*
X3644Y1589D01*
X3756Y1443D02*
X3844Y1354D01*
X3475Y1491D02*
X3644Y1661D01*
X3346Y1507D02*
X3644Y1805D01*
X2765Y2362D02*
X3644Y1482D01*
X3756Y1197D02*
X3844Y1286D01*
X3756Y1299D02*
X3824Y1231D01*
X3756Y1126D02*
X3801Y1171D01*
X3756Y1371D02*
X3844Y1282D01*
X3756Y1341D02*
X3844Y1430D01*
X3756Y1269D02*
X3844Y1358D01*
X3428Y1517D02*
X3644Y1733D01*
X3443Y1828D02*
X3644Y1626D01*
Y1116D02*
Y2200D01*
X2728Y2327D02*
X3644Y1411D01*
X3377Y1822D02*
X3644Y1554D01*
X2685Y2298D02*
X3644Y1339D01*
X3510Y1401D02*
X3644Y1267D01*
X3506Y1379D02*
X3644Y1517D01*
X3604Y1116D02*
X3644D01*
X3492Y1348D02*
X3644Y1195D01*
X3454Y1314D02*
X3644Y1123D01*
X3117Y3361D02*
X3156Y3399D01*
X3063Y3379D02*
X3084Y3399D01*
X3092Y3399D02*
X3147Y3345D01*
X2998Y3386D02*
X3012Y3399D01*
X2949Y3399D02*
X2965Y3383D01*
X3021Y3399D02*
X3037Y3383D01*
X3235Y3263D02*
X3371Y3399D01*
X3247Y2957D02*
X3329Y2876D01*
X3270Y3006D02*
X3401Y2876D01*
X3202Y3302D02*
X3299Y3399D01*
X3163Y3335D02*
X3228Y3399D01*
X3235Y3263D02*
X3371Y3399D01*
X2589Y3400D02*
X2750Y3239D01*
X2518Y3400D02*
X2729Y3189D01*
X2446Y3400D02*
X2716Y3129D01*
X2302Y3400D02*
X2768Y2934D01*
X2374Y3400D02*
X2718Y3055D01*
X2015Y3400D02*
X2580Y2834D01*
X2913Y3372D02*
X2940Y3399D01*
X2877Y3399D02*
X2906Y3370D01*
X2805Y3399D02*
X2857Y3347D01*
X2733Y3399D02*
X2815Y3318D01*
X2661Y3399D02*
X2779Y3281D01*
X2518Y2834D02*
X2721Y3037D01*
X1943Y3400D02*
X2510Y2833D01*
X1871Y3400D02*
X2452Y2818D01*
X1799Y3400D02*
X2404Y2795D01*
X1727Y3400D02*
X2362Y2765D01*
X1655Y3400D02*
X2327Y2728D01*
X1296Y3400D02*
X3290Y1406D01*
X2589Y2833D02*
X2739Y2983D01*
X2413Y2801D02*
X2714Y3102D01*
X2230Y3400D02*
X3344Y2285D01*
X2086Y3400D02*
X2684Y2802D01*
X2158Y3400D02*
X3344Y2213D01*
X1512Y3400D02*
X2277Y2634D01*
X1440Y3400D02*
X2265Y2574D01*
X1368Y3400D02*
X2269Y2499D01*
X898Y2794D02*
X1504Y3400D01*
X850Y2818D02*
X1432Y3400D01*
X939Y2764D02*
X1575Y3400D01*
X1583Y3400D02*
X2298Y2685D01*
X1035Y2572D02*
X1863Y3400D01*
X1030Y2495D02*
X1935Y3400D01*
X1003Y2683D02*
X1719Y3400D01*
X974Y2727D02*
X1647Y3400D01*
X1023Y2632D02*
X1791Y3400D01*
X362Y3400D02*
X391Y3371D01*
X338Y3383D02*
X354Y3400D01*
X395Y3369D02*
X426Y3400D01*
X290Y3400D02*
X304Y3386D01*
X266Y3384D02*
X283Y3400D01*
X218Y3400D02*
X239Y3379D01*
X572Y3187D02*
X785Y3400D01*
X551Y3237D02*
X714Y3400D01*
X584Y3127D02*
X857Y3400D01*
X486Y3316D02*
X570Y3400D01*
X444Y3346D02*
X498Y3400D01*
X522Y3280D02*
X642Y3400D01*
X146Y3400D02*
X185Y3361D01*
X5Y3338D02*
X67Y3400D01*
X74Y3400D02*
X139Y3336D01*
X3Y3400D02*
X99Y3303D01*
X-3Y3400D02*
X5Y3392D01*
Y3266D02*
X139Y3400D01*
X159Y3348D02*
X211Y3400D01*
X5Y3326D02*
X66Y3264D01*
X5Y3254D02*
X40Y3219D01*
X5Y3194D02*
X52Y3241D01*
X5Y3182D02*
X22Y3165D01*
X5Y3122D02*
X16Y3134D01*
X793Y2832D02*
X1360Y3400D01*
X723Y2834D02*
X1288Y3400D01*
X622Y2805D02*
X1216Y3400D01*
X5Y2260D02*
X1145Y3400D01*
X5Y2332D02*
X1073Y3400D01*
X5Y1398D02*
X2006Y3400D01*
X663Y1122D02*
X2728Y3187D01*
X571Y3191D02*
X2641Y1121D01*
X5Y1111D02*
X2294Y3400D01*
X5Y1254D02*
X2150Y3400D01*
X5Y1326D02*
X2078Y3400D01*
X5Y1183D02*
X2222Y3400D01*
X524Y2923D02*
X1001Y3400D01*
X582Y3052D02*
X929Y3400D01*
X586Y3104D02*
X893Y2797D01*
X5Y3051D02*
X17Y3062D01*
X5Y3110D02*
X14Y3101D01*
X579Y3039D02*
X785Y2833D01*
X5Y3038D02*
X27Y3016D01*
X561Y2985D02*
X713Y2833D01*
X5Y2907D02*
X54Y2956D01*
X5Y2979D02*
X31Y3005D01*
X5Y2967D02*
X468Y2503D01*
X3316Y2737D02*
X3343Y2764D01*
X3334Y2716D02*
X3383Y2764D01*
X3218Y2915D02*
X3277Y2856D01*
X3221Y2799D02*
X3281Y2859D01*
X3356Y2705D02*
X3364Y2696D01*
X3345Y2716D02*
X3356Y2705D01*
Y2665D02*
X3364Y2674D01*
X3316Y2716D02*
X3356D01*
X3316D02*
Y2737D01*
X3320Y2741D02*
X3345Y2716D01*
X3181Y2879D02*
X3241Y2820D01*
X3139Y2850D02*
X3208Y2781D01*
X3089Y2829D02*
X3202Y2716D01*
X2773Y2729D02*
X2883Y2839D01*
X2737Y2766D02*
X2837Y2865D01*
X2801Y2686D02*
X2937Y2821D01*
X3204Y2716D02*
Y2760D01*
X3164Y2716D02*
X3204D01*
X3190D02*
X3204Y2730D01*
X3029Y2816D02*
X3164Y2681D01*
X3356Y2633D02*
X3364Y2625D01*
X3356Y2484D02*
Y2716D01*
X3364Y2484D02*
Y2716D01*
X3356Y2593D02*
X3364Y2602D01*
X2802Y2684D02*
X3344Y2142D01*
X2834Y2580D02*
X3344Y2070D01*
X3356Y2522D02*
X3364Y2530D01*
X3356Y2562D02*
X3364Y2553D01*
X3352Y2446D02*
X3390Y2484D01*
X3316D02*
X3356D01*
X3221Y2421D02*
X3344Y2297D01*
Y2026D02*
Y2297D01*
X2955Y2818D02*
X3164Y2609D01*
X2834Y2575D02*
X3087Y2828D01*
X3164Y2484D02*
Y2716D01*
X2834Y2868D02*
X3164Y2537D01*
X2823Y2635D02*
X3002Y2814D01*
X2833Y2510D02*
X3328Y2014D01*
X3204Y2460D02*
Y2484D01*
X2818Y2452D02*
X3298Y1973D01*
X3164Y2484D02*
X3204D01*
X2795Y2404D02*
X3292Y1907D01*
X2647Y2819D02*
X2765Y2937D01*
X536Y2939D02*
X655Y2819D01*
X2696Y2796D02*
X2798Y2898D01*
X503Y2899D02*
X606Y2797D01*
X464Y2866D02*
X564Y2767D01*
X5Y2895D02*
X523Y2377D01*
X2737Y2766D02*
X2837Y2865D01*
X419Y2840D02*
X529Y2730D01*
X365Y2822D02*
X500Y2687D01*
X5Y2188D02*
X495Y2678D01*
X5Y2619D02*
X213Y2828D01*
X5Y2691D02*
X163Y2849D01*
X216Y2827D02*
X466Y2578D01*
X5Y2763D02*
X120Y2878D01*
X5Y2835D02*
X84Y2914D01*
X5Y2404D02*
X477Y2876D01*
X301Y2814D02*
X478Y2637D01*
X5Y2548D02*
X273Y2816D01*
X5Y2476D02*
X348Y2818D01*
X5Y2045D02*
X468Y2507D01*
X5Y2117D02*
X466Y2577D01*
X5Y1973D02*
X482Y2450D01*
X2634Y2277D02*
X3391Y1520D01*
X1033Y2585D02*
X2489Y1129D01*
X1033Y2513D02*
X2435Y1111D01*
X997Y2693D02*
X2554Y1136D01*
X748Y1136D02*
X2299Y2687D01*
X867Y1111D02*
X2267Y2511D01*
X2574Y2265D02*
X3338Y1502D01*
X2610Y1129D02*
X3327Y1847D01*
X2664Y1112D02*
X3375Y1822D01*
X2499Y2269D02*
X3304Y1464D01*
X2544Y1136D02*
X3297Y1889D01*
X2457Y1120D02*
X3292Y1956D01*
X5Y1829D02*
X536Y2361D01*
X5Y1901D02*
X506Y2402D01*
X813Y1129D02*
X2266Y2582D01*
X5Y1686D02*
X617Y2297D01*
X5Y1757D02*
X573Y2326D01*
X5Y1614D02*
X668Y2277D01*
X5Y1889D02*
X759Y1135D01*
X5Y1817D02*
X692Y1130D01*
X5Y1745D02*
X638Y1113D01*
X5Y1470D02*
X805Y2270D01*
X5Y1542D02*
X728Y2265D01*
X5Y1961D02*
X847Y1118D01*
X3796Y972D02*
X3804Y963D01*
X3796Y1022D02*
X3804Y1031D01*
X3796Y950D02*
X3804Y959D01*
X3796Y1094D02*
X3804Y1103D01*
X3756Y1156D02*
X3804Y1107D01*
X3796Y1044D02*
X3804Y1035D01*
X3838Y777D02*
X3853Y792D01*
X3832D02*
X3847Y777D01*
X3880D02*
X3896Y792D01*
X3816D02*
X3896D01*
X3796Y947D02*
X3804Y938D01*
X3796Y947D02*
Y1116D01*
X3804Y938D02*
Y1116D01*
X3542Y1056D02*
X3644Y1158D01*
X3604Y1056D02*
Y1116D01*
X3499Y1056D02*
X3604Y1056D01*
X3701Y884D02*
X3777Y809D01*
X3604Y884D02*
X3701D01*
X3766Y777D02*
X3789Y800D01*
X3604Y884D02*
Y944D01*
X3499Y944D02*
X3604Y944D01*
X3536Y944D02*
X3704Y777D01*
X3887Y665D02*
X3957Y596D01*
X3815Y665D02*
X3885Y596D01*
X3832Y556D02*
X4294Y1018D01*
X3533Y777D02*
X3880D01*
X3668Y884D02*
X3776Y777D01*
X3556Y665D02*
X3903D01*
X3884Y596D02*
X4116D01*
X3884Y556D02*
Y596D01*
X3760Y556D02*
X3870Y665D01*
X3743D02*
X3853Y556D01*
X3716Y583D02*
X3798Y665D01*
X3671D02*
X3781Y556D01*
X3694Y777D02*
X3752Y834D01*
X3622Y777D02*
X3716Y870D01*
X3599Y665D02*
X3669Y596D01*
X3550Y777D02*
X3658Y884D01*
X3657Y596D02*
X3726Y665D01*
X3585Y596D02*
X3655Y665D01*
X3716Y556D02*
Y596D01*
X3513D02*
X3583Y665D01*
X3506Y615D02*
X3525Y596D01*
X3542Y651D02*
X3597Y596D01*
X2750Y1054D02*
X3644Y1948D01*
X3295Y1096D02*
X3644Y1445D01*
X2783Y1015D02*
X3644Y1877D01*
X1152Y3400D02*
X3497Y1056D01*
X2710Y1086D02*
X3464Y1840D01*
X1224Y3400D02*
X3568Y1056D01*
X3470Y1056D02*
X3644Y1230D01*
X3416Y1073D02*
X3644Y1302D01*
X3416Y944D02*
X3499D01*
X3366Y1096D02*
X3644Y1374D01*
X3396Y1300D02*
X3604Y1091D01*
X3416Y1056D02*
X3499D01*
X3223Y1096D02*
X3431Y1304D01*
X3416Y1065D02*
X3425Y1056D01*
X3416D02*
Y1096D01*
X1080Y3400D02*
X3385Y1096D01*
X1009Y3400D02*
X3313Y1096D01*
X3184D02*
X3416D01*
Y929D02*
X3431Y944D01*
X3416Y904D02*
Y944D01*
X3382Y896D02*
X3391Y904D01*
X3184Y896D02*
X3416D01*
X3184Y904D02*
X3416D01*
X3310Y896D02*
X3319Y904D01*
X3416Y786D02*
X3574Y944D01*
X3416Y857D02*
X3503Y944D01*
X3464D02*
X3632Y777D01*
X3416Y921D02*
X3560Y777D01*
X3416Y849D02*
X3499Y765D01*
X3416Y714D02*
X3604Y903D01*
X3486Y596D02*
X3716D01*
X3416Y777D02*
X3463Y730D01*
X3486Y596D02*
X3556Y665D01*
X3416Y705D02*
X3427Y694D01*
X3376Y704D02*
X3416D01*
X3376Y642D02*
X3494Y760D01*
X2824Y768D02*
X3362Y1306D01*
X2836Y852D02*
X3319Y1335D01*
X1265Y0D02*
X3344Y2079D01*
X1121Y0D02*
X3344Y2223D01*
X1049Y0D02*
X3344Y2295D01*
X1193Y0D02*
X3344Y2151D01*
X3406Y704D02*
X3416Y714D01*
Y704D02*
Y896D01*
X3376Y674D02*
X3391Y658D01*
X3376Y674D02*
X3406Y704D01*
X3360Y904D02*
X3369Y896D01*
X3376Y642D02*
Y704D01*
X3884Y404D02*
X4116D01*
X3884D02*
Y444D01*
X3820Y444D02*
X3884Y380D01*
X3799Y444D02*
X3884Y444D01*
X3799Y556D02*
X3884Y556D01*
X3776Y356D02*
X3865Y444D01*
X3884Y396D02*
X4116D01*
X3888D02*
X3897Y404D01*
X3884Y356D02*
Y396D01*
X3716Y356D02*
X3884D01*
X3848D02*
X3884Y392D01*
X3716Y244D02*
X3884D01*
X3716Y556D02*
X3799D01*
X3716Y367D02*
X3793Y444D01*
X3748D02*
X3837Y356D01*
X3716Y444D02*
X3799D01*
X3716Y439D02*
X3721Y444D01*
X3716Y404D02*
Y444D01*
Y356D02*
Y396D01*
X3672D02*
X3681Y404D01*
X3716Y405D02*
X3765Y356D01*
X3600Y396D02*
X3609Y404D01*
X3573D02*
X3582Y396D01*
X3645Y404D02*
X3654Y396D01*
X3884Y204D02*
Y244D01*
X3877D02*
X3884Y237D01*
X3805Y244D02*
X3894Y156D01*
X3733Y244D02*
X3822Y156D01*
X3720D02*
X3808Y244D01*
X3791Y156D02*
X3880Y244D01*
X3884Y204D02*
X4116D01*
X3863Y156D02*
X3912Y204D01*
X3861Y44D02*
X3906Y0D01*
X3789Y44D02*
X3834Y0D01*
X3779D02*
X3824Y44D01*
X3851Y0D02*
X3896Y44D01*
X3716Y223D02*
X3737Y244D01*
X3716Y204D02*
Y244D01*
X3701Y204D02*
X3750Y156D01*
X3697Y204D02*
X3716Y223D01*
X3629Y204D02*
X3678Y156D01*
X3576D02*
X3625Y204D01*
X3708Y0D02*
X3752Y44D01*
X3648Y156D02*
X3697Y204D01*
X3717Y44D02*
X3762Y0D01*
X3636D02*
X3680Y44D01*
X3574D02*
X3618Y0D01*
X3646Y44D02*
X3690Y0D01*
X3484Y417D02*
Y594D01*
X3470Y579D02*
X3484Y565D01*
Y421D02*
X3501Y404D01*
X3456Y450D02*
X3484Y421D01*
X3456Y466D02*
X3484Y495D01*
X3456Y446D02*
X3484Y417D01*
X3506Y396D02*
X3716D01*
X3501Y404D02*
X3510Y396D01*
X3528D02*
X3537Y404D01*
X3497D02*
X3716D01*
X3484Y417D02*
X3497Y404D01*
X3506Y396D01*
X3456Y538D02*
X3484Y567D01*
X3456Y565D02*
X3484Y594D01*
X3456Y446D02*
Y565D01*
Y522D02*
X3484Y493D01*
X3376Y346D02*
Y369D01*
X3445Y299D01*
X3478Y284D02*
X3484Y277D01*
X3463Y259D02*
X3484Y280D01*
X3427Y295D02*
X3439Y306D01*
X3392Y330D02*
X3403Y342D01*
X3557Y204D02*
X3606Y156D01*
X3535Y187D02*
X3553Y204D01*
X3566Y156D02*
X4077D01*
X3518Y204D02*
X3716D01*
X3518D02*
X3566Y156D01*
X3283Y263D02*
X3546Y0D01*
X3543Y44D02*
X4100D01*
X3564Y0D02*
X3608Y44D01*
X3492Y0D02*
X3537Y45D01*
X8Y0D02*
X5300D01*
X3376Y346D02*
X3484Y238D01*
Y283D01*
X3285Y280D02*
X3504Y61D01*
X3269Y205D02*
X3474Y0D01*
X3271Y210D02*
X3313Y252D01*
X3133Y0D02*
X3349Y216D01*
X3348Y0D02*
X3457Y108D01*
X3277Y0D02*
X3421Y144D01*
X3420Y0D02*
X3493Y72D01*
X3205Y0D02*
X3385Y180D01*
X3217Y114D02*
X3331Y0D01*
X3247Y156D02*
X3403Y0D01*
X937Y3400D02*
X3241Y1096D01*
X865Y3400D02*
X3184Y1080D01*
X1036Y848D02*
X2465Y2277D01*
X721Y3400D02*
X3184Y937D01*
X793Y3400D02*
X3184Y1008D01*
X649Y3400D02*
X3184Y865D01*
X3238Y896D02*
X3247Y904D01*
X3217D02*
X3225Y896D01*
X3288Y904D02*
X3297Y896D01*
X2809Y970D02*
X3303Y1464D01*
X2828Y916D02*
X3293Y1382D01*
X3184Y904D02*
Y1096D01*
X1019Y2455D02*
X2389Y1086D01*
X997Y2406D02*
X2349Y1053D01*
X985Y1013D02*
X2334Y2363D01*
X952Y1052D02*
X2304Y2404D01*
X913Y1085D02*
X2281Y2453D01*
X967Y2364D02*
X2316Y1014D01*
X1011Y967D02*
X2371Y2327D01*
X985Y1013D02*
X2334Y2363D01*
X1029Y913D02*
X2414Y2299D01*
X930Y2329D02*
X2290Y969D01*
X887Y2300D02*
X2272Y915D01*
X837Y2278D02*
X2264Y851D01*
X978Y0D02*
X3310Y2332D01*
X906Y0D02*
X3274Y2368D01*
X2127Y0D02*
X3184Y1057D01*
X762Y0D02*
X3207Y2445D01*
X690Y0D02*
X3175Y2484D01*
X834Y0D02*
X3238Y2404D01*
X3000Y586D02*
X3184Y770D01*
Y704D02*
Y896D01*
X2915Y573D02*
X3184Y842D01*
X2821Y941D02*
X3264Y497D01*
X2271Y0D02*
X3184Y914D01*
X2199Y0D02*
X3184Y985D01*
X1022Y763D02*
X2525Y2266D01*
X1337Y0D02*
X2280Y943D01*
X703Y2268D02*
X2718Y253D01*
X778Y2266D02*
X2277Y766D01*
X1018Y947D02*
X1966Y0D01*
X2836Y854D02*
X3143Y547D01*
X2829Y789D02*
X3035Y583D01*
X1481Y0D02*
X2271Y790D01*
X1035Y859D02*
X1894Y0D01*
X1030Y792D02*
X1822Y0D01*
X1409D02*
X2264Y856D01*
X506Y3400D02*
X3184Y721D01*
X577Y3400D02*
X3184Y793D01*
X434Y3400D02*
X3264Y569D01*
X5Y967D02*
X2437Y3400D01*
X5Y1039D02*
X2366Y3400D01*
X5Y895D02*
X2509Y3400D01*
X5Y608D02*
X2797Y3399D01*
X5Y1673D02*
X591Y1087D01*
X5Y752D02*
X2653Y3399D01*
X5Y823D02*
X2581Y3400D01*
X5Y680D02*
X2725Y3399D01*
X5Y1386D02*
X473Y918D01*
X5Y1314D02*
X464Y855D01*
X5Y1242D02*
X475Y772D01*
X5Y1602D02*
X551Y1055D01*
X5Y1530D02*
X518Y1017D01*
X5Y1458D02*
X492Y971D01*
X268Y584D02*
X471Y787D01*
X5Y883D02*
X303Y586D01*
X163Y551D02*
X464Y852D01*
X5Y955D02*
X388Y572D01*
X5Y811D02*
X238Y579D01*
X5Y739D02*
X184Y561D01*
X475Y0D02*
X3164Y2690D01*
X5Y2823D02*
X2828Y0D01*
X547D02*
X3164Y2618D01*
X5Y536D02*
X2868Y3399D01*
X5Y2679D02*
X2684Y0D01*
X5Y2751D02*
X2756Y0D01*
X577Y2323D02*
X2773Y127D01*
X581Y250D02*
X2600Y2269D01*
X618Y0D02*
X3164Y2546D01*
X515Y112D02*
X2738Y2335D01*
X5Y2607D02*
X2612Y0D01*
X5Y2536D02*
X2541Y0D01*
X5Y2320D02*
X2325Y0D01*
X5Y2248D02*
X2253Y0D01*
X5Y2176D02*
X2181Y0D01*
X5Y2464D02*
X2469Y0D01*
X5Y3D02*
Y3392D01*
Y2392D02*
X2397Y0D01*
X5Y1027D02*
X1032Y0D01*
X5Y464D02*
X478Y937D01*
X5Y1099D02*
X1104Y0D01*
X5Y2104D02*
X2109Y0D01*
X5Y2033D02*
X2038Y0D01*
X5Y1171D02*
X1176Y0D01*
X3201Y704D02*
X3264Y641D01*
X3184Y704D02*
X3264D01*
Y408D02*
Y704D01*
X3184Y721D02*
X3201Y704D01*
X3064Y578D02*
X3191Y704D01*
X3118Y560D02*
X3263Y704D01*
X3235Y462D02*
X3264Y491D01*
X3203Y501D02*
X3264Y563D01*
X3247Y443D02*
X3264Y426D01*
X3164Y534D02*
X3264Y634D01*
X3087Y28D02*
X3115Y0D01*
X2811Y735D02*
X2963Y583D01*
X2786Y689D02*
X2905Y569D01*
X2753Y649D02*
X2856Y547D01*
X2714Y616D02*
X2814Y517D01*
X2669Y590D02*
X2779Y480D01*
X1552Y0D02*
X2288Y736D01*
X2989Y0D02*
X3004Y14D01*
X2953Y18D02*
X2972Y0D01*
X3061D02*
X3090Y29D01*
X2615Y572D02*
X2750Y437D01*
X2551Y564D02*
X2728Y387D01*
X2466Y577D02*
X2716Y328D01*
X2702Y0D02*
X2799Y97D01*
X2630Y0D02*
X2766Y136D01*
X3180Y79D02*
X3259Y0D01*
X2343D02*
X2727Y385D01*
X2486Y0D02*
X2722Y236D01*
X2558Y0D02*
X2740Y182D01*
X3028Y16D02*
X3043Y0D01*
X2917D02*
X2939Y21D01*
X3137Y50D02*
X3187Y0D01*
X2827Y73D02*
X2900Y0D01*
X2774D02*
X2838Y65D01*
X2846Y0D02*
X2884Y39D01*
X1624Y0D02*
X2314Y690D01*
X1013Y738D02*
X1750Y0D01*
X1696D02*
X2346Y650D01*
X955Y651D02*
X1607Y0D01*
X917Y618D02*
X1535Y0D01*
X987Y691D02*
X1678Y0D01*
X2055D02*
X2632Y576D01*
X1983Y0D02*
X2548Y564D01*
X2414Y0D02*
X2714Y300D01*
X1840Y0D02*
X2430Y591D01*
X1768Y0D02*
X2385Y617D01*
X1912Y0D02*
X2484Y572D01*
X487Y516D02*
X587Y615D01*
X446Y546D02*
X548Y648D01*
X487Y516D02*
X587Y615D01*
X397Y569D02*
X515Y687D01*
X339Y583D02*
X489Y733D01*
X5Y668D02*
X138Y535D01*
X573Y385D02*
X752Y564D01*
X551Y436D02*
X687Y571D01*
X584Y325D02*
X837Y578D01*
X523Y479D02*
X633Y589D01*
X5Y596D02*
X98Y502D01*
X5Y380D02*
X22Y364D01*
X5Y321D02*
X16Y332D01*
X5Y308D02*
X14Y299D01*
X5Y524D02*
X66Y463D01*
X5Y452D02*
X40Y417D01*
X5Y392D02*
X49Y437D01*
X5Y33D02*
X84Y113D01*
X5Y105D02*
X54Y154D01*
X5Y33D02*
X84Y113D01*
X5Y237D02*
X28Y214D01*
X5Y249D02*
X17Y261D01*
X5Y177D02*
X31Y203D01*
X818Y573D02*
X1391Y0D01*
X755Y564D02*
X1319Y0D01*
X871Y592D02*
X1463Y0D01*
X572Y388D02*
X960Y0D01*
X586Y303D02*
X888Y0D01*
X672Y575D02*
X1247Y0D01*
X561Y184D02*
X744Y0D01*
X535Y138D02*
X673Y0D01*
X579Y238D02*
X816Y0D01*
X463Y66D02*
X529Y0D01*
X403D02*
X488Y85D01*
X502Y98D02*
X601Y0D01*
X214Y28D02*
X242Y0D01*
X116D02*
X164Y49D01*
X417Y40D02*
X457Y0D01*
X5Y165D02*
X170Y0D01*
X5Y93D02*
X98Y0D01*
X44D02*
X121Y77D01*
X331Y0D02*
X350Y19D01*
X299Y14D02*
X313Y0D01*
X364Y22D02*
X385Y0D01*
X187D02*
X215Y27D01*
X5Y21D02*
X26Y0D01*
X259D02*
X275Y16D01*
D30*
X3400Y1410D02*
D03*
Y1930D02*
D03*
D31*
X2550Y850D02*
D03*
Y2550D02*
D03*
X750D02*
D03*
Y850D02*
D03*
X3000Y300D02*
D03*
Y3100D02*
D03*
X300Y300D02*
D03*
Y3100D02*
D03*
D32*
X4700Y500D02*
D03*
X4446Y246D02*
D03*
Y754D02*
D03*
X4954D02*
D03*
Y246D02*
D03*
D33*
X4200Y2800D02*
D03*
D34*
X4800Y2800D02*
D03*
D35*
X4480Y3280D02*
D03*
D36*
X4050Y2280D02*
D03*
X4390Y1280D02*
D03*
X4213Y1773D02*
D03*
X3900Y1168D02*
D03*
M02*
