G04*
G04 #@! TF.GenerationSoftware,Altium Limited,Altium Designer,20.1.14 (287)*
G04*
G04 Layer_Color=8388736*
%FSLAX42Y42*%
%MOMM*%
G71*
G04*
G04 #@! TF.SameCoordinates,C0F7CC4A-4C12-43CF-AD3A-5075A501ED9E*
G04*
G04*
G04 #@! TF.FilePolarity,Negative*
G04*
G01*
G75*
%ADD18R,1.20X0.80*%
%ADD19R,1.80X1.40*%
%ADD20R,1.40X1.80*%
%ADD21R,0.80X1.20*%
%ADD22C,1.70*%
%ADD23C,5.20*%
%ADD24C,2.70*%
%ADD25O,2.00X4.80*%
%ADD26O,2.00X3.80*%
%ADD27O,3.80X2.00*%
%ADD28C,1.47*%
D18*
X3775Y2620D02*
D03*
Y2430D02*
D03*
X4015Y2525D02*
D03*
D19*
X4000Y500D02*
D03*
Y300D02*
D03*
X3600Y500D02*
D03*
Y300D02*
D03*
X3300Y1000D02*
D03*
Y800D02*
D03*
D20*
X4100Y1550D02*
D03*
X3900D02*
D03*
X4590Y1070D02*
D03*
X4390D02*
D03*
X3260Y2600D02*
D03*
X3460D02*
D03*
X4700Y1600D02*
D03*
X4500D02*
D03*
X3900Y1000D02*
D03*
X3700D02*
D03*
X4700Y2000D02*
D03*
X4500D02*
D03*
D21*
X3905Y2135D02*
D03*
X4095D02*
D03*
Y1865D02*
D03*
X4000D02*
D03*
X3905D02*
D03*
D22*
X3400Y1410D02*
D03*
Y1930D02*
D03*
D23*
X2550Y850D02*
D03*
Y2550D02*
D03*
X750D02*
D03*
Y850D02*
D03*
X3000Y300D02*
D03*
Y3100D02*
D03*
X300Y300D02*
D03*
Y3100D02*
D03*
D24*
X4700Y500D02*
D03*
X4446Y246D02*
D03*
Y754D02*
D03*
X4954D02*
D03*
Y246D02*
D03*
D25*
X4200Y2800D02*
D03*
D26*
X4800Y2800D02*
D03*
D27*
X4480Y3280D02*
D03*
D28*
X4050Y2280D02*
D03*
X4390Y1280D02*
D03*
X4213Y1773D02*
D03*
X3900Y1168D02*
D03*
M02*
